#N canvas 424 265 1451 667 10;
#X declare -path CG-Pd-Library-Local/sequencer;
#X declare -path CG-Pd-Library-Local/externals;
#X declare -path CG-Pd-Library-Local/metronome;
#X obj 911 396 s notesOut-\$1;
#X obj 25 186 inlet~ inL-\$1;
#X obj 135 186 inlet~ inR-\$1;
#X obj 27 491 outlet~ outL-\$1;
#X obj 136 491 outlet~ outR-\$1;
#X obj 30 286 r auxIn-\$1;
#X obj 25 22 r expIn-\$1;
#X obj 25 47 r fsIn-\$1;
#X obj 239 381 list append 0;
#X obj 26 78 r ctrlIn-\$1;
#X obj 26 104 s ctrlOut-\$1;
#N canvas 13 50 450 300 CG-PdLibrary-Local 0;
#X obj 502 35 r cgSc-1-slots;
#X obj 60 98 declare -path CG-Pd-Library-Local/sequencer;
#X obj 58 130 declare -path CG-Pd-Library-Local/externals;
#X obj 59 165 declare -path CG-Pd-Library-Local/metronome;
#X restore 27 135 pd CG-PdLibrary-Local;
#N canvas 1245 142 538 693 page-selection 0;
#X obj 60 205 stripnote;
#X obj 60 187 spigot 0;
#X obj 137 121 sel \$1;
#X obj 137 103 unpack s s;
#X msg 137 139 1;
#X msg 170 139 0;
#X obj 137 85 r activePage;
#X msg 149 243 0;
#X msg 180 244 1;
#X msg 213 243 2;
#X msg 246 243 3;
#X msg 277 243 4;
#X msg 316 243 5;
#X msg 349 243 6;
#X obj 137 170 s patch-enc;
#X obj 60 160 inlet;
#X obj 169 220 sel 60 62 64 65 67 69 71 72 74 76 77 79 81 83;
#X msg 247 473 selectpage \$1;
#X obj 247 491 s rackMsgs;
#X obj 310 384 ==;
#X obj 310 405 sel 0;
#X msg 310 426 1;
#X msg 340 426 0;
#X obj 248 440 spigot 1;
#X obj 343 384 f;
#X obj 248 370 t f b f;
#X obj 410 322 r loadbang-\$1;
#X obj 410 343 delay 500;
#X msg 410 364 0;
#X obj 278 127 bng 15 250 50 0 empty empty empty 17 7 0 10 -262144
-1 -1;
#X connect 0 0 16 0;
#X connect 1 0 0 0;
#X connect 2 0 4 0;
#X connect 2 0 27 0;
#X connect 2 1 5 0;
#X connect 2 1 29 0;
#X connect 2 1 7 0;
#X connect 3 0 2 0;
#X connect 4 0 1 1;
#X connect 4 0 14 0;
#X connect 5 0 1 1;
#X connect 5 0 14 0;
#X connect 6 0 3 0;
#X connect 7 0 25 0;
#X connect 8 0 25 0;
#X connect 9 0 25 0;
#X connect 10 0 25 0;
#X connect 11 0 25 0;
#X connect 12 0 25 0;
#X connect 13 0 25 0;
#X connect 15 0 1 0;
#X connect 16 0 7 0;
#X connect 16 1 8 0;
#X connect 16 2 9 0;
#X connect 16 3 10 0;
#X connect 16 4 11 0;
#X connect 16 5 12 0;
#X connect 16 6 13 0;
#X connect 17 0 18 0;
#X connect 19 0 20 0;
#X connect 20 0 21 0;
#X connect 20 1 22 0;
#X connect 21 0 23 1;
#X connect 22 0 23 1;
#X connect 23 0 17 0;
#X connect 24 0 19 0;
#X connect 25 0 19 1;
#X connect 25 0 23 0;
#X connect 25 1 24 0;
#X connect 25 2 24 1;
#X connect 26 0 27 0;
#X connect 27 0 28 0;
#X connect 28 0 24 1;
#X restore 27 455 pd page-selection;
#X obj 331 381 list append 0;
#X obj 424 381 list append 0;
#X obj 516 381 list append 0;
#X obj 609 381 list append 0;
#X obj 701 381 list append 0;
#X obj 794 381 list append 0;
#X obj 331 349 spigot 1;
#X obj 378 329 tgl 15 0 empty empty empty 17 7 0 10 -262144 -1 -1 1
1;
#X obj 424 349 spigot 1;
#X obj 471 329 tgl 15 0 empty empty empty 17 7 0 10 -262144 -1 -1 1
1;
#X obj 239 349 spigot 1;
#X obj 286 329 tgl 15 0 empty empty empty 17 7 0 10 -262144 -1 -1 1
1;
#X obj 609 349 spigot 1;
#X obj 656 329 tgl 15 0 empty empty empty 17 7 0 10 -262144 -1 -1 1
1;
#X obj 701 349 spigot 1;
#X obj 748 329 tgl 15 0 empty empty empty 17 7 0 10 -262144 -1 -1 1
1;
#X obj 516 349 spigot 1;
#X obj 563 329 tgl 15 0 empty empty empty 17 7 0 10 -262144 -1 -1 1
1;
#X obj 794 349 spigot 1;
#X obj 841 329 tgl 15 0 empty empty empty 17 7 0 10 -262144 -1 -1 1
1;
#X obj 1015 315 sel 72 74 76 77 79 81 83, f 25;
#X obj 913 315 r loadbang-\$1;
#X obj 993 262 poly 7 1;
#X text 1072 284 Perform MUTES;
#X obj 415 134 r notesIn-\$1;
#N canvas 676 200 450 492 hold-note 0;
#X obj 54 12 inlet;
#X obj 265 184 outlet;
#X obj 54 61 unpack;
#X obj 87 87 sel 0;
#X msg 153 170 stop;
#X obj 54 33 t a a, f 37;
#X msg 265 95 69;
#X obj 265 138 route 69;
#X obj 265 117 list append;
#X obj 61 190 t b b;
#X msg 87 249 1;
#X msg 133 227 0;
#X obj 87 289 sel 0 1;
#X obj 325 186 outlet;
#X obj 328 72 stripnote;
#X obj 328 93 pack 0 0;
#X obj 114 109 t b b b b;
#X msg 165 133 1;
#X obj 61 212 spigot 0;
#X obj 133 196 del 150;
#X connect 0 0 5 0;
#X connect 2 1 3 0;
#X connect 3 0 9 0;
#X connect 3 1 16 0;
#X connect 4 0 19 0;
#X connect 5 0 2 0;
#X connect 5 1 14 0;
#X connect 6 0 8 0;
#X connect 7 0 1 0;
#X connect 8 0 7 0;
#X connect 9 0 18 0;
#X connect 9 1 4 0;
#X connect 10 0 12 0;
#X connect 11 0 12 0;
#X connect 11 0 18 1;
#X connect 12 0 13 0;
#X connect 12 1 6 0;
#X connect 14 0 15 0;
#X connect 14 1 15 1;
#X connect 15 0 8 1;
#X connect 16 1 19 0;
#X connect 16 2 4 0;
#X connect 16 3 17 0;
#X connect 17 0 18 1;
#X connect 18 0 10 0;
#X connect 19 0 11 0;
#X restore 979 136 pd hold-note;
#X floatatom 1043 361 5 0 0 0 - - -;
#X obj 979 111 pack 0 0, f 10;
#X obj 1008 290 spigot 0;
#X obj 1129 84 sel 0 100, f 22;
#X msg 1129 191 0;
#X msg 1193 152 1;
#X obj 1129 166 spigot;
#X msg 1063 150 0;
#X obj 1011 566 s oscOut;
#X msg 912 525 /oled/gFlip 3;
#X msg 1011 546 /oled/gFillArea 3 0 53 132 11 0;
#X obj 290 437 sel 0 1;
#X obj 290 511 pack s s s s s s s, f 91;
#X obj 382 436 sel 0 1;
#X obj 471 437 sel 0 1;
#X obj 563 436 sel 0 1;
#X obj 653 437 sel 0 1;
#X obj 745 436 sel 0 1;
#X obj 833 437 sel 0 1;
#X obj 881 343 delay 50;
#X obj 881 364 t b b b b b;
#X obj 937 443 r loadbang-\$1;
#X msg 309 459 symbol X;
#X msg 401 458 symbol X;
#X msg 490 459 symbol X;
#X msg 582 458 symbol X;
#X msg 672 459 symbol X;
#X msg 764 458 symbol X;
#X msg 852 459 symbol X;
#X msg 290 480 symbol -;
#X msg 382 479 symbol -;
#X msg 471 480 symbol -;
#X msg 563 479 symbol -;
#X msg 653 480 symbol -;
#X msg 745 479 symbol -;
#X msg 833 480 symbol -;
#X msg 1011 525 /oled/gPrintln 3 0 56 8 1 MUTES∆\$1 \$2 \$3 \$4 \$5
\$6 \$7;
#N canvas 4 50 456 507 LED 0;
#X obj 149 398 s aux-led-\$1;
#X obj 86 141 sel 1 2;
#X obj 138 141 sel 3 4 5;
#X obj 201 141 sel 6 7;
#X obj 252 141 sel 8 9 10;
#X msg 96 171 1;
#X msg 155 171 6;
#X msg 209 170 5;
#X msg 271 175 3;
#X obj 148 72 r preset-number-a-\$1;
#X obj 201 297 r bar-led;
#X obj 201 318 sel 7, f 12;
#X obj 149 332 f;
#X connect 1 0 5 0;
#X connect 1 1 5 0;
#X connect 2 0 6 0;
#X connect 2 1 6 0;
#X connect 2 2 6 0;
#X connect 3 0 7 0;
#X connect 3 1 7 0;
#X connect 4 0 8 0;
#X connect 4 1 8 0;
#X connect 4 2 8 0;
#X connect 5 0 12 1;
#X connect 6 0 12 1;
#X connect 7 0 12 1;
#X connect 8 0 12 1;
#X connect 9 0 1 0;
#X connect 9 0 2 0;
#X connect 9 0 3 0;
#X connect 9 0 4 0;
#X connect 10 0 11 0;
#X connect 11 0 12 0;
#X connect 11 1 0 0;
#X connect 12 0 0 0;
#X restore 1260 279 pd LED;
#X obj 28 385 poly 1 0;
#X obj 26 422 pack 0 0;
#X msg 1006 360 0 0 0;
#X obj 30 310 sel 1;
#X msg 29 333 0, f 1;
#X msg 52 333 1, f 1;
#X obj 28 359 spigot 1;
#X obj 415 185 spigot 0;
#X obj 149 436 s int-pat-sel-\$1;
#X obj 125 285 r int-pat-sel-\$1;
#X obj 149 391 poly 1 0;
#X obj 149 414 pack 0 0, f 11;
#X obj 239 300 overflow a \$1;
#X obj 330 300 overflow b \$1;
#X obj 423 300 overflow c \$1;
#X obj 519 300 overflow d \$1;
#X obj 613 300 overflow e \$1;
#X obj 708 300 overflow f \$1;
#X obj 801 300 overflow g \$1;
#N canvas 1133 288 502 205 GLOBAL-PATTERN-IN 0;
#X obj 32 78 sel 1 2 3 4 5 6 7 8 9 10, f 55;
#X msg 32 102 61, f 2;
#X msg 64 102 63, f 2;
#X msg 98 102 66, f 2;
#X msg 130 102 68, f 2;
#X msg 161 102 70, f 2;
#X msg 193 102 73, f 2;
#X msg 227 102 75, f 2;
#X msg 259 102 78, f 2;
#X msg 293 102 80, f 2;
#X msg 325 102 82, f 2;
#X obj 371 50 unpack 0 0 0;
#X obj 371 165 outlet;
#X obj 32 40 r master-pattern-change-\$1;
#X obj 371 28 r notesIn-s2;
#X obj 371 116 makenote, f 12;
#X msg 440 74 2;
#X obj 371 139 pack 0 0, f 12;
#X connect 0 0 1 0;
#X connect 0 1 2 0;
#X connect 0 2 3 0;
#X connect 0 3 4 0;
#X connect 0 4 5 0;
#X connect 0 5 6 0;
#X connect 0 6 7 0;
#X connect 0 7 8 0;
#X connect 0 8 9 0;
#X connect 0 9 10 0;
#X connect 1 0 15 0;
#X connect 2 0 15 0;
#X connect 3 0 15 0;
#X connect 4 0 15 0;
#X connect 5 0 15 0;
#X connect 6 0 15 0;
#X connect 7 0 15 0;
#X connect 8 0 15 0;
#X connect 9 0 15 0;
#X connect 10 0 15 0;
#X connect 11 1 15 1;
#X connect 11 2 16 0;
#X connect 13 0 0 0;
#X connect 14 0 11 0;
#X connect 15 0 17 0;
#X connect 15 1 17 1;
#X connect 16 0 15 2;
#X connect 17 0 12 0;
#X restore 102 359 pd GLOBAL-PATTERN-IN;
#X connect 5 0 80 0;
#X connect 5 0 84 1;
#X connect 5 0 89 2;
#X connect 5 0 90 1;
#X connect 5 0 91 1;
#X connect 5 0 92 1;
#X connect 5 0 93 1;
#X connect 5 0 94 1;
#X connect 5 0 95 1;
#X connect 8 0 0 0;
#X connect 13 0 0 0;
#X connect 14 0 0 0;
#X connect 15 0 0 0;
#X connect 16 0 0 0;
#X connect 17 0 0 0;
#X connect 18 0 0 0;
#X connect 19 0 13 0;
#X connect 20 0 19 1;
#X connect 20 0 52 0;
#X connect 20 0 58 0;
#X connect 21 0 14 0;
#X connect 22 0 21 1;
#X connect 22 0 53 0;
#X connect 22 0 58 0;
#X connect 23 0 8 0;
#X connect 24 0 23 1;
#X connect 24 0 50 0;
#X connect 24 0 58 0;
#X connect 25 0 16 0;
#X connect 26 0 25 1;
#X connect 26 0 55 0;
#X connect 26 0 58 0;
#X connect 27 0 17 0;
#X connect 28 0 27 1;
#X connect 28 0 56 0;
#X connect 28 0 58 0;
#X connect 29 0 15 0;
#X connect 30 0 29 1;
#X connect 30 0 54 0;
#X connect 30 0 58 0;
#X connect 31 0 18 0;
#X connect 32 0 31 1;
#X connect 32 0 57 0;
#X connect 32 0 58 0;
#X connect 33 0 24 0;
#X connect 33 0 39 0;
#X connect 33 1 20 0;
#X connect 33 2 22 0;
#X connect 33 3 30 0;
#X connect 33 4 26 0;
#X connect 33 5 28 0;
#X connect 33 6 32 0;
#X connect 34 0 32 0;
#X connect 34 0 30 0;
#X connect 34 0 28 0;
#X connect 34 0 26 0;
#X connect 34 0 24 0;
#X connect 34 0 22 0;
#X connect 34 0 20 0;
#X connect 35 1 40 0;
#X connect 35 1 41 0;
#X connect 35 2 40 1;
#X connect 35 2 42 0;
#X connect 35 2 79 0;
#X connect 37 0 83 0;
#X connect 37 0 84 0;
#X connect 38 1 46 0;
#X connect 40 0 38 0;
#X connect 41 0 33 0;
#X connect 42 0 45 0;
#X connect 42 1 44 0;
#X connect 43 0 41 1;
#X connect 44 0 45 1;
#X connect 44 0 41 1;
#X connect 45 0 43 0;
#X connect 46 0 45 1;
#X connect 48 0 47 0;
#X connect 49 0 47 0;
#X connect 50 0 68 0;
#X connect 50 1 61 0;
#X connect 51 0 75 0;
#X connect 52 0 69 0;
#X connect 52 1 62 0;
#X connect 53 0 70 0;
#X connect 53 1 63 0;
#X connect 54 0 71 0;
#X connect 54 1 64 0;
#X connect 55 0 72 0;
#X connect 55 1 65 0;
#X connect 56 0 73 0;
#X connect 56 1 66 0;
#X connect 57 0 74 0;
#X connect 57 1 67 0;
#X connect 58 0 59 0;
#X connect 59 2 48 0;
#X connect 59 3 51 0;
#X connect 59 4 49 0;
#X connect 60 0 66 0;
#X connect 60 0 64 0;
#X connect 60 0 62 0;
#X connect 60 0 67 0;
#X connect 60 0 65 0;
#X connect 60 0 63 0;
#X connect 60 0 61 0;
#X connect 61 0 51 0;
#X connect 62 0 51 1;
#X connect 63 0 51 2;
#X connect 64 0 51 3;
#X connect 65 0 51 4;
#X connect 66 0 51 5;
#X connect 67 0 51 6;
#X connect 68 0 51 0;
#X connect 69 0 51 1;
#X connect 70 0 51 2;
#X connect 71 0 51 3;
#X connect 72 0 51 4;
#X connect 73 0 51 5;
#X connect 74 0 51 6;
#X connect 75 0 47 0;
#X connect 77 1 78 0;
#X connect 77 2 78 1;
#X connect 78 0 12 0;
#X connect 78 0 85 0;
#X connect 79 0 0 0;
#X connect 80 0 81 0;
#X connect 80 1 82 0;
#X connect 81 0 83 1;
#X connect 82 0 83 1;
#X connect 83 0 77 0;
#X connect 84 0 89 0;
#X connect 84 0 90 0;
#X connect 84 0 91 0;
#X connect 84 0 92 0;
#X connect 84 0 93 0;
#X connect 84 0 94 0;
#X connect 84 0 95 0;
#X connect 86 0 89 1;
#X connect 86 0 90 1;
#X connect 86 0 91 1;
#X connect 86 0 92 1;
#X connect 86 0 93 1;
#X connect 86 0 94 1;
#X connect 86 0 95 1;
#X connect 87 1 88 0;
#X connect 87 2 88 1;
#X connect 88 0 85 0;
#X connect 89 0 23 0;
#X connect 90 0 19 0;
#X connect 91 0 21 0;
#X connect 92 0 29 0;
#X connect 93 0 25 0;
#X connect 94 0 27 0;
#X connect 95 0 31 0;
#X connect 96 0 87 0;
