#N canvas 16 203 1383 683 10;
#X obj 762 10 inlet aux;
#X obj 336 268 outlet notes;
#N canvas 4 283 1857 709 xy-visual-grid 0;
#X obj 538 384 list;
#X msg 538 358 69;
#X obj 538 406 route 69;
#X obj 397 305 t b a a b, f 24;
#X msg 311 379 /oled/gFlip 3;
#X obj 420 462 t a a;
#X obj 538 428 t a a;
#X obj 395 213 * 16;
#X obj 458 229 * 16;
#X obj 395 186 moses 8;
#X obj 199 389 list;
#X msg 199 363 69;
#X obj 199 411 route 69;
#X obj 139 311 t b a a b;
#X msg 53 385 /oled/gFlip 3;
#X obj 162 468 t a a;
#X obj 199 433 t a a;
#X obj 139 201 * 16;
#X obj 202 217 * 16;
#X obj 139 146 moses 8;
#X obj 139 100 spigot 0;
#X msg 540 458 /oled/gBox 3 \$1 \$2 15 15 0;
#X msg 447 498 /oled/gBox 3 \$1 \$2 15 15 1;
#X obj 395 234 + 0;
#X obj 458 250 + 0;
#X msg 458 273 \$1 33;
#X obj 458 209 - 8;
#X obj 626 121 t b b;
#X msg 395 266 \$1 13;
#N canvas 515 272 450 300 simple-conversion 0;
#X obj 40 15 inlet;
#X obj 40 36 unpack 0 0, f 54;
#X obj 40 57 + 7;
#X obj 355 61 + 7;
#X obj 43 154 pack, f 31;
#X obj 43 175 outlet;
#X connect 0 0 1 0;
#X connect 1 0 2 0;
#X connect 1 1 3 0;
#X connect 2 0 4 0;
#X connect 3 0 4 1;
#X connect 4 0 5 0;
#X restore 414 520 pd simple-conversion;
#X obj 202 197 - 8;
#X msg 238 340 0 0;
#X msg 603 344 0 0;
#N canvas 276 79 451 299 place 0;
#X obj 34 13 inlet;
#X obj 119 201 unpack 0 0;
#X obj 119 222 outlet;
#X obj 179 222 outlet;
#X obj 119 103 * 16;
#X obj 182 119 * 16;
#X obj 119 48 moses 8;
#X obj 182 99 - 8;
#X msg 119 167 \$1 17;
#X msg 182 167 \$1 37;
#X obj 119 125 + 4;
#X obj 181 140 + 4;
#X connect 0 0 6 0;
#X connect 1 0 2 0;
#X connect 1 1 3 0;
#X connect 4 0 10 0;
#X connect 5 0 11 0;
#X connect 6 0 4 0;
#X connect 6 1 7 0;
#X connect 7 0 5 0;
#X connect 8 0 1 0;
#X connect 9 0 1 0;
#X connect 10 0 8 0;
#X connect 11 0 9 0;
#X restore 1246 317 pd place;
#X msg 1094 413 0;
#X obj 1121 379 t a b;
#X msg 900 497 /oled/gFlip 3;
#X obj 1000 246 pack 0 0;
#X obj 1000 271 t b a a, f 32;
#X obj 1189 294 unpack 0 0;
#X obj 1094 296 unpack 0 0;
#X obj 1094 330 sel 0;
#X obj 926 159 t b;
#X msg 926 180 0;
#X obj 660 218 t b a;
#X msg 660 259 69;
#X obj 660 280 list, f 7;
#X obj 660 341 t a b;
#X obj 660 301 route 69;
#X obj 607 45 sel 0 1 2;
#X obj 682 94 t b b;
#X obj 1136 32 sel 2;
#X obj 1163 57 t b;
#X msg 1163 78 1;
#X msg 1136 53 0;
#X obj 1076 100 spigot 1;
#X msg 682 118 /oled/gPrintln 3 0 56 8 1 Jam On Top!;
#X msg 660 191 /oled/gPrintln 3 0 56 8 1 Live Mode;
#X obj 510 38 * 17;
#X obj 510 59 i;
#X obj 510 80 moses 16;
#X obj 510 101 + 1;
#X msg 535 159 /oled/gPrintln 3 0 56 8 1 Step: \$1;
#X obj 1094 465 % 100;
#X text 903 468 keeps note numbers to 2 digits;
#N canvas 4 68 606 805 re-print 0;
#X obj 129 24 inlet;
#X obj 129 162 f;
#X obj 160 162 + 1;
#X obj 129 135 until;
#X obj 129 100 t a b;
#X msg 177 130 0;
#X msg 129 76 16;
#X obj 129 48 t b;
#X obj 156 320 pack, f 17;
#X obj 228 248 sel 0;
#X obj 129 293 sel 0;
#N canvas 276 79 451 299 place 0;
#X obj 34 13 inlet;
#X obj 119 201 unpack 0 0;
#X obj 119 222 outlet;
#X obj 179 222 outlet;
#X obj 119 103 * 16;
#X obj 182 119 * 16;
#X obj 119 48 moses 8;
#X obj 182 99 - 8;
#X msg 119 167 \$1 17;
#X msg 182 166 \$1 37;
#X obj 119 124 + 4;
#X obj 182 140 + 4;
#X connect 0 0 6 0;
#X connect 1 0 2 0;
#X connect 1 1 3 0;
#X connect 4 0 10 0;
#X connect 5 0 11 0;
#X connect 6 0 4 0;
#X connect 6 1 7 0;
#X connect 7 0 5 0;
#X connect 8 0 1 0;
#X connect 9 0 1 0;
#X connect 10 0 8 0;
#X connect 11 0 9 0;
#X restore 402 472 pd place;
#X msg 277 729 /oled/gPrintln 3 \$2 \$3 8 1 \$1;
#X obj 277 513 pack 0 0 0, f 22;
#X obj 250 658 pack 0 0 0, f 22;
#X msg 250 568 0;
#X obj 250 766 s oscOut;
#X obj 277 534 t a b;
#X msg 250 691 /oled/gFillArea 3 \$2 \$3 11 8 \$1;
#X obj 156 345 stripnote;
#X msg 56 652 /oled/gFlip 3;
#X obj 156 401 pack 0 0;
#X obj 156 426 t b a a, f 32;
#X obj 345 449 unpack 0 0;
#X obj 250 451 unpack 0 0;
#X obj 250 485 sel 0;
#X obj 250 620 % 100;
#X text 59 623 keeps note numbers to 2 digits;
#X obj 129 183 t f f f, f 29;
#X msg 340 756 /oled/gFillArea 3 \$2 \$3 7 7 \$1;
#X obj 201 372 r x-count-\$1-\$2;
#X obj 383 60 r selected-preset-\$1-\$2;
#X msg 385 108 set vel-list-\$1-\$2-\$3;
#X msg 386 143 set note-list-\$1-\$2-\$3;
#X obj 228 227 tabread;
#X obj 129 272 tabread;
#X connect 0 0 7 0;
#X connect 1 0 2 0;
#X connect 1 0 28 0;
#X connect 2 0 1 1;
#X connect 3 0 1 0;
#X connect 4 0 3 0;
#X connect 4 1 5 0;
#X connect 5 0 1 1;
#X connect 6 0 4 0;
#X connect 7 0 6 0;
#X connect 8 0 19 0;
#X connect 9 1 8 1;
#X connect 10 1 8 0;
#X connect 11 0 13 1;
#X connect 11 0 14 1;
#X connect 11 1 13 2;
#X connect 11 1 14 2;
#X connect 13 0 17 0;
#X connect 14 0 18 0;
#X connect 15 0 26 0;
#X connect 17 0 12 0;
#X connect 17 0 29 0;
#X connect 17 1 15 0;
#X connect 18 0 16 0;
#X connect 19 0 21 0;
#X connect 20 0 16 0;
#X connect 21 0 22 0;
#X connect 22 0 20 0;
#X connect 22 1 24 0;
#X connect 22 2 23 0;
#X connect 23 1 11 0;
#X connect 24 0 25 0;
#X connect 25 0 15 0;
#X connect 25 1 13 0;
#X connect 26 0 14 0;
#X connect 28 0 35 0;
#X connect 28 1 34 0;
#X connect 28 2 21 1;
#X connect 29 0 16 0;
#X connect 30 0 21 1;
#X connect 31 0 32 0;
#X connect 31 0 33 0;
#X connect 32 0 34 0;
#X connect 33 0 35 0;
#X connect 34 0 9 0;
#X connect 35 0 10 0;
#X restore 760 575 pd re-print;
#X obj 770 489 sel 1;
#X msg 686 361 /oled/gFillArea 3 0 53 108 11 0;
#X obj 1076 121 spigot 0;
#X obj 506 126 spigot 0, f 19;
#X obj 294 653 s loadbang-\$1;
#X obj 302 617 bng 15 250 50 0 empty empty empty 17 7 0 10 -262144
-1 -1;
#X floatatom 425 60 5 0 0 0 - - -;
#X obj 395 158 change -1;
#X obj 395 131 i;
#X obj 282 51 t f f;
#X msg 1121 574 /oled/gPrintln 3 \$2 \$3 8 1 --;
#X msg 414 545 /oled/gCircle 3 \$1 \$2 7 0;
#X obj 1094 503 pack 0 0 0, f 22;
#X obj 1121 358 pack 0 0 0, f 22;
#X msg 139 265 \$1 30;
#X msg 202 264 \$1 50;
#X msg 1156 603 /oled/gFillArea 3 \$2 \$3 7 7 \$1;
#X msg 201 466 /oled/gBox 3 \$1 \$2 7 1 0;
#X msg 162 555 /oled/gBox 3 \$1 \$2 7 1 1;
#X obj 139 222 + 4;
#X obj 202 238 + 4;
#X msg 1094 536 /oled/gFillArea 3 \$2 \$3 7 7 \$1;
#X obj 128 6 r print-count-\$1-\$2;
#X obj 254 18 r graphics-enable-\$1-\$2;
#X obj 238 319 r loadbang-\$2;
#X obj 406 36 r x-count-\$1-\$2;
#X obj 489 10 r step-knob-\$1-\$2;
#X obj 607 24 r live-mode-\$1-\$2;
#X obj 607 69 r graphics-enable-\$1-\$2;
#X obj 715 227 r return-line-5-\$1-\$2;
#X obj 603 323 r loadbang-\$2;
#X obj 753 442 r graphics-enable-\$1-\$2;
#X obj 926 138 r print-a-delete-\$1-\$2;
#X obj 985 15 r local-notes-\$1-\$2;
#X obj 1136 11 r live-mode-\$1-\$2;
#X obj 1175 111 r graphics-enable-\$1-\$2;
#X obj 1045 217 r x-count-\$1-\$2;
#X obj 812 484 r reprint-\$1-\$2;
#X obj 842 540 t b b;
#X msg 896 636 /oled/gClear 3 1;
#X obj 812 505 spigot 0;
#X obj 790 537 bng 15 250 50 0 empty empty empty 17 7 0 10 -262144
-1 -1;
#X obj 1076 172 stripnote;
#X obj 393 286 spigot 0;
#X obj 571 644 s oscOut;
#X obj 159 590 spigot;
#X obj 1094 611 spigot;
#X obj 417 584 spigot;
#X obj 663 386 spigot;
#X obj 217 93 r graphics-enable-\$1-\$2;
#X obj 217 114 sel 1;
#X obj 217 135 t b b;
#X obj 285 230 list;
#X obj 289 133 r loadbang-\$2;
#X msg 277 155 0 13;
#X obj 155 52 r reprint-\$1-\$2;
#X obj 155 73 delay 60;
#X connect 0 0 2 0;
#X connect 1 0 0 0;
#X connect 2 0 6 0;
#X connect 3 0 4 0;
#X connect 3 1 5 0;
#X connect 3 2 0 1;
#X connect 3 3 1 0;
#X connect 4 0 113 0;
#X connect 5 0 29 0;
#X connect 5 1 22 0;
#X connect 6 0 21 0;
#X connect 7 0 23 0;
#X connect 8 0 24 0;
#X connect 9 0 7 0;
#X connect 9 1 26 0;
#X connect 10 0 12 0;
#X connect 11 0 10 0;
#X connect 12 0 16 0;
#X connect 13 0 14 0;
#X connect 13 1 15 0;
#X connect 13 2 10 1;
#X connect 13 3 11 0;
#X connect 14 0 111 0;
#X connect 15 0 84 0;
#X connect 16 0 83 0;
#X connect 17 0 85 0;
#X connect 18 0 86 0;
#X connect 19 0 17 0;
#X connect 19 1 30 0;
#X connect 20 0 19 0;
#X connect 21 0 113 0;
#X connect 22 0 113 0;
#X connect 23 0 28 0;
#X connect 24 0 25 0;
#X connect 25 0 109 0;
#X connect 25 0 118 1;
#X connect 26 0 8 0;
#X connect 27 0 57 0;
#X connect 27 1 1 0;
#X connect 28 0 109 0;
#X connect 28 0 118 1;
#X connect 29 0 77 0;
#X connect 30 0 18 0;
#X connect 31 0 10 1;
#X connect 32 0 0 1;
#X connect 33 0 78 1;
#X connect 33 0 79 1;
#X connect 33 1 78 2;
#X connect 33 1 79 2;
#X connect 34 0 63 0;
#X connect 35 0 82 0;
#X connect 35 1 34 0;
#X connect 36 0 112 0;
#X connect 37 0 38 0;
#X connect 38 0 36 0;
#X connect 38 1 40 0;
#X connect 38 2 39 0;
#X connect 39 1 33 0;
#X connect 40 0 41 0;
#X connect 41 0 34 0;
#X connect 41 1 79 0;
#X connect 42 0 43 0;
#X connect 43 0 37 0;
#X connect 44 0 45 0;
#X connect 44 1 46 1;
#X connect 45 0 46 0;
#X connect 46 0 48 0;
#X connect 47 0 114 0;
#X connect 47 1 67 0;
#X connect 48 0 47 0;
#X connect 49 1 27 0;
#X connect 49 2 50 0;
#X connect 50 0 56 0;
#X connect 50 1 1 0;
#X connect 51 0 54 0;
#X connect 51 1 52 0;
#X connect 52 0 53 0;
#X connect 53 0 55 1;
#X connect 54 0 55 1;
#X connect 55 0 68 0;
#X connect 56 0 44 0;
#X connect 57 0 44 0;
#X connect 58 0 59 0;
#X connect 59 0 60 0;
#X connect 60 0 61 0;
#X connect 61 0 69 0;
#X connect 62 0 44 0;
#X connect 63 0 78 0;
#X connect 66 0 65 0;
#X connect 67 0 114 0;
#X connect 68 0 108 0;
#X connect 69 0 62 0;
#X connect 71 0 70 0;
#X connect 72 0 74 0;
#X connect 73 0 9 0;
#X connect 74 0 73 0;
#X connect 75 1 109 1;
#X connect 76 0 112 0;
#X connect 77 0 113 0;
#X connect 78 0 87 0;
#X connect 79 0 35 0;
#X connect 80 0 13 0;
#X connect 81 0 13 0;
#X connect 82 0 112 0;
#X connect 83 0 111 0;
#X connect 84 0 111 0;
#X connect 85 0 80 0;
#X connect 86 0 81 0;
#X connect 87 0 112 0;
#X connect 88 0 20 0;
#X connect 89 0 20 1;
#X connect 89 0 75 0;
#X connect 90 0 31 0;
#X connect 91 0 72 0;
#X connect 92 0 58 0;
#X connect 93 0 49 0;
#X connect 94 0 69 1;
#X connect 95 0 45 0;
#X connect 96 0 32 0;
#X connect 97 0 66 0;
#X connect 97 0 106 1;
#X connect 97 0 114 1;
#X connect 97 0 112 1;
#X connect 97 0 113 1;
#X connect 97 0 111 1;
#X connect 98 0 42 0;
#X connect 99 0 55 0;
#X connect 100 0 51 0;
#X connect 101 0 68 1;
#X connect 102 0 37 1;
#X connect 103 0 106 0;
#X connect 104 0 65 0;
#X connect 104 1 105 0;
#X connect 105 0 112 0;
#X connect 106 0 104 0;
#X connect 107 0 65 0;
#X connect 108 0 37 0;
#X connect 109 0 3 0;
#X connect 111 0 110 0;
#X connect 112 0 110 0;
#X connect 113 0 110 0;
#X connect 114 0 110 0;
#X connect 115 0 116 0;
#X connect 116 0 117 0;
#X connect 117 0 122 0;
#X connect 117 1 118 0;
#X connect 118 0 109 0;
#X connect 119 0 120 0;
#X connect 120 0 118 1;
#X connect 121 0 122 0;
#X connect 122 0 118 0;
#X restore 346 438 pd xy-visual-grid;
#N canvas 820 143 676 470 play-the-array 1;
#X obj 49 324 outlet;
#X obj 121 192 sel 0;
#X obj 22 237 sel 0;
#X obj 22 92 r beat-clock-\$1-\$2;
#X obj 265 201 s print-count-\$1-\$2;
#X obj 399 268 r selected-preset-\$1-\$2;
#X msg 401 316 set vel-list-\$1-\$2-\$3;
#X msg 402 351 set note-list-\$1-\$2-\$3;
#X obj 121 171 tabread;
#X obj 22 216 tabread;
#X msg 121 213 100;
#X msg 404 388 set note-length-\$1-\$2-\$3;
#X obj 49 264 pack 0 0 0, f 17;
#X obj 22 147 t f f f f, f 41;
#X obj 182 176 tabread;
#X obj 182 197 sel 0;
#X connect 1 0 10 0;
#X connect 1 1 12 1;
#X connect 2 1 12 0;
#X connect 3 0 13 0;
#X connect 5 0 6 0;
#X connect 5 0 7 0;
#X connect 5 0 11 0;
#X connect 6 0 8 0;
#X connect 7 0 9 0;
#X connect 8 0 1 0;
#X connect 9 0 2 0;
#X connect 10 0 12 1;
#X connect 11 0 14 0;
#X connect 12 0 0 0;
#X connect 13 0 9 0;
#X connect 13 1 8 0;
#X connect 13 2 14 0;
#X connect 13 3 4 0;
#X connect 14 0 15 0;
#X connect 15 1 12 2;
#X restore 336 142 pd play-the-array;
#N canvas 60 212 780 441 fill-the-text-note-list 0;
#X obj 40 49 inlet;
#N canvas 69 265 697 510 note-on 0;
#X obj 79 13 inlet;
#X text 409 176 If note is on;
#X obj 324 256 f;
#X obj 527 336 f;
#X obj 527 298 t b;
#X obj 369 235 r x-count-\$1-\$2;
#X obj 527 216 r master-vel-\$1-\$2;
#X obj 488 56 r selected-preset-\$1-\$2;
#X msg 490 104 set vel-list-\$1-\$2-\$3;
#X msg 491 139 set note-list-\$1-\$2-\$3;
#X obj 356 382 tabwrite, f 29;
#X obj 118 382 tabwrite;
#X obj 250 417 s note-activated-\$1-\$2;
#X obj 79 34 t a b, f 35;
#X obj 79 55 unpack, f 12;
#X obj 286 64 f;
#X obj 242 171 t b a b;
#X msg 313 114 set note-length-\$1-\$2-\$3;
#X obj 572 271 r notelength-\$1-\$2;
#X obj 572 319 t b;
#X obj 584 377 f;
#X obj 572 431 tabwrite;
#X connect 0 0 13 0;
#X connect 2 0 11 1;
#X connect 3 0 10 1;
#X connect 4 0 3 0;
#X connect 5 0 2 1;
#X connect 5 0 3 1;
#X connect 5 0 20 1;
#X connect 6 0 4 0;
#X connect 6 0 10 0;
#X connect 7 0 8 0;
#X connect 7 0 9 0;
#X connect 7 0 17 0;
#X connect 8 0 10 0;
#X connect 9 0 11 0;
#X connect 13 0 14 0;
#X connect 13 1 15 0;
#X connect 14 0 16 0;
#X connect 16 1 11 0;
#X connect 16 2 2 0;
#X connect 17 0 21 0;
#X connect 18 0 19 0;
#X connect 18 0 21 0;
#X connect 19 0 20 0;
#X connect 20 0 21 1;
#X restore 41 353 pd note-on;
#N canvas 4 50 450 492 hold-note 0;
#X obj 54 12 inlet;
#X obj 257 262 outlet;
#X msg 153 170 stop;
#X obj 61 190 t b b;
#X msg 87 249 1;
#X msg 133 227 0;
#X obj 87 289 sel 0 1;
#X obj 317 264 outlet;
#X obj 114 109 t b b b b;
#X msg 165 133 1;
#X obj 61 212 spigot 0;
#X obj 133 196 del 500;
#X obj 87 87 sel 0;
#X obj 54 33 t a a, f 37;
#X obj 307 61 stripnote;
#X obj 55 55 unpack;
#X obj 307 82 pack 0 0;
#X obj 262 125 list append;
#X msg 263 98 69;
#X obj 262 146 route 69;
#X connect 0 0 13 0;
#X connect 2 0 11 0;
#X connect 3 0 10 0;
#X connect 3 1 2 0;
#X connect 4 0 6 0;
#X connect 5 0 6 0;
#X connect 5 0 10 1;
#X connect 6 0 7 0;
#X connect 6 1 18 0;
#X connect 8 1 11 0;
#X connect 8 2 2 0;
#X connect 8 3 9 0;
#X connect 9 0 10 1;
#X connect 10 0 4 0;
#X connect 11 0 5 0;
#X connect 12 0 3 0;
#X connect 12 1 8 0;
#X connect 13 0 15 0;
#X connect 13 1 14 0;
#X connect 14 0 16 0;
#X connect 14 1 16 1;
#X connect 15 1 12 0;
#X connect 16 0 17 1;
#X connect 17 0 19 0;
#X connect 18 0 17 0;
#X connect 19 0 1 0;
#X restore 40 128 pd hold-note;
#N canvas 641 367 584 481 erase-note 0;
#X obj 32 13 inlet;
#X obj 342 79 f;
#X obj 342 100 t f f, f 10;
#X msg 135 75 0;
#X obj 32 34 t b b b, f 35;
#X obj 357 50 r x-count-\$1-\$2;
#X obj 32 243 s print-a-delete-\$1-\$2;
#X msg 188 133 100;
#X obj 135 96 t a b;
#X obj 416 130 r selected-preset-\$1-\$2;
#X obj 228 158 tabwrite, f 29;
#X msg 418 178 set vel-list-\$1-\$2-\$3;
#X msg 419 213 set note-list-\$1-\$2-\$3;
#X obj 135 205 tabwrite, f 40;
#X obj 182 97 s one-note-cleared-\$1-\$2;
#X msg 156 147 1;
#X obj 156 182 tabwrite, f 29;
#X msg 415 249 set note-length-\$1-\$2-\$3;
#X connect 0 0 4 0;
#X connect 1 0 2 0;
#X connect 2 0 13 1;
#X connect 2 1 10 1;
#X connect 3 0 8 0;
#X connect 4 0 6 0;
#X connect 4 1 3 0;
#X connect 4 2 1 0;
#X connect 5 0 1 1;
#X connect 7 0 10 0;
#X connect 8 0 13 0;
#X connect 8 1 7 0;
#X connect 8 1 14 0;
#X connect 8 1 15 0;
#X connect 9 0 11 0;
#X connect 9 0 12 0;
#X connect 9 0 17 0;
#X connect 11 0 10 0;
#X connect 12 0 13 0;
#X connect 15 0 16 0;
#X connect 17 0 16 0;
#X restore 109 168 pd erase-note;
#X obj 41 233 unpack 0 0;
#X obj 41 254 swap, f 10;
#X obj 41 275 sel 0, f 20;
#X obj 195 333 t b a, f 8;
#X obj 195 354 f;
#X obj 195 375 pack 0 0;
#X obj 267 348 r master-vel-\$1-\$2;
#X connect 0 0 2 0;
#X connect 2 0 4 0;
#X connect 2 1 3 0;
#X connect 4 0 5 0;
#X connect 4 1 5 1;
#X connect 5 0 6 0;
#X connect 5 1 8 1;
#X connect 6 1 7 0;
#X connect 7 0 8 0;
#X connect 8 0 9 0;
#X connect 9 0 1 0;
#X connect 10 0 9 1;
#X restore 624 169 pd fill-the-text-note-list;
#N canvas 239 50 1583 994 knobzz 0;
#X obj 511 184 * 126;
#X obj 511 205 + 1;
#X obj 599 317 i;
#X obj 509 153 spigot 0;
#X obj 930 521 spigot 0;
#X obj 116 438 spigot 0;
#X obj 209 309 t a a;
#X obj 139 776 t a b;
#X obj 139 747 + 1;
#X msg 28 698 /oled/gFlip 3;
#X obj 103 546 t b a a b b;
#X obj 927 122 spigot;
#X obj 938 93 / 1023;
#X obj 938 40 i;
#X obj 938 61 change -1;
#X obj 522 116 / 1023;
#X obj 522 63 i;
#X obj 522 84 change -1;
#X obj 1141 121 spigot;
#X obj 1153 91 / 1023;
#X obj 1153 38 i;
#X obj 1153 59 change -1;
#X text 1279 39 loop length and note lenght are orac params \, so set
them from the knobs;
#X text 1322 518 then draw them from the orac params;
#X obj 1043 296 s rackMsgs;
#X obj 925 468 i;
#X obj 959 428 t b f;
#X obj 376 54 sel 0, f 9;
#X obj 376 72 bng 15 250 50 0 empty empty empty 17 7 0 10 -262144 -1
-1;
#X obj 425 72 bng 15 250 50 0 empty empty empty 17 7 0 10 -262144 -1
-1;
#X obj 376 162 f;
#X obj 425 162 f;
#X obj 376 197 - 1;
#X obj 425 197 + 1;
#X obj 376 215 int;
#X floatatom 376 269 5 0 0 0 - - -;
#X obj 425 215 int;
#X floatatom 425 269 5 0 0 0 - - -;
#X obj 479 280 t b f;
#X obj 430 132 delay 1;
#X obj 333 56 bng 15 250 50 0 empty empty empty 17 7 0 10 -262144 -1
-1;
#X floatatom 318 280 5 0 0 0 - - -;
#X obj 376 233 max 0;
#X obj 425 233 max 0;
#X obj 376 251 min 15;
#X obj 425 251 min 15;
#X obj 235 340 s pre-step-knob-\$1-\$2;
#X obj 184 411 r graphics-enable-\$1-\$2;
#X obj 384 342 s x-count-\$1-\$2;
#X obj 572 121 r graphics-enable-\$1-\$2;
#X obj 598 359 s master-vel-\$1-\$2;
#X obj 980 94 r graphics-enable-\$1-\$2;
#X obj 1194 93 r graphics-enable-\$1-\$2;
#X obj 885 364 r looplength-\$1-\$2;
#X obj 959 407 r graphics-enable-\$1-\$2;
#X obj 927 150 t b b f;
#X obj 927 210 pack s s 2;
#X obj 1141 151 t b b f;
#X obj 1141 211 pack s s 2;
#X obj 927 176 symbol \$2;
#X obj 995 176 symbol \$1;
#X obj 1141 177 symbol \$2;
#X obj 1209 177 symbol \$1;
#X obj 1015 200 t b s;
#X msg 927 240 setparam \$1 looplength-\$2 \$3;
#X msg 1141 266 setparam \$1 metric-\$2 \$3;
#X obj 709 154 spigot;
#X obj 721 120 / 1023;
#X obj 721 67 i;
#X obj 721 88 change -1;
#X obj 762 126 r graphics-enable-\$1-\$2;
#X obj 709 182 t b b f;
#X obj 709 242 pack s s 2;
#X obj 709 208 symbol \$2;
#X obj 777 208 symbol \$1;
#X obj 797 232 t b s;
#X obj 376 36 r oencRaw;
#X obj 223 741 - 1;
#X obj 395 666 t b;
#X obj 505 783 r metric-internal-\$1-\$2;
#X obj 919 554 spigot 0;
#X obj 919 572 unpack f f;
#X floatatom 919 595 5 0 0 0 - - -;
#X obj 286 309 spigot 0;
#X obj 927 16 r oknob1;
#X obj 709 48 r oknob2;
#X obj 1141 15 r oknob3;
#X obj 505 41 r oknob4;
#X msg 377 444 100;
#X obj 377 400 r local-notes-\$1-\$2;
#X obj 377 421 t b;
#X obj 239 197 r reprint-\$1-\$2;
#X obj 239 218 delay 10;
#X obj 486 901 t b f b b;
#X obj 401 812 t b b b;
#X obj 496 843 delay 1500;
#X obj 853 807 r clear-all-\$1-\$2;
#X msg 778 855 /oled/gPrintln 3 0 56 8 1 CLEARED ALL NOTES;
#X obj 796 826 t b b b b;
#X msg 195 885 /oled/gFillArea 3 0 53 132 11 0;
#X obj 953 664 i;
#X obj 395 687 spigot 0;
#X obj 177 472 sel 1;
#X obj 353 373 i;
#X obj 467 810 t b s;
#X obj 1088 684 r selected-preset-\$1-\$2;
#X msg 1090 732 set vel-list-\$1-\$2-\$3;
#X obj 288 698 tabread;
#X obj 134 249 r one-note-cleared-\$1-\$2;
#X obj 53 303 r note-activated-\$1-\$2;
#X obj 1177 476 r preset-number-\$1-\$2;
#X obj 1054 558 t b f;
#X obj 1177 497 - 1;
#X obj 1054 537 tabread loop-list-\$1-\$2;
#X obj 1080 583 sel 0;
#X msg 1080 604 8;
#X obj 288 719 sel 0;
#X msg 288 740 100;
#X msg 709 273 setparam \$1 notelength-\$2 \$3;
#X msg 165 860 /oled/gPrintln 3 0 56 8 1 \$1|\$3 L:\$4 R:\$5 V:\$2
;
#X obj 277 799 pack 0 0 0 f s;
#X obj 392 717 speedlim 100;
#X obj 168 952 s oscOut;
#X obj 170 928 spigot;
#X obj 339 759 tabread;
#X msg 1091 767 set note-length-\$1-\$2-\$3;
#X connect 0 0 1 0;
#X connect 1 0 2 0;
#X connect 2 0 50 0;
#X connect 2 0 78 0;
#X connect 3 0 0 0;
#X connect 4 0 78 0;
#X connect 4 0 120 2;
#X connect 5 0 10 0;
#X connect 6 0 5 0;
#X connect 6 1 46 0;
#X connect 7 0 77 0;
#X connect 7 0 120 0;
#X connect 7 1 99 0;
#X connect 8 0 7 0;
#X connect 9 0 123 0;
#X connect 10 0 9 0;
#X connect 10 1 100 0;
#X connect 10 2 8 0;
#X connect 10 2 100 1;
#X connect 11 0 55 0;
#X connect 13 0 14 0;
#X connect 14 0 12 0;
#X connect 16 0 17 0;
#X connect 17 0 15 0;
#X connect 18 0 57 0;
#X connect 20 0 21 0;
#X connect 21 0 19 0;
#X connect 25 0 4 0;
#X connect 26 0 88 0;
#X connect 26 0 25 0;
#X connect 26 1 4 1;
#X connect 26 1 80 1;
#X connect 26 1 83 1;
#X connect 27 0 28 0;
#X connect 27 1 29 0;
#X connect 28 0 30 0;
#X connect 29 0 31 0;
#X connect 30 0 32 0;
#X connect 31 0 33 0;
#X connect 32 0 34 0;
#X connect 33 0 36 0;
#X connect 34 0 42 0;
#X connect 35 0 38 0;
#X connect 36 0 43 0;
#X connect 37 0 38 0;
#X connect 38 1 31 1;
#X connect 38 1 30 1;
#X connect 38 1 41 0;
#X connect 39 0 31 0;
#X connect 41 0 78 0;
#X connect 41 0 83 0;
#X connect 41 0 48 0;
#X connect 41 0 103 1;
#X connect 42 0 44 0;
#X connect 43 0 45 0;
#X connect 44 0 35 0;
#X connect 45 0 37 0;
#X connect 47 0 5 1;
#X connect 47 0 101 1;
#X connect 47 0 102 0;
#X connect 47 0 123 1;
#X connect 49 0 3 1;
#X connect 51 0 11 1;
#X connect 52 0 18 1;
#X connect 53 0 25 0;
#X connect 54 0 26 0;
#X connect 55 0 59 0;
#X connect 55 1 60 0;
#X connect 55 2 56 2;
#X connect 56 0 64 0;
#X connect 57 0 61 0;
#X connect 57 1 62 0;
#X connect 57 2 58 2;
#X connect 58 0 65 0;
#X connect 59 0 56 0;
#X connect 60 0 63 0;
#X connect 61 0 58 0;
#X connect 62 0 58 1;
#X connect 63 0 56 0;
#X connect 63 1 56 1;
#X connect 64 0 24 0;
#X connect 65 0 24 0;
#X connect 66 0 71 0;
#X connect 68 0 69 0;
#X connect 69 0 67 0;
#X connect 70 0 66 1;
#X connect 71 0 73 0;
#X connect 71 1 74 0;
#X connect 71 2 72 2;
#X connect 72 0 118 0;
#X connect 73 0 72 0;
#X connect 74 0 75 0;
#X connect 75 0 72 0;
#X connect 75 1 72 1;
#X connect 76 0 27 0;
#X connect 76 0 40 0;
#X connect 77 0 107 0;
#X connect 77 0 124 0;
#X connect 78 0 101 0;
#X connect 79 0 104 0;
#X connect 80 0 81 0;
#X connect 81 0 82 0;
#X connect 83 0 6 0;
#X connect 84 0 13 0;
#X connect 84 0 11 0;
#X connect 85 0 68 0;
#X connect 85 0 66 0;
#X connect 86 0 20 0;
#X connect 86 0 18 0;
#X connect 87 0 16 0;
#X connect 87 0 3 0;
#X connect 89 0 90 0;
#X connect 90 0 88 0;
#X connect 91 0 92 0;
#X connect 92 0 41 0;
#X connect 93 0 9 0;
#X connect 93 0 95 0;
#X connect 93 2 9 0;
#X connect 93 3 99 0;
#X connect 94 0 9 0;
#X connect 94 0 10 0;
#X connect 94 2 99 0;
#X connect 95 0 94 0;
#X connect 96 0 98 0;
#X connect 97 0 123 0;
#X connect 98 0 95 0;
#X connect 98 1 9 0;
#X connect 98 2 97 0;
#X connect 98 3 99 0;
#X connect 99 0 123 0;
#X connect 100 0 78 0;
#X connect 101 0 121 0;
#X connect 102 0 100 0;
#X connect 102 0 103 0;
#X connect 102 0 120 0;
#X connect 102 1 99 0;
#X connect 103 0 10 0;
#X connect 104 0 78 0;
#X connect 104 1 120 4;
#X connect 105 0 106 0;
#X connect 105 0 125 0;
#X connect 106 0 107 0;
#X connect 107 0 116 0;
#X connect 108 0 41 0;
#X connect 109 0 41 0;
#X connect 110 0 112 0;
#X connect 111 0 25 0;
#X connect 111 1 114 0;
#X connect 112 0 113 0;
#X connect 113 0 111 0;
#X connect 114 0 115 0;
#X connect 114 1 25 1;
#X connect 115 0 25 1;
#X connect 116 0 117 0;
#X connect 116 1 120 1;
#X connect 117 0 120 1;
#X connect 118 0 24 0;
#X connect 118 0 78 0;
#X connect 119 0 123 0;
#X connect 120 0 119 0;
#X connect 121 0 7 0;
#X connect 123 0 122 0;
#X connect 124 0 120 3;
#X connect 125 0 124 0;
#X restore 932 61 pd knobzz;
#X text 998 61 Knob Management;
#X text 335 119 Play the notes;
#X text 700 113 the arrays and note management;
#X text 176 439 the printing to the screen;
#X text 208 74 Turn on the sequencer;
#X text 214 136 Hold for clear;
#N canvas 1262 327 462 363 make-the-note 1;
#X obj 52 18 inlet;
#X obj 53 263 pack 0 0, f 20;
#X obj 53 327 outlet;
#X obj 52 94 unpack 0 0 0;
#X obj 265 69 r master-bpm;
#X obj 120 144 t b f, f 12;
#X floatatom 291 207 5 0 0 0 - - -;
#X floatatom 355 104 5 0 0 0 - - -;
#X floatatom 335 156 5 0 0 0 - - -;
#X obj 232 115 expr 60000 / $f1;
#X obj 233 162 * 1;
#X obj 192 106 / 4;
#X obj 177 10 r metric-\$1-\$2;
#X obj 177 31 sel 0 1 2;
#X msg 244 52 8;
#X msg 177 52 4.4;
#X msg 205 52 1;
#X obj 52 237 makenote 60 100 5;
#X obj 53 284 poly 1 1;
#X obj 53 305 pack 0 0;
#X connect 0 0 3 0;
#X connect 1 0 18 0;
#X connect 3 0 17 0;
#X connect 3 1 17 1;
#X connect 3 2 5 0;
#X connect 4 0 7 0;
#X connect 4 0 9 0;
#X connect 5 0 10 0;
#X connect 5 1 11 0;
#X connect 9 0 8 0;
#X connect 9 0 10 0;
#X connect 10 0 6 0;
#X connect 10 0 17 2;
#X connect 11 0 10 1;
#X connect 12 0 13 0;
#X connect 13 0 15 0;
#X connect 13 1 16 0;
#X connect 13 2 14 0;
#X connect 13 3 15 0;
#X connect 14 0 11 1;
#X connect 15 0 11 1;
#X connect 16 0 11 1;
#X connect 17 0 1 0;
#X connect 17 1 1 1;
#X connect 18 1 19 0;
#X connect 18 2 19 1;
#X connect 19 0 2 0;
#X restore 336 228 pd make-the-note;
#X obj 448 11 inlet notes;
#X obj 648 390 f;
#X obj 648 441 % 16, f 13;
#X obj 787 278 sel 0;
#X msg 787 299 0;
#X text 1090 208 check if we are on graphic page;
#N canvas -123 83 1088 883 save-recall 0;
#X obj 131 167 list;
#X obj 554 117 r rackSavePreset;
#N canvas 858 503 721 484 savePreset 0;
#X obj 468 172 r saveState;
#X obj 281 352 list;
#X obj 106 54 inlet;
#X obj 287 406 outlet;
#X obj 229 39 inlet;
#X obj 240 78 t b b a b;
#X obj 107 107 list;
#X obj 120 148 unpack s s s s;
#X obj 191 234 pack s s s s;
#X obj 275 116 symbol;
#X connect 0 0 1 0;
#X connect 1 0 3 0;
#X connect 2 0 6 1;
#X connect 4 0 5 0;
#X connect 5 0 1 0;
#X connect 5 1 8 0;
#X connect 5 2 9 0;
#X connect 5 3 6 0;
#X connect 6 0 7 0;
#X connect 7 0 8 0;
#X connect 7 2 8 2;
#X connect 7 3 8 3;
#X connect 8 0 1 1;
#X connect 9 0 8 1;
#X restore 479 169 pd savePreset;
#N canvas 4 50 966 728 fill-screen 0;
#N canvas 276 78 450 300 place 0;
#X obj 34 13 inlet;
#X obj 119 201 unpack 0 0;
#X obj 119 222 outlet;
#X obj 179 222 outlet;
#X obj 119 103 * 16;
#X obj 182 119 * 16;
#X obj 119 48 moses 8;
#X obj 182 99 - 8;
#X obj 119 124 + 2;
#X obj 182 140 + 2;
#X msg 119 167 \$1 17;
#X msg 182 166 \$1 37;
#X connect 0 0 6 0;
#X connect 1 0 2 0;
#X connect 1 1 3 0;
#X connect 4 0 8 0;
#X connect 5 0 9 0;
#X connect 6 0 4 0;
#X connect 6 1 7 0;
#X connect 7 0 5 0;
#X connect 8 0 10 0;
#X connect 9 0 11 0;
#X connect 10 0 1 0;
#X connect 11 0 1 0;
#X restore 382 411 pd place;
#X obj 382 618 s oscOut;
#X msg 231 489 /oled/gFlip 3;
#X obj 231 105 inlet;
#X obj 382 296 f;
#X obj 413 296 + 1;
#X obj 382 264 until;
#X obj 382 234 t a b;
#X msg 430 264 0;
#X msg 382 210 16;
#X msg 409 551 /oled/gFillArea 3 \$1 \$2 11 8 0;
#X obj 231 173 t b b;
#X obj 382 317 t a a, f 21;
#X obj 382 522 t a a;
#X obj 382 481 pack 0 0 0, f 16;
#X msg 382 579 /oled/gPrintln 3 \$1 \$2 8 1 \$3;
#X obj 505 367 sel 0, f 12;
#X obj 505 388 t b;
#X obj 574 390 t a b;
#X obj 382 338 spigot 0;
#X msg 505 409 0;
#X msg 603 413 1;
#X obj 689 137 r selected-preset-\$1-\$2;
#X msg 691 185 set vel-list-\$1-\$2-\$3;
#X msg 692 220 set note-list-\$1-\$2-\$3;
#X obj 505 346 tabread;
#X connect 0 0 14 0;
#X connect 0 1 14 1;
#X connect 2 0 1 0;
#X connect 3 0 11 0;
#X connect 4 0 5 0;
#X connect 4 0 12 0;
#X connect 5 0 4 1;
#X connect 6 0 4 0;
#X connect 7 0 6 0;
#X connect 7 1 8 0;
#X connect 8 0 4 1;
#X connect 9 0 7 0;
#X connect 10 0 1 0;
#X connect 11 0 2 0;
#X connect 11 1 9 0;
#X connect 12 0 19 0;
#X connect 12 1 25 0;
#X connect 13 0 15 0;
#X connect 13 1 10 0;
#X connect 14 0 13 0;
#X connect 15 0 1 0;
#X connect 16 0 17 0;
#X connect 16 1 18 0;
#X connect 17 0 20 0;
#X connect 18 0 14 2;
#X connect 18 1 21 0;
#X connect 19 0 0 0;
#X connect 20 0 19 1;
#X connect 21 0 19 1;
#X connect 22 0 23 0;
#X connect 22 0 24 0;
#X connect 24 0 25 0;
#X connect 25 0 16 0;
#X restore 231 279 pd fill-screen;
#N canvas 257 382 1138 662 presetDir 0;
#X obj 88 153 s rackMsgs;
#X obj 88 181 r rackCurrentPreset;
#X obj 442 163 s rackMsgs;
#X obj 442 186 r rackDataDir;
#X obj 114 243 t b b s;
#X obj 255 280 t b s;
#X obj 111 387 outlet;
#X obj 219 386 outlet;
#X text 81 25 track preset directory and bang on change;
#X obj 168 52 bng 15 250 50 0 empty empty empty 17 7 0 10 -262144 -1
-1;
#X obj 209 39 r loadbang-\$2;
#X obj 85 101 symbol \$2;
#X obj 442 109 symbol \$2;
#X obj 215 181 r rackCurrentPreset-\$2;
#X obj 535 189 r rackDataDir-\$2;
#X msg 442 138 getsetting dataDir ./data rackDataDir-\$1;
#X obj 214 91 t b b b b;
#X obj 399 254 symbol \$1;
#X obj 399 274 t b s;
#X obj 440 219 symbol;
#X obj 87 215 symbol;
#X msg 88 128 getsetting currentPreset Default rackCurrentPreset-\$1
;
#X obj 254 251 symbol \$2;
#X obj 374 68 symbol p1;
#X obj 306 50 inlet;
#X obj 248 341 pack s s s s;
#X obj 209 60 delay 500;
#X connect 1 0 20 0;
#X connect 3 0 19 0;
#X connect 4 0 6 0;
#X connect 4 1 25 0;
#X connect 4 2 25 1;
#X connect 5 0 25 0;
#X connect 5 1 25 2;
#X connect 9 0 16 0;
#X connect 10 0 26 0;
#X connect 11 0 21 0;
#X connect 12 0 15 0;
#X connect 13 0 20 0;
#X connect 14 0 19 0;
#X connect 15 0 2 0;
#X connect 16 0 11 0;
#X connect 16 1 22 0;
#X connect 16 2 12 0;
#X connect 16 2 17 0;
#X connect 16 3 23 0;
#X connect 17 0 18 0;
#X connect 18 0 25 0;
#X connect 18 1 25 3;
#X connect 19 0 25 0;
#X connect 20 0 4 0;
#X connect 21 0 0 0;
#X connect 22 0 5 0;
#X connect 24 0 16 0;
#X connect 25 0 7 0;
#X connect 26 0 16 0;
#X restore 218 51 pd presetDir;
#X obj 739 71 stripnote;
#X obj 739 123 sel 61 63 66 68 70 73 75 78 80 82, f 53;
#X msg 738 145 p1;
#X msg 769 145 p2;
#X msg 802 145 p3;
#X msg 832 145 p4;
#X msg 864 145 p5;
#X msg 896 145 p6;
#X msg 927 145 p7;
#X msg 959 145 p8;
#X msg 991 145 p9;
#X msg 1023 145 p10;
#X obj 204 19 bng 15 250 50 0 empty empty empty 17 7 0 10 -262144 -1
-1;
#X obj 743 311 s reprint-\$1-\$2;
#X obj 739 30 inlet;
#X obj 835 36 r loadbang-\$2;
#X msg 835 57 61;
#N canvas 4 50 966 728 clear-screen 0;
#N canvas 276 78 450 300 place 0;
#X obj 34 13 inlet;
#X obj 119 201 unpack 0 0;
#X obj 119 222 outlet;
#X obj 179 222 outlet;
#X obj 119 103 * 16;
#X obj 182 119 * 16;
#X obj 119 48 moses 8;
#X obj 182 99 - 8;
#X obj 119 124 + 2;
#X obj 182 140 + 2;
#X msg 119 167 \$1 17;
#X msg 182 166 \$1 37;
#X connect 0 0 6 0;
#X connect 1 0 2 0;
#X connect 1 1 3 0;
#X connect 4 0 8 0;
#X connect 5 0 9 0;
#X connect 6 0 4 0;
#X connect 6 1 7 0;
#X connect 7 0 5 0;
#X connect 8 0 10 0;
#X connect 9 0 11 0;
#X connect 10 0 1 0;
#X connect 11 0 1 0;
#X restore 382 411 pd place;
#X obj 382 558 s oscOut;
#X msg 231 489 /oled/gFlip 3;
#X obj 129 24 inlet;
#X obj 382 386 f;
#X obj 413 386 + 1;
#X obj 382 359 until;
#X obj 382 324 t a b;
#X msg 430 354 0;
#X msg 382 300 16;
#X msg 382 483 /oled/gFillArea 3 \$1 \$2 11 8 0;
#X obj 382 441 pack 0 0;
#X obj 327 244 t b b;
#X connect 0 0 11 0;
#X connect 0 1 11 1;
#X connect 2 0 1 0;
#X connect 3 0 12 0;
#X connect 4 0 5 0;
#X connect 4 0 0 0;
#X connect 5 0 4 1;
#X connect 6 0 4 0;
#X connect 7 0 6 0;
#X connect 7 1 8 0;
#X connect 8 0 4 1;
#X connect 9 0 7 0;
#X connect 10 0 1 0;
#X connect 11 0 10 0;
#X connect 12 0 2 0;
#X connect 12 1 9 0;
#X restore 702 414 pd clear-screen;
#X obj 720 348 r clear-all-\$1-\$2;
#X obj 913 419 s selected-preset-\$1-\$2;
#X obj 849 349 symbol \$1;
#X obj 921 349 symbol \$2;
#X obj 932 387 pack s s s;
#X obj 855 260 t b b b a;
#X obj 987 324 symbol;
#X obj 683 616 tabwrite;
#X msg 884 557 \; note-list-\$1-\$2-\$3 0 0 0 0 0 0 0 0 0 0 0 0 0 0
0 0, f 25;
#X msg 682 553 \; vel-list-\$1-\$2-\$3 100 100 100 100 100 100 100
100 100 100 100 100 100 100 100 100, f 28;
#X obj 739 472 symbol \$1;
#X obj 811 472 symbol \$2;
#X obj 740 519 pack s s s;
#X obj 720 380 t b b b;
#X obj 884 616 tabwrite;
#X obj 877 472 symbol;
#N canvas 43 98 1873 946 write-preset 0;
#X msg 48 92 write \$1/presets/\$2/step-seq-note-\$3-\$4-p1.txt;
#X msg 49 123 write \$1/presets/\$2/step-seq-vel-\$3-\$4-p1.txt;
#X msg 81 157 write \$1/presets/\$2/step-seq-note-\$3-\$4-p2.txt;
#X msg 81 184 write \$1/presets/\$2/step-seq-vel-\$3-\$4-p2.txt;
#X msg 108 223 write \$1/presets/\$2/step-seq-note-\$3-\$4-p3.txt;
#X msg 110 254 write \$1/presets/\$2/step-seq-vel-\$3-\$4-p3.txt;
#X msg 151 294 write \$1/presets/\$2/step-seq-note-\$3-\$4-p4.txt;
#X msg 150 323 write \$1/presets/\$2/step-seq-vel-\$3-\$4-p4.txt;
#X msg 180 364 write \$1/presets/\$2/step-seq-note-\$3-\$4-p5.txt;
#X msg 181 395 write \$1/presets/\$2/step-seq-vel-\$3-\$4-p5.txt;
#X msg 417 96 write \$1/presets/\$2/step-seq-note-\$3-\$4-p6.txt;
#X msg 417 123 write \$1/presets/\$2/step-seq-vel-\$3-\$4-p6.txt;
#X msg 444 162 write \$1/presets/\$2/step-seq-note-\$3-\$4-p7.txt;
#X msg 447 193 write \$1/presets/\$2/step-seq-vel-\$3-\$4-p7.txt;
#X msg 487 233 write \$1/presets/\$2/step-seq-note-\$3-\$4-p8.txt;
#X msg 486 262 write \$1/presets/\$2/step-seq-vel-\$3-\$4-p8.txt;
#X msg 512 295 write \$1/presets/\$2/step-seq-note-\$3-\$4-p9.txt;
#X msg 515 326 write \$1/presets/\$2/step-seq-vel-\$3-\$4-p9.txt;
#X msg 555 366 write \$1/presets/\$2/step-seq-note-\$3-\$4-p10.txt
;
#X msg 555 396 write \$1/presets/\$2/step-seq-vel-\$3-\$4-p10.txt;
#X obj 117 552 array define -k vel-list-\$1-\$2-p1 16;
#A 0 100 100 100 100 100 100 100 100 100 100 100 100 100 100 100 100
;
#X obj 116 582 array define -k note-list-\$1-\$2-p1 16;
#A 0 0 0 0 0 0 0 0 0 0 0 0 0 0 0 0 0;
#X obj 363 553 array define -k vel-list-\$1-\$2-p2 16;
#A 0 100 100 100 100 100 100 100 100 100 100 100 100 100 100 100 100
;
#X obj 364 581 array define -k note-list-\$1-\$2-p2 16;
#A 0 0 0 0 0 0 0 0 0 0 0 0 0 0 0 0 0;
#X obj 117 632 array define -k vel-list-\$1-\$2-p3 16;
#A 0 100 100 100 100 100 100 100 100 100 100 100 100 100 100 100 100
;
#X obj 118 660 array define -k note-list-\$1-\$2-p3 16;
#A 0 0 0 0 0 0 0 0 0 0 0 0 0 0 0 0 0;
#X obj 366 631 array define -k vel-list-\$1-\$2-p4 16;
#A 0 100 100 100 100 100 100 100 100 100 100 100 100 100 100 100 100
;
#X obj 369 659 array define -k note-list-\$1-\$2-p4 16;
#A 0 0 0 0 0 0 0 0 0 0 0 0 0 0 0 0 0;
#X obj 368 720 array define -k vel-list-\$1-\$2-p6 16;
#A 0 100 100 100 100 100 100 100 100 100 100 100 100 100 100 100 100
;
#X obj 118 720 array define -k vel-list-\$1-\$2-p5 16;
#A 0 100 100 100 100 100 100 100 100 100 100 100 100 100 100 100 100
;
#X obj 119 748 array define -k note-list-\$1-\$2-p5 16;
#A 0 0 0 0 0 0 0 0 0 0 0 0 0 0 0 0 0;
#X obj 369 748 array define -k note-list-\$1-\$2-p6 16;
#A 0 0 0 0 0 0 0 0 0 0 0 0 0 0 0 0 0;
#X obj 114 794 array define -k vel-list-\$1-\$2-p7 16;
#A 0 100 100 100 100 100 100 100 100 100 100 100 100 100 100 100 100
;
#X obj 115 822 array define -k note-list-\$1-\$2-p7 16;
#A 0 0 0 0 0 0 0 0 0 0 0 0 0 0 0 0 0;
#X obj 365 793 array define -k vel-list-\$1-\$2-p8 16;
#A 0 100 100 100 100 100 100 100 100 100 100 100 100 100 100 100 100
;
#X obj 366 821 array define -k note-list-\$1-\$2-p8 16;
#A 0 0 0 0 0 0 0 0 0 0 0 0 0 0 0 0 0;
#X obj 115 882 array define -k vel-list-\$1-\$2-p9 16;
#A 0 100 100 100 100 100 100 100 100 100 100 100 100 100 100 100 100
;
#X obj 116 910 array define -k note-list-\$1-\$2-p9 16;
#A 0 0 0 0 0 0 0 0 0 0 0 0 0 0 0 0 0;
#X obj 365 882 array define -k vel-list-\$1-\$2-p10 16;
#A 0 100 100 100 100 100 100 100 100 100 100 100 100 100 100 100 100
;
#X obj 366 910 array define -k note-list-\$1-\$2-p10 16;
#A 0 0 0 0 0 0 0 0 0 0 0 0 0 0 0 0 0;
#X obj 219 33 inlet;
#X obj 1010 27 inlet;
#X msg 903 118 read \$1/presets/\$2/step-seq-vel-\$3-\$4-p1.txt;
#X msg 935 141 read \$1/presets/\$2/step-seq-note-\$3-\$4-p1.txt;
#X msg 905 174 read \$1/presets/\$2/step-seq-vel-\$3-\$4-p2.txt;
#X msg 935 197 read \$1/presets/\$2/step-seq-note-\$3-\$4-p2.txt;
#X msg 909 236 read \$1/presets/\$2/step-seq-vel-\$3-\$4-p3.txt;
#X msg 941 259 read \$1/presets/\$2/step-seq-note-\$3-\$4-p3.txt;
#X msg 918 303 read \$1/presets/\$2/step-seq-vel-\$3-\$4-p4.txt;
#X msg 950 326 read \$1/presets/\$2/step-seq-note-\$3-\$4-p4.txt;
#X msg 926 368 read \$1/presets/\$2/step-seq-vel-\$3-\$4-p5.txt;
#X msg 958 391 read \$1/presets/\$2/step-seq-note-\$3-\$4-p5.txt;
#X msg 934 428 read \$1/presets/\$2/step-seq-vel-\$3-\$4-p6.txt;
#X msg 966 451 read \$1/presets/\$2/step-seq-note-\$3-\$4-p6.txt;
#X msg 937 484 read \$1/presets/\$2/step-seq-vel-\$3-\$4-p7.txt;
#X msg 968 507 read \$1/presets/\$2/step-seq-note-\$3-\$4-p7.txt;
#X msg 940 546 read \$1/presets/\$2/step-seq-vel-\$3-\$4-p8.txt;
#X msg 972 569 read \$1/presets/\$2/step-seq-note-\$3-\$4-p8.txt;
#X msg 949 613 read \$1/presets/\$2/step-seq-vel-\$3-\$4-p9.txt;
#X msg 981 636 read \$1/presets/\$2/step-seq-note-\$3-\$4-p9.txt;
#X msg 957 678 read \$1/presets/\$2/step-seq-vel-\$3-\$4-p10.txt;
#X msg 989 701 read \$1/presets/\$2/step-seq-note-\$3-\$4-p10.txt;
#X obj 924 860 array define -k metric-list-\$1-\$2 10;
#A 0 0 0 0 0 0 0 0 0 0 0;
#X obj 929 901 array define -k loop-list-\$1-\$2 10;
#A 0 8 8 8 8 8 8 8 8 8 8;
#X msg 916 766 read \$1/presets/\$2/metric-\$3-\$4.txt;
#X msg 948 789 read \$1/presets/\$2/loop-\$3-\$4.txt;
#X msg 558 443 write \$1/presets/\$2/metric-\$3-\$4.txt;
#X msg 558 473 write \$1/presets/\$2/loop-\$3-\$4.txt;
#X obj 677 900 r loadbang-\$2;
#X msg 677 921 const 0;
#X msg 735 921 const 100;
#X msg 809 946 const 8;
#X msg 1394 51 write \$1/presets/\$2/step-seq-length-\$3-\$4-p1.txt
;
#X msg 1404 89 write \$1/presets/\$2/step-seq-length-\$3-\$4-p2.txt
;
#X msg 1432 128 write \$1/presets/\$2/step-seq-length-\$3-\$4-p3.txt
;
#X msg 1443 165 write \$1/presets/\$2/step-seq-length-\$3-\$4-p4.txt
;
#X msg 1467 193 write \$1/presets/\$2/step-seq-length-\$3-\$4-p5.txt
;
#X msg 1477 231 write \$1/presets/\$2/step-seq-length-\$3-\$4-p6.txt
;
#X msg 1504 262 write \$1/presets/\$2/step-seq-length-\$3-\$4-p7.txt
;
#X msg 1520 293 write \$1/presets/\$2/step-seq-length-\$3-\$4-p8.txt
;
#X msg 1532 329 write \$1/presets/\$2/step-seq-length-\$3-\$4-p9.txt
;
#X msg 1555 362 write \$1/presets/\$2/step-seq-length-\$3-\$4-p10.txt
;
#X obj 1330 787 array define -k note-length-\$1-\$2-p1 16;
#A 0 1 1 1 1 1 1 1 1 1 1 1 1 1 1 1 1;
#X obj 1354 824 array define -k note-length-\$1-\$2-p2 16;
#A 0 1 1 1 1 1 1 1 1 1 1 1 1 1 1 1 1;
#X obj 1383 859 array define -k note-length-\$1-\$2-p3 16;
#A 0 1 1 1 1 1 1 1 1 1 1 1 1 1 1 1 1;
#X obj 1407 892 array define -k note-length-\$1-\$2-p4 16;
#A 0 1 1 1 1 1 1 1 1 1 1 1 1 1 1 1 1;
#X obj 1430 922 array define -k note-length-\$1-\$2-p5 16;
#A 0 1 1 1 1 1 1 1 1 1 1 1 1 1 1 1 1;
#X obj 1452 952 array define -k note-length-\$1-\$2-p6 16;
#A 0 1 1 1 1 1 1 1 1 1 1 1 1 1 1 1 1;
#X obj 1470 983 array define -k note-length-\$1-\$2-p7 16;
#A 0 1 1 1 1 1 1 1 1 1 1 1 1 1 1 1 1;
#X obj 1493 1012 array define -k note-length-\$1-\$2-p8 16;
#A 0 1 1 1 1 1 1 1 1 1 1 1 1 1 1 1 1;
#X obj 1512 1040 array define -k note-length-\$1-\$2-p9 16;
#A 0 1 1 1 1 1 1 1 1 1 1 1 1 1 1 1 1;
#X obj 1534 1072 array define -k note-length-\$1-\$2-p10 16;
#A 0 1 1 1 1 1 1 1 1 1 1 1 1 1 1 1 1;
#X msg 1313 431 read \$1/presets/\$2/step-seq-length-\$3-\$4-p1.txt
;
#X msg 1319 455 read \$1/presets/\$2/step-seq-length-\$3-\$4-p2.txt
;
#X msg 1331 477 read \$1/presets/\$2/step-seq-length-\$3-\$4-p3.txt
;
#X msg 1344 502 read \$1/presets/\$2/step-seq-length-\$3-\$4-p4.txt
;
#X msg 1356 525 read \$1/presets/\$2/step-seq-length-\$3-\$4-p5.txt
;
#X msg 1369 546 read \$1/presets/\$2/step-seq-length-\$3-\$4-p6.txt
;
#X msg 1382 570 read \$1/presets/\$2/step-seq-length-\$3-\$4-p7.txt
;
#X msg 1395 591 read \$1/presets/\$2/step-seq-length-\$3-\$4-p8.txt
;
#X msg 1409 615 read \$1/presets/\$2/step-seq-length-\$3-\$4-p9.txt
;
#X msg 1424 638 read \$1/presets/\$2/step-seq-length-\$3-\$4-p10.txt
;
#X msg 807 903 const 1;
#X connect 0 0 21 0;
#X connect 1 0 20 0;
#X connect 2 0 23 0;
#X connect 3 0 22 0;
#X connect 4 0 25 0;
#X connect 5 0 24 0;
#X connect 6 0 27 0;
#X connect 7 0 26 0;
#X connect 8 0 30 0;
#X connect 9 0 29 0;
#X connect 10 0 31 0;
#X connect 11 0 28 0;
#X connect 12 0 33 0;
#X connect 13 0 32 0;
#X connect 14 0 35 0;
#X connect 15 0 34 0;
#X connect 16 0 37 0;
#X connect 17 0 36 0;
#X connect 18 0 39 0;
#X connect 19 0 38 0;
#X connect 40 0 0 0;
#X connect 40 0 19 0;
#X connect 40 0 18 0;
#X connect 40 0 17 0;
#X connect 40 0 16 0;
#X connect 40 0 15 0;
#X connect 40 0 14 0;
#X connect 40 0 13 0;
#X connect 40 0 12 0;
#X connect 40 0 11 0;
#X connect 40 0 10 0;
#X connect 40 0 9 0;
#X connect 40 0 8 0;
#X connect 40 0 7 0;
#X connect 40 0 6 0;
#X connect 40 0 5 0;
#X connect 40 0 4 0;
#X connect 40 0 3 0;
#X connect 40 0 2 0;
#X connect 40 0 1 0;
#X connect 40 0 66 0;
#X connect 40 0 67 0;
#X connect 40 0 72 0;
#X connect 40 0 81 0;
#X connect 40 0 80 0;
#X connect 40 0 79 0;
#X connect 40 0 78 0;
#X connect 40 0 77 0;
#X connect 40 0 76 0;
#X connect 40 0 75 0;
#X connect 40 0 74 0;
#X connect 40 0 73 0;
#X connect 41 0 42 0;
#X connect 41 0 61 0;
#X connect 41 0 60 0;
#X connect 41 0 59 0;
#X connect 41 0 58 0;
#X connect 41 0 57 0;
#X connect 41 0 56 0;
#X connect 41 0 55 0;
#X connect 41 0 54 0;
#X connect 41 0 53 0;
#X connect 41 0 52 0;
#X connect 41 0 51 0;
#X connect 41 0 50 0;
#X connect 41 0 49 0;
#X connect 41 0 48 0;
#X connect 41 0 47 0;
#X connect 41 0 46 0;
#X connect 41 0 45 0;
#X connect 41 0 44 0;
#X connect 41 0 43 0;
#X connect 41 0 64 0;
#X connect 41 0 65 0;
#X connect 41 0 92 0;
#X connect 41 0 101 0;
#X connect 41 0 100 0;
#X connect 41 0 99 0;
#X connect 41 0 98 0;
#X connect 41 0 97 0;
#X connect 41 0 96 0;
#X connect 41 0 95 0;
#X connect 41 0 94 0;
#X connect 41 0 93 0;
#X connect 42 0 20 0;
#X connect 43 0 21 0;
#X connect 44 0 22 0;
#X connect 45 0 23 0;
#X connect 46 0 24 0;
#X connect 47 0 25 0;
#X connect 48 0 26 0;
#X connect 49 0 27 0;
#X connect 50 0 29 0;
#X connect 51 0 30 0;
#X connect 52 0 28 0;
#X connect 53 0 31 0;
#X connect 54 0 32 0;
#X connect 55 0 33 0;
#X connect 56 0 34 0;
#X connect 57 0 35 0;
#X connect 58 0 36 0;
#X connect 59 0 37 0;
#X connect 60 0 38 0;
#X connect 61 0 39 0;
#X connect 64 0 62 0;
#X connect 65 0 63 0;
#X connect 66 0 62 0;
#X connect 67 0 63 0;
#X connect 68 0 69 0;
#X connect 68 0 70 0;
#X connect 68 0 102 0;
#X connect 69 0 39 0;
#X connect 69 0 37 0;
#X connect 69 0 35 0;
#X connect 69 0 33 0;
#X connect 69 0 31 0;
#X connect 69 0 30 0;
#X connect 69 0 27 0;
#X connect 69 0 25 0;
#X connect 69 0 23 0;
#X connect 69 0 21 0;
#X connect 69 0 62 0;
#X connect 69 0 71 0;
#X connect 70 0 36 0;
#X connect 70 0 38 0;
#X connect 70 0 34 0;
#X connect 70 0 32 0;
#X connect 70 0 29 0;
#X connect 70 0 28 0;
#X connect 70 0 22 0;
#X connect 70 0 20 0;
#X connect 70 0 26 0;
#X connect 70 0 24 0;
#X connect 71 0 63 0;
#X connect 72 0 82 0;
#X connect 73 0 83 0;
#X connect 74 0 84 0;
#X connect 75 0 85 0;
#X connect 76 0 86 0;
#X connect 77 0 87 0;
#X connect 78 0 88 0;
#X connect 79 0 89 0;
#X connect 80 0 90 0;
#X connect 81 0 91 0;
#X connect 92 0 82 0;
#X connect 93 0 83 0;
#X connect 94 0 84 0;
#X connect 95 0 85 0;
#X connect 96 0 86 0;
#X connect 97 0 87 0;
#X connect 98 0 88 0;
#X connect 99 0 89 0;
#X connect 100 0 90 0;
#X connect 101 0 91 0;
#X connect 102 0 82 0;
#X connect 102 0 91 0;
#X connect 102 0 90 0;
#X connect 102 0 89 0;
#X connect 102 0 88 0;
#X connect 102 0 87 0;
#X connect 102 0 86 0;
#X connect 102 0 85 0;
#X connect 102 0 84 0;
#X connect 102 0 83 0;
#X restore 479 224 pd write-preset;
#X msg 290 568 1;
#X msg 320 568 2;
#X msg 350 568 3;
#X msg 381 568 4;
#X msg 410 568 5;
#X msg 442 568 6;
#X msg 474 568 7;
#X msg 507 568 8;
#X msg 538 568 9;
#X msg 569 568 10;
#X obj 428 642 s preset-number-\$1-\$2;
#X obj 650 61 f;
#X obj 661 95 spigot 0;
#X msg 701 47 1;
#X obj 652 25 delay 50;
#X msg 670 45 0;
#X obj 530 16 r master-ticks;
#X obj 452 72 f;
#X obj 483 72 + 1;
#X obj 452 122 sel 4;
#X msg 486 42 1;
#X obj 536 39 sel 23;
#X obj 376 5 r signature;
#X obj 750 702 tabwrite;
#X msg 750 654 \; note-length-\$1-\$2-\$3 1 1 1 1 1 1 1 1 1 1 1 1 1
1 1 1, f 29;
#X obj 479 96 r signature_set;
#X connect 0 0 39 1;
#X connect 1 0 2 1;
#X connect 2 0 39 0;
#X connect 4 0 0 0;
#X connect 4 1 0 1;
#X connect 4 1 2 0;
#X connect 5 0 51 1;
#X connect 6 0 7 0;
#X connect 6 0 40 0;
#X connect 6 1 8 0;
#X connect 6 1 41 0;
#X connect 6 2 9 0;
#X connect 6 2 42 0;
#X connect 6 3 10 0;
#X connect 6 3 43 0;
#X connect 6 4 11 0;
#X connect 6 4 44 0;
#X connect 6 5 12 0;
#X connect 6 5 45 0;
#X connect 6 6 13 0;
#X connect 6 6 46 0;
#X connect 6 7 14 0;
#X connect 6 7 47 0;
#X connect 6 8 15 0;
#X connect 6 8 48 0;
#X connect 6 9 16 0;
#X connect 6 9 49 0;
#X connect 7 0 28 0;
#X connect 8 0 28 0;
#X connect 9 0 28 0;
#X connect 10 0 28 0;
#X connect 11 0 28 0;
#X connect 12 0 28 0;
#X connect 13 0 28 0;
#X connect 14 0 28 0;
#X connect 15 0 28 0;
#X connect 16 0 28 0;
#X connect 17 0 4 0;
#X connect 19 0 5 0;
#X connect 19 0 53 0;
#X connect 20 0 21 0;
#X connect 21 0 6 0;
#X connect 23 0 36 0;
#X connect 25 0 27 0;
#X connect 26 0 27 1;
#X connect 27 0 24 0;
#X connect 28 0 18 0;
#X connect 28 1 25 0;
#X connect 28 2 26 0;
#X connect 28 3 29 0;
#X connect 28 3 38 0;
#X connect 29 0 27 2;
#X connect 31 0 37 0;
#X connect 32 0 30 0;
#X connect 33 0 35 0;
#X connect 34 0 35 1;
#X connect 35 0 32 0;
#X connect 35 0 31 0;
#X connect 35 0 64 0;
#X connect 36 0 22 0;
#X connect 36 1 33 0;
#X connect 36 2 34 0;
#X connect 38 0 35 2;
#X connect 40 0 50 0;
#X connect 41 0 50 0;
#X connect 42 0 50 0;
#X connect 43 0 50 0;
#X connect 44 0 50 0;
#X connect 45 0 50 0;
#X connect 46 0 50 0;
#X connect 47 0 50 0;
#X connect 48 0 50 0;
#X connect 49 0 50 0;
#X connect 51 0 52 0;
#X connect 52 0 54 0;
#X connect 52 0 6 0;
#X connect 53 0 52 1;
#X connect 54 0 55 0;
#X connect 55 0 52 1;
#X connect 56 0 61 0;
#X connect 57 0 58 0;
#X connect 57 0 59 0;
#X connect 58 0 57 1;
#X connect 59 0 51 0;
#X connect 59 0 60 0;
#X connect 60 0 57 1;
#X connect 61 0 57 0;
#X connect 62 0 60 0;
#X connect 64 0 63 0;
#X connect 65 0 59 1;
#X restore 934 102 pd save-recall;
#X msg 738 301 1;
#X obj 854 282 r start;
#X obj 741 231 r stop;
#X msg 741 252 0;
#X obj 807 216 r reset;
#X msg 807 237 0;
#X obj 852 368 r signature;
#X obj 832 443 i;
#X obj 853 419 t b;
#X obj 679 390 + 1;
#X obj 199 162 s clear-all-\$1-\$2;
#X obj 644 139 s local-notes-\$1-\$2;
#X obj 705 277 r on-off-\$2;
#X obj 787 257 r on-off-\$2;
#X obj 727 373 r looplength-\$1-\$2;
#X obj 648 489 s beat-clock-\$1-\$2;
#X obj 938 224 s graphics-enable-\$1-\$2;
#X obj 561 19 r graphics-enable-\$1-\$2;
#N canvas 4 50 897 570 orac-mod-sel 0;
#X text 310 48 Object to report when the module is selected;
#X obj 91 468 outlet;
#X obj 91 275 &&, f 22;
#X msg 91 241 1;
#X msg 154 241 0;
#X obj 91 71 r activePage;
#X msg 301 240 0;
#X text 141 463 1 on \, 0 is off;
#X text 458 104 Arg1: \$1 orac slot for module (ex: a1 **this should
always be \$1**);
#X obj 91 109 unpack s s, f 15;
#X text 458 140 Arg2: name of Page where parameter should print(ex:
main);
#X obj 91 324 sel 1 0, f 23;
#X obj 91 346 t b b;
#X msg 112 369 stop;
#X msg 91 417 1;
#X msg 177 402 0;
#X obj 158 347 t b b;
#X msg 220 168 1;
#X obj 91 396 del 500;
#X obj 91 147 sel \$2, f 11;
#X obj 220 147 sel seq-\$1, f 14;
#X connect 2 0 11 0;
#X connect 3 0 2 0;
#X connect 4 0 2 0;
#X connect 5 0 9 0;
#X connect 6 0 2 1;
#X connect 9 0 19 0;
#X connect 9 1 20 0;
#X connect 11 0 12 0;
#X connect 11 1 16 0;
#X connect 12 0 18 0;
#X connect 12 1 13 0;
#X connect 13 0 18 0;
#X connect 14 0 1 0;
#X connect 15 0 1 0;
#X connect 16 0 15 0;
#X connect 16 1 13 0;
#X connect 17 0 2 1;
#X connect 18 0 14 0;
#X connect 19 0 3 0;
#X connect 19 1 4 0;
#X connect 20 0 17 0;
#X connect 20 1 6 0;
#X restore 938 199 pd orac-mod-sel;
#N canvas 191 118 1238 798 metric-logic 1;
#X obj 1021 608 outlet;
#X obj 846 256 r master-ticks;
#X obj 846 279 sel 0 6 12 18;
#X text 479 201 polymetry;
#X obj 468 177 hradio 15 1 0 10 empty empty empty 0 -8 0 10 -262144
-1 -1 0;
#X obj 845 511 spigot;
#X msg 424 276 1, f 1;
#X obj 887 511 spigot;
#X obj 929 511 spigot;
#X obj 972 511 spigot;
#X msg 460 276 1, f 1;
#X msg 477 276 0, f 1;
#X msg 498 276 1, f 1;
#X msg 533 276 1, f 1;
#X msg 514 276 0, f 1;
#X msg 550 276 0, f 1;
#X msg 569 276 1, f 1;
#X msg 586 276 0, f 1;
#X obj 348 37 r signature;
#X obj 451 203 i;
#X obj 469 155 r metric-\$1-\$2;
#X obj 59 482 s metric-internal-\$1-\$2, f 33;
#X obj 1050 511 spigot;
#X msg 606 276 1, f 1;
#X msg 623 276 0, f 1;
#X obj 1044 463 random 16;
#X obj 862 303 sel 0 6 12 18;
#X obj 939 278 sel 0 3 6 9 12 15 18 21;
#X obj 98 744 spigot;
#X msg 646 276 1, f 1;
#X msg 663 276 0, f 1;
#X msg 59 226 symbol ==;
#X msg 127 295 symbol P1;
#X msg 149 318 symbol P2;
#X msg 171 341 symbol P3;
#X msg 194 365 symbol ?!;
#X msg 80 248 symbol /=;
#X msg 105 272 symbol *=;
#X obj 754 150 f;
#X obj 785 150 + 1;
#X floatatom 710 164 5 0 0 0 - - -;
#X obj 754 199 sel 2;
#X msg 757 237 1, f 2;
#X obj 1000 190 r start;
#X obj 1000 211 t b;
#X obj 451 223 sel 0 1 2 3 4 5 6 7 8 9, f 27;
#X obj 59 188 sel 0 1 2 3 4 5 6 7 8 9, f 38;
#X obj 922 65 f;
#X obj 953 65 + 1;
#X floatatom 878 79 5 0 0 0 - - -;
#X msg 865 150 1, f 2;
#X obj 684 192 t b b;
#X msg 931 160 0, f 2;
#X obj 965 527 spigot 1;
#X msg 814 184 2;
#X obj 478 477 spigot 0;
#X obj 683 220 t b b;
#X obj 683 241 t b b;
#X msg 875 185 8;
#X msg 667 460 1;
#X obj 288 334 r beat-clock-\$1-\$2;
#X obj 922 114 sel 15;
#X msg 220 389 symbol |2;
#X msg 232 414 symbol |4;
#X msg 255 438 symbol |8;
#X msg 443 276 0, f 1;
#X obj 730 292 spigot 0;
#X msg 657 240 0, f 1;
#X obj 267 290 s skip-bar-active-\$1-\$2;
#X msg 267 237 1, f 1;
#X obj 1012 511 spigot;
#X obj 566 670 s reset-step-one-\$1-\$2;
#X msg 843 185 4;
#X obj 371 138 spigot;
#X msg 715 98 1;
#X obj 371 159 t b b;
#X msg 407 159 0;
#X obj 429 36 sel 0 1 2 3 4 5 6 7 8 9, f 60;
#X msg 448 79 0;
#X obj 498 83 1;
#X obj 505 118 spigot;
#X msg 541 81 0;
#X msg 385 256 1;
#X obj 612 522 spigot;
#X msg 657 498 1;
#X msg 623 497 0;
#X obj 783 722 tabwrite metric-list-\$1-\$2;
#X obj 936 662 r preset-number-\$1-\$2;
#X obj 962 565 r preset-number-\$1-\$2;
#X obj 839 626 tabread metric-list-\$1-\$2;
#X obj 839 647 t b f;
#X msg 783 701 \$1;
#X obj 936 683 - 1;
#X obj 962 586 - 1;
#X obj 1000 249 r reprint-\$1-\$2;
#X obj 1030 127 spigot;
#X msg 798 264 0;
#X msg 829 219 1;
#X msg 799 335 1;
#X obj 797 309 delay 50;
#X connect 1 0 2 0;
#X connect 1 0 27 0;
#X connect 1 0 26 0;
#X connect 2 0 7 0;
#X connect 4 0 19 1;
#X connect 4 0 46 0;
#X connect 5 0 53 0;
#X connect 6 0 5 1;
#X connect 6 0 53 1;
#X connect 6 0 66 1;
#X connect 7 0 53 0;
#X connect 8 0 53 0;
#X connect 9 0 53 0;
#X connect 10 0 53 1;
#X connect 10 0 66 1;
#X connect 10 0 7 1;
#X connect 11 0 9 1;
#X connect 11 0 22 1;
#X connect 11 0 28 1;
#X connect 11 0 55 1;
#X connect 11 0 68 0;
#X connect 11 0 5 1;
#X connect 11 0 8 1;
#X connect 11 0 70 1;
#X connect 12 0 8 1;
#X connect 12 0 53 1;
#X connect 12 0 66 1;
#X connect 13 0 9 1;
#X connect 13 0 53 1;
#X connect 13 0 66 1;
#X connect 14 0 9 1;
#X connect 14 0 22 1;
#X connect 14 0 28 1;
#X connect 14 0 55 1;
#X connect 14 0 68 0;
#X connect 14 0 7 1;
#X connect 14 0 5 1;
#X connect 14 0 70 1;
#X connect 15 0 8 1;
#X connect 15 0 22 1;
#X connect 15 0 28 1;
#X connect 15 0 55 1;
#X connect 15 0 68 0;
#X connect 15 0 7 1;
#X connect 15 0 5 1;
#X connect 15 0 70 1;
#X connect 16 0 53 1;
#X connect 16 0 66 1;
#X connect 16 0 70 1;
#X connect 17 0 7 1;
#X connect 17 0 22 1;
#X connect 17 0 28 1;
#X connect 17 0 55 1;
#X connect 17 0 68 0;
#X connect 17 0 5 1;
#X connect 17 0 8 1;
#X connect 17 0 9 1;
#X connect 18 0 66 0;
#X connect 18 0 73 0;
#X connect 18 0 80 0;
#X connect 19 0 45 0;
#X connect 19 0 91 0;
#X connect 20 0 4 0;
#X connect 20 0 77 0;
#X connect 22 0 53 0;
#X connect 23 0 22 1;
#X connect 23 0 53 1;
#X connect 23 0 66 1;
#X connect 24 0 9 1;
#X connect 24 0 8 1;
#X connect 24 0 7 1;
#X connect 24 0 5 1;
#X connect 24 0 28 1;
#X connect 24 0 55 1;
#X connect 24 0 68 0;
#X connect 24 0 70 1;
#X connect 25 0 22 0;
#X connect 26 0 25 0;
#X connect 26 1 25 0;
#X connect 26 2 25 0;
#X connect 26 3 25 0;
#X connect 27 0 28 0;
#X connect 27 0 5 0;
#X connect 27 0 8 0;
#X connect 27 0 70 0;
#X connect 27 1 28 0;
#X connect 27 1 9 0;
#X connect 27 2 28 0;
#X connect 27 2 5 0;
#X connect 27 2 70 0;
#X connect 27 3 28 0;
#X connect 27 3 9 0;
#X connect 27 4 28 0;
#X connect 27 4 5 0;
#X connect 27 4 8 0;
#X connect 27 4 9 0;
#X connect 27 5 28 0;
#X connect 27 5 70 0;
#X connect 27 6 28 0;
#X connect 27 6 5 0;
#X connect 27 6 8 0;
#X connect 27 6 9 0;
#X connect 27 7 28 0;
#X connect 27 7 70 0;
#X connect 28 0 53 0;
#X connect 29 0 28 1;
#X connect 29 0 53 1;
#X connect 29 0 66 1;
#X connect 30 0 22 1;
#X connect 30 0 8 1;
#X connect 30 0 9 1;
#X connect 30 0 7 1;
#X connect 30 0 5 1;
#X connect 30 0 55 1;
#X connect 30 0 68 0;
#X connect 30 0 70 1;
#X connect 31 0 21 0;
#X connect 32 0 21 0;
#X connect 33 0 21 0;
#X connect 34 0 21 0;
#X connect 35 0 21 0;
#X connect 36 0 21 0;
#X connect 37 0 21 0;
#X connect 38 0 39 0;
#X connect 38 0 40 0;
#X connect 38 0 41 0;
#X connect 39 0 38 1;
#X connect 41 0 42 0;
#X connect 41 0 50 0;
#X connect 41 0 96 0;
#X connect 41 1 50 0;
#X connect 41 1 97 0;
#X connect 41 1 95 0;
#X connect 42 0 38 1;
#X connect 42 0 53 1;
#X connect 43 0 44 0;
#X connect 44 0 52 0;
#X connect 44 0 42 0;
#X connect 45 0 6 0;
#X connect 45 0 65 0;
#X connect 45 1 10 0;
#X connect 45 1 11 0;
#X connect 45 2 29 0;
#X connect 45 2 30 0;
#X connect 45 3 51 0;
#X connect 45 3 65 0;
#X connect 45 3 69 0;
#X connect 45 3 82 0;
#X connect 45 3 67 0;
#X connect 45 4 56 0;
#X connect 45 4 65 0;
#X connect 45 4 69 0;
#X connect 45 4 82 0;
#X connect 45 4 67 0;
#X connect 45 5 57 0;
#X connect 45 5 65 0;
#X connect 45 5 69 0;
#X connect 45 5 82 0;
#X connect 45 5 67 0;
#X connect 45 6 12 0;
#X connect 45 6 14 0;
#X connect 45 7 13 0;
#X connect 45 7 15 0;
#X connect 45 8 16 0;
#X connect 45 8 17 0;
#X connect 45 9 23 0;
#X connect 45 9 24 0;
#X connect 46 0 31 0;
#X connect 46 1 36 0;
#X connect 46 2 37 0;
#X connect 46 3 62 0;
#X connect 46 4 63 0;
#X connect 46 5 64 0;
#X connect 46 6 32 0;
#X connect 46 7 33 0;
#X connect 46 8 34 0;
#X connect 46 9 35 0;
#X connect 47 0 48 0;
#X connect 47 0 49 0;
#X connect 47 0 61 0;
#X connect 48 0 47 1;
#X connect 50 0 47 1;
#X connect 51 0 59 0;
#X connect 51 0 85 0;
#X connect 51 1 54 0;
#X connect 51 1 84 0;
#X connect 51 1 83 0;
#X connect 52 0 53 1;
#X connect 53 0 0 0;
#X connect 54 0 41 1;
#X connect 55 0 47 0;
#X connect 56 0 59 0;
#X connect 56 0 85 0;
#X connect 56 1 72 0;
#X connect 56 1 84 0;
#X connect 56 1 83 0;
#X connect 57 0 59 0;
#X connect 57 0 85 0;
#X connect 57 1 58 0;
#X connect 57 1 84 0;
#X connect 57 1 83 0;
#X connect 58 0 41 1;
#X connect 59 0 55 1;
#X connect 60 0 55 0;
#X connect 61 0 50 0;
#X connect 61 0 52 0;
#X connect 62 0 21 0;
#X connect 63 0 21 0;
#X connect 64 0 21 0;
#X connect 65 0 7 1;
#X connect 65 0 28 1;
#X connect 65 0 22 1;
#X connect 65 0 9 1;
#X connect 65 0 8 1;
#X connect 65 0 68 0;
#X connect 65 0 70 1;
#X connect 66 0 42 0;
#X connect 67 0 66 1;
#X connect 69 0 68 0;
#X connect 70 0 53 0;
#X connect 72 0 41 1;
#X connect 73 0 75 0;
#X connect 74 0 73 1;
#X connect 75 0 76 0;
#X connect 75 1 19 0;
#X connect 75 1 71 0;
#X connect 76 0 73 1;
#X connect 77 0 74 0;
#X connect 77 0 81 0;
#X connect 77 1 74 0;
#X connect 77 1 81 0;
#X connect 77 2 74 0;
#X connect 77 2 81 0;
#X connect 77 3 78 0;
#X connect 77 3 79 0;
#X connect 77 3 42 0;
#X connect 77 4 78 0;
#X connect 77 4 79 0;
#X connect 77 4 42 0;
#X connect 77 5 78 0;
#X connect 77 5 79 0;
#X connect 77 5 42 0;
#X connect 77 6 74 0;
#X connect 77 6 81 0;
#X connect 77 7 74 0;
#X connect 77 7 81 0;
#X connect 77 8 74 0;
#X connect 77 8 81 0;
#X connect 77 9 74 0;
#X connect 77 9 81 0;
#X connect 78 0 73 1;
#X connect 79 0 80 1;
#X connect 80 0 19 0;
#X connect 80 0 38 0;
#X connect 81 0 80 1;
#X connect 82 0 5 1;
#X connect 83 0 71 0;
#X connect 84 0 83 1;
#X connect 85 0 83 1;
#X connect 87 0 92 0;
#X connect 88 0 93 0;
#X connect 89 0 90 0;
#X connect 90 1 77 0;
#X connect 90 1 4 0;
#X connect 91 0 86 0;
#X connect 92 0 86 1;
#X connect 93 0 89 0;
#X connect 95 0 52 0;
#X connect 96 0 95 1;
#X connect 96 0 99 0;
#X connect 97 0 95 1;
#X connect 98 0 53 1;
#X connect 99 0 98 0;
#X restore 513 223 pd metric-logic;
#X obj 985 389 r skip-bar-active-\$1-\$2;
#X obj 989 421 sel 0 1;
#X obj 1018 501 spigot 1;
#X msg 980 444 1, f 2;
#X msg 1004 444 0, f 2;
#X msg 1085 475 16;
#X obj 1031 443 t b b;
#X obj 882 462 i;
#X obj 955 319 t b;
#X obj 955 273 r reset-step-one-\$1-\$2;
#X msg 994 333 0;
#X obj 1124 335 bng 15 250 50 0 empty empty empty 17 7 0 10 -262144
-1 -1;
#X obj 1151 573 r preset-number-\$1-\$2;
#X obj 1177 476 r preset-number-\$1-\$2;
#X obj 1054 558 t b f;
#X msg 998 612 \$1;
#X obj 1151 594 - 1;
#X obj 1177 497 - 1;
#X obj 1054 537 tabread loop-list-\$1-\$2;
#X obj 998 633 tabwrite loop-list-\$1-\$2;
#X obj 1072 582 sel 0;
#X msg 1072 603 8;
#X obj 905 407 delay 50;
#X obj 1182 280 r reprint-\$1-\$2;
#X obj 572 97 t a a a;
#X obj 832 26 sel 1;
#X msg 831 49 0, f 1;
#X msg 854 49 1, f 1;
#X obj 763 75 spigot 1;
#X obj 698 43 inlet pattern select;
#X obj 648 306 spigot 1, f 10;
#N canvas 4 50 450 492 hold-note 0;
#X obj 54 12 inlet;
#X obj 87 87 sel 0;
#X msg 153 170 stop;
#X obj 61 190 t b b;
#X msg 87 249 1;
#X msg 133 227 0;
#X obj 87 289 sel 0 1;
#X obj 114 109 t b b b b;
#X msg 165 133 1;
#X obj 61 212 spigot 0;
#X obj 133 196 del 2000;
#X obj 257 262 outlet;
#X obj 317 264 outlet;
#X obj 307 61 stripnote;
#X obj 307 82 pack 0 0;
#X obj 262 125 list append;
#X msg 263 98 69;
#X obj 262 146 route 69;
#X obj 54 33 t a a, f 37;
#X obj 54 54 unpack;
#X obj 199 78 inlet;
#X connect 0 0 18 0;
#X connect 1 0 3 0;
#X connect 1 1 7 0;
#X connect 2 0 10 0;
#X connect 3 0 9 0;
#X connect 3 1 2 0;
#X connect 4 0 6 0;
#X connect 5 0 6 0;
#X connect 5 0 9 1;
#X connect 6 0 12 0;
#X connect 6 1 16 0;
#X connect 7 1 10 0;
#X connect 7 2 2 0;
#X connect 7 3 8 0;
#X connect 8 0 9 1;
#X connect 9 0 4 0;
#X connect 10 0 5 0;
#X connect 13 0 14 0;
#X connect 13 1 14 1;
#X connect 14 0 15 1;
#X connect 15 0 17 0;
#X connect 16 0 15 0;
#X connect 17 0 11 0;
#X connect 18 0 19 0;
#X connect 18 1 13 0;
#X connect 19 1 1 0;
#X connect 20 0 2 0;
#X restore 114 140 pd hold-note;
#X msg 114 118 1 \$1;
#X obj 448 55 spigot 0;
#X connect 0 0 65 0;
#X connect 3 0 12 0;
#X connect 12 0 1 0;
#X connect 13 0 73 0;
#X connect 14 0 29 0;
#X connect 14 0 15 0;
#X connect 15 0 35 0;
#X connect 16 0 17 0;
#X connect 17 0 14 1;
#X connect 20 0 70 1;
#X connect 21 0 17 0;
#X connect 21 0 20 0;
#X connect 22 0 23 0;
#X connect 24 0 25 0;
#X connect 25 0 70 1;
#X connect 26 0 62 0;
#X connect 27 0 15 1;
#X connect 28 0 27 0;
#X connect 29 0 14 1;
#X connect 32 0 70 1;
#X connect 33 0 16 0;
#X connect 34 0 47 1;
#X connect 34 0 55 0;
#X connect 37 0 73 1;
#X connect 38 0 36 0;
#X connect 39 0 70 0;
#X connect 40 0 41 0;
#X connect 41 0 43 0;
#X connect 41 1 46 0;
#X connect 41 1 44 0;
#X connect 42 0 15 1;
#X connect 43 0 42 1;
#X connect 44 0 42 1;
#X connect 45 0 27 1;
#X connect 46 0 27 0;
#X connect 46 1 45 0;
#X connect 47 0 42 0;
#X connect 48 0 50 0;
#X connect 49 0 51 0;
#X connect 49 0 48 0;
#X connect 50 0 14 1;
#X connect 52 0 56 0;
#X connect 53 0 57 0;
#X connect 54 1 60 0;
#X connect 55 0 59 0;
#X connect 56 0 59 1;
#X connect 57 0 58 0;
#X connect 58 0 54 0;
#X connect 60 0 61 0;
#X connect 60 1 47 1;
#X connect 61 0 47 1;
#X connect 62 0 28 0;
#X connect 62 0 47 0;
#X connect 63 0 48 0;
#X connect 64 1 4 0;
#X connect 64 2 31 0;
#X connect 65 0 66 0;
#X connect 65 1 67 0;
#X connect 65 1 71 1;
#X connect 66 0 68 1;
#X connect 67 0 68 1;
#X connect 68 0 19 0;
#X connect 69 0 68 0;
#X connect 70 0 14 0;
#X connect 71 1 30 0;
#X connect 72 0 71 0;
#X connect 73 0 64 0;
#X connect 73 0 71 0;
