#N canvas 91 439 416 573 10;
#X obj 142 366 s notesOut-\$1;
#X obj 18 143 inlet~ inL-\$1;
#X obj 128 143 inlet~ inR-\$1;
#X obj 117 328 outlet~ outL-\$1;
#X obj 226 328 outlet~ outR-\$1;
#X obj 241 174 r auxIn-\$1;
#X obj 319 232 r expIn-\$1;
#X obj 319 257 r fsIn-\$1;
#X text 200 63 C&G basic polyphonic patch with 8 voices;
#X obj 243 366 s ctrlOut-\$1;
#N canvas 4 499 921 545 subparams 0;
#X obj -2 72 r notesIn-\$1;
#X obj 99 72 r ctrlIn-\$1;
#X obj 261 148 r pb_range-\$1;
#X obj -2 93 unpack 0 0;
#X msg -2 114 notes \$1;
#X msg 261 197 pb_range \$1;
#X msg 55 115 velocity \$1;
#X floatatom 62 173 5 0 0 0 - - -;
#X floatatom 462 173 5 0 0 0 - - -;
#X floatatom 360 173 5 0 0 0 - - -;
#X floatatom 167 173 5 0 0 0 - - -;
#X floatatom 261 173 5 0 0 0 - - -;
#X obj 13 343 outlet;
#X obj 321 74 r loaded-\$1;
#X floatatom 592 171 5 0 0 0 - - -;
#X obj 799 145 r volume-\$1;
#X floatatom 799 166 5 0 0 0 - - -;
#X msg 799 186 volume \$1;
#X obj 62 148 r rs_waveform-\$1;
#X obj 167 148 r rs_trans-\$1;
#X obj 360 148 r rs_decay-\$1;
#X obj 462 148 r rs_ramp_attack-\$1;
#X obj 592 150 r rs_ramp_amt-\$1;
#X floatatom 633 262 5 0 0 0 - - -;
#X obj 633 237 r rs_ramp_decay-\$1;
#X msg 62 197 rs_waveform \$1;
#X msg 167 197 rs_trans \$1;
#X msg 360 197 rs_decay \$1;
#X msg 462 197 rs_ramp_attack \$1;
#X msg 592 191 rs_ramp_amt \$1;
#X msg 633 286 rs_ramp_decay \$1;
#X connect 0 0 3 0;
#X connect 2 0 11 0;
#X connect 3 0 4 0;
#X connect 3 1 6 0;
#X connect 4 0 12 0;
#X connect 5 0 12 0;
#X connect 6 0 12 0;
#X connect 7 0 25 0;
#X connect 8 0 28 0;
#X connect 9 0 27 0;
#X connect 10 0 26 0;
#X connect 11 0 5 0;
#X connect 13 0 7 0;
#X connect 13 0 10 0;
#X connect 13 0 11 0;
#X connect 13 0 9 0;
#X connect 13 0 8 0;
#X connect 13 0 14 0;
#X connect 13 0 16 0;
#X connect 14 0 29 0;
#X connect 15 0 16 0;
#X connect 16 0 17 0;
#X connect 17 0 12 0;
#X connect 18 0 7 0;
#X connect 19 0 10 0;
#X connect 20 0 9 0;
#X connect 21 0 8 0;
#X connect 22 0 14 0;
#X connect 23 0 30 0;
#X connect 24 0 23 0;
#X connect 25 0 12 0;
#X connect 26 0 12 0;
#X connect 27 0 12 0;
#X connect 28 0 12 0;
#X connect 29 0 12 0;
#X connect 30 0 12 0;
#X restore 47 180 pd subparams;
#X obj 38 329 route loaded;
#X obj 38 350 bang;
#X obj 38 371 s loaded-\$1;
#X obj 109 221 r loadbang-\$1;
#X obj 38 285 pd~ -ninsig 0 -noutsig 2;
#X msg 241 195 aux \$1;
#X msg 109 242 pd~ start -nogui synth.pd;
#X connect 5 0 16 0;
#X connect 10 0 15 0;
#X connect 11 0 12 0;
#X connect 12 0 13 0;
#X connect 14 0 17 0;
#X connect 15 0 11 0;
#X connect 15 1 3 0;
#X connect 15 2 4 0;
#X connect 16 0 15 0;
#X connect 17 0 15 0;
