#N canvas 601 357 1315 687 10;
#N canvas 11 50 1905 999 synth 0;
#X obj 66 274 pack 0 0 0, f 11;
#X obj 65 375 route 1 2 3 4, f 55;
#X obj 66 247 poly 4 1, f 11;
#X obj 213 826 outlet~;
#X obj 56 611 rs-voice \$1;
#X obj 214 746 lop~ 5000;
#X obj 146 612 rs-voice \$1;
#X obj 237 612 rs-voice \$1;
#X obj 337 612 rs-voice \$1;
#N canvas 324 629 450 300 route 0;
#X obj 69 97 unpack 0 0 0;
#X obj 68 68 t l l;
#X obj 68 197 list;
#X obj 139 144 t b;
#X obj 139 123 route 1 0;
#X obj 226 163 unpack 0 0 0;
#X obj 226 194 pack 0 0 0;
#X obj 68 19 inlet msg;
#X obj 68 218 outlet global;
#X obj 226 215 outlet voice;
#X obj 187 162 - 1;
#X connect 0 2 4 0;
#X connect 1 0 0 0;
#X connect 1 1 2 1;
#X connect 1 1 5 0;
#X connect 2 0 8 0;
#X connect 3 0 2 0;
#X connect 4 0 3 0;
#X connect 4 1 3 0;
#X connect 4 2 10 0;
#X connect 5 0 6 1;
#X connect 5 1 6 2;
#X connect 6 0 9 0;
#X connect 7 0 1 0;
#X connect 10 0 6 0;
#X restore 78 100 pd route;
#N canvas 324 629 450 300 route 0;
#X obj 69 97 unpack 0 0 0;
#X obj 68 68 t l l;
#X obj 68 197 list;
#X obj 139 144 t b;
#X obj 139 123 route 1 0;
#X obj 234 171 unpack 0 0 0;
#X obj 234 202 pack 0 0 0;
#X obj 68 19 inlet msg;
#X obj 68 218 outlet global;
#X obj 234 223 outlet voice;
#X obj 190 158 - 1;
#X connect 0 2 4 0;
#X connect 1 0 0 0;
#X connect 1 1 2 1;
#X connect 1 1 5 0;
#X connect 2 0 8 0;
#X connect 3 0 2 0;
#X connect 4 0 3 0;
#X connect 4 1 3 0;
#X connect 4 2 10 0;
#X connect 5 0 6 1;
#X connect 5 1 6 2;
#X connect 6 0 9 0;
#X connect 7 0 1 0;
#X connect 10 0 6 0;
#X restore 209 106 pd route;
#X obj 148 21 inlet ctrl;
#X obj 297 279 route 1 2 3 4, f 55;
#X obj 541 117 unpack 0 0 0;
#X obj 541 138 sel 123;
#X msg 541 159 stop;
#X obj 214 681 *~ 0.5;
#X obj 360 139 sel 1;
#X msg 360 160 stop;
#X obj 360 118 r aux;
#X obj 214 767 clip~ -1 1;
#X obj 214 702 *~ 1;
#X obj 403 685 r volume;
#X obj 403 706 / 100;
#X obj 22 19 inlet;
#X connect 0 0 1 0;
#X connect 1 0 4 0;
#X connect 1 1 6 0;
#X connect 1 2 7 0;
#X connect 1 3 8 0;
#X connect 2 0 0 0;
#X connect 2 1 0 1;
#X connect 2 2 0 2;
#X connect 4 0 16 0;
#X connect 5 0 20 0;
#X connect 6 0 16 0;
#X connect 7 0 16 0;
#X connect 8 0 16 0;
#X connect 9 0 2 0;
#X connect 9 1 1 0;
#X connect 10 0 4 1;
#X connect 10 0 8 1;
#X connect 10 0 7 1;
#X connect 10 0 6 1;
#X connect 10 1 12 0;
#X connect 11 0 10 0;
#X connect 11 0 13 0;
#X connect 12 0 4 1;
#X connect 12 1 6 1;
#X connect 12 2 7 1;
#X connect 12 3 8 1;
#X connect 13 0 14 0;
#X connect 14 0 15 0;
#X connect 15 0 2 0;
#X connect 16 0 21 0;
#X connect 17 0 18 0;
#X connect 18 0 2 0;
#X connect 19 0 17 0;
#X connect 20 0 3 0;
#X connect 21 0 5 0;
#X connect 22 0 23 0;
#X connect 23 0 21 1;
#X connect 24 0 2 0;
#X restore 71 322 pd synth;
#X text 415 13 C&G ramp synth;
#X obj 253 188 r notes;
#X obj 253 209 pack 0 0;
#X obj 305 187 r velocity;
#X obj 68 361 dac~;
#X obj 449 302 loadbang;
#X obj 449 323 t b b;
#X msg 449 344 loaded \$1;
#X obj 449 365 stdout;
#X msg 543 332 \; pd dsp 1;
#X connect 0 0 5 0;
#X connect 0 0 5 1;
#X connect 2 0 3 0;
#X connect 3 0 0 0;
#X connect 4 0 3 1;
#X connect 6 0 7 0;
#X connect 7 0 8 0;
#X connect 7 1 10 0;
#X connect 8 0 9 0;
