#N canvas 809 123 1107 775 10;
#X declare -path cg-pd-library-local/sampling;
#X declare -path cg-pd-library-local/sequencer;
#X declare -path cg-pd-library-local/externals;
#X declare -path cg-pd-library-local/metronome;
#X declare -path soundshare;
#X text 210 710 Sound out;
#X text 111 47 init sequence;
#X text 192 96 critter library of abstractions;
#N canvas 13 50 450 300 cg-pd-library-local 0;
#X obj 502 35 r cgSc-1-slots;
#X obj 60 68 declare -path cg-pd-library-local/sampling;
#X obj 60 98 declare -path cg-pd-library-local/sequencer;
#X obj 58 130 declare -path cg-pd-library-local/externals;
#X obj 59 165 declare -path cg-pd-library-local/metronome;
#X obj 63 189 declare -path soundshare;
#X restore 51 94 pd cg-pd-library-local;
#N canvas 4 23 1097 775 kb-commands 0;
#X obj 22 39 stripnote;
#X obj 23 18 inlet;
#X obj 34 292 s loop-1-start-\$1;
#X obj 307 273 s global-start-\$1;
#X obj 124 322 s loop-2-start-\$1;
#X obj 577 227 s global-stop-\$1;
#X obj 223 329 s loop-3-start-\$1;
#X obj 263 310 s loop-4-start-\$1;
#X obj 417 340 s loop-1-stop-\$1;
#X obj 476 312 s loop-2-stop-\$1;
#X obj 563 356 s loop-3-stop-\$1;
#X obj 618 317 s loop-4-stop-\$1;
#X obj 68 161 % 12;
#X obj 237 148 sel 0 1 2 3 4 5 6 7 8 9 10 11, f 48;
#X connect 0 0 12 0;
#X connect 1 0 0 0;
#X connect 12 0 13 0;
#X connect 13 0 2 0;
#X connect 13 1 4 0;
#X connect 13 2 6 0;
#X connect 13 3 7 0;
#X connect 13 4 3 0;
#X connect 13 5 8 0;
#X connect 13 6 9 0;
#X connect 13 7 10 0;
#X connect 13 8 11 0;
#X connect 13 9 5 0;
#X restore 292 181 pd kb-commands;
#X obj 67 750 outlet~;
#X obj 326 738 outlet~;
#X obj 197 543 *~ 1;
#X obj 289 138 r notesIn-\$1;
#X obj 494 177 r auxIn-\$1;
#X obj 423 208 r expIn-\$1;
#X obj 525 208 r fsIn-\$1;
#X obj 455 728 s aux-label-\$1;
#X obj 220 315 loop-voice 1 \$1;
#X obj 390 318 loop-voice 2 \$1;
#X obj 567 321 loop-voice 3 \$1;
#X obj 686 326 loop-voice 4 \$1;
#N canvas 159 319 1366 725 activepage 1;
#X obj 129 243 sel \$1;
#X obj 167 215 unpack s s;
#X obj 400 51 r activePage;
#X msg 119 295 1;
#X msg 155 273 0;
#X obj 167 93 t b a;
#X obj 178 168 list;
#X obj 168 190 t l l;
#X obj 32 244 unpack s s;
#X obj 101 397 spigot 0;
#X msg 113 469 activepage \$1;
#X obj 98 534 outlet;
#X obj 255 538 outlet;
#X obj 242 118 del 700;
#X obj 400 72 unpack s s;
#X obj 400 93 sel \$1;
#X obj 400 163 &&;
#X msg 400 114 1;
#X msg 433 114 0;
#X msg 461 114 1;
#X msg 592 134 0;
#X obj 399 184 change;
#X obj 401 214 tgl 15 0 empty empty empty 17 7 0 10 -262144 -1 -1 1
1;
#X obj 401 234 ==;
#X obj 401 255 s clock-off-\$1;
#X obj 461 92 sel pg_samp pg_setup;
#X msg 515 115 1;
#X obj 304 253 sel 1;
#X msg 304 274 Samples;
#X obj 304 295 s aux-label-\$1;
#X connect 0 0 3 0;
#X connect 0 1 4 0;
#X connect 1 0 0 0;
#X connect 2 0 5 0;
#X connect 2 0 14 0;
#X connect 3 0 9 1;
#X connect 4 0 9 1;
#X connect 5 0 6 0;
#X connect 5 0 13 0;
#X connect 5 1 6 1;
#X connect 6 0 7 0;
#X connect 7 0 8 0;
#X connect 7 1 1 0;
#X connect 8 1 9 0;
#X connect 9 0 10 0;
#X connect 9 0 12 0;
#X connect 10 0 11 0;
#X connect 13 0 6 0;
#X connect 14 0 15 0;
#X connect 14 1 25 0;
#X connect 15 0 17 0;
#X connect 15 1 18 0;
#X connect 16 0 21 0;
#X connect 17 0 16 0;
#X connect 18 0 16 0;
#X connect 19 0 16 1;
#X connect 20 0 16 1;
#X connect 21 0 22 0;
#X connect 22 0 23 0;
#X connect 22 0 27 0;
#X connect 23 0 24 0;
#X connect 25 0 19 0;
#X connect 25 1 26 0;
#X connect 25 2 20 0;
#X connect 26 0 16 1;
#X connect 27 0 28 0;
#X connect 28 0 29 0;
#X restore 702 215 pd activepage;
#X obj 467 520 f 0;
#X obj 505 518 f 0;
#X obj 646 488 f 0;
#X obj 708 474 f 0;
#X obj 483 436 t b b b b;
#X obj 454 603 list append;
#X obj 508 571 list append;
#X obj 650 510 list append;
#X obj 494 392 bng 15 250 50 0 empty empty empty 17 7 0 10 -262144
-1 -1;
#X obj 283 557 *~ 1;
#X obj 579 537 list append;
#X obj 570 466 r bar;
#X floatatom 570 487 5 0 0 0 - - -;
#X msg 457 659 \$1 -- \$2 -- \$3 -- \$4 -- \$5;
#X obj 458 687 spigot;
#X obj 542 691 r clock-off-\$1;
#X connect 7 0 5 0;
#X connect 8 0 4 0;
#X connect 13 0 7 0;
#X connect 13 1 27 0;
#X connect 13 2 18 1;
#X connect 14 0 7 0;
#X connect 14 1 27 0;
#X connect 14 2 19 1;
#X connect 15 0 7 0;
#X connect 15 1 27 0;
#X connect 15 2 20 1;
#X connect 16 0 7 0;
#X connect 16 1 27 0;
#X connect 16 2 21 1;
#X connect 17 0 22 0;
#X connect 18 0 23 0;
#X connect 19 0 24 0;
#X connect 20 0 25 0;
#X connect 21 0 25 1;
#X connect 22 0 18 0;
#X connect 22 1 19 0;
#X connect 22 2 20 0;
#X connect 22 3 21 0;
#X connect 23 0 31 0;
#X connect 24 0 23 1;
#X connect 25 0 28 1;
#X connect 26 0 22 0;
#X connect 27 0 6 0;
#X connect 28 0 24 1;
#X connect 29 0 30 0;
#X connect 30 0 28 0;
#X connect 30 0 26 0;
#X connect 31 0 32 0;
#X connect 32 0 12 0;
#X connect 33 0 32 1;
