#N canvas 259 83 1285 894 10;
#X obj 380 622 waveplayer~, f 13;
#X text 336 47 ARG 1: Page Number/Loop Number;
#X obj 380 752 hip~ 5;
#X obj 379 800 outlet~;
#X obj 379 665 *~, f 16;
#X obj 847 469 lop~ 100;
#X obj 847 426 pow 2;
#X obj 440 561 r \$0-2-wave;
#X obj 110 632 s \$0-2-wave;
#X obj 321 417 t b;
#X obj 321 438 f 0;
#X obj 383 598 spigot 0;
#X obj 169 464 t b b b b, f 17;
#X obj 227 502 f 1;
#X obj 321 459 t b f f;
#X obj 380 643 *~ 0.98;
#X obj 170 423 sel 1;
#X obj 864 365 r vol-\$1-\$2;
#X obj 285 302 r loop-\$1-start-\$2;
#X obj 291 375 r loop-\$1-stop-\$2;
#X obj 334 396 r global-stop-\$2;
#X obj 72 607 f \$1;
#X obj 177 601 f \$1;
#X obj 681 786 outlet;
#X msg 131 744 1;
#X msg 224 746 0;
#X obj 378 690 lop~ 22500;
#X obj 969 373 r filt-\$1-\$2;
#X obj 1048 376 r pan-\$1-\$2;
#X obj 1023 478 hsl 128 15 -1 1 0 0 empty empty empty -2 -8 0 10 -262144
-1 -1 0 1;
#X obj 970 597 nbx 5 14 -1e+37 1e+37 0 0 empty empty empty 0 -8 0 10
-262144 -1 -1 0 256;
#X obj 1039 600 nbx 5 14 -1e+37 1e+37 0 0 empty empty empty 0 -8 0
10 -262144 -1 -1 0 256;
#X obj 978 551 - 1;
#X obj 977 572 abs;
#X obj 1041 577 + 1;
#X obj 764 656 lop~ 20;
#X obj 1033 703 lop~ 20;
#X obj 957 656 / 2;
#X obj 1040 674 / 2;
#X obj 446 798 outlet~;
#X obj 929 514 / 100;
#X obj 380 776 *~;
#X obj 447 772 *~;
#X obj 857 568 pow 5;
#X obj 857 590 * 30000;
#X obj 120 77 bng 15 250 50 0 empty empty empty 17 7 0 10 -262144 -1
-1;
#X obj 34 138 t b a;
#X obj 0 160 del 1000;
#X obj 34 180 list;
#X obj 118 168 f \$0;
#X obj 48 55 r loadbang-\$1;
#X obj 29 226 list;
#X msg 110 600 open \$1;
#X obj 26 17 r samp-\$1-\$2;
#X obj 267 143 list;
#X floatatom 162 39 5 0 0 0 - - -;
#X obj 162 18 r samp-src-\$2;
#X msg 210 177 bang;
#X obj 210 198 del 900;
#X obj 210 219 symbol;
#X msg 210 240 \$1 ...;
#X obj 210 282 s aux-label-\$2;
#X msg 284 229 \$1 !;
#X symbolatom 326 191 50 0 0 0 - - -;
#X symbolatom 340 168 30 0 0 0 - - -;
#X obj 34 117 ../soundshare/soundshare_select \$2;
#X obj 110 568 symbol;
#X obj 12 323 r loadbang-\$2;
#X obj 13 374 t b b;
#X obj 13 395 s loop-\$1-stop-\$2;
#X obj 14 423 f 0;
#X obj 14 444 v \$0-sample?;
#X obj 53 342 bng 15 250 50 0 empty empty empty 17 7 0 10 -262144 -1
-1;
#X obj 171 397 v \$0-sample?;
#X obj 113 293 f 1;
#X obj 29 247 t a b;
#X symbolatom 158 541 55 0 0 0 - - -;
#X floatatom 14 465 5 0 0 0 - - -;
#X obj 448 230 r bar;
#X floatatom 448 251 5 0 0 0 - - -;
#X obj 448 292 spigot;
#X obj 448 313 change;
#X obj 448 334 == 4;
#X obj 448 355 spigot 0;
#X obj 448 376 t b b;
#X msg 448 397 0;
#X obj 448 418 s qo-\$1;
#X obj 515 396 s qss-\$1;
#X obj 500 253 r qs-\$1;
#X obj 535 312 tgl 15 0 empty empty empty 17 7 0 10 -262144 -1 -1 0
1;
#X obj 535 279 r qo-\$1;
#X obj 535 332 s qs-\$1;
#X obj 512 440 bng 15 250 50 0 empty empty empty 17 7 0 10 -262144
-1 -1;
#X obj 171 351 r qss-\$1;
#X obj 171 371 bng 15 250 50 0 empty empty empty 17 7 0 10 -262144
-1 -1;
#X obj 16 508 soundfiler;
#X msg 21 485 read \$1;
#X floatatom 16 529 5 0 0 0 - - -;
#X msg 16 569 \$1;
#X obj 16 590 delay;
#X obj 16 548 / 44.1;
#X floatatom 57 571 8 0 0 0 - - -;
#X obj 197 518 bng 15 250 50 0 empty empty empty 17 7 0 10 -262144
-1 -1;
#X obj 523 581 line~;
#X obj 379 723 *~;
#X msg 463 474 0 10;
#X msg 461 498 1 100;
#X obj 92 211 bng 15 250 50 0 empty empty empty 17 7 0 10 -262144 -1
-1;
#X obj 123 427 bng 15 250 50 0 empty empty empty 17 7 0 10 -262144
-1 -1;
#X connect 0 0 15 0;
#X connect 2 0 41 0;
#X connect 2 0 42 0;
#X connect 4 0 26 0;
#X connect 5 0 4 1;
#X connect 6 0 5 0;
#X connect 7 0 11 0;
#X connect 9 0 10 0;
#X connect 10 0 14 0;
#X connect 11 0 0 0;
#X connect 12 0 97 0;
#X connect 12 1 66 0;
#X connect 12 2 13 0;
#X connect 12 3 106 0;
#X connect 13 0 11 1;
#X connect 13 0 0 0;
#X connect 14 0 22 0;
#X connect 14 0 105 0;
#X connect 14 1 0 0;
#X connect 14 2 11 1;
#X connect 15 0 4 0;
#X connect 16 0 12 0;
#X connect 16 0 21 0;
#X connect 17 0 6 0;
#X connect 18 0 89 0;
#X connect 19 0 9 0;
#X connect 20 0 9 0;
#X connect 21 0 24 0;
#X connect 22 0 25 0;
#X connect 24 0 23 0;
#X connect 25 0 23 0;
#X connect 26 0 104 0;
#X connect 27 0 40 0;
#X connect 28 0 29 0;
#X connect 29 0 32 0;
#X connect 29 0 34 0;
#X connect 30 0 37 0;
#X connect 31 0 38 0;
#X connect 32 0 33 0;
#X connect 33 0 30 0;
#X connect 34 0 31 0;
#X connect 35 0 41 1;
#X connect 36 0 42 1;
#X connect 37 0 35 0;
#X connect 38 0 36 0;
#X connect 40 0 43 0;
#X connect 41 0 3 0;
#X connect 42 0 39 0;
#X connect 43 0 44 0;
#X connect 44 0 26 1;
#X connect 45 0 49 0;
#X connect 45 0 65 1;
#X connect 46 0 47 0;
#X connect 46 1 48 1;
#X connect 47 0 48 0;
#X connect 48 0 51 0;
#X connect 49 0 51 1;
#X connect 50 0 49 0;
#X connect 50 0 65 1;
#X connect 51 0 63 0;
#X connect 51 0 75 0;
#X connect 52 0 8 0;
#X connect 53 0 65 0;
#X connect 54 0 57 0;
#X connect 54 0 59 1;
#X connect 54 0 62 0;
#X connect 54 0 64 0;
#X connect 56 0 55 0;
#X connect 56 0 65 2;
#X connect 57 0 58 0;
#X connect 58 0 59 0;
#X connect 59 0 60 0;
#X connect 60 0 61 0;
#X connect 62 0 61 0;
#X connect 65 0 46 0;
#X connect 65 1 54 0;
#X connect 66 0 52 0;
#X connect 66 0 76 0;
#X connect 66 0 96 0;
#X connect 67 0 68 0;
#X connect 68 0 69 0;
#X connect 68 1 70 0;
#X connect 70 0 71 0;
#X connect 71 0 77 0;
#X connect 72 0 68 0;
#X connect 73 0 16 0;
#X connect 74 0 71 0;
#X connect 75 0 66 0;
#X connect 75 1 74 0;
#X connect 78 0 79 0;
#X connect 79 0 80 0;
#X connect 80 0 81 0;
#X connect 81 0 82 0;
#X connect 82 0 83 0;
#X connect 82 0 83 1;
#X connect 83 0 84 0;
#X connect 84 0 85 0;
#X connect 84 1 87 0;
#X connect 84 1 92 0;
#X connect 85 0 86 0;
#X connect 88 0 80 1;
#X connect 89 0 91 0;
#X connect 90 0 89 0;
#X connect 93 0 94 0;
#X connect 94 0 73 0;
#X connect 95 0 97 0;
#X connect 96 0 95 0;
#X connect 97 0 100 0;
#X connect 98 0 99 0;
#X connect 99 0 9 0;
#X connect 100 0 98 0;
#X connect 100 0 101 0;
#X connect 102 0 13 0;
#X connect 103 0 104 1;
#X connect 104 0 2 0;
#X connect 105 0 103 0;
#X connect 106 0 103 0;
#X connect 107 0 75 0;
#X connect 108 0 71 0;
