#N canvas 20 20 1560 1960 10;
#X obj 40 60 inlet~;
#X obj 110 60 inlet~;
#X obj 1340 1820 outlet~;
#X obj 1420 1820 outlet~;
#X obj 1340 1780 catch~ \$0-outL;
#X obj 1420 1780 catch~ \$0-outR;
#X obj 240 35 r punchfx;
#X obj 240 65 unpack 0 0 4000 2000 333 125 62 250;
#X obj 240 95 expr if($f2 > 0 \, $f1 \, 0);
#X obj 240 125 s \$0-mode;
#X obj 420 95 s \$0-lpfms;
#X obj 500 95 s \$0-hpfms;
#X obj 580 95 s \$0-slot3ms;
#X obj 680 95 s \$0-r16ms;
#X obj 770 95 s \$0-stutms;
#X obj 860 95 s \$0-eighthms;
#X obj 1010 35 loadbang;
#X msg 1010 65 0;
#X obj 1010 95 s \$0-mode;
#X msg 1070 65 4000;
#X obj 1070 95 s \$0-lpfms;
#X msg 1140 65 2000;
#X obj 1140 95 s \$0-hpfms;
#X msg 1210 65 333;
#X obj 1210 95 s \$0-slot3ms;
#X msg 1280 65 125;
#X obj 1280 95 s \$0-r16ms;
#X msg 1340 65 62;
#X obj 1340 95 s \$0-stutms;
#X msg 1400 65 250;
#X obj 1400 95 s \$0-eighthms;
#X obj 40 120 r \$0-dry;
#X obj 40 150 * 1;
#X obj 40 180 pack 0 15;
#X obj 40 210 line~;
#X obj 40 245 *~;
#X obj 110 245 *~;
#X obj 0 0 throw~ \$0-outL;
#X obj 0 0 throw~ \$0-outR;
#X obj 40 350 r \$0-fx1_disabled;
#X obj 40 380 == 1;
#X obj 40 410 pack 0 12;
#X obj 40 440 line~;
#X obj 180 350 r \$0-fx1_disabled;
#X obj 180 380 == 1;
#X obj 180 410 change;
#X obj 180 440 sel 1 0;
#X obj 300 470 f;
#X obj 350 440 r \$0-lpfms;
#X msg 300 500 0 \, 1 \$1;
#X msg 410 500 0;
#X obj 300 530 vline~;
#X obj 500 530 sig~ 1;
#X obj 500 560 -~;
#X obj 40 510 bp~ 620 5;
#X obj 40 540 *~ 2.4;
#X obj 40 570 clip~ -0.94 0.94;
#X obj 40 610 *~;
#X obj 120 610 *~;
#X obj 80 645 +~;
#X obj 80 680 *~;
#X obj 200 510 bp~ 760 5;
#X obj 200 540 *~ 2.4;
#X obj 200 570 clip~ -0.94 0.94;
#X obj 200 610 *~;
#X obj 280 610 *~;
#X obj 240 645 +~;
#X obj 240 680 *~;
#X obj 0 0 throw~ \$0-bounceOldL;
#X obj 0 0 throw~ \$0-bounceOldR;
#X obj 540 350 r \$0-fx2;
#X obj 540 380 == 1;
#X obj 540 410 change;
#X obj 540 440 sel 1 0;
#X obj 680 350 r \$0-hpfms;
#X obj 680 380 * 0.0625;
#X obj 680 410 delay 150;
#X msg 540 470 start;
#X msg 620 470 stop;
#X obj 540 510 table \$0-frzL 88200;
#X obj 700 510 table \$0-frzR 88200;
#X obj 540 550 tabwrite~ \$0-frzL;
#X obj 700 550 tabwrite~ \$0-frzR;
#X obj 860 350 r \$0-hpfms;
#X obj 860 380 * 0.0625;
#X obj 860 410 expr 1000 / $f1;
#X obj 860 440 phasor~ 8;
#X obj 1010 350 r \$0-hpfms;
#X obj 1010 380 * 2.75625;
#X obj 1010 410 sig~;
#X obj 860 470 *~;
#X obj 860 500 +~ 1;
#X obj 860 535 tabread4~ \$0-frzL;
#X obj 1010 535 tabread4~ \$0-frzR;
#X obj 860 565 lop~ 5600;
#X obj 1010 565 lop~ 5600;
#X obj 860 600 *~;
#X obj 1010 600 *~;
#X obj 860 635 throw~ \$0-outL;
#X obj 1010 635 throw~ \$0-outR;
#X msg 760 445 1 90;
#X msg 800 475 0 160;
#X obj 760 510 line~;
#X obj 40 780 r \$0-fx3;
#X obj 40 810 == 1;
#X obj 40 840 pack 0 20;
#X obj 40 870 line~;
#X obj 180 780 delwrite~ \$0-tapeL 140;
#X obj 320 780 delwrite~ \$0-tapeR 140;
#X obj 180 820 osc~ 0.37;
#X obj 180 850 *~ 7.0;
#X obj 270 820 osc~ 5.3;
#X obj 270 850 *~ 1.3;
#X obj 220 880 +~;
#X obj 220 910 +~ 18;
#X obj 180 945 vd~ \$0-tapeL;
#X obj 320 945 vd~ \$0-tapeR;
#X obj 180 975 lop~ 6200;
#X obj 180 1005 hip~ 50;
#X obj 320 975 lop~ 6200;
#X obj 320 1005 hip~ 50;
#X obj 180 1035 *~ 0.96;
#X obj 320 1035 *~ 0.96;
#X obj 180 1070 *~;
#X obj 320 1070 *~;
#X obj 0 0 throw~ \$0-outL;
#X obj 0 0 throw~ \$0-outR;
#X obj 520 780 r \$0-fx4;
#X obj 520 810 == 1;
#X obj 520 840 pack 0 10;
#X obj 520 870 line~;
#X obj 520 850 table \$0-r16L 88200;
#X obj 680 850 table \$0-r16R 88200;
#X obj 520 890 tabwrite~ \$0-r16L;
#X obj 680 890 tabwrite~ \$0-r16R;
#X obj 820 780 r \$0-fx4;
#X obj 820 810 sel 1;
#X obj 820 840 t b b;
#X msg 800 870 start;
#X obj 880 870 delay;
#X obj 950 840 r \$0-r16ms;
#X msg 880 900 stop;
#X obj 1020 780 r \$0-r16ms;
#X obj 1020 810 expr 1000 / $f1;
#X obj 1020 840 phasor~ 8;
#X obj 1150 780 r \$0-r16ms;
#X obj 1150 810 * 44.1;
#X obj 1150 840 sig~;
#X obj 1020 875 *~;
#X obj 1020 905 +~ 1;
#X obj 1020 940 tabread4~ \$0-r16L;
#X obj 1160 940 tabread4~ \$0-r16R;
#X obj 1020 970 *~ 1.16;
#X obj 1160 970 *~ 1.16;
#X obj 1020 1000 clip~ -0.95 0.95;
#X obj 1160 1000 clip~ -0.95 0.95;
#X obj 1020 1030 lop~ 6800;
#X obj 1160 1030 lop~ 6800;
#X obj 1020 1065 *~;
#X obj 1160 1065 *~;
#X obj 0 0 throw~ \$0-outL;
#X obj 0 0 throw~ \$0-outR;
#X obj 40 1160 r \$0-fx5;
#X obj 40 1190 == 1;
#X obj 40 1220 pack 0 15;
#X obj 40 1250 line~;
#X obj 180 1160 *~ 5.2;
#X obj 180 1190 clip~ -0.48 0.48;
#X obj 180 1220 hip~ 90;
#X obj 180 1250 lop~ 5200;
#X obj 180 1280 *~ 0.35;
#X obj 310 1160 *~ 5.2;
#X obj 310 1190 clip~ -0.48 0.48;
#X obj 310 1220 hip~ 90;
#X obj 310 1250 lop~ 5200;
#X obj 310 1280 *~ 0.35;
#X obj 180 1320 *~;
#X obj 310 1320 *~;
#X obj 0 0 throw~ \$0-outL;
#X obj 0 0 throw~ \$0-outR;
#X obj 500 1160 r \$0-fx6;
#X obj 500 1190 == 1;
#X obj 500 1220 pack 0 10;
#X obj 500 1250 line~;
#X obj 640 1160 r \$0-stutms;
#X obj 640 1190 expr 1000 / $f1;
#X obj 640 1220 phasor~ 16;
#X obj 640 1250 expr~ if($v1 < 0.56 \, 1 \, 0);
#X obj 640 1280 lop~ 260;
#X obj 500 1230 *~ 1.00;
#X obj 500 1260 lop~ 12000;
#X obj 580 1260 *~ 0;
#X obj 540 1295 +~;
#X obj 540 1330 *~;
#X obj 540 1360 *~ 1.08;
#X obj 540 1395 *~;
#X obj 750 1230 *~ 1.00;
#X obj 750 1260 lop~ 12000;
#X obj 830 1260 *~ 0;
#X obj 790 1295 +~;
#X obj 790 1330 *~;
#X obj 790 1360 *~ 1.08;
#X obj 790 1395 *~;
#X obj 0 0 throw~ \$0-outL;
#X obj 0 0 throw~ \$0-outR;
#X obj 40 1470 r \$0-fx7;
#X obj 40 1500 == 1;
#X obj 40 1530 pack 0 15;
#X obj 40 1560 line~;
#X obj 180 1470 delwrite~ \$0-warpL 1000;
#X obj 320 1470 delwrite~ \$0-warpR 1000;
#X obj 180 1510 osc~ 3.1;
#X obj 180 1540 *~ 15;
#X obj 180 1570 +~ 24;
#X obj 180 1600 vd~ \$0-warpL;
#X obj 320 1600 vd~ \$0-warpR;
#X obj 80 1600 *~ 0.43;
#X obj 440 1600 *~ 0.43;
#X obj 180 1630 *~ 0.47;
#X obj 320 1630 *~ 0.47;
#X obj 130 1665 +~;
#X obj 370 1665 +~;
#X obj 130 1700 *~;
#X obj 370 1700 *~;
#X obj 0 0 throw~ \$0-outL;
#X obj 0 0 throw~ \$0-outR;
#X obj 620 1470 r \$0-fx8;
#X obj 620 1500 == 1;
#X obj 620 1530 pack 0 15;
#X obj 620 1560 line~;
#X obj 760 1470 delwrite~ \$0-revL 900;
#X obj 900 1470 delwrite~ \$0-revR 900;
#X obj 760 1510 phasor~ 2.86;
#X obj 870 1510 +~ 0.5;
#X obj 870 1540 wrap~;
#X obj 760 1540 *~ 700;
#X obj 760 1570 +~ 30;
#X obj 870 1570 *~ 700;
#X obj 870 1600 +~ 30;
#X obj 1010 1540 expr~ if($v1 < 0.5 \, $v1 * 2 \, (1 - $v1) * 2);
#X obj 1140 1540 expr~ if($v1 < 0.5 \, $v1 * 2 \, (1 - $v1) * 2);
#X obj 760 1630 vd~ \$0-revL;
#X obj 900 1630 vd~ \$0-revR;
#X obj 1040 1630 vd~ \$0-revL;
#X obj 1180 1630 vd~ \$0-revR;
#X obj 760 1665 *~;
#X obj 900 1665 *~;
#X obj 1040 1665 *~;
#X obj 1180 1665 *~;
#X obj 820 1700 +~;
#X obj 1040 1700 +~;
#X obj 820 1730 *~ 0.88;
#X obj 1040 1730 *~ 0.88;
#X obj 820 1765 *~;
#X obj 1040 1765 *~;
#X obj 0 0 throw~ \$0-outL;
#X obj 0 0 throw~ \$0-outR;
#X obj 40 1860 r \$0-fx9;
#X obj 40 1890 == 1;
#X obj 40 1920 pack 0 25;
#X obj 40 1950 line~;
#X obj 180 1860 r \$0-fx9;
#X obj 180 1890 == 1;
#X obj 180 1920 change;
#X obj 180 1950 sel 1 0;
#X msg 300 1980 0.80 \, 1 12000;
#X msg 400 1980 0;
#X obj 300 2010 vline~;
#X obj 520 1860 delread~ \$0-uniR 97;
#X obj 520 1890 lop~ 6200;
#X obj 520 1920 *~ 0.88;
#X obj 660 1860 delread~ \$0-uniL 131;
#X obj 660 1890 lop~ 6200;
#X obj 660 1920 *~ 0.88;
#X obj 420 1920 *~ 0.18;
#X obj 800 1920 *~ 0.18;
#X obj 460 1960 +~;
#X obj 760 1960 +~;
#X obj 460 1990 clip~ -1 1;
#X obj 760 1990 clip~ -1 1;
#X obj 460 2020 delwrite~ \$0-uniL 3500;
#X obj 760 2020 delwrite~ \$0-uniR 3500;
#X obj 420 2060 delread~ \$0-uniL 53;
#X obj 420 2090 delread~ \$0-uniL 113;
#X obj 420 2120 delread~ \$0-uniL 191;
#X obj 420 2150 delread~ \$0-uniL 307;
#X obj 560 2090 +~;
#X obj 560 2150 +~;
#X obj 620 2120 +~;
#X obj 760 2060 delread~ \$0-uniR 67;
#X obj 760 2090 delread~ \$0-uniR 149;
#X obj 760 2120 delread~ \$0-uniR 229;
#X obj 760 2150 delread~ \$0-uniR 359;
#X obj 900 2090 +~;
#X obj 900 2150 +~;
#X obj 960 2120 +~;
#X obj 620 2160 hip~ 90;
#X obj 620 2190 lop~ 7200;
#X obj 960 2160 hip~ 90;
#X obj 960 2190 lop~ 7200;
#X obj 480 2220 *~ 0.09;
#X obj 820 2220 *~ 0.09;
#X obj 620 2220 *~;
#X obj 960 2220 *~;
#X obj 620 2250 *~ 1.18;
#X obj 960 2250 *~ 1.18;
#X obj 540 2280 +~;
#X obj 880 2280 +~;
#X obj 540 2315 *~;
#X obj 880 2315 *~;
#X obj 0 0 throw~ \$0-outL;
#X obj 0 0 throw~ \$0-outR;
#X obj 1060 1860 r \$0-fx10;
#X obj 1060 1890 == 1;
#X obj 1060 1920 pack 0 15;
#X obj 1060 1950 line~;
#X obj 1200 1860 r \$0-eighthms;
#X obj 1200 1890 sig~;
#X obj 1200 1930 vd~ \$0-ppL;
#X obj 1340 1930 vd~ \$0-ppR;
#X obj 1200 1960 *~ 0.56;
#X obj 1340 1960 *~ 0.56;
#X obj 1200 1990 *~;
#X obj 1340 1990 *~;
#X obj 1120 2020 +~;
#X obj 1340 2020 +~;
#X obj 1120 2050 delwrite~ \$0-ppL 2000;
#X obj 1340 2050 delwrite~ \$0-ppR 2000;
#X obj 1080 2100 *~ 0.38;
#X obj 1360 2100 *~ 0.38;
#X obj 1200 2100 *~ 0.78;
#X obj 1280 2100 *~ 0.78;
#X obj 1140 2140 +~;
#X obj 1320 2140 +~;
#X obj 1140 2175 *~;
#X obj 1320 2175 *~;
#X obj 0 0 throw~ \$0-outL;
#X obj 0 0 throw~ \$0-outR;
#X obj 1250 1040 expr~ (if($v1 < 0.12 \, $v1 / 0.12 \, if($v1 > 0.88 \, (1 - $v1) / 0.12 \, 1))) * (0.56 + 0.48 * $v1);
#X obj 1250 1070 *~ 1;
#X obj 1250 1100 *~;
#X obj 240 165 route 1 2 3 4 5 6 7 8 9 10 0;
#X obj 260 205 unpack 0;
#X obj 260 235 s \$0-fx1;
#X obj 320 205 unpack 0;
#X obj 320 235 s \$0-fx2;
#X obj 380 205 unpack 0;
#X obj 380 235 s \$0-fx3;
#X obj 440 205 unpack 0;
#X obj 440 235 s \$0-fx4;
#X obj 500 205 unpack 0;
#X obj 500 235 s \$0-fx5;
#X obj 560 205 unpack 0;
#X obj 560 235 s \$0-fx6;
#X obj 620 205 unpack 0;
#X obj 620 235 s \$0-fx7;
#X obj 680 205 unpack 0;
#X obj 680 235 s \$0-fx8;
#X obj 740 205 unpack 0;
#X obj 740 235 s \$0-fx9;
#X obj 800 205 unpack 0;
#X obj 800 235 s \$0-fx10;
#X obj 880 265 unpack 0;
#X obj 880 295 s \$0-dry;
#X obj 80 710 *~ 1.24;
#X obj 80 740 +~;
#X obj 80 770 lop~ 12000;
#X obj 80 800 clip~ -0.98 0.98;
#X obj 240 710 *~ 1.24;
#X obj 240 740 +~;
#X obj 240 770 lop~ 12000;
#X obj 240 800 clip~ -0.98 0.98;
#X obj 420 620 delwrite~ \$0-lpfchorL 90;
#X obj 560 620 delwrite~ \$0-lpfchorR 90;
#X obj 420 665 osc~ 0.42;
#X obj 420 695 *~ 5.5;
#X obj 420 725 +~ 9;
#X obj 420 755 vd~ \$0-lpfchorL;
#X obj 420 785 *~ 0.26;
#X obj 560 665 osc~ 0.57;
#X obj 560 695 *~ 4.5;
#X obj 560 725 +~ 11;
#X obj 560 755 vd~ \$0-lpfchorR;
#X obj 560 785 *~ 0.26;
#X obj 950 870 * 0.55;
#X obj 1120 350 r \$0-fx1_disabled;
#X obj 1120 380 == 1;
#X obj 1120 410 pack 0 12;
#X obj 1120 440 line~;
#X obj 1260 350 r \$0-lpfms;
#X obj 1260 380 expr 1000 / $f1;
#X obj 1260 410 phasor~ 0.5;
#X obj 1260 440 expr~ if($v1 < 0.5 \, $v1 * 2 \, 2 - ($v1 * 2));
#X obj 1420 440 sig~ 1;
#X obj 1420 470 -~;
#X obj 1260 500 expr~ if($v1 < 0.0625 \, 0 \, if($v1 < 0.125 \, 1 \, if($v1 < 0.1875 \, 0 \, if($v1 < 0.25 \, 0 \, if($v1 < 0.3125 \, 1 \, if($v1 < 0.375 \, 0 \, if($v1 < 0.4375 \, 1 \, if($v1 < 0.5 \, 1 \, if($v1 < 0.5625 \, 1 \, if($v1 < 0.625 \, 0 \, if($v1 < 0.6875 \, 1 \, if($v1 < 0.75 \, 1 \, if($v1 < 0.8125 \, 0 \, if($v1 < 0.875 \, 1 \, if($v1 < 0.9375 \, 0 \, 0)))))))))))))));
#X obj 1420 500 sig~ 1;
#X obj 1420 530 -~;
#X obj 1260 560 *~ 0.55;
#X obj 1340 560 *~ 0.45;
#X obj 1300 595 +~;
#X obj 1420 560 *~ 0.55;
#X obj 1500 560 *~ 0.45;
#X obj 1460 595 +~;
#X obj 1120 510 +~;
#X obj 1120 540 *~ 0.5;
#X obj 1120 570 lop~ 260;
#X obj 1120 600 hip~ 260;
#X obj 1050 635 *~ 0.76;
#X obj 1200 635 *~ 0.76;
#X obj 1260 635 *~;
#X obj 1420 635 *~;
#X obj 1260 670 *~ 1.32;
#X obj 1420 670 *~ 1.32;
#X obj 1120 705 +~;
#X obj 1320 705 +~;
#X obj 1120 740 clip~ -0.98 0.98;
#X obj 1320 740 clip~ -0.98 0.98;
#X obj 1120 775 *~;
#X obj 1320 775 *~;
#X obj 1120 810 throw~ \$0-outL;
#X obj 1320 810 throw~ \$0-outR;
#X obj 1480 670 sig~ 0;
#X obj 1480 700 sig~ 0;
#X obj 1480 730 sig~ 0;
#X obj 1120 470 expr~ if($v1 < 0.08 \, $v1 / 0.08 \, if($v1 > 0.92 \, (1 - $v1) / 0.08 \, 1));
#X obj 860 585 *~;
#X obj 1010 585 *~;
#X obj 40 2200 r \$0-fx1_disabled;
#X obj 40 2230 == 1;
#X obj 40 2260 pack 0 30;
#X obj 40 2290 line~;
#X obj 180 2200 r \$0-lpfms;
#X obj 180 2230 expr 1000 / $f1;
#X obj 180 2260 phasor~ 1;
#X obj 180 2290 expr~ if($v1 < 0.25 \, 1 \, if($v1 < 0.5 \, 0.15 \, 0.75));
#X obj 180 2320 lop~ 18;
#X obj 420 2290 expr~ if($v1 < 0.25 \, 0.15 \, if($v1 < 0.5 \, 1 \, 0.75));
#X obj 420 2320 lop~ 18;
#X obj 40 2350 +~;
#X obj 40 2380 *~ 0.5;
#X obj 40 2410 lop~ 240;
#X obj 180 2410 hip~ 240;
#X obj 40 2440 *~ 0.75;
#X obj 120 2440 *~ 0.75;
#X obj 180 2440 *~ 0.34;
#X obj 260 2440 *~ 0.34;
#X obj 340 2440 *~;
#X obj 480 2440 *~;
#X obj 340 2470 *~ 0.86;
#X obj 480 2470 *~ 0.86;
#X obj 40 2500 +~;
#X obj 180 2500 +~;
#X obj 40 2530 +~;
#X obj 180 2530 +~;
#X obj 40 2560 clip~ -0.98 0.98;
#X obj 180 2560 clip~ -0.98 0.98;
#X obj 40 2590 *~;
#X obj 180 2590 *~;
#X obj 40 2620 throw~ \$0-outL;
#X obj 180 2620 throw~ \$0-outR;
#X obj 760 2200 r \$0-fx2;
#X obj 760 2230 == 1;
#X obj 760 2260 pack 0 90;
#X obj 760 2290 line~;
#X obj 900 2200 r \$0-fx2;
#X obj 900 2230 == 1;
#X obj 900 2260 change;
#X obj 900 2290 sel 1 0;
#X msg 900 2320 1 15 \, 0 650 150;
#X msg 1020 2320 0 120;
#X obj 900 2350 vline~;
#X obj 760 2350 +~;
#X obj 760 2380 *~ 0.5;
#X obj 760 2410 lop~ 4200;
#X obj 760 2440 hip~ 70;
#X obj 760 2470 *~;
#X obj 760 2500 *~ 0.78;
#X obj 1030 2350 delread~ \$0-freezeA 137;
#X obj 1180 2350 delread~ \$0-freezeB 193;
#X obj 1030 2380 lop~ 3600;
#X obj 1180 2380 lop~ 3200;
#X obj 1030 2410 *~ 0.91;
#X obj 1180 2410 *~ 0.92;
#X obj 1030 2440 *~;
#X obj 1180 2440 *~;
#X obj 760 2530 +~;
#X obj 900 2530 +~;
#X obj 760 2560 delwrite~ \$0-freezeA 1200;
#X obj 900 2560 delwrite~ \$0-freezeB 1200;
#X obj 1030 2470 *~ 0.78;
#X obj 1180 2470 *~ 0.42;
#X obj 1030 2500 +~;
#X obj 1180 2500 *~ 0.78;
#X obj 1030 2530 *~ 0.42;
#X obj 1180 2530 +~;
#X obj 1030 2560 lop~ 4200;
#X obj 1180 2560 lop~ 4200;
#X obj 1030 2590 *~ 1.16;
#X obj 1180 2590 *~ 1.16;
#X obj 1030 2620 clip~ -0.96 0.96;
#X obj 1180 2620 clip~ -0.96 0.96;
#X obj 1030 2650 *~;
#X obj 1180 2650 *~;
#X obj 1030 2680 throw~ \$0-outL;
#X obj 1180 2680 throw~ \$0-outR;
#X connect 4 0 2 0;
#X connect 5 0 3 0;
#X connect 6 0 7 0;
#X connect 7 0 8 0;
#X connect 7 1 8 1;
#X connect 8 0 9 0;
#X connect 7 2 10 0;
#X connect 7 3 11 0;
#X connect 7 4 12 0;
#X connect 7 5 13 0;
#X connect 7 6 14 0;
#X connect 7 7 15 0;
#X connect 16 0 17 0;
#X connect 17 0 18 0;
#X connect 16 0 19 0;
#X connect 19 0 20 0;
#X connect 16 0 21 0;
#X connect 21 0 22 0;
#X connect 16 0 23 0;
#X connect 23 0 24 0;
#X connect 16 0 25 0;
#X connect 25 0 26 0;
#X connect 16 0 27 0;
#X connect 27 0 28 0;
#X connect 16 0 29 0;
#X connect 29 0 30 0;
#X connect 31 0 32 0;
#X connect 32 0 33 0;
#X connect 33 0 34 0;
#X connect 0 0 35 0;
#X connect 34 0 35 1;
#X connect 1 0 36 0;
#X connect 34 0 36 1;
#X connect 35 0 37 0;
#X connect 36 0 38 0;
#X connect 39 0 40 0;
#X connect 40 0 41 0;
#X connect 41 0 42 0;
#X connect 43 0 44 0;
#X connect 44 0 45 0;
#X connect 45 0 46 0;
#X connect 46 0 47 0;
#X connect 48 0 47 1;
#X connect 47 0 49 0;
#X connect 49 0 51 0;
#X connect 46 1 50 0;
#X connect 50 0 51 0;
#X connect 52 0 53 0;
#X connect 51 0 53 1;
#X connect 0 0 54 0;
#X connect 54 0 55 0;
#X connect 55 0 56 0;
#X connect 56 0 57 0;
#X connect 53 0 57 1;
#X connect 0 0 58 0;
#X connect 51 0 58 1;
#X connect 57 0 59 0;
#X connect 58 0 59 1;
#X connect 59 0 60 0;
#X connect 42 0 60 1;
#X connect 1 0 61 0;
#X connect 61 0 62 0;
#X connect 62 0 63 0;
#X connect 63 0 64 0;
#X connect 53 0 64 1;
#X connect 1 0 65 0;
#X connect 51 0 65 1;
#X connect 64 0 66 0;
#X connect 65 0 66 1;
#X connect 66 0 67 0;
#X connect 42 0 67 1;
#X connect 103 0 104 0;
#X connect 104 0 105 0;
#X connect 105 0 106 0;
#X connect 0 0 107 0;
#X connect 1 0 108 0;
#X connect 110 0 113 0;
#X connect 112 0 113 1;
#X connect 109 0 110 0;
#X connect 111 0 112 0;
#X connect 113 0 114 0;
#X connect 114 0 115 0;
#X connect 114 0 116 0;
#X connect 115 0 117 0;
#X connect 117 0 118 0;
#X connect 116 0 119 0;
#X connect 119 0 120 0;
#X connect 118 0 121 0;
#X connect 120 0 122 0;
#X connect 121 0 123 0;
#X connect 106 0 123 1;
#X connect 122 0 124 0;
#X connect 106 0 124 1;
#X connect 123 0 125 0;
#X connect 124 0 126 0;
#X connect 127 0 128 0;
#X connect 128 0 129 0;
#X connect 129 0 130 0;
#X connect 0 0 133 0;
#X connect 1 0 134 0;
#X connect 135 0 136 0;
#X connect 136 0 137 0;
#X connect 137 0 138 0;
#X connect 138 0 133 0;
#X connect 138 0 134 0;
#X connect 137 1 139 0;
#X connect 139 0 141 0;
#X connect 141 0 133 0;
#X connect 141 0 134 0;
#X connect 142 0 143 0;
#X connect 143 0 144 0;
#X connect 145 0 146 0;
#X connect 146 0 147 0;
#X connect 144 0 148 0;
#X connect 147 0 148 1;
#X connect 148 0 149 0;
#X connect 149 0 150 0;
#X connect 149 0 151 0;
#X connect 150 0 152 0;
#X connect 151 0 153 0;
#X connect 152 0 154 0;
#X connect 153 0 155 0;
#X connect 154 0 156 0;
#X connect 155 0 157 0;
#X connect 156 0 158 0;
#X connect 157 0 159 0;
#X connect 158 0 160 0;
#X connect 159 0 161 0;
#X connect 162 0 163 0;
#X connect 163 0 164 0;
#X connect 164 0 165 0;
#X connect 0 0 166 0;
#X connect 166 0 167 0;
#X connect 167 0 168 0;
#X connect 168 0 169 0;
#X connect 169 0 170 0;
#X connect 1 0 171 0;
#X connect 171 0 172 0;
#X connect 172 0 173 0;
#X connect 173 0 174 0;
#X connect 174 0 175 0;
#X connect 170 0 176 0;
#X connect 165 0 176 1;
#X connect 175 0 177 0;
#X connect 165 0 177 1;
#X connect 176 0 178 0;
#X connect 177 0 179 0;
#X connect 180 0 181 0;
#X connect 181 0 182 0;
#X connect 182 0 183 0;
#X connect 184 0 185 0;
#X connect 185 0 186 0;
#X connect 186 0 187 0;
#X connect 187 0 188 0;
#X connect 190 0 192 0;
#X connect 191 0 192 1;
#X connect 192 0 193 0;
#X connect 188 0 193 1;
#X connect 194 0 195 0;
#X connect 183 0 195 1;
#X connect 0 0 189 0;
#X connect 189 0 190 0;
#X connect 0 0 191 0;
#X connect 193 0 194 0;
#X connect 197 0 199 0;
#X connect 198 0 199 1;
#X connect 199 0 200 0;
#X connect 188 0 200 1;
#X connect 201 0 202 0;
#X connect 183 0 202 1;
#X connect 1 0 196 0;
#X connect 196 0 197 0;
#X connect 1 0 198 0;
#X connect 200 0 201 0;
#X connect 195 0 203 0;
#X connect 202 0 204 0;
#X connect 205 0 206 0;
#X connect 206 0 207 0;
#X connect 207 0 208 0;
#X connect 0 0 209 0;
#X connect 1 0 210 0;
#X connect 211 0 212 0;
#X connect 212 0 213 0;
#X connect 213 0 214 0;
#X connect 213 0 215 0;
#X connect 0 0 216 0;
#X connect 1 0 217 0;
#X connect 214 0 218 0;
#X connect 215 0 219 0;
#X connect 216 0 220 0;
#X connect 218 0 220 1;
#X connect 217 0 221 0;
#X connect 219 0 221 1;
#X connect 220 0 222 0;
#X connect 208 0 222 1;
#X connect 221 0 223 0;
#X connect 208 0 223 1;
#X connect 222 0 224 0;
#X connect 223 0 225 0;
#X connect 226 0 227 0;
#X connect 227 0 228 0;
#X connect 228 0 229 0;
#X connect 0 0 230 0;
#X connect 1 0 231 0;
#X connect 232 0 233 0;
#X connect 233 0 234 0;
#X connect 232 0 235 0;
#X connect 235 0 236 0;
#X connect 234 0 237 0;
#X connect 237 0 238 0;
#X connect 232 0 239 0;
#X connect 234 0 240 0;
#X connect 236 0 241 0;
#X connect 236 0 242 0;
#X connect 238 0 243 0;
#X connect 238 0 244 0;
#X connect 241 0 245 0;
#X connect 239 0 245 1;
#X connect 242 0 246 0;
#X connect 239 0 246 1;
#X connect 243 0 247 0;
#X connect 240 0 247 1;
#X connect 244 0 248 0;
#X connect 240 0 248 1;
#X connect 245 0 249 0;
#X connect 247 0 249 1;
#X connect 246 0 250 0;
#X connect 248 0 250 1;
#X connect 249 0 251 0;
#X connect 250 0 252 0;
#X connect 251 0 253 0;
#X connect 229 0 253 1;
#X connect 252 0 254 0;
#X connect 229 0 254 1;
#X connect 253 0 255 0;
#X connect 254 0 256 0;
#X connect 257 0 258 0;
#X connect 258 0 259 0;
#X connect 259 0 260 0;
#X connect 261 0 262 0;
#X connect 262 0 263 0;
#X connect 263 0 264 0;
#X connect 264 0 265 0;
#X connect 265 0 267 0;
#X connect 264 1 266 0;
#X connect 266 0 267 0;
#X connect 268 0 269 0;
#X connect 269 0 270 0;
#X connect 271 0 272 0;
#X connect 272 0 273 0;
#X connect 0 0 274 0;
#X connect 1 0 275 0;
#X connect 274 0 276 0;
#X connect 270 0 276 1;
#X connect 275 0 277 0;
#X connect 273 0 277 1;
#X connect 276 0 278 0;
#X connect 277 0 279 0;
#X connect 278 0 280 0;
#X connect 279 0 281 0;
#X connect 282 0 286 0;
#X connect 283 0 286 1;
#X connect 284 0 287 0;
#X connect 285 0 287 1;
#X connect 286 0 288 0;
#X connect 287 0 288 1;
#X connect 289 0 293 0;
#X connect 290 0 293 1;
#X connect 291 0 294 0;
#X connect 292 0 294 1;
#X connect 293 0 295 0;
#X connect 294 0 295 1;
#X connect 288 0 296 0;
#X connect 296 0 297 0;
#X connect 295 0 298 0;
#X connect 298 0 299 0;
#X connect 0 0 300 0;
#X connect 1 0 301 0;
#X connect 297 0 302 0;
#X connect 267 0 302 1;
#X connect 299 0 303 0;
#X connect 267 0 303 1;
#X connect 302 0 304 0;
#X connect 303 0 305 0;
#X connect 300 0 306 0;
#X connect 304 0 306 1;
#X connect 301 0 307 0;
#X connect 305 0 307 1;
#X connect 306 0 308 0;
#X connect 260 0 308 1;
#X connect 307 0 309 0;
#X connect 260 0 309 1;
#X connect 308 0 310 0;
#X connect 309 0 311 0;
#X connect 312 0 313 0;
#X connect 313 0 314 0;
#X connect 314 0 315 0;
#X connect 316 0 317 0;
#X connect 317 0 318 0;
#X connect 317 0 319 0;
#X connect 318 0 320 0;
#X connect 319 0 321 0;
#X connect 320 0 322 0;
#X connect 315 0 322 1;
#X connect 321 0 323 0;
#X connect 315 0 323 1;
#X connect 0 0 324 0;
#X connect 323 0 324 1;
#X connect 1 0 325 0;
#X connect 322 0 325 1;
#X connect 324 0 326 0;
#X connect 325 0 327 0;
#X connect 0 0 328 0;
#X connect 1 0 329 0;
#X connect 319 0 330 0;
#X connect 318 0 331 0;
#X connect 328 0 332 0;
#X connect 330 0 332 1;
#X connect 329 0 333 0;
#X connect 331 0 333 1;
#X connect 332 0 334 0;
#X connect 315 0 334 1;
#X connect 333 0 335 0;
#X connect 315 0 335 1;
#X connect 334 0 336 0;
#X connect 335 0 337 0;
#X connect 144 0 338 0;
#X connect 338 0 339 0;
#X connect 130 0 340 0;
#X connect 339 0 340 1;
#X connect 340 0 158 1;
#X connect 340 0 159 1;
#X connect 6 0 341 0;
#X connect 341 0 342 0;
#X connect 342 0 343 0;
#X connect 341 1 344 0;
#X connect 344 0 345 0;
#X connect 341 2 346 0;
#X connect 346 0 347 0;
#X connect 341 3 348 0;
#X connect 348 0 349 0;
#X connect 341 4 350 0;
#X connect 350 0 351 0;
#X connect 341 5 352 0;
#X connect 352 0 353 0;
#X connect 341 6 354 0;
#X connect 354 0 355 0;
#X connect 341 7 356 0;
#X connect 356 0 357 0;
#X connect 341 8 358 0;
#X connect 358 0 359 0;
#X connect 341 9 360 0;
#X connect 360 0 361 0;
#X connect 341 10 362 0;
#X connect 362 0 363 0;
#X connect 60 0 364 0;
#X connect 364 0 365 0;
#X connect 378 0 365 1;
#X connect 365 0 366 0;
#X connect 366 0 367 0;
#X connect 367 0 68 0;
#X connect 67 0 368 0;
#X connect 368 0 369 0;
#X connect 383 0 369 1;
#X connect 369 0 370 0;
#X connect 370 0 371 0;
#X connect 371 0 69 0;
#X connect 60 0 372 0;
#X connect 67 0 373 0;
#X connect 374 0 375 0;
#X connect 375 0 376 0;
#X connect 376 0 377 0;
#X connect 377 0 378 0;
#X connect 379 0 380 0;
#X connect 380 0 381 0;
#X connect 381 0 382 0;
#X connect 382 0 383 0;
#X connect 140 0 139 1;
#X connect 70 0 71 0;
#X connect 71 0 72 0;
#X connect 72 0 73 0;
#X connect 74 0 75 0;
#X connect 75 0 76 1;
#X connect 73 0 77 0;
#X connect 73 0 76 0;
#X connect 76 0 78 0;
#X connect 76 0 100 0;
#X connect 73 1 101 0;
#X connect 77 0 81 0;
#X connect 77 0 82 0;
#X connect 78 0 81 0;
#X connect 78 0 82 0;
#X connect 0 0 81 0;
#X connect 1 0 82 0;
#X connect 83 0 84 0;
#X connect 84 0 85 0;
#X connect 85 0 86 0;
#X connect 87 0 88 0;
#X connect 88 0 89 0;
#X connect 89 0 90 1;
#X connect 86 0 90 0;
#X connect 90 0 91 0;
#X connect 91 0 92 0;
#X connect 91 0 93 0;
#X connect 92 0 94 0;
#X connect 93 0 95 0;
#X connect 100 0 102 0;
#X connect 101 0 102 0;
#X connect 102 0 96 1;
#X connect 102 0 97 1;
#X connect 385 0 386 0;
#X connect 386 0 387 0;
#X connect 387 0 388 0;
#X connect 389 0 390 0;
#X connect 390 0 391 0;
#X connect 391 0 392 0;
#X connect 392 0 394 1;
#X connect 393 0 394 0;
#X connect 391 0 395 0;
#X connect 395 0 397 1;
#X connect 396 0 397 0;
#X connect 392 0 398 0;
#X connect 395 0 399 0;
#X connect 398 0 400 0;
#X connect 399 0 400 1;
#X connect 394 0 401 0;
#X connect 397 0 402 0;
#X connect 401 0 403 0;
#X connect 402 0 403 1;
#X connect 0 0 404 0;
#X connect 1 0 404 1;
#X connect 404 0 405 0;
#X connect 405 0 406 0;
#X connect 405 0 407 0;
#X connect 406 0 408 0;
#X connect 406 0 409 0;
#X connect 407 0 410 0;
#X connect 400 0 410 1;
#X connect 407 0 411 0;
#X connect 403 0 411 1;
#X connect 410 0 412 0;
#X connect 411 0 413 0;
#X connect 408 0 414 0;
#X connect 412 0 414 1;
#X connect 409 0 415 0;
#X connect 413 0 415 1;
#X connect 414 0 416 0;
#X connect 415 0 417 0;
#X connect 416 0 418 0;
#X connect 388 0 418 1;
#X connect 417 0 419 0;
#X connect 388 0 419 1;
#X connect 86 0 425 0;
#X connect 94 0 426 0;
#X connect 425 0 426 1;
#X connect 426 0 96 0;
#X connect 95 0 427 0;
#X connect 425 0 427 1;
#X connect 427 0 97 0;
#X connect 428 0 429 0;
#X connect 429 0 430 0;
#X connect 430 0 431 0;
#X connect 432 0 433 0;
#X connect 433 0 434 0;
#X connect 434 0 435 0;
#X connect 435 0 436 0;
#X connect 434 0 437 0;
#X connect 437 0 438 0;
#X connect 0 0 439 0;
#X connect 1 0 439 1;
#X connect 439 0 440 0;
#X connect 440 0 441 0;
#X connect 440 0 442 0;
#X connect 441 0 443 0;
#X connect 441 0 444 0;
#X connect 442 0 445 0;
#X connect 442 0 446 0;
#X connect 442 0 447 0;
#X connect 436 0 447 1;
#X connect 442 0 448 0;
#X connect 438 0 448 1;
#X connect 447 0 449 0;
#X connect 448 0 450 0;
#X connect 443 0 451 0;
#X connect 445 0 451 1;
#X connect 444 0 452 0;
#X connect 446 0 452 1;
#X connect 451 0 453 0;
#X connect 449 0 453 1;
#X connect 452 0 454 0;
#X connect 450 0 454 1;
#X connect 453 0 455 0;
#X connect 454 0 456 0;
#X connect 455 0 457 0;
#X connect 431 0 457 1;
#X connect 456 0 458 0;
#X connect 431 0 458 1;
#X connect 457 0 459 0;
#X connect 458 0 460 0;
#X connect 461 0 462 0;
#X connect 462 0 463 0;
#X connect 463 0 464 0;
#X connect 465 0 466 0;
#X connect 466 0 467 0;
#X connect 467 0 468 0;
#X connect 468 0 469 0;
#X connect 468 1 470 0;
#X connect 469 0 471 0;
#X connect 470 0 471 0;
#X connect 0 0 472 0;
#X connect 1 0 472 1;
#X connect 472 0 473 0;
#X connect 473 0 474 0;
#X connect 474 0 475 0;
#X connect 475 0 476 0;
#X connect 471 0 476 1;
#X connect 476 0 477 0;
#X connect 478 0 480 0;
#X connect 479 0 481 0;
#X connect 480 0 482 0;
#X connect 481 0 483 0;
#X connect 482 0 484 0;
#X connect 464 0 484 1;
#X connect 483 0 485 0;
#X connect 464 0 485 1;
#X connect 477 0 486 0;
#X connect 485 0 486 1;
#X connect 477 0 487 0;
#X connect 484 0 487 1;
#X connect 486 0 488 0;
#X connect 487 0 489 0;
#X connect 480 0 490 0;
#X connect 481 0 491 0;
#X connect 490 0 492 0;
#X connect 491 0 492 1;
#X connect 481 0 493 0;
#X connect 480 0 494 0;
#X connect 493 0 495 0;
#X connect 494 0 495 1;
#X connect 492 0 496 0;
#X connect 495 0 497 0;
#X connect 496 0 498 0;
#X connect 497 0 499 0;
#X connect 498 0 500 0;
#X connect 499 0 501 0;
#X connect 500 0 502 0;
#X connect 464 0 502 1;
#X connect 501 0 503 0;
#X connect 464 0 503 1;
#X connect 502 0 504 0;
#X connect 503 0 505 0;
#X obj 1120 350 r \$0-fx1_disabled;
#X obj 1120 380 == 1;
#X obj 1120 410 pack 0 12;
#X obj 1120 440 line~;
#X obj 1260 350 r \$0-lpfms;
#X obj 1260 380 expr 1000 / $f1;
#X obj 1260 410 phasor~ 0.5;
#X obj 1260 440 expr~ (0.04 + 0.96 * if($v1 < 0.5 \, $v1 * 2 \, 2 - ($v1 * 2))) * (0.58 + 0.42 * abs(sin($v1 * 50.2655)));
#X obj 1420 440 expr~ (1 - 0.96 * if($v1 < 0.5 \, $v1 * 2 \, 2 - ($v1 * 2))) * (0.58 + 0.42 * abs(sin($v1 * 50.2655)));
#X obj 1120 510 +~;
#X obj 1120 540 *~ 0.92;
#X obj 1120 580 *~;
#X obj 1260 580 *~;
#X obj 1120 620 *~;
#X obj 1260 620 *~;
#X obj 1120 655 hip~ 45;
#X obj 1260 655 hip~ 45;
#X obj 1120 690 clip~ -0.98 0.98;
#X obj 1260 690 clip~ -0.98 0.98;
#X obj 1120 725 throw~ \$0-outL;
#X obj 1260 725 throw~ \$0-outR;
#X obj 980 760 delwrite~ \$0-stereochor 90;
#X obj 980 800 osc~ 0.71;
#X obj 980 830 *~ 5.5;
#X obj 980 860 +~ 10;
#X obj 980 895 vd~ \$0-stereochor;
#X obj 980 925 lop~ 9000;
#X obj 980 955 *~ 0.30;
#X obj 980 990 *~;
#X obj 980 1025 *~;
#X obj 980 1060 throw~ \$0-outL;
#X obj 1180 800 osc~ 0.93;
#X obj 1180 830 *~ 6.0;
#X obj 1180 860 +~ 13;
#X obj 1180 895 vd~ \$0-stereochor;
#X obj 1180 925 lop~ 9000;
#X obj 1180 955 *~ 0.30;
#X obj 1180 990 *~;
#X obj 1180 1025 *~;
#X obj 1180 1060 throw~ \$0-outR;
#X connect 506 0 507 0;
#X connect 507 0 508 0;
#X connect 508 0 509 0;
#X connect 510 0 511 0;
#X connect 511 0 512 0;
#X connect 512 0 513 0;
#X connect 512 0 514 0;
#X connect 0 0 515 0;
#X connect 1 0 515 1;
#X connect 515 0 516 0;
#X connect 516 0 517 0;
#X connect 513 0 517 1;
#X connect 516 0 518 0;
#X connect 514 0 518 1;
#X connect 517 0 519 0;
#X connect 509 0 519 1;
#X connect 518 0 520 0;
#X connect 509 0 520 1;
#X connect 519 0 521 0;
#X connect 520 0 522 0;
#X connect 521 0 523 0;
#X connect 522 0 524 0;
#X connect 523 0 525 0;
#X connect 524 0 526 0;
#X connect 515 0 527 0;
#X connect 528 0 529 0;
#X connect 529 0 530 0;
#X connect 530 0 531 0;
#X connect 531 0 532 0;
#X connect 532 0 533 0;
#X connect 533 0 534 0;
#X connect 513 0 534 1;
#X connect 534 0 535 0;
#X connect 509 0 535 1;
#X connect 535 0 536 0;
#X connect 537 0 538 0;
#X connect 538 0 539 0;
#X connect 539 0 540 0;
#X connect 540 0 541 0;
#X connect 541 0 542 0;
#X connect 542 0 543 0;
#X connect 514 0 543 1;
#X connect 543 0 544 0;
#X connect 509 0 544 1;
#X connect 544 0 545 0;
#X obj 40 2860 r \$0-fx1;
#X obj 40 2890 == 1;
#X obj 40 2920 pack 0 8;
#X obj 40 2950 line~;
#X obj 220 2860 r \$0-r16ms;
#X obj 220 2890 * 4;
#X obj 220 2920 expr 1000 / $f1;
#X obj 220 2950 phasor~ 0.5;
#X obj 220 2985 expr~ if($v1 < 0.25 \, 1 \, if($v1 < 0.5 \, 2 \, if($v1 < 0.75 \, 1 \, 0.5)));
#X obj 220 3020 lop~ 35;
#X obj 360 3020 sig~ 1;
#X obj 220 3055 -~;
#X obj 220 3090 *~ 25;
#X obj 220 3125 phasor~ 0;
#X obj 360 3125 sig~ 1;
#X obj 220 3160 -~;
#X obj 220 3195 *~ 40;
#X obj 220 3230 +~ 3;
#X obj 420 3160 +~ 0.5;
#X obj 420 3195 wrap~;
#X obj 560 3195 sig~ 1;
#X obj 420 3230 -~;
#X obj 420 3265 *~ 40;
#X obj 420 3300 +~ 3;
#X obj 660 3125 expr~ if($v1 < 0.5 \, $v1 * 2 \, 2 - $v1 * 2);
#X obj 660 3195 expr~ if($v1 < 0.5 \, $v1 * 2 \, 2 - $v1 * 2);
#X obj 40 3030 delwrite~ \$0-octL 160;
#X obj 100 3060 delwrite~ \$0-octR 160;
#X obj 820 3030 vd~ \$0-octL;
#X obj 960 3030 vd~ \$0-octL;
#X obj 820 3060 vd~ \$0-octR;
#X obj 960 3060 vd~ \$0-octR;
#X obj 820 3100 *~;
#X obj 960 3100 *~;
#X obj 890 3135 +~;
#X obj 890 3170 *~ 0.92;
#X obj 820 3230 *~;
#X obj 960 3230 *~;
#X obj 890 3265 +~;
#X obj 890 3300 *~ 0.92;
#X obj 560 3020 expr~ if(abs($v1 - 1) < 0.05 \, 1 \, 0);
#X obj 560 3055 lop~ 60;
#X obj 700 3055 sig~ 1;
#X obj 700 3090 -~;
#X obj 40 3130 *~;
#X obj 100 3160 *~;
#X obj 890 3200 *~;
#X obj 890 3330 *~;
#X obj 160 3200 +~;
#X obj 160 3330 +~;
#X obj 160 3235 *~;
#X obj 160 3365 *~;
#X obj 160 3270 hip~ 20;
#X obj 160 3400 hip~ 20;
#X obj 160 3305 clip~ -0.98 0.98;
#X obj 160 3435 clip~ -0.98 0.98;
#X obj 160 3470 throw~ \$0-outL;
#X obj 300 3470 throw~ \$0-outR;
#X obj 500 2860 r \$0-fx1;
#X obj 500 2890 sel 1;
#X msg 500 2920 0;
#X msg 560 2920 0;
#X connect 0 0 572 0;
#X connect 1 0 573 0;
#X connect 0 0 590 0;
#X connect 1 0 591 0;
#X connect 546 0 547 0;
#X connect 547 0 548 0;
#X connect 548 0 549 0;
#X connect 550 0 551 0;
#X connect 551 0 552 0;
#X connect 552 0 553 0;
#X connect 604 0 605 0;
#X connect 605 0 606 0;
#X connect 606 0 553 1;
#X connect 605 0 607 0;
#X connect 607 0 559 1;
#X connect 553 0 554 0;
#X connect 554 0 555 0;
#X connect 555 0 557 0;
#X connect 556 0 557 1;
#X connect 557 0 558 0;
#X connect 558 0 559 0;
#X connect 560 0 561 0;
#X connect 559 0 561 1;
#X connect 561 0 562 0;
#X connect 562 0 563 0;
#X connect 559 0 564 0;
#X connect 564 0 565 0;
#X connect 566 0 567 0;
#X connect 565 0 567 1;
#X connect 567 0 568 0;
#X connect 568 0 569 0;
#X connect 559 0 570 0;
#X connect 565 0 571 0;
#X connect 563 0 574 0;
#X connect 569 0 575 0;
#X connect 563 0 576 0;
#X connect 569 0 577 0;
#X connect 574 0 578 0;
#X connect 570 0 578 1;
#X connect 575 0 579 0;
#X connect 571 0 579 1;
#X connect 578 0 580 0;
#X connect 579 0 580 1;
#X connect 580 0 581 0;
#X connect 576 0 582 0;
#X connect 570 0 582 1;
#X connect 577 0 583 0;
#X connect 571 0 583 1;
#X connect 582 0 584 0;
#X connect 583 0 584 1;
#X connect 584 0 585 0;
#X connect 555 0 586 0;
#X connect 586 0 587 0;
#X connect 588 0 589 0;
#X connect 587 0 589 1;
#X connect 587 0 590 1;
#X connect 587 0 591 1;
#X connect 589 0 592 1;
#X connect 589 0 593 1;
#X connect 581 0 592 0;
#X connect 585 0 593 0;
#X connect 590 0 594 0;
#X connect 592 0 594 1;
#X connect 591 0 595 0;
#X connect 593 0 595 1;
#X connect 594 0 596 0;
#X connect 549 0 596 1;
#X connect 595 0 597 0;
#X connect 549 0 597 1;
#X connect 596 0 598 0;
#X connect 597 0 599 0;
#X connect 598 0 600 0;
#X connect 599 0 601 0;
#X connect 600 0 602 0;
#X connect 601 0 603 0;
