#N canvas 546 110 493 271 10;
#X obj 33 30 r loadbang-\$1;
#X obj 117 217 outlet~ outL-\$1;
#X obj 219 217 outlet~ outR-\$1;
#X obj 301 80 inlet~ inL;
#X obj 385 80 inlet~ inR;
#X obj 301 30 r expIn-\$1;
#X obj 395 56 r fsIn-\$1;
#X obj 301 55 s notesOut-\$1;
#X obj 377 30 s ctrlOut-\$1;
#X text 192 175 Pd~ subprocess;
#N canvas 146 264 1453 667 subparams 0;
#X obj 443 636 outlet;
#X obj 456 257 r lpg_colour-\$1;
#X obj 459 363 r decay-\$1;
#X obj 234 256 r mod_timbre-\$1;
#X obj 236 311 r mod_fm-\$1;
#X obj 237 362 r mod_morph-\$1;
#X obj 564 256 r loadbang-\$1;
#X obj 347 256 r semitone-\$1;
#X obj 346 311 r harmonics-\$1;
#X obj 347 362 r timbre-\$1;
#X obj 458 312 r morph-\$1;
#X msg 234 277 mod_timbre \$1;
#X msg 236 332 mod_fm \$1;
#X msg 237 383 mod_morph \$1;
#X msg 347 277 semitone \$1;
#X msg 346 332 harmonics \$1;
#X msg 347 383 timbre \$1;
#X msg 456 278 lpg_colour \$1;
#X msg 564 277 loadbang \$1;
#X msg 458 333 morph \$1;
#X msg 459 384 decay \$1;
#X obj 98 562 r notesIn-\$1;
#X obj 98 587 unpack 0 0;
#X msg 81 619 notes \$1;
#X msg 151 619 velocity \$1;
#X obj 203 482 r ctrlIn-\$1;
#X obj 203 503 unpack 0 0 0;
#X floatatom 202 525 5 0 0 0 - - -;
#X floatatom 270 527 5 0 0 0 - - -;
#X floatatom 372 527 5 0 0 0 - - -;
#X msg 202 551 valuem \$1;
#X msg 372 551 channelm \$1;
#X msg 270 551 controllerm \$1;
#X obj 58 33 r semitone-1-\$1;
#X obj 214 33 r semitone-2-\$1;
#X msg 58 54 semitone-1 \$1;
#X msg 214 54 semitone-2 \$1;
#X obj 356 32 r semitone-3-\$1;
#X msg 356 53 semitone-3 \$1;
#X obj 512 32 r semitone-4-\$1;
#X msg 512 53 semitone-4 \$1;
#X obj 667 32 r semitone-5-\$1;
#X msg 667 53 semitone-5 \$1;
#X obj 823 32 r semitone-6-\$1;
#X msg 823 53 semitone-6 \$1;
#X obj 983 31 r semitone-7-\$1;
#X msg 983 52 semitone-7 \$1;
#X obj 1139 31 r semitone-8-\$1;
#X msg 1139 52 semitone-8 \$1;
#X obj 59 83 r harmonics-1-\$1;
#X msg 59 104 harmonics-1 \$1;
#X msg 211 104 harmonics-2 \$1;
#X obj 211 83 r harmonics-2-\$1;
#X obj 356 83 r harmonics-3-\$1;
#X msg 356 104 harmonics-3 \$1;
#X obj 508 83 r harmonics-4-\$1;
#X msg 508 104 harmonics-4 \$1;
#X obj 667 83 r harmonics-5-\$1;
#X msg 667 104 harmonics-5 \$1;
#X obj 819 83 r harmonics-6-\$1;
#X msg 819 104 harmonics-6 \$1;
#X obj 983 84 r harmonics-7-\$1;
#X msg 983 105 harmonics-7 \$1;
#X obj 1135 84 r harmonics-8-\$1;
#X msg 1135 105 harmonics-8 \$1;
#X obj 58 140 r timbre-1-\$1;
#X msg 58 161 timbre-1 \$1;
#X obj 212 140 r timbre-2-\$1;
#X msg 212 161 timbre-2 \$1;
#X obj 357 141 r timbre-3-\$1;
#X msg 357 162 timbre-3 \$1;
#X obj 511 141 r timbre-4-\$1;
#X msg 511 162 timbre-4 \$1;
#X obj 668 140 r timbre-5-\$1;
#X msg 668 161 timbre-5 \$1;
#X obj 822 140 r timbre-6-\$1;
#X msg 822 161 timbre-6 \$1;
#X obj 982 142 r timbre-7-\$1;
#X msg 982 163 timbre-7 \$1;
#X obj 1136 142 r timbre-8-\$1;
#X msg 1136 163 timbre-8 \$1;
#X obj 57 197 r morph-1-\$1;
#X msg 57 218 morph-1 \$1;
#X obj 215 197 r morph-2-\$1;
#X msg 214 218 morph-2 \$1;
#X obj 33 255 r mix-1-\$1;
#X msg 33 276 mix-1 \$1;
#X obj 136 256 r mix-2-\$1;
#X msg 136 277 mix-2 \$1;
#X obj 33 310 r mix-3-\$1;
#X msg 33 331 mix-3 \$1;
#X obj 135 311 r mix-4-\$1;
#X msg 135 332 mix-4 \$1;
#X obj 30 361 r mix-5-\$1;
#X msg 30 382 mix-5 \$1;
#X obj 134 362 r mix-6-\$1;
#X msg 134 383 mix-6 \$1;
#X obj 32 409 r mix-7-\$1;
#X msg 32 430 mix-7 \$1;
#X obj 134 410 r mix-8-\$1;
#X msg 134 431 mix-8 \$1;
#X obj 680 256 r pan-1-\$1;
#X msg 680 277 pan-1 \$1;
#X obj 680 304 r pan-2-\$1;
#X msg 680 325 pan-2 \$1;
#X obj 678 354 r pan-3-\$1;
#X msg 678 375 pan-3 \$1;
#X obj 679 402 r pan-4-\$1;
#X msg 679 423 pan-4 \$1;
#X obj 678 449 r pan-5-\$1;
#X msg 678 470 pan-5 \$1;
#X obj 677 499 r pan-6-\$1;
#X msg 677 520 pan-6 \$1;
#X obj 676 550 r pan-7-\$1;
#X msg 676 571 pan-7 \$1;
#X obj 675 600 r pan-8-\$1;
#X msg 675 621 pan-8 \$1;
#X obj 786 254 r model-1-\$1;
#X msg 786 275 model-1 \$1;
#X obj 785 302 r model-2-\$1;
#X msg 785 323 model-2 \$1;
#X obj 785 352 r model-3-\$1;
#X msg 785 373 model-3 \$1;
#X obj 785 402 r model-4-\$1;
#X msg 785 423 model-4 \$1;
#X obj 785 449 r model-5-\$1;
#X msg 785 470 model-5 \$1;
#X obj 784 497 r model-6-\$1;
#X msg 784 518 model-6 \$1;
#X obj 784 546 r model-7-\$1;
#X msg 784 567 model-7 \$1;
#X obj 784 595 r model-8-\$1;
#X msg 784 616 model-8 \$1;
#X obj 915 254 r aux-1-\$1;
#X msg 915 275 aux-1 \$1;
#X obj 916 304 r aux-2-\$1;
#X msg 916 325 aux-2 \$1;
#X obj 916 354 r aux-3-\$1;
#X msg 916 375 aux-3 \$1;
#X obj 916 403 r aux-4-\$1;
#X msg 916 424 aux-4 \$1;
#X obj 916 452 r aux-5-\$1;
#X msg 916 473 aux-5 \$1;
#X obj 916 497 r aux-6-\$1;
#X msg 916 518 aux-6 \$1;
#X obj 917 546 r aux-7-\$1;
#X msg 917 567 aux-7 \$1;
#X obj 918 594 r aux-8-\$1;
#X msg 918 615 aux-8 \$1;
#X obj 562 371 r time-\$1;
#X obj 560 420 r diff-\$1;
#X obj 559 464 r cutoff-\$1;
#X msg 562 392 time \$1;
#X msg 560 441 diff \$1;
#X msg 559 485 cutoff \$1;
#X obj 357 196 r morph-3-\$1;
#X msg 357 217 morph-3 \$1;
#X obj 515 196 r morph-4-\$1;
#X msg 514 217 morph-4 \$1;
#X obj 668 196 r morph-5-\$1;
#X msg 668 217 morph-5 \$1;
#X obj 826 196 r morph-6-\$1;
#X msg 825 217 morph-6 \$1;
#X obj 981 196 r morph-7-\$1;
#X msg 981 217 morph-7 \$1;
#X obj 1139 196 r morph-8-\$1;
#X msg 1138 217 morph-8 \$1;
#X obj 1021 255 r r-send-1-\$1;
#X msg 1021 276 r-send-1 \$1;
#X obj 1022 305 r r-send-2-\$1;
#X msg 1022 326 r-send-2 \$1;
#X obj 1022 355 r r-send-3-\$1;
#X msg 1022 376 r-send-3 \$1;
#X obj 1022 404 r r-send-4-\$1;
#X msg 1022 425 r-send-4 \$1;
#X obj 1022 453 r r-send-5-\$1;
#X msg 1022 474 r-send-5 \$1;
#X obj 1022 498 r r-send-6-\$1;
#X msg 1022 519 r-send-6 \$1;
#X obj 1023 547 r r-send-7-\$1;
#X msg 1023 568 r-send-7 \$1;
#X obj 1024 595 r r-send-8-\$1;
#X msg 1024 616 r-send-8 \$1;
#X obj 1141 255 r d-send-1-\$1;
#X msg 1141 276 d-send-1 \$1;
#X obj 1142 305 r d-send-2-\$1;
#X msg 1142 326 d-send-2 \$1;
#X obj 1142 355 r d-send-3-\$1;
#X msg 1142 376 d-send-3 \$1;
#X obj 1142 404 r d-send-4-\$1;
#X msg 1142 425 d-send-4 \$1;
#X obj 1142 453 r d-send-5-\$1;
#X msg 1142 474 d-send-5 \$1;
#X obj 1142 498 r d-send-6-\$1;
#X msg 1142 519 d-send-6 \$1;
#X obj 1143 547 r d-send-7-\$1;
#X msg 1143 568 d-send-7 \$1;
#X obj 1144 595 r d-send-8-\$1;
#X msg 1144 616 d-send-8 \$1;
#X obj 1269 301 r drive-\$1;
#X obj 1269 351 r ratio-\$1;
#X obj 1270 398 r bits-\$1;
#X obj 564 324 r r-amount-\$1;
#X obj 1269 255 r d-amount-\$1;
#X msg 564 346 r-amount \$1;
#X msg 1269 276 d-amount \$1;
#X msg 1269 322 drive \$1;
#X msg 1269 372 ratio \$1;
#X msg 1270 419 bits \$1;
#X obj 170 57 f;
#X obj 316 57 f;
#X obj 461 53 f;
#X obj 615 53 f;
#X obj 771 56 f;
#X obj 929 56 f;
#X obj 1102 42 f;
#X obj 1247 51 f;
#X obj 172 103 f;
#X obj 318 103 f;
#X obj 459 105 f;
#X obj 621 102 f;
#X obj 773 102 f;
#X obj 931 102 f;
#X obj 1100 97 f;
#X obj 1247 110 f;
#X obj 170 159 f;
#X obj 316 159 f;
#X obj 457 161 f;
#X obj 619 158 f;
#X obj 771 158 f;
#X obj 935 153 f;
#X obj 1089 148 f;
#X obj 1247 153 f;
#X obj 169 201 f;
#X obj 314 218 f;
#X obj 455 220 f;
#X obj 620 212 f;
#X obj 769 217 f;
#X obj 931 206 f;
#X obj 1087 207 f;
#X obj 1245 212 f;
#X obj 990 452 f;
#X obj 992 498 f;
#X obj 987 557 f;
#X obj 990 613 f;
#X obj 992 261 f;
#X obj 994 307 f;
#X obj 992 363 f;
#X obj 992 421 f;
#X obj 873 469 f;
#X obj 876 514 f;
#X obj 877 561 f;
#X obj 877 609 f;
#X obj 877 272 f;
#X obj 876 319 f;
#X obj 874 369 f;
#X obj 874 426 f;
#X obj 469 7 r loadbang-\$1;
#X obj 618 12 delay 300;
#X obj 718 6 bng 15 250 50 0 empty empty empty 17 7 0 10 -262144 -1
-1;
#X obj 488 409 f;
#X obj 104 281 f;
#X obj 102 338 f;
#X obj 103 382 f;
#X obj 102 435 f;
#X obj 204 281 f;
#X obj 202 338 f;
#X obj 203 382 f;
#X obj 202 435 f;
#X obj 321 297 f;
#X obj 309 332 f;
#X obj 319 385 f;
#X obj 428 285 f;
#X obj 426 342 f;
#X obj 427 386 f;
#X obj 534 298 f;
#X obj 532 355 f;
#X obj 750 478 f;
#X obj 753 523 f;
#X obj 754 570 f;
#X obj 754 618 f;
#X obj 754 281 f;
#X obj 753 328 f;
#X obj 751 378 f;
#X obj 751 435 f;
#X obj 1108 462 f;
#X obj 1110 508 f;
#X obj 1105 567 f;
#X obj 1108 623 f;
#X obj 1110 271 f;
#X obj 1112 317 f;
#X obj 1110 373 f;
#X obj 1110 431 f;
#X obj 1231 476 f;
#X obj 1234 521 f;
#X obj 1235 568 f;
#X obj 1235 616 f;
#X obj 1235 279 f;
#X obj 1234 326 f;
#X obj 1232 376 f;
#X obj 1232 433 f;
#X obj 1364 268 f;
#X obj 1364 327 f;
#X obj 1364 370 f;
#X obj 1356 419 f;
#X obj 641 360 f;
#X obj 642 406 f;
#X obj 643 455 f;
#X obj 643 503 f;
#X connect 1 0 17 0;
#X connect 1 0 275 1;
#X connect 2 0 20 0;
#X connect 2 0 260 1;
#X connect 3 0 11 0;
#X connect 3 0 269 1;
#X connect 4 0 12 0;
#X connect 4 0 270 1;
#X connect 5 0 13 0;
#X connect 5 0 271 1;
#X connect 6 0 18 0;
#X connect 7 0 14 0;
#X connect 7 0 272 1;
#X connect 8 0 15 0;
#X connect 8 0 273 1;
#X connect 9 0 16 0;
#X connect 9 0 274 1;
#X connect 10 0 19 0;
#X connect 10 0 276 1;
#X connect 11 0 0 0;
#X connect 12 0 0 0;
#X connect 13 0 0 0;
#X connect 14 0 0 0;
#X connect 15 0 0 0;
#X connect 16 0 0 0;
#X connect 17 0 0 0;
#X connect 18 0 0 0;
#X connect 19 0 0 0;
#X connect 20 0 0 0;
#X connect 21 0 22 0;
#X connect 22 0 23 0;
#X connect 22 1 24 0;
#X connect 23 0 0 0;
#X connect 24 0 0 0;
#X connect 25 0 26 0;
#X connect 26 0 27 0;
#X connect 26 1 28 0;
#X connect 26 2 29 0;
#X connect 27 0 30 0;
#X connect 28 0 32 0;
#X connect 29 0 31 0;
#X connect 30 0 0 0;
#X connect 31 0 0 0;
#X connect 32 0 0 0;
#X connect 33 0 35 0;
#X connect 33 0 209 1;
#X connect 34 0 36 0;
#X connect 34 0 210 1;
#X connect 35 0 0 0;
#X connect 36 0 0 0;
#X connect 37 0 38 0;
#X connect 37 0 211 1;
#X connect 38 0 0 0;
#X connect 39 0 40 0;
#X connect 39 0 212 1;
#X connect 40 0 0 0;
#X connect 41 0 42 0;
#X connect 41 0 213 1;
#X connect 42 0 0 0;
#X connect 43 0 44 0;
#X connect 43 0 214 1;
#X connect 44 0 0 0;
#X connect 45 0 46 0;
#X connect 45 0 215 1;
#X connect 46 0 0 0;
#X connect 47 0 48 0;
#X connect 47 0 216 1;
#X connect 48 0 0 0;
#X connect 49 0 50 0;
#X connect 49 0 217 1;
#X connect 50 0 0 0;
#X connect 51 0 0 0;
#X connect 52 0 51 0;
#X connect 52 0 218 1;
#X connect 53 0 54 0;
#X connect 53 0 219 1;
#X connect 54 0 0 0;
#X connect 55 0 56 0;
#X connect 55 0 220 1;
#X connect 56 0 0 0;
#X connect 57 0 58 0;
#X connect 57 0 221 1;
#X connect 58 0 0 0;
#X connect 59 0 60 0;
#X connect 59 0 222 1;
#X connect 60 0 0 0;
#X connect 61 0 62 0;
#X connect 61 0 223 1;
#X connect 62 0 0 0;
#X connect 63 0 64 0;
#X connect 63 0 224 1;
#X connect 64 0 0 0;
#X connect 65 0 66 0;
#X connect 65 0 225 1;
#X connect 66 0 0 0;
#X connect 67 0 68 0;
#X connect 67 0 226 1;
#X connect 68 0 0 0;
#X connect 69 0 70 0;
#X connect 69 0 227 1;
#X connect 70 0 0 0;
#X connect 71 0 72 0;
#X connect 71 0 228 1;
#X connect 72 0 0 0;
#X connect 73 0 74 0;
#X connect 73 0 229 1;
#X connect 74 0 0 0;
#X connect 75 0 76 0;
#X connect 75 0 230 1;
#X connect 76 0 0 0;
#X connect 77 0 78 0;
#X connect 77 0 231 1;
#X connect 78 0 0 0;
#X connect 79 0 80 0;
#X connect 79 0 232 1;
#X connect 80 0 0 0;
#X connect 81 0 82 0;
#X connect 81 0 233 1;
#X connect 82 0 0 0;
#X connect 83 0 84 0;
#X connect 83 0 234 1;
#X connect 84 0 0 0;
#X connect 85 0 86 0;
#X connect 85 0 261 1;
#X connect 86 0 0 0;
#X connect 87 0 88 0;
#X connect 87 0 265 1;
#X connect 88 0 0 0;
#X connect 89 0 90 0;
#X connect 89 0 262 1;
#X connect 90 0 0 0;
#X connect 91 0 92 0;
#X connect 91 0 266 1;
#X connect 92 0 0 0;
#X connect 93 0 94 0;
#X connect 93 0 263 1;
#X connect 94 0 0 0;
#X connect 95 0 96 0;
#X connect 95 0 267 1;
#X connect 96 0 0 0;
#X connect 97 0 98 0;
#X connect 97 0 264 1;
#X connect 98 0 0 0;
#X connect 99 0 100 0;
#X connect 99 0 268 1;
#X connect 100 0 0 0;
#X connect 101 0 102 0;
#X connect 101 0 281 1;
#X connect 102 0 0 0;
#X connect 103 0 104 0;
#X connect 103 0 282 1;
#X connect 104 0 0 0;
#X connect 105 0 106 0;
#X connect 105 0 283 1;
#X connect 106 0 0 0;
#X connect 107 0 108 0;
#X connect 107 0 284 1;
#X connect 108 0 0 0;
#X connect 109 0 110 0;
#X connect 109 0 277 1;
#X connect 110 0 0 0;
#X connect 111 0 112 0;
#X connect 111 0 278 1;
#X connect 112 0 0 0;
#X connect 113 0 114 0;
#X connect 113 0 279 1;
#X connect 114 0 0 0;
#X connect 115 0 116 0;
#X connect 115 0 280 1;
#X connect 116 0 0 0;
#X connect 117 0 118 0;
#X connect 117 0 253 1;
#X connect 118 0 0 0;
#X connect 119 0 120 0;
#X connect 119 0 254 1;
#X connect 120 0 0 0;
#X connect 121 0 122 0;
#X connect 121 0 255 1;
#X connect 122 0 0 0;
#X connect 123 0 124 0;
#X connect 123 0 256 1;
#X connect 124 0 0 0;
#X connect 125 0 126 0;
#X connect 125 0 249 1;
#X connect 126 0 0 0;
#X connect 127 0 128 0;
#X connect 127 0 250 1;
#X connect 128 0 0 0;
#X connect 129 0 130 0;
#X connect 129 0 251 1;
#X connect 130 0 0 0;
#X connect 131 0 132 0;
#X connect 131 0 252 1;
#X connect 132 0 0 0;
#X connect 133 0 134 0;
#X connect 133 0 245 1;
#X connect 134 0 0 0;
#X connect 135 0 136 0;
#X connect 135 0 246 1;
#X connect 136 0 0 0;
#X connect 137 0 138 0;
#X connect 137 0 247 1;
#X connect 138 0 0 0;
#X connect 139 0 140 0;
#X connect 139 0 248 1;
#X connect 140 0 0 0;
#X connect 141 0 142 0;
#X connect 141 0 241 1;
#X connect 142 0 0 0;
#X connect 143 0 144 0;
#X connect 143 0 242 1;
#X connect 144 0 0 0;
#X connect 145 0 146 0;
#X connect 145 0 243 1;
#X connect 146 0 0 0;
#X connect 147 0 148 0;
#X connect 147 0 244 1;
#X connect 148 0 0 0;
#X connect 149 0 152 0;
#X connect 149 0 306 1;
#X connect 150 0 153 0;
#X connect 150 0 307 1;
#X connect 151 0 154 0;
#X connect 151 0 308 1;
#X connect 152 0 0 0;
#X connect 153 0 0 0;
#X connect 154 0 0 0;
#X connect 155 0 156 0;
#X connect 155 0 235 1;
#X connect 156 0 0 0;
#X connect 157 0 158 0;
#X connect 157 0 236 1;
#X connect 158 0 0 0;
#X connect 159 0 160 0;
#X connect 159 0 237 1;
#X connect 160 0 0 0;
#X connect 161 0 162 0;
#X connect 161 0 238 1;
#X connect 162 0 0 0;
#X connect 163 0 164 0;
#X connect 163 0 239 1;
#X connect 164 0 0 0;
#X connect 165 0 166 0;
#X connect 165 0 240 1;
#X connect 166 0 0 0;
#X connect 167 0 168 0;
#X connect 167 0 289 1;
#X connect 168 0 0 0;
#X connect 169 0 170 0;
#X connect 169 0 290 1;
#X connect 170 0 0 0;
#X connect 171 0 172 0;
#X connect 171 0 291 1;
#X connect 172 0 0 0;
#X connect 173 0 174 0;
#X connect 173 0 292 1;
#X connect 174 0 0 0;
#X connect 175 0 176 0;
#X connect 175 0 285 1;
#X connect 176 0 0 0;
#X connect 177 0 178 0;
#X connect 177 0 286 1;
#X connect 178 0 0 0;
#X connect 179 0 180 0;
#X connect 179 0 287 1;
#X connect 180 0 0 0;
#X connect 181 0 182 0;
#X connect 181 0 288 1;
#X connect 182 0 0 0;
#X connect 183 0 184 0;
#X connect 183 0 297 1;
#X connect 184 0 0 0;
#X connect 185 0 186 0;
#X connect 185 0 298 1;
#X connect 186 0 0 0;
#X connect 187 0 188 0;
#X connect 187 0 299 1;
#X connect 188 0 0 0;
#X connect 189 0 190 0;
#X connect 189 0 300 1;
#X connect 190 0 0 0;
#X connect 191 0 192 0;
#X connect 191 0 293 1;
#X connect 192 0 0 0;
#X connect 193 0 194 0;
#X connect 193 0 294 1;
#X connect 194 0 0 0;
#X connect 195 0 196 0;
#X connect 195 0 295 1;
#X connect 196 0 0 0;
#X connect 197 0 198 0;
#X connect 197 0 296 1;
#X connect 198 0 0 0;
#X connect 199 0 206 0;
#X connect 199 0 302 1;
#X connect 200 0 207 0;
#X connect 200 0 303 1;
#X connect 201 0 208 0;
#X connect 201 0 304 1;
#X connect 202 0 204 0;
#X connect 202 0 305 1;
#X connect 203 0 205 0;
#X connect 203 0 301 1;
#X connect 204 0 0 0;
#X connect 205 0 0 0;
#X connect 206 0 0 0;
#X connect 207 0 0 0;
#X connect 208 0 0 0;
#X connect 209 0 35 0;
#X connect 210 0 36 0;
#X connect 211 0 38 0;
#X connect 212 0 40 0;
#X connect 213 0 42 0;
#X connect 214 0 44 0;
#X connect 215 0 46 0;
#X connect 216 0 48 0;
#X connect 217 0 50 0;
#X connect 218 0 51 0;
#X connect 219 0 54 0;
#X connect 220 0 56 0;
#X connect 221 0 58 0;
#X connect 222 0 60 0;
#X connect 223 0 62 0;
#X connect 224 0 64 0;
#X connect 225 0 66 0;
#X connect 226 0 68 0;
#X connect 227 0 70 0;
#X connect 228 0 72 0;
#X connect 229 0 74 0;
#X connect 230 0 76 0;
#X connect 231 0 78 0;
#X connect 232 0 80 0;
#X connect 233 0 82 0;
#X connect 234 0 84 0;
#X connect 235 0 156 0;
#X connect 236 0 158 0;
#X connect 237 0 160 0;
#X connect 238 0 162 0;
#X connect 239 0 164 0;
#X connect 240 0 166 0;
#X connect 241 0 142 0;
#X connect 242 0 144 0;
#X connect 243 0 146 0;
#X connect 244 0 148 0;
#X connect 245 0 134 0;
#X connect 246 0 136 0;
#X connect 247 0 138 0;
#X connect 248 0 140 0;
#X connect 249 0 126 0;
#X connect 250 0 128 0;
#X connect 251 0 130 0;
#X connect 252 0 132 0;
#X connect 253 0 118 0;
#X connect 254 0 120 0;
#X connect 255 0 122 0;
#X connect 256 0 124 0;
#X connect 257 0 258 0;
#X connect 258 0 209 0;
#X connect 258 0 256 0;
#X connect 258 0 255 0;
#X connect 258 0 254 0;
#X connect 258 0 253 0;
#X connect 258 0 252 0;
#X connect 258 0 251 0;
#X connect 258 0 250 0;
#X connect 258 0 249 0;
#X connect 258 0 248 0;
#X connect 258 0 247 0;
#X connect 258 0 246 0;
#X connect 258 0 245 0;
#X connect 258 0 244 0;
#X connect 258 0 243 0;
#X connect 258 0 242 0;
#X connect 258 0 241 0;
#X connect 258 0 240 0;
#X connect 258 0 232 0;
#X connect 258 0 224 0;
#X connect 258 0 216 0;
#X connect 258 0 239 0;
#X connect 258 0 231 0;
#X connect 258 0 223 0;
#X connect 258 0 215 0;
#X connect 258 0 238 0;
#X connect 258 0 230 0;
#X connect 258 0 222 0;
#X connect 258 0 214 0;
#X connect 258 0 237 0;
#X connect 258 0 229 0;
#X connect 258 0 221 0;
#X connect 258 0 213 0;
#X connect 258 0 236 0;
#X connect 258 0 228 0;
#X connect 258 0 220 0;
#X connect 258 0 212 0;
#X connect 258 0 235 0;
#X connect 258 0 227 0;
#X connect 258 0 219 0;
#X connect 258 0 211 0;
#X connect 258 0 234 0;
#X connect 258 0 226 0;
#X connect 258 0 218 0;
#X connect 258 0 210 0;
#X connect 258 0 233 0;
#X connect 258 0 225 0;
#X connect 258 0 217 0;
#X connect 258 0 260 0;
#X connect 258 0 261 0;
#X connect 258 0 264 0;
#X connect 258 0 263 0;
#X connect 258 0 262 0;
#X connect 258 0 268 0;
#X connect 258 0 267 0;
#X connect 258 0 266 0;
#X connect 258 0 265 0;
#X connect 258 0 271 0;
#X connect 258 0 270 0;
#X connect 258 0 269 0;
#X connect 258 0 274 0;
#X connect 258 0 273 0;
#X connect 258 0 272 0;
#X connect 258 0 276 0;
#X connect 258 0 275 0;
#X connect 258 0 308 0;
#X connect 258 0 307 0;
#X connect 258 0 306 0;
#X connect 258 0 305 0;
#X connect 258 0 284 0;
#X connect 258 0 283 0;
#X connect 258 0 282 0;
#X connect 258 0 281 0;
#X connect 258 0 280 0;
#X connect 258 0 279 0;
#X connect 258 0 278 0;
#X connect 258 0 277 0;
#X connect 258 0 292 0;
#X connect 258 0 291 0;
#X connect 258 0 290 0;
#X connect 258 0 289 0;
#X connect 258 0 288 0;
#X connect 258 0 287 0;
#X connect 258 0 286 0;
#X connect 258 0 285 0;
#X connect 258 0 300 0;
#X connect 258 0 299 0;
#X connect 258 0 298 0;
#X connect 258 0 297 0;
#X connect 258 0 296 0;
#X connect 258 0 295 0;
#X connect 258 0 294 0;
#X connect 258 0 293 0;
#X connect 258 0 304 0;
#X connect 258 0 303 0;
#X connect 258 0 302 0;
#X connect 258 0 301 0;
#X connect 259 0 258 0;
#X connect 260 0 20 0;
#X connect 261 0 86 0;
#X connect 262 0 90 0;
#X connect 263 0 94 0;
#X connect 264 0 98 0;
#X connect 265 0 88 0;
#X connect 266 0 92 0;
#X connect 267 0 96 0;
#X connect 268 0 100 0;
#X connect 269 0 11 0;
#X connect 270 0 12 0;
#X connect 271 0 13 0;
#X connect 272 0 14 0;
#X connect 273 0 15 0;
#X connect 274 0 16 0;
#X connect 275 0 17 0;
#X connect 276 0 19 0;
#X connect 277 0 110 0;
#X connect 278 0 112 0;
#X connect 279 0 114 0;
#X connect 280 0 116 0;
#X connect 281 0 102 0;
#X connect 282 0 104 0;
#X connect 283 0 106 0;
#X connect 284 0 108 0;
#X connect 285 0 176 0;
#X connect 286 0 178 0;
#X connect 287 0 180 0;
#X connect 288 0 182 0;
#X connect 289 0 168 0;
#X connect 290 0 170 0;
#X connect 291 0 172 0;
#X connect 292 0 174 0;
#X connect 293 0 192 0;
#X connect 294 0 194 0;
#X connect 295 0 196 0;
#X connect 296 0 198 0;
#X connect 297 0 184 0;
#X connect 298 0 186 0;
#X connect 299 0 188 0;
#X connect 300 0 190 0;
#X connect 301 0 205 0;
#X connect 302 0 206 0;
#X connect 303 0 207 0;
#X connect 304 0 208 0;
#X connect 305 0 204 0;
#X connect 306 0 152 0;
#X connect 307 0 153 0;
#X connect 308 0 154 0;
#X restore 49 143 pd subparams;
#X text 135 143 subprocess parameters;
#N canvas 590 282 1219 762 oled 0;
#X obj 330 306 sel \$1;
#X obj 330 288 unpack s s;
#X msg 330 324 1;
#X msg 363 324 0;
#X obj 330 352 change;
#N canvas 951 297 511 678 waveformReader 0;
#X obj 56 16 inlet;
#X obj 221 529 list prepend;
#X obj 71 319 until;
#X obj 71 347 f 0;
#X obj 329 529 t l;
#X obj 71 365 i;
#X obj 71 401 * 0.5;
#X obj 71 419 + 0.5;
#X obj 71 491 i;
#X msg 19 529 sendtyped /oled/gWaveform ib 3;
#X obj 19 657 list append;
#X obj 19 675 list trim;
#X obj 19 693 outlet;
#X msg 107 319 0;
#N canvas 4 50 450 250 (subpatch) 0;
#X array scope-\$1 8320 float 2;
#X coords 0 1 8320 -1 128 64 1 0 0;
#X restore 271 94 graph;
#X obj 56 34 t b b b b b b;
#X obj 140 34 inlet~;
#X obj 131 90 tabwrite~ scope-\$1;
#X obj 71 383 tabread scope-\$1;
#X msg 71 297 128;
#X obj 197 208 + 1;
#X floatatom 197 236 5 0 0 0 - - -;
#X obj 197 154 * -1;
#X obj 197 172 + 1;
#X obj 197 190 * 12;
#X obj 286 180 inlet;
#X obj 115 347 + 13;
#X obj 197 136 spigot;
#X msg 307 208 13;
#X obj 257 170 tgl 15 0 empty empty empty 17 7 0 10 -262144 -1 -1 0
1;
#X obj 197 108 r oknob3;
#X obj 71 437 * 14;
#X obj 71 455 + 50;
#X obj 71 473 clip 50 64;
#X connect 0 0 15 0;
#X connect 1 0 4 0;
#X connect 1 0 10 1;
#X connect 2 0 3 0;
#X connect 3 0 5 0;
#X connect 3 0 26 0;
#X connect 4 0 1 1;
#X connect 5 0 18 0;
#X connect 6 0 7 0;
#X connect 7 0 31 0;
#X connect 8 0 1 0;
#X connect 9 0 10 0;
#X connect 10 0 11 0;
#X connect 11 0 12 0;
#X connect 13 0 3 1;
#X connect 15 0 9 0;
#X connect 15 1 19 0;
#X connect 15 2 13 0;
#X connect 15 3 1 0;
#X connect 15 4 1 1;
#X connect 15 5 17 0;
#X connect 16 0 17 0;
#X connect 18 0 6 0;
#X connect 19 0 2 0;
#X connect 20 0 21 0;
#X connect 21 0 26 1;
#X connect 22 0 23 0;
#X connect 23 0 24 0;
#X connect 24 0 20 0;
#X connect 25 0 29 0;
#X connect 25 0 28 0;
#X connect 26 0 3 1;
#X connect 27 0 22 0;
#X connect 28 0 21 0;
#X connect 29 0 27 1;
#X connect 30 0 27 0;
#X connect 31 0 32 0;
#X connect 32 0 33 0;
#X connect 33 0 8 0;
#X restore 349 573 pd waveformReader;
#X msg 257 573 /oled/gFlip 3;
#X text 526 395 page and module is active;
#X obj 514 522 clip~ -0.99 0.99;
#X obj 514 486 +~;
#X obj 514 504 /~ 2;
#X obj 330 370 sel 1, f 20;
#X obj 330 412 delay 500;
#X msg 447 398 stop;
#X msg 57 573 /oled/gFillArea 3 0 50 128 14 0;
#X obj 330 465 t b b b;
#X msg 467 573 /oled/gFillArea 3 0 50 128 14 0;
#X msg 422 221 selectpage \$1;
#X obj 422 239 s rackMsgs;
#X obj 38 57 stripnote;
#X msg 673 426 1;
#X obj 38 39 spigot 0;
#X obj 484 454 inlet~;
#X obj 534 454 inlet~;
#X obj 311 713 s oscOutRaw;
#X obj 330 270 r activePage;
#X obj 330 445 metro 58.049;
#X obj 147 72 sel 60 62 64 65 67 69 71 72, f 37;
#X msg 127 95 6;
#X msg 158 95 7;
#X msg 191 95 8;
#X msg 224 95 9;
#X msg 257 95 10;
#X msg 294 95 11;
#X msg 327 95 12;
#X msg 364 95 13;
#X msg 594 94 0;
#X msg 1008 94 14;
#X msg 1041 94 15;
#X msg 1074 94 16;
#X msg 625 94 1;
#X msg 760 94 2;
#X msg 821 94 3;
#X msg 790 94 4;
#X msg 854 94 5;
#X obj 499 36 r auxIn-\$1;
#X obj 595 72 sel 61 63 66 68 70 73 74 75 76 77 79 81 83 78 80 82,
f 86;
#X msg 658 94 17;
#X msg 691 94 18;
#X msg 720 94 19;
#X msg 885 94 20;
#X msg 915 94 21;
#X msg 945 94 22;
#X msg 976 94 23;
#X obj 38 20 r onotes;
#X obj 422 110 spigot 1;
#X obj 484 144 ==;
#X obj 484 165 sel 0;
#X msg 484 186 1;
#X msg 514 186 0;
#X obj 422 200 spigot 1;
#X obj 517 144 f;
#X obj 422 130 t f b f;
#X obj 616 176 r loadbang-\$1;
#X obj 616 197 delay 500;
#X msg 616 218 0;
#X connect 0 0 2 0;
#X connect 0 0 64 0;
#X connect 0 1 3 0;
#X connect 0 1 36 0;
#X connect 1 0 0 0;
#X connect 2 0 4 0;
#X connect 3 0 4 0;
#X connect 4 0 11 0;
#X connect 4 0 21 1;
#X connect 5 0 24 0;
#X connect 6 0 24 0;
#X connect 8 0 5 1;
#X connect 9 0 10 0;
#X connect 10 0 8 0;
#X connect 11 0 12 0;
#X connect 11 1 13 0;
#X connect 11 1 14 0;
#X connect 12 0 20 0;
#X connect 12 0 26 0;
#X connect 13 0 12 0;
#X connect 13 0 26 0;
#X connect 14 0 24 0;
#X connect 15 0 6 0;
#X connect 15 1 5 0;
#X connect 15 2 16 0;
#X connect 16 0 24 0;
#X connect 17 0 18 0;
#X connect 19 0 27 0;
#X connect 19 0 46 0;
#X connect 21 0 19 0;
#X connect 22 0 9 0;
#X connect 23 0 9 1;
#X connect 25 0 1 0;
#X connect 26 0 15 0;
#X connect 27 0 28 0;
#X connect 27 1 29 0;
#X connect 27 2 30 0;
#X connect 27 3 31 0;
#X connect 27 4 32 0;
#X connect 27 5 33 0;
#X connect 27 6 34 0;
#X connect 27 7 35 0;
#X connect 28 0 55 0;
#X connect 29 0 55 0;
#X connect 30 0 55 0;
#X connect 31 0 55 0;
#X connect 32 0 55 0;
#X connect 33 0 55 0;
#X connect 34 0 55 0;
#X connect 35 0 55 0;
#X connect 36 0 55 0;
#X connect 37 0 55 0;
#X connect 38 0 55 0;
#X connect 39 0 55 0;
#X connect 40 0 55 0;
#X connect 41 0 55 0;
#X connect 42 0 55 0;
#X connect 43 0 55 0;
#X connect 44 0 55 0;
#X connect 46 0 36 0;
#X connect 46 1 40 0;
#X connect 46 2 47 0;
#X connect 46 3 48 0;
#X connect 46 4 49 0;
#X connect 46 5 41 0;
#X connect 46 6 43 0;
#X connect 46 7 42 0;
#X connect 46 8 44 0;
#X connect 46 9 50 0;
#X connect 46 10 51 0;
#X connect 46 11 52 0;
#X connect 46 12 53 0;
#X connect 46 13 37 0;
#X connect 46 14 38 0;
#X connect 46 15 39 0;
#X connect 47 0 55 0;
#X connect 48 0 55 0;
#X connect 49 0 55 0;
#X connect 50 0 55 0;
#X connect 51 0 55 0;
#X connect 52 0 55 0;
#X connect 53 0 55 0;
#X connect 54 0 21 0;
#X connect 55 0 62 0;
#X connect 56 0 57 0;
#X connect 57 0 58 0;
#X connect 57 1 59 0;
#X connect 58 0 60 1;
#X connect 59 0 60 1;
#X connect 60 0 17 0;
#X connect 61 0 56 0;
#X connect 62 0 56 1;
#X connect 62 0 60 0;
#X connect 62 1 61 0;
#X connect 62 2 61 1;
#X connect 63 0 64 0;
#X connect 64 0 65 0;
#X connect 65 0 61 1;
#X restore 33 217 pd oled;
#X obj 392 118 r loadbang-\$1;
#X obj 392 226 lop~ 5;
#X obj 392 183 line;
#X obj 392 205 sig~ 0;
#X obj 227 242 *~;
#X obj 329 242 *~;
#X obj 392 141 delay 600;
#X msg 392 162 1 600;
#X msg 33 53 pd~ start -nogui pd~-fission.pd;
#X obj 33 175 pd~ -ninsig 0 -noutsig 2;
#X obj 299 117 r playing;
#X obj 299 138 sel 0;
#X obj 299 158 s mcActive-\$1;
#X connect 0 0 21 0;
#X connect 10 0 22 0;
#X connect 13 0 19 0;
#X connect 14 0 18 1;
#X connect 14 0 17 1;
#X connect 15 0 16 0;
#X connect 16 0 14 0;
#X connect 17 0 1 0;
#X connect 18 0 2 0;
#X connect 19 0 20 0;
#X connect 20 0 15 0;
#X connect 21 0 22 0;
#X connect 22 1 12 0;
#X connect 22 1 17 0;
#X connect 22 2 12 1;
#X connect 22 2 18 0;
#X connect 23 0 24 0;
#X connect 24 1 25 0;
