#N canvas 763 223 1132 644 10;
#X obj 35 102 pack f f, f 16;
#X obj 95 404 / 100;
#X obj 152 404 / 100;
#X obj 294 404 / 100;
#X obj 351 404 / 100;
#X obj 504 404 / 100;
#X obj 562 404 / 100;
#X obj 344 32 r notes;
#X obj 262 86 r velocity, f 12;
#X obj 36 32 loadbang;
#X msg 36 53 \; pd dsp 1;
#X obj 115 32 r valuem;
#X obj 175 32 r controllerm;
#X obj 266 32 r channelm;
#X obj 115 56 pack 0 0 0;
#X text 187 57 ctrlIn;
#X obj 408 616 dac~ 1 2;
#X obj 419 366 loadbang;
#X msg 419 387 100;
#X obj 79 602 o_2pan;
#X obj 138 602 o_2pan;
#X obj 79 572 *~;
#X obj 138 572 *~;
#X obj 170 473 sig~;
#X obj 170 498 lop~ 5;
#X obj 112 473 sig~;
#X obj 112 498 lop~ 5;
#X msg 420 457 0.5;
#X text 389 584 "pan" -1 to 1;
#X obj 150 527 sig~;
#X obj 150 548 lop~ 5;
#X obj 92 529 sig~;
#X obj 92 550 lop~ 5;
#X obj 843 102 pack f f, f 16;
#X obj 113 449 r pan-1;
#X obj 171 450 r pan-2;
#X obj 95 386 r mix-1;
#X obj 278 601 o_2pan;
#X obj 337 601 o_2pan;
#X obj 278 571 *~;
#X obj 337 571 *~;
#X obj 369 472 sig~;
#X obj 369 497 lop~ 5;
#X obj 310 474 sig~;
#X obj 310 499 lop~ 5;
#X obj 349 526 sig~;
#X obj 349 547 lop~ 5;
#X obj 291 528 sig~;
#X obj 291 549 lop~ 5;
#X obj 311 450 r pan-3;
#X obj 370 449 r pan-4;
#X obj 489 601 o_2pan;
#X obj 548 601 o_2pan;
#X obj 489 571 *~;
#X obj 548 571 *~;
#X obj 580 472 sig~;
#X obj 580 497 lop~ 5;
#X obj 521 472 sig~;
#X obj 521 497 lop~ 5;
#X obj 560 526 sig~;
#X obj 560 547 lop~ 5;
#X obj 502 528 sig~;
#X obj 502 549 lop~ 5;
#X obj 693 602 o_2pan;
#X obj 752 602 o_2pan;
#X obj 693 572 *~;
#X obj 752 572 *~;
#X obj 784 473 sig~;
#X obj 784 498 lop~ 5;
#X obj 725 473 sig~;
#X obj 725 498 lop~ 5;
#X obj 764 527 sig~;
#X obj 764 548 lop~ 5;
#X obj 706 529 sig~;
#X obj 706 550 lop~ 5;
#X obj 522 448 r pan-5;
#X obj 581 449 r pan-6;
#X obj 726 449 r pan-7;
#X obj 785 450 r pan-8;
#X obj 152 386 r mix-2;
#X obj 294 386 r mix-3;
#X obj 351 386 r mix-4;
#X obj 504 386 r mix-5;
#X obj 562 386 r mix-6;
#X obj 708 404 / 100;
#X obj 766 404 / 100;
#X obj 708 386 r mix-7;
#X obj 766 386 r mix-8;
#X obj 150 102 pack f f, f 16;
#X obj 265 102 pack f f, f 16;
#X obj 381 102 pack f f, f 16;
#X obj 496 102 pack f f, f 16;
#X obj 611 102 pack f f, f 16;
#X obj 727 102 pack f f, f 16;
#X obj 48 234 *~;
#X obj 63 191 sig~;
#X obj 63 212 lop~ 5;
#X obj 161 234 *~;
#X obj 176 191 sig~;
#X obj 176 212 lop~ 5;
#X obj 274 234 *~;
#X obj 289 191 sig~;
#X obj 289 212 lop~ 5;
#X obj 387 234 *~;
#X obj 402 191 sig~;
#X obj 402 212 lop~ 5;
#X obj 473 234 *~;
#X obj 488 191 sig~;
#X obj 488 212 lop~ 5;
#X obj 586 234 *~;
#X obj 601 191 sig~;
#X obj 601 212 lop~ 5;
#X obj 699 234 *~;
#X obj 714 191 sig~;
#X obj 714 212 lop~ 5;
#X obj 812 234 *~;
#X obj 827 191 sig~;
#X obj 827 212 lop~ 5;
#X obj 995 604 +~;
#X obj 1048 604 +~;
#X obj 531 27 loadbang;
#X msg 531 48 0;
#X obj 35 120 plaits_module 1 \$1;
#X obj 150 121 plaits_module 2 \$1;
#X obj 265 120 plaits_module 3 \$1;
#X obj 381 120 plaits_module 4 \$1;
#X obj 496 120 plaits_module 5 \$1;
#X obj 611 120 plaits_module 6 \$1;
#X obj 727 120 plaits_module 7 \$1;
#X obj 843 120 plaits_module 8 \$1;
#X obj 344 86 route 60 62 64 65 67 69 71 72;
#X obj 63 167 * 0.001;
#X obj 176 167 * 0.001;
#X obj 289 167 * 0.001;
#X obj 402 167 * 0.001;
#X obj 488 167 * 0.001;
#X obj 601 167 * 0.001;
#X obj 714 167 * 0.001;
#X obj 827 167 * 0.001;
#X obj 63 146 r r-send-1;
#X obj 176 146 r r-send-2;
#X obj 289 146 r r-send-3;
#X obj 402 146 r r-send-4;
#X obj 488 146 r r-send-5;
#X obj 601 146 r r-send-6;
#X obj 714 146 r r-send-7;
#X obj 827 146 r r-send-8;
#X obj 59 347 *~;
#X obj 74 304 sig~;
#X obj 74 325 lop~ 5;
#X obj 172 347 *~;
#X obj 187 304 sig~;
#X obj 187 325 lop~ 5;
#X obj 285 347 *~;
#X obj 300 304 sig~;
#X obj 300 325 lop~ 5;
#X obj 398 347 *~;
#X obj 413 304 sig~;
#X obj 413 325 lop~ 5;
#X obj 484 347 *~;
#X obj 499 304 sig~;
#X obj 499 325 lop~ 5;
#X obj 597 347 *~;
#X obj 612 304 sig~;
#X obj 612 325 lop~ 5;
#X obj 710 347 *~;
#X obj 725 304 sig~;
#X obj 725 325 lop~ 5;
#X obj 823 347 *~;
#X obj 838 304 sig~;
#X obj 838 325 lop~ 5;
#X obj 74 280 * 0.001;
#X obj 187 280 * 0.001;
#X obj 300 280 * 0.001;
#X obj 413 280 * 0.001;
#X obj 499 280 * 0.001;
#X obj 612 280 * 0.001;
#X obj 725 280 * 0.001;
#X obj 838 280 * 0.001;
#X obj 74 259 r d-send-1;
#X obj 187 259 r d-send-2;
#X obj 300 259 r d-send-3;
#X obj 413 259 r d-send-4;
#X obj 499 259 r d-send-5;
#X obj 612 259 r d-send-6;
#X obj 725 259 r d-send-7;
#X obj 838 259 r d-send-8;
#N canvas 565 407 761 373 reverb 0;
#X obj 73 241 rngs_reverb~, f 15;
#X msg 534 136 lp \$1;
#X msg 344 136 time \$1;
#X msg 431 136 diffusion \$1;
#X obj 344 93 / 100;
#X obj 431 92 / 100;
#X obj 534 92 / 100;
#X obj 72 49 inlet~;
#X obj 74 313 outlet~;
#X obj 161 313 outlet~;
#X obj 344 48 r time;
#X obj 431 48 r diff;
#X obj 534 48 r cutoff;
#X obj 673 57 loadbang;
#X msg 673 78 50;
#X obj 72 70 hip~ 185;
#X obj 252 48 r r-amount;
#X obj 252 94 / 100;
#X obj 73 271 *~;
#X obj 161 271 *~;
#X obj 252 234 sig~;
#X obj 252 256 lop~ 5;
#X msg 673 227 1;
#X obj 72 92 *~ 0.5;
#X obj 73 292 *~ 5;
#X obj 161 292 *~ 5;
#X connect 0 0 18 0;
#X connect 0 1 19 0;
#X connect 1 0 0 0;
#X connect 2 0 0 0;
#X connect 3 0 0 0;
#X connect 4 0 2 0;
#X connect 5 0 3 0;
#X connect 6 0 1 0;
#X connect 7 0 15 0;
#X connect 10 0 4 0;
#X connect 11 0 5 0;
#X connect 12 0 6 0;
#X connect 13 0 14 0;
#X connect 14 0 4 0;
#X connect 14 0 5 0;
#X connect 14 0 6 0;
#X connect 14 0 17 0;
#X connect 14 0 22 0;
#X connect 15 0 23 0;
#X connect 16 0 17 0;
#X connect 17 0 20 0;
#X connect 18 0 24 0;
#X connect 19 0 25 0;
#X connect 20 0 21 0;
#X connect 21 0 19 1;
#X connect 21 0 18 1;
#X connect 22 0 0 2;
#X connect 23 0 0 0;
#X connect 23 0 0 1;
#X connect 24 0 8 0;
#X connect 25 0 9 0;
#X restore 995 250 pd reverb;
#N canvas 92 115 401 481 drive 0;
#X obj 176 40 inlet~;
#X obj 62 402 outlet~;
#X obj 146 399 outlet~;
#X obj 177 164 decimate~;
#X obj 61 178 overdrive~;
#X obj 76 224 r d-amount;
#X obj 61 155 r drive;
#X obj 202 101 r ratio;
#X obj 255 129 r bits;
#X obj 202 122 / 100;
#X obj 76 245 / 100;
#X obj 255 150 i;
#X obj 61 314 *~;
#X obj 76 270 sig~;
#X obj 76 291 lop~ 5;
#X obj 262 76 loadbang;
#X msg 263 96 1;
#X msg 295 96 32;
#X obj 202 143 max 0.1;
#X obj 62 41 inlet~;
#X connect 0 0 3 0;
#X connect 3 0 4 0;
#X connect 4 0 12 0;
#X connect 5 0 10 0;
#X connect 6 0 4 0;
#X connect 7 0 9 0;
#X connect 8 0 11 0;
#X connect 9 0 18 0;
#X connect 10 0 13 0;
#X connect 11 0 3 2;
#X connect 12 0 1 0;
#X connect 12 0 2 0;
#X connect 13 0 14 0;
#X connect 14 0 12 1;
#X connect 15 0 16 0;
#X connect 15 0 17 0;
#X connect 16 0 3 1;
#X connect 17 0 11 0;
#X connect 18 0 3 1;
#X connect 19 0 4 0;
#X restore 1010 363 pd drive;
#X f 9;
#X connect 0 0 122 0;
#X connect 1 0 31 0;
#X connect 2 0 29 0;
#X connect 3 0 47 0;
#X connect 4 0 45 0;
#X connect 5 0 61 0;
#X connect 6 0 59 0;
#X connect 7 0 130 0;
#X connect 8 0 0 1;
#X connect 8 0 88 1;
#X connect 8 0 89 1;
#X connect 8 0 90 1;
#X connect 8 0 91 1;
#X connect 8 0 92 1;
#X connect 8 0 93 1;
#X connect 8 0 33 1;
#X connect 9 0 10 0;
#X connect 11 0 14 0;
#X connect 12 0 14 1;
#X connect 13 0 14 2;
#X connect 17 0 18 0;
#X connect 17 0 27 0;
#X connect 18 0 1 0;
#X connect 18 0 2 0;
#X connect 18 0 3 0;
#X connect 18 0 4 0;
#X connect 18 0 5 0;
#X connect 18 0 6 0;
#X connect 18 0 84 0;
#X connect 18 0 85 0;
#X connect 19 0 16 0;
#X connect 19 1 16 1;
#X connect 20 0 16 0;
#X connect 20 1 16 1;
#X connect 21 0 19 0;
#X connect 21 0 94 0;
#X connect 21 0 147 0;
#X connect 22 0 20 0;
#X connect 22 0 97 0;
#X connect 22 0 150 0;
#X connect 23 0 24 0;
#X connect 24 0 20 1;
#X connect 25 0 26 0;
#X connect 26 0 19 1;
#X connect 27 0 25 0;
#X connect 27 0 23 0;
#X connect 27 0 43 0;
#X connect 27 0 41 0;
#X connect 27 0 57 0;
#X connect 27 0 55 0;
#X connect 27 0 69 0;
#X connect 27 0 67 0;
#X connect 29 0 30 0;
#X connect 30 0 22 1;
#X connect 31 0 32 0;
#X connect 32 0 21 1;
#X connect 33 0 129 0;
#X connect 34 0 25 0;
#X connect 35 0 23 0;
#X connect 36 0 1 0;
#X connect 37 0 16 0;
#X connect 37 1 16 1;
#X connect 38 0 16 0;
#X connect 38 1 16 1;
#X connect 39 0 37 0;
#X connect 39 0 100 0;
#X connect 39 0 153 0;
#X connect 40 0 38 0;
#X connect 40 0 103 0;
#X connect 40 0 156 0;
#X connect 41 0 42 0;
#X connect 42 0 38 1;
#X connect 43 0 44 0;
#X connect 44 0 37 1;
#X connect 45 0 46 0;
#X connect 46 0 40 1;
#X connect 47 0 48 0;
#X connect 48 0 39 1;
#X connect 49 0 43 0;
#X connect 50 0 41 0;
#X connect 51 0 16 0;
#X connect 51 1 16 1;
#X connect 52 0 16 0;
#X connect 52 1 16 1;
#X connect 53 0 51 0;
#X connect 53 0 106 0;
#X connect 53 0 159 0;
#X connect 54 0 52 0;
#X connect 54 0 109 0;
#X connect 54 0 162 0;
#X connect 55 0 56 0;
#X connect 56 0 52 1;
#X connect 57 0 58 0;
#X connect 58 0 51 1;
#X connect 59 0 60 0;
#X connect 60 0 54 1;
#X connect 61 0 62 0;
#X connect 62 0 53 1;
#X connect 63 0 16 0;
#X connect 63 1 16 1;
#X connect 64 0 16 0;
#X connect 64 1 16 1;
#X connect 65 0 63 0;
#X connect 65 0 112 0;
#X connect 65 0 165 0;
#X connect 66 0 64 0;
#X connect 66 0 115 0;
#X connect 66 0 168 0;
#X connect 67 0 68 0;
#X connect 68 0 64 1;
#X connect 69 0 70 0;
#X connect 70 0 63 1;
#X connect 71 0 72 0;
#X connect 72 0 66 1;
#X connect 73 0 74 0;
#X connect 74 0 65 1;
#X connect 75 0 57 0;
#X connect 76 0 55 0;
#X connect 77 0 69 0;
#X connect 78 0 67 0;
#X connect 79 0 2 0;
#X connect 80 0 3 0;
#X connect 81 0 4 0;
#X connect 82 0 5 0;
#X connect 83 0 6 0;
#X connect 84 0 73 0;
#X connect 85 0 71 0;
#X connect 86 0 84 0;
#X connect 87 0 85 0;
#X connect 88 0 123 0;
#X connect 89 0 124 0;
#X connect 90 0 125 0;
#X connect 91 0 126 0;
#X connect 92 0 127 0;
#X connect 93 0 128 0;
#X connect 94 0 187 0;
#X connect 95 0 96 0;
#X connect 96 0 94 1;
#X connect 97 0 187 0;
#X connect 98 0 99 0;
#X connect 99 0 97 1;
#X connect 100 0 187 0;
#X connect 101 0 102 0;
#X connect 102 0 100 1;
#X connect 103 0 187 0;
#X connect 104 0 105 0;
#X connect 105 0 103 1;
#X connect 106 0 187 0;
#X connect 107 0 108 0;
#X connect 108 0 106 1;
#X connect 109 0 187 0;
#X connect 110 0 111 0;
#X connect 111 0 109 1;
#X connect 112 0 187 0;
#X connect 113 0 114 0;
#X connect 114 0 112 1;
#X connect 115 0 187 0;
#X connect 116 0 117 0;
#X connect 117 0 115 1;
#X connect 118 0 16 0;
#X connect 119 0 16 1;
#X connect 120 0 121 0;
#X connect 121 0 131 0;
#X connect 121 0 132 0;
#X connect 121 0 133 0;
#X connect 121 0 134 0;
#X connect 121 0 135 0;
#X connect 121 0 136 0;
#X connect 121 0 137 0;
#X connect 121 0 138 0;
#X connect 122 0 21 0;
#X connect 123 0 22 0;
#X connect 124 0 39 0;
#X connect 125 0 40 0;
#X connect 126 0 53 0;
#X connect 127 0 54 0;
#X connect 128 0 65 0;
#X connect 129 0 66 0;
#X connect 130 0 0 0;
#X connect 130 1 88 0;
#X connect 130 2 89 0;
#X connect 130 3 90 0;
#X connect 130 4 91 0;
#X connect 130 5 92 0;
#X connect 130 6 93 0;
#X connect 130 7 33 0;
#X connect 131 0 95 0;
#X connect 132 0 98 0;
#X connect 133 0 101 0;
#X connect 134 0 104 0;
#X connect 135 0 107 0;
#X connect 136 0 110 0;
#X connect 137 0 113 0;
#X connect 138 0 116 0;
#X connect 139 0 131 0;
#X connect 140 0 132 0;
#X connect 141 0 133 0;
#X connect 142 0 134 0;
#X connect 143 0 135 0;
#X connect 144 0 136 0;
#X connect 145 0 137 0;
#X connect 146 0 138 0;
#X connect 147 0 188 0;
#X connect 148 0 149 0;
#X connect 149 0 147 1;
#X connect 150 0 188 1;
#X connect 151 0 152 0;
#X connect 152 0 150 1;
#X connect 153 0 188 1;
#X connect 154 0 155 0;
#X connect 155 0 153 1;
#X connect 156 0 188 1;
#X connect 157 0 158 0;
#X connect 158 0 156 1;
#X connect 159 0 188 0;
#X connect 160 0 161 0;
#X connect 161 0 159 1;
#X connect 162 0 188 1;
#X connect 163 0 164 0;
#X connect 164 0 162 1;
#X connect 165 0 188 1;
#X connect 166 0 167 0;
#X connect 167 0 165 1;
#X connect 168 0 188 1;
#X connect 169 0 170 0;
#X connect 170 0 168 1;
#X connect 171 0 148 0;
#X connect 172 0 151 0;
#X connect 173 0 154 0;
#X connect 174 0 157 0;
#X connect 175 0 160 0;
#X connect 176 0 163 0;
#X connect 177 0 166 0;
#X connect 178 0 169 0;
#X connect 179 0 171 0;
#X connect 180 0 172 0;
#X connect 181 0 173 0;
#X connect 182 0 174 0;
#X connect 183 0 175 0;
#X connect 184 0 176 0;
#X connect 185 0 177 0;
#X connect 186 0 178 0;
#X connect 187 0 118 0;
#X connect 187 1 119 0;
#X connect 188 0 118 1;
#X connect 188 1 119 1;
