#N canvas 801 271 1085 667 10;
#X obj 410 420 plts~;
#X msg 520 280 harmonics \$1;
#X msg 525 319 timbre \$1;
#X msg 603 302 morph \$1;
#X msg 623 323 lpg_colour \$1;
#X msg 711 444 decay \$1;
#X msg 791 281 mod_fm \$1;
#X msg 814 304 mod_morph \$1;
#X msg 767 258 mod_timbre \$1;
#X obj 353 190 > 0;
#X obj 939 431 vsl 15 128 0 1 0 0 empty empty har 0 -9 0 10 -262144
-1 -1 0 1;
#X obj 962 431 vsl 15 128 0 1 0 0 empty empty tim 0 -9 0 10 -262144
-1 -1 0 1;
#X obj 984 431 vsl 15 128 0 1 0 0 empty empty mor 0 -9 0 10 -262144
-1 -1 0 1;
#X obj 1007 431 vsl 15 128 0 1 0 0 empty empty lpg 0 -9 0 10 -262144
-1 -1 0 1;
#X obj 1030 431 vsl 15 128 0 1 0 0 empty empty dec 0 -9 0 10 -262144
-1 -1 0 1;
#X obj 1150 431 vsl 15 128 -1 1 0 0 empty empty mti 0 -9 0 10 -262144
-1 -1 0 1;
#X obj 1174 431 vsl 15 128 -1 1 0 0 empty empty fm 0 -9 0 10 -262144
-1 -1 0 1;
#X obj 1197 431 vsl 15 128 -1 1 0 0 empty empty mmo 0 -9 0 10 -262144
-1 -1 0 1;
#X msg 338 336 pitch \$1;
#X obj 278 232 + 0;
#X obj 336 268 - 60;
#X obj 242 144 notein_mono;
#X obj 321 108 poly 1 1;
#X obj 106 150 t b f;
#X obj 520 240 / 100;
#X obj 568 217 / 100;
#X obj 603 283 / 100;
#X obj 638 266 / 100;
#X obj 730 402 / 100;
#X obj 322 154 + 1.46;
#X text 289 174 48 khz;
#X obj 242 28 inlet;
#X msg 224 387 trigger_active 1;
#X obj 613 215 max 0;
#X obj 106 132 +;
#X obj 520 102 +;
#X obj 568 138 +;
#X obj 613 197 +;
#X obj 520 120 max 0;
#X obj 520 138 min 100;
#X obj 568 158 max 0;
#X obj 568 176 min 100;
#X obj 613 233 min 100;
#X obj 114 102 t b f;
#X obj 535 42 t b f;
#X obj 583 98 t b f;
#X obj 628 177 t b f;
#X obj 114 79 r semitone;
#X obj 535 24 r harmonics;
#X obj 583 80 r timbre;
#X obj 628 159 r morph;
#X obj 763 162 r mod_timbre;
#X obj 822 185 r mod_fm;
#X obj 865 226 r mod_morph;
#X obj 741 373 r decay;
#X obj 669 236 r lpg_colour;
#X obj 102 577 outlet~;
#X obj 371 8 loadbang;
#X msg 416 42 0;
#X msg 415 88 50;
#X obj 372 41 t b b;
#X msg 415 117 75;
#X msg 415 65 28;
#X obj 520 6 r harmonics-\$1;
#X obj 106 50 r semitone-\$1;
#X msg 350 219 trigger \$1;
#X obj 568 62 r timbre-\$1;
#X obj 443 249 r model-\$1;
#X obj 613 118 r morph-\$1;
#X msg 457 291 model \$1;
#X msg 411 274 13;
#X obj 71 295 r aux-\$1;
#X obj 171 364 == 0;
#X obj 172 388 *~ 1;
#X obj 26 389 *~ 0;
#X obj 103 493 +~;
#X obj 25 478 *~ 0.5;
#X obj 172 480 *~ 0.5;
#X obj 351 301 / 12;
#X obj 242 49 unpack f f;
#X obj 242 93 pack f f, f 10;
#X msg 242 69 48;
#X obj 223 348 loadbang;
#X obj 245 501 spigot 0;
#X obj 245 522 / 127;
#X obj 103 536 *~ 1, f 5;
#X connect 0 0 74 0;
#X connect 0 1 73 0;
#X connect 1 0 0 0;
#X connect 2 0 0 0;
#X connect 3 0 0 0;
#X connect 4 0 0 0;
#X connect 5 0 0 0;
#X connect 6 0 0 0;
#X connect 7 0 0 0;
#X connect 8 0 0 0;
#X connect 9 0 65 0;
#X connect 9 0 83 1;
#X connect 18 0 0 0;
#X connect 19 0 20 0;
#X connect 20 0 78 0;
#X connect 22 1 29 0;
#X connect 22 2 9 0;
#X connect 22 2 83 0;
#X connect 23 0 19 0;
#X connect 23 1 19 1;
#X connect 24 0 1 0;
#X connect 25 0 2 0;
#X connect 26 0 3 0;
#X connect 27 0 4 0;
#X connect 28 0 5 0;
#X connect 29 0 19 0;
#X connect 31 0 79 0;
#X connect 32 0 0 0;
#X connect 33 0 42 0;
#X connect 34 0 23 0;
#X connect 35 0 38 0;
#X connect 36 0 40 0;
#X connect 37 0 33 0;
#X connect 38 0 39 0;
#X connect 39 0 24 0;
#X connect 40 0 41 0;
#X connect 41 0 25 0;
#X connect 42 0 26 0;
#X connect 43 0 34 0;
#X connect 43 1 34 1;
#X connect 44 0 35 0;
#X connect 44 1 35 1;
#X connect 45 0 36 0;
#X connect 45 1 36 1;
#X connect 46 0 37 0;
#X connect 46 1 37 1;
#X connect 47 0 43 0;
#X connect 48 0 44 0;
#X connect 49 0 45 0;
#X connect 50 0 46 0;
#X connect 51 0 8 0;
#X connect 52 0 6 0;
#X connect 53 0 7 0;
#X connect 54 0 28 0;
#X connect 55 0 27 0;
#X connect 58 0 43 0;
#X connect 58 0 44 0;
#X connect 58 0 45 0;
#X connect 58 0 46 0;
#X connect 58 0 8 0;
#X connect 58 0 6 0;
#X connect 58 0 7 0;
#X connect 58 0 74 1;
#X connect 58 0 72 0;
#X connect 59 0 35 0;
#X connect 59 0 28 0;
#X connect 59 0 37 0;
#X connect 59 0 27 0;
#X connect 60 0 62 0;
#X connect 60 0 59 0;
#X connect 60 0 61 0;
#X connect 60 1 58 0;
#X connect 61 0 36 0;
#X connect 62 0 34 0;
#X connect 63 0 35 0;
#X connect 64 0 34 0;
#X connect 65 0 0 0;
#X connect 66 0 36 0;
#X connect 67 0 69 0;
#X connect 68 0 37 0;
#X connect 69 0 0 0;
#X connect 70 0 69 0;
#X connect 71 0 72 0;
#X connect 71 0 74 1;
#X connect 72 0 73 1;
#X connect 73 0 76 0;
#X connect 73 0 77 0;
#X connect 74 0 76 0;
#X connect 74 0 77 0;
#X connect 75 0 85 0;
#X connect 76 0 75 0;
#X connect 77 0 75 1;
#X connect 78 0 18 0;
#X connect 79 0 81 0;
#X connect 79 1 80 1;
#X connect 80 0 21 0;
#X connect 80 0 22 0;
#X connect 81 0 80 0;
#X connect 82 0 32 0;
#X connect 83 0 84 0;
#X connect 84 0 85 1;
#X connect 85 0 56 0;
