#N canvas 476 252 1370 729 10;
#X obj 305 434 s notesOut-\$1;
#X obj 18 130 inlet~ inL;
#X obj 104 437 outlet~ outR;
#X obj 11 435 outlet~ outL;
#X obj 103 130 inlet~ inR;
#X obj 203 131 r auxIn-\$1;
#X obj 202 154 r expIn-\$1;
#X obj 202 179 r fsIn-\$1;
#X text 363 197 pitch issue?;
#X obj 204 424 s ctrlOut-\$1;
#X obj 240 239 r loadbang-\$1;
#X obj 48 344 pd~ -ninsig 2 -noutsig 2;
#N canvas 4 50 1380 787 subparams 0;
#X msg 203 138 bypass \$1;
#X msg 64 138 easter_egg \$1;
#X msg 603 134 gen_note \$1;
#X msg 462 137 gen_exciter \$1;
#X msg 317 138 gen_strum \$1;
#X msg 718 132 chord \$1;
#X msg 871 133 fm \$1;
#X obj 64 44 r rngs_easter-\$1;
#X obj 203 44 r rngs_bypass-\$1;
#X obj 317 44 r rngs_i_strum-\$1;
#X obj 462 44 r rngs_i_exciter-\$1;
#X obj 603 44 r rngs_i_note-\$1;
#X obj 718 44 r rngs_chord-\$1;
#X obj 871 45 r rngs_fm-\$1;
#X obj 828 366 / 100;
#X obj 932 386 / 100;
#X obj 1035 366 / 100;
#X obj 788 543 / 100;
#X msg 519 439 pitch \$1;
#X msg 828 417 structure \$1;
#X msg 932 417 brightness \$1;
#X msg 1035 417 damping \$1;
#X msg 788 579 position \$1;
#X msg 918 579 poly \$1;
#X msg 1031 579 model \$1;
#X msg 704 417 transpose \$1;
#X obj 583 378 > 0;
#X msg 583 417 trig \$1;
#X obj 519 331 spigot 0;
#X obj 583 331 > 0;
#X obj 502 251 r notesIn-\$1;
#X obj 828 275 r rngs_struct-\$1;
#X obj 932 275 r rngs_bright-\$1;
#X obj 1035 275 r rngs_damp-\$1;
#X obj 788 462 r rngs_pos-\$1;
#X obj 918 463 r rngs_poly-\$1;
#X obj 1031 463 r rngs_model-\$1;
#X obj 519 413 + 1.46;
#X obj 1218 152 r ctrlIn-\$1;
#X obj 880 364 t b f;
#X obj 932 358 + 0;
#X obj 519 392 + 0;
#X obj 1220 319 t b f;
#X obj 704 329 r rngs_tune-\$1;
#X obj 519 362 + 0;
#X obj 689 264 r rngs_finetune-\$1;
#X obj 689 308 / 100;
#X obj 1038 175 r pb_range-\$1;
#X obj 1038 196 * 2;
#X obj 1220 298 * 2;
#X obj 828 396 + 0;
#X obj 1219 217 unpack 0 0;
#X obj 1219 238 - 0.5;
#X obj 508 293 poly 1 1;
#X msg 767 224 stop;
#X obj 1219 196 route 0 2 123;
#X obj 767 203 t b;
#X obj 394 676 outlet;
#X floatatom 64 65 5 0 0 0 - - -;
#X floatatom 203 65 5 0 0 0 - - -;
#X floatatom 317 65 5 0 0 0 - - -;
#X floatatom 462 65 5 0 0 0 - - -;
#X floatatom 603 65 5 0 0 0 - - -;
#X floatatom 718 65 5 0 0 0 - - -;
#X floatatom 871 66 5 0 0 0 - - -;
#X floatatom 788 483 5 0 0 0 - - -;
#X floatatom 918 484 5 0 0 0 - - -;
#X floatatom 1031 484 5 0 0 0 - - -;
#X floatatom 828 296 5 0 0 0 - - -;
#X floatatom 932 296 5 0 0 0 - - -;
#X floatatom 1035 296 5 0 0 0 - - -;
#X floatatom 704 350 5 0 0 0 - - -;
#X floatatom 689 285 5 0 0 0 - - -;
#X obj 992 75 r loaded-\$1;
#X connect 0 0 57 0;
#X connect 1 0 57 0;
#X connect 2 0 57 0;
#X connect 3 0 57 0;
#X connect 4 0 57 0;
#X connect 5 0 57 0;
#X connect 6 0 57 0;
#X connect 7 0 58 0;
#X connect 8 0 59 0;
#X connect 9 0 60 0;
#X connect 10 0 61 0;
#X connect 11 0 62 0;
#X connect 12 0 63 0;
#X connect 13 0 64 0;
#X connect 14 0 50 0;
#X connect 15 0 20 0;
#X connect 16 0 21 0;
#X connect 17 0 22 0;
#X connect 18 0 57 0;
#X connect 19 0 57 0;
#X connect 20 0 57 0;
#X connect 21 0 57 0;
#X connect 22 0 57 0;
#X connect 23 0 57 0;
#X connect 24 0 57 0;
#X connect 25 0 57 0;
#X connect 26 0 27 0;
#X connect 27 0 57 0;
#X connect 28 0 44 0;
#X connect 29 0 26 0;
#X connect 30 0 53 0;
#X connect 31 0 68 0;
#X connect 32 0 69 0;
#X connect 33 0 70 0;
#X connect 34 0 65 0;
#X connect 35 0 66 0;
#X connect 36 0 67 0;
#X connect 37 0 18 0;
#X connect 38 0 55 0;
#X connect 39 0 50 0;
#X connect 39 1 50 1;
#X connect 40 0 15 0;
#X connect 41 0 37 0;
#X connect 42 0 41 0;
#X connect 42 1 41 1;
#X connect 43 0 71 0;
#X connect 44 0 41 0;
#X connect 45 0 72 0;
#X connect 46 0 44 1;
#X connect 47 0 48 0;
#X connect 48 0 49 1;
#X connect 49 0 42 0;
#X connect 50 0 19 0;
#X connect 51 0 52 0;
#X connect 52 0 49 0;
#X connect 53 1 28 0;
#X connect 53 2 29 0;
#X connect 53 2 28 1;
#X connect 54 0 53 0;
#X connect 55 0 51 0;
#X connect 55 1 39 0;
#X connect 55 2 56 0;
#X connect 56 0 54 0;
#X connect 58 0 1 0;
#X connect 59 0 0 0;
#X connect 60 0 4 0;
#X connect 61 0 3 0;
#X connect 62 0 2 0;
#X connect 63 0 5 0;
#X connect 64 0 6 0;
#X connect 65 0 17 0;
#X connect 66 0 23 0;
#X connect 67 0 24 0;
#X connect 68 0 14 0;
#X connect 69 0 40 0;
#X connect 70 0 16 0;
#X connect 71 0 25 0;
#X connect 72 0 46 0;
#X connect 73 0 58 0;
#X connect 73 0 59 0;
#X connect 73 0 60 0;
#X connect 73 0 61 0;
#X connect 73 0 62 0;
#X connect 73 0 63 0;
#X connect 73 0 64 0;
#X connect 73 0 68 0;
#X connect 73 0 69 0;
#X connect 73 0 70 0;
#X connect 73 0 72 0;
#X connect 73 0 71 0;
#X connect 73 0 65 0;
#X connect 73 0 66 0;
#X connect 73 0 67 0;
#X restore 254 288 pd subparams;
#X obj 380 345 route loaded;
#X obj 355 401 print loaded;
#X obj 446 384 s loaded-\$1;
#X obj 415 374 bng 15 250 50 0 empty empty empty 17 7 0 10 -262144
-1 -1;
#X obj 95 383 *~;
#X obj 138 382 *~;
#X obj 500 212 r volume-\$1;
#X obj 500 233 / 100;
#X msg 240 260 pd~ start -nogui pd~-rings.pd;
#X connect 1 0 11 0;
#X connect 4 0 11 1;
#X connect 10 0 21 0;
#X connect 11 0 13 0;
#X connect 11 1 17 0;
#X connect 11 2 18 0;
#X connect 12 0 11 0;
#X connect 13 0 14 0;
#X connect 13 0 16 0;
#X connect 16 0 15 0;
#X connect 17 0 3 0;
#X connect 18 0 2 0;
#X connect 19 0 20 0;
#X connect 20 0 18 1;
#X connect 20 0 17 1;
#X connect 21 0 11 0;
