#N canvas 97 92 1370 729 10;
#X obj 40 299 rngs~;
#X msg 489 324 pitch \$1;
#X msg 798 302 structure \$1;
#X msg 902 302 brightness \$1;
#X msg 1005 302 damping \$1;
#X msg 758 464 position \$1;
#X msg 376 655 bypass \$1;
#X msg 237 655 easter_egg \$1;
#X msg 888 464 poly \$1;
#X msg 1001 464 model \$1;
#X msg 674 302 transpose \$1;
#X msg 776 651 gen_note \$1;
#X msg 635 654 gen_exciter \$1;
#X msg 490 655 gen_strum \$1;
#X msg 891 649 chord \$1;
#X msg 1044 650 fm \$1;
#X msg 553 302 trig \$1;
#X text 13 318 odd;
#X text 82 314 even;
#X text 399 267 pitch issue?;
#X obj 494 259 r pitch;
#X obj 560 254 r trig;
#X obj 674 214 r transpose;
#X obj 798 214 r structure;
#X obj 902 214 r brightness;
#X obj 1005 214 r damping;
#X obj 41 410 dac~;
#X obj 74 220 r rngs_params;
#X obj 489 409 s rngs_params;
#X obj 758 391 r position;
#X obj 888 392 r poly;
#X obj 1001 392 r model;
#X obj 237 561 r easter_egg;
#X obj 376 561 r bypass;
#X obj 490 561 r gen_strum;
#X obj 635 561 r gen_exciter;
#X obj 776 561 r gen_note;
#X obj 891 561 r chord;
#X obj 1044 562 r fm;
#X obj 888 521 s rngs_params;
#X obj 635 783 s rngs_params;
#X obj 279 142 loadbang;
#X msg 306 190 \; pd dsp 1;
#X obj 43 152 adc~;
#X floatatom 1001 413 5 0 0 0 - - -;
#X obj 279 163 t b b;
#X obj 336 391 stdout;
#X msg 279 308 loaded 1;
#X connect 0 0 26 0;
#X connect 0 1 26 1;
#X connect 1 0 28 0;
#X connect 2 0 28 0;
#X connect 3 0 28 0;
#X connect 4 0 28 0;
#X connect 5 0 39 0;
#X connect 6 0 40 0;
#X connect 7 0 40 0;
#X connect 8 0 39 0;
#X connect 9 0 39 0;
#X connect 10 0 28 0;
#X connect 11 0 40 0;
#X connect 12 0 40 0;
#X connect 13 0 40 0;
#X connect 14 0 40 0;
#X connect 15 0 40 0;
#X connect 16 0 28 0;
#X connect 20 0 1 0;
#X connect 21 0 16 0;
#X connect 22 0 10 0;
#X connect 23 0 2 0;
#X connect 24 0 3 0;
#X connect 25 0 4 0;
#X connect 27 0 0 0;
#X connect 29 0 5 0;
#X connect 30 0 8 0;
#X connect 31 0 9 0;
#X connect 31 0 44 0;
#X connect 32 0 7 0;
#X connect 33 0 6 0;
#X connect 34 0 13 0;
#X connect 35 0 12 0;
#X connect 36 0 11 0;
#X connect 37 0 14 0;
#X connect 38 0 15 0;
#X connect 41 0 45 0;
#X connect 43 0 0 0;
#X connect 45 0 47 0;
#X connect 45 1 42 0;
#X connect 47 0 46 0;
