#N canvas 788 340 676 442 10;
#X declare -path lib;
#N canvas 99 74 1502 829 MIDI 0;
#X obj 97 325 spigot 1;
#X obj 183 277 r midiInGate;
#X obj 95 389 / 127;
#X obj 95 282 change;
#X obj 294 317 spigot 1;
#X obj 382 273 r midiInGate;
#X obj 294 385 / 127;
#X obj 294 278 change;
#X obj 488 313 spigot 1;
#X obj 576 269 r midiInGate;
#X obj 488 381 / 127;
#X obj 488 274 change;
#X obj 686 312 spigot 1;
#X obj 774 268 r midiInGate;
#X obj 686 380 / 127;
#X obj 686 278 change;
#X obj 1159 684 spigot 1;
#X obj 1159 716 unpack;
#X obj 1159 748 noteout;
#X obj 1212 647 r midiOutGate;
#X obj 368 708 i;
#X obj 368 730 change;
#X obj 368 662 spigot 1;
#X obj 455 628 r midiOutGate;
#X obj 540 710 i;
#X obj 540 732 change;
#X obj 540 664 spigot 1;
#X obj 593 632 r midiOutGate;
#X obj 710 714 i;
#X obj 710 736 change;
#X obj 710 668 spigot 1;
#X obj 763 636 r midiOutGate;
#X obj 888 711 i;
#X obj 888 733 change;
#X obj 888 665 spigot 1;
#X obj 941 633 r midiOutGate;
#X obj 368 752 ctlout 21 1;
#X obj 540 754 ctlout 22 1;
#X obj 708 758 ctlout 23 1;
#X obj 888 755 ctlout 24 1;
#X text 767 190 MIDI in;
#X text 194 600 MIDI out;
#X obj 95 210 ctlin 21;
#X obj 936 248 notein;
#N canvas 667 404 743 412 chsel 0;
#X obj 159 28 r midiCh;
#X obj 67 61 swap;
#X obj 67 86 pack;
#X obj 44 29 inlet;
#X obj 97 28 inlet;
#X obj 67 347 outlet;
#X obj 67 169 route 1;
#X obj 120 211 spigot;
#X obj 159 167 == 0;
#X obj 120 234 unpack;
#X connect 0 0 6 1;
#X connect 0 0 8 0;
#X connect 1 0 2 0;
#X connect 1 1 2 1;
#X connect 2 0 6 0;
#X connect 3 0 1 0;
#X connect 4 0 1 1;
#X connect 6 0 5 0;
#X connect 6 1 7 0;
#X connect 7 0 9 0;
#X connect 8 0 7 1;
#X connect 9 1 5 0;
#X restore 95 241 pd chsel;
#N canvas 6 50 1280 956 chsel 0;
#X obj 187 417 pack;
#X obj 207 372 f;
#X obj 168 372 f;
#X obj 237 123 f;
#X obj 152 87 t b f;
#X obj 237 145 sel 1;
#X obj 237 325 t b b;
#X obj 342 33 r midiCh;
#X obj 117 35 inlet;
#X obj 199 37 inlet;
#X obj 274 39 inlet;
#X obj 186 444 outlet;
#X obj 325 173 spigot;
#X obj 364 129 == 0;
#X obj 302 246 bng 15 250 50 0 empty empty empty 17 7 0 10 #fcfcfc #000000 #000000;
#X connect 0 0 11 0;
#X connect 1 0 0 1;
#X connect 2 0 0 0;
#X connect 3 0 5 0;
#X connect 4 0 3 0;
#X connect 4 1 2 1;
#X connect 5 0 6 0;
#X connect 5 1 12 0;
#X connect 6 0 2 0;
#X connect 6 1 1 0;
#X connect 7 0 5 1;
#X connect 7 0 13 0;
#X connect 8 0 4 0;
#X connect 9 0 1 1;
#X connect 10 0 3 1;
#X connect 12 0 14 0;
#X connect 13 0 12 1;
#X connect 14 0 6 0;
#X restore 929 320 pd chsel;
#X obj 208 211 r midiCh;
#X floatatom 208 233 5 0 0 0 - - - 0;
#X obj 294 213 ctlin 22;
#X obj 488 222 ctlin 23;
#X obj 686 226 ctlin 24;
#X obj 689 31 r oscIn;
#X obj 689 53 routeOSC /midich;
#X floatatom 689 75 5 0 0 0 - - - 0;
#X obj 654 104 s midiCh;
#X obj 181 33 r oscIn;
#X floatatom 181 77 5 0 0 0 - - - 0;
#X obj 181 55 routeOSC /midiInGate;
#X obj 181 96 s midiInGate;
#X obj 504 30 r oscIn;
#X floatatom 504 74 5 0 0 0 - - - 0;
#X obj 504 52 routeOSC /midiOutGate;
#X obj 504 93 s midiOutGate;
#X obj 330 29 r oscIn;
#X floatatom 330 73 5 0 0 0 - - - 0;
#X obj 330 51 routeOSC /midiOutCh;
#X obj 330 92 s midiOutCh;
#X obj 39 32 r oscIn;
#X floatatom 39 76 5 0 0 0 - - - 0;
#X obj 39 95 s midiCh;
#X obj 39 54 routeOSC /midiInCh;
#X obj 724 105 s midiOutCh;
#X obj 442 718 r midiOutCh;
#X obj 614 722 r midiOutCh;
#X obj 782 722 r midiOutCh;
#X obj 962 708 r midiOutCh;
#X obj 1223 714 r midiOutCh;
#N canvas 312 499 743 412 chsel 0;
#X obj 159 28 r midiCh;
#X obj 67 61 swap;
#X obj 67 86 pack;
#X obj 44 29 inlet;
#X obj 97 28 inlet;
#X obj 67 347 outlet;
#X obj 67 169 route 1;
#X obj 120 211 spigot;
#X obj 159 167 == 0;
#X obj 120 234 unpack;
#X connect 0 0 6 1;
#X connect 0 0 8 0;
#X connect 1 0 2 0;
#X connect 1 1 2 1;
#X connect 2 0 6 0;
#X connect 3 0 1 0;
#X connect 4 0 1 1;
#X connect 6 0 5 0;
#X connect 6 1 7 0;
#X connect 7 0 9 0;
#X connect 8 0 7 1;
#X connect 9 1 5 0;
#X restore 294 245 pd chsel;
#N canvas 312 499 743 412 chsel 0;
#X obj 159 28 r midiCh;
#X obj 67 61 swap;
#X obj 67 86 pack;
#X obj 44 29 inlet;
#X obj 97 28 inlet;
#X obj 67 347 outlet;
#X obj 67 169 route 1;
#X obj 120 211 spigot;
#X obj 159 167 == 0;
#X obj 120 234 unpack;
#X connect 0 0 6 1;
#X connect 0 0 8 0;
#X connect 1 0 2 0;
#X connect 1 1 2 1;
#X connect 2 0 6 0;
#X connect 3 0 1 0;
#X connect 4 0 1 1;
#X connect 6 0 5 0;
#X connect 6 1 7 0;
#X connect 7 0 9 0;
#X connect 8 0 7 1;
#X connect 9 1 5 0;
#X restore 488 247 pd chsel;
#N canvas 312 499 743 412 chsel 0;
#X obj 159 28 r midiCh;
#X obj 67 61 swap;
#X obj 67 86 pack;
#X obj 44 29 inlet;
#X obj 97 28 inlet;
#X obj 67 347 outlet;
#X obj 67 169 route 1;
#X obj 120 211 spigot;
#X obj 159 167 == 0;
#X obj 120 234 unpack;
#X connect 0 0 6 1;
#X connect 0 0 8 0;
#X connect 1 0 2 0;
#X connect 1 1 2 1;
#X connect 2 0 6 0;
#X connect 3 0 1 0;
#X connect 4 0 1 1;
#X connect 6 0 5 0;
#X connect 6 1 7 0;
#X connect 7 0 9 0;
#X connect 8 0 7 1;
#X connect 9 1 5 0;
#X restore 684 251 pd chsel;
#X text 853 28 receive config;
#X obj 95 411 s knob1;
#X obj 294 407 s knob2;
#X obj 488 403 s knob3;
#X obj 686 402 s knob4;
#X obj 928 398 s midinotein;
#X obj 644 503 route knob1 knob2 knob3 knob4;
#X obj 368 686 * 127;
#X obj 540 688 * 127;
#X obj 710 692 * 127;
#X obj 888 689 * 127;
#X obj 1159 611 r midinoteout;
#X obj 644 470 r midiccout;
#X connect 0 0 2 0;
#X connect 1 0 0 1;
#X connect 2 0 81 0;
#X connect 3 0 0 0;
#X connect 4 0 6 0;
#X connect 5 0 4 1;
#X connect 6 0 82 0;
#X connect 7 0 4 0;
#X connect 8 0 10 0;
#X connect 9 0 8 1;
#X connect 10 0 83 0;
#X connect 11 0 8 0;
#X connect 12 0 14 0;
#X connect 13 0 12 1;
#X connect 14 0 84 0;
#X connect 15 0 12 0;
#X connect 16 0 17 0;
#X connect 17 0 18 0;
#X connect 17 1 18 1;
#X connect 19 0 16 1;
#X connect 20 0 21 0;
#X connect 21 0 36 0;
#X connect 22 0 87 0;
#X connect 23 0 22 1;
#X connect 24 0 25 0;
#X connect 25 0 37 0;
#X connect 26 0 88 0;
#X connect 27 0 26 1;
#X connect 28 0 29 0;
#X connect 29 0 38 0;
#X connect 30 0 89 0;
#X connect 31 0 30 1;
#X connect 32 0 33 0;
#X connect 33 0 39 0;
#X connect 34 0 90 0;
#X connect 35 0 34 1;
#X connect 42 0 44 0;
#X connect 42 1 44 1;
#X connect 43 0 45 0;
#X connect 43 1 45 1;
#X connect 43 2 45 2;
#X connect 44 0 3 0;
#X connect 45 0 85 0;
#X connect 46 0 47 0;
#X connect 48 0 77 0;
#X connect 48 1 77 1;
#X connect 49 0 78 0;
#X connect 49 1 78 1;
#X connect 50 0 79 0;
#X connect 50 1 79 1;
#X connect 51 0 52 0;
#X connect 52 0 53 0;
#X connect 53 0 54 0;
#X connect 53 0 71 0;
#X connect 55 0 57 0;
#X connect 56 0 58 0;
#X connect 57 0 56 0;
#X connect 59 0 61 0;
#X connect 60 0 62 0;
#X connect 61 0 60 0;
#X connect 63 0 65 0;
#X connect 64 0 66 0;
#X connect 65 0 64 0;
#X connect 67 0 70 0;
#X connect 68 0 69 0;
#X connect 70 0 68 0;
#X connect 72 0 36 2;
#X connect 73 0 37 2;
#X connect 74 0 38 2;
#X connect 75 0 39 2;
#X connect 76 0 18 2;
#X connect 77 0 7 0;
#X connect 78 0 11 0;
#X connect 79 0 15 0;
#X connect 86 0 22 0;
#X connect 86 1 26 0;
#X connect 86 2 30 0;
#X connect 86 3 34 0;
#X connect 87 0 20 0;
#X connect 88 0 24 0;
#X connect 89 0 28 0;
#X connect 90 0 32 0;
#X connect 91 0 16 0;
#X connect 92 0 86 0;
#X restore 70 186 pd MIDI;
#N canvas 63 115 1041 482 init 0;
#X msg 110 263 \; pd dsp 1, f 10;
#X obj 110 227 delay 200;
#X obj 327 213 delay 100;
#X msg 327 251 send /patchLoaded 1;
#X obj 327 276 s oscOut;
#X obj 110 135 loadbang;
#X obj 110 182 t b b b b, f 109;
#X obj 761 221 s initOSC;
#X obj 544 251 s initJam;
#N canvas 0 0 705 647 versioncheck 0;
#X obj 163 57 inlet;
#X obj 159 103 t b b b b b;
#X msg 483 195 0;
#X msg 207 194 rewind;
#X obj 200 290 textfile;
#X obj 197 351 f;
#X obj 199 445 sel 1 0;
#X obj 166 513 outlet;
#X obj 247 481 f \$1;
#X obj 84 388 print OSv;
#X obj 200 380 >= 4.4;
#X msg 285 516 \; oscOut /oled/line/2 Requires OS \; oscOut /oled/line/3 4.4 or later \;;
#X msg 268 196 read /home/music/fw_dir/version;
#X connect 0 0 1 0;
#X connect 1 0 5 0;
#X connect 1 1 4 0;
#X connect 1 2 3 0;
#X connect 1 3 12 0;
#X connect 1 4 2 0;
#X connect 2 0 5 1;
#X connect 3 0 4 0;
#X connect 4 0 5 1;
#X connect 4 0 9 0;
#X connect 5 0 10 0;
#X connect 6 0 7 0;
#X connect 6 1 8 0;
#X connect 8 0 11 0;
#X connect 10 0 6 0;
#X connect 12 0 4 0;
#X restore 544 216 pd versioncheck;
#X connect 1 0 0 0;
#X connect 2 0 3 0;
#X connect 3 0 4 0;
#X connect 5 0 6 0;
#X connect 6 0 1 0;
#X connect 6 1 2 0;
#X connect 6 2 9 0;
#X connect 6 3 7 0;
#X connect 9 0 8 0;
#X restore 73 126 pd init;
#N canvas 52 153 1448 694 osc 0;
#X obj 100 347 routeOSC /key;
#X obj 187 405 unpack;
#X floatatom 187 435 5 0 0 0 - - - 0;
#X floatatom 234 437 5 0 0 0 - - - 0;
#X obj 187 503 pack;
#X obj 234 464 / 1;
#X obj 187 462 + 59;
#X obj 100 403 sel 100;
#X msg 100 436 1;
#X msg 146 436 0;
#X obj 100 374 route 0;
#X obj 100 317 r oscIn;
#X obj 113 559 s shift;
#X obj 358 347 routeOSC /knobs;
#X obj 638 493 s vol;
#X obj 358 375 unpack 0 0 0 0 0 0, f 59;
#X obj 361 487 s knob1;
#X obj 358 313 r oscIn;
#X obj 711 514 s exp;
#X floatatom 711 489 5 0 0 0 - - - 0;
#X obj 361 435 change -1;
#X obj 638 437 change -1;
#X obj 711 439 change -1;
#X obj 431 488 s knob2;
#X obj 431 434 change -1;
#X obj 500 435 change -1;
#X obj 500 489 s knob3;
#X obj 566 436 change -1;
#X obj 566 490 s knob4;
#X obj 361 461 / 1023;
#X obj 431 462 / 1023;
#X obj 500 463 / 1023;
#X obj 566 464 / 1023;
#X obj 638 466 / 1023;
#X obj 711 463 / 1023;
#X obj 1054 557 s fs;
#X obj 1054 385 routeOSC /fs;
#X obj 1054 352 r oscIn;
#X obj 1054 510 == 0;
#X text 1101 474 flip this cause most foot switches we tried are normally closed, f 14;
#X obj 1075 410 r footSwitchPolarity;
#X obj 1242 403 sel 1;
#X obj 1242 457 delay 100;
#X msg 1242 479 \; pd quit;
#X obj 1242 425 t b b;
#X obj 1316 458 s quitting;
#X obj 1242 368 routeOSC /quitpd;
#X obj 1242 334 r oscIn;
#X obj 789 360 r oscIn;
#X obj 789 386 routeOSC /encoder/turn /encoder/button;
#X obj 787 426 s encturn;
#X obj 895 424 s encbut;
#X msg 810 154 port 4000;
#X obj 486 223 tgl 15 0 empty empty empty 17 7 0 10 #fcfcfc #000000 #000000 0 1;
#X msg 557 152 connect localhost 4001;
#X obj 810 182 udpreceive;
#X obj 810 206 unpackOSC;
#X obj 486 154 packOSC;
#X obj 486 190 udpsend;
#X obj 486 126 r oscOut;
#X obj 692 69 t b b;
#X obj 810 230 s oscIn;
#X text 511 220 connected to mother background program;
#X obj 690 30 r initOSC;
#X obj 183 560 s keys;
#X connect 0 0 10 0;
#X connect 1 0 2 0;
#X connect 1 1 3 0;
#X connect 2 0 6 0;
#X connect 3 0 5 0;
#X connect 4 0 64 0;
#X connect 5 0 4 1;
#X connect 6 0 4 0;
#X connect 7 0 8 0;
#X connect 7 1 9 0;
#X connect 8 0 12 0;
#X connect 9 0 12 0;
#X connect 10 0 7 0;
#X connect 10 1 1 0;
#X connect 11 0 0 0;
#X connect 13 0 15 0;
#X connect 15 0 20 0;
#X connect 15 1 24 0;
#X connect 15 2 25 0;
#X connect 15 3 27 0;
#X connect 15 4 21 0;
#X connect 15 5 22 0;
#X connect 17 0 13 0;
#X connect 19 0 18 0;
#X connect 20 0 29 0;
#X connect 21 0 33 0;
#X connect 22 0 34 0;
#X connect 24 0 30 0;
#X connect 25 0 31 0;
#X connect 27 0 32 0;
#X connect 29 0 16 0;
#X connect 30 0 23 0;
#X connect 31 0 26 0;
#X connect 32 0 28 0;
#X connect 33 0 14 0;
#X connect 34 0 19 0;
#X connect 36 0 38 0;
#X connect 37 0 36 0;
#X connect 38 0 35 0;
#X connect 40 0 38 1;
#X connect 41 0 44 0;
#X connect 42 0 43 0;
#X connect 44 0 42 0;
#X connect 44 1 45 0;
#X connect 46 0 41 0;
#X connect 47 0 46 0;
#X connect 48 0 49 0;
#X connect 49 0 50 0;
#X connect 49 1 51 0;
#X connect 52 0 55 0;
#X connect 54 0 58 0;
#X connect 55 0 56 0;
#X connect 56 0 61 0;
#X connect 57 0 58 0;
#X connect 58 0 53 0;
#X connect 59 0 57 0;
#X connect 60 0 54 0;
#X connect 60 1 52 0;
#X connect 63 0 60 0;
#X restore 72 155 pd osc;
#N canvas 432 163 404 168 META 0;
#X text 12 113 VERSION 1.2;
#X text 12 5 KEYWORDS Mother;
#X text 12 45 DESCRIPTION This patch bridges Organelle hardware and Pd;
#X text 12 89 WEBSITE http://critterandguitari.com;
#X text 12 69 AUTHOR Critter & Guitari;
#X text 12 25 LICENSE BSD;
#X restore 73 95 pd META;
#X obj 72 62 declare -path lib;
#N canvas 290 63 1434 837 jam 0;
#X obj 324 509 list trim;
#X obj 356 704 pack;
#X obj 355 660 unpack 0 0 0;
#X obj 352 774 outlet;
#X msg 179 171 load jam.lua;
#X obj 324 474 jam 360 120, f 16;
#X obj 453 659 s oscOut;
#X obj 628 44 r knob1;
#X msg 628 76 list knob1 \$1;
#X msg 726 77 list knob2 \$1;
#X msg 829 76 list knob3 \$1;
#X msg 922 75 list knob4 \$1;
#X obj 922 38 r knob4;
#X obj 829 43 r knob3;
#X obj 726 42 r knob2;
#X obj 520 703 s synthparams;
#X msg 1027 71 list encoder \$1;
#X msg 1135 73 list encoder_button \$1;
#X obj 669 654 s bpm;
#X obj 511 46 r shift;
#X msg 511 76 list shift \$1;
#X obj 1026 40 r encturn;
#X obj 1138 43 r encbut;
#X obj 117 96 t b b;
#X obj 145 36 r initJam;
#X obj 241 46 r keys;
#X msg 244 75 list keyin \$1 \$2;
#X msg 362 77 list midinotein \$1 \$2;
#X obj 362 51 r midinotein;
#X obj 325 556 route note osc knobs bpm click, f 83;
#X obj 617 694 s midiccout;
#X obj 246 752 s midinoteout;
#X obj 809 767 outlet;
#N canvas 92 117 1340 821 metronome 0;
#X obj 72 203 abl_link~ 1 0 1 100;
#X msg 47 163 connect 1;
#X msg 143 691 linkphase \$1;
#X obj 121 117 r bpm;
#X obj 121 139 i;
#X msg 121 162 tempo \$1;
#X msg 403 687 bpm \$1;
#X obj 47 45 inlet;
#X text 97 45 init;
#X obj 144 730 outlet;
#X obj 406 735 outlet;
#X text 134 754 beat phase;
#X text 401 758 bpm;
#X obj 276 264 ==;
#X obj 276 242 r midi-clock-present;
#X obj 101 328 spigot 1, f 12;
#X obj 253 331 spigot 1, f 12;
#X obj 738 47 midirealtimein;
#X text 1054 68 MIDI 248 = clock \; 250 = start \; 251 = continue. 252 = stop;
#X obj 738 78 sel 248 250 251 252 254, f 38;
#N canvas 303 685 292 294 mstobpm 0;
#X obj 46 14 inlet;
#X obj 47 248 outlet;
#X obj 46 108 t b b;
#X obj 46 79 sel 0;
#X text 87 47 time 16th notes;
#X obj 46 145 timer;
#X obj 46 46 % 12;
#X obj 46 182 expr 30000 / $f1;
#X connect 0 0 6 0;
#X connect 2 0 5 0;
#X connect 2 1 5 1;
#X connect 3 0 2 0;
#X connect 5 0 7 0;
#X connect 6 0 3 0;
#X connect 7 0 1 0;
#X restore 858 490 pd mstobpm;
#X obj 903 538 r midi-clock-present;
#X obj 858 561 spigot 0;
#N canvas 465 318 729 612 average-bpm 0;
#X obj 98 20 inlet;
#X obj 360 226 + 1;
#X obj 251 189 t a b;
#X obj 330 224 f 0;
#X obj 48 185 array sum \$0-bpm-mean;
#X obj 98 42 t b a;
#X obj 48 229 + 0.499999;
#X obj 48 251 i;
#X obj 48 273 outlet;
#X obj 284 11 loadbang;
#X msg 284 33 const 120;
#X obj 251 280 array set \$0-bpm-mean 5;
#X obj 48 207 / 5;
#X obj 330 246 % 5;
#X obj 284 58 array define -k \$0-bpm-mean 5;
#A 0 62.2647 62.642 62.642 62.4528 62.4528;
#X floatatom 230 131 5 0 0 0 - - - 0;
#X connect 0 0 5 0;
#X connect 1 0 3 1;
#X connect 2 0 11 0;
#X connect 2 1 3 0;
#X connect 3 0 1 0;
#X connect 3 0 13 0;
#X connect 4 0 12 0;
#X connect 5 0 4 0;
#X connect 5 1 2 0;
#X connect 5 1 15 0;
#X connect 6 0 7 0;
#X connect 7 0 8 0;
#X connect 9 0 10 0;
#X connect 10 0 14 0;
#X connect 12 0 6 0;
#X connect 13 0 11 1;
#X restore 858 513 pd average-bpm;
#X obj 887 215 delay 1000;
#X msg 814 234 1;
#X obj 728 160 t b b b b, f 25;
#X msg 887 190 stop;
#X msg 874 241 0;
#X obj 893 339 s midi-clock-present;
#X obj 720 342 spigot 0;
#X obj 578 505 spigot 0;
#X obj 923 127 s midi-stop;
#X obj 756 125 s midi-start;
#X obj 839 126 s midi-cont;
#X obj 720 421 t f f;
#X obj 794 339 r midi-start;
#X msg 794 361 0;
#N canvas 0 25 450 300 count24 0;
#X obj 163 87 i;
#X obj 266 210 + 1;
#X obj 159 132 t f f;
#X obj 246 173 sel 23;
#X msg 207 210 0;
#X obj 131 244 outlet;
#X obj 125 40 inlet;
#X obj 251 34 inlet;
#X connect 0 0 2 0;
#X connect 1 0 0 1;
#X connect 2 0 5 0;
#X connect 2 1 3 0;
#X connect 3 0 4 0;
#X connect 3 1 1 0;
#X connect 4 0 0 1;
#X connect 6 0 0 0;
#X connect 7 0 0 1;
#X restore 720 391 pd count24;
#X obj 830 288 t a a;
#X obj 578 475 / 24;
#X text 480 476 0-1 beat phase;
#X obj 623 475 r midi-clock-present;
#X text 740 20 midi clock in;
#X text 992 166 if midi clock comes in \, endable midi clock.;
#X text 1002 205 disable if no midi clock for >1 second.;
#X obj 438 176 r midi-clock-present;
#X obj 438 207 change -1;
#X obj 383 437 f;
#X obj 438 315 sel 0;
#X text 498 316 update jam bpm when no midi;
#X obj 465 244 print clock-status;
#X floatatom 392 69 5 0 0 0 - - - 0;
#X obj 392 47 r #abl_link_num_peers;
#X connect 0 1 15 0;
#X connect 0 3 16 0;
#X connect 1 0 0 0;
#X connect 2 0 9 0;
#X connect 3 0 4 0;
#X connect 4 0 5 0;
#X connect 5 0 0 0;
#X connect 6 0 10 0;
#X connect 7 0 1 0;
#X connect 13 0 15 1;
#X connect 13 0 16 1;
#X connect 14 0 13 0;
#X connect 15 0 2 0;
#X connect 16 0 48 0;
#X connect 17 0 19 0;
#X connect 19 0 26 0;
#X connect 19 1 33 0;
#X connect 19 2 34 0;
#X connect 19 3 32 0;
#X connect 20 0 23 0;
#X connect 21 0 22 1;
#X connect 22 0 6 0;
#X connect 23 0 22 0;
#X connect 24 0 28 0;
#X connect 25 0 39 0;
#X connect 26 0 30 0;
#X connect 26 1 24 0;
#X connect 26 2 25 0;
#X connect 26 3 27 0;
#X connect 27 0 24 0;
#X connect 28 0 39 0;
#X connect 30 0 38 0;
#X connect 31 0 2 0;
#X connect 35 0 40 0;
#X connect 35 1 20 0;
#X connect 36 0 37 0;
#X connect 37 0 38 1;
#X connect 38 0 35 0;
#X connect 39 0 30 1;
#X connect 39 1 29 0;
#X connect 40 0 31 0;
#X connect 42 0 31 1;
#X connect 46 0 47 0;
#X connect 47 0 49 0;
#X connect 47 0 51 0;
#X connect 48 0 6 0;
#X connect 49 0 48 0;
#X connect 53 0 52 0;
#X restore 80 171 pd metronome;
#X connect 0 0 29 0;
#X connect 1 0 3 0;
#X connect 1 0 31 0;
#X connect 2 0 1 0;
#X connect 2 1 1 1;
#X connect 4 0 5 0;
#X connect 5 0 0 0;
#X connect 7 0 8 0;
#X connect 8 0 5 0;
#X connect 9 0 5 0;
#X connect 10 0 5 0;
#X connect 11 0 5 0;
#X connect 12 0 11 0;
#X connect 13 0 10 0;
#X connect 14 0 9 0;
#X connect 16 0 5 0;
#X connect 17 0 5 0;
#X connect 19 0 20 0;
#X connect 20 0 5 0;
#X connect 21 0 16 0;
#X connect 22 0 17 0;
#X connect 23 0 33 0;
#X connect 23 1 4 0;
#X connect 24 0 23 0;
#X connect 25 0 26 0;
#X connect 26 0 5 0;
#X connect 27 0 5 0;
#X connect 28 0 27 0;
#X connect 29 0 2 0;
#X connect 29 1 6 0;
#X connect 29 2 15 0;
#X connect 29 2 30 0;
#X connect 29 3 18 0;
#X connect 29 4 32 0;
#X connect 33 0 5 0;
#X connect 33 1 5 0;
#X restore 278 19 pd jam;
#X f 27;
#X obj 278 67 unpack 0 0;
#X obj 278 165 pack 0 0 0;
#X obj 278 209 clone -s 1 synthvoice 8;
#N canvas 226 201 365 285 metro 0;
#X obj 93 188 outlet~;
#X obj 199 84 loadbang;
#X obj 91 77 inlet;
#X obj 96 119 tick metro1.wav \$1;
#X obj 96 156 *~ 0.2;
#X connect 1 0 3 1;
#X connect 2 0 3 0;
#X connect 3 0 4 0;
#X connect 4 0 0 0;
#X restore 437 208 pd metro;
#N canvas 142 50 1149 734 audio 0;
#X obj 501 439 dac~;
#X obj 192 166 adc~, f 6;
#X obj 297 247 s~ inR;
#X obj 120 254 s~ inL;
#X obj 333 609 s oscOut;
#X obj 467 328 *~;
#X obj 556 327 *~;
#X obj 696 111 r vol;
#X obj 696 164 *;
#X obj 696 137 t f f;
#X obj 696 192 sig~;
#X obj 470 367 clip~ -1 1;
#X obj 541 381 clip~ -1 1;
#X obj 696 217 lop~ 5;
#N canvas 4 50 1358 888 vumeter 0;
#X obj 112 240 i;
#X obj 295 234 i;
#X obj 295 116 env~ 8192 4096;
#X obj 112 116 env~ 8192 4096;
#X obj 295 163 expr if($f1 >= 0 \, $f1 \, 0);
#X obj 112 166 expr if($f1 >= 0 \, $f1 \, 0);
#X obj 347 848 outlet;
#X obj 462 233 i;
#X obj 462 115 env~ 8192 4096;
#X obj 462 162 expr if($f1 >= 0 \, $f1 \, 0);
#X obj 112 142 - 40;
#X obj 295 141 - 40;
#X obj 462 140 - 40;
#X obj 652 227 i;
#X obj 652 109 env~ 8192 4096;
#X obj 652 156 expr if($f1 >= 0 \, $f1 \, 0);
#X obj 652 134 - 40;
#X obj 112 189 / 60;
#X obj 295 188 / 60;
#X obj 462 187 / 60;
#X obj 652 181 / 60;
#X text 243 29 start metering at -60 db;
#X obj 112 70 inlet~;
#X obj 295 72 inlet~;
#X obj 462 71 inlet~;
#X obj 652 69 inlet~;
#X obj 112 211 * 11;
#X obj 295 212 * 11;
#X obj 462 211 * 11;
#X obj 652 205 * 11;
#X text 693 205 12 bars on vu meter \, leave last one for peak indicator.;
#X obj 347 760 pack 0 0 0 0 0, f 18;
#X obj 150 421 t f b;
#N canvas 4 50 1347 781 peaks 0;
#X obj 324 427 i;
#X obj 369 424 i;
#X obj 421 428 i;
#X obj 468 428 i;
#X msg 1085 254 0;
#X msg 932 254 1;
#X obj 419 491 +;
#X obj 416 459 << 1;
#X obj 370 459 << 2;
#X obj 330 459 << 3;
#X obj 385 520 +;
#X obj 361 546 +;
#X obj 245 374 t b b b b;
#X obj 932 230 threshold~ 0.95 500 0.9 10;
#X obj 340 584 outlet;
#X text 511 423 combine all peaks into one int;
#X msg 891 254 0;
#X msg 738 254 1;
#X obj 738 230 threshold~ 0.95 500 0.9 10;
#X msg 697 252 0;
#X msg 544 252 1;
#X obj 553 230 threshold~ 0.95 500 0.9 10;
#X msg 506 255 0;
#X msg 353 255 1;
#X obj 353 231 threshold~ 0.95 500 0.9 10;
#X obj 168 41 inlet;
#X obj 325 29 inlet~;
#X obj 548 34 inlet~;
#X obj 739 33 inlet~;
#X obj 937 44 inlet~;
#X connect 0 0 9 0;
#X connect 1 0 8 0;
#X connect 2 0 7 0;
#X connect 3 0 6 1;
#X connect 4 0 3 1;
#X connect 5 0 3 1;
#X connect 6 0 10 1;
#X connect 7 0 6 0;
#X connect 8 0 10 0;
#X connect 9 0 11 0;
#X connect 10 0 11 1;
#X connect 11 0 14 0;
#X connect 12 0 0 0;
#X connect 12 1 1 0;
#X connect 12 2 2 0;
#X connect 12 3 3 0;
#X connect 13 0 5 0;
#X connect 13 1 4 0;
#X connect 16 0 2 1;
#X connect 17 0 2 1;
#X connect 18 0 17 0;
#X connect 18 1 16 0;
#X connect 19 0 1 1;
#X connect 20 0 1 1;
#X connect 21 0 20 0;
#X connect 21 1 19 0;
#X connect 22 0 0 1;
#X connect 23 0 0 1;
#X connect 24 0 23 0;
#X connect 24 1 22 0;
#X connect 25 0 12 0;
#X connect 26 0 13 0;
#X connect 27 0 18 0;
#X connect 28 0 21 0;
#X connect 29 0 24 0;
#X restore 589 536 pd peaks;
#X f 48;
#X connect 0 0 32 0;
#X connect 1 0 31 1;
#X connect 2 0 11 0;
#X connect 3 0 10 0;
#X connect 4 0 18 0;
#X connect 5 0 17 0;
#X connect 7 0 31 2;
#X connect 8 0 12 0;
#X connect 9 0 19 0;
#X connect 10 0 5 0;
#X connect 11 0 4 0;
#X connect 12 0 9 0;
#X connect 13 0 31 3;
#X connect 14 0 16 0;
#X connect 15 0 20 0;
#X connect 16 0 15 0;
#X connect 17 0 26 0;
#X connect 18 0 27 0;
#X connect 19 0 28 0;
#X connect 20 0 29 0;
#X connect 22 0 3 0;
#X connect 22 0 33 1;
#X connect 23 0 2 0;
#X connect 23 0 33 2;
#X connect 24 0 8 0;
#X connect 24 0 33 3;
#X connect 25 0 14 0;
#X connect 25 0 33 4;
#X connect 26 0 0 0;
#X connect 27 0 1 0;
#X connect 28 0 7 0;
#X connect 29 0 13 0;
#X connect 31 0 6 0;
#X connect 32 0 31 0;
#X connect 32 1 33 0;
#X connect 33 0 31 4;
#X restore 321 500 pd vumeter;
#X msg 333 587 sendtyped /oled/vumeter iiiii \$1 \$2 \$3 \$4 \$5;
#X obj 561 101 inlet~;
#X obj 456 104 inlet~;
#X text 268 34 Organelle audio IO with VU meter;
#X connect 1 0 3 0;
#X connect 1 0 14 0;
#X connect 1 1 2 0;
#X connect 1 1 14 1;
#X connect 5 0 11 0;
#X connect 6 0 12 0;
#X connect 7 0 9 0;
#X connect 8 0 10 0;
#X connect 9 0 8 0;
#X connect 9 1 8 1;
#X connect 10 0 13 0;
#X connect 11 0 0 0;
#X connect 11 0 14 2;
#X connect 12 0 0 1;
#X connect 12 0 14 3;
#X connect 13 0 6 1;
#X connect 13 0 5 1;
#X connect 14 0 15 0;
#X connect 15 0 4 0;
#X connect 16 0 6 0;
#X connect 17 0 5 0;
#X restore 394 293 pd audio;
#X obj 278 43 t a a;
#X obj 278 93 poly 8 0, f 10;
#X connect 5 0 11 0;
#X connect 5 1 9 0;
#X connect 6 0 12 0;
#X connect 6 1 12 1;
#X connect 7 0 8 0;
#X connect 8 0 10 0;
#X connect 8 1 10 1;
#X connect 9 0 10 1;
#X connect 9 0 10 0;
#X connect 11 0 6 0;
#X connect 12 0 7 0;
#X connect 12 1 7 1;
#X connect 12 2 7 2;
