#N canvas 91 439 416 573 10;
#X obj 142 366 s notesOut-\$1;
#X obj 18 143 inlet~ inL-\$1;
#X obj 128 143 inlet~ inR-\$1;
#X obj 117 328 outlet~ outL-\$1;
#X obj 226 328 outlet~ outR-\$1;
#X obj 241 174 r auxIn-\$1;
#X obj 319 232 r expIn-\$1;
#X obj 319 257 r fsIn-\$1;
#X text 200 63 C&G basic polyphonic patch with 8 voices;
#X obj 243 366 s ctrlOut-\$1;
#N canvas 48 452 921 545 subparams 0;
#X obj 91 112 r notesIn-\$1;
#X obj 192 112 r ctrlIn-\$1;
#X obj 91 133 unpack 0 0;
#X msg 91 154 notes \$1;
#X msg 148 155 velocity \$1;
#X floatatom 173 213 5 0 0 0 - - -;
#X floatatom 453 213 5 0 0 0 - - -;
#X floatatom 260 213 5 0 0 0 - - -;
#X floatatom 354 213 5 0 0 0 - - -;
#X obj 106 383 outlet;
#X obj 414 114 r loaded-\$1;
#X obj 173 188 r select-\$1;
#X obj 354 188 r lopass-\$1;
#X obj 453 188 r hipass-\$1;
#X msg 453 237 hipass \$1;
#X msg 354 237 lopass \$1;
#X msg 173 237 select \$1;
#X obj 260 188 r amount-\$1;
#X msg 260 237 amount \$1;
#X connect 0 0 2 0;
#X connect 2 0 3 0;
#X connect 2 1 4 0;
#X connect 3 0 9 0;
#X connect 4 0 9 0;
#X connect 5 0 16 0;
#X connect 6 0 14 0;
#X connect 7 0 18 0;
#X connect 8 0 15 0;
#X connect 10 0 5 0;
#X connect 10 0 7 0;
#X connect 10 0 8 0;
#X connect 10 0 6 0;
#X connect 11 0 5 0;
#X connect 12 0 8 0;
#X connect 13 0 6 0;
#X connect 14 0 9 0;
#X connect 15 0 9 0;
#X connect 16 0 9 0;
#X connect 17 0 7 0;
#X connect 18 0 9 0;
#X restore 47 180 pd subparams;
#X obj 38 329 route loaded;
#X obj 38 350 bang;
#X obj 38 371 s loaded-\$1;
#X obj 109 221 r loadbang-\$1;
#X msg 241 195 aux \$1;
#X obj 146 424 s screenLine5;
#X obj 38 285 pd~ -ninsig 2 -noutsig 2;
#X msg 109 242 pd~ start -nogui synth.pd;
#X connect 1 0 17 0;
#X connect 2 0 17 1;
#X connect 5 0 15 0;
#X connect 10 0 17 0;
#X connect 11 0 12 0;
#X connect 11 1 16 0;
#X connect 12 0 13 0;
#X connect 14 0 18 0;
#X connect 15 0 17 0;
#X connect 17 0 11 0;
#X connect 17 1 3 0;
#X connect 17 2 4 0;
#X connect 18 0 17 0;
