#N canvas 977 94 919 840 10;
#X declare -path bsaylor;
#X obj 630 30 declare -path bsaylor;
#X obj 20 426 *~;
#X obj 146 427 *~;
#X obj 265 178 vsl 15 128 0 100 0 0 empty empty empty 0 -9 0 10 -262144
-1 -1 6350 1;
#X obj 268 89 table irL;
#X obj 268 113 table irR;
#X msg 160 296 set irR;
#X msg 32 292 set irL;
#X obj 265 318 dbtorms;
#X obj 146 318 partconv~ irR 2048;
#X obj 20 320 partconv~ irL 2048;
#X obj 418 174 soundshare_select;
#X obj 363 20 vsl 15 128 0 1 0 0 empty empty empty 0 -9 0 10 -262144
-1 -1 0 1;
#X obj 517 207 list;
#X msg 517 228 bang;
#X obj 517 249 symbol;
#X msg 517 270 \$1;
#X msg 572 253 \$1 !;
#X symbolatom 582 226 50 0 0 0 - - -;
#X obj 418 207 t b a;
#X obj 391 230 del 1000;
#X obj 424 253 list;
#X obj 424 274 list;
#X obj 470 249 f \$0;
#X msg 433 336 read -resize \$1 irL;
#X msg 443 359 read -resize \$1 irR;
#X obj 433 381 soundfiler;
#X obj 424 295 t b b a;
#X obj 260 423 vsl 15 128 100 8000 0 0 empty empty empty 0 -9 0 10
-262144 -1 -1 0 1;
#X obj 146 476 lop~;
#X obj 21 476 lop~;
#X obj 21 530 hip~;
#X obj 146 529 hip~;
#X obj 347 424 vsl 15 128 0 3000 0 0 empty empty empty 0 -9 0 10 -262144
-1 -1 0 1;
#X floatatom 301 526 5 0 0 0 - - -;
#X floatatom 394 528 5 0 0 0 - - -;
#X obj 594 434 loadbang;
#X obj 594 455 t b b;
#X msg 594 476 loaded \$1;
#X obj 594 497 stdout;
#X msg 669 473 \; pd dsp 1;
#X obj 21 99 adc~;
#X obj 20 562 dac~;
#X obj 260 563 s lopass;
#X obj 347 564 s hipass;
#X obj 167 450 r lopass;
#X obj 167 501 r hipass;
#X obj 42 450 r lopass;
#X obj 42 501 r hipass;
#X obj 369 335 s set;
#X obj 32 243 r set;
#X obj 418 108 r select;
#X obj 470 139 loadbang;
#X obj 517 291 stdout;
#X obj 265 151 r amount;
#X connect 1 0 30 0;
#X connect 2 0 29 0;
#X connect 3 0 8 0;
#X connect 6 0 9 0;
#X connect 7 0 10 0;
#X connect 8 0 2 1;
#X connect 8 0 1 1;
#X connect 9 0 2 0;
#X connect 10 0 1 0;
#X connect 11 0 19 0;
#X connect 11 1 13 0;
#X connect 12 0 11 0;
#X connect 13 0 14 0;
#X connect 13 0 15 1;
#X connect 13 0 17 0;
#X connect 13 0 18 0;
#X connect 14 0 15 0;
#X connect 15 0 16 0;
#X connect 16 0 53 0;
#X connect 17 0 53 0;
#X connect 19 0 20 0;
#X connect 19 1 21 1;
#X connect 20 0 21 0;
#X connect 21 0 22 0;
#X connect 22 0 27 0;
#X connect 23 0 22 1;
#X connect 24 0 26 0;
#X connect 25 0 26 0;
#X connect 27 0 49 0;
#X connect 27 1 24 0;
#X connect 27 1 25 0;
#X connect 27 2 24 0;
#X connect 27 2 25 0;
#X connect 28 0 34 0;
#X connect 28 0 43 0;
#X connect 29 0 32 0;
#X connect 30 0 31 0;
#X connect 31 0 42 0;
#X connect 32 0 42 1;
#X connect 33 0 35 0;
#X connect 33 0 44 0;
#X connect 36 0 37 0;
#X connect 37 0 38 0;
#X connect 37 1 40 0;
#X connect 38 0 39 0;
#X connect 41 0 10 0;
#X connect 41 1 9 0;
#X connect 45 0 29 1;
#X connect 46 0 32 1;
#X connect 47 0 30 1;
#X connect 48 0 31 1;
#X connect 50 0 7 0;
#X connect 50 0 6 0;
#X connect 51 0 11 0;
#X connect 52 0 11 1;
#X connect 52 0 23 0;
#X connect 54 0 3 0;
