#N canvas 982 125 1641 906 10;
#X obj 710 172 vsl 15 128 0 127 0 0 empty empty chaos 0 -10 0 10 -262144
-1 -1 12700 1;
#X obj 645 172 vsl 15 128 0 127 0 0 empty empty map_y 0 -10 0 10 -262144
-1 -1 9300 1;
#X obj 581 172 vsl 15 128 0 127 0 0 empty empty map_x 0 -10 0 10 -262144
-1 -1 8800 1;
#X obj 517 154 vsl 15 128 0 100 0 0 empty empty hihat 0 -9 0 10 -262144
-1 -1 11430 1;
#X obj 452 154 vsl 15 128 0 100 0 0 empty empty snare 0 -9 0 10 -262144
-1 -1 2540 1;
#X obj 388 146 vsl 15 128 0 100 0 0 empty empty bass 0 -9 0 10 -262144
-1 -1 5080 1;
#X obj 452 287 * 1.27;
#X obj 517 287 * 1.27;
#X obj 774 251 r g_e_kick-\$1;
#X obj 838 269 r g_e_snare-\$1;
#X obj 903 287 r g_e_hihat-\$1;
#X text 774 233 euclidean lengths;
#X obj 324 305 grids, f 97;
#N canvas 1067 694 193 350 32nds 0;
#X obj 26 50 inlet;
#X obj 26 290 outlet;
#X obj 26 68 % 3;
#X obj 26 86 sel 0;
#X obj 26 114 f;
#X obj 26 194 % 32;
#X obj 71 148 + 1;
#X msg 72 100 0;
#X obj 26 240 +;
#X obj 41 222 r offset-\$1;
#X obj 47 176 r reset-\$1;
#X obj 82 72 r signature;
#X obj 72 54 inlet;
#X obj 71 276 - 32;
#X obj 26 258 moses 32;
#X connect 0 0 2 0;
#X connect 2 0 3 0;
#X connect 3 0 4 0;
#X connect 4 0 6 0;
#X connect 4 0 5 0;
#X connect 5 0 8 0;
#X connect 6 0 4 1;
#X connect 7 0 4 1;
#X connect 8 0 14 0;
#X connect 9 0 8 1;
#X connect 10 0 5 1;
#X connect 11 0 7 0;
#X connect 12 0 7 0;
#X connect 13 0 1 0;
#X connect 14 0 1 0;
#X connect 14 1 13 0;
#X restore 224 291 pd 32nds;
#X obj 324 333 t b f;
#X obj 310 407 bng 15 250 50 0 empty empty empty 17 7 0 10 -262144
-1 -1;
#X obj 439 333 t b f;
#X obj 425 407 bng 15 250 50 0 empty empty empty 17 7 0 10 -262144
-1 -1;
#X obj 555 333 t b f;
#X obj 541 407 bng 15 250 50 0 empty empty empty 17 7 0 10 -262144
-1 -1;
#X obj 671 333 t b f;
#X obj 657 407 bng 15 250 50 0 empty empty empty 17 7 0 10 -262144
-1 -1;
#X obj 787 333 t b f;
#X obj 773 407 bng 15 250 50 0 empty empty empty 17 7 0 10 -262144
-1 -1;
#X obj 903 333 t b f;
#X obj 889 407 bng 15 250 50 0 empty empty empty 17 7 0 10 -262144
-1 -1;
#X obj 324 435 del 15;
#X obj 439 435 del 15;
#X obj 555 435 del 15;
#X obj 671 435 del 15;
#X obj 787 435 del 15;
#X obj 903 435 del 15;
#X obj 945 618 s oscOutRaw;
#X obj 1214 158 r auxIn-\$1;
#X msg 1308 348 /oled/aux/clear 1;
#X msg 1248 460 /oled/setscreen 1;
#X msg 1253 534 /oled/setscreen 3;
#X msg 1214 590 /oled/aux/clear 1;
#X obj 1214 312 sel 0 1;
#X msg 1233 488 6;
#X obj 1086 576 s aux-led-\$1;
#X obj 1214 516 t b b b;
#X msg 1233 562 0;
#X obj 1219 212 cputime;
#X obj 1219 176 metro 1000;
#X obj 1219 194 t b b, f 7;
#X obj 1219 248 * 0.1;
#X obj 1219 230 int;
#X msg 1219 284 /oled/aux/line/4 CPU = \$1 %;
#X obj 1219 266 min 100;
#X obj 1233 330 t b b b b b b;
#X msg 1278 404 /oled/aux/line/2 Mutable Instruments;
#X obj 930 652 s notesOut-\$1;
#X obj 1043 668 sel \$1;
#X obj 1043 650 unpack s s;
#X obj 1043 632 r activePage;
#X msg 1043 696 1;
#X msg 1076 696 0;
#X obj 1043 724 change;
#X obj 1043 742 sel 1, f 20;
#X obj 1043 784 delay 500;
#X msg 1160 770 stop;
#X obj 224 710 spigot;
#X obj 1043 815 metro 40;
#X obj 223 857 s screenLine5;
#X obj 224 789 pack f s s s s s s;
#X obj 310 501 spigot;
#X obj 425 531 spigot;
#X obj 541 561 spigot;
#X obj 657 591 spigot;
#X obj 773 631 spigot;
#X obj 889 671 spigot;
#X msg 657 609 A;
#X msg 773 649 A;
#X msg 889 689 A;
#X obj 310 547 symbol;
#X msg 281 449 .;
#X obj 425 577 symbol;
#X obj 541 607 symbol;
#X obj 657 637 symbol;
#X obj 773 677 symbol;
#X obj 889 737 symbol;
#X msg 396 449 .;
#X msg 512 449 .;
#X msg 628 449 .;
#X msg 744 449 .;
#X msg 860 449 .;
#X obj 955 435 r loadbang-\$1;
#X msg 310 519 T;
#X msg 425 549 T;
#X msg 541 579 T;
#X msg 1346 604 /oled/gClear 3 1;
#X msg 1263 432 /oled/aux/line/3 topographic drum seq.;
#X obj 388 42 r fill1-\$1;
#X obj 452 60 r fill2-\$1;
#X obj 517 78 r fill3-\$1;
#X obj 581 96 r mapx-\$1;
#X obj 645 114 r mapy-\$1;
#X obj 710 132 r chaos-\$1;
#X msg 224 807 \$2\$5 \$3\$6 \$4\$7 | Clock : \$1;
#X obj 45 79 r notesIn-\$1;
#X obj 44 154 - 18;
#X obj 83 285 sel 60 61 62 63 64 65;
#X obj 44 136 stripnote;
#X msg 82 319 100;
#X msg 104 319 100;
#X msg 126 319 100;
#X msg 148 319 100;
#X msg 170 319 100;
#X msg 192 319 100;
#X obj 16 254 unpack;
#X obj 16 272 bng 15 250 50 0 empty empty empty 17 7 0 10 -262144 -1
-1;
#X obj 44 172 moses 60;
#X obj 351 389 pack;
#X obj 339 361 r trig1note-\$1;
#X obj 324 455 f;
#X msg 324 473 \$1 0 0;
#X msg 351 407 \$2 \$1 0;
#X obj 466 389 pack;
#X obj 439 455 f;
#X msg 466 407 \$2 \$1 0;
#X obj 454 361 r trig2note-\$1;
#X obj 582 389 pack;
#X obj 555 455 f;
#X obj 698 389 pack;
#X obj 671 455 f;
#X obj 814 389 pack;
#X obj 787 455 f;
#X obj 930 389 pack;
#X obj 903 455 f;
#X msg 582 407 \$2 \$1 0;
#X msg 698 407 \$2 \$1 0;
#X msg 814 407 \$2 \$1 0;
#X msg 930 407 \$2 \$1 0;
#X obj 570 361 r trig3note-\$1;
#X obj 686 361 r accent1note-\$1;
#X obj 802 361 r accent2note-\$1;
#X obj 918 361 r accent3note-\$1;
#X msg 439 473 \$1 0 0;
#X msg 555 473 \$1 0 0;
#X msg 671 473 \$1 0 0;
#X msg 787 473 \$1 0 0;
#X msg 903 473 \$1 0 0;
#X obj 224 756 f;
#X obj 224 728 t b f;
#X obj 16 289 delay 1;
#X obj 125 407 r trigslength-\$1;
#X obj 986 407 r accentslength-\$1;
#X obj 224 339 + 1;
#X msg 1293 376 /oled/aux/line/1 Grids (2.5);
#X obj 388 282 * 1.27;
#X msg 182 251 0;
#X obj 957 827 tgl 15 0 empty empty empty 17 7 0 10 -262144 -1 -1 0
1;
#X obj 224 828 spigot;
#X obj 224 263 r 24ppq;
#X obj 220 206 r start;
#X obj 232 229 bng 15 250 50 0 empty empty empty 17 7 0 10 -262144
-1 -1;
#X obj 208 36 r activePage;
#X obj 208 57 unpack s s;
#X obj 208 78 sel \$1;
#X msg 200 102 1;
#X obj 204 146 &&;
#X obj 204 167 change;
#X obj 262 78 sel pg_fill;
#X msg 262 99 1;
#X msg 233 100 0;
#X msg 323 102 0;
#X obj 187 194 tgl 15 0 empty empty empty 17 7 0 10 -262144 -1 -1 0
1;
#X obj 45 100 spigot;
#X connect 0 0 12 6;
#X connect 1 0 12 5;
#X connect 2 0 12 4;
#X connect 3 0 7 0;
#X connect 4 0 6 0;
#X connect 5 0 150 0;
#X connect 6 0 12 2;
#X connect 7 0 12 3;
#X connect 8 0 12 7;
#X connect 9 0 12 8;
#X connect 10 0 12 9;
#X connect 12 0 14 0;
#X connect 12 1 16 0;
#X connect 12 2 18 0;
#X connect 12 3 20 0;
#X connect 12 4 22 0;
#X connect 12 5 24 0;
#X connect 13 0 12 0;
#X connect 13 0 148 0;
#X connect 14 0 15 0;
#X connect 14 0 26 0;
#X connect 14 1 113 0;
#X connect 15 0 66 0;
#X connect 16 0 17 0;
#X connect 16 0 27 0;
#X connect 16 1 118 0;
#X connect 17 0 67 0;
#X connect 18 0 19 0;
#X connect 18 0 28 0;
#X connect 18 1 122 0;
#X connect 19 0 68 0;
#X connect 20 0 21 0;
#X connect 20 0 29 0;
#X connect 20 1 124 0;
#X connect 21 0 69 0;
#X connect 22 0 23 0;
#X connect 22 0 30 0;
#X connect 22 1 126 0;
#X connect 23 0 70 0;
#X connect 24 0 25 0;
#X connect 24 0 31 0;
#X connect 24 1 128 0;
#X connect 25 0 71 0;
#X connect 26 0 76 0;
#X connect 26 0 115 0;
#X connect 27 0 82 0;
#X connect 27 0 119 0;
#X connect 28 0 83 0;
#X connect 28 0 123 0;
#X connect 29 0 84 0;
#X connect 29 0 125 0;
#X connect 30 0 85 0;
#X connect 30 0 127 0;
#X connect 31 0 86 0;
#X connect 31 0 129 0;
#X connect 33 0 38 0;
#X connect 33 0 44 0;
#X connect 34 0 32 0;
#X connect 35 0 32 0;
#X connect 36 0 32 0;
#X connect 37 0 32 0;
#X connect 38 0 41 0;
#X connect 38 1 50 0;
#X connect 39 0 40 0;
#X connect 41 0 37 0;
#X connect 41 1 42 0;
#X connect 41 2 36 0;
#X connect 42 0 40 0;
#X connect 43 0 47 0;
#X connect 44 0 45 0;
#X connect 45 0 43 0;
#X connect 45 1 43 1;
#X connect 46 0 49 0;
#X connect 47 0 46 0;
#X connect 48 0 32 0;
#X connect 49 0 48 0;
#X connect 50 0 39 0;
#X connect 50 1 35 0;
#X connect 50 2 92 0;
#X connect 50 3 51 0;
#X connect 50 4 149 0;
#X connect 50 5 34 0;
#X connect 51 0 32 0;
#X connect 53 0 56 0;
#X connect 53 0 65 0;
#X connect 53 1 57 0;
#X connect 54 0 53 0;
#X connect 55 0 54 0;
#X connect 56 0 58 0;
#X connect 56 0 66 1;
#X connect 56 0 71 1;
#X connect 56 0 70 1;
#X connect 56 0 69 1;
#X connect 56 0 68 1;
#X connect 56 0 67 1;
#X connect 56 0 62 1;
#X connect 57 0 58 0;
#X connect 57 0 66 1;
#X connect 57 0 71 1;
#X connect 57 0 70 1;
#X connect 57 0 69 1;
#X connect 57 0 68 1;
#X connect 57 0 67 1;
#X connect 57 0 62 1;
#X connect 58 0 59 0;
#X connect 58 0 152 0;
#X connect 59 0 60 0;
#X connect 59 1 61 0;
#X connect 59 1 91 0;
#X connect 60 0 63 0;
#X connect 61 0 60 0;
#X connect 61 0 63 0;
#X connect 62 0 144 0;
#X connect 65 0 99 0;
#X connect 66 0 88 0;
#X connect 67 0 89 0;
#X connect 68 0 90 0;
#X connect 69 0 72 0;
#X connect 70 0 73 0;
#X connect 71 0 74 0;
#X connect 72 0 79 0;
#X connect 73 0 80 0;
#X connect 74 0 81 0;
#X connect 75 0 65 1;
#X connect 76 0 75 0;
#X connect 77 0 65 2;
#X connect 78 0 65 3;
#X connect 79 0 65 4;
#X connect 80 0 65 5;
#X connect 81 0 65 6;
#X connect 82 0 77 0;
#X connect 83 0 78 0;
#X connect 84 0 79 0;
#X connect 85 0 80 0;
#X connect 86 0 81 0;
#X connect 87 0 86 0;
#X connect 87 0 85 0;
#X connect 87 0 84 0;
#X connect 87 0 83 0;
#X connect 87 0 82 0;
#X connect 87 0 76 0;
#X connect 88 0 75 0;
#X connect 89 0 77 0;
#X connect 90 0 78 0;
#X connect 91 0 32 0;
#X connect 92 0 32 0;
#X connect 93 0 5 0;
#X connect 94 0 4 0;
#X connect 95 0 3 0;
#X connect 96 0 2 0;
#X connect 97 0 1 0;
#X connect 98 0 0 0;
#X connect 99 0 153 0;
#X connect 100 0 168 0;
#X connect 101 0 112 0;
#X connect 102 0 104 0;
#X connect 102 1 105 0;
#X connect 102 2 106 0;
#X connect 102 3 107 0;
#X connect 102 4 108 0;
#X connect 102 5 109 0;
#X connect 103 0 101 0;
#X connect 104 0 14 0;
#X connect 105 0 16 0;
#X connect 106 0 18 0;
#X connect 107 0 20 0;
#X connect 108 0 22 0;
#X connect 109 0 24 0;
#X connect 110 0 111 0;
#X connect 111 0 145 0;
#X connect 112 0 13 1;
#X connect 112 1 102 0;
#X connect 113 0 117 0;
#X connect 114 0 113 1;
#X connect 114 0 115 1;
#X connect 115 0 116 0;
#X connect 116 0 52 0;
#X connect 117 0 52 0;
#X connect 118 0 120 0;
#X connect 119 0 138 0;
#X connect 120 0 52 0;
#X connect 121 0 118 1;
#X connect 121 0 119 1;
#X connect 122 0 130 0;
#X connect 123 0 139 0;
#X connect 124 0 131 0;
#X connect 125 0 140 0;
#X connect 126 0 132 0;
#X connect 127 0 141 0;
#X connect 128 0 133 0;
#X connect 129 0 142 0;
#X connect 130 0 52 0;
#X connect 131 0 52 0;
#X connect 132 0 52 0;
#X connect 133 0 52 0;
#X connect 134 0 122 1;
#X connect 134 0 123 1;
#X connect 135 0 124 1;
#X connect 135 0 125 1;
#X connect 136 0 126 1;
#X connect 136 0 127 1;
#X connect 137 0 128 1;
#X connect 137 0 129 1;
#X connect 138 0 52 0;
#X connect 139 0 52 0;
#X connect 140 0 52 0;
#X connect 141 0 52 0;
#X connect 142 0 52 0;
#X connect 143 0 65 0;
#X connect 144 0 143 0;
#X connect 144 1 143 1;
#X connect 145 0 143 0;
#X connect 146 0 26 1;
#X connect 146 0 28 1;
#X connect 146 0 27 1;
#X connect 147 0 31 1;
#X connect 147 0 30 1;
#X connect 147 0 29 1;
#X connect 148 0 62 0;
#X connect 149 0 32 0;
#X connect 150 0 12 1;
#X connect 151 0 110 0;
#X connect 151 0 13 1;
#X connect 152 0 153 1;
#X connect 153 0 64 0;
#X connect 154 0 13 0;
#X connect 155 0 151 0;
#X connect 155 0 156 0;
#X connect 157 0 158 0;
#X connect 158 0 159 0;
#X connect 158 1 163 0;
#X connect 159 0 160 0;
#X connect 159 1 165 0;
#X connect 160 0 161 0;
#X connect 161 0 162 0;
#X connect 162 0 167 0;
#X connect 163 0 164 0;
#X connect 163 1 166 0;
#X connect 164 0 161 1;
#X connect 165 0 161 0;
#X connect 166 0 161 1;
#X connect 167 0 168 1;
#X connect 168 0 103 0;
#X connect 168 0 110 0;
