#N canvas 254 25 1186 847 10;
#X obj 832 628 textfile;
#X msg 658 611 write /usbdrive/rec.txt;
#X msg 831 600 add 1 \;;
#X obj 11 131 s screenLine1;
#X msg 11 94 Do you want to;
#X obj 118 130 s screenLine2;
#X msg 118 93 prepare and reset USB?;
#X obj 267 130 s screenLine5;
#X msg 267 93 Yes = Press Aux;
#X obj 11 19 loadbang;
#X obj 11 42 t b b b;
#X obj 21 235 r aux;
#X obj 21 264 sel 1;
#X obj 21 583 s screenLine1;
#X obj 128 582 s screenLine2;
#X obj 21 494 t b b b;
#X msg 21 546 ARE;
#X msg 128 545 YOU;
#X msg 277 545 SURE?;
#X obj 277 581 s screenLine3;
#X obj 469 977 s screenLine1;
#X obj 576 976 s screenLine2;
#X obj 725 975 s screenLine3;
#X msg 469 940 USB ready;
#X obj 469 848 t b b b b, f 64;
#X msg 576 939 Have fun!;
#X msg 725 939 Make cool recordings!;
#X obj 876 974 s screenLine5;
#X obj 21 446 sel 0 1 2, f 112;
#X obj 539 777 s screenLine1;
#X obj 646 776 s screenLine2;
#X obj 795 775 s screenLine3;
#X obj 539 688 t b b b b, f 64;
#X obj 946 774 s screenLine5;
#X msg 539 740 Resetting USB;
#X obj 519 484 bng 15 250 50 0 empty empty empty 17 7 0 10 #fcfcfc #000000 #000000;
#X msg 646 739 -;
#X msg 795 739 -;
#X msg 947 738 -;
#X obj 462 647 del 400;
#X obj 584 891 del 400;
#X obj 726 894 del 800;
#X obj 859 893 del 1200;
#X msg 876 938 You can close patch.;
#X obj 461 514 t b b b, f 44;
#X obj 716 546 t b b, f 21;
#X obj 716 569 del 200;
#X floatatom 21 297 5 0 0 0 - - - 0;
#X msg 101 300 set \$1;
#X obj 22 351 t f f, f 9;
#X obj 102 353 + 1;
#X connect 1 0 0 0;
#X connect 2 0 0 0;
#X connect 4 0 3 0;
#X connect 6 0 5 0;
#X connect 8 0 7 0;
#X connect 9 0 10 0;
#X connect 10 0 4 0;
#X connect 10 1 6 0;
#X connect 10 2 8 0;
#X connect 11 0 12 0;
#X connect 12 0 47 0;
#X connect 15 0 16 0;
#X connect 15 1 17 0;
#X connect 15 2 18 0;
#X connect 16 0 13 0;
#X connect 17 0 14 0;
#X connect 18 0 19 0;
#X connect 23 0 20 0;
#X connect 24 0 23 0;
#X connect 24 1 40 0;
#X connect 24 2 41 0;
#X connect 24 3 42 0;
#X connect 25 0 21 0;
#X connect 26 0 22 0;
#X connect 28 0 15 0;
#X connect 28 1 44 0;
#X connect 32 0 34 0;
#X connect 32 1 36 0;
#X connect 32 2 37 0;
#X connect 32 3 38 0;
#X connect 34 0 29 0;
#X connect 35 0 44 0;
#X connect 36 0 30 0;
#X connect 37 0 31 0;
#X connect 38 0 33 0;
#X connect 39 0 24 0;
#X connect 40 0 25 0;
#X connect 41 0 26 0;
#X connect 42 0 43 0;
#X connect 43 0 27 0;
#X connect 44 0 39 0;
#X connect 44 1 32 0;
#X connect 44 2 45 0;
#X connect 45 0 46 0;
#X connect 45 1 2 0;
#X connect 46 0 1 0;
#X connect 47 0 49 0;
#X connect 48 0 47 0;
#X connect 49 0 28 0;
#X connect 49 1 50 0;
#X connect 50 0 48 0;
