#N canvas 205 119 860 540 10;
#X text 32 12 PLAY multitrack punch-FX pd~ offload: warm-core click fix. After the first FX trigger the pd~ FX core stays DSP-warm; host dry/wet crossfade is 15 ms for tight rhythmic punches.;
#X obj 45 50 inlet~;
#X obj 125 50 inlet~;
#X obj 590 430 outlet~;
#X obj 670 430 outlet~;
#X obj 45 360 *~;
#X obj 125 360 *~;
#X obj 335 360 *~;
#X obj 415 360 *~;
#X obj 590 390 +~;
#X obj 670 390 +~;
#X obj 292 55 r punchfx;
#X obj 292 85 t a a a;
#X obj 292 125 list prepend punchfx_core;
#X obj 292 155 list trim;
#X obj 335 300 pd~ -ninsig 2 -noutsig 2;
#X obj 540 55 loadbang;
#X msg 540 85 pd~ start -nogui punchfx_pdcore_sub.pd;
#X obj 530 115 route 0;
#X obj 530 145 unpack 0;
#X obj 530 175 change;
#X obj 530 205 t f f f;
#X obj 530 235 pack 0 15;
#X obj 530 265 line~;
#X obj 650 235 expr 1 - $f1;
#X obj 650 265 pack 0 15;
#X obj 650 295 line~;
#X obj 705 205 sel 0 1;
#X msg 705 235 pfxswitch 1;
#X obj 760 235 del 120;
#X msg 760 265 pfxswitch 1;
#X msg 675 235 stop;
#X obj 410 115 unpack 0 0;
#X obj 410 145 expr if($f1 > 0 && $f2 > 0\, 1\, 0);
#X obj 410 175 sel 1;
#X msg 410 205 pfxswitch 1;
#X msg 470 205 stop;
#X obj 285 220 loadbang;
#X msg 285 250 1;
#X connect 1 0 5 0;
#X connect 1 0 15 0;
#X connect 2 0 6 0;
#X connect 2 0 15 1;
#X connect 5 0 9 0;
#X connect 6 0 10 0;
#X connect 7 0 9 1;
#X connect 8 0 10 1;
#X connect 9 0 3 0;
#X connect 10 0 4 0;
#X connect 11 0 12 0;
#X connect 12 0 13 0;
#X connect 12 1 32 0;
#X connect 12 2 18 0;
#X connect 13 0 14 0;
#X connect 14 0 15 0;
#X connect 15 1 7 0;
#X connect 15 2 8 0;
#X connect 16 0 17 0;
#X connect 17 0 15 0;
#X connect 18 0 19 0;
#X connect 19 0 20 0;
#X connect 20 0 21 0;
#X connect 21 0 22 0;
#X connect 21 1 24 0;
#X connect 21 2 27 0;
#X connect 22 0 23 0;
#X connect 23 0 5 1;
#X connect 23 0 6 1;
#X connect 24 0 25 0;
#X connect 25 0 26 0;
#X connect 26 0 7 1;
#X connect 26 0 8 1;
#X connect 27 0 28 0;
#X connect 27 0 31 0;
#X connect 27 1 29 0;
#X connect 28 0 15 0;
#X connect 29 0 30 0;
#X connect 30 0 15 0;
#X connect 31 0 29 0;
#X connect 32 0 33 0;
#X connect 32 1 33 1;
#X connect 33 0 34 0;
#X connect 34 0 35 0;
#X connect 34 0 36 0;
#X connect 35 0 15 0;
#X connect 36 0 29 0;
#X connect 37 0 38 0;
#X connect 38 0 21 0;
