#N canvas 205 119 820 520 10;
#X text 32 12 PLAY multitrack CPU guard: dry bypass while idle. The gate now follows the dry-control message (punchfx 0 1/0) instead of treating every punchfx 0 message as inactive. This keeps the FX core audible while dry is off.;
#X obj 45 50 inlet~;
#X obj 125 50 inlet~;
#X obj 590 430 outlet~;
#X obj 670 430 outlet~;
#X obj 45 360 *~;
#X obj 125 360 *~;
#X obj 335 360 *~;
#X obj 415 360 *~;
#X obj 590 390 +~;
#X obj 670 390 +~;
#X obj 292 55 r punchfx;
#X obj 292 85 t a a a;
#X obj 292 145 s punchfx_core;
#X obj 530 115 route 0;
#X obj 530 145 unpack 0;
#X obj 530 175 change;
#X obj 530 205 t f f f;
#X obj 530 235 pack 0 15;
#X obj 530 265 line~;
#X obj 650 235 expr 1 - $f1;
#X obj 650 265 pack 0 15;
#X obj 650 295 line~;
#X obj 705 205 sel 0 1;
#X msg 705 235 1;
#X obj 705 265 s \$0-switch;
#X obj 760 235 del 120;
#X msg 760 265 0;
#X msg 675 235 stop;
#X obj 410 115 unpack 0 0;
#X obj 410 145 expr if($f1 > 0 && $f2 > 0\, 1\, 0);
#X obj 410 175 sel 1;
#N canvas 380 180 480 310 fxcore 0;
#X obj 35 40 inlet~;
#X obj 115 40 inlet~;
#X obj 35 125 punchfx_core~;
#X obj 35 205 outlet~;
#X obj 115 205 outlet~;
#X obj 315 55 r \$0-switch;
#X obj 315 90 switch~;
#X connect 0 0 2 0;
#X connect 1 0 2 1;
#X connect 2 0 3 0;
#X connect 2 1 4 0;
#X connect 5 0 6 0;
#X restore 335 315 pd fxcore;
#X obj 285 220 loadbang;
#X msg 285 250 1;
#X msg 335 250 0;
#X connect 1 0 5 0;
#X connect 1 0 32 0;
#X connect 2 0 6 0;
#X connect 2 0 32 1;
#X connect 5 0 9 0;
#X connect 6 0 10 0;
#X connect 7 0 9 1;
#X connect 8 0 10 1;
#X connect 9 0 3 0;
#X connect 10 0 4 0;
#X connect 11 0 12 0;
#X connect 12 0 13 0;
#X connect 12 1 29 0;
#X connect 12 2 14 0;
#X connect 14 0 15 0;
#X connect 15 0 16 0;
#X connect 16 0 17 0;
#X connect 17 0 18 0;
#X connect 17 1 20 0;
#X connect 17 2 23 0;
#X connect 18 0 19 0;
#X connect 19 0 5 1;
#X connect 19 0 6 1;
#X connect 20 0 21 0;
#X connect 21 0 22 0;
#X connect 22 0 7 1;
#X connect 22 0 8 1;
#X connect 23 0 24 0;
#X connect 23 0 28 0;
#X connect 23 1 26 0;
#X connect 24 0 25 0;
#X connect 26 0 27 0;
#X connect 27 0 25 0;
#X connect 28 0 26 0;
#X connect 29 0 30 0;
#X connect 29 1 30 1;
#X connect 30 0 31 0;
#X connect 31 0 24 0;
#X connect 31 0 28 0;
#X connect 32 0 7 0;
#X connect 32 1 8 0;
#X connect 33 0 34 0;
#X connect 33 0 35 0;
#X connect 34 0 17 0;
#X connect 35 0 25 0;
