#N canvas 891 353 736 462 10;
#X obj 80 119 tuner;
#X text 402 126 <-- Switch audio on to tune up.;
#X text 224 50 <-- Open-G tuning (D \, G \, D \, G \, B \, D);
#X text 246 70 And so on (in midi notation)...;
#X obj 572 15 loadbang;
#X msg 572 37 \; pd dsp 1 \;;
#X obj 204 242 r knob1;
#X obj 204 264 * 2;
#X obj 204 286 - 0.1;
#X obj 204 308 i;
#X obj 204 330 sel 0;
#X obj 92 5 loadbang;
#X obj 73 328 oled;
#X obj 142 421 s tuning-type;
#X obj 262 421 s tuning-type;
#X msg 261 362 symbol Open-G;
#X msg 162 381 symbol Standard;
#X text 224 29 <-- Standard tuning (E \, A \, D \, G);
#X msg 93 30 28 33 38 43;
#X msg 98 52 26 33 38 43;
#X connect 4 0 5 0;
#X connect 6 0 7 0;
#X connect 7 0 8 0;
#X connect 8 0 9 0;
#X connect 9 0 10 0;
#X connect 10 0 18 0;
#X connect 10 0 16 0;
#X connect 10 1 19 0;
#X connect 10 1 15 0;
#X connect 11 0 18 0;
#X connect 15 0 14 0;
#X connect 16 0 13 0;
#X connect 18 0 0 0;
#X connect 19 0 0 0;
