#N canvas 0 25 1016 656 10;
#X obj 654 94 superduperdrum;
#X obj 371 214 lead;
#X obj 201 11 interface;
#X obj 168 444 stereodelay;
#X obj 168 227 reverbeffect;
#X obj 63 612 dac~;
#X text 29 589 Plugged in the DAC.;
#X text 653 27 Interface: Random sequence synthesizer. Routed as Aux.1
;
#X text 654 38 Lead: An 8-step sequence synthesizer. Routed as Aux.
2;
#X text 654 50 SuperDuperDrum: Pattern drum machine. Routed as Aux.
3;
#X text 656 62 Reverb Effect: Stereo Reverb with parameter control.
;
#X text 654 74 Stereo Delay: Stereo Delay Line with feedback.;
#X text 700 11 Weird Synthesizer for Weird People V1.1;
#X obj 173 30 vradio 15 1 0 12 empty empty empty 0 -6 0 10 -262130
-159808 -1 0;
#X text 169 210 WhereIt? Check the PD window.;
#X obj 69 245 whereit;
#X text 23 265 Alternative Helpfile;
#X obj 35 16 loadbang;
#X msg 35 38 0;
#X text 26 60 Display greeting.;
#X floatatom 110 195 5 0 0 0 - - -;
#X connect 0 0 4 4;
#X connect 0 0 3 4;
#X connect 0 0 5 0;
#X connect 0 1 4 5;
#X connect 0 1 3 5;
#X connect 0 1 5 1;
#X connect 1 0 4 2;
#X connect 1 0 3 2;
#X connect 1 0 5 0;
#X connect 1 1 4 3;
#X connect 1 1 3 3;
#X connect 1 1 5 1;
#X connect 2 0 1 0;
#X connect 2 0 0 0;
#X connect 2 1 1 1;
#X connect 2 1 0 1;
#X connect 2 2 4 0;
#X connect 2 2 3 0;
#X connect 2 2 5 0;
#X connect 2 3 4 1;
#X connect 2 3 3 1;
#X connect 2 3 5 1;
#X connect 3 0 5 0;
#X connect 3 1 5 1;
#X connect 4 0 5 0;
#X connect 4 1 5 1;
#X connect 13 0 15 0;
#X connect 13 0 20 0;
#X connect 17 0 18 0;
#X connect 18 0 13 0;
#X coords 0 -1 1 1 850 640 1 160 7;
