#N canvas 0 25 1016 656 10;
#X obj 253 228 vline~;
#X obj 238 253 *~;
#X obj 253 172 inlet;
#X obj 239 287 outlet~;
#X obj 172 205 inlet~;
#X text 162 46 Drum Sound Envelope;
#X text 222 304 Signal out;
#X text 152 188 Signal in;
#X text 254 155 Trigger;
#X msg 253 204 1 1 \, 0 160 160 \,;
#X connect 0 0 1 1;
#X connect 1 0 3 0;
#X connect 2 0 9 0;
#X connect 4 0 1 0;
#X connect 9 0 0 0;
