#N canvas 0 25 995 635 10;
#X obj 206 382 main;
#X obj 372 129 vsl 15 128 0 0.2 0 0 empty empty empty 0 -9 0 10 -24198
-1 -1 0 1;
#X obj 419 129 vsl 15 128 0 0.2 0 0 empty empty empty 0 -9 0 10 -24198
-1 -1 0 1;
#X obj 465 129 vsl 15 128 0 0.2 0 0 empty empty empty 0 -9 0 10 -24198
-1 -1 0 1;
#X obj 512 129 vsl 15 128 0 0.2 0 0 empty empty empty 0 -9 0 10 -24198
-1 -1 0 1;
#X obj 187 130 vsl 15 128 0 0.2 0 0 empty empty empty 0 -9 0 10 -24198
-1 -1 0 1;
#X obj 235 130 vsl 15 128 0 0.2 0 0 empty empty empty 0 -9 0 10 -24198
-1 -1 0 1;
#X obj 280 130 vsl 15 128 0 0.2 0 0 empty empty empty 0 -9 0 10 -24198
-1 -1 0 1;
#X obj 325 130 vsl 15 128 0 0.2 0 0 empty empty empty 0 -9 0 10 -24198
-1 -1 0 1;
#X obj 177 269 hsl 35 15 -1 1 0 0 empty empty empty -2 -8 0 10 -258699
-1 -1 1700 1;
#X obj 224 269 hsl 35 15 -1 1 0 0 empty empty empty -2 -8 0 10 -258699
-1 -1 1700 1;
#X obj 270 269 hsl 35 15 -1 1 0 0 empty empty empty -2 -8 0 10 -258699
-1 -1 1700 1;
#X obj 316 269 hsl 35 15 -1 1 0 0 empty empty empty -2 -8 0 10 -258699
-1 -1 1700 1;
#X obj 362 269 hsl 35 15 -1 1 0 0 empty empty empty -2 -8 0 10 -258699
-1 -1 1700 1;
#X obj 409 269 hsl 35 15 -1 1 0 0 empty empty empty -2 -8 0 10 -258699
-1 -1 1700 1;
#X obj 456 269 hsl 35 15 -1 1 0 0 empty empty empty -2 -8 0 10 -258699
-1 -1 1700 1;
#X obj 503 269 hsl 35 15 -1 1 0 0 empty empty empty -2 -8 0 10 -258699
-1 -1 1700 1;
#X obj 317 357 loadbang;
#X msg 317 391 0;
#X obj 430 585 outlet~;
#X obj 499 585 outlet~;
#X text 413 606 Master Signal output L-R;
#X text 119 186 Speed;
#X text 119 114 On/Off;
#X floatatom 123 172 5 0 0 0 - - -;
#X obj 126 131 tgl 25 0 empty empty empty 0 -6 0 10 -257985 -1 -1 0
1;
#X text 110 154 Sequencer;
#X obj 23 587 outlet;
#X obj 81 587 outlet;
#X text 185 107 Random Ring Mod Synth: Levels in green and panners
in red.;
#X text 10 608 Control Outputs to sync all the other devices.;
#X text 353 390 Resets GUI pan Sliders to zero on load.;
#X text 254 72 Synthesis Engine GUI.;
#X text 571 127 This thing randomly synthesizes ring-modulation effects
and gives you control over each one of the sidebands. Each slider is
one sideband only \, while every pair of sliders consist of a full
Ring Modulation effect which can be panned to provide each sideband
in a different stereo position.;
#X text 213 215 1;
#X text 306 215 2;
#X text 397 215 3;
#X text 491 217 4;
#X text 205 198 Pair;
#X text 296 198 Pair;
#X text 389 198 Pair;
#X text 482 199 Pair;
#X msg 62 49 350;
#X text 16 27 Sets sequencer speed at a default value on load.;
#X obj 123 235 vradio 25 1 0 2 empty empty empty 0 -6 0 10 -204786
-258113 -1 0;
#X obj 589 479 - 1;
#X obj 589 499 abs;
#X obj 499 561 *~;
#X obj 430 561 *~;
#X text 617 484 Mute Control for the audio. We don't want it to get
on anybody's nerves now \, do we?;
#X text 111 217 Audio On;
#X text 104 284 Audio Mute;
#X obj 589 519 line 0 6;
#X connect 0 0 48 0;
#X connect 0 1 47 0;
#X connect 1 0 0 6;
#X connect 2 0 0 7;
#X connect 3 0 0 8;
#X connect 4 0 0 9;
#X connect 5 0 0 2;
#X connect 6 0 0 3;
#X connect 7 0 0 4;
#X connect 8 0 0 5;
#X connect 9 0 0 10;
#X connect 10 0 0 11;
#X connect 11 0 0 12;
#X connect 12 0 0 13;
#X connect 13 0 0 14;
#X connect 14 0 0 15;
#X connect 15 0 0 16;
#X connect 16 0 0 17;
#X connect 17 0 18 0;
#X connect 17 0 42 0;
#X connect 18 0 5 0;
#X connect 18 0 6 0;
#X connect 18 0 7 0;
#X connect 18 0 8 0;
#X connect 18 0 1 0;
#X connect 18 0 2 0;
#X connect 18 0 3 0;
#X connect 18 0 4 0;
#X connect 18 0 9 0;
#X connect 18 0 10 0;
#X connect 18 0 11 0;
#X connect 18 0 12 0;
#X connect 18 0 13 0;
#X connect 18 0 14 0;
#X connect 18 0 15 0;
#X connect 18 0 16 0;
#X connect 18 0 44 0;
#X connect 24 0 0 1;
#X connect 24 0 28 0;
#X connect 25 0 0 0;
#X connect 25 0 27 0;
#X connect 42 0 24 0;
#X connect 44 0 45 0;
#X connect 45 0 46 0;
#X connect 46 0 52 0;
#X connect 47 0 20 0;
#X connect 48 0 19 0;
#X connect 52 0 47 1;
#X connect 52 0 48 1;
#X coords 0 -1 1 1 450 200 1 100 100;
