#N canvas 0 25 1016 656 10;
#X obj 621 458 drumenv;
#X obj 563 403 line 0 10;
#X obj 563 425 phasor~ 250;
#X msg 214 594 250;
#X msg 159 594 125;
#X msg 242 594 275;
#X msg 186 594 200;
#X obj 390 49 inlet;
#X obj 82 46 inlet;
#X obj 668 592 outlet~;
#X obj 172 426 vsl 15 60 0 1 0 0 empty empty empty 0 -8 0 10 -260097
-1 -1 0 1;
#X obj 622 534 *~;
#X obj 621 481 vcf~;
#X obj 288 426 vsl 15 60 0.0001 0.01 0 0 empty empty empty 0 -8 0 10
-203904 -1 -1 0 1;
#X obj 773 453 osc~;
#X obj 231 426 vsl 15 60 10 5000 0 0 empty empty empty 0 -8 0 10 -204800
-1 -1 0 1;
#X obj 772 432 sig~;
#X obj 622 509 *~;
#X obj 754 519 + 0.5;
#X text 160 485 Volume;
#X text 210 485 Frequency;
#X text 290 486 Q;
#X obj 622 561 panning~;
#X obj 619 592 outlet~;
#X obj 173 501 hsl 128 15 -1 1 0 0 empty empty empty -2 -6 0 10 -261234
-1 -1 6350 1;
#X msg 132 594 0;
#X text 203 514 Pan Control;
#X obj 115 115 thesequencer;
#X text 83 24 On/Off;
#X text 383 28 Speed;
#X text 760 504 Level compensation for Q.;
#X text 669 456 Envelope;
#X text 658 486 Filter;
#X text 649 533 Master Volume;
#X text 687 558 Master Pan;
#X text 626 612 Left and Right Signal Outputs;
#X msg 26 594 0;
#X msg 86 594 0.0001;
#X msg 57 594 10;
#X obj 14 64 loadbang;
#X text 85 618 Bang Default Values for sliders on load;
#X obj 754 491 * 300;
#X obj 207 278 vsl 15 60 25 275 0 0 empty empty empty 0 -8 0 10 -261234
-1 -1 5310 1;
#X obj 226 278 vsl 15 60 25 275 0 0 empty empty empty 0 -8 0 10 -261682
-1 -1 5900 1;
#X obj 169 278 vsl 15 60 25 275 0 0 empty empty empty 0 -8 0 10 -261234
-1 -1 2360 1;
#X obj 188 278 vsl 15 60 25 275 0 0 empty empty empty 0 -8 0 10 -261682
-1 -1 4130 1;
#X obj 280 278 vsl 15 60 25 275 0 0 empty empty empty 0 -8 0 10 -261234
-1 -1 5310 1;
#X obj 298 278 vsl 15 60 25 275 0 0 empty empty empty 0 -8 0 10 -261682
-1 -1 5900 1;
#X obj 244 278 vsl 15 60 25 275 0 0 empty empty empty 0 -8 0 10 -261234
-1 -1 2360 1;
#X obj 262 278 vsl 15 60 25 275 0 0 empty empty empty 0 -8 0 10 -261682
-1 -1 4130 1;
#X msg 325 594 250;
#X msg 270 594 125;
#X msg 351 594 275;
#X msg 298 594 200;
#X obj 169 344 tgl 15 0 empty empty empty 0 -6 0 10 -4034 -1 -1 1 1
;
#X obj 207 344 tgl 15 0 empty empty empty 0 -6 0 10 -4034 -1 -1 1 1
;
#X obj 226 344 tgl 15 0 empty empty empty 0 -6 0 10 -4034 -1 -1 1 1
;
#X obj 244 344 tgl 15 0 empty empty empty 0 -6 0 10 -4034 -1 -1 1 1
;
#X obj 298 343 tgl 15 0 empty empty empty 0 -6 0 10 -4034 -1 -1 1 1
;
#X obj 262 343 tgl 15 0 empty empty empty 0 -6 0 10 -4034 -1 -1 1 1
;
#X obj 280 343 tgl 15 0 empty empty empty 0 -6 0 10 -4034 -1 -1 1 1
;
#X obj 188 344 tgl 15 0 empty empty empty 0 -6 0 10 -4034 -1 -1 1 1
;
#X obj 488 140 controlthematrix;
#X obj 488 159 controlthematrix;
#X obj 489 28 controlthematrix;
#X obj 489 46 controlthematrix;
#X obj 489 65 controlthematrix;
#X obj 489 84 controlthematrix;
#X obj 489 103 controlthematrix;
#X obj 489 122 controlthematrix;
#X obj 169 380 tgl 15 0 empty empty empty 0 -6 0 10 -33289 -262144
-1 0 1;
#X obj 207 380 tgl 15 0 empty empty empty 0 -6 0 10 -1 -262144 -1 0
1;
#X obj 226 380 tgl 15 0 empty empty empty 0 -6 0 10 -1 -262144 -1 0
1;
#X obj 244 380 tgl 15 0 empty empty empty 0 -6 0 10 -1 -262144 -1 0
1;
#X obj 298 379 tgl 15 0 empty empty empty 0 -6 0 10 -1 -262144 -1 0
1;
#X obj 262 379 tgl 15 0 empty empty empty 0 -6 0 10 -1 -262144 -1 0
1;
#X obj 280 379 tgl 15 0 empty empty empty 0 -6 0 10 -1 -262144 -1 0
1;
#X obj 188 380 tgl 15 0 empty empty empty 0 -6 0 10 -1 -262144 -1 0
1;
#X obj 832 347 controlthematrix;
#X obj 832 365 controlthematrix;
#X obj 832 240 controlthematrix;
#X obj 832 258 controlthematrix;
#X obj 832 276 controlthematrix;
#X obj 832 294 controlthematrix;
#X obj 832 312 controlthematrix;
#X obj 832 329 controlthematrix;
#X text 604 73 Slider On/Off;
#X text 599 93 To bang the value \, or not to bang?;
#X text 841 217 Step On/Off;
#X text 172 258 1;
#X text 190 258 2;
#X text 208 258 3;
#X text 228 258 4;
#X text 247 258 5;
#X text 265 258 6;
#X text 283 260 7;
#X text 301 259 8;
#X text 199 247 Pitch Sliders;
#X text 197 358 Slider On/Off;
#X text 204 393 Step/Pause;
#X msg 379 594 1;
#X text 248 408 Filter;
#X connect 0 0 12 0;
#X connect 1 0 2 0;
#X connect 2 0 0 0;
#X connect 3 0 42 0;
#X connect 4 0 44 0;
#X connect 5 0 43 0;
#X connect 6 0 45 0;
#X connect 7 0 27 1;
#X connect 8 0 27 0;
#X connect 10 0 11 1;
#X connect 11 0 22 0;
#X connect 12 0 17 0;
#X connect 13 0 12 2;
#X connect 13 0 41 0;
#X connect 14 0 12 1;
#X connect 15 0 16 0;
#X connect 16 0 14 0;
#X connect 17 0 11 0;
#X connect 18 0 17 1;
#X connect 22 0 23 0;
#X connect 22 1 9 0;
#X connect 24 0 22 1;
#X connect 25 0 24 0;
#X connect 27 0 80 0;
#X connect 27 0 44 0;
#X connect 27 1 81 0;
#X connect 27 1 45 0;
#X connect 27 2 82 0;
#X connect 27 2 42 0;
#X connect 27 3 83 0;
#X connect 27 3 43 0;
#X connect 27 4 84 0;
#X connect 27 4 48 0;
#X connect 27 5 85 0;
#X connect 27 5 49 0;
#X connect 27 6 78 0;
#X connect 27 6 46 0;
#X connect 27 7 79 0;
#X connect 27 7 47 0;
#X connect 36 0 10 0;
#X connect 37 0 13 0;
#X connect 38 0 15 0;
#X connect 39 0 36 0;
#X connect 39 0 38 0;
#X connect 39 0 37 0;
#X connect 39 0 25 0;
#X connect 39 0 4 0;
#X connect 39 0 6 0;
#X connect 39 0 3 0;
#X connect 39 0 5 0;
#X connect 39 0 51 0;
#X connect 39 0 53 0;
#X connect 39 0 50 0;
#X connect 39 0 52 0;
#X connect 39 0 100 0;
#X connect 41 0 18 0;
#X connect 42 0 66 0;
#X connect 43 0 67 0;
#X connect 44 0 64 0;
#X connect 45 0 65 0;
#X connect 46 0 62 0;
#X connect 47 0 63 0;
#X connect 48 0 68 0;
#X connect 49 0 69 0;
#X connect 50 0 46 0;
#X connect 51 0 48 0;
#X connect 52 0 47 0;
#X connect 53 0 49 0;
#X connect 54 0 64 1;
#X connect 55 0 66 1;
#X connect 56 0 67 1;
#X connect 57 0 68 1;
#X connect 58 0 63 1;
#X connect 59 0 69 1;
#X connect 60 0 62 1;
#X connect 61 0 65 1;
#X connect 62 0 1 0;
#X connect 63 0 1 0;
#X connect 64 0 1 0;
#X connect 65 0 1 0;
#X connect 66 0 1 0;
#X connect 67 0 1 0;
#X connect 68 0 1 0;
#X connect 69 0 1 0;
#X connect 70 0 80 1;
#X connect 71 0 82 1;
#X connect 72 0 83 1;
#X connect 73 0 84 1;
#X connect 74 0 79 1;
#X connect 75 0 85 1;
#X connect 76 0 78 1;
#X connect 77 0 81 1;
#X connect 78 0 0 1;
#X connect 79 0 0 1;
#X connect 80 0 0 1;
#X connect 81 0 0 1;
#X connect 82 0 0 1;
#X connect 83 0 0 1;
#X connect 84 0 0 1;
#X connect 85 0 0 1;
#X connect 100 0 54 0;
#X connect 100 0 61 0;
#X connect 100 0 55 0;
#X connect 100 0 56 0;
#X connect 100 0 57 0;
#X connect 100 0 59 0;
#X connect 100 0 60 0;
#X connect 100 0 58 0;
#X coords 0 -1 1 1 280 430 1 100 100;
