#N canvas 0 25 995 635 10;
#X obj 140 233 rmosc;
#X text 106 105 Toggle On/Off;
#X obj 139 279 *~;
#X obj 180 277 *~;
#X obj 140 123 inlet;
#X obj 371 120 inlet;
#X obj 445 120 inlet;
#X text 403 97 Amplitude;
#X obj 261 120 inlet;
#X text 256 103 Speed;
#X text 126 26 Random Frequency Ring Modulation Generator.;
#X obj 96 327 outlet~;
#X obj 187 324 outlet~;
#X text 116 363 Signal Outputs;
#X obj 170 202 randonum;
#X obj 140 168 randonum;
#X text 97 343 Left;
#X text 188 341 Right;
#X connect 0 0 2 0;
#X connect 0 1 3 0;
#X connect 2 0 11 0;
#X connect 3 0 12 0;
#X connect 4 0 14 0;
#X connect 4 0 15 0;
#X connect 5 0 2 1;
#X connect 6 0 3 1;
#X connect 8 0 14 1;
#X connect 8 0 15 1;
#X connect 14 0 0 1;
#X connect 15 0 0 0;
