#N canvas 0 25 995 635 10;
#X obj 188 206 osc~;
#X obj 109 207 osc~;
#X obj 111 130 +;
#X obj 187 131 -;
#X obj 226 94 bang;
#X obj 208 41 inlet;
#X obj 52 27 inlet;
#X obj 108 243 outlet~;
#X obj 187 244 outlet~;
#X text 53 290 Ring Modulator that provides the sideband frequency
number to two oscillators \, instead of multiplying the outputs of
the oscillators to generate them. I think it might be more efficient
in that there is no complicated signal processing since the sidebands
are mathematically calculated.;
#X connect 0 0 8 0;
#X connect 1 0 7 0;
#X connect 2 0 1 0;
#X connect 3 0 0 0;
#X connect 4 0 2 0;
#X connect 4 0 3 0;
#X connect 5 0 3 1;
#X connect 5 0 2 1;
#X connect 5 0 4 0;
#X connect 6 0 2 0;
#X connect 6 0 3 0;
