#N canvas 0 25 1001 656 10;
#X obj 320 468 dline~;
#X obj 325 552 outlet~;
#X obj 123 153 vsl 15 128 0 5000 0 0 empty empty empty 0 -8 0 10 -86277
-261234 -1 0 1;
#X obj 163 153 vsl 15 128 0 0.999 0 0 empty empty empty 0 -8 0 10 -83269
-262130 -1 0 1;
#X text 159 117 Digital Delay;
#X text 116 135 Time;
#X text 161 134 Fb;
#X text 122 282 ms;
#X text 165 282 %;
#X text 69 20 Delay Line with Feedback and GUI.;
#X obj 372 552 outlet~;
#X text 325 572 Left and Right signal outputs.;
#X text 606 32 Signal Inputs;
#X obj 380 469 dline~;
#X text 53 34 V2.0 Transformed to a stereo delay line.;
#X obj 457 386 *~;
#X obj 632 388 *~;
#X obj 593 386 *~;
#X obj 493 387 *~;
#X obj 669 388 *~;
#X obj 529 387 *~;
#X obj 520 61 inlet~;
#X obj 563 61 inlet~;
#X obj 607 61 inlet~;
#X obj 650 61 inlet~;
#X obj 694 61 inlet~;
#X obj 737 61 inlet~;
#X obj 207 152 vsl 15 128 0 1 0 0 empty empty empty 0 -8 0 10 -99865
-4032 -1 0 1;
#X obj 236 152 vsl 15 128 0 1 0 0 empty empty empty 0 -8 0 10 -86277
-232576 -1 0 1;
#X obj 266 152 vsl 15 128 0 1 0 0 empty empty empty 0 -8 0 10 -16662
-257985 -1 0 1;
#X text 208 133 Aux. Levels;
#X text 209 283 1;
#X text 237 282 2;
#X text 268 282 3;
#X msg 346 60 0.6;
#X msg 318 60 350;
#X obj 333 34 loadbang;
#X text 349 12 Loads Preset Values.;
#X connect 0 0 1 0;
#X connect 2 0 0 1;
#X connect 2 0 13 1;
#X connect 3 0 0 2;
#X connect 3 0 13 2;
#X connect 13 0 10 0;
#X connect 15 0 0 0;
#X connect 16 0 13 0;
#X connect 17 0 13 0;
#X connect 18 0 0 0;
#X connect 19 0 13 0;
#X connect 20 0 0 0;
#X connect 21 0 15 0;
#X connect 22 0 17 0;
#X connect 23 0 18 0;
#X connect 24 0 16 0;
#X connect 25 0 20 0;
#X connect 26 0 19 0;
#X connect 27 0 15 1;
#X connect 27 0 17 1;
#X connect 28 0 18 1;
#X connect 28 0 16 1;
#X connect 29 0 20 1;
#X connect 29 0 19 1;
#X connect 34 0 3 0;
#X connect 35 0 2 0;
#X connect 36 0 35 0;
#X connect 36 0 34 0;
#X coords 0 -1 1 1 200 200 1 100 100;
