#N canvas 0 25 1016 656 10;
#X obj 891 564 outlet~;
#X obj 777 571 outlet~;
#X obj 433 50 inlet;
#X obj 195 56 inlet;
#X obj 857 481 *~;
#X obj 955 473 *~;
#X obj 725 476 *~;
#X obj 319 427 vsl 15 128 0 0.5 0 0 empty empty empty 0 -8 0 10 -204786
-1 -1 0 1;
#X obj 233 427 vsl 15 128 0 0.5 0 0 empty empty empty 0 -8 0 10 -262130
-1 -1 0 1;
#X obj 409 427 vsl 15 128 0 0.3 0 0 empty empty empty 0 -8 0 10 -204800
-1 -1 0 1;
#X text 215 558 Bass Drum;
#X text 294 558 Snare Drum;
#X obj 399 580 hsl 35 15 -1 1 0 0 empty empty empty -2 -6 0 10 -258113
-1 -1 1700 1;
#X obj 309 579 hsl 35 15 -1 1 0 0 empty empty empty -2 -6 0 10 -258113
-1 -1 1700 1;
#X obj 223 579 hsl 35 15 -1 1 0 0 empty empty empty -2 -6 0 10 -258113
-1 -1 1700 1;
#X obj 583 592 loadbang;
#X msg 583 627 0;
#X obj 898 525 panning~;
#X obj 814 529 panning~;
#X obj 720 524 panning~;
#X text 225 592 Red horizontal sliders for panning.;
#X text 528 607 Reset Pan GUI Sliders to zero at load.;
#X text 189 34 On/Off;
#X text 431 29 Speed;
#X text 743 590 Left Signal Out;
#X text 895 586 Right Signal Out;
#X text 753 489 Volume Controls;
#X obj 347 296 tgl 15 0 empty empty empty 0 -6 0 10 -203904 -1 -1 0
1;
#X obj 382 298 tgl 15 0 empty empty empty 0 -6 0 10 -261682 -1 -1 0
1;
#X obj 203 334 tgl 15 0 empty empty empty 0 -6 0 10 -262130 -1 -1 0
1;
#X obj 238 336 tgl 15 0 empty empty empty 0 -6 0 10 -258113 -1 -1 0
1;
#X obj 277 295 tgl 15 0 empty empty empty 0 -6 0 10 -257985 -1 -1 0
1;
#X obj 312 297 tgl 15 0 empty empty empty 0 -6 0 10 -4032 -1 -1 0 1
;
#X obj 203 293 tgl 15 0 empty empty empty 0 -6 0 10 -258113 -1 -1 0
1;
#X obj 238 295 tgl 15 0 empty empty empty 0 -6 0 10 -260097 -1 -1 0
1;
#X obj 421 377 tgl 15 0 empty empty empty 0 -6 0 10 -257985 -1 -1 0
1;
#X obj 454 378 tgl 15 0 empty empty empty 0 -6 0 10 -4032 -1 -1 0 1
;
#X obj 279 375 tgl 15 0 empty empty empty 0 -6 0 10 -258113 -1 -1 0
1;
#X obj 314 377 tgl 15 0 empty empty empty 0 -6 0 10 -260097 -1 -1 0
1;
#X obj 352 376 tgl 15 0 empty empty empty 0 -6 0 10 -258113 -1 -1 0
1;
#X obj 387 378 tgl 15 0 empty empty empty 0 -6 0 10 -260097 -1 -1 0
1;
#X obj 203 371 tgl 15 0 empty empty empty 0 -6 0 10 -261234 -1 -1 0
1;
#X obj 238 373 tgl 15 0 empty empty empty 0 -6 0 10 -262130 -1 -1 0
1;
#X obj 350 336 tgl 15 0 empty empty empty 0 -6 0 10 -4032 -1 -1 0 1
;
#X obj 385 338 tgl 15 0 empty empty empty 0 -6 0 10 -258113 -1 -1 0
1;
#X obj 279 335 tgl 15 0 empty empty empty 0 -6 0 10 -260097 -1 -1 0
1;
#X obj 314 337 tgl 15 0 empty empty empty 0 -6 0 10 -257985 -1 -1 0
1;
#X obj 416 297 tgl 15 0 empty empty empty 0 -6 0 10 -258113 -1 -1 0
1;
#X obj 450 337 tgl 15 0 empty empty empty 0 -6 0 10 -257985 -1 -1 0
1;
#X obj 449 296 tgl 15 0 empty empty empty 0 -6 0 10 -260097 -1 -1 0
1;
#X obj 418 338 tgl 15 0 empty empty empty 0 -6 0 10 -260097 -1 -1 0
1;
#X text 204 267 1;
#X text 241 268 2;
#X text 279 268 3;
#X text 314 268 4;
#X text 348 268 5;
#X text 384 269 6;
#X text 416 269 7;
#X text 448 268 8;
#X obj 208 121 thesequencer;
#X obj 60 250 wifireless;
#X obj 8 52 s bone;
#X obj 8 72 s btwo;
#X obj 8 92 s bthree;
#X obj 8 111 s bfour;
#X obj 8 130 s bfive;
#X obj 8 149 s bsix;
#X obj 8 169 s bseven;
#X obj 9 188 s beight;
#X obj 59 229 r bone;
#X obj 579 131 s kick;
#X obj 629 130 s snar;
#X obj 694 128 s cymb;
#X obj 60 321 wifireless;
#X obj 59 392 wifireless;
#X obj 61 454 wifireless;
#X obj 574 248 wifireless;
#X obj 583 358 wifireless;
#X obj 581 306 wifireless;
#X obj 572 187 wifireless;
#X obj 59 300 r btwo;
#X obj 58 371 r bthree;
#X obj 60 433 r bfour;
#X obj 571 166 r bfive;
#X obj 573 227 r bsix;
#X obj 580 285 r bseven;
#X obj 582 337 r beight;
#X obj 725 185 r kick;
#X obj 744 255 r snar;
#X obj 789 312 r cymb;
#X text 248 609 --|---The Drum Machine---|--;
#X text 177 292 BD;
#X text 177 330 SD;
#X text 179 368 BL;
#X text 280 405 Level Controls;
#X text 267 354 Drum Programming Matrix;
#X text 401 558 Blip;
#X obj 725 210 drumz 0 0 0 1 50 1 50 25 0.3 1;
#X obj 744 284 drumz 1 0 0 0 0 0 0 16000 3 1;
#X obj 789 335 drumz 0 1 4000 1 8000 0 0 16000 3 1;
#X connect 2 0 59 1;
#X connect 3 0 59 0;
#X connect 4 0 18 0;
#X connect 5 0 17 0;
#X connect 6 0 19 0;
#X connect 7 0 4 1;
#X connect 8 0 6 1;
#X connect 9 0 5 1;
#X connect 12 0 17 1;
#X connect 13 0 18 1;
#X connect 14 0 19 1;
#X connect 15 0 16 0;
#X connect 16 0 14 0;
#X connect 16 0 13 0;
#X connect 16 0 12 0;
#X connect 17 0 1 0;
#X connect 17 1 0 0;
#X connect 18 0 1 0;
#X connect 18 1 0 0;
#X connect 19 0 1 0;
#X connect 19 1 0 0;
#X connect 27 0 79 1;
#X connect 28 0 76 1;
#X connect 29 0 60 2;
#X connect 30 0 73 2;
#X connect 31 0 74 1;
#X connect 32 0 75 1;
#X connect 33 0 60 1;
#X connect 34 0 73 1;
#X connect 35 0 78 3;
#X connect 36 0 77 3;
#X connect 37 0 74 3;
#X connect 38 0 75 3;
#X connect 39 0 79 3;
#X connect 40 0 76 3;
#X connect 41 0 60 3;
#X connect 42 0 73 3;
#X connect 43 0 79 2;
#X connect 44 0 76 2;
#X connect 45 0 74 2;
#X connect 46 0 75 2;
#X connect 47 0 78 1;
#X connect 48 0 77 2;
#X connect 49 0 77 1;
#X connect 50 0 78 2;
#X connect 59 0 61 0;
#X connect 59 1 62 0;
#X connect 59 2 63 0;
#X connect 59 3 64 0;
#X connect 59 4 65 0;
#X connect 59 5 66 0;
#X connect 59 6 67 0;
#X connect 59 7 68 0;
#X connect 60 0 70 0;
#X connect 60 1 71 0;
#X connect 60 2 72 0;
#X connect 69 0 60 0;
#X connect 73 0 70 0;
#X connect 73 1 71 0;
#X connect 73 2 72 0;
#X connect 74 0 70 0;
#X connect 74 1 71 0;
#X connect 74 2 72 0;
#X connect 75 0 70 0;
#X connect 75 1 71 0;
#X connect 75 2 72 0;
#X connect 76 0 70 0;
#X connect 76 1 71 0;
#X connect 76 2 72 0;
#X connect 77 0 70 0;
#X connect 77 1 71 0;
#X connect 77 2 72 0;
#X connect 78 0 70 0;
#X connect 78 1 71 0;
#X connect 78 2 72 0;
#X connect 79 0 70 0;
#X connect 79 1 71 0;
#X connect 79 2 72 0;
#X connect 80 0 73 0;
#X connect 81 0 74 0;
#X connect 82 0 75 0;
#X connect 83 0 79 0;
#X connect 84 0 76 0;
#X connect 85 0 78 0;
#X connect 86 0 77 0;
#X connect 87 0 97 0;
#X connect 88 0 98 0;
#X connect 89 0 99 0;
#X connect 97 0 6 0;
#X connect 98 0 4 0;
#X connect 99 0 5 0;
#X coords 0 -1 1 1 350 550 1 160 80;
