#N canvas 0 25 1016 656 10;
#X obj 32 77 controlthematrix;
#X obj 235 77 controlthematrix;
#X obj 134 77 controlthematrix;
#X obj 32 97 outlet;
#X obj 134 96 outlet;
#X obj 234 95 outlet;
#X obj 125 59 inlet;
#X obj 227 58 inlet;
#X obj 300 59 inlet;
#X obj 32 60 inlet;
#X text 27 120 Just to make things a bit clearer.;
#X connect 0 0 3 0;
#X connect 1 0 5 0;
#X connect 2 0 4 0;
#X connect 6 0 0 1;
#X connect 7 0 2 1;
#X connect 8 0 1 1;
#X connect 9 0 0 0;
#X connect 9 0 2 0;
#X connect 9 0 1 0;
