#N canvas 4 102 826 894 10;
#N canvas 300 227 1323 671 plaits_kick_accent 0;
#X obj 410 380 plts~;
#X msg 520 240 harmonics \$1;
#X msg 525 279 timbre \$1;
#X msg 603 262 morph \$1;
#X msg 623 283 lpg_colour \$1;
#X msg 711 404 decay \$1;
#X msg 791 241 mod_fm \$1;
#X msg 814 264 mod_morph \$1;
#X msg 767 218 mod_timbre \$1;
#X obj 353 150 > 0;
#X msg 350 179 trigger \$1;
#X obj 939 391 vsl 15 128 0 1 0 0 empty empty har 0 -9 0 10 -262144
-1 -1 0 1;
#X obj 962 391 vsl 15 128 0 1 0 0 empty empty tim 0 -9 0 10 -262144
-1 -1 0 1;
#X obj 984 391 vsl 15 128 0 1 0 0 empty empty mor 0 -9 0 10 -262144
-1 -1 0 1;
#X obj 1007 391 vsl 15 128 0 1 0 0 empty empty lpg 0 -9 0 10 -262144
-1 -1 0 1;
#X obj 1030 391 vsl 15 128 0 1 0 0 empty empty dec 0 -9 0 10 -262144
-1 -1 0 1;
#X obj 1150 391 vsl 15 128 -1 1 0 0 empty empty mti 0 -9 0 10 -262144
-1 -1 0 1;
#X obj 1174 391 vsl 15 128 -1 1 0 0 empty empty fm 0 -9 0 10 -262144
-1 -1 0 1;
#X obj 1197 391 vsl 15 128 -1 1 0 0 empty empty mmo 0 -9 0 10 -262144
-1 -1 0 1;
#X msg 338 296 pitch \$1;
#X obj 278 192 + 0;
#X obj 336 228 - 60;
#X obj 351 261 / 12;
#X obj 242 104 notein_mono;
#X obj 321 68 poly 1 1;
#X obj 61 542 *~ 0.5;
#X obj 208 538 *~ 0.5;
#X obj 157 461 *~ 1;
#X obj 447 133 t b f;
#X obj 525 200 / 100;
#X obj 575 177 / 100;
#X obj 613 196 / 100;
#X obj 638 226 / 100;
#X obj 730 362 / 100;
#X obj 322 114 + 1.46;
#X text 289 134 48 khz;
#X obj 293 22 inlet;
#X msg 224 347 trigger_active 1;
#X msg 457 251 model 13;
#X obj 669 149 max 0;
#X obj 447 97 +;
#X obj 554 65 +;
#X obj 611 67 +;
#X obj 669 131 +;
#X obj 554 83 max 0;
#X obj 554 101 min 100;
#X obj 611 87 max 0;
#X obj 611 105 min 100;
#X obj 669 167 min 100;
#X obj 452 69 t b f;
#X obj 561 44 t b f;
#X obj 690 45 t b f;
#X obj 684 111 t b f;
#X obj 447 115 - 1;
#X obj 425 28 r kick2_semitone;
#X obj 452 51 r semitone;
#X obj 551 5 r kick2_harmonics;
#X obj 561 26 r harmonics;
#X obj 684 8 r kick2_timbre;
#X obj 690 27 r timbre;
#X obj 678 72 r kick2_morph;
#X obj 684 93 r morph;
#X obj 763 122 r mod_timbre;
#X obj 822 145 r mod_fm;
#X obj 865 186 r mod_morph;
#X obj 741 333 r decay;
#X obj 653 190 r lpg_colour;
#X obj 117 594 outlet~;
#X obj 20 582 outlet~;
#X obj 347 14 loadbang;
#X msg 392 39 0;
#X msg 391 85 50;
#X obj 348 38 t b b;
#X msg 391 114 75;
#X msg 391 62 30;
#X obj 109 94 loadbang;
#X connect 0 0 27 0;
#X connect 1 0 0 0;
#X connect 2 0 0 0;
#X connect 3 0 0 0;
#X connect 4 0 0 0;
#X connect 5 0 0 0;
#X connect 6 0 0 0;
#X connect 7 0 0 0;
#X connect 8 0 0 0;
#X connect 9 0 10 0;
#X connect 10 0 0 0;
#X connect 19 0 0 0;
#X connect 20 0 21 0;
#X connect 21 0 22 0;
#X connect 22 0 19 0;
#X connect 24 1 34 0;
#X connect 24 2 9 0;
#X connect 25 0 68 0;
#X connect 26 0 67 0;
#X connect 27 0 25 0;
#X connect 27 0 26 0;
#X connect 28 0 20 0;
#X connect 28 1 20 1;
#X connect 29 0 1 0;
#X connect 30 0 2 0;
#X connect 31 0 3 0;
#X connect 32 0 4 0;
#X connect 33 0 5 0;
#X connect 34 0 20 0;
#X connect 36 0 23 0;
#X connect 36 0 24 0;
#X connect 37 0 0 0;
#X connect 38 0 0 0;
#X connect 39 0 48 0;
#X connect 40 0 53 0;
#X connect 41 0 44 0;
#X connect 42 0 46 0;
#X connect 43 0 39 0;
#X connect 44 0 45 0;
#X connect 45 0 29 0;
#X connect 46 0 47 0;
#X connect 47 0 30 0;
#X connect 48 0 31 0;
#X connect 49 0 40 0;
#X connect 49 1 40 1;
#X connect 50 0 41 0;
#X connect 50 1 41 1;
#X connect 51 0 42 0;
#X connect 51 1 42 1;
#X connect 52 0 43 0;
#X connect 52 1 43 1;
#X connect 53 0 28 0;
#X connect 54 0 40 0;
#X connect 55 0 49 0;
#X connect 56 0 41 0;
#X connect 57 0 50 0;
#X connect 58 0 42 0;
#X connect 59 0 51 0;
#X connect 60 0 43 0;
#X connect 61 0 52 0;
#X connect 62 0 8 0;
#X connect 63 0 6 0;
#X connect 64 0 7 0;
#X connect 65 0 33 0;
#X connect 66 0 32 0;
#X connect 69 0 72 0;
#X connect 70 0 49 0;
#X connect 70 0 50 0;
#X connect 70 0 52 0;
#X connect 70 0 51 0;
#X connect 70 0 8 0;
#X connect 70 0 6 0;
#X connect 70 0 7 0;
#X connect 71 0 32 0;
#X connect 71 0 33 0;
#X connect 71 0 41 0;
#X connect 71 0 42 0;
#X connect 72 0 74 0;
#X connect 72 0 71 0;
#X connect 72 0 73 0;
#X connect 72 1 70 0;
#X connect 73 0 43 0;
#X connect 74 0 40 0;
#X connect 75 0 37 0;
#X connect 75 0 38 0;
#X restore 269 297 pd plaits_kick_accent;
#N canvas 117 201 1323 671 plaits_kick 1;
#X obj 410 420 plts~;
#X msg 520 280 harmonics \$1;
#X msg 525 319 timbre \$1;
#X msg 603 302 morph \$1;
#X msg 623 323 lpg_colour \$1;
#X msg 711 444 decay \$1;
#X msg 791 281 mod_fm \$1;
#X msg 814 304 mod_morph \$1;
#X msg 767 258 mod_timbre \$1;
#X obj 353 190 > 0;
#X msg 350 219 trigger \$1;
#X obj 939 431 vsl 15 128 0 1 0 0 empty empty har 0 -9 0 10 -262144
-1 -1 0 1;
#X obj 962 431 vsl 15 128 0 1 0 0 empty empty tim 0 -9 0 10 -262144
-1 -1 0 1;
#X obj 984 431 vsl 15 128 0 1 0 0 empty empty mor 0 -9 0 10 -262144
-1 -1 0 1;
#X obj 1007 431 vsl 15 128 0 1 0 0 empty empty lpg 0 -9 0 10 -262144
-1 -1 0 1;
#X obj 1030 431 vsl 15 128 0 1 0 0 empty empty dec 0 -9 0 10 -262144
-1 -1 0 1;
#X obj 1150 431 vsl 15 128 -1 1 0 0 empty empty mti 0 -9 0 10 -262144
-1 -1 0 1;
#X obj 1174 431 vsl 15 128 -1 1 0 0 empty empty fm 0 -9 0 10 -262144
-1 -1 0 1;
#X obj 1197 431 vsl 15 128 -1 1 0 0 empty empty mmo 0 -9 0 10 -262144
-1 -1 0 1;
#X msg 338 336 pitch \$1;
#X obj 278 232 + 0;
#X obj 336 268 - 60;
#X obj 351 301 / 12;
#X obj 242 144 notein_mono;
#X obj 321 108 poly 1 1;
#X obj 61 582 *~ 0.5;
#X obj 208 578 *~ 0.5;
#X obj 157 501 *~ 1;
#X obj 106 150 t b f;
#X obj 520 240 / 100;
#X obj 568 217 / 100;
#X obj 603 283 / 100;
#X obj 638 266 / 100;
#X obj 730 402 / 100;
#X obj 322 154 + 1.46;
#X text 289 174 48 khz;
#X obj 293 62 inlet;
#X msg 224 387 trigger_active 1;
#X msg 457 291 model 13;
#X obj 613 215 max 0;
#X obj 106 132 +;
#X obj 520 102 +;
#X obj 568 138 +;
#X obj 613 197 +;
#X obj 520 120 max 0;
#X obj 520 138 min 100;
#X obj 568 158 max 0;
#X obj 568 176 min 100;
#X obj 613 233 min 100;
#X obj 111 104 t b f;
#X obj 535 42 t b f;
#X obj 583 98 t b f;
#X obj 628 177 t b f;
#X obj 106 50 r kick1_semitone;
#X obj 111 86 r semitone;
#X obj 520 6 r kick1_harmonics;
#X obj 535 24 r harmonics;
#X obj 568 62 r kick1_timbre;
#X obj 583 80 r timbre;
#X obj 613 118 r kick1_morph;
#X obj 628 159 r morph;
#X obj 763 162 r mod_timbre;
#X obj 822 185 r mod_fm;
#X obj 865 226 r mod_morph;
#X obj 741 373 r decay;
#X obj 669 236 r lpg_colour;
#X obj 20 622 outlet~;
#X obj 117 634 outlet~;
#X obj 371 17 loadbang;
#X msg 416 42 0;
#X obj 167 276 loadbang;
#X msg 415 88 50;
#X obj 372 41 t b b;
#X msg 415 117 75;
#X msg 415 65 28;
#X connect 0 1 27 0;
#X connect 1 0 0 0;
#X connect 2 0 0 0;
#X connect 3 0 0 0;
#X connect 4 0 0 0;
#X connect 5 0 0 0;
#X connect 6 0 0 0;
#X connect 7 0 0 0;
#X connect 8 0 0 0;
#X connect 9 0 10 0;
#X connect 10 0 0 0;
#X connect 19 0 0 0;
#X connect 20 0 21 0;
#X connect 21 0 22 0;
#X connect 22 0 19 0;
#X connect 24 1 34 0;
#X connect 24 2 9 0;
#X connect 25 0 66 0;
#X connect 26 0 67 0;
#X connect 27 0 25 0;
#X connect 27 0 26 0;
#X connect 28 0 20 0;
#X connect 28 1 20 1;
#X connect 29 0 1 0;
#X connect 30 0 2 0;
#X connect 31 0 3 0;
#X connect 32 0 4 0;
#X connect 33 0 5 0;
#X connect 34 0 20 0;
#X connect 36 0 23 0;
#X connect 36 0 24 0;
#X connect 37 0 0 0;
#X connect 38 0 0 0;
#X connect 39 0 48 0;
#X connect 40 0 28 0;
#X connect 41 0 44 0;
#X connect 42 0 46 0;
#X connect 43 0 39 0;
#X connect 44 0 45 0;
#X connect 45 0 29 0;
#X connect 46 0 47 0;
#X connect 47 0 30 0;
#X connect 48 0 31 0;
#X connect 49 0 40 0;
#X connect 49 1 40 1;
#X connect 50 0 41 0;
#X connect 50 1 41 1;
#X connect 51 0 42 0;
#X connect 51 1 42 1;
#X connect 52 0 43 0;
#X connect 52 1 43 1;
#X connect 53 0 40 0;
#X connect 54 0 49 0;
#X connect 55 0 41 0;
#X connect 56 0 50 0;
#X connect 57 0 42 0;
#X connect 58 0 51 0;
#X connect 59 0 43 0;
#X connect 60 0 52 0;
#X connect 61 0 8 0;
#X connect 62 0 6 0;
#X connect 63 0 7 0;
#X connect 64 0 33 0;
#X connect 65 0 32 0;
#X connect 68 0 72 0;
#X connect 69 0 49 0;
#X connect 69 0 50 0;
#X connect 69 0 51 0;
#X connect 69 0 52 0;
#X connect 69 0 8 0;
#X connect 69 0 6 0;
#X connect 69 0 7 0;
#X connect 70 0 37 0;
#X connect 70 0 38 0;
#X connect 71 0 41 0;
#X connect 71 0 33 0;
#X connect 71 0 43 0;
#X connect 71 0 32 0;
#X connect 72 0 74 0;
#X connect 72 0 71 0;
#X connect 72 0 73 0;
#X connect 72 1 69 0;
#X connect 73 0 42 0;
#X connect 74 0 40 0;
#X restore 34 267 pd plaits_kick;
#N canvas 515 265 1323 671 plaits_snare 1;
#X obj 410 380 plts~;
#X msg 520 240 harmonics \$1;
#X msg 525 279 timbre \$1;
#X msg 603 262 morph \$1;
#X msg 623 283 lpg_colour \$1;
#X msg 711 404 decay \$1;
#X msg 791 241 mod_fm \$1;
#X msg 814 264 mod_morph \$1;
#X msg 767 218 mod_timbre \$1;
#X obj 353 150 > 0;
#X msg 350 179 trigger \$1;
#X obj 939 391 vsl 15 128 0 1 0 0 empty empty har 0 -9 0 10 -262144
-1 -1 0 1;
#X obj 962 391 vsl 15 128 0 1 0 0 empty empty tim 0 -9 0 10 -262144
-1 -1 0 1;
#X obj 984 391 vsl 15 128 0 1 0 0 empty empty mor 0 -9 0 10 -262144
-1 -1 0 1;
#X obj 1007 391 vsl 15 128 0 1 0 0 empty empty lpg 0 -9 0 10 -262144
-1 -1 0 1;
#X obj 1030 391 vsl 15 128 0 1 0 0 empty empty dec 0 -9 0 10 -262144
-1 -1 0 1;
#X obj 1150 391 vsl 15 128 -1 1 0 0 empty empty mti 0 -9 0 10 -262144
-1 -1 0 1;
#X obj 1174 391 vsl 15 128 -1 1 0 0 empty empty fm 0 -9 0 10 -262144
-1 -1 0 1;
#X obj 1197 391 vsl 15 128 -1 1 0 0 empty empty mmo 0 -9 0 10 -262144
-1 -1 0 1;
#X msg 338 296 pitch \$1;
#X obj 278 192 + 0;
#X obj 336 228 - 60;
#X obj 351 261 / 12;
#X obj 242 104 notein_mono;
#X obj 321 68 poly 1 1;
#X obj 157 461 *~ 1;
#X obj 38 130 t b f;
#X obj 525 200 / 100;
#X obj 575 177 / 100;
#X obj 623 195 / 100;
#X obj 668 226 / 100;
#X obj 730 362 / 100;
#X obj 322 114 + 1.46;
#X text 289 134 48 khz;
#X obj 293 22 inlet;
#X msg 224 347 trigger_active 1;
#X msg 457 251 model 14;
#X obj 623 213 max 0;
#X obj 38 38 - 6;
#X obj 38 94 +;
#X obj 525 84 +;
#X obj 575 119 +;
#X obj 623 137 +;
#X obj 525 102 max 0;
#X obj 575 137 max 0;
#X obj 575 155 min 100;
#X obj 623 155 max 0;
#X obj 623 173 min 100;
#X obj 525 120 min 100;
#X obj 70 59 t b f;
#X obj 531 47 t b f;
#X obj 580 86 t b f;
#X obj 638 119 t b f;
#X obj 38 112 - 2;
#X obj 38 20 r snare1_semitone;
#X obj 70 41 r semitone;
#X obj 525 8 r snare1_harmonics;
#X obj 575 47 r snare1_timbre;
#X obj 623 83 r snare1_morph;
#X obj 638 101 r morph;
#X obj 683 190 r lpg_colour;
#X obj 763 122 r mod_timbre;
#X obj 822 145 r mod_fm;
#X obj 865 186 r mod_morph;
#X obj 741 333 r decay;
#X obj 531 26 r harmonics;
#X obj 580 65 r timbre;
#X obj 20 582 outlet~;
#X obj 117 594 outlet~;
#X obj 371 17 loadbang;
#X msg 416 42 0;
#X msg 415 88 50;
#X obj 372 41 t b b;
#X msg 415 117 48;
#X msg 415 65 25;
#X obj 119 86 loadbang;
#X obj 61 542 *~ 0.5;
#X obj 208 538 *~ 0.5;
#X connect 0 1 25 0;
#X connect 1 0 0 0;
#X connect 2 0 0 0;
#X connect 3 0 0 0;
#X connect 4 0 0 0;
#X connect 5 0 0 0;
#X connect 6 0 0 0;
#X connect 7 0 0 0;
#X connect 8 0 0 0;
#X connect 9 0 10 0;
#X connect 10 0 0 0;
#X connect 19 0 0 0;
#X connect 20 0 21 0;
#X connect 21 0 22 0;
#X connect 22 0 19 0;
#X connect 24 1 32 0;
#X connect 24 2 9 0;
#X connect 25 0 76 0;
#X connect 25 0 77 0;
#X connect 26 0 20 0;
#X connect 26 1 20 1;
#X connect 27 0 1 0;
#X connect 28 0 2 0;
#X connect 29 0 37 0;
#X connect 30 0 4 0;
#X connect 31 0 5 0;
#X connect 32 0 20 0;
#X connect 34 0 23 0;
#X connect 34 0 24 0;
#X connect 35 0 0 0;
#X connect 36 0 0 0;
#X connect 37 0 3 0;
#X connect 38 0 39 0;
#X connect 39 0 53 0;
#X connect 40 0 43 0;
#X connect 41 0 44 0;
#X connect 42 0 46 0;
#X connect 43 0 48 0;
#X connect 44 0 45 0;
#X connect 45 0 28 0;
#X connect 46 0 47 0;
#X connect 47 0 29 0;
#X connect 48 0 27 0;
#X connect 49 0 39 0;
#X connect 49 1 39 1;
#X connect 50 0 40 0;
#X connect 50 1 40 1;
#X connect 51 0 41 0;
#X connect 51 1 41 1;
#X connect 52 0 42 0;
#X connect 52 1 42 1;
#X connect 53 0 26 0;
#X connect 54 0 38 0;
#X connect 55 0 49 0;
#X connect 56 0 40 0;
#X connect 57 0 41 0;
#X connect 58 0 42 0;
#X connect 59 0 52 0;
#X connect 60 0 30 0;
#X connect 61 0 8 0;
#X connect 62 0 6 0;
#X connect 63 0 7 0;
#X connect 64 0 31 0;
#X connect 65 0 50 0;
#X connect 66 0 51 0;
#X connect 69 0 72 0;
#X connect 70 0 49 0;
#X connect 70 0 50 0;
#X connect 70 0 51 0;
#X connect 70 0 52 0;
#X connect 70 0 8 0;
#X connect 70 0 6 0;
#X connect 70 0 7 0;
#X connect 70 0 41 0;
#X connect 71 0 31 0;
#X connect 71 0 40 0;
#X connect 71 0 30 0;
#X connect 72 0 74 0;
#X connect 72 0 71 0;
#X connect 72 0 73 0;
#X connect 72 1 70 0;
#X connect 73 0 38 0;
#X connect 74 0 42 0;
#X connect 75 0 35 0;
#X connect 75 0 36 0;
#X connect 76 0 67 0;
#X connect 77 0 68 0;
#X restore 124 267 pd plaits_snare;
#N canvas 231 201 1323 671 plaits_snare_accent 0;
#X obj 410 380 plts~;
#X msg 520 240 harmonics \$1;
#X msg 525 279 timbre \$1;
#X msg 603 262 morph \$1;
#X msg 623 283 lpg_colour \$1;
#X msg 711 404 decay \$1;
#X msg 791 241 mod_fm \$1;
#X msg 814 264 mod_morph \$1;
#X msg 767 218 mod_timbre \$1;
#X obj 353 150 > 0;
#X msg 350 179 trigger \$1;
#X obj 939 391 vsl 15 128 0 1 0 0 empty empty har 0 -9 0 10 -262144
-1 -1 0 1;
#X obj 962 391 vsl 15 128 0 1 0 0 empty empty tim 0 -9 0 10 -262144
-1 -1 0 1;
#X obj 984 391 vsl 15 128 0 1 0 0 empty empty mor 0 -9 0 10 -262144
-1 -1 0 1;
#X obj 1007 391 vsl 15 128 0 1 0 0 empty empty lpg 0 -9 0 10 -262144
-1 -1 0 1;
#X obj 1030 391 vsl 15 128 0 1 0 0 empty empty dec 0 -9 0 10 -262144
-1 -1 0 1;
#X obj 1150 391 vsl 15 128 -1 1 0 0 empty empty mti 0 -9 0 10 -262144
-1 -1 0 1;
#X obj 1174 391 vsl 15 128 -1 1 0 0 empty empty fm 0 -9 0 10 -262144
-1 -1 0 1;
#X obj 1197 391 vsl 15 128 -1 1 0 0 empty empty mmo 0 -9 0 10 -262144
-1 -1 0 1;
#X msg 338 296 pitch \$1;
#X obj 278 192 + 0;
#X obj 336 228 - 60;
#X obj 351 261 / 12;
#X obj 242 104 notein_mono;
#X obj 321 68 poly 1 1;
#X obj 61 542 *~ 0.5;
#X obj 208 538 *~ 0.5;
#X obj 157 461 *~ 1;
#X obj 33 125 t b f;
#X obj 485 178 / 100;
#X obj 575 177 / 100;
#X obj 613 196 / 100;
#X obj 638 226 / 100;
#X obj 730 362 / 100;
#X obj 322 114 + 1.46;
#X text 289 134 48 khz;
#X obj 293 22 inlet;
#X msg 224 347 trigger_active 1;
#X msg 457 251 model 14;
#X obj 36 35 - 6;
#X obj 34 88 +;
#X obj 491 94 +;
#X obj 623 90 +;
#X obj 750 68 +;
#X obj 491 112 max 0;
#X obj 623 108 max 0;
#X obj 623 126 min 100;
#X obj 750 86 max 0;
#X obj 750 104 min 100;
#X obj 491 130 min 100;
#X obj 66 53 t b f;
#X obj 497 57 t b f;
#X obj 628 57 t b f;
#X obj 765 50 t b f;
#X obj 34 106 - 3;
#X obj 36 17 r snare2_semitone;
#X obj 66 35 r semitone;
#X obj 487 17 r snare2_harmonics;
#X obj 497 36 r harmonics;
#X obj 623 19 r snare2_timbre;
#X obj 628 36 r timbre;
#X obj 757 6 r snare2_morph;
#X obj 765 32 r morph;
#X obj 763 122 r mod_timbre;
#X obj 822 145 r mod_fm;
#X obj 865 186 r mod_morph;
#X obj 741 333 r decay;
#X obj 653 190 r lpg_colour;
#X obj 20 582 outlet~;
#X obj 117 594 outlet~;
#X obj 371 17 loadbang;
#X msg 416 42 0;
#X msg 415 88 50;
#X obj 372 41 t b b;
#X msg 415 117 75;
#X obj 119 86 loadbang;
#X msg 415 65 48;
#X connect 0 0 27 0;
#X connect 1 0 0 0;
#X connect 2 0 0 0;
#X connect 3 0 0 0;
#X connect 4 0 0 0;
#X connect 5 0 0 0;
#X connect 6 0 0 0;
#X connect 7 0 0 0;
#X connect 8 0 0 0;
#X connect 9 0 10 0;
#X connect 10 0 0 0;
#X connect 19 0 0 0;
#X connect 20 0 21 0;
#X connect 21 0 22 0;
#X connect 22 0 19 0;
#X connect 24 1 34 0;
#X connect 24 2 9 0;
#X connect 25 0 68 0;
#X connect 26 0 69 0;
#X connect 27 0 25 0;
#X connect 27 0 26 0;
#X connect 28 0 20 0;
#X connect 28 1 20 1;
#X connect 29 0 1 0;
#X connect 30 0 2 0;
#X connect 31 0 3 0;
#X connect 32 0 4 0;
#X connect 33 0 5 0;
#X connect 34 0 20 0;
#X connect 36 0 23 0;
#X connect 36 0 24 0;
#X connect 37 0 0 0;
#X connect 38 0 0 0;
#X connect 39 0 40 0;
#X connect 40 0 54 0;
#X connect 41 0 44 0;
#X connect 42 0 45 0;
#X connect 43 0 47 0;
#X connect 44 0 49 0;
#X connect 45 0 46 0;
#X connect 46 0 30 0;
#X connect 47 0 48 0;
#X connect 48 0 31 0;
#X connect 49 0 29 0;
#X connect 50 0 40 0;
#X connect 50 1 40 1;
#X connect 51 0 41 0;
#X connect 51 1 41 1;
#X connect 52 0 42 0;
#X connect 52 1 42 1;
#X connect 53 0 43 0;
#X connect 53 1 43 1;
#X connect 54 0 28 0;
#X connect 55 0 39 0;
#X connect 56 0 50 0;
#X connect 57 0 41 0;
#X connect 58 0 51 0;
#X connect 59 0 42 0;
#X connect 60 0 52 0;
#X connect 61 0 43 0;
#X connect 62 0 53 0;
#X connect 63 0 8 0;
#X connect 64 0 6 0;
#X connect 65 0 7 0;
#X connect 66 0 33 0;
#X connect 67 0 32 0;
#X connect 70 0 73 0;
#X connect 71 0 50 0;
#X connect 71 0 51 0;
#X connect 71 0 52 0;
#X connect 71 0 53 0;
#X connect 71 0 8 0;
#X connect 71 0 6 0;
#X connect 71 0 7 0;
#X connect 72 0 32 0;
#X connect 72 0 33 0;
#X connect 72 0 42 0;
#X connect 72 0 43 0;
#X connect 73 0 76 0;
#X connect 73 0 72 0;
#X connect 73 0 74 0;
#X connect 73 1 71 0;
#X connect 74 0 41 0;
#X connect 75 0 37 0;
#X connect 75 0 38 0;
#X connect 76 0 39 0;
#X restore 342 269 pd plaits_snare_accent;
#X obj 34 249 pack f f;
#X obj 124 249 pack f f;
#X obj 205 229 pack f f;
#X obj 269 279 pack f f;
#X obj 342 251 pack f f;
#X obj 415 229 pack f f;
#N canvas 117 201 1323 671 plaits_hihat 0;
#X obj 410 380 plts~;
#X msg 520 240 harmonics \$1;
#X msg 525 279 timbre \$1;
#X msg 603 262 morph \$1;
#X msg 623 283 lpg_colour \$1;
#X msg 711 404 decay \$1;
#X msg 791 241 mod_fm \$1;
#X msg 814 264 mod_morph \$1;
#X msg 767 218 mod_timbre \$1;
#X obj 363 170 > 0;
#X msg 360 189 trigger \$1;
#X obj 939 391 vsl 15 128 0 1 0 0 empty empty har 0 -9 0 10 -262144
-1 -1 0 1;
#X obj 962 391 vsl 15 128 0 1 0 0 empty empty tim 0 -9 0 10 -262144
-1 -1 0 1;
#X obj 984 391 vsl 15 128 0 1 0 0 empty empty mor 0 -9 0 10 -262144
-1 -1 0 1;
#X obj 1007 391 vsl 15 128 0 1 0 0 empty empty lpg 0 -9 0 10 -262144
-1 -1 0 1;
#X obj 1030 391 vsl 15 128 0 1 0 0 empty empty dec 0 -9 0 10 -262144
-1 -1 0 1;
#X obj 1150 391 vsl 15 128 -1 1 0 0 empty empty mti 0 -9 0 10 -262144
-1 -1 0 1;
#X obj 1174 391 vsl 15 128 -1 1 0 0 empty empty fm 0 -9 0 10 -262144
-1 -1 0 1;
#X obj 1197 391 vsl 15 128 -1 1 0 0 empty empty mmo 0 -9 0 10 -262144
-1 -1 0 1;
#X msg 338 296 pitch \$1;
#X obj 278 192 + 0;
#X obj 336 228 - 60;
#X obj 341 261 / 12;
#X obj 242 104 notein_mono;
#X obj 321 68 poly 1 1;
#X obj 61 542 *~ 0.5;
#X obj 208 538 *~ 0.5;
#X obj 157 461 *~ 1;
#X obj 380 127 t b f;
#X obj 520 197 / 100;
#X obj 562 216 / 100;
#X obj 601 237 / 100;
#X obj 638 226 / 100;
#X obj 730 362 / 100;
#X obj 322 114 + 1.46;
#X text 289 134 48 khz;
#X obj 293 22 inlet;
#X msg 224 347 trigger_active 1;
#X msg 457 251 model 15;
#X obj 380 50 + 6;
#X obj 404 68 t b f;
#X obj 525 49 t b f;
#X obj 577 87 t b f;
#X obj 628 129 t b f;
#X obj 380 91 +;
#X obj 511 91 +;
#X obj 571 116 +;
#X obj 620 154 +;
#X obj 511 112 max 0;
#X obj 511 130 min 100;
#X obj 561 152 max 0;
#X obj 561 170 min 100;
#X obj 601 192 max 0;
#X obj 601 210 min 100;
#X obj 380 109 - 4;
#X obj 380 32 r hihat1_semitone;
#X obj 404 50 r semitone;
#X obj 514 8 r hihat1_harmonics;
#X obj 525 31 r harmonics;
#X obj 571 51 r hihat1_timbre;
#X obj 623 93 r hihat1_morph;
#X obj 763 122 r mod_timbre;
#X obj 822 145 r mod_fm;
#X obj 865 186 r mod_morph;
#X obj 653 190 r lpg_colour;
#X obj 628 111 r morph;
#X obj 577 69 r timbre;
#X obj 741 333 r decay;
#X obj 117 594 outlet~;
#X obj 20 582 outlet~;
#X obj 424 93 loadbang;
#X msg 469 118 0;
#X msg 468 164 50;
#X obj 425 117 t b b;
#X msg 468 141 24;
#X obj 119 86 loadbang;
#X msg 468 193 100;
#X msg 469 214 25;
#X connect 0 1 27 0;
#X connect 1 0 0 0;
#X connect 2 0 0 0;
#X connect 3 0 0 0;
#X connect 4 0 0 0;
#X connect 5 0 0 0;
#X connect 6 0 0 0;
#X connect 7 0 0 0;
#X connect 8 0 0 0;
#X connect 9 0 10 0;
#X connect 10 0 0 0;
#X connect 19 0 0 0;
#X connect 20 0 21 0;
#X connect 21 0 22 0;
#X connect 22 0 19 0;
#X connect 24 1 34 0;
#X connect 24 2 9 0;
#X connect 25 0 69 0;
#X connect 26 0 68 0;
#X connect 27 0 25 0;
#X connect 27 0 26 0;
#X connect 28 0 20 0;
#X connect 28 1 20 1;
#X connect 29 0 1 0;
#X connect 30 0 2 0;
#X connect 31 0 3 0;
#X connect 32 0 4 0;
#X connect 33 0 5 0;
#X connect 34 0 20 0;
#X connect 36 0 23 0;
#X connect 36 0 24 0;
#X connect 37 0 0 0;
#X connect 38 0 0 0;
#X connect 39 0 44 0;
#X connect 40 0 44 0;
#X connect 40 1 44 1;
#X connect 41 0 45 0;
#X connect 41 1 45 1;
#X connect 42 0 46 0;
#X connect 42 1 46 1;
#X connect 43 0 47 0;
#X connect 43 1 47 1;
#X connect 44 0 54 0;
#X connect 45 0 48 0;
#X connect 46 0 50 0;
#X connect 47 0 52 0;
#X connect 48 0 49 0;
#X connect 49 0 29 0;
#X connect 50 0 51 0;
#X connect 51 0 30 0;
#X connect 52 0 53 0;
#X connect 53 0 31 0;
#X connect 54 0 28 0;
#X connect 55 0 39 0;
#X connect 56 0 40 0;
#X connect 57 0 45 0;
#X connect 58 0 41 0;
#X connect 59 0 46 0;
#X connect 60 0 47 0;
#X connect 61 0 8 0;
#X connect 62 0 6 0;
#X connect 63 0 7 0;
#X connect 64 0 32 0;
#X connect 65 0 43 0;
#X connect 66 0 42 0;
#X connect 67 0 33 0;
#X connect 70 0 73 0;
#X connect 71 0 40 0;
#X connect 71 0 41 0;
#X connect 71 0 42 0;
#X connect 71 0 43 0;
#X connect 71 0 8 0;
#X connect 71 0 6 0;
#X connect 71 0 7 0;
#X connect 71 0 45 0;
#X connect 72 0 33 0;
#X connect 72 0 32 0;
#X connect 73 0 74 0;
#X connect 73 0 72 0;
#X connect 73 0 76 0;
#X connect 73 0 77 0;
#X connect 73 1 71 0;
#X connect 74 0 39 0;
#X connect 75 0 37 0;
#X connect 75 0 38 0;
#X connect 76 0 46 0;
#X connect 77 0 47 0;
#X restore 205 247 pd plaits_hihat;
#N canvas 117 201 1323 671 plaits_hihat_accent 0;
#X obj 410 380 plts~;
#X msg 520 240 harmonics \$1;
#X msg 525 279 timbre \$1;
#X msg 603 262 morph \$1;
#X msg 623 283 lpg_colour \$1;
#X msg 711 404 decay \$1;
#X msg 791 241 mod_fm \$1;
#X msg 814 264 mod_morph \$1;
#X msg 767 218 mod_timbre \$1;
#X obj 353 150 > 0;
#X msg 350 179 trigger \$1;
#X obj 939 391 vsl 15 128 0 1 0 0 empty empty har 0 -9 0 10 -262144
-1 -1 0 1;
#X obj 962 391 vsl 15 128 0 1 0 0 empty empty tim 0 -9 0 10 -262144
-1 -1 0 1;
#X obj 984 391 vsl 15 128 0 1 0 0 empty empty mor 0 -9 0 10 -262144
-1 -1 0 1;
#X obj 1007 391 vsl 15 128 0 1 0 0 empty empty lpg 0 -9 0 10 -262144
-1 -1 0 1;
#X obj 1030 391 vsl 15 128 0 1 0 0 empty empty dec 0 -9 0 10 -262144
-1 -1 0 1;
#X obj 1150 391 vsl 15 128 -1 1 0 0 empty empty mti 0 -9 0 10 -262144
-1 -1 0 1;
#X obj 1174 391 vsl 15 128 -1 1 0 0 empty empty fm 0 -9 0 10 -262144
-1 -1 0 1;
#X obj 1197 391 vsl 15 128 -1 1 0 0 empty empty mmo 0 -9 0 10 -262144
-1 -1 0 1;
#X msg 338 296 pitch \$1;
#X obj 278 192 + 0;
#X obj 336 228 - 60;
#X obj 351 261 / 12;
#X obj 242 104 notein_mono;
#X obj 321 68 poly 1 1;
#X obj 61 542 *~ 0.5;
#X obj 208 538 *~ 0.5;
#X obj 157 461 *~ 1;
#X obj 425 132 t b f;
#X obj 525 200 / 100;
#X obj 571 218 / 100;
#X obj 613 193 / 100;
#X obj 638 226 / 100;
#X obj 730 362 / 100;
#X obj 322 114 + 1.46;
#X text 289 134 48 khz;
#X obj 293 22 inlet;
#X msg 224 347 trigger_active 1;
#X msg 457 251 model 15;
#X obj 613 211 min 1;
#X obj 414 54 + 6;
#X obj 449 73 t b f;
#X obj 554 47 t b f;
#X obj 602 85 t b f;
#X obj 677 109 t b f;
#X obj 425 96 +;
#X obj 531 89 +;
#X obj 596 114 +;
#X obj 669 134 +;
#X obj 531 110 max 0;
#X obj 531 128 min 100;
#X obj 586 150 max 0;
#X obj 586 168 min 100;
#X obj 643 153 max 0;
#X obj 643 171 min 100;
#X obj 425 114 - 5;
#X obj 414 36 r hihat2_semitone;
#X obj 449 55 r semitone;
#X obj 543 9 r hihat2_harmonics;
#X obj 554 29 r harmonics;
#X obj 593 49 r hihat2_timbre;
#X obj 602 67 r timbre;
#X obj 682 69 r hihat2_morph;
#X obj 677 91 r morph;
#X obj 763 122 r mod_timbre;
#X obj 822 145 r mod_fm;
#X obj 865 186 r mod_morph;
#X obj 741 333 r decay;
#X obj 653 190 r lpg_colour;
#X obj 117 594 outlet~;
#X obj 20 582 outlet~;
#X obj 337 8 loadbang;
#X msg 382 33 0;
#X msg 381 79 50;
#X obj 338 32 t b b;
#X msg 381 108 75;
#X msg 381 56 24;
#X msg 381 129 100;
#X obj 119 86 loadbang;
#X connect 0 0 27 0;
#X connect 1 0 0 0;
#X connect 2 0 0 0;
#X connect 3 0 0 0;
#X connect 4 0 0 0;
#X connect 5 0 0 0;
#X connect 6 0 0 0;
#X connect 7 0 0 0;
#X connect 8 0 0 0;
#X connect 9 0 10 0;
#X connect 10 0 0 0;
#X connect 19 0 0 0;
#X connect 20 0 21 0;
#X connect 21 0 22 0;
#X connect 22 0 19 0;
#X connect 24 1 34 0;
#X connect 24 2 9 0;
#X connect 25 0 70 0;
#X connect 26 0 69 0;
#X connect 27 0 25 0;
#X connect 27 0 26 0;
#X connect 28 0 20 0;
#X connect 28 1 20 1;
#X connect 29 0 1 0;
#X connect 30 0 2 0;
#X connect 31 0 39 0;
#X connect 32 0 4 0;
#X connect 33 0 5 0;
#X connect 34 0 20 0;
#X connect 36 0 23 0;
#X connect 36 0 24 0;
#X connect 37 0 0 0;
#X connect 38 0 0 0;
#X connect 39 0 3 0;
#X connect 40 0 45 0;
#X connect 41 0 45 0;
#X connect 41 1 45 1;
#X connect 42 0 46 0;
#X connect 42 1 46 1;
#X connect 43 0 47 0;
#X connect 43 1 47 1;
#X connect 44 0 48 0;
#X connect 44 1 48 1;
#X connect 45 0 55 0;
#X connect 46 0 49 0;
#X connect 47 0 51 0;
#X connect 48 0 53 0;
#X connect 49 0 50 0;
#X connect 50 0 29 0;
#X connect 51 0 52 0;
#X connect 52 0 30 0;
#X connect 53 0 54 0;
#X connect 54 0 31 0;
#X connect 55 0 28 0;
#X connect 56 0 40 0;
#X connect 57 0 41 0;
#X connect 58 0 46 0;
#X connect 59 0 42 0;
#X connect 60 0 47 0;
#X connect 61 0 43 0;
#X connect 62 0 48 0;
#X connect 63 0 44 0;
#X connect 64 0 8 0;
#X connect 65 0 6 0;
#X connect 66 0 7 0;
#X connect 67 0 33 0;
#X connect 68 0 32 0;
#X connect 71 0 74 0;
#X connect 72 0 41 0;
#X connect 72 0 42 0;
#X connect 72 0 43 0;
#X connect 72 0 44 0;
#X connect 72 0 8 0;
#X connect 72 0 6 0;
#X connect 72 0 7 0;
#X connect 72 0 46 0;
#X connect 73 0 33 0;
#X connect 73 0 32 0;
#X connect 74 0 76 0;
#X connect 74 0 73 0;
#X connect 74 0 75 0;
#X connect 74 0 77 0;
#X connect 74 1 72 0;
#X connect 75 0 48 0;
#X connect 76 0 40 0;
#X connect 77 0 47 0;
#X connect 78 0 37 0;
#X connect 78 0 38 0;
#X restore 415 247 pd plaits_hihat_accent;
#X obj 111 486 *~;
#X obj 135 486 *~;
#X obj 159 486 *~;
#X obj 183 486 *~;
#X obj 207 486 *~;
#X obj 231 486 *~;
#X obj 255 486 *~;
#X obj 279 486 *~;
#X obj 303 486 *~;
#X obj 327 486 *~;
#X obj 351 486 *~;
#X obj 375 486 *~;
#X obj 488 287 / 100;
#X obj 498 323 / 100;
#X obj 508 359 / 100;
#X obj 518 395 / 100;
#X obj 528 431 / 100;
#X obj 538 467 / 100;
#X obj 194 695 *~;
#X obj 218 695 *~;
#X obj 252 695 *~;
#X obj 276 695 *~;
#X obj 548 503 / 100;
#X obj 558 539 / 100;
#X obj 488 269 r mixkickaux;
#X obj 498 305 r mixkickout;
#X obj 508 341 r mixsnareaux;
#X obj 518 377 r mixsnareout;
#X obj 528 413 r mixhihataux;
#X obj 538 449 r mixhihatout;
#X obj 548 485 r mixaux;
#X obj 558 521 r mixout;
#X obj 170 40 r notes;
#X obj 359 141 r velocity, f 12;
#X obj 36 32 loadbang;
#X msg 36 53 \; pd dsp 1;
#X obj 368 32 r valuem;
#X obj 428 32 r controllerm;
#X obj 519 32 r channelm;
#X obj 368 57 pack 0 0 0;
#X text 440 58 ctrlIn;
#X obj 200 817 dac~ 1 2;
#X obj 584 269 loadbang;
#X msg 584 290 100;
#X obj 216 736 comp, f 11;
#N canvas 1254 272 662 300 comp 1;
#X obj 49 213 qompander~;
#X obj 392 206 qompander~;
#X obj 138 13 vsl 15 128 0.8 8 0 0 empty empty empty 0 -9 0 10 -262144
-1 -1 0 1;
#X obj 49 25 inlet~;
#X obj 391 22 inlet~;
#X obj 192 13 vsl 15 128 -96 -20 0 0 empty empty empty 0 -9 0 10 -262144
-1 -1 0 1;
#X obj 245 13 vsl 15 128 1 7.39 0 0 empty empty empty 0 -9 0 10 -262144
-1 -1 0 1;
#X obj 302 13 vsl 15 128 20 1000 0 0 empty empty empty 0 -9 0 10 -262144
-1 -1 0 1;
#X obj 48 265 outlet~;
#X obj 391 263 outlet~;
#X text 100 160 compander factor;
#X text 159 196 compander point;
#X text 224 163 response time;
#X text 279 197 recovery time;
#X obj 49 234 *~ 0.707;
#X obj 392 227 *~ 0.707;
#X connect 0 0 14 0;
#X connect 1 0 15 0;
#X connect 2 0 0 1;
#X connect 2 0 1 1;
#X connect 3 0 0 0;
#X connect 4 0 1 0;
#X connect 5 0 0 2;
#X connect 5 0 1 2;
#X connect 6 0 0 3;
#X connect 6 0 1 3;
#X connect 7 0 0 4;
#X connect 7 0 1 4;
#X connect 14 0 8 0;
#X connect 15 0 9 0;
#X restore 284 775 pd comp;
#X obj 467 82 route 60 62 64 67 69 71;
#X floatatom 170 61 5 0 0 0 - - -;
#X obj 168 143 route 60 62 64 67 69 71;
#X connect 0 0 18 0;
#X connect 0 1 19 0;
#X connect 1 0 12 0;
#X connect 1 1 13 0;
#X connect 2 0 14 0;
#X connect 2 1 15 0;
#X connect 3 0 20 0;
#X connect 3 1 21 0;
#X connect 4 0 1 0;
#X connect 5 0 2 0;
#X connect 6 0 10 0;
#X connect 7 0 0 0;
#X connect 8 0 3 0;
#X connect 9 0 11 0;
#X connect 10 0 16 0;
#X connect 10 1 17 0;
#X connect 11 0 22 0;
#X connect 11 1 23 0;
#X connect 12 0 30 0;
#X connect 13 0 31 0;
#X connect 14 0 30 0;
#X connect 15 0 31 0;
#X connect 16 0 30 0;
#X connect 17 0 31 0;
#X connect 18 0 32 0;
#X connect 19 0 33 0;
#X connect 20 0 32 0;
#X connect 21 0 33 0;
#X connect 22 0 32 0;
#X connect 23 0 33 0;
#X connect 24 0 12 1;
#X connect 24 0 13 1;
#X connect 25 0 19 1;
#X connect 25 0 18 1;
#X connect 26 0 15 1;
#X connect 26 0 14 1;
#X connect 27 0 21 1;
#X connect 27 0 20 1;
#X connect 28 0 17 1;
#X connect 28 0 16 1;
#X connect 29 0 23 1;
#X connect 29 0 22 1;
#X connect 30 0 56 0;
#X connect 31 0 56 1;
#X connect 32 0 56 0;
#X connect 33 0 56 1;
#X connect 34 0 31 1;
#X connect 34 0 30 1;
#X connect 35 0 33 1;
#X connect 35 0 32 1;
#X connect 36 0 24 0;
#X connect 37 0 25 0;
#X connect 38 0 26 0;
#X connect 39 0 27 0;
#X connect 40 0 28 0;
#X connect 41 0 29 0;
#X connect 42 0 34 0;
#X connect 43 0 35 0;
#X connect 44 0 59 0;
#X connect 45 0 4 1;
#X connect 45 0 5 1;
#X connect 45 0 6 1;
#X connect 45 0 7 1;
#X connect 45 0 8 1;
#X connect 45 0 9 1;
#X connect 46 0 47 0;
#X connect 48 0 51 0;
#X connect 49 0 51 1;
#X connect 50 0 51 2;
#X connect 54 0 55 0;
#X connect 55 0 24 0;
#X connect 55 0 25 0;
#X connect 55 0 26 0;
#X connect 55 0 27 0;
#X connect 55 0 28 0;
#X connect 55 0 29 0;
#X connect 55 0 34 0;
#X connect 55 0 35 0;
#X connect 56 0 53 0;
#X connect 56 1 53 1;
#X connect 58 0 4 0;
#X connect 58 1 5 0;
#X connect 58 2 6 0;
#X connect 58 3 7 0;
#X connect 58 4 8 0;
#X connect 58 5 9 0;
#X connect 59 0 60 0;
#X connect 60 0 4 0;
#X connect 60 1 5 0;
#X connect 60 2 6 0;
#X connect 60 3 7 0;
#X connect 60 4 8 0;
#X connect 60 5 9 0;
