#N canvas 4 54 993 990 12;
#X obj 51 88 timer;
#X obj 577 261 text define \$0-tap;
#X obj 190 316 v \$0-count;
#X obj 51 56 t b b;
#X obj 190 388 + 1;
#X obj 190 496 v \$0-count;
#X obj 190 350 t a a;
#X obj 112 550 text set \$0-tap;
#X obj 236 437 t b;
#X obj 236 461 i 0;
#X obj 364 405 t a b;
#X obj 435 413 i 0;
#X obj 364 484 i;
#X obj 400 484 + 1;
#X obj 364 429 max 1;
#X obj 364 453 until;
#X obj 364 520 text get \$0-tap;
#X obj 364 599 +;
#X obj 467 478 v \$0-add;
#X obj 435 437 t a a;
#X obj 364 544 t a b;
#X obj 396 571 v \$0-add;
#X obj 364 623 t a a;
#X obj 396 654 v \$0-add;
#X obj 329 338 t b b;
#X obj 330 652 f;
#X obj 330 779 swap 60000;
#X obj 330 804 /, f 10;
#X msg 577 233 clear;
#X obj 330 829 outlet;
#X obj 190 412 moses 6;
#X obj 330 736 / 6;
#X obj 545 340 v \$0-text-count;
#X obj 545 199 t b b;
#X obj 545 223 i 0;
#X obj 362 709 v \$0-text-count;
#X obj 330 676 t a b;
#X obj 51 178 t b a b b, f 26;
#X obj 230 281 v \$0-text-count;
#X obj 230 231 + 1;
#X obj 230 255 min 6;
#X obj 230 203 v \$0-text-count;
#X obj 563 299 v \$0-count;
#X obj 386 353 v \$0-text-count;
#X obj 51 27 inlet;
#X obj 602 39 inlet;
#X obj 602 63 t b;
#X text 646 39 reset;
#X obj 53 151 moses 1200, f 71;
#X text 180 18 detects minimum 50 BPM;
#X obj 51 112 max 250;
#X connect 0 0 50 0;
#X connect 2 0 6 0;
#X connect 3 0 0 0;
#X connect 3 1 0 1;
#X connect 4 0 30 0;
#X connect 6 0 4 0;
#X connect 6 1 7 1;
#X connect 8 0 9 0;
#X connect 9 0 5 0;
#X connect 10 0 14 0;
#X connect 10 1 11 0;
#X connect 11 0 19 0;
#X connect 12 0 13 0;
#X connect 12 0 16 0;
#X connect 13 0 12 1;
#X connect 14 0 15 0;
#X connect 15 0 12 0;
#X connect 16 0 20 0;
#X connect 17 0 22 0;
#X connect 19 0 12 1;
#X connect 19 1 18 0;
#X connect 20 0 17 0;
#X connect 20 1 21 0;
#X connect 21 0 17 1;
#X connect 22 0 25 1;
#X connect 22 1 23 0;
#X connect 24 0 25 0;
#X connect 24 1 43 0;
#X connect 25 0 36 0;
#X connect 26 0 27 0;
#X connect 26 1 27 1;
#X connect 27 0 29 0;
#X connect 28 0 1 0;
#X connect 30 0 5 0;
#X connect 30 1 8 0;
#X connect 31 0 26 0;
#X connect 33 0 34 0;
#X connect 33 1 28 0;
#X connect 34 0 32 0;
#X connect 34 0 42 0;
#X connect 35 0 31 1;
#X connect 36 0 31 0;
#X connect 36 1 35 0;
#X connect 37 0 24 0;
#X connect 37 1 7 0;
#X connect 37 2 2 0;
#X connect 37 3 41 0;
#X connect 39 0 40 0;
#X connect 40 0 38 0;
#X connect 41 0 39 0;
#X connect 43 0 10 0;
#X connect 44 0 3 0;
#X connect 45 0 46 0;
#X connect 46 0 33 0;
#X connect 48 0 37 0;
#X connect 48 1 33 0;
#X connect 50 0 48 0;
