#N canvas 451 50 1465 998 10;
#N canvas 1094 131 789 633 UI 0;
#X obj 169 328 i;
#X obj 149 87 sel \$1;
#X obj 149 69 unpack s s;
#X obj 149 51 r activePage;
#X msg 149 105 1;
#X msg 182 105 0;
#X obj 142 233 tgl 15 0 empty empty empty 17 7 0 10 -262144 -1 -1 0
1;
#X msg 142 207 1;
#X msg 209 219 0;
#X obj 182 162 sel 1;
#X obj 182 144 change;
#X obj 420 51 r notesIn-\$1;
#X obj 142 411 f 4;
#X obj 142 266 metro 50;
#X obj 183 397 r signature_monitor-\$1;
#X obj 420 123 tgl 15 0 empty empty empty 17 7 0 10 -262144 -1 -1 0
1;
#X msg 93 174 stop;
#X obj 420 312 s midiout-\$1;
#X obj 462 196 sel 1 2, f 8;
#X obj 466 276 s record;
#X obj 420 69 stripnote;
#X obj 481 213 tgl 15 0 empty empty empty 17 7 0 10 -262144 -1 -1 0
1;
#X obj 466 258 f;
#X obj 363 226 r start;
#X obj 517 244 spigot, f 28;
#X obj 498 226 sel 0 1;
#X obj 682 226 r playing;
#X obj 520 276 s arm-record;
#X obj 363 244 delay 1;
#X obj 184 300 r bar;
#X obj 236 296 r reset;
#X obj 420 87 - 57;
#X obj 420 105 sel 26, f 7;
#X obj 78 592 s aux-label-\$1;
#X msg 142 429 \$1;
#X obj 142 284 t b b;
#X obj 43 458 r bpm;
#X obj 214 440 r signature;
#X msg 318 536 symbol .;
#X msg 224 504 symbol :;
#X obj 354 397 r master-ticks;
#X obj 354 418 sel 1;
#X obj 354 443 f;
#X obj 381 444 + 1;
#X obj 354 465 sel 2;
#X msg 354 489 1;
#X obj 298 489 sel 1 2;
#X obj 397 464 r reset;
#X obj 75 381 r loadbang-\$1;
#X obj 75 402 t b b;
#X msg 238 527 symbol .;
#X msg 255 558 symbol :;
#X msg 147 453 symbol :;
#X obj 311 419 sel 0;
#X msg 236 314 1;
#N canvas 4 50 555 305 pattern 0;
#X msg 44 106 1, f 1;
#X msg 264 107 10;
#X msg 69 106 2, f 1;
#X msg 93 106 3, f 1;
#X msg 117 107 4, f 1;
#X msg 142 106 5, f 1;
#X msg 165 107 6, f 1;
#X msg 189 108 7, f 1;
#X msg 214 107 8, f 1;
#X msg 238 107 9, f 1;
#X obj 44 78 sel 61 63 66 68 70 73 75 78 80 82, f 41;
#X obj 335 232 outlet;
#X obj 100 40 r master-pattern-change;
#X obj 335 172 f;
#X obj 335 195 spigot 0;
#X msg 276 181 1;
#X obj 244 161 delay 50;
#X msg 244 182 0;
#X obj 350 51 r master-ticks;
#X obj 356 97 f;
#X obj 387 97 + 1;
#X obj 356 118 sel 4;
#X msg 356 144 1;
#X obj 356 74 sel 23;
#X obj 264 129 r signature;
#X obj 418 104 r signature_set;
#X obj 153 135 i;
#X obj 153 156 t f b;
#X connect 0 0 26 0;
#X connect 1 0 26 0;
#X connect 2 0 26 0;
#X connect 3 0 26 0;
#X connect 4 0 26 0;
#X connect 5 0 26 0;
#X connect 6 0 26 0;
#X connect 7 0 26 0;
#X connect 8 0 26 0;
#X connect 9 0 26 0;
#X connect 10 0 0 0;
#X connect 10 1 2 0;
#X connect 10 2 3 0;
#X connect 10 3 4 0;
#X connect 10 4 5 0;
#X connect 10 5 6 0;
#X connect 10 6 7 0;
#X connect 10 7 8 0;
#X connect 10 8 9 0;
#X connect 10 9 1 0;
#X connect 12 0 10 0;
#X connect 13 0 14 0;
#X connect 14 0 16 0;
#X connect 14 0 11 0;
#X connect 15 0 14 1;
#X connect 16 0 17 0;
#X connect 17 0 14 1;
#X connect 18 0 23 0;
#X connect 19 0 20 0;
#X connect 19 0 21 0;
#X connect 20 0 19 1;
#X connect 21 0 22 0;
#X connect 21 0 13 0;
#X connect 22 0 19 1;
#X connect 23 0 19 0;
#X connect 24 0 22 0;
#X connect 25 0 21 1;
#X connect 26 0 27 0;
#X connect 27 0 13 1;
#X connect 27 1 15 0;
#X restore 205 366 pd pattern decoder;
#X msg 75 539 T.\$1 \$4\$5 P.\$3 \$5\$4 B.\$2;
#X obj 142 189 delay 100;
#X msg 311 278 0;
#X obj 75 511 pack f f a s s;
#X obj 43 479 i;
#X obj 49 286 delay 500;
#X obj 182 126 &&;
#X obj 287 153 tgl 15 0 empty empty empty 17 7 0 10 -262144 -1 -1 0
1;
#X obj 75 560 spigot;
#X msg 229 100 0;
#X msg 301 100 1;
#X obj 229 79 sel pg_main;
#X connect 0 0 59 1;
#X connect 1 0 4 0;
#X connect 1 0 61 0;
#X connect 1 1 5 0;
#X connect 2 0 1 0;
#X connect 2 1 58 0;
#X connect 2 1 67 0;
#X connect 3 0 2 0;
#X connect 4 0 62 0;
#X connect 5 0 62 0;
#X connect 6 0 13 0;
#X connect 7 0 6 0;
#X connect 8 0 6 0;
#X connect 9 0 57 0;
#X connect 9 1 16 0;
#X connect 9 1 8 0;
#X connect 10 0 9 0;
#X connect 11 0 20 0;
#X connect 12 0 34 0;
#X connect 13 0 35 0;
#X connect 14 0 12 1;
#X connect 16 0 57 0;
#X connect 18 1 21 0;
#X connect 20 0 31 0;
#X connect 21 0 22 1;
#X connect 21 0 25 0;
#X connect 21 0 27 0;
#X connect 22 0 19 0;
#X connect 23 0 28 0;
#X connect 24 0 22 0;
#X connect 25 0 22 0;
#X connect 25 1 24 0;
#X connect 26 0 24 1;
#X connect 28 0 22 0;
#X connect 29 0 0 1;
#X connect 29 0 0 0;
#X connect 30 0 54 0;
#X connect 31 0 32 0;
#X connect 32 0 15 0;
#X connect 35 0 12 0;
#X connect 35 1 0 0;
#X connect 36 0 60 0;
#X connect 37 0 52 0;
#X connect 38 0 59 4;
#X connect 39 0 59 4;
#X connect 40 0 41 0;
#X connect 40 0 53 0;
#X connect 41 0 42 0;
#X connect 42 0 43 0;
#X connect 42 0 44 0;
#X connect 42 0 46 0;
#X connect 43 0 42 1;
#X connect 44 0 45 0;
#X connect 45 0 42 1;
#X connect 46 0 39 0;
#X connect 46 0 50 0;
#X connect 46 1 38 0;
#X connect 46 1 51 0;
#X connect 47 0 45 0;
#X connect 48 0 49 0;
#X connect 49 0 59 0;
#X connect 49 1 50 0;
#X connect 49 1 39 0;
#X connect 50 0 59 3;
#X connect 51 0 59 3;
#X connect 52 0 59 3;
#X connect 52 0 59 4;
#X connect 53 0 59 0;
#X connect 54 0 0 1;
#X connect 55 0 59 2;
#X connect 56 0 64 0;
#X connect 57 0 7 0;
#X connect 58 0 53 0;
#X connect 59 0 56 0;
#X connect 60 0 59 0;
#X connect 61 0 49 0;
#X connect 62 0 10 0;
#X connect 62 0 63 0;
#X connect 63 0 64 1;
#X connect 64 0 33 0;
#X connect 65 0 62 1;
#X connect 66 0 62 1;
#X connect 67 0 65 0;
#X connect 67 1 66 0;
#X restore 176 423 pd UI;
#X floatatom 853 105 5 0 0 0 - - -;
#N canvas 285 750 292 294 mstobpm 0;
#X obj 45 13 inlet;
#X obj 46 145 timer;
#X obj 47 238 outlet;
#X obj 46 172 expr 60000 / $f1;
#X obj 46 108 t b b;
#X obj 45 78 sel 0;
#X text 97 55 time 16th notes;
#X obj 43 45 % 24;
#X obj 48 206 / 1;
#X connect 0 0 7 0;
#X connect 1 0 3 0;
#X connect 3 0 8 0;
#X connect 4 0 1 0;
#X connect 4 1 1 1;
#X connect 5 0 4 0;
#X connect 7 0 5 0;
#X connect 8 0 2 0;
#X restore 719 979 pd mstobpm;
#X obj 774 1092 spigot 0, f 22;
#X obj 853 77 i;
#N canvas 239 342 450 300 triplets 0;
#X obj 73 41 inlet;
#X obj 58 168 outlet;
#X obj 76 86 sel 0 8 16;
#X connect 0 0 2 0;
#X connect 2 0 1 0;
#X connect 2 1 1 0;
#X connect 2 2 1 0;
#X restore 344 1300 pd triplets;
#N canvas 0 50 1360 725 sixteenths 0;
#X obj 73 41 inlet;
#X obj 94 224 outlet;
#X obj 76 86 sel 0 6 12 18;
#X connect 0 0 2 0;
#X connect 2 0 1 0;
#X connect 2 1 1 0;
#X connect 2 2 1 0;
#X connect 2 3 1 0;
#X restore 334 1336 pd sixteenths;
#X obj 344 1318 s triplets;
#X obj 334 1354 s sixteenths;
#X obj 364 1246 s quarters;
#X obj 354 1282 s eighths;
#N canvas 236 394 450 300 quarters 0;
#X obj 73 41 inlet;
#X obj 73 75 sel 0;
#X obj 73 111 outlet;
#X connect 0 0 1 0;
#X connect 1 0 2 0;
#X restore 364 1218 pd quarters;
#N canvas 4 50 1360 725 eighths 0;
#X obj 73 41 inlet;
#X obj 71 195 outlet;
#X obj 76 86 sel 0 12;
#X connect 0 0 2 0;
#X connect 2 0 1 0;
#X connect 2 1 1 0;
#X restore 354 1264 pd eighths;
#X obj 329 1372 s 24ppq;
#N canvas 0 50 450 250 (subpatch) 0;
#X array swing-\$1 4 float 3;
#A 0 0 0.28 0.64 0.2;
#X coords 0 1 4 -1 50 50 1 0 0;
#X restore 429 604 graph;
#X obj 429 656 tabread4 swing-\$1;
#X obj 314 1037 t a;
#X obj 299 626 t a a, f 6;
#X obj 314 978 pipe 0;
#X obj 347 670 random 1024;
#X obj 446 774 clip 0 1;
#X obj 446 866 nbx 5 14 -1e+37 1e+37 0 0 empty empty empty 0 -8 0 10
-262144 -1 -1 0 256;
#X obj 446 756 +, f 8;
#X obj 446 684 - 512;
#X obj 446 702 / 512;
#X obj 499 928 / 100;
#X obj 446 720 * 1;
#X obj 347 634 % 6;
#X obj 347 652 sel 0;
#X obj 535 788 * 0.999;
#X obj 347 888 / 32;
#X obj 347 942 * 0;
#X obj 446 848 * 0;
#N canvas 8 60 960 511 swing 0;
#X obj 74 16 inlet;
#X obj 83 478 outlet;
#X obj 75 377 pipe 0;
#X obj 207 360 pipe 0;
#X obj 340 391 pipe 0;
#X msg 75 52 6, f 1;
#X msg 207 52 12, f 4;
#X msg 340 52 18, f 2;
#X obj 207 445 tgl 15 0 empty empty empty 17 7 0 10 -262144 -1 -1 0
1;
#X obj 207 408 bng 15 250 50 0 empty empty empty 17 7 0 10 -262144
-1 -1;
#X obj 75 423 bng 15 250 50 0 empty empty empty 17 7 0 10 -262144 -1
-1;
#X obj 340 409 bng 15 250 50 0 empty empty empty 17 7 0 10 -262144
-1 -1;
#X obj 207 462 s monitor_swing8-\$1;
#X obj 340 436 tgl 15 0 empty empty empty 17 7 0 10 -262144 -1 -1 1
1;
#X obj 340 453 s monitor_swing16-\$1;
#X obj 473 62 sel 0;
#X obj 474 80 bng 15 250 50 0 empty empty empty 17 7 0 10 -262144 -1
-1;
#X obj 474 114 s monitor_beat-\$1;
#X obj 74 34 sel 6 12 18, f 67;
#X obj 474 97 tgl 15 0 empty empty empty 17 7 0 10 -262144 -1 -1 1
1;
#X obj 378 227 expr 1000/($f1/60);
#X obj 378 281 / 2;
#X obj 246 271 / 4;
#X obj 378 300 t b f;
#X obj 246 289 t b f;
#X obj 373 318 f 0;
#X obj 240 307 f 0;
#X obj 240 325 *, f 6;
#X obj 373 346 *;
#X floatatom 373 364 5 0 0 0 - - -;
#X floatatom 240 343 5 0 0 0 - - -;
#X obj 373 191 * 0.0015;
#X obj 240 203 * 0.0015;
#X obj 240 185 r c_swing8-\$1;
#X obj 373 173 r c_swing16-\$1;
#X obj 378 209 r c_bpm-\$1;
#X connect 0 0 18 0;
#X connect 2 0 1 0;
#X connect 2 0 10 0;
#X connect 3 0 1 0;
#X connect 3 0 9 0;
#X connect 4 0 1 0;
#X connect 4 0 11 0;
#X connect 5 0 2 0;
#X connect 6 0 3 0;
#X connect 7 0 4 0;
#X connect 8 0 12 0;
#X connect 9 0 8 0;
#X connect 10 0 13 0;
#X connect 11 0 13 0;
#X connect 13 0 14 0;
#X connect 15 0 16 0;
#X connect 16 0 19 0;
#X connect 18 0 5 0;
#X connect 18 1 6 0;
#X connect 18 2 7 0;
#X connect 18 3 1 0;
#X connect 18 3 15 0;
#X connect 19 0 17 0;
#X connect 20 0 21 0;
#X connect 20 0 22 0;
#X connect 21 0 23 0;
#X connect 22 0 24 0;
#X connect 23 0 25 0;
#X connect 23 1 28 1;
#X connect 24 0 26 0;
#X connect 24 1 27 1;
#X connect 25 0 28 0;
#X connect 26 0 27 0;
#X connect 27 0 30 0;
#X connect 28 0 29 0;
#X connect 29 0 4 1;
#X connect 29 0 2 1;
#X connect 30 0 3 1;
#X connect 31 0 25 0;
#X connect 32 0 26 0;
#X connect 33 0 32 0;
#X connect 34 0 31 0;
#X connect 35 0 20 0;
#X restore 314 598 pd swing;
#X obj 446 802 * 64;
#X obj 814 1220 s bpm;
#X obj 611 1332 bng 15 250 50 0 empty empty empty 17 7 0 10 -262144
-1 -1;
#X obj 564 1372 bng 15 250 50 0 empty empty empty 17 7 0 10 -262144
-1 -1;
#X floatatom 565 1290 5 0 0 0 - - -;
#X obj 565 1232 f 0;
#X obj 599 1232 + 1;
#X floatatom 628 1146 5 0 0 0 - - -;
#X obj 533 1423 t b b;
#X obj 592 1441 t b b;
#X obj 803 1426 *~;
#X obj 610 1350 sampler-voice metro1.wav 0;
#X obj 564 1402 sampler-voice metro2.wav 6;
#X obj 803 1462 throw~ ooutL;
#X obj 891 1464 throw~ ooutR;
#X msg 560 1469 7;
#X obj 592 1605 s aux-led-\$1;
#X obj 455 1347 s signature;
#X msg 726 1517 7;
#X obj 509 1451 delay 50;
#X obj 592 1469 delay 3;
#X obj 633 1186 s signature_monitor-\$1;
#X msg 711 141 tempo \$1;
#X obj 387 131 tgl 15 0 empty empty empty 17 7 0 10 -262144 -1 -1 1
1;
#X floatatom 711 124 5 0 0 2 tempo - -;
#X msg 387 158 connect \$1;
#X floatatom 868 150 5 0 0 0 - - -;
#X obj 868 132 r #abl_link_num_peers;
#X obj 387 113 delay 100;
#X obj 314 396 wrap;
#X obj 314 432 i;
#X obj 314 450 change;
#X obj 1067 86 r loadbang-\$1;
#X obj 387 76 bng 15 250 50 0 empty empty empty 17 7 0 10 -262144 -1
-1;
#X obj 60 566 s beat-clock;
#X msg 280 168 reset \$1 \$2;
#X obj 280 150 pack f f;
#X obj 280 196 abl_link~;
#X obj 203 289 i;
#X floatatom 203 317 5 0 0 0 - - -;
#X obj 203 271 spigot 0;
#X msg 248 196 1;
#X obj 203 334 s timeline;
#X msg 113 224 0;
#X obj 853 1132 f;
#X msg 325 115 4;
#X obj 314 414 * 24;
#X obj 364 508 + 1, f 5;
#X obj 314 506 f;
#X msg 418 549 0;
#X obj 339 542 >= 23;
#X obj 339 560 sel 1;
#X obj 569 171 midirealtimein;
#X obj 314 378 spigot 1;
#X obj 442 454 spigot 0;
#X obj 487 392 tgl 15 0 empty empty empty 17 7 0 10 -262144 -1 -1 0
1;
#X obj 359 343 ==;
#X obj 359 361 tgl 15 0 empty empty empty 17 7 0 10 -262144 -1 -1 1
1;
#X obj 487 437 tgl 15 0 empty empty empty 17 7 0 10 -262144 -1 -1 0
1;
#X obj 709 360 delay 1000;
#X msg 540 342 1;
#X obj 442 314 t b b b b, f 25;
#X msg 709 328 stop;
#X msg 709 378 0;
#X text 503 202 MIDI 248 = clock \; 250 = start \; 251 = continue.
;
#X msg 1068 267 0;
#X msg 314 468 bang;
#X obj 314 250 spigot, f 24;
#X obj 347 960 + 0, f 17;
#X obj 113 206 r stop;
#X obj 1160 696 tgl 15 0 empty empty empty 17 7 0 10 -262144 -1 -1
0 1;
#X obj 1170 632 r rackCurrentPreset;
#X obj 1170 650 t b;
#X msg 1170 668 0;
#X msg 1117 638 1;
#X msg 1122 666 0;
#X obj 384 1200 midiout;
#X msg 354 1139 251;
#X msg 383 1138 250;
#X msg 437 1141 252;
#X obj 1051 579 sel 1;
#X obj 1051 597 tgl 15 0 empty empty empty 17 7 0 10 -262144 -1 -1
0 1;
#X obj 1051 614 sel 1;
#X obj 1078 666 s stop;
#X obj 808 337 bng 15 250 50 0 empty empty empty 17 7 0 10 -262144
-1 -1;
#X obj 860 361 bng 15 250 50 0 empty empty empty 17 7 0 10 -262144
-1 -1;
#X msg 654 460 0;
#X obj 322 84 r reset;
#X obj 280 132 f;
#X obj 592 1577 f 0;
#X obj 597 1487 r record;
#X obj 597 1505 tgl 15 0 empty empty empty 17 7 0 10 -262144 -1 -1
0 1;
#X obj 597 1522 * 3;
#X obj 597 1540 t b f;
#X msg 130 118 0;
#X msg 60 85 359;
#X obj 1160 713 s playing;
#X obj 264 67 r start;
#X obj 853 1201 s master-bpm;
#X obj 499 816 r chaos-\$1;
#X obj 522 1318 s bar;
#X obj 446 738 * 0.025;
#X obj 460 830 / 200;
#X obj 868 167 tgl 15 0 empty empty empty 17 7 0 10 -262144 -1 -1 0
1;
#X obj 868 184 s link;
#X obj 534 405 s midi;
#X obj 853 668 spigot 1;
#X obj 281 534 / 24;
#X obj 281 552 * 360;
#X obj 898 650 - 1;
#X obj 943 373 s reset;
#X obj 196 963 r stop;
#X msg 196 984 0;
#X msg 243 983 1;
#X obj 243 962 r start;
#X obj 654 442 r reset;
#X obj 580 1186 r reset;
#X obj 1069 717 s reset;
#X obj 1069 689 delay 50;
#X obj 315 1010 spigot 1;
#X obj 384 1182 spigot 0;
#X obj 1010 688 s start;
#X obj 214 1139 r loadbang-\$1;
#X msg 214 1160 248;
#X obj 1014 350 r loadbang-\$1;
#X obj 582 1070 r set_signature-\$1;
#X msg 562 1113 999;
#X msg 591 1113 16;
#X msg 619 1113 32;
#X msg 647 1113 64;
#X obj 440 277 spigot 1;
#X obj 485 241 r midiin-\$1;
#X obj 582 1094 sel 0 9 10 11;
#X obj 565 1255 % 4, f 11;
#X msg 580 1204 0;
#X obj 565 1273 + 1;
#X obj 565 1350 sel 1;
#X floatatom 197 203 5 0 0 0 - - -;
#X obj 812 1160 f;
#X obj 42 606 r notesIn-\$1;
#X floatatom 46 691 5 0 0 0 - - -;
#X obj 88 837 s master-pattern-change;
#X obj 92 705 sel 60 62 64 65 67 69 71 72 74 76 77 79 81 83, f 13
;
#X obj 93 666 unpack 0 0 0;
#X floatatom 46 778 5 0 0 0 - - -;
#X obj 116 788 pack 0 0 0;
#X obj 656 1166 s signature_set;
#X obj 200 685 r loadbang-\$1;
#X obj 200 706 delay 500;
#X obj 184 644 r rackLoadPreset;
#X floatatom 192 593 5 0 0 0 - - -;
#X floatatom 252 606 5 0 0 0 - - -;
#X msg 215 755 61 100 0;
#X msg 224 784 61 0 0;
#X obj 214 729 t b b;
#X obj 743 1596 s bar-led;
#X obj 538 266 sel 248 251 252 250, f 68;
#X obj 384 992 t a;
#X obj 385 1120 r start;
#X obj 455 1303 sel 1;
#X obj 455 1325 bng 15 250 50 0 empty empty empty 17 7 0 10 -262144
-1 -1;
#X msg 1199 682 0;
#X obj 1200 660 r stop;
#N canvas 511 152 1149 866 PATTERNS 0;
#X obj 797 18 r notesIn-\$1;
#X obj 36 26 r loadbang-\$1;
#X obj 36 45 delay 500;
#X obj 101 50 r rackLoadPreset;
#X obj 142 363 s master-pattern-change-a1;
#X obj 311 363 s master-pattern-change-a2;
#X obj 481 363 s master-pattern-change-a3;
#X obj 650 418 s master-pattern-change-b4;
#X obj 37 139 i;
#X obj 108 139 i;
#X obj 182 139 i;
#X obj 253 139 i;
#X obj 328 139 i;
#X obj 400 139 i;
#X obj 473 139 i;
#X obj 547 139 i;
#X obj 618 139 i;
#X obj 692 139 i;
#X obj 794 153 s a-pattern-\$1;
#X obj 40 349 r a-pattern-\$1;
#X obj 36 98 sel 61 63 66 68 70 73 75 78 80 82, f 122;
#X obj 36 181 i;
#X obj 108 181 i;
#X obj 181 181 i;
#X obj 252 181 i;
#X obj 327 181 i;
#X obj 399 181 i;
#X obj 472 181 i;
#X obj 546 181 i;
#X obj 617 181 i;
#X obj 691 181 i;
#X obj 793 195 s b-pattern-\$1;
#X obj 140 418 s master-pattern-change-b1;
#X obj 309 418 s master-pattern-change-b2;
#X obj 479 418 s master-pattern-change-b3;
#X obj 38 404 r b-pattern-\$1;
#X obj 37 229 i;
#X obj 109 229 i;
#X obj 182 229 i;
#X obj 253 229 i;
#X obj 328 229 i;
#X obj 400 229 i;
#X obj 473 229 i;
#X obj 547 229 i;
#X obj 618 229 i;
#X obj 692 229 i;
#X obj 794 243 s c-pattern-\$1;
#X obj 39 450 r c-pattern-\$1;
#X obj 141 464 s master-pattern-change-c1;
#X obj 310 464 s master-pattern-change-c2;
#X obj 480 464 s master-pattern-change-c3;
#X obj 37 272 i;
#X obj 110 272 i;
#X obj 182 272 i;
#X obj 253 272 i;
#X obj 328 272 i;
#X obj 400 272 i;
#X obj 473 272 i;
#X obj 547 272 i;
#X obj 618 272 i;
#X obj 692 272 i;
#X obj 794 286 s d-pattern-\$1;
#X obj 38 500 r d-pattern-\$1;
#X obj 140 514 s master-pattern-change-d1;
#X obj 309 514 s master-pattern-change-d2;
#X obj 479 514 s master-pattern-change-d3;
#X obj 650 514 s master-pattern-change-d4;
#X obj 41 602 r master-pattern-change-a1;
#X obj 210 602 r master-pattern-change-a2;
#X obj 380 602 r master-pattern-change-a3;
#X obj 39 657 r master-pattern-change-b1;
#X obj 208 657 r master-pattern-change-b2;
#X obj 378 657 r master-pattern-change-b3;
#X obj 549 657 r master-pattern-change-b4;
#X obj 40 703 r master-pattern-change-c1;
#X obj 209 703 r master-pattern-change-c2;
#X obj 379 703 r master-pattern-change-c3;
#X obj 39 753 r master-pattern-change-d1;
#X obj 208 753 r master-pattern-change-d2;
#X obj 378 753 r master-pattern-change-d3;
#X obj 549 753 r master-pattern-change-d4;
#X obj 798 45 stripnote, f 12;
#X obj 69 125 r p1_a-\$1;
#X obj 136 125 r p2_a-\$1;
#X obj 208 125 r p3_a-\$1;
#X obj 277 125 r p4_a-\$1;
#X obj 353 125 r p5_a-\$1;
#X obj 426 125 r p6_a-\$1;
#X obj 499 125 r p7_a-\$1;
#X obj 574 125 r p8_a-\$1;
#X obj 645 125 r p9_a-\$1;
#X obj 717 125 r p10_a-\$1;
#X obj 68 167 r p1_b-\$1;
#X obj 135 167 r p2_b-\$1;
#X obj 207 167 r p3_b-\$1;
#X obj 276 167 r p4_b-\$1;
#X obj 352 167 r p5_b-\$1;
#X obj 425 167 r p6_b-\$1;
#X obj 498 167 r p7_b-\$1;
#X obj 573 167 r p8_b-\$1;
#X obj 644 167 r p9_b-\$1;
#X obj 716 167 r p10_b-\$1;
#X obj 69 215 r p1_c-\$1;
#X obj 136 215 r p2_c-\$1;
#X obj 208 215 r p3_c-\$1;
#X obj 277 215 r p4_c-\$1;
#X obj 353 215 r p5_c-\$1;
#X obj 426 215 r p6_c-\$1;
#X obj 499 215 r p7_c-\$1;
#X obj 574 215 r p8_c-\$1;
#X obj 645 215 r p9_c-\$1;
#X obj 717 215 r p10_c-\$1;
#X obj 69 258 r p1_d-\$1;
#X obj 136 258 r p2_d-\$1;
#X obj 208 258 r p3_d-\$1;
#X obj 277 258 r p4_d-\$1;
#X obj 353 258 r p5_d-\$1;
#X obj 426 258 r p6_d-\$1;
#X obj 499 258 r p7_d-\$1;
#X obj 574 258 r p8_d-\$1;
#X obj 645 258 r p9_d-\$1;
#X obj 717 258 r p10_d-\$1;
#N canvas 1133 288 502 205 GLOBAL-PATTERN-IN 0;
#X obj 32 78 sel 1 2 3 4 5 6 7 8 9 10, f 55;
#X msg 32 102 61, f 2;
#X msg 64 102 63, f 2;
#X msg 98 102 66, f 2;
#X msg 130 102 68, f 2;
#X msg 161 102 70, f 2;
#X msg 193 102 73, f 2;
#X msg 227 102 75, f 2;
#X msg 259 102 78, f 2;
#X msg 293 102 80, f 2;
#X msg 325 102 82, f 2;
#X obj 371 50 unpack 0 0 0;
#X obj 371 165 outlet;
#X obj 371 28 r notesIn-s2;
#X obj 371 116 makenote, f 12;
#X msg 440 74 2;
#X obj 371 139 pack 0 0, f 12;
#X floatatom 377 87 5 0 0 0 - - -;
#X floatatom 420 98 5 0 0 0 - - -;
#X floatatom 476 100 5 0 0 0 - - -;
#X floatatom 7 133 5 0 0 0 - - -;
#X obj 32 40 r master-pattern-change;
#X connect 0 0 1 0;
#X connect 0 1 2 0;
#X connect 0 2 3 0;
#X connect 0 3 4 0;
#X connect 0 4 5 0;
#X connect 0 5 6 0;
#X connect 0 6 7 0;
#X connect 0 7 8 0;
#X connect 0 8 9 0;
#X connect 0 9 10 0;
#X connect 1 0 14 0;
#X connect 2 0 14 0;
#X connect 3 0 14 0;
#X connect 4 0 14 0;
#X connect 5 0 14 0;
#X connect 6 0 14 0;
#X connect 7 0 14 0;
#X connect 8 0 14 0;
#X connect 9 0 14 0;
#X connect 10 0 14 0;
#X connect 11 0 17 0;
#X connect 11 1 14 1;
#X connect 11 1 18 0;
#X connect 11 2 15 0;
#X connect 11 2 19 0;
#X connect 13 0 11 0;
#X connect 14 0 16 0;
#X connect 14 1 16 1;
#X connect 15 0 14 2;
#X connect 16 0 12 0;
#X connect 21 0 0 0;
#X connect 21 0 20 0;
#X restore 982 17 pd GLOBAL-PATTERN-IN;
#X msg 36 64 61;
#X obj 921 68 r activePage;
#X obj 921 89 unpack s s;
#X obj 921 110 sel \$1;
#X msg 921 138 1;
#X obj 921 169 &&;
#X msg 954 138 0;
#X obj 921 211 tgl 15 0 empty empty empty 17 7 0 10 -262144 -1 -1 0
1;
#X obj 986 116 sel pg_main;
#X msg 986 138 0;
#X msg 1055 139 1;
#X obj 629 339 bng 15 250 50 0 empty empty empty 17 7 0 10 -262144
-1 -1;
#X obj 677 342 bng 15 250 50 0 empty empty empty 17 7 0 10 -262144
-1 -1;
#X obj 798 66 spigot;
#X connect 0 0 81 0;
#X connect 1 0 2 0;
#X connect 2 0 123 0;
#X connect 3 0 123 0;
#X connect 8 0 18 0;
#X connect 9 0 18 0;
#X connect 10 0 18 0;
#X connect 11 0 18 0;
#X connect 12 0 18 0;
#X connect 13 0 18 0;
#X connect 14 0 18 0;
#X connect 15 0 18 0;
#X connect 16 0 18 0;
#X connect 17 0 18 0;
#X connect 19 0 4 0;
#X connect 19 0 6 0;
#X connect 19 0 5 0;
#X connect 20 0 51 0;
#X connect 20 0 36 0;
#X connect 20 0 21 0;
#X connect 20 0 8 0;
#X connect 20 0 134 0;
#X connect 20 1 52 0;
#X connect 20 1 37 0;
#X connect 20 1 22 0;
#X connect 20 1 9 0;
#X connect 20 1 135 0;
#X connect 20 2 53 0;
#X connect 20 2 38 0;
#X connect 20 2 23 0;
#X connect 20 2 10 0;
#X connect 20 3 54 0;
#X connect 20 3 39 0;
#X connect 20 3 24 0;
#X connect 20 3 11 0;
#X connect 20 4 55 0;
#X connect 20 4 40 0;
#X connect 20 4 25 0;
#X connect 20 4 12 0;
#X connect 20 5 56 0;
#X connect 20 5 41 0;
#X connect 20 5 26 0;
#X connect 20 5 13 0;
#X connect 20 6 57 0;
#X connect 20 6 42 0;
#X connect 20 6 27 0;
#X connect 20 6 14 0;
#X connect 20 7 15 0;
#X connect 20 7 58 0;
#X connect 20 7 43 0;
#X connect 20 7 28 0;
#X connect 20 8 16 0;
#X connect 20 8 59 0;
#X connect 20 8 44 0;
#X connect 20 8 29 0;
#X connect 20 9 17 0;
#X connect 20 9 60 0;
#X connect 20 9 45 0;
#X connect 20 9 30 0;
#X connect 21 0 31 0;
#X connect 22 0 31 0;
#X connect 23 0 31 0;
#X connect 24 0 31 0;
#X connect 25 0 31 0;
#X connect 26 0 31 0;
#X connect 27 0 31 0;
#X connect 28 0 31 0;
#X connect 29 0 31 0;
#X connect 30 0 31 0;
#X connect 35 0 7 0;
#X connect 35 0 32 0;
#X connect 35 0 33 0;
#X connect 35 0 34 0;
#X connect 36 0 46 0;
#X connect 37 0 46 0;
#X connect 38 0 46 0;
#X connect 39 0 46 0;
#X connect 40 0 46 0;
#X connect 41 0 46 0;
#X connect 42 0 46 0;
#X connect 43 0 46 0;
#X connect 44 0 46 0;
#X connect 45 0 46 0;
#X connect 47 0 48 0;
#X connect 47 0 49 0;
#X connect 47 0 50 0;
#X connect 51 0 61 0;
#X connect 52 0 61 0;
#X connect 53 0 61 0;
#X connect 54 0 61 0;
#X connect 55 0 61 0;
#X connect 56 0 61 0;
#X connect 57 0 61 0;
#X connect 58 0 61 0;
#X connect 59 0 61 0;
#X connect 60 0 61 0;
#X connect 62 0 63 0;
#X connect 62 0 64 0;
#X connect 62 0 65 0;
#X connect 62 0 66 0;
#X connect 81 0 136 0;
#X connect 82 0 8 1;
#X connect 83 0 9 1;
#X connect 84 0 10 1;
#X connect 85 0 11 1;
#X connect 86 0 12 1;
#X connect 87 0 13 1;
#X connect 88 0 14 1;
#X connect 89 0 15 1;
#X connect 90 0 16 1;
#X connect 91 0 17 1;
#X connect 92 0 21 1;
#X connect 93 0 22 1;
#X connect 94 0 23 1;
#X connect 95 0 24 1;
#X connect 96 0 25 1;
#X connect 97 0 26 1;
#X connect 98 0 27 1;
#X connect 99 0 28 1;
#X connect 100 0 29 1;
#X connect 101 0 30 1;
#X connect 102 0 36 1;
#X connect 103 0 37 1;
#X connect 104 0 38 1;
#X connect 105 0 39 1;
#X connect 106 0 40 1;
#X connect 107 0 41 1;
#X connect 108 0 42 1;
#X connect 109 0 43 1;
#X connect 110 0 44 1;
#X connect 111 0 45 1;
#X connect 112 0 51 1;
#X connect 113 0 52 1;
#X connect 114 0 53 1;
#X connect 115 0 54 1;
#X connect 116 0 55 1;
#X connect 117 0 56 1;
#X connect 118 0 57 1;
#X connect 119 0 58 1;
#X connect 120 0 59 1;
#X connect 121 0 60 1;
#X connect 123 0 20 0;
#X connect 124 0 125 0;
#X connect 125 0 126 0;
#X connect 125 1 131 0;
#X connect 126 0 127 0;
#X connect 126 1 129 0;
#X connect 127 0 128 0;
#X connect 128 0 130 0;
#X connect 129 0 128 0;
#X connect 130 0 136 1;
#X connect 131 0 132 0;
#X connect 131 1 133 0;
#X connect 132 0 128 1;
#X connect 133 0 128 1;
#X connect 136 0 20 0;
#X restore 1001 400 pd PATTERNS;
#N canvas 1186 327 589 294 delComp 0;
#X obj 26 118 inlet;
#X obj 26 252 outlet;
#X obj 83 143 bng 15 250 50 0 empty empty empty 17 7 0 10 -262144 -1
-1;
#X obj 83 117 r bar;
#X obj 217 81 r mcActive-\$1;
#X obj 136 81 r mcActive;
#X obj 136 106 spigot 1;
#X msg 217 126 0;
#X obj 136 129 sel 0, f 8;
#X msg 136 153 0, f 2;
#X obj 217 108 sel 1;
#X obj 181 9 r playing;
#X obj 181 30 sel 0;
#X msg 181 51 1;
#X floatatom 111 200 5 0 0 0 - - -;
#X obj 217 149 t f f;
#X obj 311 80 r mcActiveFx;
#X obj 311 106 spigot 1;
#X obj 311 129 sel 0, f 8;
#X msg 311 150 0, f 2;
#X obj 204 188 +;
#X obj 26 201 pipe 0, f 10;
#X msg 181 153 7.70975, f 2;
#X msg 356 150 7.70975, f 2;
#X connect 0 0 21 0;
#X connect 2 0 20 0;
#X connect 3 0 2 0;
#X connect 4 0 10 0;
#X connect 5 0 6 0;
#X connect 6 0 8 0;
#X connect 7 0 15 0;
#X connect 8 0 9 0;
#X connect 8 1 22 0;
#X connect 9 0 20 0;
#X connect 10 0 7 0;
#X connect 11 0 12 0;
#X connect 12 0 13 0;
#X connect 13 0 6 1;
#X connect 15 0 20 0;
#X connect 15 1 6 1;
#X connect 15 1 17 1;
#X connect 16 0 17 0;
#X connect 17 0 18 0;
#X connect 18 0 19 0;
#X connect 18 1 23 0;
#X connect 19 0 20 1;
#X connect 20 0 14 0;
#X connect 20 0 21 1;
#X connect 21 0 1 0;
#X connect 22 0 20 0;
#X connect 23 0 20 1;
#X restore 365 1040 pd delComp;
#X msg 860 381 0;
#X msg 808 357 1;
#X obj 917 348 t b b;
#X obj 437 1119 r stop;
#X msg 358 1084 248;
#X obj 886 1425 *~;
#X obj 818 1309 r c_clickvol_l-\$1;
#X obj 929 1335 r c_clickvol_r-\$1;
#X obj 818 1330 / 100;
#X obj 818 1351 t f f;
#X obj 818 1372 *;
#X obj 929 1356 / 100;
#X obj 929 1377 t f f;
#X obj 929 1398 *;
#X obj 853 59 r c_bpm-\$1;
#X obj 1045 518 r auxIn-\$1;
#X obj 1045 539 spigot;
#X obj 879 1168 bng 15 250 50 0 empty empty empty 17 7 0 10 -262144
-1 -1;
#X obj 1122 374 r activePage;
#X obj 1122 395 unpack s s;
#X obj 1122 416 sel \$1;
#X msg 1122 437 1;
#X msg 1155 437 0;
#X obj 1151 503 &&;
#X obj 1133 580 tgl 15 0 empty empty empty 17 7 0 10 -262144 -1 -1
0 1;
#X obj 96 628 spigot;
#X obj 546 511 r activePage;
#X obj 546 532 unpack s s;
#X obj 546 553 sel \$1;
#X msg 546 574 1;
#X msg 579 574 0;
#X obj 575 640 &&;
#X obj 557 717 tgl 15 0 empty empty empty 17 7 0 10 -262144 -1 -1 0
1;
#X obj 613 556 sel pg_main;
#X msg 613 577 0;
#X msg 682 580 1;
#X floatatom 39 650 5 0 0 0 - - -;
#X obj 1189 419 sel pg_main;
#X msg 1189 440 0;
#X msg 1258 443 1;
#X obj 519 1205 tgl 15 0 empty empty empty 17 7 0 10 -262144 -1 -1
1 1;
#X obj 482 1159 r c_midiout-\$1;
#X obj 390 42 r loadbang-\$1;
#X floatatom 719 1000 5 0 0 0 - - -;
#X obj 719 1020 + 0.5;
#X obj 719 1041 mavg 10;
#X obj 719 1062 i;
#X floatatom 719 1083 5 0 0 0 - - -;
#X msg 1010 538 1;
#X obj 1012 516 bng 15 250 50 0 empty empty empty 17 7 0 10 -262144
-1 -1;
#X floatatom 281 573 5 0 0 0 - - -;
#X floatatom 361 582 5 0 0 0 - - -;
#X obj 590 670 r stop;
#X msg 590 691 0;
#X msg 637 691 1;
#X obj 637 669 r start;
#X obj 603 744 spigot 1;
#X obj 603 765 s multicycle-ticks-\$1;
#X floatatom 547 760 5 0 0 0 - - -;
#X floatatom 320 719 5 0 0 0 - - -;
#X floatatom 361 723 5 0 0 0 - - -;
#X obj 314 1390 s master-ticks;
#X msg 516 998 1, f 5;
#X msg 500 979 0;
#X obj 498 1036 s c_midiout-\$1;
#X connect 1 0 58 0;
#X connect 1 0 140 0;
#X connect 2 0 242 0;
#X connect 3 0 78 0;
#X connect 4 0 1 0;
#X connect 5 0 7 0;
#X connect 6 0 8 0;
#X connect 11 0 9 0;
#X connect 11 0 39 0;
#X connect 12 0 10 0;
#X connect 16 0 11 0;
#X connect 16 0 12 0;
#X connect 16 0 5 0;
#X connect 16 0 6 0;
#X connect 16 0 13 0;
#X connect 16 0 2 0;
#X connect 16 0 260 0;
#X connect 17 0 18 0;
#X connect 17 1 27 0;
#X connect 18 0 153 0;
#X connect 18 0 191 0;
#X connect 19 0 23 0;
#X connect 19 0 30 0;
#X connect 20 0 29 0;
#X connect 20 0 34 0;
#X connect 21 0 102 1;
#X connect 22 0 20 0;
#X connect 23 0 24 0;
#X connect 24 0 26 0;
#X connect 25 0 31 1;
#X connect 26 0 135 0;
#X connect 27 0 28 0;
#X connect 28 0 19 0;
#X connect 29 0 22 1;
#X connect 30 0 31 0;
#X connect 31 0 102 0;
#X connect 32 0 21 0;
#X connect 33 0 259 0;
#X connect 33 0 17 0;
#X connect 34 0 32 0;
#X connect 36 0 45 0;
#X connect 37 0 172 0;
#X connect 37 0 46 0;
#X connect 38 0 134 0;
#X connect 38 0 193 0;
#X connect 38 0 36 0;
#X connect 38 0 170 0;
#X connect 39 0 40 0;
#X connect 39 0 167 0;
#X connect 40 0 39 1;
#X connect 41 0 55 0;
#X connect 41 0 167 1;
#X connect 41 0 180 0;
#X connect 42 0 53 0;
#X connect 42 1 49 0;
#X connect 43 0 54 0;
#X connect 43 1 52 0;
#X connect 44 0 47 0;
#X connect 45 0 44 0;
#X connect 45 0 204 0;
#X connect 46 0 44 0;
#X connect 46 0 204 0;
#X connect 49 0 50 0;
#X connect 49 0 189 0;
#X connect 52 0 50 0;
#X connect 52 0 189 0;
#X connect 53 0 123 0;
#X connect 54 0 123 0;
#X connect 56 0 71 0;
#X connect 57 0 59 0;
#X connect 58 0 56 0;
#X connect 59 0 71 0;
#X connect 60 0 137 0;
#X connect 61 0 60 0;
#X connect 62 0 57 0;
#X connect 63 0 80 0;
#X connect 64 0 65 0;
#X connect 65 0 100 0;
#X connect 66 0 78 0;
#X connect 66 0 99 0;
#X connect 67 0 62 0;
#X connect 69 0 71 0;
#X connect 70 0 69 0;
#X connect 71 2 74 0;
#X connect 71 2 101 0;
#X connect 72 0 73 0;
#X connect 73 0 76 0;
#X connect 73 0 122 1;
#X connect 74 0 72 0;
#X connect 75 0 74 1;
#X connect 75 0 101 1;
#X connect 77 0 74 1;
#X connect 77 0 101 1;
#X connect 78 0 132 0;
#X connect 78 0 35 0;
#X connect 78 0 172 1;
#X connect 78 0 216 0;
#X connect 79 0 70 1;
#X connect 80 0 64 0;
#X connect 81 0 82 1;
#X connect 82 0 81 0;
#X connect 82 0 33 0;
#X connect 82 0 84 0;
#X connect 82 0 141 0;
#X connect 82 0 250 0;
#X connect 82 0 255 0;
#X connect 83 0 82 1;
#X connect 84 0 85 0;
#X connect 85 0 83 0;
#X connect 86 0 164 0;
#X connect 86 0 190 0;
#X connect 87 0 63 0;
#X connect 88 0 82 0;
#X connect 89 0 90 0;
#X connect 89 0 92 0;
#X connect 89 0 3 1;
#X connect 89 0 139 0;
#X connect 89 0 143 0;
#X connect 90 0 91 0;
#X connect 91 0 87 1;
#X connect 92 0 88 1;
#X connect 93 0 97 0;
#X connect 94 0 89 0;
#X connect 95 0 88 0;
#X connect 95 1 93 0;
#X connect 95 2 94 0;
#X connect 95 3 96 0;
#X connect 96 0 93 0;
#X connect 97 0 89 0;
#X connect 99 0 89 0;
#X connect 100 0 82 0;
#X connect 101 0 87 0;
#X connect 102 0 18 1;
#X connect 103 0 77 0;
#X connect 104 0 130 0;
#X connect 105 0 106 0;
#X connect 106 0 107 0;
#X connect 107 0 104 0;
#X connect 108 0 104 0;
#X connect 109 0 104 0;
#X connect 111 0 154 0;
#X connect 112 0 154 0;
#X connect 113 0 154 0;
#X connect 114 0 115 0;
#X connect 115 0 116 0;
#X connect 116 0 108 0;
#X connect 116 0 155 0;
#X connect 116 1 117 0;
#X connect 116 1 109 0;
#X connect 116 1 152 0;
#X connect 118 0 200 0;
#X connect 119 0 199 0;
#X connect 120 0 82 1;
#X connect 121 0 79 0;
#X connect 121 0 128 0;
#X connect 122 0 70 0;
#X connect 123 0 50 0;
#X connect 123 0 189 0;
#X connect 124 0 125 0;
#X connect 125 0 126 0;
#X connect 126 0 127 0;
#X connect 127 0 123 0;
#X connect 127 1 123 1;
#X connect 128 0 122 0;
#X connect 128 0 73 0;
#X connect 129 0 68 0;
#X connect 131 0 128 0;
#X connect 131 0 122 0;
#X connect 131 0 75 0;
#X connect 131 0 58 0;
#X connect 131 0 129 0;
#X connect 133 0 25 0;
#X connect 133 0 136 0;
#X connect 135 0 22 0;
#X connect 136 0 32 1;
#X connect 137 0 138 0;
#X connect 140 0 78 0;
#X connect 141 0 142 0;
#X connect 142 0 68 0;
#X connect 142 0 249 0;
#X connect 143 0 140 1;
#X connect 145 0 146 0;
#X connect 146 0 153 1;
#X connect 147 0 153 1;
#X connect 148 0 147 0;
#X connect 149 0 120 0;
#X connect 150 0 168 0;
#X connect 152 0 151 0;
#X connect 153 0 16 0;
#X connect 154 0 110 0;
#X connect 156 0 157 0;
#X connect 157 0 110 0;
#X connect 158 0 248 0;
#X connect 159 0 166 0;
#X connect 160 0 41 0;
#X connect 161 0 41 0;
#X connect 162 0 41 0;
#X connect 163 0 41 0;
#X connect 165 0 164 1;
#X connect 166 0 160 0;
#X connect 166 1 161 0;
#X connect 166 2 162 0;
#X connect 166 3 163 0;
#X connect 166 4 41 0;
#X connect 167 0 169 0;
#X connect 168 0 39 1;
#X connect 169 0 38 0;
#X connect 170 0 37 0;
#X connect 170 0 42 0;
#X connect 170 1 43 0;
#X connect 172 0 132 0;
#X connect 172 0 35 0;
#X connect 173 0 224 0;
#X connect 176 14 178 0;
#X connect 177 0 176 0;
#X connect 177 0 174 0;
#X connect 177 1 179 1;
#X connect 177 1 184 0;
#X connect 177 2 179 2;
#X connect 177 2 185 0;
#X connect 178 0 179 0;
#X connect 179 0 175 0;
#X connect 181 0 182 0;
#X connect 182 0 188 0;
#X connect 183 0 188 0;
#X connect 186 0 177 0;
#X connect 187 0 177 0;
#X connect 188 0 187 0;
#X connect 188 1 186 0;
#X connect 190 0 95 0;
#X connect 190 1 118 0;
#X connect 190 1 83 0;
#X connect 190 2 119 0;
#X connect 190 3 201 0;
#X connect 191 0 198 0;
#X connect 192 0 112 0;
#X connect 193 0 194 0;
#X connect 194 0 51 0;
#X connect 195 0 104 0;
#X connect 196 0 195 0;
#X connect 198 0 203 0;
#X connect 199 0 116 0;
#X connect 200 0 155 0;
#X connect 201 0 155 0;
#X connect 201 1 144 0;
#X connect 202 0 113 0;
#X connect 203 0 154 0;
#X connect 204 0 48 0;
#X connect 205 0 207 0;
#X connect 206 0 210 0;
#X connect 207 0 208 0;
#X connect 208 0 209 0;
#X connect 208 1 209 1;
#X connect 209 0 44 1;
#X connect 210 0 211 0;
#X connect 211 0 212 0;
#X connect 211 1 212 1;
#X connect 212 0 204 1;
#X connect 213 0 4 0;
#X connect 214 0 215 0;
#X connect 215 0 114 0;
#X connect 217 0 218 0;
#X connect 218 0 219 0;
#X connect 218 1 236 0;
#X connect 219 0 220 0;
#X connect 219 1 221 0;
#X connect 220 0 222 0;
#X connect 221 0 222 0;
#X connect 222 0 223 0;
#X connect 223 0 215 1;
#X connect 224 0 177 0;
#X connect 224 0 235 0;
#X connect 225 0 226 0;
#X connect 226 0 227 0;
#X connect 226 1 232 0;
#X connect 227 0 228 0;
#X connect 227 1 229 0;
#X connect 228 0 230 0;
#X connect 229 0 230 0;
#X connect 230 0 231 0;
#X connect 231 0 224 1;
#X connect 232 0 233 0;
#X connect 232 1 234 0;
#X connect 233 0 230 1;
#X connect 234 0 230 1;
#X connect 236 0 237 0;
#X connect 236 1 238 0;
#X connect 237 0 222 1;
#X connect 238 0 222 1;
#X connect 240 0 154 1;
#X connect 240 0 239 0;
#X connect 241 0 67 0;
#X connect 242 0 243 0;
#X connect 243 0 244 0;
#X connect 244 0 245 0;
#X connect 245 0 246 0;
#X connect 246 0 3 0;
#X connect 247 0 114 0;
#X connect 248 0 247 0;
#X connect 251 0 252 0;
#X connect 252 0 255 1;
#X connect 253 0 255 1;
#X connect 254 0 253 0;
#X connect 255 0 256 0;
#X connect 255 0 257 0;
#X connect 261 0 263 0;
#X connect 262 0 263 0;
