#N canvas 4 50 450 300 10;
#X obj 43 305 s set-global-bpm;
#X obj 43 173 i;
#X text 201 94 overtake;
#N canvas 517 50 797 868 overtake 0;
#X obj 37 37 inlet;
#X obj 37 61 t a a, f 13;
#X obj 271 289 i 1;
#X obj 222 35 inlet;
#X obj 37 404 outlet;
#X obj 90 256 i 0;
#X obj 271 265 t b b;
#X obj 404 186 i 0;
#X obj 222 83 i 1;
#X obj 37 321 spigot 1;
#X obj 125 131 spigot 0, f 14;
#X obj 285 543 t a a;
#X obj 302 588 <=;
#X obj 369 539 t a a;
#X obj 358 586 >=;
#X obj 302 663 >;
#X obj 358 618 t b a;
#X obj 302 687 change -1;
#X text 382 703 threshold crossed;
#X obj 222 59 t b b a, f 38;
#X connect 0 0 1 0;
#X connect 1 0 9 0;
#X connect 1 1 10 0;
#X connect 2 0 9 1;
#X connect 3 0 19 0;
#X connect 5 0 9 1;
#X connect 6 0 2 0;
#X connect 6 1 7 0;
#X connect 7 0 10 1;
#X connect 8 0 10 1;
#X connect 9 0 4 0;
#X connect 10 0 11 0;
#X connect 11 0 12 0;
#X connect 11 1 14 0;
#X connect 12 0 15 0;
#X connect 13 0 12 1;
#X connect 13 1 14 1;
#X connect 14 0 16 0;
#X connect 15 0 17 0;
#X connect 16 0 15 0;
#X connect 16 1 15 1;
#X connect 17 0 6 0;
#X connect 19 0 8 0;
#X connect 19 1 5 0;
#X connect 19 2 13 0;
#X restore 43 96 pd overtake;
#X obj 213 128 - 20;
#X obj 43 149 + 0.4999;
#X obj 43 197 + 20;
#X obj 181 47 r set-int-bpm;
#X obj 181 71 t a a;
#X obj 43 241 i;
#X obj 43 125 * 220;
#X obj 213 152 / 221;
#X obj 43 32 inlet;
#X connect 1 0 6 0;
#X connect 3 0 10 0;
#X connect 4 0 11 0;
#X connect 5 0 1 0;
#X connect 6 0 9 0;
#X connect 7 0 8 0;
#X connect 8 0 9 0;
#X connect 8 1 4 0;
#X connect 9 0 0 0;
#X connect 10 0 5 0;
#X connect 11 0 3 1;
#X connect 12 0 3 0;
