#N canvas 587 408 450 300 10;
#X obj 85 63 r notesIn-\$1;
#X floatatom 38 119 5 0 0 0 - - -;
#X obj 80 265 s master-pattern-change;
#X obj 84 133 sel 60 62 64 65 67 69 71 72 74 76 77 79 81 83, f 13
;
#X obj 85 94 unpack 0 0 0;
#X floatatom 38 206 5 0 0 0 - - -;
#X obj 108 216 pack 0 0 0;
#X obj 192 113 r loadbang-\$1;
#X obj 192 134 delay 500;
#X obj 176 72 r rackLoadPreset;
#X floatatom 184 21 5 0 0 0 - - -;
#X floatatom 244 34 5 0 0 0 - - -;
#X msg 207 183 61 100 0;
#X msg 216 212 61 0 0;
#X obj 206 157 t b b;
#X connect 0 0 4 0;
#X connect 3 14 5 0;
#X connect 4 0 3 0;
#X connect 4 0 1 0;
#X connect 4 1 6 1;
#X connect 4 1 10 0;
#X connect 4 2 6 2;
#X connect 4 2 11 0;
#X connect 5 0 6 0;
#X connect 6 0 2 0;
#X connect 7 0 8 0;
#X connect 8 0 14 0;
#X connect 9 0 14 0;
#X connect 12 0 4 0;
#X connect 13 0 4 0;
#X connect 14 0 13 0;
#X connect 14 1 12 0;
