#N canvas 125 67 1052 576 10;
#N canvas 0 50 450 278 (subpatch) 0;
#X array \$1-array 1280 float 2;
#X coords 0 1 1280 -1 335 251 1 0 0;
#X restore 882 260 graph;
#X obj 1238 416 soundfiler;
#X floatatom 1238 434 10 0 0 0 - - -;
#X floatatom 1238 469 10 0 0 0 - - -;
#X obj 1238 451 / 44.1;
#X text 1294 451 sample rate / 1000;
#X obj 202 693 line~;
#X obj 140 219 inlet;
#X obj 140 285 bng 15 250 50 0 empty empty empty 17 7 0 10 -262144
-1 -1;
#X msg 280 383 0 0;
#X obj 111 532 pack 0 0;
#X floatatom 167 474 5 0 0 0 - - -;
#X floatatom 175 407 5 0 0 0 - - -;
#X obj 121 430 f;
#X obj 107 482 * 44.1;
#X obj 1238 486 s \$1-duration;
#X obj 203 720 tabread4~ \$1-array;
#X obj 166 443 r \$1-duration;
#X obj 175 382 r \$1-duration;
#X obj 1238 291 bng 15 250 50 0 empty empty empty 17 7 0 10 -262144
-1 -1;
#X obj 1238 308 symbol \$1-array;
#X obj 1238 362 list prepend -resize;
#X obj 1238 380 list prepend read;
#X obj 1238 398 list trim;
#X text 1058 225 construct the read message using the sound file name
(\$1);
#X obj 1238 326 list;
#X obj 1238 344 list prepend \$1;
#X obj 207 508 f;
#X obj 197 558 * 1;
#X obj 336 443 * 1.5;
#X obj 336 472 + 0.5;
#X obj 295 514 t b f;
#X obj 336 396 - 1;
#X obj 336 420 abs;
#X text 322 195 loads and plays sound file;
#X text 323 217 argument 1: soundfile to load;
#X text 324 238 argument 2: key number to play;
#X obj 192 332 t b b b;
#X obj 372 688 vline~;
#X obj 367 718 *~;
#X obj 372 595 f 1000;
#X obj 430 502 r \$1-duration;
#X text 1314 468 milliseconds;
#X obj 412 559 *;
#X obj 412 474 *;
#X obj 412 452 t f f;
#X obj 372 623 pack 0 0;
#X msg 372 652 1 1 \, \$2 \$1 1;
#X obj 412 388 t f f;
#X text 482 409 if knob all the way up \, never decay;
#X text 484 360 do a simple amplitude decay;
#X floatatom 594 555 5 0 0 0 - - -;
#X obj 481 437 expr if($f1 > 0.98 \, 1 \, 0);
#X obj 203 798 hip~ 5;
#X obj 430 527 * 2;
#X obj 202 764 *~ 0.5;
#X obj 331 334 r metrotone-\$1;
#X obj 575 303 r loadbang-\$1;
#X msg 524 329 0.98;
#X obj 344 366 / 100;
#X obj 205 843 outlet~;
#X obj 1238 273 r loadbang-global;
#X connect 1 0 2 0;
#X connect 2 0 4 0;
#X connect 3 0 15 0;
#X connect 4 0 3 0;
#X connect 6 0 16 0;
#X connect 7 0 8 0;
#X connect 8 0 37 0;
#X connect 9 0 6 0;
#X connect 10 0 6 0;
#X connect 11 0 27 0;
#X connect 12 0 13 1;
#X connect 13 0 14 0;
#X connect 14 0 10 0;
#X connect 16 0 55 0;
#X connect 17 0 11 0;
#X connect 18 0 12 0;
#X connect 19 0 20 0;
#X connect 20 0 25 0;
#X connect 21 0 22 0;
#X connect 22 0 23 0;
#X connect 23 0 1 0;
#X connect 25 0 26 0;
#X connect 26 0 21 0;
#X connect 27 0 28 0;
#X connect 28 0 10 1;
#X connect 29 0 30 0;
#X connect 30 0 31 0;
#X connect 31 0 27 0;
#X connect 31 1 28 1;
#X connect 32 0 33 0;
#X connect 33 0 29 0;
#X connect 37 0 13 0;
#X connect 37 1 9 0;
#X connect 37 2 40 0;
#X connect 38 0 39 1;
#X connect 38 0 39 0;
#X connect 40 0 46 0;
#X connect 41 0 54 0;
#X connect 43 0 40 1;
#X connect 44 0 43 0;
#X connect 45 0 44 0;
#X connect 45 1 44 1;
#X connect 46 0 47 0;
#X connect 47 0 38 0;
#X connect 48 0 45 0;
#X connect 48 1 52 0;
#X connect 52 0 46 1;
#X connect 52 0 51 0;
#X connect 53 0 60 0;
#X connect 54 0 43 1;
#X connect 55 0 53 0;
#X connect 56 0 59 0;
#X connect 57 0 58 0;
#X connect 58 0 48 0;
#X connect 59 0 32 0;
#X connect 61 0 19 0;
