#N canvas 2406 194 1314 872 12;
#X obj 176 127 inlet aux;
#X obj 286 336 outlet notes;
#X obj 329 123 inlet notes;
#X obj 528 229 spigot;
#X obj 576 187 == 0;
#X obj 631 167 r loadbang-\$1;
#X obj 617 200 1;
#X text 642 140 note passthrough if aux is not held;
#X obj 195 212 spigot;
#X obj 125 321 sel 0;
#X obj 131 290 unpack \$2;
#X obj 174 237 t a a;
#X obj 139 382 list store;
#X obj 139 424 unpack \$1;
#X obj 141 483 sel 60 62 64 65 67 69 72 74 76;
#X msg 183 622 selectpage \$1;
#X obj 181 664 s rackMsgs;
#X obj 117 544 1;
#X obj 153 544 5;
#X obj 188 544 9;
#X obj 228 544 13;
#X obj 271 544 17;
#X obj 313 544 21;
#X obj 356 544 25;
#X obj 399 544 29;
#X obj 444 543 33;
#X obj 605 327 sel 0 1;
#X msg 636 382 7;
#X msg 594 383 0;
#X obj 613 441 s aux-led-\$1;
#X connect 0 0 4 0;
#X connect 0 0 8 1;
#X connect 0 0 26 0;
#X connect 2 0 3 0;
#X connect 2 0 8 0;
#X connect 3 0 1 0;
#X connect 4 0 3 1;
#X connect 5 0 6 0;
#X connect 6 0 3 1;
#X connect 8 0 11 0;
#X connect 9 1 12 0;
#X connect 10 0 9 0;
#X connect 11 0 10 0;
#X connect 11 1 12 1;
#X connect 12 0 13 0;
#X connect 13 0 14 0;
#X connect 14 0 17 0;
#X connect 14 1 18 0;
#X connect 14 2 19 0;
#X connect 14 3 20 0;
#X connect 14 4 21 0;
#X connect 14 5 22 0;
#X connect 14 6 23 0;
#X connect 14 7 24 0;
#X connect 14 8 25 0;
#X connect 15 0 16 0;
#X connect 17 0 15 0;
#X connect 18 0 15 0;
#X connect 19 0 15 0;
#X connect 20 0 15 0;
#X connect 21 0 15 0;
#X connect 22 0 15 0;
#X connect 23 0 15 0;
#X connect 24 0 15 0;
#X connect 25 0 15 0;
#X connect 26 0 28 0;
#X connect 26 1 27 0;
#X connect 27 0 29 0;
#X connect 28 0 29 0;
