#N canvas 2000 61 1740 1102 12;
#X obj 401 455 hsl 170 20 0 127 0 0 empty empty empty -2 -10 0 12 #fcfcfc #000000 #000000 0 1;
#X floatatom 1168 448 5 0 0 0 - - - 0;
#X obj 401 506 hsl 170 20 0 127 0 0 empty empty empty -2 -10 0 12 #fcfcfc #000000 #000000 0 1;
#X floatatom 1149 501 5 0 0 0 - - - 0;
#X obj 401 594 hsl 170 20 0 127 0 0 empty empty empty -2 -10 0 12 #fcfcfc #000000 #000000 0 1;
#X floatatom 1100 589 5 0 0 0 - - - 0;
#X obj 403 652 hsl 170 20 0 127 0 0 empty empty empty -2 -10 0 12 #fcfcfc #000000 #000000 0 1;
#X floatatom 1100 650 5 0 0 0 - - - 0;
#X obj 403 711 hsl 170 20 0 127 0 0 empty empty empty -2 -10 0 12 #fcfcfc #000000 #000000 0 1;
#X floatatom 1100 710 5 0 0 0 - - - 0;
#X obj 403 770 hsl 170 20 0 127 0 0 empty empty empty -2 -10 0 12 #fcfcfc #000000 #000000 0 1;
#X floatatom 1100 770 5 0 0 0 - - - 0;
#X obj 599 588 expr $f1 / 127 * 2000;
#X obj 599 649 expr $f1 / 127 * 2000;
#X obj 599 710 expr $f1 / 127 * 100;
#X obj 599 769 expr $f1 / 127 * 2000;
#X obj 598 500 expr 1 + $f1 / 127 * 7;
#X obj 600 447 expr 1 + $f1 / 127 * 7;
#X obj 401 358 hsl 170 20 0 127 0 0 empty empty empty -2 -10 0 12 #fcfcfc #000000 #000000 0 1;
#X floatatom 1166 352 5 0 0 0 - - - 0;
#X text 401 425 Freq Multiplier;
#X text 401 482 Freq Divider;
#X text 400 623 Decay;
#X text 400 682 Sustain;
#X text 400 741 Release;
#X obj 176 175 0;
#X obj 228 175 0;
#X obj 361 176 0;
#X obj 409 176 127;
#X obj 311 175 1;
#X obj 457 176 1;
#X obj 738 8 inlet;
#X obj 693 174 0;
#X obj 407 1068 tgl 20 0 empty empty empty 0 -10 0 12 #fcfcfc #000000 #000000 0 1;
#X text 403 1040 Velocity sensitivity;
#X obj 467 1069 float;
#X floatatom 541 1070 5 0 0 0 - - - 0;
#X obj 796 454 s \$2freq_multiplier-\$1;
#X obj 796 506 s \$2freq_divider-\$1;
#X obj 796 595 s \$2attack-\$1;
#X obj 796 647 s \$2decay-\$1;
#X obj 798 703 s \$2sustain-\$1;
#X obj 801 764 s \$2release-\$1;
#X obj 807 1059 s \$2is_velocity_sensitive-\$1;
#X obj 598 351 expr $f1 / 127 * 1;
#X obj 57 174 127;
#X text 403 333 Volume;
#X obj 796 356 s \$2volume-\$1;
#X obj 404 405 hsl 170 20 0 1 0 0 empty empty empty -2 -10 0 12 #fcfcfc #000000 #000000 0 1;
#X floatatom 1166 408 5 0 0 0 - - - 0;
#X obj 615 51 route carrier modulator;
#X obj 977 166 0;
#X obj 1019 163 0;
#X obj 1143 159 0;
#X obj 997 81 bng 20 250 50 0 empty empty empty 0 -10 0 12 #fcfcfc #000000 #000000;
#X obj 1191 159 127;
#X obj 1239 159 1;
#X obj 1487 153 0;
#X obj 873 146 127;
#X text 1007 58 Mod defaults;
#X obj 1093 159 0;
#X obj 920 164 0;
#X obj 285 54 sel 0 1;
#X obj 54 206 0;
#X text 408 530 Feedback;
#X obj 403 553 hsl 170 20 0 127 0 0 empty empty empty -2 -10 0 12 #fcfcfc #000000 #000000 0 1;
#X text 403 575 Attack;
#X obj 602 552 expr $f1 / 127;
#X obj 796 552 s \$2feedback-\$1;
#X floatatom 1098 549 5 0 0 0 - - - 0;
#X obj 269 175 0;
#X obj 1055 162 0;
#X obj 146 176 0;
#X obj 404 820 hsl 170 20 0 127 0 0 empty empty empty -2 -10 0 12 #fcfcfc #000000 #000000 0 1;
#X text 404 799 Env Amount;
#X obj 600 821 expr $f1 / 127 * 2 - 1;
#X obj 802 819 s \$2env_amount-\$1;
#X floatatom 1092 818 5 0 0 0 - - - 0;
#X obj 503 175 127;
#X obj 1280 159 127;
#X obj 403 866 hsl 170 20 0 1 0 0 empty empty empty -2 -10 0 12 #fcfcfc #000000 #000000 0 1;
#X text 400 841 Key scaling;
#X obj 802 862 s \$2key_scaling-\$1;
#X floatatom 1093 858 5 0 0 0 - - - 0;
#X obj 539 175 0;
#X obj 1323 159 0;
#X msg 231 12 0;
#X msg 295 12 1;
#X text 405 380 Modulation depth;
#X obj 798 408 s \$2mod_depth-\$1;
#X text 401 896 Fine tuning;
#X obj 404 921 hsl 170 20 -120 120 0 0 empty empty empty -2 -10 0 12 #fcfcfc #000000 #000000 0 1;
#X obj 807 922 s \$2fine_tune-\$1;
#X floatatom 1098 925 5 0 0 0 - - - 0;
#X obj 577 175 0;
#X obj 1355 158 0;
#X obj 94 178 0.7699;
#X obj 405 968 hsl 170 20 -7 7 0 0 empty empty empty -2 -10 0 12 #fcfcfc #000000 #000000 0 1;
#X text 406 946 Detune;
#X floatatom 1101 966 5 0 0 0 - - - 0;
#X obj 808 969 s \$2detune-\$1;
#X obj 613 176 0;
#X obj 1386 156 0;
#X obj 409 1015 hsl 170 20 0 100 0 0 empty empty empty -2 -10 0 12 #fcfcfc #000000 #000000 0 1;
#X obj 810 1009 s \$2freq_multiplier_adjust;
#X floatatom 1098 1009 5 0 0 0 - - - 0;
#X obj 651 177 0;
#X obj 1434 157 0;
#X text 407 992 Freq Ratio Adj;
#X connect 0 0 17 0;
#X connect 2 0 16 0;
#X connect 4 0 12 0;
#X connect 6 0 13 0;
#X connect 8 0 14 0;
#X connect 10 0 15 0;
#X connect 12 0 5 0;
#X connect 12 0 39 0;
#X connect 13 0 7 0;
#X connect 13 0 40 0;
#X connect 14 0 9 0;
#X connect 14 0 41 0;
#X connect 15 0 11 0;
#X connect 15 0 42 0;
#X connect 16 0 3 0;
#X connect 16 0 38 0;
#X connect 17 0 1 0;
#X connect 17 0 37 0;
#X connect 18 0 44 0;
#X connect 25 0 0 0;
#X connect 26 0 2 0;
#X connect 27 0 6 0;
#X connect 28 0 8 0;
#X connect 29 0 4 0;
#X connect 30 0 10 0;
#X connect 31 0 50 0;
#X connect 32 0 33 0;
#X connect 33 0 35 0;
#X connect 35 0 36 0;
#X connect 36 0 43 0;
#X connect 44 0 19 0;
#X connect 44 0 47 0;
#X connect 45 0 18 0;
#X connect 48 0 89 0;
#X connect 48 0 49 0;
#X connect 50 0 62 0;
#X connect 50 1 54 0;
#X connect 51 0 0 0;
#X connect 52 0 2 0;
#X connect 53 0 6 0;
#X connect 54 0 53 0;
#X connect 54 0 52 0;
#X connect 54 0 51 0;
#X connect 54 0 55 0;
#X connect 54 0 56 0;
#X connect 54 0 57 0;
#X connect 54 0 58 0;
#X connect 54 0 60 0;
#X connect 54 0 61 0;
#X connect 54 0 79 0;
#X connect 54 0 85 0;
#X connect 54 0 95 0;
#X connect 54 0 102 0;
#X connect 54 0 107 0;
#X connect 55 0 8 0;
#X connect 56 0 10 0;
#X connect 57 0 33 0;
#X connect 58 0 18 0;
#X connect 60 0 4 0;
#X connect 61 0 48 0;
#X connect 62 0 32 0;
#X connect 62 0 30 0;
#X connect 62 0 29 0;
#X connect 62 0 28 0;
#X connect 62 0 27 0;
#X connect 62 0 26 0;
#X connect 62 0 25 0;
#X connect 62 0 63 0;
#X connect 62 0 70 0;
#X connect 62 0 72 0;
#X connect 62 0 78 0;
#X connect 62 0 84 0;
#X connect 62 0 94 0;
#X connect 62 0 101 0;
#X connect 62 0 106 0;
#X connect 62 1 45 0;
#X connect 62 1 32 0;
#X connect 62 1 30 0;
#X connect 62 1 29 0;
#X connect 62 1 28 0;
#X connect 62 1 27 0;
#X connect 62 1 26 0;
#X connect 62 1 25 0;
#X connect 62 1 70 0;
#X connect 62 1 78 0;
#X connect 62 1 84 0;
#X connect 62 1 94 0;
#X connect 62 1 96 0;
#X connect 62 1 101 0;
#X connect 62 1 106 0;
#X connect 63 0 18 0;
#X connect 65 0 67 0;
#X connect 67 0 68 0;
#X connect 67 0 69 0;
#X connect 70 0 65 0;
#X connect 71 0 65 0;
#X connect 72 0 48 0;
#X connect 73 0 75 0;
#X connect 75 0 76 0;
#X connect 75 0 77 0;
#X connect 78 0 73 0;
#X connect 79 0 73 0;
#X connect 80 0 82 0;
#X connect 80 0 83 0;
#X connect 84 0 80 0;
#X connect 85 0 80 0;
#X connect 86 0 62 0;
#X connect 87 0 62 0;
#X connect 91 0 92 0;
#X connect 91 0 93 0;
#X connect 94 0 91 0;
#X connect 95 0 91 0;
#X connect 96 0 48 0;
#X connect 97 0 100 0;
#X connect 97 0 99 0;
#X connect 101 0 97 0;
#X connect 102 0 97 0;
#X connect 103 0 104 0;
#X connect 103 0 105 0;
#X connect 106 0 103 0;
#X connect 107 0 103 0;
