#N canvas 2054 368 1151 897 12;
#X obj 474 575 adsr, f 16;
#X obj 365 625 *~;
#X obj 431 87 inlet;
#X text 429 62 vel;
#X obj 520 87 inlet;
#X text 700 66 attack;
#X obj 702 92 inlet;
#X text 776 67 delay;
#X text 850 66 sustain;
#X text 932 66 release;
#X obj 777 93 inlet;
#X obj 853 94 inlet;
#X obj 941 94 inlet;
#X obj 328 87 inlet~;
#X obj 363 718 outlet~;
#X floatatom 710 121 5 0 0 0 - - - 0;
#X floatatom 785 120 5 0 0 0 - - - 0;
#X floatatom 854 121 5 0 0 0 - - - 0;
#X floatatom 941 123 5 0 0 0 - - - 0;
#X obj 265 337 t f b;
#X msg 482 520 1;
#X floatatom 568 124 5 0 0 0 - - - 0;
#X obj 385 673 *~;
#X text 313 59 freq modulation;
#X text 252 65 freq;
#X text 514 62 volume;
#X floatatom 453 119 5 0 0 0 - - - 0;
#N canvas 2234 340 833 753 phase-mod-with-feedback 1;
#X obj 288 284 phasor~;
#X obj 368 397 +~;
#X obj 279 521 cos~;
#X obj 617 461 table \$0-feedback 100;
#X obj 345 608 tabsend~ \$0-feedback;
#X obj 568 234 tabreceive~ \$0-feedback;
#X obj 455 58 inlet;
#X text 455 31 feedback;
#X text 260 35 freq, f 5;
#X text 325 32 freq modulation;
#X obj 348 63 inlet~;
#X obj 299 680 outlet~;
#X obj 500 370 *~;
#X obj 135 202 block~ 4;
#X obj 256 63 inlet~;
#X obj 449 116 expr 3.1419 * 16 * pow(2 \, ($f1 * 111 - 135) / 16) / 35.55;
#X connect 0 0 1 0;
#X connect 1 0 2 0;
#X connect 2 0 4 0;
#X connect 2 0 11 0;
#X connect 5 0 12 0;
#X connect 6 0 15 0;
#X connect 10 0 1 1;
#X connect 12 0 1 1;
#X connect 14 0 0 0;
#X connect 15 0 12 1;
#X restore 410 407 pd phase-mod-with-feedback;
#X obj 621 88 inlet;
#X text 616 66 feedback;
#X floatatom 630 122 5 0 0 0 - - - 0;
#X obj 1012 93 inlet;
#X floatatom 1028 125 5 0 0 0 - - - 0;
#X text 1014 67 env-amount;
#X text 647 587 env-amount;
#X obj 517 657 bng 20 250 50 0 empty empty empty 0 -10 0 12 #fcfcfc #000000 #000000;
#X obj 517 707 snapshot~;
#X floatatom 517 732 5 0 0 0 - - - 0;
#X obj 517 682 metro 10;
#X obj 464 608 expr~ if($f2 > 0 \, $v1 * $f2 + (1 - $f2) \, 1 - ($v1 * -$f2)), f 69;
#X obj 258 91 inlet~;
#X connect 0 0 39 0;
#X connect 1 0 22 0;
#X connect 2 0 19 0;
#X connect 2 0 26 0;
#X connect 4 0 21 0;
#X connect 4 0 22 1;
#X connect 6 0 0 2;
#X connect 6 0 15 0;
#X connect 10 0 0 3;
#X connect 10 0 16 0;
#X connect 11 0 0 4;
#X connect 11 0 17 0;
#X connect 12 0 0 5;
#X connect 12 0 18 0;
#X connect 13 0 27 1;
#X connect 19 0 0 0;
#X connect 19 1 20 0;
#X connect 20 0 0 1;
#X connect 22 0 14 0;
#X connect 27 0 1 0;
#X connect 28 0 27 2;
#X connect 28 0 30 0;
#X connect 31 0 32 0;
#X connect 31 0 39 1;
#X connect 35 0 38 0;
#X connect 36 0 37 0;
#X connect 38 0 36 0;
#X connect 39 0 1 1;
#X connect 39 0 36 0;
#X connect 40 0 27 0;
