#N canvas 2444 410 1301 762 12;
#X obj 244 527 fm-operator-base, f 35;
#X obj 236 696 outlet~;
#X obj 147 199 t f f;
#X obj 136 120 inlet;
#X obj 206 116 inlet~;
#X obj 57 118 inlet;
#X text 52 88 freq;
#X text 130 97 vel;
#X text 204 89 freq-modulation;
#X obj 37 330 r \$2freq_multiplier-\$1;
#X obj 80 358 r \$2freq_divider-\$1;
#X obj 602 400 r \$2attack-\$1;
#X obj 644 429 r \$2decay-\$1;
#X obj 668 452 r \$2sustain-\$1;
#X obj 705 478 r \$2release-\$1;
#X obj 816 218 r \$2is_velocity_sensitive-\$1;
#X obj 544 228 r \$2volume-\$1;
#N canvas 2362 256 1356 907 volume-velocity-modifier 1;
#X obj 101 30 inlet;
#X obj 275 34 inlet;
#X text 106 5 vel;
#X text 255 4 is-velocity-sensitive;
#X obj 174 30 inlet;
#X obj 272 267 sel 0 1;
#X obj 332 375 float;
#X msg 273 323 1;
#X obj 168 112 tgl 20 0 empty empty empty 0 -10 0 12 #fcfcfc #000000 #000000 0 1;
#X obj 267 223 float 0;
#X obj 356 303 float, f 8;
#X obj 363 339 / 127;
#X obj 335 158 t b b f;
#X obj 277 585 outlet;
#X text 171 5 volume;
#X obj 271 113 sel 0;
#X text 339 112 when 0 \, don't change the multplier \, to allow release to happen normally, f 74;
#N canvas 198 257 450 494 either-* 0;
#X obj 94 97 inlet;
#X obj 215 98 inlet;
#X obj 94 154 float;
#X obj 216 154 float;
#X obj 127 243 *;
#X obj 214 189 t b f;
#X obj 124 312 outlet;
#X connect 0 0 2 0;
#X connect 1 0 3 0;
#X connect 2 0 4 0;
#X connect 3 0 5 0;
#X connect 4 0 6 0;
#X connect 5 0 2 0;
#X connect 5 1 4 1;
#X restore 270 498 pd either-*;
#X obj 233 367 * 100;
#X obj 233 392 dbtorms;
#X connect 0 0 15 0;
#X connect 1 0 8 0;
#X connect 4 0 18 0;
#X connect 5 0 7 0;
#X connect 5 1 10 0;
#X connect 6 0 17 1;
#X connect 7 0 6 0;
#X connect 8 0 9 1;
#X connect 9 0 5 0;
#X connect 10 0 11 0;
#X connect 11 0 6 0;
#X connect 12 0 9 0;
#X connect 12 2 10 1;
#X connect 15 1 12 0;
#X connect 17 0 13 0;
#X connect 18 0 19 0;
#X connect 19 0 17 0;
#X restore 537 289 pd volume-velocity-modifier;
#X obj 241 639 *~;
#X obj 600 330 r \$2feedback-\$1;
#X obj 422 681 throw~ \$2output-\$1;
#X obj 599 363 expr (pow(2 \, $f1 * 3.459) - 1) / 10;
#X floatatom 789 388 5 0 0 0 - - - 0;
#X obj 708 504 r \$2env_amount-\$1;
#X floatatom 945 527 5 0 0 0 - - - 0;
#X obj 961 557 r \$2key_scaling-\$1;
#X floatatom 969 590 5 0 0 0 - - - 0;
#N canvas 2764 429 1485 894 freq_calculator 0;
#X obj 265 88 inlet;
#X text 265 62 freq-multiplier;
#X text 427 61 freq-divider;
#X floatatom 311 89 5 0 0 0 - - - 0;
#X obj 31 91 inlet;
#X text 25 65 freq;
#X floatatom 487 93 5 0 0 0 - - - 0;
#X floatatom 72 121 5 0 0 0 - - - 0;
#X obj 31 234 sig~;
#X obj 270 560 outlet~;
#X obj 750 93 inlet fine_tune;
#X text 749 68 fine-tuning;
#X floatatom 796 136 5 0 0 0 - - - 0;
#X obj 763 185 expr exp($f1/1200 * log(2));
#X obj 304 400 *~;
#X obj 756 151 * 10;
#N canvas 2813 233 450 300 multiplier-rounder 0;
#X obj 212 218 + 0.499999;
#X obj 214 288 int;
#X obj 208 172 * 8;
#X obj 214 330 / 8;
#X obj 214 372 outlet;
#X obj 204 132 inlet;
#X connect 0 0 1 0;
#X connect 1 0 3 0;
#X connect 2 0 0 0;
#X connect 3 0 4 0;
#X connect 5 0 2 0;
#X restore 238 112 pd multiplier-rounder;
#N canvas 2813 233 450 300 multiplier-rounder 0;
#X obj 212 218 + 0.499999;
#X obj 214 288 int;
#X obj 208 172 * 8;
#X obj 214 330 / 8;
#X obj 214 372 outlet;
#X obj 204 132 inlet;
#X connect 0 0 1 0;
#X connect 1 0 3 0;
#X connect 2 0 0 0;
#X connect 3 0 4 0;
#X connect 5 0 2 0;
#X restore 425 117 pd multiplier-rounder;
#X obj 437 91 inlet;
#X obj 970 89 inlet detune;
#X obj 299 473 +~;
#X obj 588 95 inlet;
#X text 568 68 freq_ratio_adjust;
#X obj 280 152 sig~;
#X obj 320 219 /~;
#X obj 332 271 +~;
#X obj 267 342 *~;
#X floatatom 634 95 5 0 0 0 - - - 0;
#X obj 592 125 / 100;
#X connect 0 0 3 0;
#X connect 0 0 16 0;
#X connect 4 0 7 0;
#X connect 4 0 8 0;
#X connect 8 0 26 0;
#X connect 10 0 12 0;
#X connect 10 0 15 0;
#X connect 13 0 14 1;
#X connect 14 0 20 0;
#X connect 15 0 13 0;
#X connect 16 0 23 0;
#X connect 17 0 24 1;
#X connect 18 0 6 0;
#X connect 18 0 17 0;
#X connect 19 0 20 1;
#X connect 20 0 9 0;
#X connect 21 0 27 0;
#X connect 21 0 28 0;
#X connect 23 0 24 0;
#X connect 24 0 25 0;
#X connect 25 0 26 1;
#X connect 26 0 14 0;
#X connect 28 0 25 1;
#X restore 40 423 pd freq_calculator;
#N canvas 505 391 1207 740 mod_depth_processing 0;
#X obj 177 322 sig~;
#X obj 176 366 lop~ 10;
#X floatatom 200 277 5 0 0 0 - - - 0;
#X obj 170 475 outlet~;
#X obj 158 97 inlet mod_depth;
#X obj 186 423 *~;
#X obj 674 98 inlet freq;
#X obj 664 351 + 1;
#X obj 669 312 *;
#X obj 655 199 ftom;
#X obj 659 395 clip 0 1;
#X text 833 365 -1/127 is enough for the whole midi range to go from 0 to 1 However \, the user might want more scaling than that., f 36;
#X obj 752 232 expr $f1 * -1/127 * 2;
#X obj 912 106 inlet key_scaling;
#X floatatom 668 444 5 0 0 0 - - - 0;
#X floatatom 925 152 5 0 0 0 - - - 0;
#X obj 541 424 sig~;
#X obj 651 264 float;
#X obj 733 263 t b f;
#X obj 160 200 expr 8 * 3.1419 * pow(2 \, ($f1 * 127 - 135) / 8);
#X text 155 176 CX-5 https://www.angelfire.com/in2/yala/t2dx-fm.htm;
#X text 200 259 mod index;
#X connect 0 0 1 0;
#X connect 1 0 5 0;
#X connect 4 0 19 0;
#X connect 5 0 3 0;
#X connect 6 0 9 0;
#X connect 7 0 10 0;
#X connect 8 0 7 0;
#X connect 9 0 17 0;
#X connect 10 0 14 0;
#X connect 10 0 16 0;
#X connect 12 0 18 0;
#X connect 13 0 12 0;
#X connect 13 0 15 0;
#X connect 16 0 5 1;
#X connect 17 0 8 0;
#X connect 18 0 17 0;
#X connect 18 1 8 1;
#X connect 19 0 0 0;
#X restore 767 592 pd mod_depth_processing;
#X obj 940 485 r \$2mod_depth-\$1;
#X obj 49 236 t f f;
#X obj 287 376 r \$2fine_tune-\$1;
#X obj 767 650 bng 20 250 50 0 empty empty empty 0 -10 0 12 #fcfcfc #000000 #000000;
#X obj 767 675 metro 100;
#X obj 767 700 snapshot~;
#X floatatom 767 725 5 0 0 0 - - - 0;
#X obj 339 401 r \$2detune-\$1;
#X obj 100 381 r \$2freq_ratio_adjust-\$1;
#X obj 19 302 r transpose-\$1;
#X obj 60 144 ftom;
#X obj 61 170 +;
#X obj 61 195 mtof;
#X obj 96 171 r transpose-\$1;
#X connect 0 0 18 0;
#X connect 2 0 0 2;
#X connect 2 1 17 0;
#X connect 3 0 2 0;
#X connect 4 0 0 1;
#X connect 5 0 39 0;
#X connect 9 0 27 1;
#X connect 10 0 27 2;
#X connect 11 0 0 5;
#X connect 12 0 0 6;
#X connect 13 0 0 7;
#X connect 14 0 0 8;
#X connect 15 0 17 2;
#X connect 16 0 17 1;
#X connect 17 0 0 3;
#X connect 18 0 1 0;
#X connect 18 0 20 0;
#X connect 19 0 21 0;
#X connect 21 0 0 4;
#X connect 21 0 22 0;
#X connect 23 0 0 9;
#X connect 25 0 28 2;
#X connect 25 0 26 0;
#X connect 27 0 0 0;
#X connect 28 0 18 1;
#X connect 28 0 34 0;
#X connect 29 0 24 0;
#X connect 29 0 28 0;
#X connect 30 0 27 0;
#X connect 30 1 28 1;
#X connect 31 0 27 4;
#X connect 32 0 33 0;
#X connect 33 0 34 0;
#X connect 34 0 35 0;
#X connect 36 0 27 5;
#X connect 37 0 27 3;
#X connect 39 0 40 0;
#X connect 40 0 41 0;
#X connect 41 0 30 0;
#X connect 42 0 40 1;
