#N canvas 2321 234 1501 941 12;
#X obj 267 191 poly 3 1;
#X obj 264 261 route 1 2 3;
#X obj 265 225 pack f f f;
#X obj 260 85 inlet;
#X obj 160 337 fm-synth-mono \$1;
#X obj 284 336 fm-synth-mono \$1;
#X obj 411 335 fm-synth-mono \$1;
#X obj 426 446 r global_volume-\$1;
#X obj 423 476 * 100;
#X obj 423 501 dbtorms;
#X obj 277 591 *~ 1;
#X obj 276 654 outlet~;
#X connect 0 0 2 0;
#X connect 0 1 2 1;
#X connect 0 2 2 2;
#X connect 1 0 4 0;
#X connect 1 1 5 0;
#X connect 1 2 6 0;
#X connect 2 0 1 0;
#X connect 3 0 0 0;
#X connect 4 0 10 0;
#X connect 5 0 10 0;
#X connect 6 0 10 0;
#X connect 7 0 8 0;
#X connect 8 0 9 0;
#X connect 9 0 10 1;
#X connect 10 0 11 0;
