#N canvas 2446 368 1501 941 12;
#X obj 146 81 mtof;
#X obj 152 20 inlet;
#X obj 152 45 unpack;
#X obj 304 498 outlet~;
#X obj 318 244 fm-operator-dyn-r \$1 l1m1_ 1;
#X obj 347 361 fm-operator-dyn-r \$1 l1c_;
#X obj 554 244 fm-operator-dyn-r \$1 l2m1_ 1;
#X obj 583 361 fm-operator-dyn-r \$1 l2c_;
#X obj 782 243 fm-operator-dyn-r \$1 l3m1_ 1;
#X obj 811 360 fm-operator-dyn-r \$1 l3c_;
#X obj 519 191 r \$0-freq;
#X obj 605 191 r \$0-vel;
#X obj 532 305 r \$0-freq;
#X obj 618 305 r \$0-vel;
#X obj 523 84 r \$0-freq;
#X obj 609 84 r \$0-vel;
#X obj 558 137 fm-operator-dyn-r \$1 l2m2_ 1;
#X obj 786 136 fm-operator-dyn-r \$1 l3m2_ 1;
#X obj 119 154 s \$0-freq;
#X obj 206 154 s \$0-vel;
#X obj 322 137 fm-operator-dyn-r \$1 l1m2_;
#X connect 0 0 18 0;
#X connect 1 0 2 0;
#X connect 2 0 0 0;
#X connect 2 1 19 0;
#X connect 4 0 5 2;
#X connect 5 0 3 0;
#X connect 6 0 7 2;
#X connect 7 0 3 0;
#X connect 8 0 9 2;
#X connect 9 0 3 0;
#X connect 10 0 4 0;
#X connect 10 0 8 0;
#X connect 10 0 6 0;
#X connect 11 0 4 1;
#X connect 11 0 8 1;
#X connect 11 0 6 1;
#X connect 12 0 5 0;
#X connect 12 0 9 0;
#X connect 12 0 7 0;
#X connect 13 0 5 1;
#X connect 13 0 9 1;
#X connect 13 0 7 1;
#X connect 14 0 16 0;
#X connect 14 0 17 0;
#X connect 14 0 20 0;
#X connect 15 0 16 1;
#X connect 15 0 17 1;
#X connect 15 0 20 1;
#X connect 16 0 6 2;
#X connect 17 0 8 2;
#X connect 20 0 4 2;
