#N canvas 2024 191 1308 912 12;
#X obj 197 149 notein;
#X obj 200 188 pack;
#X obj 141 509 output~;
#X text 943 253 Default;
#X obj 765 52 loadbang;
#X text 720 23 For PC only;
#X obj 709 54 bng 20 250 50 0 empty empty empty 0 -10 0 12 #fcfcfc #000000 #000000;
#X obj 210 329 fm-synth-poly a1;
#X obj 781 98 s loadbang-a1;
#X obj 946 271 fm-operator-controls a1 l1m1_;
#X obj 964 447 fm-operator-controls a1 l1c_;
#X obj 439 487 metro 100;
#X obj 439 512 tabwrite~ array1;
#X obj 439 459 bng 20 250 50 0 empty empty empty 0 -10 0 12 #fcfcfc #000000 #000000;
#N canvas 0 50 450 250 (subpatch) 0;
#X array array1 100 float 4;
#X coords 0 1 99 -1 200 140 1 0 0;
#X restore 412 570 graph;
#X obj 949 377 fm-operator-controls a1 l3m1_;
#X obj 966 508 fm-operator-controls a1 l3c_;
#X obj 949 327 fm-operator-controls a1 l2m1_;
#X obj 967 481 fm-operator-controls a1 l2c_;
#X msg 762 321 modulator;
#X msg 806 470 carrier 0;
#X msg 798 426 carrier 1;
#X obj 695 339 bng 20 250 50 0 empty empty empty 0 -10 0 12 #fcfcfc #000000 #000000;
#X obj 976 650 metro 100;
#X obj 976 622 bng 20 250 50 0 empty empty empty 0 -10 0 12 #fcfcfc #000000 #000000;
#N canvas 0 50 450 250 (subpatch) 0;
#X array array2 100 float 4;
#X coords 0 1 99 -1 200 140 1 0 0;
#X restore 949 733 graph;
#X obj 976 675 tabwrite~ array2;
#X obj 949 299 fm-operator-controls a1 l1m2_;
#X obj 948 353 fm-operator-controls a1 l2m2_;
#X obj 952 401 fm-operator-controls a1 l3m2_;
#X obj 760 629 catch~ l1m2_output-a1;
#X listbox 241 224 20 0 0 0 - - - 0;
#X connect 0 0 1 0;
#X connect 0 1 1 1;
#X connect 1 0 7 0;
#X connect 1 0 31 0;
#X connect 4 0 8 0;
#X connect 6 0 8 0;
#X connect 7 0 2 0;
#X connect 7 0 2 1;
#X connect 7 0 12 0;
#X connect 11 0 12 0;
#X connect 13 0 11 0;
#X connect 19 0 9 0;
#X connect 19 0 17 0;
#X connect 19 0 15 0;
#X connect 19 0 29 0;
#X connect 19 0 27 0;
#X connect 19 0 28 0;
#X connect 20 0 18 0;
#X connect 20 0 16 0;
#X connect 21 0 10 0;
#X connect 22 0 21 0;
#X connect 22 0 20 0;
#X connect 22 0 19 0;
#X connect 23 0 26 0;
#X connect 24 0 23 0;
#X connect 30 0 26 0;
