#N canvas 1920 32 2560 1339 12;
#X obj 691 411 fm-operator-controls l1c-;
#X obj 464 247 loadbang;
#X obj 629 326 bng 20 250 50 0 empty empty empty 0 -10 0 12 #fcfcfc #000000 #000000;
#X text 673 292 Default;
#X obj 703 493 fm-operator-controls l1m1-;
#X obj 210 329 fm-synth-poly;
#X obj 470 293 symbol \$1;
#X obj 480 324 t b s;
#X obj 181 495 throw~ outL;
#X obj 283 490 throw~ outR;
#X obj 198 173 r notes;
#X connect 1 0 6 0;
#X connect 2 0 0 0;
#X connect 2 0 4 0;
#X connect 5 0 8 0;
#X connect 5 0 9 0;
#X connect 6 0 7 0;
#X connect 7 0 2 0;
#X connect 7 1 0 0;
#X connect 7 1 4 0;
#X connect 7 1 5 1;
#X connect 10 0 5 0;
