#N canvas 444 225 1308 912 12;
#X obj 304 186 r notesIn-\$1;
#X obj 304 491 s notesOut-\$1;
#X obj 25 186 inlet~ inL-\$1;
#X obj 135 186 inlet~ inR-\$1;
#X obj 27 491 outlet~ outL-\$1;
#X obj 150 490 outlet~ outR-\$1;
#X obj 536 187 r auxIn-\$1;
#X obj 535 210 r expIn-\$1;
#X obj 535 235 r fsIn-\$1;
#X obj 410 186 r ctrlIn-\$1;
#X obj 410 491 s ctrlOut-\$1;
#X obj 210 329 fm-synth-poly \$1;
#X obj 951 533 metro 100;
#X obj 951 505 bng 20 250 50 0 empty empty empty 0 -10 0 12 #fcfcfc #000000 #000000;
#N canvas 0 50 450 250 (subpatch) 0;
#X array array2 100 float 4;
#X coords 0 1 99 -1 200 140 1 0 0;
#X restore 924 616 graph;
#X obj 951 558 tabwrite~ array2;
#X obj 735 512 catch~ l1m2_output-a1;
#X text 938 144 Default;
#X obj 941 162 fm-operator-controls a1 l1m1_;
#X obj 959 338 fm-operator-controls a1 l1c_;
#X obj 944 268 fm-operator-controls a1 l3m1_;
#X obj 961 399 fm-operator-controls a1 l3c_;
#X obj 944 218 fm-operator-controls a1 l2m1_;
#X obj 962 372 fm-operator-controls a1 l2c_;
#X msg 757 212 modulator;
#X msg 801 361 carrier 0;
#X msg 793 317 carrier 1;
#X obj 690 230 bng 20 250 50 0 empty empty empty 0 -10 0 12 #fcfcfc #000000 #000000;
#X obj 944 190 fm-operator-controls a1 l1m2_;
#X obj 943 244 fm-operator-controls a1 l2m2_;
#X obj 947 292 fm-operator-controls a1 l3m2_;
#X connect 0 0 11 0;
#X connect 11 0 4 0;
#X connect 11 0 5 0;
#X connect 12 0 15 0;
#X connect 13 0 12 0;
#X connect 16 0 15 0;
#X connect 24 0 18 0;
#X connect 24 0 22 0;
#X connect 24 0 20 0;
#X connect 24 0 30 0;
#X connect 24 0 28 0;
#X connect 24 0 29 0;
#X connect 25 0 23 0;
#X connect 25 0 21 0;
#X connect 26 0 19 0;
#X connect 27 0 26 0;
#X connect 27 0 25 0;
#X connect 27 0 24 0;
