#N canvas 0 0 682 510 12;
#X obj 227 144 r \$2\$3-\$1;
#X obj 231 181 t b f;
#X obj 227 365 outlet;
#X obj 228 266 pack s f;
#X msg 231 325 \$1 \$2;
#X obj 342 135 v \$2\$3-\$1;
#X obj 235 75 inlet;
#X obj 176 224 symbol \$2\$3-a1;
#X connect 0 0 1 0;
#X connect 1 0 7 0;
#X connect 1 1 3 1;
#X connect 3 0 4 0;
#X connect 4 0 2 0;
#X connect 5 0 1 0;
#X connect 6 0 5 0;
#X connect 7 0 3 0;
