#N canvas 312 386 746 617 12;
#X obj 129 140 multimessager-per-operator \$1 l1c_;
#X obj 129 160 multimessager-per-operator \$1 l1m1_;
#X obj 129 180 multimessager-per-operator \$1 l1m2_;
#X obj 129 200 multimessager-per-operator \$1 l2c_;
#X obj 129 220 multimessager-per-operator \$1 l2m1_;
#X obj 129 240 multimessager-per-operator \$1 l2m2_;
#X obj 129 260 multimessager-per-operator \$1 l3c_;
#X obj 129 280 multimessager-per-operator \$1 l3m1_;
#X obj 129 300 multimessager-per-operator \$1 l3m2_;
#X obj 185 482 outlet;
#X obj 129 95 inlet;
#X obj 435 198 multimessager-global-param \$1 transpose;
#X obj 435 218 multimessager-global-param \$1 global_volume;
#X connect 0 0 9 0;
#X connect 1 0 9 0;
#X connect 2 0 9 0;
#X connect 3 0 9 0;
#X connect 4 0 9 0;
#X connect 5 0 9 0;
#X connect 6 0 9 0;
#X connect 7 0 9 0;
#X connect 8 0 9 0;
#X connect 10 0 0 0;
#X connect 10 0 8 0;
#X connect 10 0 7 0;
#X connect 10 0 6 0;
#X connect 10 0 5 0;
#X connect 10 0 4 0;
#X connect 10 0 3 0;
#X connect 10 0 2 0;
#X connect 10 0 1 0;
#X connect 10 0 11 0;
#X connect 10 0 12 0;
#X connect 11 0 9 0;
#X connect 12 0 9 0;
