#N canvas 1148 736 553 356 12;
#X obj 231 181 t b f;
#X obj 227 365 outlet;
#X obj 228 266 pack s f;
#X msg 231 325 \$1 \$2;
#X obj 235 75 inlet;
#X obj 342 135 v \$2-\$1;
#X obj 227 144 r \$2-\$1;
#X obj 176 223 symbol \$2-a1;
#X connect 0 0 7 0;
#X connect 0 1 2 1;
#X connect 2 0 3 0;
#X connect 3 0 1 0;
#X connect 4 0 5 0;
#X connect 5 0 0 0;
#X connect 6 0 0 0;
#X connect 7 0 2 0;
