#N canvas 442 441 1058 711 12;
#X obj 175 163 multimessager-per-param \$1 \$2 volume;
#X obj 175 183 multimessager-per-param \$1 \$2 mod_depth;
#X obj 175 203 multimessager-per-param \$1 \$2 freq_multiplier;
#X obj 175 223 multimessager-per-param \$1 \$2 freq_divider;
#X obj 175 243 multimessager-per-param \$1 \$2 fine_tune;
#X obj 175 263 multimessager-per-param \$1 \$2 is_velocity_sensitive;
#X obj 175 283 multimessager-per-param \$1 \$2 attack;
#X obj 175 303 multimessager-per-param \$1 \$2 decay;
#X obj 175 323 multimessager-per-param \$1 \$2 sustain;
#X obj 175 343 multimessager-per-param \$1 \$2 release;
#X obj 175 363 multimessager-per-param \$1 \$2 env_amount;
#X obj 175 383 multimessager-per-param \$1 \$2 feedback;
#X obj 175 403 multimessager-per-param \$1 \$2 key_scaling;
#X obj 186 97 inlet;
#X obj 186 130 b;
#X obj 175 423 multimessager-per-param \$1 \$2 detune;
#X obj 208 526 outlet;
#X obj 174 444 multimessager-per-param \$1 \$2 freq_ratio_adjust;
#X connect 0 0 16 0;
#X connect 1 0 16 0;
#X connect 2 0 16 0;
#X connect 3 0 16 0;
#X connect 4 0 16 0;
#X connect 5 0 16 0;
#X connect 6 0 16 0;
#X connect 7 0 16 0;
#X connect 8 0 16 0;
#X connect 9 0 16 0;
#X connect 10 0 16 0;
#X connect 11 0 16 0;
#X connect 12 0 16 0;
#X connect 13 0 14 0;
#X connect 14 0 0 0;
#X connect 14 0 12 0;
#X connect 14 0 11 0;
#X connect 14 0 10 0;
#X connect 14 0 9 0;
#X connect 14 0 8 0;
#X connect 14 0 7 0;
#X connect 14 0 6 0;
#X connect 14 0 5 0;
#X connect 14 0 4 0;
#X connect 14 0 3 0;
#X connect 14 0 2 0;
#X connect 14 0 1 0;
#X connect 14 0 15 0;
#X connect 14 0 17 0;
#X connect 15 0 16 0;
#X connect 17 0 16 0;
