#N canvas 462 107 1037 904 10;
#X obj 391 823 s oscOut;
#X obj 886 34 inlet trigger;
#X obj 742 150 f \$2;
#X obj 391 148 r cgSc-\$1-\$2label;
#X obj 886 64 s cgSc-\$1-\$2;
#X obj 742 252 * 11;
#X obj 742 178 t f f, f 15;
#X obj 829 256 i;
#X obj 829 234 / 5;
#X msg 873 325 66;
#X msg 842 325 2;
#X obj 829 205 - 1;
#X obj 742 364 - 0;
#X msg 757 341 0;
#X msg 910 337 55;
#X obj 829 279 sel 0 1, f 16;
#X obj 391 292 spigot 0;
#X obj 27 71 sel 0 1, f 32;
#X msg 160 127 1;
#X msg 27 92 0;
#X obj 95 304 r cgSc-\$1-hihghlight;
#X obj 95 385 sel \$2, f 24;
#X obj 236 415 t b;
#X obj 236 438 v \$0-vv;
#X obj 95 421 t b;
#X obj 95 444 v \$0-vv;
#X obj 95 465 sel 0;
#X obj 95 642 list, f 10;
#X msg 95 572 69;
#X obj 95 663 route 69;
#X obj 842 371 f;
#X obj 95 486 t b b;
#X obj 120 539 v \$0-vv;
#X msg 122 510 1;
#X obj 236 484 t b b;
#X obj 263 544 v \$0-vv;
#X msg 263 508 0;
#X obj 236 459 sel 1;
#X obj 869 414 - 1;
#X obj 245 316 v \$0-vv;
#X obj 245 337 sel 1;
#X obj 769 408 - 2;
#X obj 896 461 sel 1 65, f 14;
#X obj 869 435 t f f;
#X obj 841 517 pack 0 0 0;
#X msg 936 484 62;
#X msg 896 483 63;
#X msg 95 684 /oled/gInvertArea 3 \$2 \$1 \$3 10;
#X obj 27 206 s \$0-switch;
#X obj 437 271 r \$0-switch;
#X obj 245 365 spigot 0;
#X obj 291 344 r \$0-switch;
#X obj 121 100 t b b b;
#X obj 245 103 r cgSc-\$1-print!;
#X obj 245 124 t b b;
#X obj 95 609 spigot 0;
#X obj 140 588 r \$0-switch;
#X obj 27 50 r cgSc-\$1-mute-print;
#X obj 391 230 list, f 7;
#X msg 391 201 69;
#X obj 391 251 route 69;
#X obj 391 177 t b a;
#X obj 829 300 t b b;
#X obj 873 301 t b b;
#X obj 742 385 t a a;
#X obj 842 392 t f f;
#X obj 631 124 t b b, f 19;
#X obj 494 467 list prepend 0;
#X obj 391 678 list prepend /oled/gPrintln 3;
#X obj 391 703 list trim;
#X obj 391 320 t b a a b, f 36;
#X obj 631 399 spigot 0;
#X msg 604 369 1;
#X obj 604 346 t b b;
#X obj 631 434 s \$0-erase;
#X obj 494 363 r \$0-erase;
#X obj 494 419 list, f 7;
#X msg 494 390 69;
#X obj 494 440 route 69;
#X obj 391 390 list, f 7;
#X msg 391 361 69;
#X obj 391 411 route 69;
#X obj 391 468 list prepend 1;
#X obj 841 538 s \$0-fill-invert;
#X obj 152 614 r \$0-fill-invert;
#X obj 391 511 list prepend 8;
#X obj 391 582 list prepend, f 19;
#X obj 391 634 list prepend, f 28;
#X text 517 579 ypos;
#X text 568 631 xpos;
#X obj 631 103 r loadbang-\$1;
#X connect 1 0 4 0;
#X connect 2 0 6 0;
#X connect 3 0 61 0;
#X connect 5 0 12 0;
#X connect 6 0 5 0;
#X connect 6 1 11 0;
#X connect 7 0 15 0;
#X connect 8 0 7 0;
#X connect 9 0 30 0;
#X connect 10 0 30 0;
#X connect 11 0 8 0;
#X connect 12 0 64 0;
#X connect 13 0 12 1;
#X connect 14 0 12 1;
#X connect 15 0 62 0;
#X connect 15 1 63 0;
#X connect 16 0 70 0;
#X connect 17 0 19 0;
#X connect 17 1 52 0;
#X connect 18 0 48 0;
#X connect 19 0 48 0;
#X connect 20 0 21 0;
#X connect 21 0 24 0;
#X connect 21 1 22 0;
#X connect 22 0 23 0;
#X connect 23 0 37 0;
#X connect 24 0 25 0;
#X connect 25 0 26 0;
#X connect 26 0 31 0;
#X connect 27 0 29 0;
#X connect 28 0 55 0;
#X connect 29 0 47 0;
#X connect 30 0 65 0;
#X connect 31 0 28 0;
#X connect 31 1 33 0;
#X connect 33 0 32 0;
#X connect 34 0 28 0;
#X connect 34 1 36 0;
#X connect 36 0 35 0;
#X connect 37 0 34 0;
#X connect 38 0 43 0;
#X connect 39 0 40 0;
#X connect 40 0 50 0;
#X connect 41 0 44 0;
#X connect 42 0 46 0;
#X connect 42 1 45 0;
#X connect 43 0 44 1;
#X connect 43 1 42 0;
#X connect 44 0 83 0;
#X connect 45 0 44 2;
#X connect 46 0 44 2;
#X connect 47 0 0 0;
#X connect 49 0 16 1;
#X connect 50 0 28 0;
#X connect 51 0 50 1;
#X connect 52 0 39 0;
#X connect 52 1 59 0;
#X connect 52 2 18 0;
#X connect 53 0 54 0;
#X connect 54 0 39 0;
#X connect 54 1 59 0;
#X connect 55 0 27 0;
#X connect 56 0 55 1;
#X connect 57 0 17 0;
#X connect 58 0 60 0;
#X connect 59 0 58 0;
#X connect 60 0 16 0;
#X connect 61 0 59 0;
#X connect 61 1 58 1;
#X connect 62 0 13 0;
#X connect 62 1 10 0;
#X connect 63 0 9 0;
#X connect 63 1 14 0;
#X connect 64 0 86 1;
#X connect 64 1 41 0;
#X connect 65 0 87 1;
#X connect 65 1 38 0;
#X connect 66 0 36 0;
#X connect 66 1 2 0;
#X connect 67 0 85 0;
#X connect 68 0 69 0;
#X connect 69 0 0 0;
#X connect 70 0 80 0;
#X connect 70 1 79 1;
#X connect 70 2 76 1;
#X connect 70 3 73 0;
#X connect 71 0 74 0;
#X connect 72 0 71 1;
#X connect 73 0 72 0;
#X connect 73 1 71 0;
#X connect 75 0 77 0;
#X connect 76 0 78 0;
#X connect 77 0 76 0;
#X connect 78 0 67 0;
#X connect 79 0 81 0;
#X connect 80 0 79 0;
#X connect 81 0 82 0;
#X connect 82 0 85 0;
#X connect 84 0 27 1;
#X connect 85 0 86 0;
#X connect 86 0 87 0;
#X connect 87 0 68 0;
#X connect 90 0 66 0;
