#N canvas 1423 354 493 643 10;
#X obj 87 75 t b b;
#X obj 116 178 + 1;
#X obj 116 160 f 0;
#X obj 89 142 t a b;
#X msg 417 103 0;
#X obj 116 196 nbx 5 14 -1e+37 1e+37 0 0 empty empty empty 0 -8 0 10
-262144 -1 -1 4 256;
#X obj 89 285 list append;
#X obj 89 303 list;
#X obj 68 321 list;
#X obj 13 240 * 1;
#X obj 13 212 inlet;
#X obj 13 258 int;
#X obj 13 276 change;
#X obj 13 294 t b f;
#X obj 102 447 list split 1;
#X obj 68 429 list split 0;
#X msg 102 475 \$1;
#X obj 102 493 outlet;
#X obj 154 475 s2l /;
#X obj 181 511 list length;
#X obj 154 493 t a a;
#X obj 181 529 - 1;
#X obj 154 557 list split;
#X msg 182 575 \$1;
#X obj 182 593 outlet;
#X obj 89 124 folder_list;
#X obj 116 212 - 0.05;
#X obj 87 47 inlet;
#N canvas 105 401 1477 570 source 1;
#X obj 16 10 inlet;
#X obj 240 415 spigot;
#X obj 273 398 tgl 15 0 empty empty empty 17 7 0 10 -262144 -1 -1 1
1;
#X obj 678 528 outlet;
#X msg 273 370 1;
#X msg 300 370 0;
#X obj 1116 415 spigot;
#X obj 1150 398 tgl 15 0 empty empty empty 17 7 0 10 -262144 -1 -1
0 1;
#X msg 1150 368 1;
#X msg 1177 368 0;
#X obj 516 10 inlet;
#X floatatom 1116 398 5 0 0 0 - - -;
#X obj 444 415 spigot;
#X obj 477 398 tgl 15 0 empty empty empty 17 7 0 10 -262144 -1 -1 0
1;
#X msg 477 370 1;
#X msg 504 370 0;
#X msg 1121 433 /media/samples/kit-\$1;
#X obj 678 415 spigot;
#X obj 711 398 tgl 15 0 empty empty empty 17 7 0 10 -262144 -1 -1 0
1;
#X msg 711 373 1;
#X msg 738 373 0;
#X obj 918 415 spigot;
#X obj 951 398 tgl 15 0 empty empty empty 17 7 0 10 -262144 -1 -1 0
1;
#X msg 951 372 1;
#X msg 978 372 0;
#X msg 449 433 /media/samples/loops;
#X msg 683 433 /media/samples/synths;
#X msg 245 433 /media/captures;
#X msg 923 433 /media/samples;
#X msg 240 479 symbol /tmp/media/captures/*.wav;
#X msg 444 479 symbol /tmp/media/samples/loops/*.wav;
#X msg 678 479 symbol /tmp/media/samples/synths/*.wav;
#X msg 918 479 symbol /tmp/media/samples/*.wav;
#X msg 1116 479 symbol /tmp/media/samples/kit-\$1/*.wav;
#X obj 16 28 t b b b b b b;
#X obj 4 415 spigot;
#X obj 37 398 tgl 15 0 empty empty empty 17 7 0 10 -262144 -1 -1 0
1;
#X msg 37 370 1;
#X msg 64 370 0;
#X obj 516 68 sel -1 0 25 26 27, f 18;
#X msg 9 433 /media/oracloops;
#X msg 4 479 symbol /tmp/media/oracloops/*.wav;
#X obj 941 524 outlet;
#X obj 81 202 bng 15 250 50 0 empty empty empty 17 7 0 10 -262144 -1
-1;
#X connect 0 0 34 0;
#X connect 1 0 29 0;
#X connect 1 0 27 0;
#X connect 2 0 1 1;
#X connect 4 0 2 0;
#X connect 5 0 2 0;
#X connect 6 0 33 0;
#X connect 6 0 16 0;
#X connect 7 0 6 1;
#X connect 8 0 7 0;
#X connect 9 0 7 0;
#X connect 10 0 11 0;
#X connect 10 0 39 0;
#X connect 11 0 6 0;
#X connect 12 0 30 0;
#X connect 12 0 25 0;
#X connect 13 0 12 1;
#X connect 14 0 13 0;
#X connect 15 0 13 0;
#X connect 16 0 42 0;
#X connect 17 0 31 0;
#X connect 17 0 26 0;
#X connect 18 0 17 1;
#X connect 19 0 18 0;
#X connect 20 0 18 0;
#X connect 21 0 32 0;
#X connect 21 0 28 0;
#X connect 22 0 21 1;
#X connect 23 0 22 0;
#X connect 24 0 22 0;
#X connect 25 0 42 0;
#X connect 26 0 42 0;
#X connect 27 0 42 0;
#X connect 28 0 42 0;
#X connect 29 0 3 0;
#X connect 30 0 3 0;
#X connect 31 0 3 0;
#X connect 32 0 3 0;
#X connect 33 0 3 0;
#X connect 34 0 35 0;
#X connect 34 0 43 0;
#X connect 34 1 1 0;
#X connect 34 2 12 0;
#X connect 34 3 17 0;
#X connect 34 4 21 0;
#X connect 34 5 11 0;
#X connect 35 0 41 0;
#X connect 35 0 40 0;
#X connect 36 0 35 1;
#X connect 37 0 36 0;
#X connect 38 0 36 0;
#X connect 39 0 37 0;
#X connect 39 0 5 0;
#X connect 39 0 9 0;
#X connect 39 0 24 0;
#X connect 39 0 20 0;
#X connect 39 0 15 0;
#X connect 39 1 4 0;
#X connect 39 1 15 0;
#X connect 39 1 9 0;
#X connect 39 1 24 0;
#X connect 39 1 20 0;
#X connect 39 1 38 0;
#X connect 39 2 14 0;
#X connect 39 2 20 0;
#X connect 39 2 9 0;
#X connect 39 2 24 0;
#X connect 39 2 38 0;
#X connect 39 2 5 0;
#X connect 39 3 19 0;
#X connect 39 3 15 0;
#X connect 39 3 9 0;
#X connect 39 3 24 0;
#X connect 39 3 38 0;
#X connect 39 3 5 0;
#X connect 39 4 23 0;
#X connect 39 4 15 0;
#X connect 39 4 9 0;
#X connect 39 4 38 0;
#X connect 39 4 5 0;
#X connect 39 4 20 0;
#X connect 39 5 8 0;
#X connect 39 5 15 0;
#X connect 39 5 38 0;
#X connect 39 5 5 0;
#X connect 39 5 20 0;
#X connect 39 5 24 0;
#X connect 40 0 42 0;
#X connect 41 0 3 0;
#X restore 140 100 pd source;
#X obj 191 66 inlet;
#X obj 228 99 outlet;
#X obj 27 130 bng 15 250 50 0 empty empty empty 17 7 0 10 -262144 -1
-1;
#X obj 156 42 bng 15 250 50 0 empty empty empty 17 7 0 10 -262144 -1
-1;
#X obj 191 47 r soundshare_refresh;
#X connect 0 0 28 0;
#X connect 0 1 4 0;
#X connect 1 0 2 1;
#X connect 1 0 5 0;
#X connect 2 0 1 0;
#X connect 3 0 6 0;
#X connect 3 1 2 0;
#X connect 4 0 2 1;
#X connect 5 0 26 0;
#X connect 6 0 7 0;
#X connect 7 0 6 1;
#X connect 7 0 8 1;
#X connect 8 0 15 0;
#X connect 9 0 11 0;
#X connect 10 0 9 0;
#X connect 11 0 12 0;
#X connect 12 0 13 0;
#X connect 13 0 8 0;
#X connect 13 1 15 1;
#X connect 14 0 16 0;
#X connect 14 0 18 0;
#X connect 15 1 14 0;
#X connect 16 0 17 0;
#X connect 18 0 20 0;
#X connect 19 0 21 0;
#X connect 20 0 22 0;
#X connect 20 1 19 0;
#X connect 21 0 22 1;
#X connect 22 1 23 0;
#X connect 23 0 24 0;
#X connect 25 0 3 0;
#X connect 26 0 9 1;
#X connect 27 0 0 0;
#X connect 27 0 31 0;
#X connect 28 0 25 0;
#X connect 28 1 30 0;
#X connect 29 0 28 1;
#X connect 32 0 0 0;
#X connect 33 0 0 0;
