#N canvas 69 169 1358 659 10;
#X obj 304 186 r notesIn-\$1;
#X obj 304 671 s notesOut-\$1;
#X obj 38 179 inlet~ inL-\$1;
#X obj 135 186 inlet~ inR-\$1;
#X obj 27 671 outlet~ outL-\$1;
#X obj 136 671 outlet~ outR-\$1;
#X obj 426 188 r auxIn-\$1;
#X obj 423 208 r expIn-\$1;
#X obj 427 230 r fsIn-\$1;
#X obj 422 289 r loadbang-\$1;
#X obj 422 372 s thru_gain-\$1;
#X msg 422 351 0;
#X obj 422 331 bng 15 250 50 0 empty empty empty 17 7 0 10 -262144
-1 -1;
#X obj 76 519 dattorro~;
#X obj 172 279 r wet-\$1;
#X obj 255 257 r diff-\$1;
#X obj 328 413 r decay-\$1;
#X obj 418 532 r damp-\$1;
#X obj 449 416 r bandwidth-\$1;
#X obj 157 230 r predelay-\$1;
#X msg 170 327 wet \$1;
#X msg 253 402 diff \$1;
#X msg 328 517 decay \$1;
#X msg 417 614 damp \$1;
#X msg 448 509 bandwidth \$1;
#X msg 157 251 predelay \$1;
#X obj 172 300 / 100;
#X obj 255 278 / 100;
#X obj 328 434 / 100;
#X obj 449 437 / 100;
#X obj 418 553 / 100;
#X obj 422 310 delay 30;
#X floatatom 255 299 5 0 0 0 - - -;
#X obj 255 319 * 80;
#X floatatom 255 340 5 0 0 0 - - -;
#X obj 255 360 / 100;
#X floatatom 255 381 5 0 0 0 - - -;
#X obj 328 455 * 70;
#X obj 328 476 / 100;
#X floatatom 328 497 5 0 0 0 - - -;
#X obj 418 574 * 65;
#X obj 418 595 / 100;
#X msg 488 348 100;
#X obj 44 552 hip~ 5;
#X obj 125 550 hip~ 5;
#X connect 2 0 13 0;
#X connect 3 0 13 1;
#X connect 9 0 31 0;
#X connect 11 0 10 0;
#X connect 12 0 11 0;
#X connect 13 0 43 0;
#X connect 13 1 44 0;
#X connect 14 0 26 0;
#X connect 15 0 27 0;
#X connect 16 0 28 0;
#X connect 17 0 30 0;
#X connect 18 0 29 0;
#X connect 19 0 25 0;
#X connect 20 0 13 0;
#X connect 21 0 13 0;
#X connect 22 0 13 0;
#X connect 23 0 13 0;
#X connect 24 0 13 0;
#X connect 25 0 13 0;
#X connect 26 0 20 0;
#X connect 27 0 32 0;
#X connect 28 0 37 0;
#X connect 29 0 24 0;
#X connect 30 0 40 0;
#X connect 31 0 12 0;
#X connect 32 0 33 0;
#X connect 33 0 34 0;
#X connect 34 0 35 0;
#X connect 35 0 36 0;
#X connect 36 0 21 0;
#X connect 37 0 38 0;
#X connect 38 0 39 0;
#X connect 39 0 22 0;
#X connect 40 0 41 0;
#X connect 41 0 23 0;
#X connect 42 0 10 0;
#X connect 43 0 4 0;
#X connect 44 0 5 0;
