#N canvas 91 439 416 573 10;
#X obj 142 366 s notesOut-\$1;
#X obj 18 143 inlet~ inL-\$1;
#X obj 128 143 inlet~ inR-\$1;
#X obj 117 328 outlet~ outL-\$1;
#X obj 226 328 outlet~ outR-\$1;
#X obj 241 174 r auxIn-\$1;
#X obj 319 232 r expIn-\$1;
#X obj 319 257 r fsIn-\$1;
#X text 200 63 C&G basic polyphonic patch with 8 voices;
#X obj 243 366 s ctrlOut-\$1;
#N canvas 431 440 921 545 subparams 0;
#X obj 91 112 r notesIn-\$1;
#X obj 192 112 r ctrlIn-\$1;
#X obj 173 188 r bp_wave-\$1;
#X obj 260 188 r bp_decay-\$1;
#X obj 453 188 r bp_vrate-\$1;
#X obj 354 188 r pb_range-\$1;
#X obj 91 133 unpack 0 0;
#X msg 91 154 notes \$1;
#X msg 173 237 bp_wave \$1;
#X msg 260 237 bp_decay \$1;
#X msg 354 237 pb_range \$1;
#X msg 453 237 bp_vrate \$1;
#X obj 566 188 r bp_vdepth-\$1;
#X msg 566 237 bp_vdepth \$1;
#X msg 148 155 velocity \$1;
#X floatatom 173 213 5 0 0 0 - - -;
#X floatatom 566 213 5 0 0 0 - - -;
#X floatatom 453 213 5 0 0 0 - - -;
#X floatatom 260 213 5 0 0 0 - - -;
#X floatatom 354 213 5 0 0 0 - - -;
#X obj 106 383 outlet;
#X obj 414 114 r loaded-\$1;
#X obj 685 190 r bp_trans-\$1;
#X floatatom 685 211 5 0 0 0 - - -;
#X msg 685 231 bp_trans \$1;
#X obj 786 193 r volume-\$1;
#X floatatom 786 214 5 0 0 0 - - -;
#X msg 786 234 volume \$1;
#X connect 0 0 6 0;
#X connect 2 0 15 0;
#X connect 3 0 18 0;
#X connect 4 0 17 0;
#X connect 5 0 19 0;
#X connect 6 0 7 0;
#X connect 6 1 14 0;
#X connect 7 0 20 0;
#X connect 8 0 20 0;
#X connect 9 0 20 0;
#X connect 10 0 20 0;
#X connect 11 0 20 0;
#X connect 12 0 16 0;
#X connect 13 0 20 0;
#X connect 14 0 20 0;
#X connect 15 0 8 0;
#X connect 16 0 13 0;
#X connect 17 0 11 0;
#X connect 18 0 9 0;
#X connect 19 0 10 0;
#X connect 21 0 15 0;
#X connect 21 0 18 0;
#X connect 21 0 19 0;
#X connect 21 0 17 0;
#X connect 21 0 16 0;
#X connect 21 0 23 0;
#X connect 21 0 26 0;
#X connect 22 0 23 0;
#X connect 23 0 24 0;
#X connect 24 0 20 0;
#X connect 25 0 26 0;
#X connect 26 0 27 0;
#X connect 27 0 20 0;
#X restore 47 180 pd subparams;
#X obj 38 329 route loaded;
#X obj 38 350 bang;
#X obj 38 371 s loaded-\$1;
#X obj 109 221 r loadbang-\$1;
#X obj 38 285 pd~ -ninsig 0 -noutsig 2;
#X msg 241 195 aux \$1;
#X msg 109 242 pd~ start -nogui synth.pd;
#X connect 5 0 16 0;
#X connect 10 0 15 0;
#X connect 11 0 12 0;
#X connect 12 0 13 0;
#X connect 14 0 17 0;
#X connect 15 0 11 0;
#X connect 15 1 3 0;
#X connect 15 2 4 0;
#X connect 16 0 15 0;
#X connect 17 0 15 0;
