#N canvas 833 317 987 630 10;
#X obj 16 231 pack 0 0 0, f 11;
#X obj 16 257 route 1 2 3 4 5 6 7 8, f 81;
#X text 365 235 aircraft carrier;
#X obj 232 418 *~ 0.3;
#X obj 16 204 poly 8 1, f 11;
#X obj 233 509 hip~ 5;
#X obj 233 462 lop~ 1000;
#X obj 388 189 route 1 2 3 4 5 6 7 8, f 81;
#X obj 148 13 inlet ctrl;
#N canvas 324 629 450 300 route 0;
#X obj 69 97 unpack 0 0 0;
#X obj 68 68 t l l;
#X obj 68 197 list;
#X obj 139 144 t b;
#X obj 139 123 route 1 0;
#X obj 226 163 unpack 0 0 0;
#X obj 226 194 pack 0 0 0;
#X obj 68 19 inlet msg;
#X obj 68 218 outlet global;
#X obj 226 215 outlet voice;
#X obj 187 162 - 1;
#X connect 0 2 4 0;
#X connect 1 0 0 0;
#X connect 1 1 2 1;
#X connect 1 1 5 0;
#X connect 2 0 8 0;
#X connect 3 0 2 0;
#X connect 4 0 3 0;
#X connect 4 1 3 0;
#X connect 4 2 10 0;
#X connect 5 0 6 1;
#X connect 5 1 6 2;
#X connect 6 0 9 0;
#X connect 7 0 1 0;
#X connect 10 0 6 0;
#X restore 37 84 pd route;
#N canvas 324 629 450 300 route 0;
#X obj 69 97 unpack 0 0 0;
#X obj 68 68 t l l;
#X obj 68 197 list;
#X obj 139 144 t b;
#X obj 139 123 route 1 0;
#X obj 234 171 unpack 0 0 0;
#X obj 234 202 pack 0 0 0;
#X obj 68 19 inlet msg;
#X obj 68 218 outlet global;
#X obj 234 223 outlet voice;
#X obj 190 158 - 1;
#X connect 0 2 4 0;
#X connect 1 0 0 0;
#X connect 1 1 2 1;
#X connect 1 1 5 0;
#X connect 2 0 8 0;
#X connect 3 0 2 0;
#X connect 4 0 3 0;
#X connect 4 1 3 0;
#X connect 4 2 10 0;
#X connect 5 0 6 1;
#X connect 5 1 6 2;
#X connect 6 0 9 0;
#X connect 7 0 1 0;
#X connect 10 0 6 0;
#X restore 148 48 pd route;
#X msg 50 151 stop;
#X obj 351 73 unpack 0 0 0;
#X obj 351 94 sel 123;
#X msg 351 115 stop;
#X obj 234 535 dac~;
#X obj 446 473 loadbang;
#X obj 446 494 t b b;
#X msg 446 515 loaded;
#X obj 446 536 stdout;
#X msg 524 513 \; pd dsp 1;
#X obj 16 347 bp-voice;
#X obj 86 384 bp-voice;
#X obj 158 348 bp-voice;
#X obj 227 373 bp-voice;
#X obj 296 347 bp-voice;
#X obj 368 379 bp-voice;
#X obj 439 351 bp-voice;
#X obj 508 378 bp-voice;
#X obj 17 8 r notes;
#X obj 17 40 pack 0 0;
#X obj 70 8 r velocity;
#X floatatom 100 72 5 0 0 0 - - -;
#X obj 50 111 r aux;
#X obj 50 132 sel 1;
#X obj 232 439 *~ 1;
#X obj 233 483 clip~ -1 1;
#X obj 368 442 r volume;
#X obj 368 463 / 100;
#X floatatom 368 484 5 0 0 0 - - -;
#X connect 0 0 1 0;
#X connect 1 0 21 0;
#X connect 1 1 22 0;
#X connect 1 2 23 0;
#X connect 1 3 24 0;
#X connect 1 4 25 0;
#X connect 1 5 26 0;
#X connect 1 6 27 0;
#X connect 1 7 28 0;
#X connect 3 0 35 0;
#X connect 4 0 0 0;
#X connect 4 1 0 1;
#X connect 4 2 0 2;
#X connect 5 0 15 0;
#X connect 5 0 15 1;
#X connect 6 0 36 0;
#X connect 7 0 21 1;
#X connect 7 1 22 1;
#X connect 7 2 23 1;
#X connect 7 3 24 1;
#X connect 7 4 25 1;
#X connect 7 5 26 1;
#X connect 7 6 27 1;
#X connect 7 7 28 1;
#X connect 8 0 10 0;
#X connect 8 0 12 0;
#X connect 9 0 4 0;
#X connect 9 1 1 0;
#X connect 10 0 21 1;
#X connect 10 0 22 1;
#X connect 10 0 23 1;
#X connect 10 0 24 1;
#X connect 10 0 25 1;
#X connect 10 0 26 1;
#X connect 10 0 27 1;
#X connect 10 0 28 1;
#X connect 10 1 7 0;
#X connect 11 0 4 0;
#X connect 12 0 13 0;
#X connect 13 0 14 0;
#X connect 14 0 4 0;
#X connect 16 0 17 0;
#X connect 17 0 18 0;
#X connect 17 1 20 0;
#X connect 18 0 19 0;
#X connect 21 0 3 0;
#X connect 22 0 3 0;
#X connect 23 0 3 0;
#X connect 24 0 3 0;
#X connect 25 0 3 0;
#X connect 26 0 3 0;
#X connect 27 0 3 0;
#X connect 28 0 3 0;
#X connect 29 0 30 0;
#X connect 29 0 32 0;
#X connect 30 0 4 0;
#X connect 31 0 30 1;
#X connect 33 0 34 0;
#X connect 34 0 11 0;
#X connect 35 0 6 0;
#X connect 36 0 5 0;
#X connect 37 0 38 0;
#X connect 38 0 39 0;
#X connect 39 0 35 1;
