#N canvas 4 50 1912 1011 10;
#X obj 769 552 mtof;
#X obj 992 563 + 0.001;
#X obj 769 532 + 30;
#X obj 769 512 * 97;
#X text 750 212 A Module that loads a wav file named wave.wav and scans
through it to create a 'waveform'. position sets the point and width
sets how wide the loop is. The wider the loop the more 'partials' and
noise. A lowpass filter is added at the end.;
#N canvas 557 558 1359 486 synth 1;
#X obj 9 127 poly 8 1, f 10;
#X obj 9 179 pack 0 0 0;
#X obj 9 231 route 1 2 3 4 5 6 7 8, f 60;
#X obj 9 10 inlet;
#X obj 42 151 - 0;
#X obj 250 327 wavs-voice \$1;
#X obj 117 300 wavs-voice \$1;
#X obj 150 327 wavs-voice \$1;
#X obj 358 326 wavs-voice \$1;
#X obj 325 299 wavs-voice \$1;
#X obj 9 301 wavs-voice \$1;
#X obj 42 328 wavs-voice \$1;
#X obj 217 300 wavs-voice \$1;
#X obj 125 15 inlet ctrl;
#X obj 263 151 route 1 2 3 4 5 6 7 8, f 60;
#N canvas 324 629 450 300 route 0;
#X obj 69 97 unpack 0 0 0;
#X obj 68 68 t l l;
#X obj 68 197 list;
#X obj 139 144 t b;
#X obj 139 123 route 1 0;
#X obj 226 163 unpack 0 0 0;
#X obj 226 194 pack 0 0 0;
#X obj 68 19 inlet msg;
#X obj 68 218 outlet global;
#X obj 226 215 outlet voice;
#X obj 187 162 - 1;
#X connect 0 2 4 0;
#X connect 1 0 0 0;
#X connect 1 1 2 1;
#X connect 1 1 5 0;
#X connect 2 0 8 0;
#X connect 3 0 2 0;
#X connect 4 0 3 0;
#X connect 4 1 3 0;
#X connect 4 2 10 0;
#X connect 5 0 6 1;
#X connect 5 1 6 2;
#X connect 6 0 9 0;
#X connect 7 0 1 0;
#X connect 10 0 6 0;
#X restore 30 42 pd route;
#N canvas 324 629 450 300 route 0;
#X obj 69 97 unpack 0 0 0;
#X obj 68 68 t l l;
#X obj 68 197 list;
#X obj 139 144 t b;
#X obj 139 123 route 1 0;
#X obj 234 171 unpack 0 0 0;
#X obj 234 202 pack 0 0 0;
#X obj 68 19 inlet msg;
#X obj 68 218 outlet global;
#X obj 234 223 outlet voice;
#X obj 190 158 - 1;
#X connect 0 2 4 0;
#X connect 1 0 0 0;
#X connect 1 1 2 1;
#X connect 1 1 5 0;
#X connect 2 0 8 0;
#X connect 3 0 2 0;
#X connect 4 0 3 0;
#X connect 4 1 3 0;
#X connect 4 2 10 0;
#X connect 5 0 6 1;
#X connect 5 1 6 2;
#X connect 6 0 9 0;
#X connect 7 0 1 0;
#X connect 10 0 6 0;
#X restore 148 48 pd route;
#X obj 430 42 unpack 0 0 0;
#X obj 430 63 sel 123;
#X msg 430 84 stop;
#X obj 263 5 r aux;
#X obj 263 26 sel 1;
#X msg 263 47 stop;
#X connect 0 0 1 0;
#X connect 0 1 4 0;
#X connect 0 2 1 2;
#X connect 1 0 2 0;
#X connect 2 0 10 0;
#X connect 2 1 11 0;
#X connect 2 2 6 0;
#X connect 2 3 7 0;
#X connect 2 4 12 0;
#X connect 2 5 5 0;
#X connect 2 6 9 0;
#X connect 2 7 8 0;
#X connect 3 0 0 0;
#X connect 4 0 1 1;
#X connect 13 0 16 0;
#X connect 13 0 17 0;
#X connect 14 0 10 1;
#X connect 14 1 11 1;
#X connect 14 2 6 1;
#X connect 14 3 7 1;
#X connect 14 4 12 1;
#X connect 14 5 5 1;
#X connect 14 6 9 1;
#X connect 14 7 8 1;
#X connect 15 0 0 0;
#X connect 15 1 2 0;
#X connect 16 0 10 1;
#X connect 16 0 11 1;
#X connect 16 0 12 1;
#X connect 16 0 9 1;
#X connect 16 0 8 1;
#X connect 16 0 7 1;
#X connect 16 0 6 1;
#X connect 16 0 5 1;
#X connect 16 1 14 0;
#X connect 17 0 18 0;
#X connect 18 0 19 0;
#X connect 19 0 0 0;
#X connect 20 0 21 0;
#X connect 21 0 22 0;
#X connect 22 0 0 0;
#X restore 359 391 pd synth;
#N canvas 155 351 1761 596 array 1;
#X obj 784 342 soundfiler;
#N canvas 0 50 450 250 (subpatch) 0;
#X array wavs-array 13797 float 2;
#X coords 0 1 13797 -1 200 140 1 0 0;
#X restore 332 43 graph;
#X obj 763 99 r s_kit;
#X obj 814 384 s wavs-filesize;
#X msg 785 490 \; wavs-array normalize;
#X floatatom 849 119 5 0 0 0 - - -;
#X floatatom 763 120 5 0 0 0 - - -;
#X obj 849 98 r s_slot1;
#X obj 797 196 pack 0 0;
#X obj 849 139 t b f;
#X msg 800 264 read -resize /tmp/media/samples/kit-\$1/\$2.wav wavs-array
;
#X connect 0 0 3 0;
#X connect 0 0 4 0;
#X connect 2 0 6 0;
#X connect 5 0 9 0;
#X connect 6 0 8 0;
#X connect 7 0 5 0;
#X connect 8 0 10 0;
#X connect 9 0 8 0;
#X connect 9 1 8 1;
#X connect 10 0 0 0;
#X restore 751 314 pd array;
#N canvas 1054 744 450 300 LFO 1;
#X obj 219 50 hsl 128 15 0 2000 0 0 empty empty empty -2 -8 0 10 -262144
-1 -1 782 1;
#X obj 68 57 hsl 128 15 0 4 0 0 empty empty empty -2 -8 0 10 -262144
-1 -1 0 1;
#X floatatom 65 77 5 0 0 0 - - -;
#X floatatom 216 70 5 0 0 0 - - -;
#X msg 127 103 0;
#X msg 275 92 300;
#X obj 162 4 loadbang;
#X obj 257 17 r lfo_depth;
#X obj 62 20 r lfo_rate;
#X obj 49 130 s wavs-rate-local;
#X obj 200 130 s wavs-depth-local;
#X connect 0 0 3 0;
#X connect 0 0 10 0;
#X connect 1 0 2 0;
#X connect 1 0 9 0;
#X connect 4 0 9 0;
#X connect 5 0 10 0;
#X connect 6 0 4 0;
#X connect 6 0 5 0;
#X connect 7 0 0 0;
#X connect 8 0 1 0;
#X restore 751 341 pd LFO;
#X obj 48 379 lop~ 200;
#X obj 113 355 hip~ 200;
#X obj 112 378 lop~ 300;
#X text 745 174 C&G Wavescanner;
#X obj 47 451 +~;
#X text 815 314 reads the file wave-wavs.wav in the Sounds folder;
#X obj 769 492 / 100;
#X obj 992 506 / 100;
#X obj 47 405 *~ 2;
#X obj 111 400 *~ 0.2;
#X obj 405 186 r ctrlIn-\$1;
#X floatatom 1016 475 5 0 0 0 - - -;
#X obj 992 584 clip 0 1;
#X obj 47 514 clip~ -1 1;
#X obj 47 471 *~ 4;
#X obj 47 492 *~ 1;
#X floatatom 201 450 5 0 0 0 - - -;
#X obj 201 470 / 100;
#X obj 27 631 dac~;
#X obj 282 183 r notes;
#X obj 282 204 pack 0 0;
#X obj 330 183 r velocity;
#X obj 768 444 r wavs_width;
#X obj 992 444 r wavs_pos;
#X obj 1127 445 r wavs_decay;
#X obj 201 429 r volume;
#X obj 769 593 s wavs-width-local;
#X obj 991 609 s wavs-position-local;
#X obj 1128 506 s wavs-decay-local;
#X obj 47 271 catch~ wavs-voice-out;
#X obj 501 480 loadbang;
#X obj 501 501 t b b;
#X msg 501 522 loaded;
#X obj 501 543 stdout;
#X msg 568 524 \; pd dsp 1;
#X connect 0 0 34 0;
#X connect 1 0 20 0;
#X connect 2 0 0 0;
#X connect 3 0 2 0;
#X connect 8 0 16 0;
#X connect 9 0 10 0;
#X connect 10 0 17 0;
#X connect 12 0 22 0;
#X connect 14 0 3 0;
#X connect 15 0 1 0;
#X connect 16 0 12 0;
#X connect 17 0 12 1;
#X connect 18 0 5 1;
#X connect 20 0 35 0;
#X connect 21 0 26 0;
#X connect 21 0 26 1;
#X connect 22 0 23 0;
#X connect 23 0 21 0;
#X connect 24 0 25 0;
#X connect 25 0 23 1;
#X connect 27 0 28 0;
#X connect 28 0 5 0;
#X connect 29 0 28 1;
#X connect 30 0 14 0;
#X connect 31 0 15 0;
#X connect 31 0 19 0;
#X connect 32 0 36 0;
#X connect 33 0 24 0;
#X connect 37 0 8 0;
#X connect 37 0 9 0;
#X connect 38 0 39 0;
#X connect 39 0 40 0;
#X connect 39 1 42 0;
#X connect 40 0 41 0;
