#N canvas 749 186 1032 613 10;
#X text 24 19 basic polyphonic patch with 8 voices;
#X text 299 98 aircraft carrier;
#X obj 137 41 inlet;
#X obj 134 396 outlet~;
#X obj 854 399 lop~ 5;
#X obj 865 433 s~ filt_cuttoff_sig-\$1;
#X obj 854 376 sig~ 12;
#X msg 360 487 Filter: Off;
#X msg 598 484 Filter: Analog;
#X obj 347 354 * 0.005;
#X obj 214 272 lop~ 5;
#X obj 332 386 sig~ 0.35;
#X obj 135 263 *~;
#X msg 439 484 Filter: Digital BP;
#X msg 464 509 Filter: Digital LP;
#X obj 255 54 sel 123;
#X msg 253 77 stop;
#X obj 358 435 sel 0;
#X obj 685 177 s~ lfo-timbre-\$1;
#X obj 642 293 r lfolabel;
#X obj 656 316 sel 0 1 2 3 4 5;
#X msg 609 381 LFO: Sin;
#X msg 630 399 LFO: Tri;
#X msg 671 377 LFO: Saw;
#X msg 691 395 LFO: Sqr;
#X msg 736 374 LFO: S/H;
#X msg 752 397 LFO: Randoom;
#X obj 580 419 sel 3;
#X obj 134 160 polywrapper \$1 4;
#X obj 255 32 r valuem;
#X obj 688 571 stdout;
#X obj 336 310 r volume;
#X obj 411 397 r filttype;
#X obj 890 222 r filt_cutoff;
#X obj 466 21 loadbang;
#X msg 439 50 0;
#X msg 507 76 50;
#X msg 506 101 70;
#X msg 450 76 1;
#X msg 466 101 2;
#X msg 507 52 8;
#X obj 685 155 lfo2/lfo timbre-\$1;
#X obj 448 427 sel 1;
#X obj 508 433 sel 2;
#X obj 548 158 lfo1/lfo colour-\$1;
#X obj 549 179 s~ lfo-colour-\$1;
#X obj 317 127 unpack 0 0;
#X obj 746 484 r lfo_sync-label;
#X obj 285 199 preset;
#X obj 440 307 / 100;
#X floatatom 440 328 5 0 0 0 - - -;
#X msg 440 348 \$1 8;
#X obj 440 369 s param;
#X floatatom 890 243 5 0 0 0 - - -;
#X obj 888 264 / 64;
#X floatatom 888 285 5 0 0 0 - - -;
#X msg 888 305 \$1 26;
#X obj 888 326 s param;
#X connect 2 0 28 0;
#X connect 2 0 46 0;
#X connect 4 0 5 0;
#X connect 6 0 4 0;
#X connect 7 0 30 0;
#X connect 8 0 30 0;
#X connect 9 0 11 0;
#X connect 10 0 12 1;
#X connect 11 0 10 0;
#X connect 12 0 3 0;
#X connect 13 0 30 0;
#X connect 14 0 30 0;
#X connect 15 0 16 0;
#X connect 16 0 28 0;
#X connect 17 0 7 0;
#X connect 19 0 20 0;
#X connect 20 0 21 0;
#X connect 20 1 22 0;
#X connect 20 2 23 0;
#X connect 20 3 24 0;
#X connect 20 4 25 0;
#X connect 20 5 26 0;
#X connect 21 0 30 0;
#X connect 22 0 30 0;
#X connect 23 0 30 0;
#X connect 24 0 30 0;
#X connect 25 0 30 0;
#X connect 26 0 30 0;
#X connect 27 0 8 0;
#X connect 28 0 12 0;
#X connect 29 0 15 0;
#X connect 31 0 9 0;
#X connect 31 0 49 0;
#X connect 32 0 17 0;
#X connect 32 0 27 0;
#X connect 32 0 42 0;
#X connect 32 0 43 0;
#X connect 33 0 6 0;
#X connect 33 0 53 0;
#X connect 34 0 35 0;
#X connect 34 0 40 0;
#X connect 34 0 38 0;
#X connect 34 0 36 0;
#X connect 34 0 37 0;
#X connect 34 0 39 0;
#X connect 35 0 17 0;
#X connect 37 0 9 0;
#X connect 40 0 6 0;
#X connect 41 0 18 0;
#X connect 42 0 13 0;
#X connect 43 0 14 0;
#X connect 44 0 45 0;
#X connect 46 1 44 0;
#X connect 46 1 41 0;
#X connect 47 0 30 0;
#X connect 49 0 50 0;
#X connect 50 0 51 0;
#X connect 51 0 52 0;
#X connect 53 0 54 0;
#X connect 54 0 55 0;
#X connect 55 0 56 0;
#X connect 56 0 57 0;
