#N canvas 459 240 1366 728 10;
#X obj 514 13 inlet~;
#X obj 187 583 outlet~;
#X msg 836 579 timbre \$1;
#X msg 531 245 pitch \$1;
#X obj 822 497 / 100;
#X obj 661 306 / 100;
#X obj 517 87 nbx 5 14 -1e+37 1e+37 0 0 empty empty empty 0 -8 0 10
-262144 -1 -1 0 256;
#X obj 329 195 bang~;
#X obj 375 249 snapshot~;
#X obj 730 349 bang~;
#X obj 719 384 snapshot~;
#X obj 1239 28 inlet~;
#X obj 1172 286 bang~;
#X obj 1188 403 snapshot~;
#X obj 828 522 nbx 5 14 -1e+37 1e+37 0 0 empty empty empty 0 -8 0 10
-262144 -1 -1 0.186706 256;
#X obj 641 536 modenv, f 20;
#X obj 834 551 modenv, f 20;
#X obj 874 302 r~ lfo-timbre-\$1;
#X obj 917 355 bang~;
#X obj 908 392 snapshot~;
#X obj 420 147 +~ 0;
#X obj 129 138 loadbang;
#X msg 102 167 0;
#X msg 170 193 50;
#X msg 169 218 70;
#X msg 113 193 1;
#X msg 129 218 2;
#X msg 170 169 8;
#X obj 821 401 r timbre;
#X obj 913 426 r lfo_timbre;
#X obj 952 476 r env_timbre;
#X obj 571 334 brds~;
#X obj 685 232 r colour;
#X obj 722 280 r~ lfo-colour-\$1;
#X obj 740 429 r env_colour;
#X obj 694 490 r lfo_colour;
#X obj 602 101 r shape;
#X msg 602 163 shape \$1;
#X msg 640 575 colour \$1;
#X obj 602 131 / 47;
#X obj 662 161 s param;
#X msg 666 333 \$1 2;
#X obj 666 354 s param;
#X obj 832 446 s param;
#X msg 832 425 \$1 3;
#X floatatom 757 598 5 0 0 0 - - -;
#X obj 757 618 + 1;
#X obj 757 639 / 2;
#X msg 757 660 \$1 11;
#X obj 757 681 s param;
#X floatatom 965 601 5 0 0 0 - - -;
#X obj 965 621 + 1;
#X obj 965 642 / 2;
#X obj 965 684 s param;
#X msg 965 663 \$1 15;
#X msg 662 140 \$1 1;
#X connect 0 0 20 0;
#X connect 2 0 31 0;
#X connect 3 0 31 0;
#X connect 4 0 14 0;
#X connect 4 0 44 0;
#X connect 5 0 15 0;
#X connect 5 0 41 0;
#X connect 7 0 8 0;
#X connect 8 0 3 0;
#X connect 9 0 10 0;
#X connect 10 0 15 1;
#X connect 11 0 13 0;
#X connect 12 0 13 0;
#X connect 13 0 15 3;
#X connect 13 0 16 3;
#X connect 14 0 16 0;
#X connect 15 0 38 0;
#X connect 16 0 2 0;
#X connect 17 0 19 0;
#X connect 18 0 19 0;
#X connect 19 0 16 1;
#X connect 20 0 8 0;
#X connect 21 0 22 0;
#X connect 21 0 27 0;
#X connect 21 0 25 0;
#X connect 21 0 23 0;
#X connect 21 0 24 0;
#X connect 21 0 26 0;
#X connect 22 0 37 0;
#X connect 22 0 15 4;
#X connect 22 0 15 2;
#X connect 22 0 16 2;
#X connect 22 0 16 4;
#X connect 23 0 5 0;
#X connect 23 0 4 0;
#X connect 28 0 4 0;
#X connect 29 0 16 2;
#X connect 29 0 50 0;
#X connect 30 0 16 4;
#X connect 31 0 1 0;
#X connect 32 0 5 0;
#X connect 33 0 10 0;
#X connect 34 0 15 4;
#X connect 35 0 15 2;
#X connect 35 0 45 0;
#X connect 36 0 39 0;
#X connect 37 0 31 0;
#X connect 38 0 31 0;
#X connect 39 0 37 0;
#X connect 39 0 55 0;
#X connect 41 0 42 0;
#X connect 44 0 43 0;
#X connect 45 0 46 0;
#X connect 46 0 47 0;
#X connect 47 0 48 0;
#X connect 48 0 49 0;
#X connect 50 0 51 0;
#X connect 51 0 52 0;
#X connect 52 0 54 0;
#X connect 54 0 53 0;
#X connect 55 0 40 0;
