#N canvas 141 216 1589 876 10;
#X text 369 44 note messages;
#X obj 405 93 inlet;
#X obj 539 738 outlet~;
#X text 34 52 synth voice with waveform change;
#X obj 405 113 unpack 0 0;
#X obj 539 494 *~;
#X obj 759 180 osc~ 5;
#X obj 494 269 sig~;
#X obj 520 241 *~ 0.1;
#X obj 584 207 * 0.001;
#X obj 693 427 +~ 1;
#X obj 539 703 *~;
#X obj 658 386 *~ 0.1;
#X obj 688 58 nbx 5 14 -1e+37 1e+37 0 0 empty empty empty 0 -8 0 10
-262144 -1 -1 9.13001 256;
#X obj 773 424 *~;
#X obj 539 516 *~ 1;
#X obj 951 339 * -1;
#X obj 950 364 + 1;
#X obj 404 135 + 0;
#X obj 491 423 tableosc \$1;
#X obj 831 393 +~ 1;
#X obj 814 367 *~ 0;
#N canvas 8 60 1351 720 moog 0;
#X obj 209 122 sig~ 3;
#X obj 166 142 moog~;
#X obj 104 56 inlet~;
#X obj 185 41 inlet~;
#X obj 275 75 inlet;
#X obj 173 207 outlet~;
#X obj 396 171 switch~;
#X msg 359 113 0;
#X msg 500 136 1;
#X obj 464 85 sel 3;
#X obj 332 52 loadbang;
#X obj 442 52 r filttype;
#X obj 255 97 - 0.9;
#X connect 0 0 1 2;
#X connect 1 0 5 0;
#X connect 2 0 1 0;
#X connect 3 0 1 1;
#X connect 4 0 12 0;
#X connect 7 0 6 0;
#X connect 8 0 6 0;
#X connect 9 0 8 0;
#X connect 9 1 7 0;
#X connect 10 0 7 0;
#X connect 11 0 9 0;
#X connect 12 0 0 0;
#X restore 538 593 pd moog;
#N canvas 8 60 1351 720 vcf 0;
#X obj 104 56 inlet~;
#X obj 185 41 inlet~;
#X obj 248 98 inlet;
#X obj 176 249 outlet~;
#X obj 166 143 vcf~ 3;
#X obj 387 222 switch~;
#X msg 377 143 0;
#X msg 499 136 1;
#X obj 480 87 sel 1;
#X obj 419 66 sel 2;
#X obj 217 199 *~ 0;
#X obj 156 186 *~ 1;
#X msg 241 147 0;
#X msg 283 158 0;
#X msg 243 166 1;
#X msg 288 181 1;
#X obj 331 52 loadbang;
#X obj 601 9 r filttype;
#X floatatom 601 30 5 0 0 0 - - -;
#X connect 0 0 4 0;
#X connect 1 0 4 1;
#X connect 2 0 4 2;
#X connect 4 0 11 0;
#X connect 4 1 10 0;
#X connect 6 0 5 0;
#X connect 7 0 5 0;
#X connect 8 0 7 0;
#X connect 8 0 15 0;
#X connect 8 0 12 0;
#X connect 8 1 6 0;
#X connect 9 0 7 0;
#X connect 9 0 13 0;
#X connect 9 0 14 0;
#X connect 9 1 8 0;
#X connect 10 0 3 0;
#X connect 11 0 3 0;
#X connect 12 0 11 1;
#X connect 13 0 10 1;
#X connect 14 0 11 1;
#X connect 15 0 10 1;
#X connect 16 0 6 0;
#X connect 17 0 9 0;
#X connect 17 0 18 0;
#X restore 625 643 pd vcf;
#X text 47 345 Pitch = input*((1- depth*sustain+depth*env_val));
#X obj 552 342 *~ 0;
#X obj 197 133 t b f;
#X obj 83 220 - 1;
#X obj 69 247 * -1;
#X obj 70 270 sig~ 1;
#X obj 474 354 *~;
#X obj 96 192 * 1;
#X obj 109 159 f 0;
#X obj 384 538 == 0;
#X obj 463 585 *~ 1;
#X obj 557 269 env/env_parabolic \$1;
#X obj 848 500 r~ filt_cuttoff_sig-\$1;
#X obj 779 495 *~;
#X obj 1083 402 sig~ 1;
#X obj 999 298 *~ 0;
#X obj 845 449 *~;
#X obj 601 436 / 128;
#X obj 539 472 *~ 1;
#X obj 536 121 sel 0;
#X obj 483 201 mtof;
#X obj 288 437 *~ 0;
#X obj 257 373 noise~;
#X obj 285 69 / 100;
#X obj 406 161 + 0;
#X obj 357 394 t f f;
#X obj 363 369 / 100;
#X obj 355 415 *;
#X obj 627 133 t b f;
#X obj 906 59 loadbang;
#X msg 879 88 0;
#X msg 947 114 50;
#X msg 946 139 70;
#X msg 890 114 1;
#X msg 906 139 2;
#X msg 947 90 8;
#X obj 639 15 r vibrato_depth;
#X obj 770 3 r mod_speed;
#X obj 1080 139 r tremolo_depth;
#X obj 488 -12 r transpose;
#X obj 277 33 r tune;
#X obj 167 81 r sustain-f;
#X obj 71 100 r envpitch;
#X obj 354 343 r noise;
#X obj 332 485 r filttype;
#X obj 723 529 r filt_q;
#X obj 890 282 r envfilt;
#X obj 1213 140 r fmod_depth;
#X obj 794 262 env/env_parabolic-f \$1;
#X obj 336 197 - 63;
#X obj 412 253 + 8252;
#X obj 371 228 * 128;
#X obj 665 509 *~ 0.02;
#X obj 773 580 *~ 0.008;
#X obj 628 162 / 100;
#X obj 690 123 loadbang;
#X obj 689 145 random 10;
#X obj 694 170 / 100;
#X obj 632 188 +;
#X obj 794 94 loadbang;
#X obj 793 138 / 100;
#X obj 760 150 +;
#X obj 793 116 random 20;
#X obj 522 36 + 24;
#X obj 522 57 / 48;
#X msg 522 78 \$1 4;
#X obj 522 99 s param;
#X floatatom 285 90 5 0 0 0 - - -;
#X obj 285 110 + 1;
#X obj 285 131 / 2;
#X floatatom 285 152 5 0 0 0 - - -;
#X msg 285 172 \$1 5;
#X obj 285 193 s param;
#X msg 36 157 \$1 6;
#X msg 404 394 \$1 7;
#X obj 404 415 s param;
#X obj 36 178 s param;
#X floatatom 890 303 5 0 0 0 - - -;
#X msg 890 323 \$1 25;
#X obj 890 344 s param;
#X floatatom 723 550 5 0 0 0 - - -;
#X obj 723 570 - 1;
#X obj 723 591 / 4;
#X floatatom 723 612 5 0 0 0 - - -;
#X floatatom 332 506 5 0 0 0 - - -;
#X obj 332 526 / 3;
#X floatatom 332 547 5 0 0 0 - - -;
#X msg 332 567 \$1 28;
#X obj 332 588 s param;
#X obj 770 24 / 15;
#X msg 770 45 \$1 29;
#X obj 770 66 s param;
#X obj 639 36 / 10;
#X floatatom 639 57 5 0 0 0 - - -;
#X msg 637 77 \$1 30;
#X obj 637 98 s param;
#X msg 1080 160 \$1 31;
#X obj 1080 181 s param;
#X msg 1213 161 \$1 32;
#X obj 1213 182 s param;
#X obj 723 653 s param;
#X msg 723 632 \$1 27;
#X connect 1 0 4 0;
#X connect 4 0 18 0;
#X connect 4 1 35 0;
#X connect 4 1 43 0;
#X connect 4 1 72 0;
#X connect 5 0 15 0;
#X connect 6 0 8 0;
#X connect 6 0 12 0;
#X connect 6 0 39 0;
#X connect 7 0 30 0;
#X connect 8 0 19 0;
#X connect 9 0 8 1;
#X connect 10 0 11 1;
#X connect 11 0 2 0;
#X connect 12 0 10 0;
#X connect 14 0 40 0;
#X connect 15 0 22 0;
#X connect 15 0 23 0;
#X connect 15 0 34 0;
#X connect 16 0 17 0;
#X connect 17 0 20 1;
#X connect 18 0 48 0;
#X connect 19 0 42 0;
#X connect 20 0 14 0;
#X connect 21 0 20 0;
#X connect 22 0 11 0;
#X connect 23 0 11 0;
#X connect 25 0 30 1;
#X connect 26 0 32 0;
#X connect 26 1 31 1;
#X connect 27 0 28 0;
#X connect 28 0 29 0;
#X connect 29 0 30 1;
#X connect 30 0 19 0;
#X connect 31 0 27 0;
#X connect 32 0 31 0;
#X connect 33 0 34 1;
#X connect 34 0 11 0;
#X connect 35 0 5 1;
#X connect 36 0 37 1;
#X connect 37 0 76 0;
#X connect 37 0 77 0;
#X connect 38 0 40 1;
#X connect 39 0 40 1;
#X connect 40 0 37 0;
#X connect 41 0 42 1;
#X connect 42 0 5 0;
#X connect 43 1 41 0;
#X connect 44 0 9 0;
#X connect 45 0 42 0;
#X connect 46 0 45 0;
#X connect 47 0 48 1;
#X connect 47 0 91 0;
#X connect 48 0 73 0;
#X connect 48 0 44 0;
#X connect 49 0 51 0;
#X connect 49 1 51 1;
#X connect 50 0 49 0;
#X connect 50 0 98 0;
#X connect 51 0 45 1;
#X connect 52 0 9 0;
#X connect 52 1 78 0;
#X connect 53 0 54 0;
#X connect 53 0 59 0;
#X connect 53 0 57 0;
#X connect 53 0 55 0;
#X connect 53 0 56 0;
#X connect 53 0 58 0;
#X connect 54 0 52 0;
#X connect 54 0 12 1;
#X connect 54 0 18 1;
#X connect 54 0 47 0;
#X connect 54 0 32 0;
#X connect 54 0 25 1;
#X connect 54 0 50 0;
#X connect 54 0 33 0;
#X connect 54 0 16 0;
#X connect 54 0 21 1;
#X connect 54 0 39 1;
#X connect 57 0 26 0;
#X connect 57 0 23 2;
#X connect 57 0 22 2;
#X connect 58 0 6 0;
#X connect 60 0 13 0;
#X connect 60 0 52 0;
#X connect 60 0 116 0;
#X connect 61 0 85 0;
#X connect 61 0 113 0;
#X connect 62 0 12 1;
#X connect 62 0 120 0;
#X connect 63 0 18 1;
#X connect 63 0 87 0;
#X connect 64 0 47 0;
#X connect 65 0 26 0;
#X connect 66 0 25 1;
#X connect 66 0 32 0;
#X connect 66 0 97 0;
#X connect 67 0 50 0;
#X connect 68 0 33 0;
#X connect 68 0 108 0;
#X connect 69 0 22 2;
#X connect 69 0 23 2;
#X connect 69 0 104 0;
#X connect 70 0 16 0;
#X connect 70 0 21 1;
#X connect 70 0 101 0;
#X connect 71 0 39 1;
#X connect 71 0 122 0;
#X connect 72 0 21 0;
#X connect 72 0 25 0;
#X connect 72 0 19 1;
#X connect 73 0 75 0;
#X connect 74 0 14 1;
#X connect 74 0 7 0;
#X connect 75 0 74 0;
#X connect 76 0 22 1;
#X connect 77 0 23 1;
#X connect 78 0 82 0;
#X connect 79 0 80 0;
#X connect 80 0 81 1;
#X connect 81 0 82 1;
#X connect 82 0 9 1;
#X connect 83 0 86 0;
#X connect 84 0 85 1;
#X connect 85 0 6 0;
#X connect 86 0 84 0;
#X connect 87 0 88 0;
#X connect 88 0 89 0;
#X connect 89 0 90 0;
#X connect 91 0 92 0;
#X connect 92 0 93 0;
#X connect 93 0 94 0;
#X connect 94 0 95 0;
#X connect 95 0 96 0;
#X connect 97 0 100 0;
#X connect 98 0 99 0;
#X connect 101 0 102 0;
#X connect 102 0 103 0;
#X connect 104 0 105 0;
#X connect 105 0 106 0;
#X connect 106 0 107 0;
#X connect 107 0 125 0;
#X connect 108 0 109 0;
#X connect 109 0 110 0;
#X connect 110 0 111 0;
#X connect 111 0 112 0;
#X connect 113 0 114 0;
#X connect 114 0 115 0;
#X connect 116 0 117 0;
#X connect 117 0 118 0;
#X connect 118 0 119 0;
#X connect 120 0 121 0;
#X connect 122 0 123 0;
#X connect 125 0 124 0;
