#N canvas 333 160 694 746 10;
#X obj 23 18 r notesIn-\$1;
#X obj 302 698 s notesOut-\$1;
#X obj 107 17 inlet~ inL-\$1;
#X obj 200 17 inlet~ inR-\$1;
#X obj 25 698 outlet~ outL-\$1;
#X obj 134 698 outlet~ outR-\$1;
#X obj 468 55 r auxIn-\$1;
#X obj 468 80 r expIn-\$1;
#X obj 468 105 r fsIn-\$1;
#X obj 467 32 r ctrlIn-\$1;
#X obj 208 640 s ctrlOut-\$1;
#X obj 315 640 s rackMsgs;
#X text 85 92 select morphing lenght;
#X msg 35 140 2, f 2;
#X obj 211 331 s morph-trig;
#X text 304 198 Trigger Sync;
#X obj 70 389 morpher p1 \$1;
#X obj 184 389 morpher p2 \$1;
#X obj 298 389 morpher p3 \$1;
#X obj 412 389 morpher p4 \$1;
#X obj 71 428 morpher p5 \$1;
#X obj 185 428 morpher p6 \$1;
#X obj 299 428 morpher p7 \$1;
#X obj 413 428 morpher p8 \$1;
#X obj 71 465 morpher p9 \$1;
#X obj 185 465 morpher p10 \$1;
#X obj 299 465 morpher p11 \$1;
#X obj 413 465 morpher p12 \$1;
#X obj 121 205 s morph-length;
#N canvas 591 92 1259 904 Labels 0;
#X obj 65 297 line;
#X obj 277 30 r morph-length;
#X floatatom 304 153 5 0 0 0 - - -;
#X floatatom 211 85 5 0 0 0 - - -;
#X floatatom 196 187 6 0 0 0 - - -;
#X obj 65 224 pack f f;
#X obj 196 145 i;
#X obj 196 122 /;
#X msg 146 107 60000;
#X obj 196 166 * 1;
#X text 97 166 Morph Time;
#X obj 277 93 t b f;
#X obj 196 210 f;
#X msg 65 259 \$1 \$2;
#X obj 65 318 i;
#X obj 182 570 s oscOutRaw;
#X msg 65 476 /oled/gFlip 3;
#X obj 303 416 s aux-label-\$1;
#X obj 65 418 t b f, f 20;
#X msg 182 475 /oled/gFillArea 3 0 54 \$1 7 1;
#X msg 239 383 | | | | | | PRESET \$1;
#X msg 182 524 /oled/gFillArea 3 0 54 66 7 0;
#X obj 136 276 t b;
#X obj 195 290 del 4;
#X obj 365 302 t b;
#X obj 399 23 r loadbang-\$1;
#X msg 114 307 0;
#X floatatom 115 332 5 0 0 0 - - -;
#X obj 65 58 r morph-trig;
#X obj 304 208 r morph-preset;
#X obj 304 186 r morph-length;
#X obj 304 327 f;
#X msg 304 352 | | | | | | BEATS \$1;
#X obj 365 323 delay 1500;
#X obj 565 35 r activePage;
#X obj 565 56 unpack s s, f 17;
#X msg 565 100 1;
#X msg 621 101 0;
#X obj 565 157 change;
#X obj 667 253 tgl 15 0 empty empty empty 17 7 0 10 -262144 -1 -1 1
1;
#X msg 667 227 1;
#X msg 734 239 0;
#X obj 707 171 sel 1;
#X msg 618 185 stop;
#X obj 650 535 i;
#X obj 650 305 metro 100;
#X obj 565 77 sel \$1, f 10;
#X obj 834 142 r auxIn-\$1;
#X obj 650 565 s aux-led-\$1;
#X obj 1091 428 s save-preset;
#X obj 65 373 spigot, f 20;
#X obj 211 58 r master-bpm;
#X obj 398 44 delay 500;
#X obj 304 114 delay 100;
#X obj 153 32 r signature;
#X msg 395 68 4;
#X obj 877 410 send;
#X obj 898 388 symbol;
#X msg 898 367 mod-listen;
#X obj 842 259 bng 15 250 50 0 empty empty empty 17 7 0 10 -262144
-1 -1;
#N canvas 4 50 450 492 hold-aux 0;
#X obj 54 12 inlet;
#X obj 265 184 outlet;
#X obj 87 87 sel 0;
#X msg 153 170 stop;
#X obj 61 190 t b b;
#X msg 87 249 1;
#X msg 133 227 0;
#X obj 87 289 sel 0 1;
#X obj 325 186 outlet;
#X obj 114 109 t b b b b;
#X msg 165 133 1;
#X obj 61 212 spigot 0;
#X obj 325 162 t b;
#X obj 265 161 t b;
#X obj 54 33 t f, f 37;
#X obj 133 196 del 500;
#X connect 0 0 14 0;
#X connect 2 0 4 0;
#X connect 2 1 9 0;
#X connect 3 0 15 0;
#X connect 4 0 11 0;
#X connect 4 1 3 0;
#X connect 5 0 7 0;
#X connect 6 0 7 0;
#X connect 6 0 11 1;
#X connect 7 0 12 0;
#X connect 7 1 13 0;
#X connect 9 1 15 0;
#X connect 9 2 3 0;
#X connect 9 3 10 0;
#X connect 10 0 11 1;
#X connect 11 0 5 0;
#X connect 12 0 8 0;
#X connect 13 0 1 0;
#X connect 14 0 2 0;
#X connect 15 0 6 0;
#X restore 842 235 pd hold-aux;
#X obj 875 512 f;
#X obj 912 512 + 1;
#X obj 833 413 tgl 15 0 empty empty empty 17 7 0 10 -262144 -1 -1 0
1;
#X floatatom 981 541 5 0 0 0 - - -;
#X obj 876 467 metro 100;
#X obj 833 470 sel 0;
#X msg 833 491 7;
#X obj 875 533 sel 8 9 10;
#X obj 875 281 + 1;
#X obj 842 302 sel 1;
#X msg 884 302 0;
#X obj 843 340 t b f b;
#X obj 842 281 f 0;
#X obj 876 488 spigot 0;
#X obj 876 260 spigot 1;
#X floatatom 880 206 5 0 0 0 - - -;
#X obj 1048 521 f;
#X obj 1085 521 + 1;
#X msg 1121 503 0;
#X obj 1035 416 tgl 15 0 empty empty empty 17 7 0 10 -262144 -1 -1
0 1;
#X floatatom 1154 550 5 0 0 0 - - -;
#X obj 1049 476 metro 100;
#X obj 1006 479 sel 0;
#X msg 1006 500 7;
#X obj 1048 542 sel 8 9 10;
#X obj 1049 497 spigot 0;
#X obj 1016 349 t b;
#X obj 974 261 bng 15 250 50 0 empty empty empty 17 7 0 10 -262144
-1 -1;
#X obj 1007 283 + 1;
#X obj 974 304 sel 1;
#X msg 1016 304 0;
#X obj 974 283 f 0;
#X obj 969 398 sel 1;
#X msg 969 419 0;
#X msg 998 420 1;
#X obj 909 421 sel 1;
#X msg 909 442 0;
#X msg 938 443 1;
#X msg 1020 574 1, f 2;
#X msg 1079 571 7, f 2;
#X obj 934 191 sel 0;
#X msg 1053 349 0;
#X msg 872 563 6, f 2;
#X msg 906 562 7, f 2;
#X msg 948 494 0;
#X obj 1010 99 r mod-listen;
#X obj 1010 120 spigot 0;
#X msg 863 91 0;
#X msg 905 92 1;
#X msg 1011 195 3;
#X obj 1010 141 sel 0;
#X msg 1048 195 7;
#X obj 836 179 spigot 1;
#X obj 304 304 f;
#X msg 65 192 66;
#X obj 136 255 sel 66;
#X obj 849 440 t f b;
#X obj 1035 436 t f b;
#X obj 770 616 sel 1;
#X msg 535 654 /oled/gFlip 3;
#X msg 585 699 /oled/gShowInfoBar 3 0;
#X obj 654 874 s oscOut;
#X obj 1093 635 t b b b;
#X msg 939 656 /oled/gFlip 3;
#X msg 959 690 /oled/gShowInfoBar 3 1;
#X msg 460 795 selectpage \$1;
#X obj 460 813 s rackMsgs;
#X msg 659 662 /oled/gClear 3 1;
#X obj 645 629 t b b b b b, f 16;
#X msg 792 714 /oled/gPrintln 3 0 0 8 1 >>>>>>> MORPH <<<<<<<;
#X obj 667 200 delay 100;
#X obj 461 765 i;
#X obj 1038 764 sel 1;
#X msg 803 802 /oled/gFlip 3;
#X msg 823 836 /oled/gShowInfoBar 3 0;
#X obj 1361 783 t b b b;
#X msg 1207 804 /oled/gFlip 3;
#X msg 1227 838 /oled/gShowInfoBar 3 1;
#X msg 927 810 /oled/gClear 3 1;
#X obj 913 777 t b b b b b, f 16;
#X msg 1060 862 /oled/gPrintln 3 0 0 8 1 >>>> SAVE PRESET <<<<;
#X obj 664 78 sel pg_map1 pg_map2 pg_map3 pg_map4, f 12;
#X msg 663 134 0, f 1;
#X msg 682 134 1, f 1;
#X msg 701 134 2, f 1;
#X msg 717 133 3, f 1;
#X obj 424 260 spigot 0;
#X obj 223 359 spigot 1;
#X msg 249 337 0;
#X msg 274 337 1;
#X obj 249 317 sel 1;
#X msg 376 383 | | | | | | SAVING \$1;
#X obj 483 302 speedlim 100;
#X obj 921 244 spigot 1;
#X connect 0 0 14 0;
#X connect 1 0 11 0;
#X connect 2 0 9 1;
#X connect 3 0 7 1;
#X connect 4 0 12 0;
#X connect 5 0 13 0;
#X connect 6 0 9 0;
#X connect 7 0 6 0;
#X connect 8 0 7 0;
#X connect 9 0 4 0;
#X connect 11 0 8 0;
#X connect 11 1 2 0;
#X connect 12 0 5 1;
#X connect 13 0 0 0;
#X connect 14 0 27 0;
#X connect 14 0 50 0;
#X connect 14 0 116 0;
#X connect 16 0 15 0;
#X connect 18 0 16 0;
#X connect 18 1 19 0;
#X connect 19 0 15 0;
#X connect 20 0 17 0;
#X connect 21 0 15 0;
#X connect 22 0 23 0;
#X connect 22 0 26 0;
#X connect 23 0 114 0;
#X connect 24 0 33 0;
#X connect 25 0 52 0;
#X connect 26 0 0 0;
#X connect 28 0 115 0;
#X connect 29 0 114 0;
#X connect 29 0 114 1;
#X connect 30 0 31 0;
#X connect 31 0 32 0;
#X connect 31 0 24 0;
#X connect 32 0 17 0;
#X connect 33 0 114 0;
#X connect 34 0 35 0;
#X connect 35 0 46 0;
#X connect 35 1 142 0;
#X connect 36 0 38 0;
#X connect 36 0 50 1;
#X connect 36 0 53 0;
#X connect 37 0 38 0;
#X connect 37 0 50 1;
#X connect 38 0 42 0;
#X connect 38 0 74 1;
#X connect 38 0 86 1;
#X connect 39 0 45 0;
#X connect 40 0 39 0;
#X connect 41 0 39 0;
#X connect 41 0 48 0;
#X connect 42 0 131 0;
#X connect 42 1 43 0;
#X connect 42 1 41 0;
#X connect 43 0 131 0;
#X connect 44 0 48 0;
#X connect 45 0 44 0;
#X connect 46 0 36 0;
#X connect 46 0 108 0;
#X connect 46 1 37 0;
#X connect 46 1 109 0;
#X connect 47 0 113 0;
#X connect 50 0 18 0;
#X connect 51 0 3 0;
#X connect 52 0 55 0;
#X connect 52 0 67 0;
#X connect 53 0 114 0;
#X connect 54 0 8 0;
#X connect 55 0 11 0;
#X connect 57 0 56 1;
#X connect 58 0 57 0;
#X connect 59 0 73 0;
#X connect 60 0 75 0;
#X connect 60 1 76 0;
#X connect 60 1 154 0;
#X connect 61 0 62 0;
#X connect 61 0 64 0;
#X connect 61 0 68 0;
#X connect 62 0 61 1;
#X connect 63 0 66 0;
#X connect 63 0 96 0;
#X connect 63 0 117 0;
#X connect 63 0 119 0;
#X connect 65 0 74 0;
#X connect 66 0 67 0;
#X connect 66 1 103 0;
#X connect 67 0 44 1;
#X connect 68 0 104 0;
#X connect 68 1 104 0;
#X connect 68 2 105 0;
#X connect 68 3 103 0;
#X connect 69 0 73 1;
#X connect 70 0 71 0;
#X connect 71 0 73 1;
#X connect 72 0 63 0;
#X connect 72 1 56 0;
#X connect 72 2 58 0;
#X connect 73 0 69 0;
#X connect 73 0 70 0;
#X connect 73 0 72 0;
#X connect 74 0 61 0;
#X connect 75 0 59 0;
#X connect 77 0 78 0;
#X connect 77 0 81 0;
#X connect 77 0 85 0;
#X connect 78 0 77 1;
#X connect 79 0 78 0;
#X connect 80 0 83 0;
#X connect 80 0 93 0;
#X connect 80 0 49 0;
#X connect 80 0 118 0;
#X connect 80 0 147 1;
#X connect 80 0 153 0;
#X connect 82 0 86 0;
#X connect 83 0 84 0;
#X connect 83 1 99 0;
#X connect 84 0 44 1;
#X connect 85 0 100 0;
#X connect 85 1 100 0;
#X connect 85 2 79 0;
#X connect 85 2 99 0;
#X connect 86 0 77 0;
#X connect 87 0 80 0;
#X connect 88 0 92 0;
#X connect 89 0 92 1;
#X connect 90 0 91 0;
#X connect 91 0 92 1;
#X connect 92 0 89 0;
#X connect 92 0 90 0;
#X connect 92 0 87 0;
#X connect 93 0 94 0;
#X connect 93 1 95 0;
#X connect 94 0 75 1;
#X connect 95 0 75 1;
#X connect 96 0 97 0;
#X connect 96 1 98 0;
#X connect 97 0 154 1;
#X connect 98 0 154 1;
#X connect 99 0 44 1;
#X connect 100 0 44 1;
#X connect 101 0 102 0;
#X connect 102 0 80 0;
#X connect 103 0 44 1;
#X connect 104 0 44 1;
#X connect 105 0 62 0;
#X connect 106 0 107 0;
#X connect 107 0 111 0;
#X connect 107 0 113 1;
#X connect 108 0 107 1;
#X connect 109 0 107 1;
#X connect 110 0 44 1;
#X connect 111 0 110 0;
#X connect 111 1 112 0;
#X connect 112 0 44 1;
#X connect 113 0 60 0;
#X connect 113 0 101 0;
#X connect 114 0 148 0;
#X connect 114 0 147 0;
#X connect 115 0 5 0;
#X connect 116 0 22 0;
#X connect 117 0 65 0;
#X connect 117 1 105 0;
#X connect 118 0 82 0;
#X connect 118 1 79 0;
#X connect 119 0 129 0;
#X connect 119 1 123 0;
#X connect 120 0 122 0;
#X connect 121 0 122 0;
#X connect 123 0 124 0;
#X connect 123 2 125 0;
#X connect 124 0 122 0;
#X connect 125 0 122 0;
#X connect 126 0 127 0;
#X connect 128 0 122 0;
#X connect 129 0 132 0;
#X connect 129 1 130 0;
#X connect 129 2 120 0;
#X connect 129 3 121 0;
#X connect 129 4 128 0;
#X connect 130 0 122 0;
#X connect 131 0 40 0;
#X connect 132 0 126 0;
#X connect 133 0 140 0;
#X connect 133 1 136 0;
#X connect 134 0 122 0;
#X connect 135 0 122 0;
#X connect 136 0 137 0;
#X connect 136 2 138 0;
#X connect 137 0 122 0;
#X connect 138 0 122 0;
#X connect 139 0 122 0;
#X connect 140 0 132 0;
#X connect 140 1 141 0;
#X connect 140 2 134 0;
#X connect 140 3 135 0;
#X connect 140 4 139 0;
#X connect 141 0 122 0;
#X connect 142 0 143 0;
#X connect 142 1 144 0;
#X connect 142 2 145 0;
#X connect 142 3 146 0;
#X connect 143 0 132 1;
#X connect 144 0 132 1;
#X connect 145 0 132 1;
#X connect 146 0 132 1;
#X connect 147 0 152 0;
#X connect 148 0 20 0;
#X connect 149 0 148 1;
#X connect 150 0 148 1;
#X connect 151 0 149 0;
#X connect 151 1 150 0;
#X connect 152 0 17 0;
#X connect 153 0 151 0;
#X connect 154 0 88 0;
#X restore 590 693 pd Labels;
#X msg 172 291 1, f 2;
#X msg 198 291 2, f 2;
#X msg 225 291 3, f 2;
#X msg 252 291 4, f 2;
#X msg 279 292 5, f 2;
#X msg 305 292 6, f 2;
#X msg 332 292 7, f 2;
#X msg 359 292 8, f 2;
#X msg 388 292 9, f 2;
#X msg 414 292 10, f 2;
#X obj 331 331 s morph-preset;
#X obj 22 301 r loadbang-\$1;
#X obj 297 317 f;
#X obj 526 465 s rackMsgs;
#X obj 23 239 r rackLoadPreset;
#X obj 23 260 t b;
#X obj 23 281 delay 100;
#X msg 111 73 1;
#X msg 56 67 0;
#X obj 23 39 unpack 0 0;
#X obj 111 53 sel 100;
#X obj 71 504 morpher p13 \$1;
#X obj 185 504 morpher p14 \$1;
#X obj 299 504 morpher p15 \$1;
#X obj 413 504 morpher p16 \$1;
#X obj 507 185 sel \$1;
#X obj 507 167 unpack s s;
#X obj 507 149 r activePage;
#X msg 507 214 1, f 1;
#X msg 540 213 0, f 1;
#X obj 526 403 f;
#X msg 564 388 0, f 1;
#X msg 584 388 1, f 1;
#X msg 624 388 3, f 1;
#X msg 604 388 2, f 1;
#X msg 526 427 selectpage \$1;
#X msg 14 140 1, f 2;
#X obj 564 308 sel pg_map1 pg_map2 pg_map3 pg_map4, f 14;
#X obj 121 166 i;
#X obj 526 446 spigot, f 21;
#X msg 648 199 1, f 1;
#X msg 648 224 0, f 1;
#X obj 218 268 sel 61 63 66 68 70 73 75 78 80 82;
#X obj 23 115 sel 60 62 64 65 67 69 71 72 74 76 77 79 81 83;
#X msg 56 140 3, f 2;
#X msg 77 140 4, f 2;
#X msg 98 140 5, f 2;
#X msg 119 140 6, f 2;
#X msg 140 140 7, f 2;
#X msg 161 140 8, f 2;
#X msg 181 140 16, f 2;
#X msg 201 140 32, f 2;
#X msg 223 140 64, f 2;
#X msg 243 140 128, f 2;
#X msg 263 140 256, f 2;
#X msg 283 140 512, f 2;
#N canvas 4 50 450 300 timing 0;
#X obj 140 11 inlet;
#X obj 120 241 outlet;
#X obj 221 146 f;
#X obj 221 169 spigot 0;
#X msg 153 155 1;
#X obj 121 135 delay 50;
#X msg 121 156 0;
#X obj 236 25 r master-ticks;
#X obj 242 71 f;
#X obj 273 71 + 1;
#X msg 242 118 1;
#X obj 242 48 sel 23;
#X obj 150 103 r signature;
#X obj 242 92 sel 4;
#X obj 302 78 r signature_set;
#X obj 311 108 r loadbang-\$1;
#X msg 311 152 61;
#X obj 311 129 delay 200;
#X connect 0 0 2 1;
#X connect 0 0 4 0;
#X connect 2 0 3 0;
#X connect 3 0 5 0;
#X connect 3 0 1 0;
#X connect 4 0 3 1;
#X connect 5 0 6 0;
#X connect 6 0 3 1;
#X connect 7 0 11 0;
#X connect 8 0 9 0;
#X connect 8 0 13 0;
#X connect 9 0 8 1;
#X connect 10 0 8 1;
#X connect 11 0 8 0;
#X connect 12 0 10 0;
#X connect 13 0 2 0;
#X connect 13 0 10 0;
#X connect 14 0 13 1;
#X connect 15 0 17 0;
#X connect 16 0 2 1;
#X connect 17 0 16 0;
#X restore 290 224 pd timing;
#X obj 23 92 spigot 0;
#X msg 22 323 61;
#X obj 392 207 r loadbang-\$1;
#X obj 392 228 delay 500;
#X connect 0 0 49 0;
#X connect 13 0 68 0;
#X connect 16 0 10 0;
#X connect 16 1 11 0;
#X connect 17 0 10 0;
#X connect 17 1 11 0;
#X connect 18 0 10 0;
#X connect 18 1 11 0;
#X connect 19 0 10 0;
#X connect 19 1 11 0;
#X connect 19 2 60 0;
#X connect 20 0 10 0;
#X connect 20 1 11 0;
#X connect 21 0 10 0;
#X connect 21 1 11 0;
#X connect 22 0 10 0;
#X connect 22 1 11 0;
#X connect 23 0 10 0;
#X connect 23 1 11 0;
#X connect 24 0 10 0;
#X connect 24 1 11 0;
#X connect 25 0 10 0;
#X connect 25 1 11 0;
#X connect 26 0 10 0;
#X connect 26 1 11 0;
#X connect 27 0 10 0;
#X connect 27 1 11 0;
#X connect 30 0 42 0;
#X connect 31 0 42 0;
#X connect 32 0 42 0;
#X connect 33 0 42 0;
#X connect 34 0 42 0;
#X connect 35 0 42 0;
#X connect 36 0 42 0;
#X connect 37 0 42 0;
#X connect 38 0 42 0;
#X connect 39 0 42 0;
#X connect 41 0 88 0;
#X connect 42 0 14 0;
#X connect 42 0 40 0;
#X connect 44 0 45 0;
#X connect 45 0 46 0;
#X connect 46 0 88 0;
#X connect 47 0 87 1;
#X connect 48 0 87 1;
#X connect 49 0 87 0;
#X connect 49 1 50 0;
#X connect 50 0 47 0;
#X connect 50 1 48 0;
#X connect 51 0 10 0;
#X connect 51 1 11 0;
#X connect 52 0 10 0;
#X connect 52 1 11 0;
#X connect 53 0 10 0;
#X connect 53 1 11 0;
#X connect 54 0 10 0;
#X connect 54 1 11 0;
#X connect 55 0 58 0;
#X connect 55 0 70 0;
#X connect 55 1 59 0;
#X connect 55 1 71 0;
#X connect 56 0 55 0;
#X connect 56 1 67 0;
#X connect 57 0 56 0;
#X connect 60 0 65 0;
#X connect 61 0 60 1;
#X connect 62 0 60 1;
#X connect 63 0 60 1;
#X connect 64 0 60 1;
#X connect 65 0 69 0;
#X connect 66 0 68 0;
#X connect 67 0 61 0;
#X connect 67 1 62 0;
#X connect 67 2 64 0;
#X connect 67 3 63 0;
#X connect 68 0 28 0;
#X connect 69 0 43 0;
#X connect 70 0 69 1;
#X connect 71 0 69 1;
#X connect 72 0 30 0;
#X connect 72 1 31 0;
#X connect 72 2 32 0;
#X connect 72 3 33 0;
#X connect 72 4 34 0;
#X connect 72 5 35 0;
#X connect 72 6 36 0;
#X connect 72 7 37 0;
#X connect 72 8 38 0;
#X connect 72 9 39 0;
#X connect 73 0 66 0;
#X connect 73 1 13 0;
#X connect 73 2 74 0;
#X connect 73 3 75 0;
#X connect 73 4 76 0;
#X connect 73 5 77 0;
#X connect 73 6 78 0;
#X connect 73 7 79 0;
#X connect 73 8 80 0;
#X connect 73 9 81 0;
#X connect 73 10 82 0;
#X connect 73 11 83 0;
#X connect 73 12 84 0;
#X connect 73 13 85 0;
#X connect 73 14 86 0;
#X connect 74 0 68 0;
#X connect 75 0 68 0;
#X connect 76 0 68 0;
#X connect 77 0 68 0;
#X connect 78 0 68 0;
#X connect 79 0 68 0;
#X connect 80 0 68 0;
#X connect 81 0 68 0;
#X connect 82 0 68 0;
#X connect 83 0 68 0;
#X connect 84 0 68 0;
#X connect 85 0 68 0;
#X connect 86 0 72 0;
#X connect 87 0 73 0;
#X connect 88 0 73 0;
#X connect 89 0 90 0;
#X connect 90 0 30 0;
