#N canvas 1122 136 711 763 10;
#X obj 201 295 / 100;
#X obj 152 309 *;
#X obj 210 415 / 100;
#X obj 152 429 +;
#X obj 154 690 outlet msg;
#X obj 58 690 outlet ctrl;
#X obj 210 387 r m_offset_\$1-\$2;
#X obj 201 271 r m_amt_\$1-\$2;
#X obj 58 407 r m_bus_\$1-\$2;
#X obj 152 174 r m_\$1-\$2;
#X obj 152 272 / 100;
#X obj 58 513 pack 0 0;
#X obj 103 577 < 10;
#X obj 58 634 spigot 0;
#X obj 199 591 != 1;
#X obj 154 634 spigot 0;
#X obj 152 454 clip 0 1;
#X obj 152 475 change -1;
#X obj 153 562 pack s 0 0;
#X obj 152 499 t b f, f 10;
#X msg 154 661 modulate \$1 \$2 \$3;
#X obj 153 529 symbol \$2;
#X floatatom 152 358 11 0 0 0 - - -;
#X obj 329 344 line;
#X obj 453 119 r morph-length;
#X floatatom 454 227 5 0 0 0 - - -;
#X floatatom 561 182 5 0 0 0 - - -;
#X floatatom 546 261 6 0 0 0 - - -;
#X obj 546 284 f;
#X obj 329 298 pack f f;
#X obj 546 219 i;
#X obj 546 197 /;
#X msg 453 183 60000;
#X obj 546 240 * 1;
#X text 389 206 Morph Time;
#X obj 330 513 symbol \$1;
#X text 338 587 Send Morph Parameters;
#X obj 329 112 r \$0-load-preset;
#X floatatom 329 129 5 0 0 0 - - -;
#X msg 329 321 \$1 \$2;
#X obj 453 142 t b f;
#X obj 330 613 s rackMsgs;
#X obj 393 513 symbol \$2;
#X obj 330 371 bng 15 250 50 0 empty empty empty 17 7 0 10 -262144
-1 -1;
#X msg 330 564 setparam \$2 m_\$1 \$3;
#X obj 330 491 t b f, f 22;
#X obj 457 513 f;
#X obj 330 535 pack s s 0, f 22;
#X obj 330 470 * 10;
#X obj 330 449 / 1000;
#X obj 453 38 r loadbang-\$2;
#X obj 453 59 delay 50;
#N canvas 152 121 870 654 store 0;
#X obj 356 215 r rackSavePreset;
#N canvas 548 401 803 448 presetDir 0;
#X obj 88 153 s rackMsgs;
#X obj 88 106 symbol \$1;
#X msg 88 128 getsetting currentPreset Defaut rackCurrentPreset-\$1
;
#X obj 88 181 r rackCurrentPreset;
#X obj 215 181 r rackCurrentPreset-\$1;
#X obj 87 215 symbol \$1;
#X obj 442 163 s rackMsgs;
#X obj 442 113 symbol \$1;
#X obj 442 186 r rackDataDir;
#X obj 535 189 r rackDataDir-\$1;
#X msg 442 138 getsetting dataDir ./data rackDataDir-\$1;
#X obj 441 219 symbol \$1;
#X obj 255 210 symbol \$1;
#X obj 205 76 t b b b;
#X obj 444 71 bng 15 250 50 0 empty empty empty 17 7 0 10 -262144 -1
-1;
#X obj 71 67 bng 15 250 50 0 empty empty empty 17 7 0 10 -262144 -1
-1;
#X obj 114 243 t b b s;
#X obj 255 232 t b s;
#X obj 111 387 outlet;
#X obj 219 386 outlet;
#X text 81 25 track preset directory and bang on change;
#X obj 249 276 pack s s s;
#X obj 342 41 r loadbang-\$2;
#X obj 342 62 delay 100;
#X obj 142 62 inlet;
#X obj 205 43 r morph-preset;
#X connect 1 0 2 0;
#X connect 2 0 0 0;
#X connect 3 0 5 0;
#X connect 4 0 5 0;
#X connect 5 0 16 0;
#X connect 7 0 10 0;
#X connect 8 0 11 0;
#X connect 9 0 11 0;
#X connect 10 0 6 0;
#X connect 11 0 21 0;
#X connect 12 0 17 0;
#X connect 13 0 1 0;
#X connect 13 1 12 0;
#X connect 13 2 7 0;
#X connect 14 0 7 0;
#X connect 15 0 1 0;
#X connect 16 0 18 0;
#X connect 16 1 21 0;
#X connect 16 2 21 1;
#X connect 17 0 21 0;
#X connect 17 1 21 2;
#X connect 21 0 19 0;
#X connect 22 0 23 0;
#X connect 23 0 13 0;
#X connect 24 0 13 0;
#X restore 238 46 pd presetDir;
#X obj 301 132 symbol \$1;
#X obj 238 203 list append;
#X obj 238 88 list;
#X obj 635 421 r morph-trig;
#X obj 636 566 s \$0-load-preset;
#X obj 732 475 sel 1;
#X msg 732 504 0;
#X msg 766 504 1;
#X floatatom 636 497 5 0 0 0 - - -;
#X obj 636 541 array get \$0-presets 0 1;
#X obj 635 474 - 1;
#X obj 636 518 spigot 1;
#X obj 487 511 array set \$0-presets;
#X obj 522 421 r m_\$1-\$2;
#X obj 521 483 f;
#X obj 521 446 r \$0-test_time;
#X msg 357 322 write \$1/presets/\$2/\$4.txt cr;
#X msg 357 347 read \$1/presets/\$2/\$4.txt cr;
#X obj 107 334 r save-preset;
#X obj 63 497 f;
#X obj 89 497 f;
#X obj 115 497 f;
#X obj 142 497 f;
#X obj 168 497 f;
#X obj 194 497 f;
#X obj 221 497 f;
#X obj 247 497 f;
#X obj 273 497 f;
#X obj 300 497 f;
#X obj 63 451 t b;
#X obj 89 451 t b;
#X obj 115 451 t b;
#X obj 142 451 t b;
#X obj 168 451 t b;
#X obj 194 451 t b;
#X obj 221 451 t b;
#X obj 247 451 t b;
#X obj 273 451 t b;
#X obj 300 451 t b;
#X floatatom 553 483 5 0 0 0 - - -;
#X obj 357 371 array define \$0-presets;
#X obj 449 131 r rackLoadPreset;
#X obj 464 215 r rackSaveCurrentPreset;
#X obj 211 308 list, f 5;
#X obj 211 333 list, f 5;
#X obj 62 359 r morph-preset;
#X obj 62 380 spigot 0;
#X obj 301 88 t b;
#X obj 211 282 delay 500;
#X obj 301 110 delay 50;
#X obj 210 166 delay 1000;
#X obj 211 229 t b b;
#X obj 449 152 t b b b;
#X msg 635 180 1;
#X obj 541 166 delay 1100;
#X obj 732 451 r save-preset;
#X obj 62 401 pipe 250;
#X obj 62 424 sel 1 2 3 4 5 6 7 8 9 10, f 45;
#X obj 737 374 r loadbang-\$2;
#X obj 737 395 delay 500;
#X msg 737 416 1;
#X connect 0 0 53 0;
#X connect 1 0 4 0;
#X connect 1 0 49 0;
#X connect 1 1 4 1;
#X connect 2 0 3 1;
#X connect 3 0 45 1;
#X connect 3 0 46 1;
#X connect 4 0 3 0;
#X connect 5 0 12 0;
#X connect 7 0 8 0;
#X connect 7 1 9 0;
#X connect 8 0 13 1;
#X connect 9 0 13 1;
#X connect 10 0 14 1;
#X connect 10 0 13 0;
#X connect 11 0 6 0;
#X connect 12 0 10 0;
#X connect 13 0 11 0;
#X connect 15 0 16 0;
#X connect 16 0 21 1;
#X connect 16 0 30 1;
#X connect 16 0 29 1;
#X connect 16 0 28 1;
#X connect 16 0 27 1;
#X connect 16 0 26 1;
#X connect 16 0 25 1;
#X connect 16 0 24 1;
#X connect 16 0 23 1;
#X connect 16 0 22 1;
#X connect 16 0 41 0;
#X connect 17 0 16 0;
#X connect 18 0 42 0;
#X connect 19 0 42 0;
#X connect 20 0 48 1;
#X connect 21 0 14 0;
#X connect 22 0 14 0;
#X connect 23 0 14 0;
#X connect 24 0 14 0;
#X connect 25 0 14 0;
#X connect 26 0 14 0;
#X connect 27 0 14 0;
#X connect 28 0 14 0;
#X connect 29 0 14 0;
#X connect 30 0 14 0;
#X connect 31 0 21 0;
#X connect 32 0 22 0;
#X connect 33 0 23 0;
#X connect 34 0 24 0;
#X connect 35 0 25 0;
#X connect 36 0 26 0;
#X connect 37 0 27 0;
#X connect 38 0 28 0;
#X connect 39 0 29 0;
#X connect 40 0 30 0;
#X connect 43 0 54 0;
#X connect 44 0 53 0;
#X connect 45 0 18 0;
#X connect 46 0 19 0;
#X connect 47 0 48 0;
#X connect 48 0 58 0;
#X connect 49 0 51 0;
#X connect 50 0 45 0;
#X connect 51 0 2 0;
#X connect 52 0 46 0;
#X connect 53 0 50 0;
#X connect 53 1 1 0;
#X connect 54 1 52 0;
#X connect 54 2 56 0;
#X connect 55 0 12 0;
#X connect 56 0 55 0;
#X connect 57 0 7 0;
#X connect 58 0 59 0;
#X connect 59 0 31 0;
#X connect 59 1 32 0;
#X connect 59 2 33 0;
#X connect 59 3 34 0;
#X connect 59 4 35 0;
#X connect 59 5 36 0;
#X connect 59 6 37 0;
#X connect 59 7 38 0;
#X connect 59 8 39 0;
#X connect 59 9 40 0;
#X connect 60 0 61 0;
#X connect 61 0 62 0;
#X connect 62 0 12 0;
#X restore 444 381 pd store values;
#X obj 329 196 ==;
#X obj 329 260 f;
#X obj 329 217 sel 1, f 8;
#X obj 329 238 t b;
#X obj 422 273 outlet;
#X obj 329 173 spigot 0, f 10;
#X msg 386 128 1;
#X obj 386 149 pipe 200;
#X obj 388 243 delay 100;
#X msg 389 273 0;
#X obj 517 59 r rackLoadPreset;
#X obj 561 75 t b;
#X obj 561 162 f;
#X obj 485 82 r signature;
#X obj 561 140 r master-bpm;
#X msg 453 82 4;
#X connect 0 0 1 1;
#X connect 1 0 3 0;
#X connect 2 0 3 1;
#X connect 3 0 16 0;
#X connect 6 0 2 0;
#X connect 7 0 0 0;
#X connect 8 0 11 0;
#X connect 8 0 12 0;
#X connect 8 0 18 1;
#X connect 9 0 10 0;
#X connect 10 0 1 0;
#X connect 11 0 13 0;
#X connect 12 0 13 1;
#X connect 12 0 14 0;
#X connect 13 0 5 0;
#X connect 14 0 15 1;
#X connect 15 0 20 0;
#X connect 16 0 17 0;
#X connect 17 0 19 0;
#X connect 18 0 15 0;
#X connect 19 0 11 0;
#X connect 19 0 21 0;
#X connect 19 1 18 2;
#X connect 19 1 11 1;
#X connect 20 0 4 0;
#X connect 21 0 18 0;
#X connect 22 0 43 0;
#X connect 22 0 10 0;
#X connect 23 0 58 0;
#X connect 23 0 22 0;
#X connect 24 0 40 0;
#X connect 25 0 33 1;
#X connect 26 0 31 1;
#X connect 27 0 28 0;
#X connect 28 0 29 1;
#X connect 29 0 39 0;
#X connect 30 0 33 0;
#X connect 31 0 30 0;
#X connect 32 0 31 0;
#X connect 33 0 27 0;
#X connect 35 0 47 0;
#X connect 37 0 38 0;
#X connect 37 0 54 1;
#X connect 37 0 59 0;
#X connect 38 0 29 0;
#X connect 38 0 53 1;
#X connect 39 0 23 0;
#X connect 40 0 32 0;
#X connect 40 1 25 0;
#X connect 42 0 47 1;
#X connect 44 0 41 0;
#X connect 45 0 35 0;
#X connect 45 0 42 0;
#X connect 45 1 46 0;
#X connect 46 0 47 2;
#X connect 47 0 44 0;
#X connect 48 0 45 0;
#X connect 49 0 48 0;
#X connect 50 0 51 0;
#X connect 50 0 32 0;
#X connect 51 0 68 0;
#X connect 53 0 55 0;
#X connect 54 0 49 0;
#X connect 55 0 56 0;
#X connect 56 0 54 0;
#X connect 56 0 61 0;
#X connect 58 0 53 0;
#X connect 59 0 60 0;
#X connect 60 0 58 1;
#X connect 61 0 62 0;
#X connect 61 0 57 0;
#X connect 62 0 58 1;
#X connect 63 0 64 0;
#X connect 64 0 65 0;
#X connect 65 0 26 0;
#X connect 66 0 32 0;
#X connect 67 0 65 0;
#X connect 68 0 25 0;
