#N canvas 963 178 575 697 10;
#X obj 154 342 pack f f f;
#X obj 154 367 route 1 2 3 4;
#X obj 154 312 poly 4 1;
#X obj 239 623 outlet~;
#X obj 86 533 as-simple \$1;
#X obj 296 532 as-simple \$1;
#X obj 196 532 as-simple \$1;
#X obj 402 532 as-simple \$1;
#X obj 106 55 inlet notes;
#X obj 302 68 inlet ctrl;
#N canvas 324 629 450 300 route 0;
#X obj 69 97 unpack 0 0 0;
#X obj 68 68 t l l;
#X obj 68 197 list;
#X obj 139 144 t b;
#X obj 139 123 route 1 0;
#X obj 226 163 unpack 0 0 0;
#X obj 226 194 pack 0 0 0;
#X obj 68 19 inlet msg;
#X obj 68 218 outlet global;
#X obj 226 215 outlet voice;
#X obj 187 162 - 1;
#X connect 0 2 4 0;
#X connect 1 0 0 0;
#X connect 1 1 2 1;
#X connect 1 1 5 0;
#X connect 2 0 8 0;
#X connect 3 0 2 0;
#X connect 4 0 3 0;
#X connect 4 1 3 0;
#X connect 4 2 10 0;
#X connect 5 0 6 1;
#X connect 5 1 6 2;
#X connect 6 0 9 0;
#X connect 7 0 1 0;
#X connect 10 0 6 0;
#X restore 171 97 pd route;
#N canvas 324 629 450 300 route 0;
#X obj 69 97 unpack 0 0 0;
#X obj 68 68 t l l;
#X obj 68 197 list;
#X obj 139 144 t b;
#X obj 139 123 route 1 0;
#X obj 234 171 unpack 0 0 0;
#X obj 234 202 pack 0 0 0;
#X obj 68 19 inlet msg;
#X obj 68 218 outlet global;
#X obj 234 223 outlet voice;
#X obj 190 158 - 1;
#X connect 0 2 4 0;
#X connect 1 0 0 0;
#X connect 1 1 2 1;
#X connect 1 1 5 0;
#X connect 2 0 8 0;
#X connect 3 0 2 0;
#X connect 4 0 3 0;
#X connect 4 1 3 0;
#X connect 4 2 10 0;
#X connect 5 0 6 1;
#X connect 5 1 6 2;
#X connect 6 0 9 0;
#X connect 7 0 1 0;
#X connect 10 0 6 0;
#X restore 317 132 pd route;
#X msg 57 192 stop;
#X obj 420 276 route 1 2 3 4;
#X obj 227 133 unpack 0 0 0;
#X obj 227 154 sel 123;
#X msg 227 175 stop;
#X obj 241 574 *~ 1;
#X obj 241 595 clip~ -1 1;
#X obj 380 598 r volume-\$1;
#X obj 380 619 / 100;
#X obj 53 123 r auxIn-\$1;
#X obj 53 144 sel 1;
#X connect 0 0 1 0;
#X connect 1 0 4 0;
#X connect 1 1 6 0;
#X connect 1 2 5 0;
#X connect 1 3 7 0;
#X connect 2 0 0 0;
#X connect 2 1 0 1;
#X connect 2 2 0 2;
#X connect 4 0 17 0;
#X connect 5 0 17 0;
#X connect 6 0 17 0;
#X connect 7 0 17 0;
#X connect 8 0 2 0;
#X connect 9 0 11 0;
#X connect 9 0 14 0;
#X connect 10 0 2 0;
#X connect 10 1 1 0;
#X connect 11 0 4 1;
#X connect 11 0 7 1;
#X connect 11 0 6 1;
#X connect 11 0 5 1;
#X connect 11 1 13 0;
#X connect 12 0 2 0;
#X connect 13 0 4 1;
#X connect 13 1 6 1;
#X connect 13 2 5 1;
#X connect 13 3 7 1;
#X connect 14 0 15 0;
#X connect 15 0 16 0;
#X connect 16 0 2 0;
#X connect 17 0 18 0;
#X connect 18 0 3 0;
#X connect 19 0 20 0;
#X connect 20 0 17 1;
#X connect 21 0 22 0;
#X connect 22 0 12 0;
