#N canvas 321 50 858 660 12;
#X obj 360 173 inlet;
#X obj 421 203 inlet;
#X text 356 148 trigger;
#X obj 360 201 sel 0;
#X obj 418 420 t b;
#X obj 316 405 f \$1;
#X obj 477 202 inlet;
#X obj 480 326 del \$2;
#X obj 504 349 f \$4;
#X obj 543 424 pack 0 \$3;
#X obj 539 202 inlet;
#X obj 601 202 inlet;
#X obj 674 201 inlet;
#X msg 480 298 stop;
#X obj 438 495 pack 0 \$5;
#X text 421 181 level;
#X obj 543 400 * \$1;
#X obj 335 618 outlet~;
#X text 431 521 on release ramp;
#X text 432 538 back to zero;
#X obj 504 374 * 0.01;
#X text 473 180 attack;
#X text 540 179 decay;
#X text 594 180 sustain;
#X text 671 180 release;
#X text 330 297 attack;
#X obj 332 318 moses;
#X obj 368 387 t b b;
#X text 495 629 Updated for Pd version 0.37;
#X text 425 165 peak;
#X obj 319 450 pack 0 \$2;
#X msg 279 429 0;
#X text 306 479 ... then;
#X obj 337 593 vline~;
#X obj 101 101 cnv 6 10 4 empty empty empty 20 12 0 14 -257985 -66577
0;
#X obj 115 101 cnv 6 10 4 empty empty empty 20 12 0 14 -258113 -66577
0;
#X obj 130 101 cnv 6 10 4 empty empty empty 20 12 0 14 -203904 -66577
0;
#X obj 144 101 cnv 6 10 4 empty empty empty 20 12 0 14 -203904 -66577
0;
#X obj 159 101 cnv 6 10 4 empty empty empty 20 12 0 14 -203904 -66577
0;
#X obj 175 100 cnv 6 10 4 empty empty empty 0 0 0 8 -203904 -1 0;
#X text 433 148 \$1;
#X text 490 158 \$2;
#X text 548 161 \$3;
#X text 610 163 \$4;
#X text 685 161 \$5;
#X text 443 80 adsr+ 1 0 33 100 33;
#X obj 174 105 tgl 8 1 empty empty CYCLE -9 0 1 4 -262144 -1 -1 0 1
;
#X obj 735 501 snapshot~;
#X obj 735 466 metro 1;
#X obj 733 368 loadbang;
#X obj 735 532 sel 0;
#X obj 735 592 spigot;
#X msg 735 562 bang;
#X obj 661 321 cnv 5 10 10 empty empty EOC 0 5 1 7 -228856 -66577 0
;
#X obj 735 622 outlet;
#X msg 733 399 0;
#X msg 258 204 122;
#X connect 0 0 3 0;
#X connect 1 0 5 1;
#X connect 1 0 16 1;
#X connect 3 0 13 0;
#X connect 3 0 14 0;
#X connect 3 1 26 0;
#X connect 4 0 5 0;
#X connect 4 0 7 0;
#X connect 5 0 30 0;
#X connect 6 0 7 1;
#X connect 6 0 30 1;
#X connect 7 0 8 0;
#X connect 8 0 20 0;
#X connect 9 0 33 0;
#X connect 10 0 9 1;
#X connect 11 0 8 1;
#X connect 12 0 14 1;
#X connect 13 0 7 0;
#X connect 14 0 33 0;
#X connect 16 0 9 0;
#X connect 20 0 16 0;
#X connect 26 0 27 0;
#X connect 26 1 4 0;
#X connect 27 0 4 0;
#X connect 27 1 31 0;
#X connect 30 0 33 0;
#X connect 31 0 33 0;
#X connect 33 0 17 0;
#X connect 33 0 47 0;
#X connect 46 0 51 1;
#X connect 46 0 48 0;
#X connect 47 0 50 0;
#X connect 48 0 47 0;
#X connect 49 0 55 0;
#X connect 50 0 52 0;
#X connect 51 0 54 0;
#X connect 51 0 56 0;
#X connect 52 0 51 0;
#X connect 55 0 46 0;
#X connect 56 0 3 0;
#X coords 0 -1 1 1 85 15 2 100 100;
