#N canvas 260 168 1210 689 12;
#X obj 377 152 inlet;
#X obj 436 152 inlet;
#X text 373 127 trigger;
#X obj 377 180 sel 0;
#X obj 343 386 t b;
#X obj 241 371 f \$1;
#X obj 492 151 inlet;
#X obj 438 281 del \$2;
#X obj 462 304 f \$4;
#X obj 501 379 pack 0 \$3;
#X obj 554 151 inlet;
#X obj 616 151 inlet;
#X obj 689 150 inlet;
#X msg 438 253 stop;
#X obj 438 495 pack 0 \$5;
#X text 436 130 level;
#X obj 501 355 * \$1;
#X obj 335 618 outlet~;
#X text 431 521 on release ramp;
#X text 432 538 back to zero;
#X obj 462 329 * 0.01;
#X text 488 129 attack;
#X text 555 128 decay;
#X text 609 129 sustain;
#X text 686 129 release;
#X text 301 302 attack;
#X obj 303 323 moses;
#X obj 293 353 t b b;
#X text 495 629 Updated for Pd version 0.37;
#X text 440 114 peak;
#X obj 242 394 pack 0 \$2;
#X msg 204 395 0;
#X text 231 445 ... then;
#X obj 337 593 vline~;
#X obj 101 101 cnv 6 10 4 empty empty empty 20 12 0 14 -257985 -66577
0;
#X obj 115 101 cnv 6 10 4 empty empty empty 20 12 0 14 -258113 -66577
0;
#X obj 130 101 cnv 6 10 4 empty empty empty 20 12 0 14 -203904 -66577
0;
#X obj 144 101 cnv 6 10 4 empty empty empty 20 12 0 14 -203904 -66577
0;
#X obj 159 101 cnv 6 10 4 empty empty empty 20 12 0 14 -203904 -66577
0;
#X obj 173 101 cnv 6 10 4 empty empty empty 20 12 0 14 -203904 -66577
0;
#X connect 0 0 3 0;
#X connect 1 0 5 1;
#X connect 1 0 16 1;
#X connect 3 0 13 0;
#X connect 3 0 14 0;
#X connect 3 1 26 0;
#X connect 4 0 5 0;
#X connect 4 0 7 0;
#X connect 5 0 30 0;
#X connect 6 0 7 1;
#X connect 6 0 30 1;
#X connect 7 0 8 0;
#X connect 8 0 20 0;
#X connect 9 0 33 0;
#X connect 10 0 9 1;
#X connect 11 0 8 1;
#X connect 12 0 14 1;
#X connect 13 0 7 0;
#X connect 14 0 33 0;
#X connect 16 0 9 0;
#X connect 20 0 16 0;
#X connect 26 0 27 0;
#X connect 26 1 4 0;
#X connect 27 0 4 0;
#X connect 27 1 31 0;
#X connect 30 0 33 0;
#X connect 31 0 33 0;
#X connect 33 0 17 0;
#X coords 0 -1 1 1 85 15 2 100 100;
