#N canvas 415 65 1501 588 10;
#X obj -145 -257 cnv 15 2555 2222 empty empty empty 20 12 0 14 -99865
-66577 0;
#N canvas 275 349 791 386 delay 0;
#X obj 101 100 cnv 15 97 103 empty empty empty 20 12 0 14 -33289 -66577
0;
#X obj 103 102 cnv 15 93 99 empty empty empty 20 12 0 14 -228856 -66577
0;
#X floatatom 291 284 4 0 999 0 - - -;
#X obj 2 158 *~;
#X obj 120 134 hsl 45 8 0.009 0.99 0 0 empty empty empty -2 -8 0 10
-257985 -1 -1 3099 1;
#X obj 116 102 hsl 74 9 5 1000 0 0 empty empty dly2 4 4 0 7 -257985
-1 -1 2898 1;
#X text 18 285 dly;
#X msg 14 85 0.7;
#X msg 16 63 400, f 5;
#X obj 33 40 loadbang;
#X obj 87 232 line~;
#X msg 90 212 \$1 50;
#X obj 272 234 f;
#X obj 322 234 f;
#X obj 348 234 f;
#X obj 374 235 f, f 5;
#X obj 85 253 vd~ delay2;
#X obj 1 20 delwrite~ delay2 1000;
#X obj 104 105 vsl 8 90 0 1 0 1 m1 m1r empty 0 -8 0 8 -191407 -1 -1
8900 1;
#X obj 125 269 *~;
#X obj 119 191 hsl 72 8 0 -1 0 1 m6 m6r empty -2 -6 0 8 -262144 -1
-1 4782 1;
#X obj 176 285 *~;
#X obj 285 319 *~;
#X obj 188 267 + 1;
#X obj 213 267 * -1;
#X obj 156 270 *~;
#X obj 175 302 throw~ sumL;
#X obj 382 337 throw~ sumR;
#N canvas 519 69 840 699 :: 0;
#X obj 102 102 hradio 10 1 0 5 empty empty empty 0 -8 0 10 -257985
-1 -1 3;
#X obj 290 294 outlet;
#X floatatom 256 108 5 0 0 0 - - -;
#X obj 212 161 == 0;
#X obj 245 161 == 1;
#X obj 293 165 == 2;
#X obj 350 164 == 3;
#X obj 209 186 tgl 15 0 empty empty empty 17 7 0 10 -262144 -1 -1 0
1;
#X obj 245 186 tgl 15 0 empty empty empty 17 7 0 10 -262144 -1 -1 0
1;
#X obj 293 189 tgl 15 0 empty empty empty 17 7 0 10 -262144 -1 -1 0
1;
#X obj 351 187 tgl 15 0 empty empty empty 17 7 0 10 -262144 -1 -1 0
1;
#X text 107 358 l.h.r.l.o.o.a;
#X obj 178 204 spigot;
#X obj 225 205 spigot;
#X obj 272 206 spigot;
#X obj 318 207 spigot;
#X obj 235 -3 inlet;
#X obj 326 2 inlet;
#X obj 368 0 inlet;
#X obj 280 -1 inlet;
#X obj 400 196 tgl 15 0 empty empty empty 17 7 0 10 -262144 -1 -1 0
1;
#X obj 373 214 spigot;
#X obj 397 162 == 4;
#X obj 408 1 inlet;
#X connect 0 0 2 0;
#X connect 2 0 3 0;
#X connect 2 0 4 0;
#X connect 2 0 5 0;
#X connect 2 0 6 0;
#X connect 2 0 22 0;
#X connect 3 0 7 0;
#X connect 4 0 8 0;
#X connect 5 0 9 0;
#X connect 6 0 10 0;
#X connect 7 0 12 1;
#X connect 8 0 13 1;
#X connect 9 0 14 1;
#X connect 10 0 15 1;
#X connect 12 0 1 0;
#X connect 13 0 1 0;
#X connect 14 0 1 0;
#X connect 15 0 1 0;
#X connect 16 0 12 0;
#X connect 17 0 14 0;
#X connect 18 0 15 0;
#X connect 19 0 13 0;
#X connect 20 0 21 1;
#X connect 21 0 1 0;
#X connect 22 0 20 0;
#X connect 23 0 21 0;
#X coords 0 -1 1 1 54 14 2 100 100;
#X restore 115 111 pd ::;
#X obj 128 151 bng 9 250 50 0 empty empty empty 17 7 0 10 -262144 -1
-1;
#X obj 153 151 bng 9 250 50 0 empty empty empty 17 7 0 10 -262144 -1
-1;
#X obj 132 165 bng 9 250 50 0 empty empty empty 17 7 0 10 -262144 -1
-1;
#X obj 143 165 bng 9 250 50 0 empty empty empty 17 7 0 10 -262144 -1
-1;
#X obj 296 233 f;
#X obj 141 151 bng 9 250 50 0 empty empty empty 17 7 0 10 -262144 -1
-1;
#X obj 139 57 * 400;
#X obj 2 1 catch~ aux1;
#N canvas 0 50 450 300 (subpatch) 0;
#X array j. 16 float 1;
#A 0 0.837501 0.837501 0.850001 0.850001 0.837501 0.499999 0.437499
0.424999 0.462499 0.575 0.7875 0.377532 0.440032 0.827533 0.552532
0.677533;
#X coords 0 1 15 0 145 80 1;
#X restore 249 11 graph;
#X obj 137 32 tabread j.;
#X obj 291 155 r steple, f 22;
#X obj 267 212 * 2;
#X obj 297 214 * 4;
#X obj 323 213 * 8;
#X obj 144 12 r met64;
#X floatatom 212 13 5 0 0 0 - - -;
#X obj 349 213 * 16;
#X obj 386 212 * 24;
#X obj 424 237 f, f 5;
#X obj 152 165 bng 9 250 50 0 empty empty empty 17 7 0 10 -262144 -1
-1;
#X obj 433 211 * 32, f 5;
#X obj 285 337 delwrite~ dd 10;
#X obj 383 317 delread~ dd 10;
#X obj 11 132 hip~ 400;
#X text 172 132 ax1;
#X obj 192 74 delay 611;
#X obj 11 113 lop~ 1111;
#X obj 68 279 *~ 1.3;
#X obj 442 60 * 900;
#X obj 491 108 + 1;
#X obj 681 121 s screenLine4;
#X msg 681 104 Delay time:\$1Ms;
#X obj 629 127 t b;
#X obj 629 145 delay 444;
#X msg 680 85 Feedback:\$1Ms;
#X obj 631 89 change;
#X obj 632 108 change;
#X obj 632 70 change;
#X obj 632 51 change;
#X obj 485 136 * -1;
#X msg 681 51 Pan:\$1;
#X msg 681 68 Vol:\$1Ug;
#X obj 490 4 r pfx11, f 8;
#X obj 545 3 r pfx12, f 8;
#X obj 597 3 r pfx13, f 8;
#X obj 652 2 r pfx14, f 8;
#X obj 560 240 * 6;
#X obj 561 264 int;
#X obj 561 292 sel 0 1 2 3 4 5 6;
#X obj 629 184 r aux;
#X obj 545 205 spigot;
#X obj 629 209 sel 1;
#X obj 571 161 spigot;
#X msg 628 231 0;
#X msg 653 231 1;
#X msg 627 261 0;
#X msg 652 261 1;
#X connect 2 0 11 0;
#X connect 2 0 65 0;
#X connect 3 0 17 0;
#X connect 4 0 3 1;
#X connect 4 0 64 0;
#X connect 5 0 2 0;
#X connect 7 0 4 0;
#X connect 8 0 5 0;
#X connect 9 0 8 0;
#X connect 9 0 7 0;
#X connect 9 0 54 0;
#X connect 9 0 84 0;
#X connect 10 0 16 0;
#X connect 11 0 10 0;
#X connect 12 0 2 0;
#X connect 13 0 2 0;
#X connect 14 0 2 0;
#X connect 15 0 2 0;
#X connect 16 0 19 0;
#X connect 16 0 25 0;
#X connect 16 0 56 0;
#X connect 18 0 19 1;
#X connect 18 0 25 1;
#X connect 18 0 66 0;
#X connect 19 0 21 0;
#X connect 20 0 23 0;
#X connect 20 0 24 0;
#X connect 21 0 26 0;
#X connect 22 0 50 0;
#X connect 23 0 21 1;
#X connect 24 0 22 1;
#X connect 25 0 22 0;
#X connect 28 0 11 0;
#X connect 29 0 12 0;
#X connect 30 0 13 0;
#X connect 31 0 14 0;
#X connect 32 0 15 0;
#X connect 33 0 2 0;
#X connect 34 0 33 0;
#X connect 35 0 28 3;
#X connect 36 0 17 0;
#X connect 38 0 35 0;
#X connect 39 0 40 0;
#X connect 39 0 41 0;
#X connect 39 0 42 0;
#X connect 39 0 45 0;
#X connect 39 0 46 0;
#X connect 39 0 49 0;
#X connect 40 0 12 1;
#X connect 41 0 33 1;
#X connect 42 0 13 1;
#X connect 43 0 38 0;
#X connect 43 0 44 0;
#X connect 45 0 14 1;
#X connect 46 0 15 1;
#X connect 47 0 2 0;
#X connect 48 0 47 0;
#X connect 49 0 47 1;
#X connect 51 0 27 0;
#X connect 52 0 3 0;
#X connect 54 0 31 0;
#X connect 55 0 52 0;
#X connect 56 0 55 0;
#X connect 57 0 58 0;
#X connect 58 0 5 0;
#X connect 60 0 59 0;
#X connect 60 0 61 0;
#X connect 61 0 62 0;
#X connect 62 0 59 0;
#X connect 63 0 59 0;
#X connect 63 0 61 0;
#X connect 64 0 63 0;
#X connect 65 0 60 0;
#X connect 66 0 70 0;
#X connect 67 0 69 0;
#X connect 68 0 20 0;
#X connect 69 0 59 0;
#X connect 69 0 61 0;
#X connect 70 0 59 0;
#X connect 70 0 61 0;
#X connect 71 0 79 0;
#X connect 71 0 81 0;
#X connect 72 0 4 0;
#X connect 73 0 67 0;
#X connect 73 0 68 0;
#X connect 74 0 18 0;
#X connect 75 0 76 0;
#X connect 76 0 77 0;
#X connect 77 0 29 0;
#X connect 77 1 34 0;
#X connect 77 2 30 0;
#X connect 77 3 31 0;
#X connect 77 4 32 0;
#X connect 77 5 48 0;
#X connect 78 0 80 0;
#X connect 79 0 75 0;
#X connect 80 0 82 0;
#X connect 80 0 85 0;
#X connect 80 1 83 0;
#X connect 80 1 84 0;
#X connect 81 0 57 0;
#X connect 82 0 79 1;
#X connect 83 0 79 1;
#X connect 84 0 81 1;
#X connect 85 0 81 1;
#X coords 0 -1 1 1 98 103 2 100 100;
#X restore -144 94 pd delay;
#X obj -145 -94 s3ch 1;
#X obj -47 -94 s3ch 2;
#X obj 52 -94 s3ch 3;
#X obj 151 -93 s3ch 4;
#X obj 249 -92 s3ch 5;
#X obj 447 -93 s3ch 7;
#X obj 348 -93 s3ch 6;
#X text 967 140 http://servando.teks.no;
#N canvas 224 203 903 446 delay 0;
#X obj 101 100 cnv 15 97 103 empty empty empty 20 12 0 14 -33289 -66577
0;
#X obj 103 102 cnv 15 93 99 empty empty empty 20 12 0 14 -228856 -66577
0;
#X floatatom 165 235 4 0 999 0 - - -;
#X obj 2 158 *~;
#X obj 118 126 hsl 45 8 0.009 0.99 0 0 empty empty empty -2 -8 0 10
-257985 -1 -1 3099 1;
#X obj 116 102 hsl 74 9 5 1000 0 0 empty empty dly2 4 4 0 7 -257985
-1 -1 2898 1;
#X text 18 285 dly;
#X msg 57 63 0.7;
#X msg 16 63 400, f 5;
#X obj 31 35 loadbang;
#X obj 80 270 line~;
#X msg 83 250 \$1 50;
#X obj 272 234 f;
#X obj 322 234 f;
#X obj 348 234 f;
#X obj 374 235 f, f 5;
#X obj 104 105 vsl 8 90 0 1 0 1 m1 m1r empty 0 -8 0 8 -191407 -1 -1
4402 1;
#X obj 118 307 *~;
#X obj 119 191 hsl 72 8 0 -1 0 1 m6 m6r empty -2 -6 0 8 -262144 -1
-1 3095 1;
#X obj 173 339 *~;
#X obj 273 277 *~;
#X obj 212 325 + 1;
#X obj 237 325 * -1;
#X obj 153 324 *~;
#X obj 172 356 throw~ sumL;
#X obj 272 334 throw~ sumR;
#N canvas 519 69 840 699 :: 0;
#X obj 102 102 hradio 10 1 0 5 empty empty empty 0 -8 0 10 -257985
-1 -1 0;
#X obj 290 294 outlet;
#X floatatom 256 108 5 0 0 0 - - -;
#X obj 212 161 == 0;
#X obj 245 161 == 1;
#X obj 293 165 == 2;
#X obj 350 164 == 3;
#X obj 209 186 tgl 15 0 empty empty empty 17 7 0 10 -262144 -1 -1 0
1;
#X obj 245 186 tgl 15 0 empty empty empty 17 7 0 10 -262144 -1 -1 0
1;
#X obj 293 189 tgl 15 0 empty empty empty 17 7 0 10 -262144 -1 -1 0
1;
#X obj 351 187 tgl 15 0 empty empty empty 17 7 0 10 -262144 -1 -1 0
1;
#X text 107 358 l.h.r.l.o.o.a;
#X obj 178 204 spigot;
#X obj 225 205 spigot;
#X obj 272 206 spigot;
#X obj 318 207 spigot;
#X obj 235 -3 inlet;
#X obj 326 2 inlet;
#X obj 368 0 inlet;
#X obj 280 -1 inlet;
#X obj 400 196 tgl 15 0 empty empty empty 17 7 0 10 -262144 -1 -1 0
1;
#X obj 373 214 spigot;
#X obj 397 162 == 4;
#X obj 408 1 inlet;
#X connect 0 0 2 0;
#X connect 2 0 3 0;
#X connect 2 0 4 0;
#X connect 2 0 5 0;
#X connect 2 0 6 0;
#X connect 2 0 22 0;
#X connect 3 0 7 0;
#X connect 4 0 8 0;
#X connect 5 0 9 0;
#X connect 6 0 10 0;
#X connect 7 0 12 1;
#X connect 8 0 13 1;
#X connect 9 0 14 1;
#X connect 10 0 15 1;
#X connect 12 0 1 0;
#X connect 13 0 1 0;
#X connect 14 0 1 0;
#X connect 15 0 1 0;
#X connect 16 0 12 0;
#X connect 17 0 14 0;
#X connect 18 0 15 0;
#X connect 19 0 13 0;
#X connect 20 0 21 1;
#X connect 21 0 1 0;
#X connect 22 0 20 0;
#X connect 23 0 21 0;
#X coords 0 -1 1 1 54 14 2 100 100;
#X restore 115 111 pd ::;
#X obj 125 146 bng 9 250 50 0 empty empty empty 17 7 0 10 -262144 -1
-1;
#X obj 150 146 bng 9 250 50 0 empty empty empty 17 7 0 10 -262144 -1
-1;
#X obj 127 166 bng 9 250 50 0 empty empty empty 17 7 0 10 -262144 -1
-1;
#X obj 140 165 bng 9 250 50 0 empty empty empty 17 7 0 10 -262144 -1
-1;
#X obj 296 233 f;
#X obj 138 146 bng 9 250 50 0 empty empty empty 17 7 0 10 -262144 -1
-1;
#X obj 139 57 * 400;
#X obj 138 38 tabread j.;
#X obj 271 182 r steple, f 22;
#X obj 271 210 * 2;
#X obj 297 214 * 4;
#X obj 323 213 * 8;
#X obj 144 12 r met64;
#X obj 349 213 * 16;
#X obj 386 212 * 24;
#X obj 424 237 f, f 5;
#X obj 155 166 bng 9 250 50 0 empty empty empty 17 7 0 10 -262144 -1
-1;
#X obj 433 211 * 32;
#X obj 13 111 hip~ 400;
#X obj 12 133 hip~ 400;
#X obj 1 20 delwrite~ delay22 1000;
#X obj 78 291 vd~ delay22;
#X obj 273 295 delwrite~ dd2 11;
#X obj 273 315 delread~ dd2 11;
#X obj 0 2 catch~ aux3;
#X text 164 131 ax3;
#X obj 209 168 switch~;
#X msg 255 6 0;
#X obj 171 146 tgl 15 0 empty empty empty 17 7 0 10 -262144 -1 -1 0
1;
#X floatatom 491 60 5 0 0 0 - - -;
#X obj 444 101 + 1;
#X obj 562 320 s screenLine4;
#X msg 618 189 Delay time:\$1Ms;
#X obj 480 246 t b;
#X obj 498 287 delay 444;
#X msg 609 152 Feedback:\$1Ms;
#X obj 573 117 change;
#X obj 472 105 change;
#X obj 703 54 change;
#X obj 627 41 change;
#X obj 438 168 * -1;
#X msg 544 83 Pan:\$1;
#X msg 612 117 Vol:\$1Ug;
#X obj 472 85 * 333;
#X obj 751 99 sel 0;
#X msg 748 121 0;
#X msg 789 122 1;
#X obj 29 199 sel 0;
#X msg 24 224 0;
#X msg 49 226 1, f 4;
#X obj 512 8 r pfx31, f 8;
#X obj 566 8 r pfx32, f 8;
#X obj 617 7 r pfx33, f 8;
#X obj 671 8 r pfx34, f 8;
#X obj 289 48 change;
#X msg 348 33 1;
#X obj 405 36 t b;
#X obj 202 61 delay 5111;
#X connect 2 0 11 0;
#X connect 3 0 47 0;
#X connect 4 0 3 1;
#X connect 5 0 2 0;
#X connect 7 0 4 0;
#X connect 8 0 5 0;
#X connect 9 0 8 0;
#X connect 9 0 7 0;
#X connect 9 0 54 0;
#X connect 9 0 84 0;
#X connect 10 0 48 0;
#X connect 11 0 10 0;
#X connect 12 0 2 0;
#X connect 13 0 2 0;
#X connect 14 0 2 0;
#X connect 15 0 2 0;
#X connect 16 0 17 1;
#X connect 16 0 23 1;
#X connect 16 0 74 0;
#X connect 17 0 19 0;
#X connect 18 0 21 0;
#X connect 18 0 22 0;
#X connect 19 0 24 0;
#X connect 20 0 49 0;
#X connect 21 0 19 1;
#X connect 22 0 20 1;
#X connect 23 0 20 0;
#X connect 26 0 11 0;
#X connect 27 0 12 0;
#X connect 28 0 13 0;
#X connect 29 0 14 0;
#X connect 30 0 15 0;
#X connect 31 0 2 0;
#X connect 32 0 31 0;
#X connect 33 0 26 3;
#X connect 34 0 33 0;
#X connect 35 0 36 0;
#X connect 35 0 37 0;
#X connect 35 0 38 0;
#X connect 35 0 40 0;
#X connect 35 0 41 0;
#X connect 35 0 44 0;
#X connect 36 0 12 1;
#X connect 37 0 31 1;
#X connect 38 0 13 1;
#X connect 39 0 34 0;
#X connect 40 0 14 1;
#X connect 41 0 15 1;
#X connect 42 0 2 0;
#X connect 43 0 42 0;
#X connect 44 0 42 1;
#X connect 45 0 46 0;
#X connect 46 0 3 0;
#X connect 48 0 17 0;
#X connect 48 0 23 0;
#X connect 48 0 45 0;
#X connect 50 0 25 0;
#X connect 51 0 47 0;
#X connect 54 0 81 0;
#X connect 55 0 53 0;
#X connect 56 0 70 0;
#X connect 57 0 5 0;
#X connect 59 0 58 0;
#X connect 59 0 60 0;
#X connect 60 0 61 0;
#X connect 61 0 58 0;
#X connect 62 0 58 0;
#X connect 62 0 60 0;
#X connect 63 0 62 0;
#X connect 63 0 4 0;
#X connect 64 0 59 0;
#X connect 64 0 83 0;
#X connect 65 0 69 0;
#X connect 65 0 16 0;
#X connect 65 0 71 0;
#X connect 66 0 68 0;
#X connect 66 0 67 0;
#X connect 67 0 18 0;
#X connect 68 0 58 0;
#X connect 68 0 60 0;
#X connect 69 0 58 0;
#X connect 69 0 60 0;
#X connect 70 0 57 0;
#X connect 70 0 64 0;
#X connect 71 0 72 0;
#X connect 71 1 73 0;
#X connect 74 0 75 0;
#X connect 74 1 76 0;
#X connect 77 0 56 0;
#X connect 78 0 63 0;
#X connect 79 0 66 0;
#X connect 80 0 65 0;
#X connect 81 0 55 0;
#X connect 82 0 81 0;
#X connect 83 0 82 0;
#X connect 84 0 54 0;
#X coords 0 -1 1 1 98 103 2 100 100;
#X restore 47 94 pd delay;
#N canvas 344 229 1004 532 delay 0;
#X obj 101 100 cnv 15 97 103 empty empty empty 20 12 0 14 -33289 -66577
0;
#X obj 103 102 cnv 15 93 99 empty empty empty 20 12 0 14 -228856 -66577
0;
#X floatatom 268 159 4 0 999 0 - - -;
#X obj 27 122 hsl 45 8 0.009 0.99 0 0 empty empty empty -2 -8 0 10
-99865 -1 -1 3099 1;
#X obj 116 102 hsl 74 9 5 1000 0 0 empty empty dly2 4 4 0 7 -99865
-1 -1 2898 1;
#X text 18 285 dly;
#X msg 57 63 0.7;
#X msg 21 36 400, f 5;
#X obj 90 10 loadbang;
#X obj 286 143 f;
#X obj 336 143 f;
#X obj 362 143 f;
#X obj 388 144 f, f 5;
#X obj 104 105 vsl 8 90 0 1 0 1 m1 m1r empty 0 -8 0 8 -191407 -1 -1
8900 1;
#X obj 212 350 *~;
#X obj 119 191 hsl 72 8 0 -1 0 1 m6 m6r empty -2 -6 0 8 -262144 -1
-1 3500 1;
#X obj 72 356 *~, f 5;
#X obj 105 356 *~, f 6;
#X obj 124 204 + 1;
#X obj 126 205 * -1;
#X obj 261 349 *~;
#X obj 211 460 throw~ sumL;
#X obj 290 459 throw~ sumR;
#X obj 281 51 bng 9 250 50 0 empty empty empty 17 7 0 10 -262144 -1
-1;
#X obj 306 51 bng 9 250 50 0 empty empty empty 17 7 0 10 -262144 -1
-1;
#X obj 223 146 bng 9 250 50 0 empty empty empty 17 7 0 10 -262144 -1
-1;
#X obj 236 145 bng 9 250 50 0 empty empty empty 17 7 0 10 -262144 -1
-1;
#X obj 310 142 f;
#X obj 202 146 bng 9 250 50 0 empty empty empty 17 7 0 10 -262144 -1
-1;
#X obj 285 91 r steple, f 22;
#X obj 285 119 * 2;
#X obj 311 123 * 4;
#X obj 337 122 * 8;
#X obj 363 122 * 16;
#X obj 400 121 * 24;
#X obj 427 144 f, f 5;
#X obj 251 146 bng 9 250 50 0 empty empty empty 17 7 0 10 -262144 -1
-1;
#X obj 434 122 * 32;
#X obj 799 111 catch~ aux4;
#X text 169 113 ax4;
#N canvas 84 115 548 569 pitch_1 0;
#X floatatom 19 87 0 0 0 0 - - -;
#X obj 82 358 *~;
#X obj 205 295 line~;
#X floatatom 237 112 0 0 0 0 - - -;
#X obj 205 269 pack 0 200;
#X obj 237 86 r window;
#X obj 19 61 r transpose;
#X obj 19 143 exp;
#X floatatom 19 169 6 0 0 0 - - -;
#X obj 19 259 /;
#X obj 146 189 * 0.001;
#X obj 314 365 line~;
#X obj 314 340 pack 0 200;
#X floatatom 314 289 0 0 0 0 - - -;
#X obj 314 263 r delay;
#X obj 82 384 +~;
#X obj 19 410 cos~;
#X obj 19 437 *~;
#X obj 19 466 +~;
#X obj 106 317 wrap~;
#X obj 251 360 *~;
#X obj 251 393 +~;
#X obj 188 420 cos~;
#X obj 188 447 *~;
#X obj 146 216 t b f;
#X floatatom 19 285 6 0 0 0 - - -;
#X obj 106 290 +~ 0.5;
#X obj 19 358 -~ 0.5;
#X obj 19 384 *~ 0.5;
#X obj 188 359 -~ 0.5;
#X obj 188 392 *~ 0.5;
#X obj 19 196 - 1;
#X obj 19 117 * 0.05776;
#X obj 19 222 * -1;
#X text 53 86 <-- transposition;
#X text 96 99 (halftones);
#X text 82 163 speed;
#X text 81 177 change;
#X text 54 252 tape head;
#X obj 19 316 phasor~;
#X obj 314 316 max 1.5;
#X text 317 222 delay;
#X text 314 240 (msec);
#X obj 237 139 max 1;
#X text 55 265 rotation freq;
#X obj 19 498 outlet~;
#X obj 136 27 inlet;
#X obj 233 27 inlet;
#X obj 342 64 inlet;
#X obj 82 410 delread4~ G09-del;
#X obj 251 422 delread4~ G09-del;
#X connect 0 0 32 0;
#X connect 1 0 15 0;
#X connect 2 0 1 1;
#X connect 2 0 20 1;
#X connect 3 0 43 0;
#X connect 4 0 2 0;
#X connect 5 0 3 0;
#X connect 6 0 0 0;
#X connect 7 0 8 0;
#X connect 8 0 31 0;
#X connect 9 0 25 0;
#X connect 10 0 24 0;
#X connect 11 0 15 1;
#X connect 11 0 21 1;
#X connect 12 0 11 0;
#X connect 13 0 40 0;
#X connect 14 0 13 0;
#X connect 15 0 49 0;
#X connect 16 0 17 0;
#X connect 17 0 18 0;
#X connect 18 0 45 0;
#X connect 19 0 20 0;
#X connect 19 0 29 0;
#X connect 20 0 21 0;
#X connect 21 0 50 0;
#X connect 22 0 23 0;
#X connect 23 0 18 1;
#X connect 24 0 9 0;
#X connect 24 1 9 1;
#X connect 25 0 39 0;
#X connect 26 0 19 0;
#X connect 27 0 28 0;
#X connect 28 0 16 0;
#X connect 29 0 30 0;
#X connect 30 0 22 0;
#X connect 31 0 33 0;
#X connect 32 0 7 0;
#X connect 33 0 9 0;
#X connect 39 0 1 0;
#X connect 39 0 27 0;
#X connect 39 0 26 0;
#X connect 40 0 12 0;
#X connect 43 0 10 0;
#X connect 43 0 4 0;
#X connect 46 0 0 0;
#X connect 47 0 3 0;
#X connect 48 0 13 0;
#X connect 49 0 17 1;
#X connect 50 0 23 1;
#X restore 245 224 pd pitch_1;
#X obj 800 130 delwrite~ G09-del 5000;
#X floatatom 116 132 5 0 0 0 - - -;
#X floatatom 268 197 5 0 0 0 - - -;
#X floatatom 305 198 5 0 0 0 - - -;
#X obj 145 115 tgl 15 0 empty empty empty 17 7 0 10 -262144 -1 -1 0
1;
#X obj 122 165 hsl 64 8 0 1 0 0 empty empty empty -2 -8 0 10 -262144
-1 -1 4410 1;
#X obj 122 177 hsl 64 8 0 1 0 0 empty empty empty -2 -8 0 10 -228856
-1 -1 4410 1;
#X obj 51 490 throw~ aux1;
#X obj 54 469 *~;
#X obj 133 468 *~;
#X obj 125 490 throw~ aux2;
#X msg 75 64 4;
#X msg 104 65 7;
#X obj 179 236 switch~;
#X floatatom 364 205 5 0 0 0 - - -;
#X floatatom 401 206 5 0 0 0 - - -;
#X floatatom 161 134 5 0 0 0 - - -;
#N canvas 579 115 548 569 pitch_2 0;
#X floatatom 19 87 0 0 0 0 - - -;
#X obj 82 358 *~;
#X obj 205 295 line~;
#X floatatom 237 112 0 0 0 0 - - -;
#X obj 205 269 pack 0 200;
#X obj 237 86 r window;
#X obj 19 61 r transpose;
#X obj 19 143 exp;
#X floatatom 19 169 6 0 0 0 - - -;
#X obj 19 259 /;
#X obj 146 189 * 0.001;
#X obj 314 365 line~;
#X obj 314 340 pack 0 200;
#X floatatom 314 289 0 0 0 0 - - -;
#X obj 314 263 r delay;
#X obj 82 384 +~;
#X obj 19 410 cos~;
#X obj 19 437 *~;
#X obj 19 466 +~;
#X obj 106 317 wrap~;
#X obj 251 360 *~;
#X obj 251 393 +~;
#X obj 188 420 cos~;
#X obj 188 447 *~;
#X msg 408 109 \; transpose 0 \; window 100 \; delay 0;
#X obj 408 83 loadbang;
#X obj 146 216 t b f;
#X floatatom 19 285 6 0 0 0 - - -;
#X obj 106 290 +~ 0.5;
#X obj 19 358 -~ 0.5;
#X obj 19 384 *~ 0.5;
#X obj 188 359 -~ 0.5;
#X obj 188 392 *~ 0.5;
#X obj 19 196 - 1;
#X obj 19 117 * 0.05776;
#X obj 19 222 * -1;
#X text 53 86 <-- transposition;
#X text 96 99 (halftones);
#X text 82 163 speed;
#X text 81 177 change;
#X text 384 67 <--window (msec);
#X text 54 252 tape head;
#X obj 19 316 phasor~;
#X obj 314 316 max 1.5;
#X text 317 222 delay;
#X text 314 240 (msec);
#X obj 237 139 max 1;
#X text 55 265 rotation freq;
#X obj 19 498 outlet~;
#X obj 136 27 inlet;
#X obj 233 27 inlet;
#X obj 342 64 inlet;
#X obj 82 410 delread4~ G09-del;
#X obj 251 422 delread4~ G09-del;
#X connect 0 0 34 0;
#X connect 1 0 15 0;
#X connect 2 0 1 1;
#X connect 2 0 20 1;
#X connect 3 0 46 0;
#X connect 4 0 2 0;
#X connect 5 0 3 0;
#X connect 6 0 0 0;
#X connect 7 0 8 0;
#X connect 8 0 33 0;
#X connect 9 0 27 0;
#X connect 10 0 26 0;
#X connect 11 0 15 1;
#X connect 11 0 21 1;
#X connect 12 0 11 0;
#X connect 13 0 43 0;
#X connect 14 0 13 0;
#X connect 15 0 52 0;
#X connect 16 0 17 0;
#X connect 17 0 18 0;
#X connect 18 0 48 0;
#X connect 19 0 20 0;
#X connect 19 0 31 0;
#X connect 20 0 21 0;
#X connect 21 0 53 0;
#X connect 22 0 23 0;
#X connect 23 0 18 1;
#X connect 25 0 24 0;
#X connect 26 0 9 0;
#X connect 26 1 9 1;
#X connect 27 0 42 0;
#X connect 28 0 19 0;
#X connect 29 0 30 0;
#X connect 30 0 16 0;
#X connect 31 0 32 0;
#X connect 32 0 22 0;
#X connect 33 0 35 0;
#X connect 34 0 7 0;
#X connect 35 0 9 0;
#X connect 42 0 1 0;
#X connect 42 0 29 0;
#X connect 42 0 28 0;
#X connect 43 0 12 0;
#X connect 46 0 10 0;
#X connect 46 0 4 0;
#X connect 49 0 0 0;
#X connect 50 0 3 0;
#X connect 51 0 13 0;
#X connect 52 0 17 1;
#X connect 53 0 23 1;
#X restore 341 225 pd pitch_2;
#X obj 46 419 *~ 0.6;
#X obj 125 418 *~ 0.6;
#X obj 610 497 s screenLine4;
#X obj 722 426 t b;
#X obj 717 441 delay 444;
#X obj 614 64 change;
#X obj 654 64 change;
#X obj 703 62 change;
#X msg 743 247 Vol:\$1Ug;
#X obj 750 61 change;
#X msg 688 247 Dampf:\$1;
#X obj 538 243 * 12;
#X obj 573 246 * 12;
#X msg 515 316 T1:\$1, f 15;
#X msg 628 262 T2:\$1;
#X obj 538 276 int;
#X obj 573 276 int;
#X obj 59 218 sel 0;
#X msg 54 243 0;
#X msg 79 245 1, f 4;
#X obj 604 28 r pfx41, f 8;
#X obj 656 28 r pfx42, f 8;
#X obj 707 28 r pfx43, f 8;
#X obj 759 28 r pfx44, f 8;
#X msg 164 38 0, f 4;
#X obj 551 41 t b;
#X msg 531 62 1;
#X obj 163 70 change;
#X obj 209 12 delay 6111;
#X connect 4 0 2 0;
#X connect 6 0 3 0;
#X connect 6 0 46 0;
#X connect 6 0 47 0;
#X connect 7 0 4 0;
#X connect 8 0 7 0;
#X connect 8 0 6 0;
#X connect 8 0 26 0;
#X connect 8 0 52 0;
#X connect 8 0 53 0;
#X connect 8 0 87 0;
#X connect 9 0 2 0;
#X connect 10 0 2 0;
#X connect 11 0 2 0;
#X connect 12 0 2 0;
#X connect 13 0 14 1;
#X connect 13 0 20 1;
#X connect 13 0 76 0;
#X connect 14 0 16 0;
#X connect 15 0 18 0;
#X connect 15 0 19 0;
#X connect 16 0 21 0;
#X connect 16 0 59 0;
#X connect 16 0 50 0;
#X connect 17 0 22 0;
#X connect 17 0 60 0;
#X connect 17 0 49 0;
#X connect 18 0 16 1;
#X connect 19 0 17 1;
#X connect 20 0 17 0;
#X connect 23 0 9 0;
#X connect 24 0 10 0;
#X connect 25 0 11 0;
#X connect 26 0 12 0;
#X connect 27 0 2 0;
#X connect 28 0 27 0;
#X connect 29 0 30 0;
#X connect 29 0 31 0;
#X connect 29 0 32 0;
#X connect 29 0 33 0;
#X connect 29 0 34 0;
#X connect 29 0 37 0;
#X connect 30 0 9 1;
#X connect 31 0 27 1;
#X connect 32 0 10 1;
#X connect 33 0 11 1;
#X connect 34 0 12 1;
#X connect 35 0 2 0;
#X connect 36 0 35 0;
#X connect 37 0 35 1;
#X connect 38 0 41 0;
#X connect 40 0 14 0;
#X connect 42 0 40 0;
#X connect 43 0 40 1;
#X connect 44 0 40 2;
#X connect 45 0 54 0;
#X connect 46 0 49 1;
#X connect 47 0 50 1;
#X connect 49 0 48 0;
#X connect 50 0 51 0;
#X connect 52 0 42 0;
#X connect 53 0 57 0;
#X connect 55 0 58 1;
#X connect 56 0 58 2;
#X connect 57 0 58 0;
#X connect 58 0 20 0;
#X connect 59 0 49 0;
#X connect 60 0 50 0;
#X connect 62 0 63 0;
#X connect 63 0 61 0;
#X connect 64 0 70 0;
#X connect 64 0 84 0;
#X connect 65 0 73 0;
#X connect 65 0 71 0;
#X connect 66 0 69 0;
#X connect 67 0 61 0;
#X connect 67 0 62 0;
#X connect 68 0 67 0;
#X connect 68 0 13 0;
#X connect 69 0 61 0;
#X connect 69 0 62 0;
#X connect 70 0 74 0;
#X connect 71 0 75 0;
#X connect 72 0 61 0;
#X connect 72 0 62 0;
#X connect 73 0 61 0;
#X connect 73 0 62 0;
#X connect 74 0 72 0;
#X connect 74 0 42 0;
#X connect 75 0 73 0;
#X connect 75 0 57 0;
#X connect 76 0 77 0;
#X connect 76 1 78 0;
#X connect 79 0 64 0;
#X connect 80 0 65 0;
#X connect 81 0 66 0;
#X connect 82 0 68 0;
#X connect 83 0 86 0;
#X connect 84 0 85 0;
#X connect 85 0 86 0;
#X connect 86 0 45 0;
#X connect 87 0 83 0;
#X coords 0 -1 1 1 98 103 2 100 100;
#X restore 148 95 pd delay;
#N canvas 120 140 1024 544 freevr 0;
#X obj 100 100 cnv 15 97 103 empty empty empty 20 12 0 14 -33289 -66577
0;
#X obj 102 102 cnv 15 93 99 empty empty empty 20 12 0 14 -228856 -66577
0;
#X obj 139 405 freeverb~;
#X msg 19 176 roomsize \$1;
#X msg 581 193 damping \$1;
#X msg 48 257 width \$1;
#X msg 166 258 wet \$1;
#X msg 48 292 dry \$1;
#X msg 48 314 print;
#X msg 48 336 freeze \$1;
#X msg 48 358 bypass \$1;
#X obj 122 109 hsl 66 8 0 1 0 1 empty empty roomsize -2 3 0 9 -260097
-1 -1 5525 1;
#X obj 146 170 tgl 15 0 empty empty empty 17 7 0 10 -4032 -1 -1 0 1
;
#X obj 467 236 loadbang;
#X obj 213 235 hsl 48 8 0 1 0 1 empty empty wet -2 4 0 7 -262144 -1
-1 4700 1;
#X obj 81 28 catch~ aux2;
#X obj 33 28 noise~;
#X obj 32 48 *~ 1e-07;
#X obj 40 95 *~ 0.7;
#X obj 122 120 hsl 66 8 0 1 0 1 empty empty _width -2 4 0 8 -260097
-1 -1 6500 1;
#X obj 105 105 vsl 8 90 0 1 0 1 m1 m1r empty 0 -8 0 8 -191407 -1 -1
4895 1;
#X obj 389 236 *~;
#X obj 118 192 hsl 72 8 0 -1 0 1 m6 m6r empty -2 -6 0 8 -262144 -1
-1 3852 1;
#X obj 258 422 *~;
#X obj 312 421 *~;
#X obj 278 376 + 1;
#X obj 306 375 * -1;
#X obj 415 236 *~;
#X msg 468 291 1;
#X obj 258 618 throw~ outL;
#X obj 334 618 throw~ outR;
#X text 136 134 aux2;
#X text 127 149 reverb;
#X obj 228 528 *~, f 9;
#X obj 218 503 limiter~ 50 1;
#X obj 314 506 z~ 64;
#X obj 297 571 *~, f 9;
#X obj 298 549 limiter~ 50 1;
#X obj 383 549 z~ 64;
#X msg 471 255 0.55;
#X msg 469 275 0.85;
#X obj 638 302 s screenLine4;
#X obj 433 160 t b;
#X obj 432 181 delay 444;
#X obj 416 79 change;
#X obj 482 113 change;
#X obj 504 80 change;
#X msg 600 108 Vol:\$1Ug;
#X obj 607 67 * -1;
#X obj 658 48 change;
#X obj 222 133 sel 1;
#X msg 226 154 1;
#X msg 236 164 0;
#X msg 548 156 Stereo:\$1;
#X msg 612 129 Roomsiz:\$1;
#X obj 123 132 hsl 48 8 0 1 0 1 empty empty wet -2 4 0 7 -262144 -1
-1 4700 1;
#X msg 559 79 Dampf:\$1;
#X obj 413 8 r pfx21, f 8;
#X obj 482 6 r pfx22, f 8;
#X obj 546 9 r pfx23, f 8;
#X obj 617 10 r pfx24, f 8;
#X connect 2 0 21 0;
#X connect 2 1 27 0;
#X connect 3 0 2 0;
#X connect 4 0 2 0;
#X connect 5 0 2 0;
#X connect 6 0 2 0;
#X connect 7 0 2 0;
#X connect 8 0 2 0;
#X connect 9 0 2 0;
#X connect 10 0 2 0;
#X connect 11 0 3 0;
#X connect 12 0 9 0;
#X connect 13 0 40 0;
#X connect 13 0 28 0;
#X connect 13 0 39 0;
#X connect 14 0 6 0;
#X connect 15 0 18 0;
#X connect 16 0 17 0;
#X connect 17 0 18 0;
#X connect 18 0 2 0;
#X connect 18 0 2 1;
#X connect 19 0 5 0;
#X connect 20 0 21 1;
#X connect 20 0 27 1;
#X connect 21 0 23 0;
#X connect 22 0 25 0;
#X connect 22 0 26 0;
#X connect 23 0 34 0;
#X connect 23 0 35 0;
#X connect 24 0 37 0;
#X connect 24 0 38 0;
#X connect 25 0 23 1;
#X connect 26 0 24 1;
#X connect 27 0 24 0;
#X connect 28 0 14 0;
#X connect 33 0 29 0;
#X connect 34 0 33 0;
#X connect 35 0 33 1;
#X connect 36 0 30 0;
#X connect 37 0 36 0;
#X connect 38 0 36 1;
#X connect 39 0 20 0;
#X connect 40 0 11 0;
#X connect 42 0 43 0;
#X connect 43 0 41 0;
#X connect 44 0 54 0;
#X connect 44 0 11 0;
#X connect 45 0 53 0;
#X connect 45 0 19 0;
#X connect 46 0 56 0;
#X connect 46 0 48 0;
#X connect 46 0 55 0;
#X connect 47 0 41 0;
#X connect 47 0 42 0;
#X connect 49 0 47 0;
#X connect 49 0 20 0;
#X connect 49 0 50 0;
#X connect 50 0 51 0;
#X connect 50 1 52 0;
#X connect 51 0 12 0;
#X connect 52 0 12 0;
#X connect 53 0 41 0;
#X connect 53 0 42 0;
#X connect 54 0 41 0;
#X connect 54 0 42 0;
#X connect 55 0 4 0;
#X connect 56 0 41 0;
#X connect 56 0 42 0;
#X connect 57 0 44 0;
#X connect 58 0 45 0;
#X connect 59 0 46 0;
#X connect 60 0 49 0;
#X coords 0 -1 1 1 98 103 2 100 100;
#X restore -52 94 pd freevr;
#X obj -45 -243 s3sq 2;
#X obj 55 -243 s3sq 3;
#X obj 153 -243 s3sq 4;
#X obj 252 -243 s3sq 5;
#X obj 451 -243 s3sq 7;
#X obj 352 -243 s3sq 6;
#X obj 346 -191 s3s44 6;
#X obj -145 -195 s3s44 1;
#X obj -46 -192 s3s44 2;
#X obj 54 -191 s3s44 3;
#X obj 153 -191 s3s44 4;
#X obj 248 -190 s3s44 5;
#X obj 554 -93 s3ch 8;
#X obj 655 -93 s3ch 9;
#X obj 754 -92 s3ch 10;
#X obj 854 -92 s3ch 11;
#X obj 954 -91 s3ch 12;
#X obj 1055 -89 s3ch 13;
#X obj 1155 -91 s3ch 14;
#X obj 521 65;
#X obj 657 -242 s3sq 9;
#X obj 757 -242 s3sq 10;
#X obj 857 -242 s3sq 11;
#X obj 957 -242 s3sq 12;
#X obj 1156 -191 s3input 14;
#X obj 1054 -191 s3input 13;
#X text 390 185 global launcher loader;
#X obj 557 -242 s3sq 8;
#X text 402 217 loopermode;
#X obj 1057 -242 s3sq 13;
#X obj 1158 -242 s3sq 14;
#X obj 450 -190 s3s44 7;
#X obj -144 -246 s3sq 1;
#X text 1140 140 0.371;
#X text 361 99 record longer samples;
#X text 363 112 save recorded samples;
#X text 366 124 store/recall seqs;
#X text 369 139 record master;
#X text 377 154 probab gate;
#X text 383 169 sample kits!;
#X obj 555 -191 s3s44 8;
#X obj 555 -86;
#X obj 657 -192 s3s44 9;
#X obj 756 -192 s3fm 10;
#X obj 855 -191 s3sawfm 11;
#X obj 957 -189 s3subtract 12;
#X text 504 99 records while u hold hypershift+rec;
#X text 500 112 hypershift+ B;
#X text 461 140 hypershift + rec;
#X text 463 155 shift+ 4 knob;
#X text 497 127 shift D / E to load \,;
#X text 556 186 Experimental! in master \, shift D/E to select F to
load;
#X text 398 199 12mutt;
#X text 480 217 shift + F# toggles sampler modes. Seq lenght is looper
lenght \, records with hypershift+rec or footswitch press;
#X obj 249 96 s3master;
