#N canvas 300 175 1208 643 10;
#X obj 101 101 cnv 15 98 183 empty empty empty 20 12 0 14 -1 -66577
0;
#X obj 103 103 cnv 15 94 179 empty empty empty 20 12 0 14 -191407 -66577
0;
#X obj 108 224 tgl 22 0 empty empty on 4 11 0 10 -191407 -1 -1 0 1
;
#X obj 160 181 vsl 18 90 0 1 0 1 m1 m1r empty 0 -8 0 8 -33289 -260097
-260097 0 1;
#X obj 15 382 *~;
#X obj 111 193 hsl 44 8 0 -1 0 1 m6 m6r empty -2 -6 0 8 -99865 -260097
-1 2150 1;
#X obj 11 453 *~;
#X obj 88 521 *~;
#X obj 26 433 + 1;
#X obj 116 499 * -1;
#X obj 248 429 *~;
#X obj 319 433 *~;
#X obj 246 451 throw~ aux1;
#X obj 319 453 throw~ aux2;
#X obj 11 475 throw~ sumL;
#X obj 88 541 throw~ sumR;
#X obj 64 6 r ttin;
#X obj 64 26 sel 53;
#X obj 121 253 cnv 15 23 23 empty \$0-met16 \$1 7 12 1 13 -99865 -260097
0;
#X obj 114 41 f \$1;
#X obj 64 44 + 48;
#X obj 65 377 line~;
#X obj 66 355 pack 0 20;
#X obj 111 6 inlet;
#X text 197 313 http://servando.teks.no;
#X obj 126 302 hsl 64 8 0 1 0 0 empty empty empty -2 -8 0 10 -262144
-1 -1 0 1;
#X obj 127 313 hsl 64 8 0 1 0 0 empty empty empty -2 -8 0 10 -228856
-1 -1 0 1;
#X obj 423 297 ctlin 13 \$1;
#X obj 423 318 / 127;
#X obj 421 358 / 127;
#X obj 421 337 ctlin 14 \$1;
#X obj 255 274 / 127;
#X obj 326 273 / 127;
#X obj 254 256 ctlin 15 \$1;
#X obj 326 256 ctlin 16 \$1;
#X msg 154 31 1;
#X obj 206 266 * -1;
#X obj 190 27 r knob1;
#X obj 248 27 r knob2;
#X obj 309 27 r knob3;
#X obj 366 27 r knob4;
#X obj 189 44 spigot;
#X obj 248 45 spigot;
#X obj 308 44 spigot;
#X obj 365 46 spigot;
#X obj 506 158 tgl 23 0 empty empty empty 17 7 0 10 -257985 -1 -1 0
1;
#X obj 310 66 * -1;
#X text 197 323 http://servando.teks.no;
#X text 197 334 http://servando.teks.no;
#X obj 501 64 sel \$1;
#X obj 499 28 r chan, f 10;
#X obj 645 28 r chen;
#X obj 643 46 moses 6;
#X msg 502 84 1;
#X msg 529 84 0;
#X msg 644 82 1;
#X msg 673 82 0, f 4;
#X obj 645 99 t b f;
#X obj 535 46 f \$1;
#X obj 500 46 t f b;
#X obj 505 102 +;
#X obj 505 121 sel 2;
#X msg 505 140 1;
#X msg 530 140 0;
#X obj 638 64 sel 8;
#X obj 247 476 *~;
#X obj 127 326 hsl 64 8 0 1 0 0 empty empty empty -2 -8 0 10 -191407
-1 -1 0 1;
#X obj 247 496 throw~ aux3;
#X obj 127 338 hsl 64 8 0 1 0 0 empty empty empty -2 -8 0 10 -99865
-1 -1 0 1;
#X obj 320 477 *~;
#X obj 320 497 throw~ aux4;
#X obj 685 514 s screenLine5;
#X obj 685 497 s screenLine4;
#X obj 787 475 s screenLine2;
#X obj 111 111 knob 25 25 0 1 0 0 empty empty empty 0 -8 0 8 3.72242e+07
3.72242e+07 3.72242e+07 0 1;
#X obj 145 111 knob 25 25 0 1 0 0 empty intro empty 0 -8 0 8 3.72242e+07
3.72242e+07 3.72242e+07 0 1;
#X obj 128 143 knob 25 25 0 1 0 0 empty empty empty 0 -8 0 8 3.72242e+07
3.72242e+07 3.72242e+07 0 1;
#X obj 163 143 knob 25 25 0 1 0 0 empty intro empty 0 -8 0 8 3.72242e+07
3.72242e+07 3.72242e+07 0 1;
#X msg 981 60 Aux3/Aux3/dist/comp;
#X msg 657 330 ***MIXER***;
#X obj 258 206 r mt\$1;
#X msg 532 467 |||||;
#X msg 531 485 |||||, f 8;
#X msg 222 169 0.6;
#X obj 181 183 cnv 2 6 1 empty empty empty 20 12 0 14 -1 -66577 0;
#X obj 182 194 cnv 2 6 1 empty empty empty 20 12 0 14 -1 -66577 0;
#X obj 182 205 cnv 2 6 1 empty empty empty 20 12 0 14 -1 -66577 0;
#X obj 182 215 cnv 2 6 1 empty empty empty 20 12 0 14 -1 -66577 0;
#X obj 182 225 cnv 2 6 1 empty empty empty 20 12 0 14 -1 -66577 0;
#X obj 182 234 cnv 2 6 1 empty empty empty 20 12 0 14 -1 -66577 0;
#X obj 182 239 cnv 2 6 1 empty empty empty 20 12 0 14 -1 -66577 0;
#X obj 182 245 cnv 2 6 1 empty empty empty 20 12 0 14 -1 -66577 0;
#X obj 182 250 cnv 2 6 1 empty empty empty 20 12 0 14 -1 -66577 0;
#X obj 182 256 cnv 2 6 1 empty empty empty 20 12 0 14 -1 -66577 0;
#X obj 182 262 cnv 2 6 1 empty empty empty 20 12 0 14 -1 -66577 0;
#X obj 182 268 cnv 2 6 1 empty empty empty 20 12 0 14 -1 -66577 0;
#X obj 182 272 cnv 2 6 1 empty empty empty 20 12 0 14 -1 -66577 0;
#X obj 182 277 cnv 2 6 1 empty empty empty 20 12 0 14 -1 -66577 0;
#X obj 102 176 cnv 1 94 2 empty empty empty 20 12 0 14 -162280 -66577
0;
#X msg 243 180 -0.5;
#X floatatom 37 451 5 0 0 0 - - -;
#X obj 890 313 symbol;
#X obj 685 481 s screenLine3;
#X obj 890 332 t s b;
#X obj 852 116 * 100;
#X obj 853 135 int;
#X obj 769 13 * 100;
#X obj 769 31 int;
#X obj 770 65 * 100;
#X obj 771 84 int;
#X obj 775 137 int;
#X obj 774 118 * -100;
#X msg 855 153 Vol:___\$1%;
#X msg 777 155 Pan:___\$1%;
#X msg 588 415 bang;
#X msg 771 49 Reverb_send:\$1%;
#X msg 771 102 Delay_send:\$1%;
#X obj 427 29 r aux;
#X obj 424 48 sel 1;
#X msg 422 65 0;
#X msg 447 66 1;
#X obj 245 95 spigot;
#X obj 286 95 spigot;
#X msg 449 84 0;
#X msg 425 83 1;
#X obj 268 129 spigot;
#X obj 308 129 spigot;
#X obj 850 11 * 100;
#X obj 851 30 int;
#X msg 786 440 Del Rev Pan Vol;
#X msg 851 47 Del2_send:\$1%;
#X obj 853 65 * 100;
#X obj 852 84 int;
#X msg 853 101 Pitch_send:\$1%;
#X msg 919 365 bang, f 5;
#X obj 919 347 delay 666;
#X obj 657 349 symbol;
#X obj 657 368 t s b, f 7;
#X obj 539 238 t f;
#X obj 538 254 change;
#X obj 538 272 sel 1 0;
#X obj 537 290 bng 15 250 50 0 empty empty empty 17 7 0 10 -262144
-1 -1;
#X obj 563 290 bng 15 250 50 0 empty empty empty 17 7 0 10 -262144
-1 -1;
#X obj 537 319 delay 6;
#X obj 694 388 delay 999;
#X obj 615 207 s syntyp;
#X msg 616 189 symbol 54mplR;
#X obj 11 62 r~ chs1\$1, f 12;
#X obj 11 80 r~ chs2\$1, f 14;
#X obj 89 495 *~;
#X obj 367 132 delay 12;
#X obj 395 157 sel 13 14;
#X msg 383 184 0;
#X msg 427 184 -1;
#X obj 85 313 f;
#X obj 41 194 sel 0;
#X msg 48 267 0;
#X obj 149 4 r ldb, f 23;
#X obj 58 229 t b;
#X connect 2 0 155 0;
#X connect 3 0 104 0;
#X connect 3 0 154 0;
#X connect 3 0 154 1;
#X connect 4 0 6 0;
#X connect 4 0 10 0;
#X connect 4 0 65 0;
#X connect 4 0 69 0;
#X connect 4 0 11 0;
#X connect 5 0 8 0;
#X connect 5 0 9 0;
#X connect 5 0 111 0;
#X connect 6 0 14 0;
#X connect 7 0 15 0;
#X connect 8 0 6 1;
#X connect 8 0 100 0;
#X connect 9 0 7 1;
#X connect 10 0 12 0;
#X connect 11 0 13 0;
#X connect 16 0 17 0;
#X connect 17 0 2 0;
#X connect 19 0 20 0;
#X connect 19 0 151 0;
#X connect 20 0 17 1;
#X connect 21 0 4 1;
#X connect 21 0 149 1;
#X connect 22 0 21 0;
#X connect 23 0 3 0;
#X connect 25 0 10 1;
#X connect 26 0 11 1;
#X connect 27 0 28 0;
#X connect 28 0 10 1;
#X connect 29 0 11 1;
#X connect 30 0 29 0;
#X connect 31 0 36 0;
#X connect 32 0 3 0;
#X connect 33 0 31 0;
#X connect 34 0 32 0;
#X connect 35 0 2 0;
#X connect 35 0 121 1;
#X connect 35 0 122 1;
#X connect 36 0 5 0;
#X connect 37 0 41 0;
#X connect 38 0 42 0;
#X connect 39 0 43 0;
#X connect 40 0 44 0;
#X connect 41 0 121 0;
#X connect 41 0 125 0;
#X connect 42 0 122 0;
#X connect 42 0 126 0;
#X connect 43 0 46 0;
#X connect 44 0 3 0;
#X connect 45 0 41 1;
#X connect 45 0 42 1;
#X connect 45 0 43 1;
#X connect 45 0 44 1;
#X connect 45 0 138 0;
#X connect 46 0 5 0;
#X connect 49 0 53 0;
#X connect 49 1 54 0;
#X connect 50 0 59 0;
#X connect 51 0 52 0;
#X connect 52 1 64 0;
#X connect 53 0 60 0;
#X connect 54 0 60 0;
#X connect 55 0 57 0;
#X connect 56 0 57 0;
#X connect 57 0 60 0;
#X connect 57 1 60 1;
#X connect 58 0 49 1;
#X connect 59 0 49 0;
#X connect 59 1 58 0;
#X connect 60 0 61 0;
#X connect 61 0 62 0;
#X connect 61 1 63 0;
#X connect 62 0 45 0;
#X connect 63 0 45 0;
#X connect 64 0 55 0;
#X connect 64 1 56 0;
#X connect 65 0 67 0;
#X connect 66 0 65 1;
#X connect 68 0 69 1;
#X connect 69 0 70 0;
#X connect 74 0 25 0;
#X connect 74 0 108 0;
#X connect 75 0 26 0;
#X connect 75 0 106 0;
#X connect 76 0 66 0;
#X connect 76 0 127 0;
#X connect 77 0 68 0;
#X connect 77 0 131 0;
#X connect 79 0 136 0;
#X connect 80 0 2 0;
#X connect 81 0 72 0;
#X connect 82 0 71 0;
#X connect 83 0 3 0;
#X connect 99 0 5 0;
#X connect 101 0 103 0;
#X connect 103 0 102 0;
#X connect 103 1 135 0;
#X connect 104 0 105 0;
#X connect 105 0 112 0;
#X connect 106 0 107 0;
#X connect 107 0 115 0;
#X connect 108 0 109 0;
#X connect 109 0 116 0;
#X connect 110 0 113 0;
#X connect 111 0 110 0;
#X connect 112 0 101 0;
#X connect 113 0 101 0;
#X connect 114 0 71 0;
#X connect 114 0 72 0;
#X connect 114 0 102 0;
#X connect 114 0 73 0;
#X connect 115 0 101 0;
#X connect 116 0 101 0;
#X connect 117 0 118 0;
#X connect 118 0 119 0;
#X connect 118 0 124 0;
#X connect 118 1 120 0;
#X connect 118 1 123 0;
#X connect 119 0 121 1;
#X connect 119 0 122 1;
#X connect 120 0 121 1;
#X connect 120 0 122 1;
#X connect 121 0 74 0;
#X connect 122 0 75 0;
#X connect 123 0 125 1;
#X connect 123 0 126 1;
#X connect 124 0 125 1;
#X connect 124 0 126 1;
#X connect 125 0 76 0;
#X connect 126 0 77 0;
#X connect 127 0 128 0;
#X connect 128 0 130 0;
#X connect 129 0 73 0;
#X connect 130 0 101 0;
#X connect 131 0 132 0;
#X connect 132 0 133 0;
#X connect 133 0 101 0;
#X connect 134 0 102 0;
#X connect 135 0 134 0;
#X connect 136 0 137 0;
#X connect 137 0 102 0;
#X connect 137 1 144 0;
#X connect 138 0 139 0;
#X connect 139 0 140 0;
#X connect 140 0 141 0;
#X connect 140 0 143 0;
#X connect 140 1 142 0;
#X connect 140 1 114 0;
#X connect 143 0 129 0;
#X connect 143 0 81 0;
#X connect 143 0 82 0;
#X connect 143 0 79 0;
#X connect 144 0 102 0;
#X connect 146 0 145 0;
#X connect 147 0 4 0;
#X connect 148 0 149 0;
#X connect 149 0 7 0;
#X connect 150 0 19 0;
#X connect 151 0 152 0;
#X connect 151 1 153 0;
#X connect 152 0 5 0;
#X connect 153 0 5 0;
#X connect 154 0 22 0;
#X connect 155 0 156 0;
#X connect 155 1 158 0;
#X connect 156 0 22 0;
#X connect 157 0 35 0;
#X connect 157 0 83 0;
#X connect 157 0 99 0;
#X connect 157 0 150 0;
#X connect 158 0 154 0;
#X coords 0 -1 1 1 100 185 2 100 100;
