#N canvas 48 214 1228 414 10;
#X obj 100 101 cnv 15 97 103 empty empty empty 20 12 0 14 -33289 -66577
0;
#X obj 102 102 cnv 15 93 99 empty empty empty 20 12 0 14 -228856 -66577
0;
#X obj -50 15 inlet~;
#X obj -7 15 inlet~;
#X obj -51 252 outlet~;
#X obj 41 305 outlet~;
#N canvas 154 223 858 393 dfm1lowpas//////// 0;
#N canvas 0 300 495 254 passthruB 0;
#X obj 70 147 inlet~;
#X obj 70 166 hip~ 5;
#X obj 70 185 outlet~;
#X obj 130 147 inlet~;
#X obj 130 166 hip~ 5;
#X obj 130 185 outlet~;
#X obj 250 145 inlet;
#X obj 250 164 * -1;
#X obj 250 183 + 1;
#X obj 250 202 switch~;
#X connect 0 0 1 0;
#X connect 1 0 2 0;
#X connect 3 0 4 0;
#X connect 4 0 5 0;
#X connect 6 0 7 0;
#X connect 7 0 8 0;
#X connect 8 0 9 0;
#X restore 277 175 pd passthruB;
#X obj 461 141 tgl 15 0 empty empty empty 17 7 0 10 -262144 -1 -1 0
1;
#X obj 226 119 inlet~;
#X obj 269 119 inlet~;
#X obj 244 232 outlet~;
#X obj 294 232 outlet~;
#N canvas 244 266 795 418 dsprocA 0;
#X obj 70 147 inlet~;
#X obj 70 365 outlet~;
#X obj 130 147 inlet~;
#X obj 716 143 inlet;
#X obj 716 165 switch~;
#X obj 197 367 outlet~;
#X obj 255 120 inlet;
#X obj 293 120 inlet;
#X obj 330 120 inlet;
#X obj 368 120 inlet;
#X obj 87 344 hip~ 5;
#X obj 198 344 hip~ 5;
#X obj 128 254 lop~ 111;
#X obj 109 200 *~ 2;
#X connect 0 0 13 0;
#X connect 2 0 13 0;
#X connect 3 0 4 0;
#X connect 10 0 1 0;
#X connect 11 0 5 0;
#X connect 12 0 10 0;
#X connect 12 0 11 0;
#X connect 13 0 12 0;
#X restore 360 175 pd dsprocA;
#X obj 459 121 inlet;
#X obj 349 49 inlet;
#X msg 400 70 0.7;
#X obj 399 42 loadbang;
#X msg 442 75 0;
#X connect 0 0 4 0;
#X connect 0 1 5 0;
#X connect 1 0 0 2;
#X connect 1 0 6 6;
#X connect 2 0 0 0;
#X connect 2 0 6 0;
#X connect 3 0 0 1;
#X connect 3 0 6 1;
#X connect 6 0 4 0;
#X connect 6 1 5 0;
#X connect 7 0 1 0;
#X connect 8 0 6 2;
#X connect 9 0 6 4;
#X connect 9 0 6 5;
#X connect 10 0 9 0;
#X connect 10 0 11 0;
#X connect 11 0 6 5;
#X restore -50 36 pd dfm1lowpas////////;
#N canvas 184 291 858 393 dfm1hipass//////// 0;
#N canvas 0 300 495 254 passthruB 0;
#X obj 70 147 inlet~;
#X obj 70 166 hip~ 5;
#X obj 70 185 outlet~;
#X obj 130 147 inlet~;
#X obj 130 166 hip~ 5;
#X obj 130 185 outlet~;
#X obj 250 145 inlet;
#X obj 250 164 * -1;
#X obj 250 183 + 1;
#X obj 250 202 switch~;
#X connect 0 0 1 0;
#X connect 1 0 2 0;
#X connect 3 0 4 0;
#X connect 4 0 5 0;
#X connect 6 0 7 0;
#X connect 7 0 8 0;
#X connect 8 0 9 0;
#X restore 277 175 pd passthruB;
#X obj 416 158 tgl 15 0 empty empty empty 17 7 0 10 -262144 -1 -1 0
1;
#X obj 226 119 inlet~;
#X obj 269 119 inlet~;
#X obj 244 232 outlet~;
#X obj 294 232 outlet~;
#N canvas 244 266 795 418 dsprocA 0;
#X obj 81 178 inlet~;
#X obj 70 365 outlet~;
#X obj 198 230 inlet~;
#X obj 716 143 inlet;
#X obj 716 165 switch~;
#X obj 197 367 outlet~;
#X obj 106 306 hip~ 2222;
#X obj 206 330 hip~ 3333;
#X obj 162 283 *~ 3;
#X obj 219 278 *~ 3;
#X connect 0 0 8 0;
#X connect 2 0 9 0;
#X connect 3 0 4 0;
#X connect 6 0 1 0;
#X connect 7 0 5 0;
#X connect 8 0 6 0;
#X connect 9 0 7 0;
#X restore 360 175 pd dsprocA;
#X obj 414 138 inlet;
#X connect 0 0 4 0;
#X connect 0 1 5 0;
#X connect 1 0 0 2;
#X connect 1 0 6 2;
#X connect 2 0 0 0;
#X connect 2 0 6 0;
#X connect 3 0 0 1;
#X connect 3 0 6 1;
#X connect 6 0 4 0;
#X connect 6 1 5 0;
#X connect 7 0 1 0;
#X restore -52 56 pd dfm1hipass////////;
#X obj 146 106 nbx 3 14 15 137 0 0 empty empty empty 0 -8 0 10 -1 -257985
-260097 15 256;
#X obj 108 106 nbx 3 14 15 137 0 0 empty empty empty 0 -8 0 10 -1 -258113
-260097 15 256;
#X obj 131 156 tgl 15 0 empty empty empty 17 7 0 10 -257985 -1 -1 0
1;
#X obj 111 156 tgl 15 0 empty empty empty 17 7 0 10 -258113 -1 -1 0
1;
#N canvas 0 22 450 300 redux_////////R 0;
#N canvas 0 300 495 254 passthruB 0;
#X obj 70 147 inlet~;
#X obj 70 166 hip~ 5;
#X obj 70 185 outlet~;
#X obj 130 147 inlet~;
#X obj 130 166 hip~ 5;
#X obj 130 185 outlet~;
#X obj 250 145 inlet;
#X obj 250 164 * -1;
#X obj 250 183 + 1;
#X obj 250 202 switch~;
#X connect 0 0 1 0;
#X connect 1 0 2 0;
#X connect 3 0 4 0;
#X connect 4 0 5 0;
#X connect 6 0 7 0;
#X connect 7 0 8 0;
#X connect 8 0 9 0;
#X restore 277 175 pd passthruB;
#X obj 399 123 tgl 15 0 empty empty empty 17 7 0 10 -262144 -1 -1 0
1;
#X obj 285 142 inlet~;
#X obj 328 142 inlet~;
#X obj 277 204 outlet~;
#X obj 327 204 outlet~;
#N canvas 0 22 495 254 dsprocA 0;
#X obj 70 147 inlet~;
#X obj 70 346 hip~ 5;
#X obj 70 365 outlet~;
#X obj 130 147 inlet~;
#X obj 233 145 inlet;
#X obj 233 163 switch~;
#X obj 70 326 samphold~;
#X obj 130 346 hip~ 5;
#X obj 130 365 outlet~;
#X obj 130 326 samphold~;
#X obj 233 183 select 1;
#X msg 233 202 0;
#X obj 158 268 phasor~ 4410;
#X connect 0 0 6 0;
#X connect 1 0 2 0;
#X connect 3 0 9 0;
#X connect 4 0 5 0;
#X connect 4 0 10 0;
#X connect 6 0 1 0;
#X connect 7 0 8 0;
#X connect 9 0 7 0;
#X connect 10 0 11 0;
#X connect 11 0 12 1;
#X connect 12 0 6 1;
#X connect 12 0 9 1;
#X restore 360 175 pd dsprocA;
#X obj 399 102 inlet;
#X connect 0 0 4 0;
#X connect 0 1 5 0;
#X connect 1 0 0 2;
#X connect 1 0 6 2;
#X connect 2 0 0 0;
#X connect 2 0 6 0;
#X connect 3 0 0 1;
#X connect 3 0 6 1;
#X connect 6 0 4 0;
#X connect 6 1 5 0;
#X connect 7 0 1 0;
#X restore -56 77 pd redux_////////R;
#X obj 150 156 tgl 15 0 empty empty empty 17 7 0 10 -4032 -1 -1 0 1
;
#X obj 170 156 tgl 15 0 empty empty empty 17 7 0 10 -4034 -1 -1 0 1
;
#N canvas 0 22 806 378 pfizer_////////R 0;
#N canvas 0 300 495 254 passthruB 0;
#X obj 70 147 inlet~;
#X obj 70 166 hip~ 5;
#X obj 70 185 outlet~;
#X obj 130 147 inlet~;
#X obj 130 166 hip~ 5;
#X obj 130 185 outlet~;
#X obj 250 145 inlet;
#X obj 250 164 * -1;
#X obj 250 183 + 1;
#X obj 250 202 switch~;
#X connect 0 0 1 0;
#X connect 1 0 2 0;
#X connect 3 0 4 0;
#X connect 4 0 5 0;
#X connect 6 0 7 0;
#X connect 7 0 8 0;
#X connect 8 0 9 0;
#X restore 277 175 pd passthruB;
#X obj 399 123 tgl 15 0 empty empty empty 17 7 0 10 -262144 -1 -1 0
1;
#X obj 285 142 inlet~;
#X obj 328 142 inlet~;
#X obj 277 204 outlet~;
#X obj 327 204 outlet~;
#N canvas 406 278 782 442 dsprocA 0;
#X obj 68 233 inlet~;
#X obj 72 346 hip~ 5;
#X obj 72 365 outlet~;
#X obj 128 233 inlet~;
#X obj 338 137 inlet;
#X obj 323 168 switch~;
#X obj 132 346 hip~ 5;
#X obj 132 365 outlet~;
#N canvas 247 22 694 637 phaser 0;
#X text 457 572 updated for Pd version 0.39;
#X text 176 9 PHASER;
#N canvas 876 177 375 255 startup 0;
#X obj 22 24 loadbang;
#X obj 22 48 bng 15 250 50 0 empty empty empty 0 -6 0 8 -262144 -1
-1;
#X obj 22 67 f \$0;
#X text 35 195 This subpatch loads initial;
#X text 31 219 values in number boxes.;
#X msg 22 91 \; \$1-pole 80;
#X connect 0 0 1 0;
#X connect 1 0 2 0;
#X connect 2 0 5 0;
#X restore 322 547 pd startup;
#X obj 104 335 rpole~;
#X obj 104 310 rzero_rev~;
#X obj 104 384 rpole~;
#X obj 104 359 rzero_rev~;
#X obj 104 432 rpole~;
#X obj 104 407 rzero_rev~;
#X obj 104 481 rpole~;
#X obj 104 456 rzero_rev~;
#X obj 81 511 +~;
#X text 233 13 The phaser ranks \, along with fuzz and wah-wah \, as
one of the great guitar pedals. A phaser simply adds an all-passed
copy of the signal to the original \, making phase reinforcement and
cancellation at frequencies that depend on the all-pass coefficients.
In this example the coefficients range from 0.88 to 0.98 \, controlled
by a phasor~ object (no relation). The phasor~ is converted to a symmetrical
triangle wave (abs($v1-0.5)) and then ranged appropriately.;
#X obj 188 363 phasor~ 0.3;
#X text 31 168 Many variations of this have been invented. A deeper
effect can be obtained by using 12 all-pass filters and adding the
outputs of the 4th \, 8th. and 12th one to the original. Various stereo
configurations are possible. Some people use 6 instead of the 4 stages
used here. Controls can be added to change the frequency of sweeping
and the range of the all-pass coeefficients.;
#X obj 185 388 expr~ 1 - 0.03 - 0.6*abs($v1-0.5)*abs($v1-0.5);
#X obj 308 310 hsl 128 15 0 127 0 0 empty empty empty -2 -8 0 10 -262144
-1 -1 0 1;
#X obj 303 342 / 127;
#X floatatom 341 361 5 0 0 0 - - -;
#X text 226 227 4;
#X obj 53 297 inlet~;
#X obj 243 283 inlet;
#X obj 83 556 outlet~;
#X connect 3 0 6 0;
#X connect 4 0 3 0;
#X connect 5 0 8 0;
#X connect 6 0 5 0;
#X connect 7 0 10 0;
#X connect 8 0 7 0;
#X connect 9 0 11 1;
#X connect 10 0 9 0;
#X connect 11 0 22 0;
#X connect 13 0 15 0;
#X connect 15 0 4 1;
#X connect 15 0 3 1;
#X connect 15 0 6 1;
#X connect 15 0 5 1;
#X connect 15 0 8 1;
#X connect 15 0 7 1;
#X connect 15 0 10 1;
#X connect 15 0 9 1;
#X connect 16 0 17 0;
#X connect 17 0 13 1;
#X connect 17 0 18 0;
#X connect 20 0 4 0;
#X connect 20 0 11 0;
#X connect 21 0 13 0;
#X coords 0 0 1 1 88 26 0;
#X restore 70 261 pd phaser;
#N canvas 247 22 694 637 phaser 0;
#X text 457 572 updated for Pd version 0.39;
#X text 176 9 PHASER;
#N canvas 876 177 375 255 startup 0;
#X obj 22 24 loadbang;
#X obj 22 48 bng 15 250 50 0 empty empty empty 0 -6 0 8 -262144 -1
-1;
#X obj 22 67 f \$0;
#X text 35 195 This subpatch loads initial;
#X text 31 219 values in number boxes.;
#X msg 22 91 \; \$1-pole 80;
#X connect 0 0 1 0;
#X connect 1 0 2 0;
#X connect 2 0 5 0;
#X restore 322 547 pd startup;
#X obj 104 335 rpole~;
#X obj 104 310 rzero_rev~;
#X obj 104 384 rpole~;
#X obj 104 359 rzero_rev~;
#X obj 104 432 rpole~;
#X obj 104 407 rzero_rev~;
#X obj 104 481 rpole~;
#X obj 104 456 rzero_rev~;
#X obj 81 511 +~;
#X text 233 13 The phaser ranks \, along with fuzz and wah-wah \, as
one of the great guitar pedals. A phaser simply adds an all-passed
copy of the signal to the original \, making phase reinforcement and
cancellation at frequencies that depend on the all-pass coefficients.
In this example the coefficients range from 0.88 to 0.98 \, controlled
by a phasor~ object (no relation). The phasor~ is converted to a symmetrical
triangle wave (abs($v1-0.5)) and then ranged appropriately.;
#X obj 188 363 phasor~ 0.3;
#X text 31 168 Many variations of this have been invented. A deeper
effect can be obtained by using 12 all-pass filters and adding the
outputs of the 4th \, 8th. and 12th one to the original. Various stereo
configurations are possible. Some people use 6 instead of the 4 stages
used here. Controls can be added to change the frequency of sweeping
and the range of the all-pass coeefficients.;
#X obj 185 388 expr~ 1 - 0.03 - 0.6*abs($v1-0.5)*abs($v1-0.5);
#X obj 308 310 hsl 128 15 0 127 0 0 empty empty empty -2 -8 0 10 -262144
-1 -1 0 1;
#X obj 303 342 / 127;
#X floatatom 341 361 5 0 0 0 - - -;
#X text 226 227 4;
#X obj 53 297 inlet~;
#X obj 243 283 inlet;
#X obj 83 556 outlet~;
#X connect 3 0 6 0;
#X connect 4 0 3 0;
#X connect 5 0 8 0;
#X connect 6 0 5 0;
#X connect 7 0 10 0;
#X connect 8 0 7 0;
#X connect 9 0 11 1;
#X connect 10 0 9 0;
#X connect 11 0 22 0;
#X connect 13 0 15 0;
#X connect 15 0 4 1;
#X connect 15 0 3 1;
#X connect 15 0 6 1;
#X connect 15 0 5 1;
#X connect 15 0 8 1;
#X connect 15 0 7 1;
#X connect 15 0 10 1;
#X connect 15 0 9 1;
#X connect 16 0 17 0;
#X connect 17 0 13 1;
#X connect 17 0 18 0;
#X connect 20 0 4 0;
#X connect 20 0 11 0;
#X connect 21 0 13 0;
#X coords 0 0 1 1 88 26 0;
#X restore 129 261 pd phaser;
#X obj 189 233 inlet;
#X obj 62 294 *~ 0.6;
#X obj 140 289 *~ 0.6;
#X connect 0 0 8 0;
#X connect 1 0 2 0;
#X connect 3 0 9 0;
#X connect 4 0 5 0;
#X connect 6 0 7 0;
#X connect 8 0 11 0;
#X connect 9 0 12 0;
#X connect 10 0 8 1;
#X connect 10 0 9 1;
#X connect 11 0 1 0;
#X connect 12 0 6 0;
#X restore 360 175 pd dsprocA;
#X obj 399 102 inlet;
#X connect 0 0 4 0;
#X connect 0 1 5 0;
#X connect 1 0 0 2;
#X connect 1 0 6 3;
#X connect 2 0 0 0;
#X connect 2 0 6 0;
#X connect 3 0 0 1;
#X connect 3 0 6 1;
#X connect 6 0 4 0;
#X connect 6 1 5 0;
#X connect 7 0 1 0;
#X restore -55 99 pd pfizer_////////R;
#X obj 236 79 loadbang;
#X obj 233 104 t b b;
#X msg 257 134 1;
#X msg 232 130 0;
#X obj 131 176 tgl 15 0 empty empty empty 17 7 0 10 -261682 -1 -1 0
1;
#X obj 111 176 tgl 15 0 empty empty empty 17 7 0 10 -260097 -1 -1 0
1;
#X obj 150 176 tgl 15 0 empty empty empty 17 7 0 10 -4160 -1 -1 0 1
;
#X obj 170 176 tgl 15 0 empty empty empty 17 7 0 10 -159808 -1 -1 0
1;
#N canvas 0 22 806 378 ringmor_////////R 0;
#N canvas 0 300 495 254 passthruB 0;
#X obj 70 147 inlet~;
#X obj 70 185 outlet~;
#X obj 130 147 inlet~;
#X obj 130 185 outlet~;
#X obj 250 145 inlet;
#X obj 250 164 * -1;
#X obj 250 183 + 1;
#X obj 250 202 switch~;
#X obj 130 166 hip~ 10;
#X obj 70 166 hip~ 10;
#X connect 0 0 9 0;
#X connect 2 0 8 0;
#X connect 4 0 5 0;
#X connect 5 0 6 0;
#X connect 6 0 7 0;
#X connect 8 0 3 0;
#X connect 9 0 1 0;
#X restore 277 175 pd passthruB;
#X obj 549 135 tgl 15 0 empty empty empty 17 7 0 10 -262144 -1 -1 0
1;
#X obj 285 142 inlet~;
#X obj 328 142 inlet~;
#X obj 277 204 outlet~;
#X obj 327 204 outlet~;
#N canvas 302 22 782 442 dsprocA 0;
#X obj 41 100 inlet~;
#X obj 70 303 outlet~;
#X obj 101 100 inlet~;
#X obj 485 117 inlet;
#X obj 486 137 switch~;
#X obj 130 303 outlet~;
#X obj 184 143 inlet;
#X obj 75 176 osc~ 60;
#X obj 131 176 osc~ 61;
#X obj 225 144 inlet;
#X obj 243 166 t b f;
#X obj 53 228 *~;
#X obj 104 228 *~;
#X obj 223 184 + 5;
#X obj 70 284 hip~ 15;
#X obj 130 284 hip~ 15;
#X connect 0 0 11 0;
#X connect 2 0 12 0;
#X connect 3 0 4 0;
#X connect 6 0 7 0;
#X connect 6 0 13 0;
#X connect 7 0 11 1;
#X connect 8 0 12 1;
#X connect 9 0 10 0;
#X connect 10 0 13 0;
#X connect 10 1 13 1;
#X connect 11 0 14 0;
#X connect 12 0 15 0;
#X connect 13 0 8 0;
#X connect 14 0 1 0;
#X connect 15 0 5 0;
#X restore 360 175 pd dsprocA;
#X obj 549 114 inlet;
#X obj 396 122 inlet;
#X obj 436 122 inlet;
#X connect 0 0 4 0;
#X connect 0 1 5 0;
#X connect 1 0 0 2;
#X connect 1 0 6 4;
#X connect 2 0 0 0;
#X connect 2 0 6 0;
#X connect 3 0 0 1;
#X connect 3 0 6 1;
#X connect 6 0 4 0;
#X connect 6 1 5 0;
#X connect 7 0 1 0;
#X connect 8 0 6 2;
#X connect 9 0 6 3;
#X restore -55 195 pd ringmor_////////R;
#X obj 108 125 nbx 3 14 15 137 0 0 empty empty empty 0 -8 0 10 -1 -260097
-260097 15 256;
#X obj 30 169 nbx 3 14 15 137 0 0 empty empty empty 0 -8 0 10 -1 -260097
-260097 15 256;
#X obj 426 34 r notes;
#X obj 347 66 unpack;
#X obj 325 175 tgl 15 0 empty empty empty 17 7 0 10 -262144 -1 -1 0
1;
#X obj 414 177 tgl 15 0 empty empty empty 17 7 0 10 -262144 -1 -1 0
1;
#X obj 486 202 tgl 15 0 empty empty empty 17 7 0 10 -262144 -1 -1 0
1;
#X obj 311 110 sel 62;
#X obj 388 149 sel 64;
#X obj 472 165 sel 65;
#X obj 423 119 spigot;
#X obj 576 112 sel 0;
#X obj 630 87 r chen;
#X floatatom 593 142 5 0 0 0 - - -;
#X msg 468 114 1;
#X msg 495 115 0, f 8;
#X obj 236 40 sel 61 63;
#N canvas 42 419 215 265 feel 0;
#X obj 21 86 & 1;
#X obj 21 58 t f f;
#X obj 21 25 inlet;
#X obj 21 221 outlet;
#X obj 21 126 pack;
#X obj 21 152 route 0 1;
#X text 16 170 even;
#X text 56 170 odd;
#X obj 89 152 *;
#X obj 99 125 t b f;
#X floatatom 89 192 5 0 0 0 - - -;
#X obj 46 191 pipe;
#X text 127 192 milliseconds;
#X obj 74 25 inlet;
#X obj 99 91 r ticklength16;
#X floatatom 164 111 5 0 0 0 - - -;
#X floatatom 151 50 5 0 0 0 - - -;
#X obj 117 50 * 200;
#X connect 0 0 4 0;
#X connect 1 0 0 0;
#X connect 1 1 4 1;
#X connect 2 0 1 0;
#X connect 4 0 5 0;
#X connect 5 0 3 0;
#X connect 5 1 11 0;
#X connect 8 0 10 0;
#X connect 8 0 11 1;
#X connect 9 0 8 0;
#X connect 9 1 8 1;
#X connect 11 0 3 0;
#X connect 13 0 8 0;
#X connect 13 0 17 0;
#X connect 14 0 9 0;
#X connect 15 0 9 0;
#X connect 17 0 15 0;
#X restore 600 251 pd feel;
#X obj 638 233 r feel;
#X obj 600 270 t b;
#X obj 600 292 f;
#X obj 627 293 + 1;
#X msg 653 292 0, f 4;
#X obj 626 272 sel 4;
#X obj 600 311 sel 1 2 3 4;
#X obj 720 46 r linkraw;
#X obj 780 198 tgl 15 0 empty empty empty 17 7 0 10 -262144 -1 -1 0
1;
#X obj 766 246 spigot;
#X obj 777 172 sel 66;
#X floatatom 909 223 5 0 0 0 - - -;
#X obj 716 184 tgl 15 0 empty empty empty 17 7 0 10 -262144 -1 -1 1
1;
#X obj 688 205 spigot;
#X obj 833 198 sel 1;
#X msg 832 219 0;
#X msg 859 219 1;
#X obj 203 297 sel 1 2 3 4 5 6 7 8 9 10 11 12 13 14 15 16;
#X obj 532 241 + 1;
#X msg 139 343 16;
#X msg 161 343 15;
#X msg 181 343 14, f 2;
#X msg 198 344 13;
#X msg 218 344 12;
#X msg 235 345 11;
#X msg 266 343 10;
#X msg 288 343 9;
#X msg 308 343 8, f 2;
#X msg 325 344 7;
#X msg 345 344 6;
#X msg 362 345 5;
#X msg 379 345 4;
#X msg 399 345 3;
#X msg 419 345 2, f 2;
#X msg 437 346 1;
#X obj 528 361 f;
#X obj 591 203 tgl 15 0 empty empty empty 17 7 0 10 -262144 -1 -1 0
1;
#X obj 722 291 spigot;
#X obj 544 320 sel 1;
#X msg 544 341 0;
#X msg 570 341 1;
#X obj 459 231 sel 68;
#X obj 799 114 tgl 15 0 empty empty empty 17 7 0 10 -262144 -1 -1 0
1;
#X obj 852 114 sel 1;
#X msg 851 135 0;
#X msg 878 135 1;
#X obj 779 90 sel 70;
#X obj 711 119 t b, f 5;
#X obj 835 276 spigot;
#X floatatom 834 301 5 0 0 0 - - -;
#X msg 738 143 1;
#X msg 617 361 0;
#X obj 929 52 inlet;
#X obj 780 304 f;
#X obj 765 390 s met64;
#X obj 996 238 spigot;
#X obj -51 231 *~, f 5;
#X obj -55 213 limiter~ 50 1;
#X obj -17 230 z~ 64;
#X obj 42 276 *~, f 6;
#X obj 45 231 limiter~ 50 1;
#X obj 82 250 z~ 64;
#X obj 1038 182 tgl 15 0 empty empty empty 17 7 0 10 -262144 -1 -1
0 1;
#X obj 1037 163 sel 67;
#X obj 992 273 t b;
#X obj 983 307 random 16;
#N canvas 4 50 1014 429 non/shif/hyper 0;
#X obj 372 93 r aux;
#X obj 381 271 tgl 15 0 empty empty empty 17 7 0 10 -262144 -1 -1 0
1;
#X obj 321 76 loadbang;
#X msg 321 132 1;
#X obj 469 191 r hpsh, f 12;
#X obj 446 271 tgl 15 0 empty empty empty 17 7 0 10 -262144 -1 -1 0
1;
#X obj 384 112 sel 1;
#X msg 383 136 0;
#X msg 407 136 1;
#X obj 333 269 tgl 15 0 empty empty empty 17 7 0 10 -262144 -1 -1 1
1;
#X obj 428 220 sel 1;
#X msg 422 238 0;
#X obj 331 297 outlet;
#X obj 381 302 outlet;
#X obj 446 306 outlet;
#X connect 0 0 1 0;
#X connect 0 0 6 0;
#X connect 1 0 13 0;
#X connect 2 0 3 0;
#X connect 3 0 9 0;
#X connect 4 0 5 0;
#X connect 4 0 10 0;
#X connect 5 0 14 0;
#X connect 6 0 7 0;
#X connect 6 1 8 0;
#X connect 7 0 9 0;
#X connect 8 0 9 0;
#X connect 9 0 12 0;
#X connect 10 0 11 0;
#X connect 11 0 1 0;
#X restore 526 12 pd non/shif/hyper;
#X obj 467 52 tgl 15 0 empty empty empty 17 7 0 10 -262144 -1 -1 1
1;
#X obj 581 37 tgl 15 0 empty empty empty 17 7 0 10 -262144 -1 -1 0
1;
#X obj 612 44 tgl 15 0 empty empty empty 17 7 0 10 -262144 -1 -1 0
1;
#X obj 425 52 spigot;
#X connect 2 0 6 0;
#X connect 3 0 6 1;
#X connect 6 0 7 0;
#X connect 6 1 7 1;
#X connect 7 0 12 0;
#X connect 7 1 12 1;
#X connect 9 0 6 2;
#X connect 10 0 7 2;
#X connect 11 0 6 3;
#X connect 12 0 15 0;
#X connect 12 1 15 1;
#X connect 13 0 12 2;
#X connect 14 0 15 2;
#X connect 15 0 24 0;
#X connect 15 1 24 1;
#X connect 16 0 17 0;
#X connect 17 0 19 0;
#X connect 17 1 18 0;
#X connect 18 0 14 0;
#X connect 18 0 13 0;
#X connect 18 0 10 0;
#X connect 18 0 11 0;
#X connect 18 0 21 0;
#X connect 18 0 55 0;
#X connect 19 0 14 0;
#X connect 19 0 13 0;
#X connect 19 0 10 0;
#X connect 19 0 11 0;
#X connect 19 0 21 0;
#X connect 21 0 24 4;
#X connect 24 0 100 0;
#X connect 24 0 101 0;
#X connect 24 1 103 0;
#X connect 24 1 104 0;
#X connect 25 0 24 2;
#X connect 26 0 24 3;
#X connect 27 0 113 0;
#X connect 28 0 32 0;
#X connect 28 0 33 0;
#X connect 28 0 34 0;
#X connect 28 0 41 0;
#X connect 28 0 53 0;
#X connect 28 0 84 0;
#X connect 28 0 89 0;
#X connect 28 0 106 0;
#X connect 32 0 29 0;
#X connect 32 0 13 0;
#X connect 33 0 30 0;
#X connect 33 0 14 0;
#X connect 34 0 31 0;
#X connect 34 0 21 0;
#X connect 35 0 28 0;
#X connect 36 0 39 0;
#X connect 36 1 40 0;
#X connect 37 0 38 0;
#X connect 37 0 36 0;
#X connect 39 0 35 1;
#X connect 40 0 35 1;
#X connect 41 0 11 0;
#X connect 41 1 10 0;
#X connect 42 0 44 0;
#X connect 43 0 42 1;
#X connect 44 0 45 0;
#X connect 45 0 46 0;
#X connect 45 0 48 0;
#X connect 45 0 49 0;
#X connect 46 0 45 1;
#X connect 47 0 45 0;
#X connect 48 0 47 0;
#X connect 49 0 94 0;
#X connect 49 1 94 0;
#X connect 49 2 94 0;
#X connect 49 3 94 0;
#X connect 50 0 42 0;
#X connect 50 0 56 0;
#X connect 50 0 61 0;
#X connect 50 0 90 0;
#X connect 50 0 98 0;
#X connect 51 0 52 1;
#X connect 51 0 57 0;
#X connect 52 0 54 0;
#X connect 52 0 96 0;
#X connect 53 0 51 0;
#X connect 55 0 56 1;
#X connect 56 0 96 0;
#X connect 57 0 58 0;
#X connect 57 1 59 0;
#X connect 58 0 55 0;
#X connect 59 0 55 0;
#X connect 60 0 62 0;
#X connect 60 1 63 0;
#X connect 60 2 64 0;
#X connect 60 3 65 0;
#X connect 60 4 66 0;
#X connect 60 5 67 0;
#X connect 60 6 68 0;
#X connect 60 7 69 0;
#X connect 60 8 70 0;
#X connect 60 9 71 0;
#X connect 60 10 72 0;
#X connect 60 11 73 0;
#X connect 60 12 74 0;
#X connect 60 13 75 0;
#X connect 60 14 76 0;
#X connect 60 15 77 0;
#X connect 61 0 60 0;
#X connect 62 0 78 0;
#X connect 63 0 78 0;
#X connect 64 0 78 0;
#X connect 65 0 78 0;
#X connect 66 0 78 0;
#X connect 67 0 78 0;
#X connect 68 0 78 0;
#X connect 69 0 78 0;
#X connect 70 0 78 0;
#X connect 71 0 78 0;
#X connect 72 0 78 0;
#X connect 73 0 78 0;
#X connect 74 0 78 0;
#X connect 75 0 78 0;
#X connect 76 0 78 0;
#X connect 77 0 78 0;
#X connect 78 0 80 0;
#X connect 79 0 80 1;
#X connect 79 0 81 0;
#X connect 80 0 96 0;
#X connect 81 0 82 0;
#X connect 81 1 83 0;
#X connect 82 0 55 0;
#X connect 83 0 55 0;
#X connect 84 0 79 0;
#X connect 85 0 86 0;
#X connect 85 0 91 1;
#X connect 86 0 87 0;
#X connect 86 1 88 0;
#X connect 87 0 55 0;
#X connect 88 0 55 0;
#X connect 89 0 85 0;
#X connect 90 0 93 0;
#X connect 91 0 92 0;
#X connect 91 0 96 0;
#X connect 93 0 91 0;
#X connect 94 0 52 0;
#X connect 96 0 97 0;
#X connect 98 0 107 0;
#X connect 99 0 4 0;
#X connect 100 0 99 0;
#X connect 101 0 99 1;
#X connect 102 0 5 0;
#X connect 103 0 102 0;
#X connect 104 0 102 1;
#X connect 105 0 98 1;
#X connect 106 0 105 0;
#X connect 107 0 108 0;
#X connect 108 0 97 0;
#X connect 109 0 110 0;
#X connect 109 1 111 0;
#X connect 109 2 112 0;
#X connect 110 0 113 1;
#X connect 113 0 35 0;
#X coords 0 -1 1 1 97 103 2 100 100;
