#N canvas 241 117 1181 708 10;
#X obj 102 101 cnv 15 97 97 empty empty empty 20 12 0 14 -33289 -66577
0;
#X obj 104 103 cnv 15 93 93 empty empty empty 20 12 0 14 -228856 -66577
0;
#X obj 109 121 hsl 85 10 0 1 0 0 empty empty empty 10 8 0 8 -228856
-33289 -33289 4253 0;
#X obj 109 143 hsl 85 10 0 1 0 0 empty empty empty 10 8 0 8 -162280
-1 -1 0 0;
#X obj 109 133 hsl 85 10 0 1 0 0 empty empty empty 10 8 0 8 -191407
-1 -1 0 0;
#X obj 109 153 hsl 85 10 0 1 0 0 empty empty empty 10 6 0 8 -66577
-260097 -260097 1363 0;
#X obj 180 106 cnv 8 14 14 empty \$0-met16 \$1 2 7 0 12 -33289 -257985
0;
#X text 1022 34 comment;
#X obj 144 106 cnv 8 14 14 empty \$0-met16 s3fm 2 7 0 12 -228856 -260097
0;
#X obj 368 388 cos~;
#X obj 368 342 *~;
#X obj 411 390 cos~;
#X obj 526 367 wrap~;
#X obj 489 366 -~;
#X obj 411 367 +~;
#X obj 409 425 -~;
#X obj 430 451 *~;
#X obj 489 336 samphold~;
#X floatatom 350 254 4 0 200 0 - - -;
#X obj 453 266 / 10;
#X text 453 162 center;
#X obj 453 315 line~;
#X text 453 182 freq. (in;
#X text 453 202 tenths of;
#X text 206 221 fundamental;
#X text 475 240 (= mod freq);
#X text 656 269 index;
#X text 656 289 (percent);
#X floatatom 586 303 4 0 500 0 - - -;
#X obj 606 381 cos~;
#X obj 638 386 line~;
#X obj 606 399 *~;
#X obj 638 351 / 100;
#X obj 638 369 pack 0 50;
#X obj 368 365 +~;
#X text 609 425 modulating;
#X text 609 445 oscillator;
#X text 261 467 both phases-->;
#X text 230 450 add modulator to;
#X obj 407 477 +~;
#X obj 449 522 *~;
#X obj 387 305 osc~;
#X msg 214 303 bang;
#X obj 296 115 t b f;
#X obj 399 562 clip~ -0.6 0.6;
#X obj 411 501 hip~ 10;
#X obj 371 520 *~ 0.6;
#X obj 216 181 mtof;
#X obj 231 201 spigot;
#X obj 260 178 tgl 15 0 empty empty empty 17 7 0 10 -262144 -1 -1 1
1;
#X obj 469 118 loadbang;
#X msg 431 49 1;
#X obj 211 8 r seq\$1;
#X obj 317 45 notein \$1;
#X obj 317 65 stripnote;
#X obj 261 283 * 127;
#X obj 32 101 ctlin 1 \$1;
#X obj 33 121 / 127;
#X obj 34 160 / 127;
#X obj 33 140 ctlin 2 \$1;
#X obj 32 198 / 127;
#X obj 32 236 / 127;
#X obj 32 180 ctlin 3 \$1;
#X obj 32 217 ctlin 4 \$1;
#X obj 579 26 r knob1;
#X obj 642 26 r knob2;
#X obj 703 26 r knob3;
#X obj 765 26 r knob4;
#X obj 584 48 spigot;
#X obj 643 48 spigot;
#X obj 703 47 spigot;
#X obj 760 48 spigot;
#X obj 835 59 sel \$1;
#X obj 833 23 r chan, f 10;
#X obj 901 24 r chen;
#X obj 900 60 sel 7;
#X obj 899 42 moses 6;
#X msg 836 79 1;
#X msg 863 79 0;
#X msg 900 78 1;
#X msg 929 78 0, f 4;
#X obj 839 156 tgl 15 0 empty empty empty 17 7 0 10 -257985 -1 -1 1
1;
#X obj 901 95 t b f;
#X obj 869 41 f \$1;
#X obj 834 41 t f b;
#X obj 839 97 +;
#X obj 840 115 sel 2;
#X msg 839 135 1;
#X msg 871 135 0;
#X msg 921 129 .;
#X obj 946 183 s screenLine5;
#X obj 988 352 s screenLine4;
#X obj 946 129 s screenLine2;
#X obj 832 202 s syntyp;
#X msg 833 183 symbol DX-#;
#X obj 216 163 - 0;
#N canvas 85 85 510 309 inv 0;
#X obj 134 187 f;
#X obj 134 242 vline~;
#X msg 134 225 1 \$1 \, 0 \$2 \$1;
#X obj 133 206 pack f f;
#X obj 134 260 outlet~;
#X obj 167 105 t b f;
#X obj 164 124 +;
#X obj 247 182 snapshot~;
#X obj 248 163 metro 1;
#X obj 249 105 tgl 15 0 empty empty empty 17 7 0 10 -262144 -1 -1 0
1;
#X obj 248 201 sel 0;
#X obj 248 241 spigot;
#X msg 248 222 bang;
#X obj 206 84 inlet;
#X obj 168 83 inlet;
#X obj 130 83 inlet;
#X obj 157 145 + 0.2;
#X obj 154 166 * 1;
#X obj 130 168 t b;
#X obj 248 87 inlet;
#X connect 0 0 3 0;
#X connect 1 0 7 0;
#X connect 1 0 4 0;
#X connect 2 0 1 0;
#X connect 3 0 2 0;
#X connect 5 0 6 0;
#X connect 5 1 6 1;
#X connect 6 0 16 0;
#X connect 7 0 10 0;
#X connect 8 0 7 0;
#X connect 9 0 8 0;
#X connect 9 0 11 1;
#X connect 10 0 12 0;
#X connect 11 0 18 0;
#X connect 12 0 11 0;
#X connect 13 0 3 1;
#X connect 14 0 5 0;
#X connect 15 0 18 0;
#X connect 16 0 17 0;
#X connect 17 0 0 1;
#X connect 18 0 0 0;
#X connect 19 0 9 0;
#X restore 146 405 pd inv;
#X obj 265 55 tgl 15 0 empty empty empty 17 7 0 10 -262144 -1 -1 1
1;
#X msg 110 44 0;
#X obj 247 88 switch~;
#X obj 264 8 inlet, f 7;
#X msg 140 46 1;
#X obj 140 66 change;
#X obj 287 234 + 0.1;
#X obj 289 256 * 66;
#X msg 316 210 0.3;
#X msg 343 228 0.1;
#X obj 884 300 symbol;
#X obj 884 356 s screenLine3;
#X obj 884 319 t s b;
#X msg 925 339 |, f 5;
#X obj 923 322 delay 999;
#X msg 629 142 ModFReq:\$1;
#X msg 1011 329 |, f 5;
#X msg 1025 278 ***FM1_synth***;
#X obj 1010 309 delay 666, f 12;
#X obj 170 443 *~;
#X obj 534 512 r flush, f 29;
#X msg 664 216 Attack:\$1;
#X msg 721 277 Decay:\$1;
#X msg 701 142 Depth:\$1;
#N canvas 40 229 883 455 Fxxxx 0;
#N canvas 12 312 906 372 redux_////////R 0;
#N canvas 4 300 495 254 passthruB 0;
#X obj 77 162 inlet~;
#X obj 77 183 hip~ 5;
#X obj 77 204 outlet~;
#X obj 275 160 inlet;
#X obj 275 180 * -1;
#X obj 275 201 + 1;
#X obj 275 222 switch~;
#X connect 0 0 1 0;
#X connect 1 0 2 0;
#X connect 3 0 4 0;
#X connect 4 0 5 0;
#X connect 5 0 6 0;
#X restore 305 193 pd passthruB;
#X obj 471 197 tgl 15 0 empty empty empty 17 7 0 10 -262144 -1 -1 0
1;
#X obj 311 127 inlet~;
#X obj 291 281 outlet~;
#N canvas 448 205 670 634 dsprocA 0;
#X obj 84 284 inlet~;
#X obj 83 336 hip~ 5;
#X obj 82 366 outlet~;
#X obj 261 237 inlet;
#X obj 261 258 switch~;
#X obj 83 314 samphold~;
#X obj 260 279 select 1;
#X msg 260 298 0;
#X obj 174 298 phasor~ 4410;
#X obj 174 220 mtof;
#X obj 200 203 + 100;
#X obj 200 184 * 20;
#X obj 200 165 inlet;
#X connect 0 0 5 0;
#X connect 1 0 2 0;
#X connect 3 0 4 0;
#X connect 3 0 6 0;
#X connect 5 0 1 0;
#X connect 6 0 7 0;
#X connect 7 0 8 1;
#X connect 8 0 5 1;
#X connect 9 0 8 0;
#X connect 10 0 9 0;
#X connect 11 0 10 0;
#X connect 12 0 11 0;
#X restore 396 193 pd dsprocA;
#X obj 471 174 inlet;
#X floatatom 44 44 5 0 0 0 - - -;
#X obj 424 139 inlet;
#X connect 0 0 3 0;
#X connect 1 0 0 1;
#X connect 1 0 4 2;
#X connect 2 0 0 0;
#X connect 2 0 4 0;
#X connect 4 0 3 0;
#X connect 5 0 1 0;
#X connect 7 0 4 1;
#X restore 102 157 pd redux_////////R;
#X obj 293 62 tgl 15 0 empty empty empty 17 7 0 10 -4032 -1 -1 0 1
;
#X obj 241 63 tgl 15 0 empty empty empty 17 7 0 10 -4034 -1 -1 0 1
;
#X obj 364 138 t b b;
#X msg 361 181 1, f 7;
#X msg 330 167 0;
#X obj 258 62 tgl 15 0 empty empty empty 17 7 0 10 -260097 -1 -1 0
1;
#N canvas 4 50 806 378 ringmor_////////R 0;
#N canvas 4 300 495 254 passthruB 0;
#X obj 77 162 inlet~;
#X obj 77 204 outlet~;
#X obj 275 160 inlet;
#X obj 275 180 * -1;
#X obj 275 201 + 1;
#X obj 275 222 switch~;
#X obj 77 183 hip~ 10;
#X connect 0 0 6 0;
#X connect 2 0 3 0;
#X connect 3 0 4 0;
#X connect 4 0 5 0;
#X connect 6 0 1 0;
#X restore 305 193 pd passthruB;
#X obj 604 149 tgl 15 0 empty empty empty 17 7 0 10 -262144 -1 -1 0
1;
#X obj 305 113 inlet~;
#X obj 305 224 outlet~;
#N canvas 302 50 782 442 dsprocA 0;
#X obj 45 110 inlet~;
#X obj 77 333 outlet~;
#X obj 534 129 inlet;
#X obj 535 151 switch~;
#X obj 220 95 inlet;
#X obj 66 212 osc~ 60;
#X obj 58 251 *~;
#X obj 77 312 hip~ 15;
#X connect 0 0 6 0;
#X connect 2 0 3 0;
#X connect 4 0 5 0;
#X connect 5 0 6 1;
#X connect 6 0 7 0;
#X connect 7 0 1 0;
#X restore 396 193 pd dsprocA;
#X obj 604 125 inlet;
#X obj 407 127 inlet;
#X connect 0 0 3 0;
#X connect 1 0 0 1;
#X connect 1 0 4 2;
#X connect 2 0 0 0;
#X connect 2 0 4 0;
#X connect 4 0 3 0;
#X connect 5 0 1 0;
#X connect 6 0 4 1;
#X restore 104 195 pd ringmor_////////R;
#N canvas 699 395 411 168 synthi///////R 0;
#N canvas 0 298 495 254 passthruB 0;
#X obj 77 162 inlet~;
#X obj 77 183 hip~ 5;
#X obj 77 204 outlet~;
#X obj 275 160 inlet;
#X obj 275 180 * -1;
#X obj 275 201 + 1;
#X obj 275 222 switch~;
#X connect 0 0 1 0;
#X connect 1 0 2 0;
#X connect 3 0 4 0;
#X connect 4 0 5 0;
#X connect 5 0 6 0;
#X restore 28 131 pd passthruB;
#X obj 195 108 tgl 15 0 empty empty empty 17 7 0 10 -262144 -1 -1 0
1;
#X obj 61 57 inlet~;
#X obj 46 193 outlet~;
#N canvas 162 77 1022 607 dsprocA 0;
#X obj 301 396 outlet~;
#X obj 647 173 inlet;
#X obj 647 191 switch~;
#X obj 297 303 inlet~;
#X msg 380 336 0;
#X msg 381 359 1;
#X msg 381 383 2;
#X msg 381 408 3;
#X msg 380 433 4;
#X text 415 335 ->a;
#X text 416 361 ->e;
#X text 415 384 ->i;
#X text 414 410 ->o;
#X text 414 435 ->u;
#X obj 298 342 vowel~ 0;
#X obj 300 373 *~ 0.2;
#X obj 611 220 int;
#X obj 611 240 change;
#X obj 299 322 *~ 4;
#X obj 611 192 * 4;
#X obj 611 173 inlet;
#X connect 1 0 2 0;
#X connect 3 0 18 0;
#X connect 4 0 14 1;
#X connect 5 0 14 1;
#X connect 6 0 14 1;
#X connect 7 0 14 1;
#X connect 8 0 14 1;
#X connect 14 0 15 0;
#X connect 15 0 0 0;
#X connect 16 0 17 0;
#X connect 17 0 14 1;
#X connect 18 0 14 0;
#X connect 19 0 16 0;
#X connect 20 0 19 0;
#X restore 132 131 pd dsprocA;
#X obj 195 85 inlet;
#X obj 146 76 inlet;
#X connect 0 0 3 0;
#X connect 1 0 0 1;
#X connect 1 0 4 2;
#X connect 2 0 0 0;
#X connect 2 0 4 0;
#X connect 4 0 3 0;
#X connect 5 0 1 0;
#X connect 6 0 4 1;
#X restore 105 213 pd synthi///////R;
#X obj 276 63 tgl 15 0 empty empty empty 17 7 0 10 -262144 -1 -1 0
1;
#N canvas 173 575 720 403 selektor 0;
#X obj -135 -83 int;
#X obj -184 -12 sel 1;
#X msg -193 11 1;
#X msg -149 13 0;
#X obj -184 40 tgl 15 0 empty empty empty 17 7 0 10 -262144 -1 -1 0
1;
#X msg -112 13 1;
#X msg -68 15 0;
#X obj -87 42 tgl 15 0 empty empty empty 17 7 0 10 -262144 -1 -1 0
1;
#X obj -104 -11 sel 2;
#X msg -33 15 1;
#X msg 10 18 0;
#X obj -8 44 tgl 15 0 empty empty empty 17 7 0 10 -262144 -1 -1 0 1
;
#X obj -24 -9 sel 3;
#X msg 73 2 1;
#X msg 117 4 0;
#X obj 98 31 tgl 15 0 empty empty empty 17 7 0 10 -262144 -1 -1 0 1
;
#X obj 81 -22 sel 4;
#X msg -272 13 1;
#X msg -228 15 0;
#X obj -261 47 tgl 15 0 empty empty empty 17 7 0 10 -262144 -1 -1 1
1;
#X obj -263 -11 sel 0;
#X obj -88 96 outlet;
#X obj -20 99 outlet;
#X obj 39 99 outlet;
#X obj -260 99 outlet;
#X obj -177 94 outlet;
#X obj 83 -81 r wig4;
#X msg 83 -53 4;
#X msg 35 -8 0;
#N canvas 1115 534 153 272 timeofineract 0;
#X obj 14 20 f;
#X obj 44 20 +;
#X obj 14 -1 t b f;
#X msg 13 -21 1;
#X msg 66 -29 0;
#X obj 20 -122 inlet;
#X obj 65 -122 inlet;
#X obj 12 -150 r ssec;
#X obj 15 52 outlet;
#X obj 13 -42 spigot;
#X msg 23 -100 1;
#X msg 22 -76 0;
#X obj 67 -101 t b b;
#X connect 0 0 1 1;
#X connect 0 0 8 0;
#X connect 1 0 0 1;
#X connect 2 0 0 0;
#X connect 2 1 1 0;
#X connect 3 0 2 0;
#X connect 4 0 0 0;
#X connect 5 0 10 0;
#X connect 6 0 12 0;
#X connect 7 0 9 0;
#X connect 9 0 3 0;
#X connect 10 0 9 1;
#X connect 11 0 9 1;
#X connect 12 0 4 0;
#X connect 12 1 11 0;
#X restore 165 -67 pd timeofineract;
#X floatatom 165 -45 5 0 0 0 - - -;
#X obj 218 -10 r nointe;
#X obj -135 -106 * 4;
#X obj 165 -22 sel 20;
#X obj -32 -71 s chfx;
#X obj -63 -96 change;
#X obj 188 96 outlet;
#X obj -249 -102 inlet;
#X floatatom -244 -71 5 0 0 0 - - -;
#X obj -180 -110 r fad4;
#X connect 0 0 1 0;
#X connect 0 0 8 0;
#X connect 0 0 12 0;
#X connect 0 0 20 0;
#X connect 0 0 16 0;
#X connect 0 0 35 0;
#X connect 0 0 36 0;
#X connect 1 0 2 0;
#X connect 1 1 3 0;
#X connect 2 0 4 0;
#X connect 3 0 4 0;
#X connect 4 0 25 0;
#X connect 5 0 7 0;
#X connect 6 0 7 0;
#X connect 7 0 21 0;
#X connect 8 0 5 0;
#X connect 8 1 6 0;
#X connect 9 0 11 0;
#X connect 10 0 11 0;
#X connect 11 0 22 0;
#X connect 12 0 9 0;
#X connect 12 1 10 0;
#X connect 13 0 15 0;
#X connect 14 0 15 0;
#X connect 15 0 23 0;
#X connect 16 0 13 0;
#X connect 16 0 28 0;
#X connect 16 1 14 0;
#X connect 17 0 19 0;
#X connect 18 0 19 0;
#X connect 19 0 24 0;
#X connect 20 0 17 0;
#X connect 20 1 18 0;
#X connect 26 0 27 0;
#X connect 26 0 29 0;
#X connect 27 0 16 0;
#X connect 29 0 30 0;
#X connect 30 0 33 0;
#X connect 31 0 14 0;
#X connect 32 0 0 0;
#X connect 33 0 29 1;
#X connect 33 0 14 0;
#X connect 35 0 34 0;
#X connect 37 0 0 0;
#X connect 39 0 32 0;
#X restore 256 29 pd selektor;
#N canvas 38 151 806 378 pfazer_////////R 0;
#N canvas 4 300 495 254 passthruB 0;
#X obj 77 162 inlet~;
#X obj 77 183 hip~ 5;
#X obj 77 204 outlet~;
#X obj 275 160 inlet;
#X obj 275 180 * -1;
#X obj 275 201 + 1;
#X obj 275 222 switch~;
#X connect 0 0 1 0;
#X connect 1 0 2 0;
#X connect 3 0 4 0;
#X connect 4 0 5 0;
#X connect 5 0 6 0;
#X restore 305 193 pd passthruB;
#X obj 470 179 tgl 15 0 empty empty empty 17 7 0 10 -262144 -1 -1 0
1;
#X obj 314 156 inlet~;
#X obj 305 224 outlet~;
#N canvas 314 242 782 442 dsprocA 0;
#X obj 75 256 inlet~;
#X obj 79 381 hip~ 5;
#X obj 79 402 outlet~;
#X obj 372 151 inlet;
#X obj 355 185 switch~;
#N canvas 492 217 694 637 phaser 0;
#X text 503 629 updated for Pd version 0.39;
#X text 194 10 PHASER;
#N canvas 876 177 375 255 startup 0;
#X obj 24 26 loadbang;
#X obj 24 53 bng 15 250 50 0 empty empty empty 0 -6 0 8 -262144 -1
-1;
#X obj 24 74 f \$0;
#X text 39 215 This subpatch loads initial;
#X text 34 241 values in number boxes.;
#X msg 24 100 \; \$1-pole 80;
#X connect 0 0 1 0;
#X connect 1 0 2 0;
#X connect 2 0 5 0;
#X restore 354 602 pd startup;
#X obj 114 369 rpole~;
#X obj 114 341 rzero_rev~;
#X obj 114 422 rpole~;
#X obj 114 395 rzero_rev~;
#X obj 114 475 rpole~;
#X obj 114 448 rzero_rev~;
#X obj 114 529 rpole~;
#X obj 114 502 rzero_rev~;
#X obj 89 562 +~;
#X text 256 14 The phaser ranks \, along with fuzz and wah-wah \, as
one of the great guitar pedals. A phaser simply adds an all-passed
copy of the signal to the original \, making phase reinforcement and
cancellation at frequencies that depend on the all-pass coefficients.
In this example the coefficients range from 0.88 to 0.98 \, controlled
by a phasor~ object (no relation). The phasor~ is converted to a symmetrical
triangle wave (abs($v1-0.5)) and then ranged appropriately.;
#X obj 207 399 phasor~ 0.3;
#X text 34 185 Many variations of this have been invented. A deeper
effect can be obtained by using 12 all-pass filters and adding the
outputs of the 4th \, 8th. and 12th one to the original. Various stereo
configurations are possible. Some people use 6 instead of the 4 stages
used here. Controls can be added to change the frequency of sweeping
and the range of the all-pass coeefficients.;
#X obj 204 427 expr~ 1 - 0.03 - 0.6*abs($v1-0.5)*abs($v1-0.5);
#X obj 339 341 hsl 128 15 0 127 0 0 empty empty empty -2 -8 0 10 -262144
-1 -1 0 1;
#X floatatom 375 397 5 0 0 0 - - -;
#X text 249 250 4;
#X obj 58 327 inlet~;
#X obj 267 311 inlet;
#X obj 91 612 outlet~;
#X obj 333 376 / 55;
#X obj 496 288 pack 0 555;
#X obj 499 311 line;
#X obj 526 261 * 4;
#X obj 494 237 inlet;
#X connect 3 0 6 0;
#X connect 4 0 3 0;
#X connect 5 0 8 0;
#X connect 6 0 5 0;
#X connect 7 0 10 0;
#X connect 8 0 7 0;
#X connect 9 0 11 1;
#X connect 10 0 9 0;
#X connect 11 0 21 0;
#X connect 13 0 15 0;
#X connect 15 0 4 1;
#X connect 15 0 3 1;
#X connect 15 0 6 1;
#X connect 15 0 5 1;
#X connect 15 0 8 1;
#X connect 15 0 7 1;
#X connect 15 0 10 1;
#X connect 15 0 9 1;
#X connect 16 0 22 0;
#X connect 19 0 4 0;
#X connect 19 0 11 0;
#X connect 20 0 13 0;
#X connect 22 0 13 1;
#X connect 22 0 17 0;
#X connect 23 0 24 0;
#X connect 24 0 17 0;
#X connect 24 0 13 1;
#X connect 25 0 23 0;
#X connect 26 0 25 0;
#X coords 0 0 1 1 88 26 0;
#X restore 77 287 pd phaser;
#X obj 215 216 inlet;
#X obj 68 323 *~ 0.6;
#X connect 0 0 5 0;
#X connect 1 0 2 0;
#X connect 3 0 4 0;
#X connect 5 0 7 0;
#X connect 6 0 5 2;
#X connect 7 0 1 0;
#X restore 396 193 pd dsprocA;
#X obj 470 160 inlet;
#X obj 424 128 inlet;
#X connect 0 0 3 0;
#X connect 1 0 0 1;
#X connect 1 0 4 2;
#X connect 2 0 0 0;
#X connect 2 0 4 0;
#X connect 4 0 3 0;
#X connect 5 0 1 0;
#X connect 6 0 4 1;
#X restore 103 175 pd pfazer_////////R;
#X obj 416 154 sel 0 1 2 3 4;
#X msg 428 197 symbol phaser;
#X msg 443 221 symbol Ring;
#X msg 456 243 symbol Vowel;
#X msg 471 262 symbol Bitcrush;
#X obj 106 233 outlet~;
#X obj 103 137 inlet~;
#X obj 364 96 loadbang, f 14;
#X obj 413 11 r knob1;
#X obj 463 12 r knob2;
#X obj 512 12 r knob3;
#X obj 560 12 r knob4;
#X obj 412 30 spigot;
#X obj 463 30 spigot;
#X obj 511 31 spigot;
#X obj 560 31 spigot;
#X obj 634 47 sel \$1;
#X obj 632 11 r chan, f 10;
#X obj 698 11 r chen;
#X obj 696 29 moses 6;
#X msg 638 69 1;
#X msg 665 69 0;
#X msg 696 66 1;
#X msg 739 68 0;
#X obj 642 141 tgl 15 0 empty empty empty 17 7 0 10 -257985 -1 -1 0
1;
#X obj 697 83 t b f;
#X obj 668 29 f \$1;
#X obj 633 29 t f b;
#X obj 641 87 +;
#X obj 642 105 sel 2;
#X msg 642 123 1;
#X msg 669 123 0;
#X obj 431 131 int;
#X obj 551 53 * 10;
#X obj 542 70 int;
#X floatatom 745 30 5 0 0 0 - - -;
#X obj 412 48 * 4;
#X obj 696 48 sel 17;
#X obj 463 108 mtof;
#X obj 463 89 * 80;
#X obj 586 154 sel 1;
#X msg 579 316 bang;
#X obj 421 306 pack s f;
#X obj 505 122 * 99;
#X obj 519 150 int, f 4;
#X obj 374 234 t b;
#X msg 420 324 FX:\$1//amt:\$2%;
#X obj 420 342 s screenLine4;
#X obj 663 367 s screenLine3;
#X obj 579 368 s screenLine5;
#X msg 416 176 symbol 00FF;
#X obj 675 195 s screenLine2;
#X msg 657 318 . . . . . . . . . . .;
#X obj 180 60 tgl 15 0 empty empty empty 17 7 0 10 -257985 -1 -1 1
1;
#X obj 355 12 inlet;
#X msg 355 45 0;
#X msg 676 178 . . . Insert Fx . . . . .;
#X connect 0 0 11 0;
#X connect 1 0 0 2;
#X connect 2 0 11 2;
#X connect 3 0 5 0;
#X connect 3 0 67 0;
#X connect 3 1 4 0;
#X connect 4 0 2 0;
#X connect 4 0 1 0;
#X connect 4 0 6 0;
#X connect 4 0 9 0;
#X connect 5 0 2 0;
#X connect 5 0 1 0;
#X connect 5 0 6 0;
#X connect 5 0 9 0;
#X connect 6 0 7 2;
#X connect 7 0 8 0;
#X connect 8 0 17 0;
#X connect 9 0 8 2;
#X connect 10 0 65 0;
#X connect 10 1 2 0;
#X connect 10 2 6 0;
#X connect 10 3 9 0;
#X connect 10 4 1 0;
#X connect 10 5 12 0;
#X connect 11 0 7 0;
#X connect 12 0 62 0;
#X connect 12 1 13 0;
#X connect 12 2 14 0;
#X connect 12 3 15 0;
#X connect 12 4 16 0;
#X connect 13 0 54 0;
#X connect 14 0 54 0;
#X connect 15 0 54 0;
#X connect 16 0 54 0;
#X connect 18 0 0 0;
#X connect 19 0 3 0;
#X connect 20 0 24 0;
#X connect 21 0 25 0;
#X connect 22 0 26 0;
#X connect 23 0 27 0;
#X connect 24 0 48 0;
#X connect 25 0 0 1;
#X connect 25 0 11 1;
#X connect 25 0 51 0;
#X connect 25 0 55 0;
#X connect 25 0 8 1;
#X connect 27 0 45 0;
#X connect 28 0 32 0;
#X connect 28 1 33 0;
#X connect 29 0 39 0;
#X connect 30 0 31 0;
#X connect 31 1 47 0;
#X connect 31 1 49 0;
#X connect 32 0 40 0;
#X connect 33 0 40 0;
#X connect 34 0 37 0;
#X connect 35 0 37 0;
#X connect 36 0 27 1;
#X connect 36 0 26 1;
#X connect 36 0 25 1;
#X connect 36 0 24 1;
#X connect 36 0 52 0;
#X connect 37 0 40 0;
#X connect 37 1 40 1;
#X connect 38 0 28 1;
#X connect 39 0 28 0;
#X connect 39 1 38 0;
#X connect 40 0 41 0;
#X connect 41 0 42 0;
#X connect 41 1 43 0;
#X connect 41 1 53 0;
#X connect 42 0 36 0;
#X connect 43 0 36 0;
#X connect 44 0 12 0;
#X connect 44 0 10 0;
#X connect 45 0 46 0;
#X connect 48 0 44 0;
#X connect 49 0 34 0;
#X connect 49 1 35 0;
#X connect 50 0 7 1;
#X connect 51 0 50 0;
#X connect 52 0 64 0;
#X connect 52 0 68 0;
#X connect 52 0 44 0;
#X connect 53 0 60 0;
#X connect 53 0 61 0;
#X connect 54 0 58 0;
#X connect 55 0 56 0;
#X connect 56 0 54 1;
#X connect 56 0 57 0;
#X connect 57 0 54 0;
#X connect 58 0 59 0;
#X connect 62 0 54 0;
#X connect 64 0 60 0;
#X connect 64 0 61 0;
#X connect 66 0 67 0;
#X connect 67 0 10 0;
#X connect 68 0 63 0;
#X restore 494 537 pd Fxxxx;
#N canvas 422 281 727 277 selektor 0;
#X obj -135 -83 int;
#X obj -184 -12 sel 1;
#X msg -193 11 1;
#X msg -149 13 0;
#X obj -184 40 tgl 15 0 empty empty empty 17 7 0 10 -262144 -1 -1 0
1;
#X msg -112 13 1;
#X msg -68 15 0;
#X obj -87 42 tgl 15 0 empty empty empty 17 7 0 10 -262144 -1 -1 0
1;
#X obj -104 -11 sel 2;
#X msg -20 61 1;
#X msg 0 61 0;
#X obj -19 78 tgl 15 0 empty empty empty 17 7 0 10 -262144 -1 -1 0
1;
#X obj -21 43 sel 3;
#X msg 33 59 1;
#X msg 57 59 0;
#X obj 32 79 tgl 15 0 empty empty empty 17 7 0 10 -262144 -1 -1 0 1
;
#X obj 32 40 sel 4;
#X msg -272 13 1;
#X msg -228 15 0;
#X obj -261 47 tgl 15 0 empty empty empty 17 7 0 10 -262144 -1 -1 0
1;
#X obj -263 -11 sel 0;
#X obj -88 96 outlet;
#X obj -20 95 outlet;
#X obj 31 97 outlet;
#X obj -260 99 outlet;
#X obj -177 94 outlet;
#X obj -249 -102 inlet;
#X connect 0 0 1 0;
#X connect 0 0 8 0;
#X connect 0 0 12 0;
#X connect 0 0 20 0;
#X connect 0 0 16 0;
#X connect 1 0 2 0;
#X connect 1 1 3 0;
#X connect 2 0 4 0;
#X connect 3 0 4 0;
#X connect 4 0 25 0;
#X connect 5 0 7 0;
#X connect 6 0 7 0;
#X connect 7 0 21 0;
#X connect 8 0 5 0;
#X connect 8 1 6 0;
#X connect 9 0 11 0;
#X connect 10 0 11 0;
#X connect 11 0 22 0;
#X connect 12 0 9 0;
#X connect 12 1 10 0;
#X connect 13 0 15 0;
#X connect 14 0 15 0;
#X connect 15 0 23 0;
#X connect 16 0 13 0;
#X connect 16 1 14 0;
#X connect 17 0 19 0;
#X connect 18 0 19 0;
#X connect 19 0 24 0;
#X connect 20 0 17 0;
#X connect 20 1 18 0;
#X connect 26 0 0 0;
#X restore 785 453 pd selektor;
#X obj 786 435 inlet;
#X obj 785 482 tgl 15 0 empty empty empty 17 7 0 10 -262144 -1 -1 1
1;
#X obj 800 482 tgl 15 0 empty empty empty 17 7 0 10 -262144 -1 -1 0
1;
#X obj 814 482 tgl 15 0 empty empty empty 17 7 0 10 -262144 -1 -1 0
1;
#X obj 829 482 tgl 15 0 empty empty empty 17 7 0 10 -262144 -1 -1 0
1;
#X obj 846 481 tgl 15 0 empty empty empty 17 7 0 10 -262144 -1 -1 0
1;
#X msg 877 453 1;
#X obj 754 539 spigot;
#X obj 752 513 r md8;
#X obj 453 292 pack 0 12;
#X obj 806 543 spigot;
#X obj 804 517 r md9;
#X text 453 222 comment;
#X obj 371 592 s~ chs1\$1;
#X obj 439 597 s~ chs2\$1;
#X obj 170 316 * 222;
#X obj 225 342 * 1333, f 15;
#X obj 90 297 + 0.01;
#X connect 2 0 103 0;
#X connect 2 0 112 0;
#X connect 3 0 118 0;
#X connect 3 0 138 0;
#X connect 4 0 55 0;
#X connect 5 0 119 0;
#X connect 5 0 140 0;
#X connect 9 0 15 1;
#X connect 9 0 39 0;
#X connect 10 0 34 0;
#X connect 11 0 15 0;
#X connect 12 0 13 1;
#X connect 12 0 16 1;
#X connect 13 0 10 1;
#X connect 14 0 11 0;
#X connect 15 0 16 0;
#X connect 16 0 39 1;
#X connect 17 0 13 0;
#X connect 17 0 12 0;
#X connect 18 0 19 0;
#X connect 19 0 132 0;
#X connect 21 0 17 0;
#X connect 28 0 32 0;
#X connect 28 0 120 0;
#X connect 29 0 31 0;
#X connect 30 0 31 1;
#X connect 31 0 34 1;
#X connect 32 0 33 0;
#X connect 33 0 30 0;
#X connect 34 0 14 0;
#X connect 34 0 9 0;
#X connect 39 0 45 0;
#X connect 40 0 121 0;
#X connect 41 0 17 1;
#X connect 41 0 29 0;
#X connect 41 0 10 0;
#X connect 41 0 14 1;
#X connect 42 0 96 0;
#X connect 43 0 42 0;
#X connect 43 0 101 0;
#X connect 43 1 95 0;
#X connect 44 0 136 0;
#X connect 44 0 137 0;
#X connect 45 0 46 0;
#X connect 46 0 40 0;
#X connect 47 0 48 0;
#X connect 48 0 41 0;
#X connect 49 0 48 1;
#X connect 50 0 51 0;
#X connect 50 0 98 0;
#X connect 50 0 105 0;
#X connect 50 0 106 0;
#X connect 50 0 129 0;
#X connect 51 0 49 0;
#X connect 52 0 43 0;
#X connect 53 0 54 0;
#X connect 53 1 54 1;
#X connect 54 0 43 0;
#X connect 55 0 28 0;
#X connect 56 0 57 0;
#X connect 57 0 2 0;
#X connect 58 0 4 0;
#X connect 59 0 58 0;
#X connect 60 0 3 0;
#X connect 61 0 5 0;
#X connect 62 0 60 0;
#X connect 63 0 61 0;
#X connect 64 0 68 0;
#X connect 65 0 69 0;
#X connect 66 0 70 0;
#X connect 67 0 71 0;
#X connect 68 0 2 0;
#X connect 69 0 4 0;
#X connect 70 0 3 0;
#X connect 71 0 5 0;
#X connect 72 0 77 0;
#X connect 72 0 94 0;
#X connect 72 1 78 0;
#X connect 73 0 84 0;
#X connect 74 0 76 0;
#X connect 75 0 79 0;
#X connect 75 1 80 0;
#X connect 76 1 75 0;
#X connect 77 0 85 0;
#X connect 78 0 85 0;
#X connect 79 0 82 0;
#X connect 80 0 82 0;
#X connect 81 0 68 1;
#X connect 81 0 69 1;
#X connect 81 0 70 1;
#X connect 81 0 71 1;
#X connect 82 0 85 0;
#X connect 82 1 85 1;
#X connect 83 0 72 1;
#X connect 84 0 72 0;
#X connect 84 1 83 0;
#X connect 85 0 86 0;
#X connect 86 0 87 0;
#X connect 86 0 89 0;
#X connect 86 0 114 0;
#X connect 86 0 115 0;
#X connect 86 1 88 0;
#X connect 87 0 81 0;
#X connect 88 0 81 0;
#X connect 89 0 92 0;
#X connect 89 0 91 0;
#X connect 89 0 90 0;
#X connect 89 0 107 0;
#X connect 94 0 93 0;
#X connect 95 0 47 0;
#X connect 96 0 116 0;
#X connect 96 0 116 1;
#X connect 97 0 99 0;
#X connect 98 0 97 0;
#X connect 100 0 97 0;
#X connect 101 0 102 0;
#X connect 102 0 97 0;
#X connect 103 0 104 0;
#X connect 104 0 18 0;
#X connect 105 0 5 0;
#X connect 106 0 2 0;
#X connect 106 0 4 0;
#X connect 107 0 109 0;
#X connect 109 0 108 0;
#X connect 109 1 111 0;
#X connect 110 0 108 0;
#X connect 111 0 110 0;
#X connect 112 0 107 0;
#X connect 113 0 91 0;
#X connect 114 0 91 0;
#X connect 115 0 113 0;
#X connect 116 0 40 1;
#X connect 117 0 121 1;
#X connect 118 0 107 0;
#X connect 119 0 107 0;
#X connect 120 0 107 0;
#X connect 121 0 44 0;
#X connect 122 0 124 0;
#X connect 122 1 125 0;
#X connect 122 2 126 0;
#X connect 122 3 127 0;
#X connect 122 4 128 0;
#X connect 123 0 122 0;
#X connect 124 0 130 1;
#X connect 125 0 133 1;
#X connect 129 0 124 0;
#X connect 130 0 103 0;
#X connect 131 0 130 0;
#X connect 132 0 21 0;
#X connect 133 0 55 0;
#X connect 134 0 133 0;
#X connect 138 0 96 1;
#X connect 139 0 96 2;
#X connect 140 0 139 0;
#X coords 0 -1 1 1 100 100 2 100 100;
