#N canvas 64 80 1097 604 10;
#X obj 102 101 cnv 15 97 97 empty empty empty 20 12 0 14 -33289 -66577
0;
#X obj 104 103 cnv 15 93 93 empty empty empty 20 12 0 14 -228856 -66577
0;
#X obj 109 123 hsl 85 10 0 1 0 0 empty empty empty 10 8 0 8 -228856
-33289 -33289 0 0;
#X obj 197 142 hsl 85 10 0 1 0 0 empty empty empty 10 8 0 8 -162280
-1 -1 6331 0;
#X obj 198 130 hsl 85 10 0 1 0 0 empty empty empty 10 8 0 8 -191407
-1 -1 1741 0;
#X obj 109 153 hsl 85 10 0 1 0 0 empty empty empty 10 6 0 8 -66577
-260097 -260097 8400 0;
#X obj 180 106 cnv 8 14 14 empty \$0-met16 \$1 2 7 0 12 -33289 -257985
0;
#X text 986 16 comment;
#X obj 118 105 cnv 8 14 14 empty \$0-met16 s3looper 2 7 0 12 -228856
-260097 0;
#X obj 32 347 *~;
#X msg 33 264 bang;
#X obj 266 54 t b f;
#X obj 306 68 mtof;
#X obj 374 19 loadbang, f 18;
#X obj 28 413 s~ ch\$1;
#X obj 124 19 r seq\$1, f 22;
#X obj 313 19 notein \$1;
#X obj 313 39 stripnote;
#X obj 32 101 ctlin 1 \$1;
#X obj 33 121 / 127;
#X obj 34 160 / 127;
#X obj 33 140 ctlin 2 \$1;
#X obj 32 198 / 127;
#X obj 32 236 / 127;
#X obj 32 180 ctlin 3 \$1;
#X obj 32 217 ctlin 4 \$1;
#X obj 636 1 r knob1;
#X obj 681 1 r knob2;
#X obj 728 1 r knob3;
#X obj 774 1 r knob4;
#X obj 636 19 spigot;
#X obj 681 19 spigot;
#X obj 728 18 spigot;
#X obj 774 19 spigot;
#X obj 834 39 sel \$1;
#X obj 833 1 r chan, f 16;
#X obj 938 0 r chen, f 15;
#X obj 937 36 sel 7;
#X obj 936 18 moses 6;
#X msg 733 84 1;
#X msg 759 83 0;
#X msg 937 54 1;
#X msg 966 54 0, f 4;
#X obj 813 151 tgl 20 0 empty empty empty 17 7 0 10 -257985 -1 -1 1
1;
#X obj 938 71 t b f;
#X obj 872 20 f \$1;
#X obj 835 20 t f b;
#X obj 839 97 +;
#X obj 840 115 sel 2;
#X msg 839 135 1;
#X msg 871 135 0;
#X obj 989 174 s screenLine5;
#X obj 961 269 s screenLine4;
#X obj 836 187 s syntyp;
#N canvas 85 85 510 309 inv 0;
#X obj 134 187 f;
#X obj 134 242 vline~;
#X msg 134 225 1 \$1 \, 0 \$2 \$1;
#X obj 133 206 pack f f;
#X obj 134 260 outlet~;
#X obj 167 105 t b f;
#X obj 164 124 +;
#X obj 247 182 snapshot~;
#X obj 248 163 metro 1;
#X obj 249 105 tgl 15 0 empty empty empty 17 7 0 10 -262144 -1 -1 0
1;
#X obj 248 201 sel 0;
#X obj 248 241 spigot;
#X msg 248 222 bang;
#X obj 206 84 inlet;
#X obj 168 83 inlet;
#X obj 130 83 inlet;
#X obj 157 145 + 0.2;
#X obj 154 166 * 1;
#X obj 130 168 t b;
#X obj 248 87 inlet;
#X connect 0 0 3 0;
#X connect 1 0 7 0;
#X connect 1 0 4 0;
#X connect 2 0 1 0;
#X connect 3 0 2 0;
#X connect 5 0 6 0;
#X connect 5 1 6 1;
#X connect 6 0 16 0;
#X connect 7 0 10 0;
#X connect 8 0 7 0;
#X connect 9 0 8 0;
#X connect 9 0 11 1;
#X connect 10 0 12 0;
#X connect 11 0 18 0;
#X connect 12 0 11 0;
#X connect 13 0 3 1;
#X connect 14 0 5 0;
#X connect 15 0 18 0;
#X connect 16 0 17 0;
#X connect 17 0 0 1;
#X connect 18 0 0 0;
#X connect 19 0 9 0;
#X restore 33 306 pd inv;
#X obj 111 136 tgl 15 0 empty empty empty 17 7 0 10 -262144 -1 -1 1
1;
#X msg 121 46 0, f 2;
#X obj 301 139 switch~;
#X obj 264 19 inlet, f 7;
#X msg 140 46 1;
#X obj 140 66 change;
#X obj 86 265 + 0.1;
#X obj 906 291 symbol;
#X obj 906 325 s screenLine3;
#X obj 906 310 t s b;
#X obj 948 290 delay 999;
#X obj 964 237 delay 666, f 12;
#X obj 86 285 * 2222;
#X obj 58 346 *~;
#N canvas 216 105 883 393 Fxxxx 0;
#N canvas 12 312 906 372 redux_////////R 0;
#N canvas 4 300 495 254 passthruB 0;
#X obj 77 162 inlet~;
#X obj 77 183 hip~ 5;
#X obj 77 204 outlet~;
#X obj 275 160 inlet;
#X obj 275 180 * -1;
#X obj 275 201 + 1;
#X obj 275 222 switch~;
#X connect 0 0 1 0;
#X connect 1 0 2 0;
#X connect 3 0 4 0;
#X connect 4 0 5 0;
#X connect 5 0 6 0;
#X restore 305 193 pd passthruB;
#X obj 471 197 tgl 15 0 empty empty empty 17 7 0 10 -262144 -1 -1 0
1;
#X obj 311 127 inlet~;
#X obj 291 281 outlet~;
#N canvas 421 125 670 634 dsprocA 0;
#X obj 84 284 inlet~;
#X obj 83 336 hip~ 5;
#X obj 82 366 outlet~;
#X obj 261 237 inlet;
#X obj 261 258 switch~;
#X obj 83 314 samphold~;
#X obj 260 279 select 1;
#X msg 260 298 0;
#X obj 174 298 phasor~ 4410;
#X obj 174 220 mtof;
#X obj 200 203 + 100;
#X obj 200 184 * 20;
#X obj 200 165 inlet;
#X connect 0 0 5 0;
#X connect 1 0 2 0;
#X connect 3 0 4 0;
#X connect 3 0 6 0;
#X connect 5 0 1 0;
#X connect 6 0 7 0;
#X connect 7 0 8 1;
#X connect 8 0 5 1;
#X connect 9 0 8 0;
#X connect 10 0 9 0;
#X connect 11 0 10 0;
#X connect 12 0 11 0;
#X restore 396 193 pd dsprocA;
#X obj 471 174 inlet;
#X floatatom 44 44 5 0 0 0 - - -;
#X obj 424 139 inlet;
#X connect 0 0 3 0;
#X connect 1 0 0 1;
#X connect 1 0 4 2;
#X connect 2 0 0 0;
#X connect 2 0 4 0;
#X connect 4 0 3 0;
#X connect 5 0 1 0;
#X connect 7 0 4 1;
#X restore 102 157 pd redux_////////R;
#X obj 293 62 tgl 15 0 empty empty empty 17 7 0 10 -4032 -1 -1 0 1
;
#X obj 241 63 tgl 15 0 empty empty empty 17 7 0 10 -4034 -1 -1 0 1
;
#X obj 364 138 t b b;
#X msg 361 181 1, f 7;
#X msg 330 167 0;
#X obj 258 62 tgl 15 0 empty empty empty 17 7 0 10 -260097 -1 -1 0
1;
#N canvas 4 50 806 378 ringmor_////////R 0;
#N canvas 4 300 495 254 passthruB 0;
#X obj 77 162 inlet~;
#X obj 77 204 outlet~;
#X obj 275 160 inlet;
#X obj 275 180 * -1;
#X obj 275 201 + 1;
#X obj 275 222 switch~;
#X obj 77 183 hip~ 10;
#X connect 0 0 6 0;
#X connect 2 0 3 0;
#X connect 3 0 4 0;
#X connect 4 0 5 0;
#X connect 6 0 1 0;
#X restore 305 193 pd passthruB;
#X obj 604 149 tgl 15 0 empty empty empty 17 7 0 10 -262144 -1 -1 0
1;
#X obj 305 113 inlet~;
#X obj 305 224 outlet~;
#N canvas 302 50 782 442 dsprocA 0;
#X obj 45 110 inlet~;
#X obj 77 333 outlet~;
#X obj 534 129 inlet;
#X obj 535 151 switch~;
#X obj 220 95 inlet;
#X obj 66 212 osc~ 60;
#X obj 58 251 *~;
#X obj 77 312 hip~ 15;
#X connect 0 0 6 0;
#X connect 2 0 3 0;
#X connect 4 0 5 0;
#X connect 5 0 6 1;
#X connect 6 0 7 0;
#X connect 7 0 1 0;
#X restore 396 193 pd dsprocA;
#X obj 604 125 inlet;
#X obj 407 127 inlet;
#X connect 0 0 3 0;
#X connect 1 0 0 1;
#X connect 1 0 4 2;
#X connect 2 0 0 0;
#X connect 2 0 4 0;
#X connect 4 0 3 0;
#X connect 5 0 1 0;
#X connect 6 0 4 1;
#X restore 104 195 pd ringmor_////////R;
#N canvas 699 343 411 220 synthi///////R 0;
#N canvas 0 298 495 254 passthruB 0;
#X obj 77 162 inlet~;
#X obj 77 183 hip~ 5;
#X obj 77 204 outlet~;
#X obj 275 160 inlet;
#X obj 275 180 * -1;
#X obj 275 201 + 1;
#X obj 275 222 switch~;
#X connect 0 0 1 0;
#X connect 1 0 2 0;
#X connect 3 0 4 0;
#X connect 4 0 5 0;
#X connect 5 0 6 0;
#X restore 28 131 pd passthruB;
#X obj 195 108 tgl 15 0 empty empty empty 17 7 0 10 -262144 -1 -1 0
1;
#X obj 61 57 inlet~;
#X obj 46 193 outlet~;
#N canvas 162 237 1022 607 dsprocA 0;
#X obj 300 433 outlet~;
#X obj 560 4 inlet;
#X obj 561 26 switch~;
#X obj 296 196 inlet~;
#X msg 380 336 0;
#X msg 381 359 1;
#X msg 381 383 2;
#X msg 381 408 3;
#X msg 380 433 4;
#X text 415 335 ->a;
#X text 416 361 ->e;
#X text 415 384 ->i;
#X text 414 410 ->o;
#X text 414 435 ->u;
#X obj 298 342 vowel~ 0;
#X obj 639 142 r fad4;
#X obj 300 373 *~ 0.2;
#X obj 611 220 int;
#X obj 594 275 change;
#X floatatom 602 312 5 0 0 0 - - -;
#X obj 298 215 *~ 4;
#X obj 638 173 * 4;
#X connect 1 0 2 0;
#X connect 3 0 20 0;
#X connect 4 0 14 1;
#X connect 5 0 14 1;
#X connect 6 0 14 1;
#X connect 7 0 14 1;
#X connect 8 0 14 1;
#X connect 14 0 16 0;
#X connect 15 0 21 0;
#X connect 16 0 0 0;
#X connect 17 0 18 0;
#X connect 18 0 14 1;
#X connect 18 0 19 0;
#X connect 20 0 14 0;
#X connect 21 0 17 0;
#X restore 132 131 pd dsprocA;
#X obj 195 85 inlet;
#X connect 0 0 3 0;
#X connect 1 0 0 1;
#X connect 1 0 4 1;
#X connect 2 0 0 0;
#X connect 2 0 4 0;
#X connect 4 0 3 0;
#X connect 5 0 1 0;
#X restore 105 213 pd synthi///////R;
#X obj 276 63 tgl 15 0 empty empty empty 17 7 0 10 -262144 -1 -1 0
1;
#N canvas 407 212 720 403 selektor 0;
#X obj -135 -83 int;
#X obj -184 -12 sel 1;
#X msg -193 11 1;
#X msg -149 13 0;
#X obj -184 40 tgl 15 0 empty empty empty 17 7 0 10 -262144 -1 -1 0
1;
#X msg -112 13 1;
#X msg -68 15 0;
#X obj -87 42 tgl 15 0 empty empty empty 17 7 0 10 -262144 -1 -1 0
1;
#X obj -104 -11 sel 2;
#X msg -20 61 1;
#X msg 0 61 0;
#X obj -19 78 tgl 15 0 empty empty empty 17 7 0 10 -262144 -1 -1 0
1;
#X obj -21 43 sel 3;
#X msg 33 59 1;
#X msg 57 59 0;
#X obj 32 79 tgl 15 0 empty empty empty 17 7 0 10 -262144 -1 -1 0 1
;
#X obj 32 40 sel 4;
#X msg -272 13 1;
#X msg -228 15 0;
#X obj -261 47 tgl 15 0 empty empty empty 17 7 0 10 -262144 -1 -1 1
1;
#X obj -263 -11 sel 0;
#X obj -88 96 outlet;
#X obj -20 95 outlet;
#X obj 31 97 outlet;
#X obj -260 99 outlet;
#X obj -177 94 outlet;
#X obj -16 -67 s chfx;
#X obj -16 -86 change;
#X obj -249 -102 inlet;
#X connect 0 0 1 0;
#X connect 0 0 8 0;
#X connect 0 0 12 0;
#X connect 0 0 20 0;
#X connect 0 0 16 0;
#X connect 0 0 27 0;
#X connect 1 0 2 0;
#X connect 1 1 3 0;
#X connect 2 0 4 0;
#X connect 3 0 4 0;
#X connect 4 0 25 0;
#X connect 5 0 7 0;
#X connect 6 0 7 0;
#X connect 7 0 21 0;
#X connect 8 0 5 0;
#X connect 8 1 6 0;
#X connect 9 0 11 0;
#X connect 10 0 11 0;
#X connect 11 0 22 0;
#X connect 12 0 9 0;
#X connect 12 1 10 0;
#X connect 13 0 15 0;
#X connect 14 0 15 0;
#X connect 15 0 23 0;
#X connect 16 0 13 0;
#X connect 16 1 14 0;
#X connect 17 0 19 0;
#X connect 18 0 19 0;
#X connect 19 0 24 0;
#X connect 20 0 17 0;
#X connect 20 1 18 0;
#X connect 27 0 26 0;
#X connect 28 0 0 0;
#X restore 256 29 pd selektor;
#N canvas 38 151 806 378 pfazer_////////R 0;
#N canvas 4 300 495 254 passthruB 0;
#X obj 77 162 inlet~;
#X obj 77 183 hip~ 5;
#X obj 77 204 outlet~;
#X obj 275 160 inlet;
#X obj 275 180 * -1;
#X obj 275 201 + 1;
#X obj 275 222 switch~;
#X connect 0 0 1 0;
#X connect 1 0 2 0;
#X connect 3 0 4 0;
#X connect 4 0 5 0;
#X connect 5 0 6 0;
#X restore 305 193 pd passthruB;
#X obj 470 179 tgl 15 0 empty empty empty 17 7 0 10 -262144 -1 -1 0
1;
#X obj 314 156 inlet~;
#X obj 305 224 outlet~;
#N canvas 314 242 782 442 dsprocA 0;
#X obj 75 256 inlet~;
#X obj 79 381 hip~ 5;
#X obj 79 402 outlet~;
#X obj 372 151 inlet;
#X obj 355 185 switch~;
#N canvas 492 217 694 637 phaser 0;
#X text 503 629 updated for Pd version 0.39;
#X text 194 10 PHASER;
#N canvas 876 177 375 255 startup 0;
#X obj 24 26 loadbang;
#X obj 24 53 bng 15 250 50 0 empty empty empty 0 -6 0 8 -262144 -1
-1;
#X obj 24 74 f \$0;
#X text 39 215 This subpatch loads initial;
#X text 34 241 values in number boxes.;
#X msg 24 100 \; \$1-pole 80;
#X connect 0 0 1 0;
#X connect 1 0 2 0;
#X connect 2 0 5 0;
#X restore 354 602 pd startup;
#X obj 114 369 rpole~;
#X obj 114 341 rzero_rev~;
#X obj 114 422 rpole~;
#X obj 114 395 rzero_rev~;
#X obj 114 475 rpole~;
#X obj 114 448 rzero_rev~;
#X obj 114 529 rpole~;
#X obj 114 502 rzero_rev~;
#X obj 89 562 +~;
#X text 256 14 The phaser ranks \, along with fuzz and wah-wah \, as
one of the great guitar pedals. A phaser simply adds an all-passed
copy of the signal to the original \, making phase reinforcement and
cancellation at frequencies that depend on the all-pass coefficients.
In this example the coefficients range from 0.88 to 0.98 \, controlled
by a phasor~ object (no relation). The phasor~ is converted to a symmetrical
triangle wave (abs($v1-0.5)) and then ranged appropriately.;
#X obj 207 399 phasor~ 0.3;
#X text 34 185 Many variations of this have been invented. A deeper
effect can be obtained by using 12 all-pass filters and adding the
outputs of the 4th \, 8th. and 12th one to the original. Various stereo
configurations are possible. Some people use 6 instead of the 4 stages
used here. Controls can be added to change the frequency of sweeping
and the range of the all-pass coeefficients.;
#X obj 204 427 expr~ 1 - 0.03 - 0.6*abs($v1-0.5)*abs($v1-0.5);
#X obj 339 341 hsl 128 15 0 127 0 0 empty empty empty -2 -8 0 10 -262144
-1 -1 0 1;
#X floatatom 375 397 5 0 0 0 - - -;
#X text 249 250 4;
#X obj 58 327 inlet~;
#X obj 267 311 inlet;
#X obj 91 612 outlet~;
#X obj 333 376 / 55;
#X obj 496 288 pack 0 555;
#X obj 499 311 line;
#X obj 526 261 * 4;
#X obj 494 237 inlet;
#X connect 3 0 6 0;
#X connect 4 0 3 0;
#X connect 5 0 8 0;
#X connect 6 0 5 0;
#X connect 7 0 10 0;
#X connect 8 0 7 0;
#X connect 9 0 11 1;
#X connect 10 0 9 0;
#X connect 11 0 21 0;
#X connect 13 0 15 0;
#X connect 15 0 4 1;
#X connect 15 0 3 1;
#X connect 15 0 6 1;
#X connect 15 0 5 1;
#X connect 15 0 8 1;
#X connect 15 0 7 1;
#X connect 15 0 10 1;
#X connect 15 0 9 1;
#X connect 16 0 22 0;
#X connect 19 0 4 0;
#X connect 19 0 11 0;
#X connect 20 0 13 0;
#X connect 22 0 13 1;
#X connect 22 0 17 0;
#X connect 23 0 24 0;
#X connect 24 0 17 0;
#X connect 24 0 13 1;
#X connect 25 0 23 0;
#X connect 26 0 25 0;
#X coords 0 0 1 1 88 26 0;
#X restore 77 287 pd phaser;
#X obj 215 216 inlet;
#X obj 68 323 *~ 0.6;
#X connect 0 0 5 0;
#X connect 1 0 2 0;
#X connect 3 0 4 0;
#X connect 5 0 7 0;
#X connect 6 0 5 2;
#X connect 7 0 1 0;
#X restore 396 193 pd dsprocA;
#X obj 470 160 inlet;
#X obj 424 128 inlet;
#X connect 0 0 3 0;
#X connect 1 0 0 1;
#X connect 1 0 4 2;
#X connect 2 0 0 0;
#X connect 2 0 4 0;
#X connect 4 0 3 0;
#X connect 5 0 1 0;
#X connect 6 0 4 1;
#X restore 103 175 pd pfazer_////////R;
#X obj 416 154 sel 0 1 2 3 4;
#X msg 428 197 symbol phaser;
#X msg 443 221 symbol Ring;
#X msg 456 243 symbol Vowel;
#X msg 471 262 symbol Bitcrush;
#X obj 106 233 outlet~;
#X obj 103 137 inlet~;
#X obj 364 96 loadbang, f 14;
#X obj 413 11 r knob1;
#X obj 463 12 r knob2;
#X obj 512 12 r knob3;
#X obj 560 12 r knob4;
#X obj 412 30 spigot;
#X obj 463 30 spigot;
#X obj 511 31 spigot;
#X obj 560 31 spigot;
#X obj 634 47 sel \$1;
#X obj 632 11 r chan, f 10;
#X obj 698 11 r chen;
#X obj 696 29 moses 6;
#X msg 638 69 1;
#X msg 665 69 0;
#X msg 696 66 1;
#X msg 739 68 0;
#X obj 642 141 tgl 15 0 empty empty empty 17 7 0 10 -257985 -1 -1 0
1;
#X obj 697 83 t b f;
#X obj 668 29 f \$1;
#X obj 633 29 t f b;
#X obj 641 87 +;
#X obj 642 105 sel 2;
#X msg 642 123 1;
#X msg 669 123 0;
#X obj 431 131 int;
#X obj 551 53 * 10;
#X obj 542 70 int;
#X floatatom 745 30 5 0 0 0 - - -;
#X obj 412 48 * 4;
#X obj 696 48 sel 17;
#X obj 463 108 mtof;
#X obj 463 89 * 80;
#X obj 635 164 sel 1;
#X msg 629 245 bang;
#X obj 421 306 pack s f;
#X obj 505 122 * 99;
#X obj 519 150 int, f 4;
#X obj 374 234 t b;
#X msg 420 324 FX:\$1//amt:\$2%;
#X obj 420 342 s screenLine4;
#X obj 629 262 s screenLine3;
#X obj 629 280 s screenLine5;
#X msg 416 176 symbol 00FF;
#X obj 628 228 delay 446;
#X obj 675 195 s screenLine2;
#X msg 676 178 . . . . FFXX . . . . .;
#X msg 715 262 . . . . . . . . . . .;
#X obj 180 60 tgl 15 0 empty empty empty 17 7 0 10 -257985 -1 -1 1
1;
#X obj 355 12 inlet;
#X msg 355 45 0;
#X connect 0 0 11 0;
#X connect 1 0 0 2;
#X connect 2 0 11 2;
#X connect 3 0 5 0;
#X connect 3 0 69 0;
#X connect 3 1 4 0;
#X connect 4 0 2 0;
#X connect 4 0 1 0;
#X connect 4 0 6 0;
#X connect 4 0 9 0;
#X connect 5 0 2 0;
#X connect 5 0 1 0;
#X connect 5 0 6 0;
#X connect 5 0 9 0;
#X connect 6 0 7 2;
#X connect 7 0 8 0;
#X connect 8 0 17 0;
#X connect 9 0 8 1;
#X connect 10 0 67 0;
#X connect 10 1 2 0;
#X connect 10 2 6 0;
#X connect 10 3 9 0;
#X connect 10 4 1 0;
#X connect 11 0 7 0;
#X connect 12 0 62 0;
#X connect 12 1 13 0;
#X connect 12 2 14 0;
#X connect 12 3 15 0;
#X connect 12 4 16 0;
#X connect 13 0 54 0;
#X connect 14 0 54 0;
#X connect 15 0 54 0;
#X connect 16 0 54 0;
#X connect 18 0 0 0;
#X connect 19 0 3 0;
#X connect 20 0 24 0;
#X connect 21 0 25 0;
#X connect 22 0 26 0;
#X connect 23 0 27 0;
#X connect 24 0 48 0;
#X connect 25 0 0 1;
#X connect 25 0 11 1;
#X connect 25 0 51 0;
#X connect 25 0 55 0;
#X connect 27 0 45 0;
#X connect 28 0 32 0;
#X connect 28 1 33 0;
#X connect 29 0 39 0;
#X connect 30 0 31 0;
#X connect 31 1 47 0;
#X connect 31 1 49 0;
#X connect 32 0 40 0;
#X connect 33 0 40 0;
#X connect 34 0 37 0;
#X connect 35 0 37 0;
#X connect 36 0 27 1;
#X connect 36 0 26 1;
#X connect 36 0 25 1;
#X connect 36 0 24 1;
#X connect 36 0 52 0;
#X connect 37 0 40 0;
#X connect 37 1 40 1;
#X connect 38 0 28 1;
#X connect 39 0 28 0;
#X connect 39 1 38 0;
#X connect 40 0 41 0;
#X connect 41 0 42 0;
#X connect 41 1 43 0;
#X connect 42 0 36 0;
#X connect 43 0 36 0;
#X connect 44 0 12 0;
#X connect 44 0 10 0;
#X connect 45 0 46 0;
#X connect 48 0 44 0;
#X connect 49 0 34 0;
#X connect 49 1 35 0;
#X connect 50 0 7 1;
#X connect 51 0 50 0;
#X connect 52 0 66 0;
#X connect 52 0 63 0;
#X connect 52 0 65 0;
#X connect 52 0 44 0;
#X connect 52 1 53 0;
#X connect 53 0 60 0;
#X connect 53 0 61 0;
#X connect 54 0 58 0;
#X connect 55 0 56 0;
#X connect 56 0 54 1;
#X connect 56 0 57 0;
#X connect 57 0 54 0;
#X connect 58 0 59 0;
#X connect 62 0 54 0;
#X connect 63 0 66 0;
#X connect 65 0 64 0;
#X connect 66 0 60 0;
#X connect 66 0 61 0;
#X connect 68 0 69 0;
#X connect 69 0 10 0;
#X restore 31 374 pd Fxxxx;
#X obj 86 373 r flush, f 8;
#X msg 966 254 bang, f 5;
#X msg 950 307 bang, f 5;
#X floatatom 114 177 12 0 0 0 - - -;
#X obj 457 347 *~;
#X msg 155 255 const 0;
#X obj 549 189 int, f 6;
#X obj 455 430 poke~ \$1-tab, f 25;
#X obj 457 327 tabread~ \$1-tab;
#X msg 836 171 symbol loopr;
#X msg 963 220 ***Looper***;
#X obj 155 275 s \$1-tab;
#X obj 30 394 clip~ -0.9 0.9;
#X obj 481 347 line~;
#X msg 886 273 Fblvl:\$1;
#X obj 48 285 * 33;
#N canvas 756 442 252 242 l 0;
#X obj 24 22 inlet~;
#X obj 65 110 loadbang;
#X obj 24 127 z~ 64;
#X obj 24 169 *~;
#X obj 24 200 outlet~;
#X obj 48 149 limiter~ 10 10;
#X msg 66 127 limit 100;
#X connect 0 0 2 0;
#X connect 0 0 5 0;
#X connect 1 0 6 0;
#X connect 2 0 3 0;
#X connect 3 0 4 0;
#X connect 5 0 3 1;
#X connect 6 0 5 0;
#X restore 457 389 pd l;
#X f 20;
#X obj 704 273 r met64, f 16;
#X obj 278 217 spigot;
#N canvas 113 124 1071 336 shift 0;
#X obj 19 12 r notes;
#X obj 19 32 unpack;
#X obj 13 62 sel 61;
#X obj 34 187 tgl 15 0 empty empty empty 17 7 0 10 -262144 -1 -1 0
1;
#X obj 187 117 r aux;
#X obj 136 12 r notes;
#X obj 136 32 unpack;
#X obj 143 142 spigot;
#X obj 136 84 tgl 15 0 empty empty empty 17 7 0 10 -262144 -1 -1 0
1;
#X obj 141 106 sel 1;
#X obj 130 62 sel 63;
#X obj 276 119 r aux;
#X obj 225 14 r notes;
#X obj 225 34 unpack;
#X obj 232 144 spigot;
#X obj 225 86 tgl 15 0 empty empty empty 17 7 0 10 -262144 -1 -1 0
1;
#X obj 230 108 sel 1;
#X obj 219 64 sel 66;
#X obj 375 118 r aux;
#X obj 324 13 r notes;
#X obj 324 33 unpack;
#X obj 331 143 spigot;
#X obj 324 85 tgl 15 0 empty empty empty 17 7 0 10 -262144 -1 -1 0
1;
#X obj 329 107 sel 1;
#X obj 461 120 r aux;
#X obj 413 12 r notes;
#X obj 413 32 unpack;
#X obj 423 146 spigot;
#X obj 413 84 tgl 15 0 empty empty empty 17 7 0 10 -262144 -1 -1 0
1;
#X obj 418 106 sel 1;
#X obj 318 63 sel 68;
#X obj 407 61 sel 70;
#X msg 148 162 2;
#X msg 240 168 3;
#X msg 338 168 4;
#X msg 430 169 5;
#X obj 183 288 outlet;
#X obj 110 183 r aux;
#X obj 77 200 spigot;
#X obj 77 234 tgl 15 0 empty empty empty 17 7 0 10 -262144 -1 -1 0
1;
#X obj 77 217 sel 1;
#X obj 56 295 tgl 15 0 empty empty empty 17 7 0 10 -262144 -1 -1 0
1;
#X obj 56 269 +;
#X obj 35 225 t b f;
#X obj 309 297 outlet;
#X connect 0 0 1 0;
#X connect 1 0 2 0;
#X connect 2 0 3 0;
#X connect 3 0 38 0;
#X connect 3 0 43 0;
#X connect 4 0 7 1;
#X connect 5 0 6 0;
#X connect 6 0 10 0;
#X connect 7 0 32 0;
#X connect 8 0 9 0;
#X connect 9 0 7 0;
#X connect 10 0 8 0;
#X connect 11 0 14 1;
#X connect 12 0 13 0;
#X connect 13 0 17 0;
#X connect 14 0 33 0;
#X connect 15 0 16 0;
#X connect 16 0 14 0;
#X connect 17 0 15 0;
#X connect 18 0 21 1;
#X connect 19 0 20 0;
#X connect 20 0 30 0;
#X connect 21 0 34 0;
#X connect 22 0 23 0;
#X connect 23 0 21 0;
#X connect 24 0 27 1;
#X connect 25 0 26 0;
#X connect 26 0 31 0;
#X connect 27 0 35 0;
#X connect 28 0 29 0;
#X connect 29 0 27 0;
#X connect 30 0 22 0;
#X connect 31 0 28 0;
#X connect 32 0 36 0;
#X connect 33 0 36 0;
#X connect 34 0 36 0;
#X connect 35 0 36 0;
#X connect 37 0 38 1;
#X connect 38 0 40 0;
#X connect 39 0 42 0;
#X connect 40 0 39 0;
#X connect 42 0 41 0;
#X connect 42 0 44 0;
#X connect 43 0 42 0;
#X connect 43 1 42 1;
#X restore 309 158 pd shift # 1stoct;
#X obj 154 238 sel 2;
#X obj 594 281 tgl 20 0 empty empty empty 17 7 0 10 -232576 -1 -1 0
1;
#X obj 475 371 *~;
#X obj 498 371 line~;
#X msg 531 371 \$1 12;
#X obj 168 360 +~;
#X obj 211 371 r notes;
#X obj 211 390 unpack;
#X obj 212 409 spigot;
#X obj 104 216 table \$1-tab 666666;
#X obj 455 237 count~ 0 666666;
#X msg 514 346 \$1 12;
#X msg 546 170 666666;
#X obj 43 451 r fs;
#X obj 704 323 f;
#X obj 728 323 + 1;
#X obj 704 375 sel 0;
#X obj 704 357 mod 2;
#X obj 906 405 s screenLine2;
#X msg 968 100 bang;
#X obj 909 353 t b f;
#X obj 637 73 int, f 6;
#X obj 212 428 sel 60 63;
#X obj 237 449 tgl 15 0 empty empty empty 17 7 0 10 -262144 -1 -1 0
1;
#X msg 1008 154 ooooooooooooooooooooo;
#X obj 237 467 sel 0;
#X msg 237 485 1;
#X msg 264 484 0;
#X obj 567 412 tgl 15 0 empty empty empty 17 7 0 10 -128992 -1 -1 1
1;
#X obj 456 414 *~, f 5;
#X msg 529 412 \$1 12;
#X obj 493 307 /, f 4;
#X msg 493 288 1;
#X obj 457 276 *~ 1;
#X obj 456 291 wrap~;
#X obj 493 271 t b f;
#X obj 457 309 *~ 1;
#X obj 456 259 +~ 1;
#X obj 211 167 * 99;
#X obj 211 186 int;
#X obj 907 370 pack f f f f;
#X obj 946 352 t b f;
#X obj 169 341 *~;
#X obj 1003 129 delay 232;
#X msg 380 112 \; pd compatibility 0.47;
#X msg 379 38 1, f 11;
#X obj 193 340 line~;
#X msg 229 339 \$1 12;
#X obj 236 314 f;
#X obj 287 286 sel 1;
#X msg 271 319 0;
#X msg 294 320 1;
#X obj 637 37 * 3;
#X obj 637 54 + 1;
#X text 258 453 punch ssh;
#X msg 845 209 Lenght:[\$1].Bars;
#X obj 491 412 line~;
#X obj 762 600 line~;
#X obj 759 540 delay 15;
#X msg 764 581 1 22;
#X msg 763 560 0 22;
#X obj 761 637 *~, f 5;
#X obj 762 619 *~, f 5;
#X obj 704 304 sel 0 15;
#X obj 43 482 tgl 15 0 empty empty empty 17 7 0 10 -262144 -1 -1 0
1;
#X msg 80 503 1;
#X msg 103 504 0;
#N canvas 4 50 450 300 Led'r 0;
#X obj 214 213 s oscOut;
#X msg 214 196 send /led \$1;
#X obj 214 180 hradio 15 1 0 8 empty empty empty 0 -8 0 10 -262144
-1 -1 6;
#X msg 243 162 0;
#X msg 215 163 6;
#X obj 216 145 sel 1;
#X obj 216 128 f;
#X obj 216 96 inlet;
#X connect 1 0 0 0;
#X connect 2 0 1 0;
#X connect 3 0 1 0;
#X connect 4 0 1 0;
#X connect 5 0 4 0;
#X connect 5 1 3 0;
#X connect 6 0 5 0;
#X connect 7 0 6 0;
#X restore 594 488 pd Led'r;
#N canvas 221 222 450 300 disp_t_res_bg_len 0;
#X obj 41 230 s screenLine4;
#N canvas 525 143 583 541 stepwhere 0;
#X msg 63 108 [_*__ ____ ____ ____];
#X msg 78 130 [__*_ ____ ____ ____];
#X msg 133 192 [____ _*__ ____ ____];
#X msg 143 214 [____ __*_ ____ ____];
#X msg 157 233 [____ ___* ____ ____];
#X msg 194 275 [____ ____ _*__ ____];
#X msg 209 297 [____ ____ __*_ ____];
#X msg 222 318 [____ ____ ___* ____];
#X msg 253 362 [____ ____ ____ _*__];
#X msg 271 380 [____ ____ ____ __*_];
#X msg 289 400 [____ ____ ____ ___*];
#X obj 192 414 outlet;
#X obj 41 44 inlet;
#X msg 100 151 [___* ____ ____ ____];
#X obj 41 64 sel 1 2 3 4 5 6 7 8 9 10 11 12 13 14 15 16;
#X msg 41 88 [#___ ____ ____ ____];
#X msg 116 172 [____ #___ ____ ____];
#X msg 179 255 [____ ____ #___ ____];
#X msg 240 342 [____ ____ ____ #___];
#X connect 0 0 11 0;
#X connect 1 0 11 0;
#X connect 2 0 11 0;
#X connect 3 0 11 0;
#X connect 4 0 11 0;
#X connect 5 0 11 0;
#X connect 6 0 11 0;
#X connect 7 0 11 0;
#X connect 8 0 11 0;
#X connect 9 0 11 0;
#X connect 10 0 11 0;
#X connect 12 0 14 0;
#X connect 13 0 11 0;
#X connect 14 0 15 0;
#X connect 14 1 0 0;
#X connect 14 2 1 0;
#X connect 14 3 13 0;
#X connect 14 4 16 0;
#X connect 14 5 2 0;
#X connect 14 6 3 0;
#X connect 14 7 4 0;
#X connect 14 8 17 0;
#X connect 14 9 5 0;
#X connect 14 10 6 0;
#X connect 14 11 7 0;
#X connect 14 12 18 0;
#X connect 14 13 8 0;
#X connect 14 14 9 0;
#X connect 14 15 10 0;
#X connect 15 0 11 0;
#X connect 16 0 11 0;
#X connect 17 0 11 0;
#X connect 18 0 11 0;
#X restore 42 193 pd stepwhere;
#X obj 41 212 spigot;
#X obj 249 179 / 1;
#X obj 278 173 t b f;
#X msg 341 100 32;
#X msg 364 100 64;
#X obj 248 135 counter, f 16;
#X msg 387 100 128, f 4;
#X obj 187 62 t b;
#X msg 313 100 16;
#X msg 313 156 1;
#X msg 339 156 2;
#X obj 313 62 sel 1 2 3 4;
#X obj 249 153 - 0, f 6;
#X msg 247 112 reset;
#X obj 313 22 change;
#X obj 117 120 spigot;
#X obj 117 140 t b b;
#X msg 151 95 0;
#X msg 225 62 1;
#X obj 214 134 bng 15 250 50 0 empty empty empty 17 7 0 10 -262144
-1 -1;
#X msg 367 157 3;
#X msg 393 157 4;
#X obj 187 12 inlet;
#X obj 313 3 inlet len;
#X obj 74 6 inlet, f 7;
#X obj 117 28 inlet;
#X connect 1 0 2 0;
#X connect 2 0 0 0;
#X connect 3 0 1 0;
#X connect 4 0 3 0;
#X connect 4 1 3 1;
#X connect 5 0 7 3;
#X connect 6 0 7 3;
#X connect 7 0 14 0;
#X connect 8 0 7 3;
#X connect 9 0 7 0;
#X connect 10 0 7 3;
#X connect 11 0 4 0;
#X connect 12 0 4 0;
#X connect 13 0 10 0;
#X connect 13 0 11 0;
#X connect 13 1 5 0;
#X connect 13 1 12 0;
#X connect 13 2 6 0;
#X connect 13 2 22 0;
#X connect 13 3 8 0;
#X connect 13 3 23 0;
#X connect 14 0 3 0;
#X connect 15 0 7 0;
#X connect 15 0 21 0;
#X connect 16 0 13 0;
#X connect 16 0 20 0;
#X connect 17 0 18 0;
#X connect 18 0 19 0;
#X connect 18 1 15 0;
#X connect 19 0 17 1;
#X connect 20 0 17 1;
#X connect 22 0 4 0;
#X connect 23 0 4 0;
#X connect 24 0 9 0;
#X connect 25 0 16 0;
#X connect 26 0 2 1;
#X connect 27 0 17 0;
#X restore 771 387 pd disp_t_res_bg_len;
#X f 22;
#X obj 682 56 int, f 5;
#X obj 681 37 * 4;
#N canvas 540 266 450 366 input///// 0;
#N canvas 422 281 720 403 selektor 0;
#X obj -135 -83 int;
#X obj -184 -12 sel 1;
#X msg -193 11 1;
#X msg -149 13 0;
#X obj -184 40 tgl 15 0 empty empty empty 17 7 0 10 -262144 -1 -1 0
1;
#X msg -112 13 1;
#X msg -68 15 0;
#X obj -87 42 tgl 15 0 empty empty empty 17 7 0 10 -262144 -1 -1 0
1;
#X obj -104 -11 sel 2;
#X msg -20 61 1;
#X msg 0 61 0;
#X obj -19 78 tgl 15 0 empty empty empty 17 7 0 10 -262144 -1 -1 0
1;
#X obj -21 43 sel 3;
#X msg 33 59 1;
#X msg 57 59 0;
#X obj 32 79 tgl 15 0 empty empty empty 17 7 0 10 -262144 -1 -1 0 1
;
#X obj 32 40 sel 4;
#X msg -272 13 1;
#X msg -228 15 0;
#X obj -261 47 tgl 15 0 empty empty empty 17 7 0 10 -262144 -1 -1 1
1;
#X obj -263 -11 sel 0;
#X obj -88 96 outlet;
#X obj -20 95 outlet;
#X obj 31 97 outlet;
#X obj -260 99 outlet;
#X obj -177 94 outlet;
#X obj -16 -67 s chfx;
#X obj -16 -86 change;
#X obj -249 -102 inlet;
#X connect 0 0 1 0;
#X connect 0 0 8 0;
#X connect 0 0 12 0;
#X connect 0 0 20 0;
#X connect 0 0 16 0;
#X connect 0 0 27 0;
#X connect 1 0 2 0;
#X connect 1 1 3 0;
#X connect 2 0 4 0;
#X connect 3 0 4 0;
#X connect 4 0 25 0;
#X connect 5 0 7 0;
#X connect 6 0 7 0;
#X connect 7 0 21 0;
#X connect 8 0 5 0;
#X connect 8 1 6 0;
#X connect 9 0 11 0;
#X connect 10 0 11 0;
#X connect 11 0 22 0;
#X connect 12 0 9 0;
#X connect 12 1 10 0;
#X connect 13 0 15 0;
#X connect 14 0 15 0;
#X connect 15 0 23 0;
#X connect 16 0 13 0;
#X connect 16 1 14 0;
#X connect 17 0 19 0;
#X connect 18 0 19 0;
#X connect 19 0 24 0;
#X connect 20 0 17 0;
#X connect 20 1 18 0;
#X connect 27 0 26 0;
#X connect 28 0 0 0;
#X restore 167 28 pd selektor;
#X obj 168 10 inlet;
#X obj 167 57 tgl 15 0 empty empty empty 17 7 0 10 -262144 -1 -1 1
1;
#X obj 182 57 tgl 15 0 empty empty empty 17 7 0 10 -262144 -1 -1 0
1;
#X obj 196 57 tgl 15 0 empty empty empty 17 7 0 10 -262144 -1 -1 0
1;
#X obj 211 57 tgl 15 0 empty empty empty 17 7 0 10 -262144 -1 -1 0
1;
#X obj 305 61 tgl 15 0 empty empty empty 17 7 0 10 -262144 -1 -1 0
1;
#X obj 12 278 outlet~;
#X obj 12 200 *~;
#X obj 27 182 line~;
#X msg 26 163 \$1 12;
#X obj 11 55 adc~;
#X obj 11 141 +~, f 4;
#X obj 78 202 *~;
#X obj 93 184 line~;
#X msg 92 165 \$1 12;
#X obj 137 204 *~;
#X obj 152 185 line~;
#X msg 156 167 \$1 12;
#X obj 198 205 *~;
#X obj 213 186 line~;
#X msg 217 168 \$1 12;
#X obj 319 305 outlet;
#X obj 263 109 sel 1;
#X obj 300 109 sel 1;
#X obj 336 109 sel 1;
#X obj 374 109 sel 1;
#X msg 294 172 symbol L+R;
#X msg 308 191 symbol L;
#X msg 322 210 symbol R;
#X msg 334 225 symbol bus;
#X obj 399 127 sel 1;
#X msg 369 252 symbol o;
#X obj 188 112 r~ bus;
#X connect 0 0 2 0;
#X connect 0 1 3 0;
#X connect 0 2 4 0;
#X connect 0 3 5 0;
#X connect 0 4 6 0;
#X connect 1 0 0 0;
#X connect 2 0 10 0;
#X connect 2 0 23 0;
#X connect 3 0 15 0;
#X connect 3 0 24 0;
#X connect 4 0 18 0;
#X connect 4 0 25 0;
#X connect 5 0 21 0;
#X connect 5 0 26 0;
#X connect 6 0 31 0;
#X connect 8 0 7 0;
#X connect 9 0 8 1;
#X connect 10 0 9 0;
#X connect 11 0 12 0;
#X connect 11 0 13 0;
#X connect 11 1 12 1;
#X connect 11 1 16 0;
#X connect 12 0 8 0;
#X connect 13 0 7 0;
#X connect 14 0 13 1;
#X connect 15 0 14 0;
#X connect 16 0 7 0;
#X connect 17 0 16 1;
#X connect 18 0 17 0;
#X connect 19 0 7 0;
#X connect 20 0 19 1;
#X connect 21 0 20 0;
#X connect 23 0 27 0;
#X connect 24 0 28 0;
#X connect 25 0 29 0;
#X connect 26 0 30 0;
#X connect 27 0 22 0;
#X connect 28 0 22 0;
#X connect 29 0 22 0;
#X connect 30 0 22 0;
#X connect 31 0 32 0;
#X connect 32 0 22 0;
#X connect 33 0 19 0;
#X restore 219 255 pd input/////;
#X msg 873 227 input:\$1;
#X msg 917 388 L[\$1]In[\$2]o[\$3]Fb[\$4];
#X obj 435 370 hip~ 5;
#X msg 81 523 footswitch:\$1;
#X obj 594 251 spigot;
#X obj 81 466 spigot;
#N canvas 396 208 930 300 barsamcalkulat 0;
#X obj 297 9 inlet;
#X obj 201 214 outlet;
#X obj 202 135 sig~ 1;
#X obj 202 153 -~;
#X obj 244 170 abs~;
#X obj 202 170 rpole~;
#X obj 244 120 tgl 15 0 empty empty empty 17 7 0 10 -262144 -1 -1 0
1;
#X obj 201 190 snapshot~;
#X obj 244 137 sig~ 0;
#X obj 244 154 rzero~ 1;
#X obj 67 7 r met64, f 16;
#X obj 384 31 tgl 15 0 empty empty empty 17 7 0 10 -262144 -1 -1 0
1;
#X obj 384 51 switch~;
#X obj 67 27 sel 0;
#X obj 297 30 t b b;
#X msg 324 54 1;
#X msg 296 54 1;
#X obj 68 67 spigot;
#X msg 183 55 0;
#X msg 137 42 1;
#X obj 111 174 t b b;
#X msg 278 85 0;
#X obj 79 94 tgl 15 0 empty empty empty 17 7 0 10 -262144 -1 -1 0 1
;
#X obj 92 147 sel 1 0;
#X obj 359 14 bng 15 250 50 0 empty empty empty 17 7 0 10 -262144 -1
-1;
#X floatatom 270 205 5 0 0 0 - - -;
#X connect 0 0 14 0;
#X connect 2 0 3 0;
#X connect 3 0 5 0;
#X connect 3 0 5 1;
#X connect 4 0 3 1;
#X connect 5 0 7 0;
#X connect 6 0 8 0;
#X connect 7 0 1 0;
#X connect 7 0 25 0;
#X connect 8 0 9 0;
#X connect 9 0 4 0;
#X connect 10 0 13 0;
#X connect 11 0 12 0;
#X connect 13 0 17 0;
#X connect 14 0 16 0;
#X connect 14 0 19 0;
#X connect 14 1 15 0;
#X connect 15 0 11 0;
#X connect 17 0 22 0;
#X connect 18 0 17 1;
#X connect 19 0 17 1;
#X connect 20 0 21 0;
#X connect 20 1 7 0;
#X connect 21 0 11 0;
#X connect 21 0 18 0;
#X connect 22 0 23 0;
#X connect 23 0 6 0;
#X connect 23 1 20 0;
#X connect 24 0 14 0;
#X restore 857 498 pd barsamcalkulat;
#X obj 858 481 bng 15 250 50 0 empty empty empty 17 7 0 10 -262144
-1 -1;
#X obj 857 421 r tempolink;
#X obj 858 440 t b;
#X obj 859 461 delay 666;
#X floatatom 856 520 15 0 0 0 - - -;
#X obj 691 492 * 1, f 5;
#X obj 691 470 t b f;
#X obj 817 475 t b;
#X msg 708 427 0.25;
#X obj 81 484 sel 1;
#X connect 3 0 85 0;
#X connect 5 0 61 0;
#X connect 5 0 84 0;
#X connect 5 0 101 0;
#X connect 5 0 128 0;
#X connect 9 0 69 0;
#X connect 10 0 54 0;
#X connect 11 0 10 0;
#X connect 11 0 59 0;
#X connect 11 1 12 0;
#X connect 13 0 56 0;
#X connect 13 0 102 0;
#X connect 13 0 116 0;
#X connect 13 0 134 0;
#X connect 13 0 135 0;
#X connect 15 0 11 0;
#X connect 16 0 17 0;
#X connect 16 1 17 1;
#X connect 17 0 11 0;
#X connect 18 0 19 0;
#X connect 19 0 2 0;
#X connect 20 0 4 0;
#X connect 21 0 20 0;
#X connect 22 0 3 0;
#X connect 23 0 5 0;
#X connect 24 0 22 0;
#X connect 25 0 23 0;
#X connect 26 0 30 0;
#X connect 27 0 31 0;
#X connect 28 0 32 0;
#X connect 29 0 33 0;
#X connect 30 0 2 0;
#X connect 30 0 142 0;
#X connect 31 0 4 0;
#X connect 31 0 160 0;
#X connect 32 0 3 0;
#X connect 33 0 5 0;
#X connect 34 0 39 0;
#X connect 34 0 79 0;
#X connect 34 1 40 0;
#X connect 35 0 46 0;
#X connect 36 0 38 0;
#X connect 37 0 41 0;
#X connect 37 1 42 0;
#X connect 38 1 37 0;
#X connect 39 0 47 0;
#X connect 39 0 138 0;
#X connect 39 0 166 1;
#X connect 40 0 47 0;
#X connect 40 0 138 0;
#X connect 40 0 166 1;
#X connect 41 0 44 0;
#X connect 42 0 44 0;
#X connect 43 0 30 1;
#X connect 43 0 31 1;
#X connect 43 0 32 1;
#X connect 43 0 33 1;
#X connect 43 0 158 0;
#X connect 43 0 88 1;
#X connect 43 0 98 1;
#X connect 43 0 167 1;
#X connect 44 0 47 0;
#X connect 44 1 47 1;
#X connect 45 0 34 1;
#X connect 46 0 34 0;
#X connect 46 1 45 0;
#X connect 47 0 48 0;
#X connect 48 0 49 0;
#X connect 48 0 109 0;
#X connect 48 0 80 0;
#X connect 48 0 66 0;
#X connect 48 0 133 0;
#X connect 48 1 50 0;
#X connect 49 0 43 0;
#X connect 50 0 43 0;
#X connect 50 0 91 0;
#X connect 54 0 68 0;
#X connect 54 0 68 1;
#X connect 55 0 57 0;
#X connect 59 0 60 0;
#X connect 61 0 67 0;
#X connect 62 0 64 0;
#X connect 64 0 63 0;
#X connect 64 1 65 0;
#X connect 65 0 72 0;
#X connect 66 0 71 0;
#X connect 67 0 54 2;
#X connect 68 0 9 1;
#X connect 69 0 82 0;
#X connect 70 0 69 1;
#X connect 71 0 52 0;
#X connect 72 0 63 0;
#X connect 74 0 86 0;
#X connect 75 0 81 0;
#X connect 76 0 73 0;
#X connect 76 0 100 1;
#X connect 76 0 125 0;
#X connect 76 0 126 1;
#X connect 76 0 52 0;
#X connect 78 0 74 0;
#X connect 79 0 53 0;
#X connect 80 0 52 0;
#X connect 82 0 14 0;
#X connect 83 0 74 1;
#X connect 84 0 62 0;
#X connect 85 0 54 1;
#X connect 86 0 119 0;
#X connect 86 0 95 1;
#X connect 87 0 153 0;
#X connect 87 0 158 2;
#X connect 88 0 90 0;
#X connect 89 0 88 0;
#X connect 89 1 166 0;
#X connect 90 0 75 0;
#X connect 91 0 94 0;
#X connect 91 0 139 0;
#X connect 91 0 157 0;
#X connect 92 0 86 0;
#X connect 93 0 92 1;
#X connect 94 0 93 0;
#X connect 95 0 69 0;
#X connect 96 0 97 0;
#X connect 97 0 98 0;
#X connect 98 0 112 0;
#X connect 100 0 77 1;
#X connect 100 0 127 0;
#X connect 101 0 83 0;
#X connect 102 0 73 0;
#X connect 102 0 76 0;
#X connect 103 0 154 0;
#X connect 103 0 167 0;
#X connect 104 0 105 0;
#X connect 104 0 107 0;
#X connect 105 0 104 1;
#X connect 107 0 106 0;
#X connect 109 0 52 0;
#X connect 109 0 51 0;
#X connect 109 0 62 0;
#X connect 109 0 108 0;
#X connect 110 0 130 0;
#X connect 110 1 130 1;
#X connect 111 0 130 0;
#X connect 111 0 107 1;
#X connect 111 0 145 0;
#X connect 111 0 158 3;
#X connect 111 0 175 0;
#X connect 112 1 113 0;
#X connect 113 0 115 0;
#X connect 114 0 51 0;
#X connect 115 0 116 0;
#X connect 115 1 117 0;
#X connect 116 0 118 0;
#X connect 117 0 118 0;
#X connect 118 0 120 0;
#X connect 119 0 77 0;
#X connect 120 0 146 0;
#X connect 121 0 123 1;
#X connect 122 0 121 0;
#X connect 123 0 124 0;
#X connect 124 0 126 0;
#X connect 125 0 122 0;
#X connect 125 1 121 1;
#X connect 126 0 78 0;
#X connect 127 0 123 0;
#X connect 128 0 129 0;
#X connect 129 0 131 0;
#X connect 130 0 163 0;
#X connect 131 0 130 0;
#X connect 131 1 130 3;
#X connect 132 0 95 0;
#X connect 133 0 114 0;
#X connect 135 0 5 0;
#X connect 135 0 111 0;
#X connect 135 0 55 0;
#X connect 135 0 57 0;
#X connect 136 0 132 1;
#X connect 137 0 136 0;
#X connect 138 0 137 0;
#X connect 139 0 140 0;
#X connect 139 1 138 0;
#X connect 139 1 141 0;
#X connect 140 0 137 0;
#X connect 141 0 137 0;
#X connect 142 0 143 0;
#X connect 143 0 111 0;
#X connect 145 0 62 0;
#X connect 146 0 119 1;
#X connect 147 0 152 0;
#X connect 147 0 152 1;
#X connect 148 0 149 0;
#X connect 149 0 147 0;
#X connect 150 0 147 0;
#X connect 152 0 151 1;
#X connect 153 0 104 0;
#X connect 153 0 158 1;
#X connect 155 0 91 0;
#X connect 155 0 165 0;
#X connect 156 0 91 0;
#X connect 156 0 165 0;
#X connect 159 0 161 0;
#X connect 160 0 159 0;
#X connect 161 0 132 0;
#X connect 161 0 164 0;
#X connect 161 1 162 0;
#X connect 162 0 62 0;
#X connect 163 0 108 0;
#X connect 164 0 92 0;
#X connect 165 0 62 0;
#X connect 166 0 91 0;
#X connect 167 0 178 0;
#X connect 168 0 173 0;
#X connect 168 0 174 0;
#X connect 168 0 176 0;
#X connect 169 0 168 0;
#X connect 170 0 171 0;
#X connect 171 0 172 0;
#X connect 172 0 169 0;
#X connect 174 0 76 0;
#X connect 175 0 174 0;
#X connect 175 1 174 1;
#X connect 176 0 100 0;
#X connect 177 0 175 0;
#X connect 178 0 155 0;
#X connect 178 1 156 0;
#X coords 0 -1 1 1 100 100 2 100 100;
