#N canvas 700 179 928 602 10;
#X obj 50 412 cnv 15 133 100 empty empty empty 20 12 0 14 -33289 -66577
0;
#X floatatom 701 39 5 0 0 0 - - -;
#X obj 699 58 s chan;
#X obj 763 438 s screenLine1;
#X obj 774 58 s chen;
#X obj 687 236 pack f s s;
#X obj 733 218 t b s;
#X obj 696 217 t b s;
#X msg 807 233 symbol .|.||.|;
#X msg 809 213 symbol /|/|/|;
#X msg 808 195 symbol .:..;
#X obj 676 435 s screenLine5;
#X obj 101 101 cnv 15 97 102 empty empty empty 20 12 0 14 -33289 -66577
0;
#X obj 101 102 cnv 15 95 102 empty empty empty 20 12 0 14 -191407 -66577
0;
#X obj 124 467 cnv 15 128 97 empty empty empty 20 12 0 14 -228856 -66577
0;
#N canvas 186 116 872 544 record 0;
#X obj 189 427 writesf~ 2;
#X obj 59 27 inlet~;
#X obj 106 27 inlet~;
#X msg 158 216 start;
#X msg 216 218 stop;
#X obj 239 44 select 1 0;
#X obj 237 25 r rec;
#X msg 256 250 \; rec_in color 13;
#X msg 257 220 \; rec_in color 16;
#X msg 312 190 open -bytes 3 \$1;
#X obj 311 165 savepanel;
#X obj 258 202 t b a, f 8;
#X msg 416 307 open -bytes 3 song\$1.wav;
#X msg 454 374 stop;
#X msg 367 375 start, f 10;
#X obj 376 338 t b a, f 8;
#X obj 570 11 inlet;
#X obj 570 37 tgl 15 0 empty empty empty 17 7 0 10 -262144 -1 -1 0
1;
#X obj 420 280 random 999999;
#X obj 450 235 sel 1;
#X obj 582 503 s screenLine3;
#X msg 586 478 ricord:song\$1.wav;
#X obj 580 451 f;
#X obj 492 109 spigot;
#X obj 677 26 r notes;
#X obj 677 46 unpack;
#X obj 677 121 spigot;
#X obj 677 65 sel 61;
#X obj 677 84 tgl 15 0 empty empty empty 17 7 0 10 -262144 -1 -1 0
1;
#X obj 677 101 sel 1;
#X msg 677 139 1;
#X obj 473 144 sel 1;
#X obj 473 172 tgl 15 0 empty empty empty 17 7 0 10 -262144 -1 -1 0
1;
#X obj 663 359 s oscOut;
#X msg 663 340 send /led \$1;
#X obj 664 322 hradio 15 1 0 8 empty empty empty 0 -8 0 10 -262144
-1 -1 3;
#X obj 655 284 sel 1;
#X msg 693 304 0;
#X msg 665 304 3;
#X obj 667 264 f, f 5;
#X obj 670 239 t f f;
#X obj 586 249 f, f 5;
#X obj 558 151 sel 1;
#X obj 571 202 delay 111;
#X obj 717 105 r hpsh;
#X connect 1 0 0 0;
#X connect 2 0 0 1;
#X connect 3 0 0 0;
#X connect 4 0 0 0;
#X connect 5 0 10 0;
#X connect 5 1 4 0;
#X connect 5 1 7 0;
#X connect 6 0 5 0;
#X connect 9 0 11 0;
#X connect 10 0 9 0;
#X connect 11 0 3 0;
#X connect 11 0 8 0;
#X connect 11 1 0 0;
#X connect 12 0 15 0;
#X connect 13 0 0 0;
#X connect 14 0 0 0;
#X connect 15 0 14 0;
#X connect 15 1 0 0;
#X connect 16 0 17 0;
#X connect 17 0 23 1;
#X connect 17 0 42 0;
#X connect 18 0 12 0;
#X connect 18 0 22 0;
#X connect 19 0 18 0;
#X connect 19 1 13 0;
#X connect 21 0 20 0;
#X connect 22 0 21 0;
#X connect 23 0 31 0;
#X connect 24 0 25 0;
#X connect 25 0 27 0;
#X connect 26 0 30 0;
#X connect 27 0 28 0;
#X connect 28 0 29 0;
#X connect 29 0 26 0;
#X connect 30 0 23 0;
#X connect 31 0 32 0;
#X connect 32 0 19 0;
#X connect 32 0 40 0;
#X connect 32 0 41 1;
#X connect 34 0 33 0;
#X connect 35 0 34 0;
#X connect 36 0 38 0;
#X connect 36 0 22 0;
#X connect 36 1 37 0;
#X connect 37 0 34 0;
#X connect 38 0 34 0;
#X connect 39 0 36 0;
#X connect 40 0 39 0;
#X connect 40 1 39 1;
#X connect 41 0 36 0;
#X connect 42 0 41 0;
#X connect 42 0 43 0;
#X connect 42 1 37 0;
#X connect 43 0 41 0;
#X connect 44 0 26 1;
#X restore 235 400 pd record;
#X f 30;
#X obj 108 127 tgl 20 0 rec rec_in rec 2 7 0 10 -258699 -1 -262144
0 1;
#X msg 507 106 1, f 13;
#X obj 181 250 catch~ sumL;
#X obj 259 251 catch~ sumR;
#X obj 154 128 tgl 15 0 metron empty mtr 17 7 0 10 -257985 -1 -1 1
1;
#X obj 249 132 t b b;
#X msg 245 152 1;
#X msg 279 152 0;
#X obj 7 145 s ttin;
#X obj 6 63 key;
#X obj 7 127 spigot;
#X obj 33 82 tgl 15 0 empty empty tecla 17 7 0 10 -262144 -1 -260097
0 1;
#X obj 20 106 sel 27 13;
#X obj 78 390 throw~ outL;
#X obj 150 390 throw~ outR;
#N canvas 237 192 628 423 feel 0;
#X obj 21 86 & 1;
#X obj 21 58 t f f;
#X obj 21 25 inlet;
#X obj 21 221 outlet;
#X obj 21 126 pack;
#X obj 21 152 route 0 1;
#X text 16 170 even;
#X text 56 170 odd;
#X obj 89 152 *;
#X obj 99 125 t b f;
#X floatatom 89 192 5 0 0 0 - - -;
#X obj 46 191 pipe;
#X text 127 192 milliseconds;
#X obj 74 25 inlet;
#X obj 99 91 r ticklength16;
#X floatatom 170 66 5 0 0 0 - - -;
#X floatatom 155 29 5 0 0 0 - - -;
#X obj 117 50 * 200;
#X floatatom 145 133 5 0 0 0 - - -;
#X obj 158 346 noteout 16;
#X obj 112 302 makenote 111 111;
#X obj 112 250 t b;
#X msg 111 278 60;
#X connect 0 0 4 0;
#X connect 1 0 0 0;
#X connect 1 1 4 1;
#X connect 2 0 1 0;
#X connect 4 0 5 0;
#X connect 5 0 3 0;
#X connect 5 0 21 0;
#X connect 5 1 11 0;
#X connect 8 0 10 0;
#X connect 8 0 11 1;
#X connect 9 0 8 0;
#X connect 9 1 8 1;
#X connect 11 0 3 0;
#X connect 13 0 8 0;
#X connect 13 0 17 0;
#X connect 14 0 9 0;
#X connect 14 0 18 0;
#X connect 15 0 9 0;
#X connect 17 0 15 0;
#X connect 20 0 19 0;
#X connect 20 1 19 1;
#X connect 21 0 22 0;
#X connect 22 0 20 0;
#X restore 359 250 pd feel;
#X msg 513 373 0, f 5;
#X msg 477 104 100;
#X msg 443 190 tempo \$1;
#X floatatom 490 232 5 0 0 1 tempo - -;
#X floatatom 442 170 12 0 0 2 tempo - -;
#X msg 351 193 connect \$1;
#X floatatom 120 61 5 0 0 0 - - -;
#X obj 122 42 r #abl_link_num_peers;
#X obj 502 264 s tempolink;
#N canvas 451 171 740 403 idnwr60 0;
#X obj 354 242 f;
#X obj 381 242 +;
#X obj 354 220 t b f;
#X msg 314 195 1;
#X msg 421 196 -1;
#X obj 354 364 outlet;
#X obj 314 48 inlet;
#X obj 421 48 inlet;
#X obj 616 64 inlet;
#X floatatom 392 299 5 0 0 0 - - -;
#X obj 359 145 tgl 15 0 empty empty empty 17 7 0 10 -262144 -1 -1 1
1;
#X obj 429 142 tgl 15 0 empty empty empty 17 7 0 10 -262144 -1 -1 1
1;
#X obj 330 165 spigot;
#X obj 397 164 spigot;
#X text 624 42 resetnum;
#X obj 615 100 t b;
#X msg 615 125 1;
#X msg 499 106 0;
#X msg 365 111 0;
#X obj 354 264 mod 60;
#X obj 471 58 sel 0 59;
#X obj 540 61 sel 59;
#X connect 0 0 1 1;
#X connect 0 0 19 0;
#X connect 1 0 0 1;
#X connect 2 0 0 0;
#X connect 2 1 1 0;
#X connect 3 0 2 0;
#X connect 4 0 2 0;
#X connect 6 0 12 0;
#X connect 7 0 13 0;
#X connect 8 0 0 0;
#X connect 8 0 15 0;
#X connect 10 0 12 1;
#X connect 11 0 13 1;
#X connect 12 0 3 0;
#X connect 13 0 4 0;
#X connect 15 0 16 0;
#X connect 16 0 10 0;
#X connect 16 0 11 0;
#X connect 17 0 11 0;
#X connect 18 0 10 0;
#X connect 19 0 5 0;
#X connect 19 0 9 0;
#X connect 19 0 20 0;
#X connect 19 0 21 0;
#X connect 20 0 17 0;
#X connect 20 1 18 0;
#X connect 20 2 16 0;
#X restore 442 121 pd idnwr60;
#X obj 443 141 + 80;
#X obj 458 336 /;
#X obj 459 297 t b b;
#X obj 489 319 f;
#X floatatom 458 354 13 0 0 0 - - -;
#X obj 459 277 t b;
#X msg 457 319 1875;
#X obj 458 372 s steple;
#X obj 101 345 dac~;
#X obj 99 328 *~;
#X obj 125 328 *~, f 8;
#X obj 129 313 tgl 15 0 empty empty empty 17 7 0 10 -262144 -1 -1 0
1;
#X obj 359 232 spigot;
#X text 32 480 http://servando.teks.no;
#X text 108 104 [Oo]*O_0*[oO];
#X obj 761 418 s screenLine2;
#X text 127 210 Master;
#N canvas 248 124 945 497 lfo 0;
#X obj 42 118 phasor~;
#X obj 69 158 expr~ ($v1 > 0.5) * 2 - 1;
#X obj -8 -97 r lfort\$1;
#X obj 535 -84 r lfowf\$1;
#X obj 28 315 s~ lfo;
#X obj 534 -5 * 4;
#X obj 534 18 int;
#X obj 485 88 sel 1;
#X msg 476 112 1;
#X msg 520 114 0;
#X obj 485 141 tgl 15 0 empty empty empty 17 7 0 10 -262144 -1 -1 0
1;
#X obj 58 265 *~;
#X msg 557 114 1;
#X msg 601 117 0;
#X obj 582 143 tgl 15 0 empty empty empty 17 7 0 10 -262144 -1 -1 0
1;
#X obj 89 278 *~;
#X obj 565 89 sel 2;
#X msg 636 117 1;
#X msg 680 119 0;
#X obj 661 145 tgl 15 0 empty empty empty 17 7 0 10 -262144 -1 -1 0
1;
#X obj 149 306 *~;
#X obj 645 91 sel 3;
#X msg 713 118 1;
#X msg 757 120 0;
#X obj 738 146 tgl 15 0 empty empty empty 17 7 0 10 -262144 -1 -1 0
1;
#X obj 121 293 *~;
#X obj 722 92 sel 4;
#X obj 254 150 random 127;
#X obj 226 240 sig~;
#X obj 246 110 metro;
#X obj 293 42 hsl 128 15 0.01 550 0 0 empty empty empty -2 -8 0 10
-262144 -1 -1 0 1;
#X obj 147 328 clip~ -1 1;
#X obj 226 86 tgl 15 0 empty empty empty 17 7 0 10 -262144 -1 -1 0
1;
#X obj 254 173 / 127;
#X obj 254 193 * 2;
#X obj 253 218 - 1;
#X obj 191 30 loadbang;
#X msg 208 56 1;
#X msg 296 84 0.1;
#X msg 421 19 bang;
#X obj 63 5 hsl 128 15 0 1 0 0 empty empty empty -2 -8 0 10 -262144
-1 -1 12700 1;
#X obj 8 118 osc~;
#X obj 21 249 *~;
#X msg 802 121 1;
#X msg 846 123 0;
#X obj 827 150 tgl 15 0 empty empty empty 17 7 0 10 -262144 -1 -1 1
1;
#X obj 811 96 sel 0;
#X floatatom 83 42 5 0 0 0 - - -;
#X obj 606 -58 inlet;
#X msg 535 -61 0;
#X obj 19 -24 * 1, f 5;
#X obj 328 66 hsl 128 15 0.01 550 0 0 empty empty empty -2 -8 0 10
-262144 -1 -1 0 1;
#X obj 164 -51 / 40;
#X floatatom 268 65 5 0 0 0 - - -;
#X obj 286 -14 * 100;
#X obj 294 13 + 10;
#X floatatom 42 -75 5 0 0 0 - - -;
#X obj 210 -46 t b f;
#X msg 201 -22 1;
#X obj 212 0 -;
#X floatatom 126 -97 5 0 0 0 - - -;
#X obj 42 187 -~ 0.5;
#X obj 97 -68 f;
#X obj 286 -58 inlet;
#X obj 286 -38 switch~;
#X connect 0 0 1 0;
#X connect 0 0 61 0;
#X connect 1 0 15 0;
#X connect 2 0 50 0;
#X connect 3 0 5 0;
#X connect 5 0 6 0;
#X connect 6 0 7 0;
#X connect 6 0 16 0;
#X connect 6 0 21 0;
#X connect 6 0 26 0;
#X connect 6 0 46 0;
#X connect 7 0 8 0;
#X connect 7 1 9 0;
#X connect 8 0 10 0;
#X connect 9 0 10 0;
#X connect 10 0 11 1;
#X connect 11 0 4 0;
#X connect 12 0 14 0;
#X connect 13 0 14 0;
#X connect 14 0 15 1;
#X connect 15 0 4 0;
#X connect 16 0 12 0;
#X connect 16 1 13 0;
#X connect 17 0 19 0;
#X connect 18 0 19 0;
#X connect 19 0 20 1;
#X connect 20 0 31 0;
#X connect 21 0 17 0;
#X connect 21 0 39 0;
#X connect 21 1 18 0;
#X connect 22 0 24 0;
#X connect 23 0 24 0;
#X connect 24 0 25 1;
#X connect 25 0 4 0;
#X connect 26 0 22 0;
#X connect 26 0 38 0;
#X connect 26 1 23 0;
#X connect 27 0 33 0;
#X connect 28 0 20 0;
#X connect 28 0 25 0;
#X connect 29 0 27 0;
#X connect 30 0 29 1;
#X connect 30 0 53 0;
#X connect 31 0 4 0;
#X connect 32 0 29 0;
#X connect 33 0 34 0;
#X connect 34 0 35 0;
#X connect 35 0 28 0;
#X connect 36 0 37 0;
#X connect 36 0 49 0;
#X connect 37 0 32 0;
#X connect 37 0 40 0;
#X connect 38 0 29 1;
#X connect 39 0 30 0;
#X connect 40 0 50 0;
#X connect 41 0 42 0;
#X connect 42 0 4 0;
#X connect 43 0 45 0;
#X connect 44 0 45 0;
#X connect 45 0 42 1;
#X connect 46 0 43 0;
#X connect 46 1 44 0;
#X connect 48 0 6 0;
#X connect 49 0 5 0;
#X connect 50 0 0 0;
#X connect 50 0 41 0;
#X connect 50 0 47 0;
#X connect 52 0 57 0;
#X connect 54 0 55 0;
#X connect 55 0 30 0;
#X connect 56 0 50 1;
#X connect 57 0 58 0;
#X connect 57 1 59 1;
#X connect 58 0 59 0;
#X connect 59 0 54 0;
#X connect 60 0 62 0;
#X connect 61 0 11 0;
#X connect 62 0 50 0;
#X connect 62 0 52 0;
#X connect 63 0 64 0;
#X connect 63 0 32 0;
#X restore 481 427 pd lfo ///////////;
#X msg 695 169 symbol \$1;
#X symbolatom 697 200 10 0 0 0 - - -;
#X msg 771 363 symbol |...|...|;
#X obj 673 147 r syntyp;
#X obj 495 87 delay 1111;
#N canvas 75 134 1064 499 tg+ 0;
#X obj 100 100 tgl 15 0 empty empty empty 17 7 0 10 -262144 -1 -1 1
1;
#X obj 56 68 inlet;
#X obj 57 138 outlet;
#X obj 106 7 loadbang;
#X obj 222 423 s screenLine1;
#X msg 283 186 _____________%$*)*)*;
#X obj 282 162 sel 1 2 3 4 5 6 7 8 9;
#X msg 288 342 .>.>.>.>.>.>.>.>.>.>;
#X obj 283 139 + 1;
#X obj 256 48 tgl 15 0 empty empty empty 17 7 0 10 -262144 -1 -1 0
1;
#X msg 424 259 @^@$&#%*&)__________;
#X msg 422 184 _____________%$*)*)*;
#X obj 422 159 sel 1 2 3 4 5 6 7 8 9;
#X obj 422 137 + 1;
#X msg 568 239 o@$&#s#rquenc3r*)*)*;
#X msg 568 258 @^@$&#%*&)__________;
#X msg 566 183 _____________%$*)*)*;
#X msg 569 320 @^@$&probab)%$*)*)*;
#X obj 566 158 sel 1 2 3 4 5 6 7 8 9;
#X msg 571 339 .>.>.>.>.>.>.>.>.>.>;
#X obj 566 136 + 1;
#X obj 414 450 s screenLine2;
#X obj 558 449 s screenLine3;
#X msg 285 304 1.0101e+18;
#X msg 568 301 __++++===+++____--__;
#X msg 709 278 &&&^@$Euclid3an*)*)*;
#X msg 708 259 @^@$&#%*&)__________;
#X msg 706 184 _____________%$*)*)*;
#X msg 708 220 !!@$&------%%%%%)*();
#X obj 706 159 sel 1 2 3 4 5 6 7 8 9;
#X msg 711 340 .>.>.>.>.>.>.>.>.>.>;
#X obj 706 137 + 1;
#X msg 708 302 __++++===+++____--__;
#X msg 857 261 @^@$&#%*&)__________;
#X msg 855 186 _____________%$*)*)*;
#X msg 857 222 !!@$&------%%%%%)*();
#X msg 858 323 @^@$&probab)%$*)*)*;
#X obj 855 161 sel 1 2 3 4 5 6 7 8 9;
#X obj 855 139 + 1;
#X msg 857 304 __++++===+++____--__;
#X obj 698 450 s screenLine4;
#X obj 824 428 s screenLine5;
#X msg 427 340 .>.>.OOOoooOOO>.>.>;
#X msg 566 200 tp://servando.teks.no;
#X obj 422 118 random 11;
#X obj 855 120 random 12;
#X obj 566 117 random 15;
#X obj 706 118 random 12;
#X msg 568 219 !!@$&------%%.......;
#X msg 283 203 ........#$.......___;
#X msg 285 222 !!@$&---.........*();
#X msg 285 242 ....#s#rquenc3r*)*)*;
#X msg 285 261 @^@$........________;
#X msg 286 280 ......Eucl..........;
#X msg 425 321 .....prob...........;
#X msg 424 303 .....))))-__--__-_-_;
#X msg 425 278 ...............*)*)*;
#X msg 424 240 o@$&#s#r............;
#X msg 424 220 !!@$&------%%%%.....;
#X msg 422 201 ....&#%*....<<>>>>>>;
#X msg 706 201 @^@...............%%;
#X msg 708 240 o@................)*;
#X msg 285 323 .;
#X msg 855 203 .;
#X msg 857 242 .;
#X msg 294 375 .;
#X msg 436 381 .;
#X msg 591 387 .;
#X msg 745 378 .;
#X msg 843 401 .;
#X msg 858 280 ||||||||||||||||||||;
#X msg 569 277 ||||||||||||||||||||;
#X msg 708 321 |||||||||;
#X obj 127 275 bng 15 250 50 0 empty empty empty 17 7 0 10 -262144
-1 -1;
#X obj 266 96 random 10;
#X obj 161 298 + 1;
#X obj 125 297 f;
#X floatatom 157 320 5 0 0 0 - - -;
#X msg 168 276 0, f 7;
#X obj 923 408 print;
#X obj 129 143 s seq2;
#X obj 129 175 s seq3;
#X obj 131 207 s seq4;
#X obj 198 173 random 30;
#X obj 200 192 + 40;
#X msg 923 385 ://servando.teks.no;
#X msg 808 373 ://servando.teks.no;
#X obj 192 217 random 30;
#X obj 193 130 random 30;
#X obj 195 148 + 20;
#X obj 69 365 s intro;
#X msg 129 351 0;
#X obj 198 244 + 63;
#X obj 133 413 s oscOut;
#X msg 133 394 send /led \$1;
#X obj 134 376 random 6;
#X obj 257 70 metro 15;
#X msg 71 336 0.3;
#X obj 84 312 sel 3;
#X msg 123 29 1;
#X obj 215 299 sel 7;
#X obj 163 449 s ldbdlyd;
#X connect 0 0 2 0;
#X connect 1 0 0 0;
#X connect 3 0 99 0;
#X connect 5 0 4 0;
#X connect 6 0 5 0;
#X connect 6 1 49 0;
#X connect 6 2 50 0;
#X connect 6 2 88 0;
#X connect 6 2 95 0;
#X connect 6 3 51 0;
#X connect 6 4 52 0;
#X connect 6 5 23 0;
#X connect 6 5 83 0;
#X connect 6 6 53 0;
#X connect 6 7 62 0;
#X connect 6 8 7 0;
#X connect 6 8 87 0;
#X connect 6 9 65 0;
#X connect 6 9 73 0;
#X connect 7 0 4 0;
#X connect 8 0 6 0;
#X connect 9 0 96 0;
#X connect 10 0 21 0;
#X connect 11 0 21 0;
#X connect 12 0 11 0;
#X connect 12 1 59 0;
#X connect 12 2 58 0;
#X connect 12 2 88 0;
#X connect 12 2 95 0;
#X connect 12 3 57 0;
#X connect 12 4 10 0;
#X connect 12 5 55 0;
#X connect 12 5 83 0;
#X connect 12 6 56 0;
#X connect 12 7 54 0;
#X connect 12 8 42 0;
#X connect 12 8 87 0;
#X connect 12 9 66 0;
#X connect 13 0 12 0;
#X connect 14 0 22 0;
#X connect 15 0 22 0;
#X connect 16 0 22 0;
#X connect 17 0 22 0;
#X connect 18 0 16 0;
#X connect 18 1 43 0;
#X connect 18 2 48 0;
#X connect 18 2 88 0;
#X connect 18 2 95 0;
#X connect 18 3 14 0;
#X connect 18 4 15 0;
#X connect 18 5 24 0;
#X connect 18 6 71 0;
#X connect 18 6 83 0;
#X connect 18 7 17 0;
#X connect 18 8 19 0;
#X connect 18 8 87 0;
#X connect 18 9 67 0;
#X connect 19 0 22 0;
#X connect 20 0 18 0;
#X connect 23 0 4 0;
#X connect 24 0 22 0;
#X connect 25 0 40 0;
#X connect 26 0 40 0;
#X connect 27 0 40 0;
#X connect 28 0 40 0;
#X connect 29 0 27 0;
#X connect 29 1 60 0;
#X connect 29 2 28 0;
#X connect 29 2 88 0;
#X connect 29 3 61 0;
#X connect 29 4 26 0;
#X connect 29 5 32 0;
#X connect 29 5 83 0;
#X connect 29 6 25 0;
#X connect 29 7 72 0;
#X connect 29 8 30 0;
#X connect 29 8 87 0;
#X connect 29 9 68 0;
#X connect 30 0 40 0;
#X connect 31 0 29 0;
#X connect 32 0 40 0;
#X connect 33 0 41 0;
#X connect 34 0 41 0;
#X connect 35 0 41 0;
#X connect 36 0 41 0;
#X connect 37 0 34 0;
#X connect 37 1 63 0;
#X connect 37 2 35 0;
#X connect 37 2 88 0;
#X connect 37 3 64 0;
#X connect 37 4 33 0;
#X connect 37 5 39 0;
#X connect 37 5 83 0;
#X connect 37 6 70 0;
#X connect 37 7 36 0;
#X connect 37 8 86 0;
#X connect 37 8 87 0;
#X connect 37 9 69 0;
#X connect 37 9 85 0;
#X connect 38 0 37 0;
#X connect 39 0 41 0;
#X connect 42 0 21 0;
#X connect 43 0 22 0;
#X connect 44 0 13 0;
#X connect 45 0 38 0;
#X connect 46 0 20 0;
#X connect 47 0 31 0;
#X connect 48 0 22 0;
#X connect 49 0 4 0;
#X connect 50 0 4 0;
#X connect 51 0 4 0;
#X connect 52 0 4 0;
#X connect 53 0 4 0;
#X connect 54 0 21 0;
#X connect 55 0 21 0;
#X connect 56 0 21 0;
#X connect 57 0 21 0;
#X connect 58 0 21 0;
#X connect 59 0 21 0;
#X connect 60 0 40 0;
#X connect 61 0 40 0;
#X connect 62 0 4 0;
#X connect 63 0 41 0;
#X connect 64 0 41 0;
#X connect 65 0 4 0;
#X connect 66 0 21 0;
#X connect 67 0 22 0;
#X connect 68 0 40 0;
#X connect 69 0 41 0;
#X connect 70 0 41 0;
#X connect 71 0 22 0;
#X connect 72 0 40 0;
#X connect 73 0 76 0;
#X connect 74 0 8 0;
#X connect 75 0 76 1;
#X connect 76 0 75 0;
#X connect 76 0 77 0;
#X connect 76 0 98 0;
#X connect 77 0 100 0;
#X connect 78 0 9 0;
#X connect 78 0 76 0;
#X connect 83 0 84 0;
#X connect 84 0 80 0;
#X connect 84 0 81 0;
#X connect 84 0 82 0;
#X connect 85 0 79 0;
#X connect 86 0 41 0;
#X connect 87 0 92 0;
#X connect 88 0 89 0;
#X connect 91 0 90 0;
#X connect 91 0 94 0;
#X connect 92 0 82 0;
#X connect 92 0 80 0;
#X connect 94 0 93 0;
#X connect 95 0 94 0;
#X connect 96 0 44 0;
#X connect 96 0 45 0;
#X connect 96 0 46 0;
#X connect 96 0 47 0;
#X connect 96 0 74 0;
#X connect 97 0 90 0;
#X connect 98 0 97 0;
#X connect 99 0 9 0;
#X connect 100 0 78 0;
#X connect 100 0 66 0;
#X connect 100 0 67 0;
#X connect 100 0 68 0;
#X connect 100 0 86 0;
#X connect 100 0 91 0;
#X connect 100 0 65 0;
#X connect 100 0 101 0;
#X coords 0 -1 1 1 15 15 2 100 100;
#X restore 353 176 pd tg+;
#X obj 611 7 sel 9;
#X msg 570 44 1;
#X msg 597 44 0;
#X obj 375 6 r knob1;
#X obj 425 7 r knob2;
#X obj 474 7 r knob3;
#X obj 522 7 r knob4;
#X obj 374 25 spigot;
#X obj 425 25 spigot;
#X obj 470 32 spigot;
#X obj 517 31 spigot;
#X obj 575 4 tgl 15 0 empty empty empty 17 7 0 10 -257985 -1 -1 0 1
;
#X msg 576 329 symbol Tempo:\$1;
#X obj 849 438 s screenLine3;
#X text 42 490 http://servando.teks.no;
#X text 52 500 http://servando.teks.no;
#X text 62 510 http://servando.teks.no;
#X text 72 520 http://servando.teks.no;
#X text 82 530 http://servando.teks.no;
#X text 92 540 http://servando.teks.no;
#X text 102 550 http://servando.teks.no;
#X obj 364 77 + 50;
#X obj 676 419 s screenLine4;
#X obj 428 47 / 3;
#X msg 771 381 symbol |...|...|...|;
#X obj 933 47 sel 0;
#X obj 813 20 t f f;
#X obj 185 288 s3efs;
#X obj 69 23 r hpsh;
#X obj 69 43 tgl 15 0 empty empty empty 17 7 0 10 -262144 -1 -1 0 1
;
#X text 3 7 hypershift!!!!!!!;
#X obj 700 21 f;
#X obj 844 252 delay 5;
#X obj 359 268 s linkraw;
#X obj 218 113 spigot;
#X obj 220 92 r shrc;
#X obj 995 134 tgl 15 0 empty empty empty 17 7 0 10 -257985 -1 -1 0
1;
#X text 588 8 metro;
#X msg 941 89 0, f 2;
#X msg 923 89 1, f 2;
#X text 963 115 master;
#X obj 881 157 spigot;
#X obj 881 139 spigot;
#X obj 831 122 t b;
#X msg 834 142 6;
#N canvas -191 185 1272 353 Chan/////////// 0;
#X obj 785 118 r aux;
#X obj 734 13 r notes;
#X obj 734 33 unpack;
#X obj 741 144 spigot;
#X obj 734 85 tgl 15 0 empty empty empty 17 7 0 10 -262144 -1 -1 0
1;
#X obj 739 107 sel 1;
#X obj 902 118 r aux;
#X obj 851 13 r notes;
#X obj 851 33 unpack;
#X obj 858 143 spigot;
#X obj 851 85 tgl 15 0 empty empty empty 17 7 0 10 -262144 -1 -1 0
1;
#X obj 856 107 sel 1;
#X obj 991 120 r aux;
#X obj 940 15 r notes;
#X obj 940 35 unpack;
#X obj 947 145 spigot;
#X obj 940 87 tgl 15 0 empty empty empty 17 7 0 10 -262144 -1 -1 0
1;
#X obj 945 109 sel 1;
#X obj 729 64 sel 72;
#X obj 845 62 sel 74;
#X obj 934 65 sel 76;
#X obj 1092 125 r aux;
#X obj 1041 20 r notes;
#X obj 1041 40 unpack;
#X obj 1048 150 spigot;
#X obj 1041 92 tgl 15 0 empty empty empty 17 7 0 10 -262144 -1 -1 0
1;
#X obj 1046 114 sel 1;
#X obj 1191 124 r aux;
#X obj 1140 19 r notes;
#X obj 1140 39 unpack;
#X obj 1147 150 spigot;
#X obj 1140 91 tgl 15 0 empty empty empty 17 7 0 10 -262144 -1 -1 0
1;
#X obj 1145 113 sel 1;
#X obj 1308 124 r aux;
#X obj 1257 19 r notes;
#X obj 1257 39 unpack;
#X obj 1264 149 spigot;
#X obj 1257 91 tgl 15 0 empty empty empty 17 7 0 10 -262144 -1 -1 0
1;
#X obj 1262 113 sel 1;
#X obj 1397 126 r aux;
#X obj 1346 21 r notes;
#X obj 1346 41 unpack;
#X obj 1353 151 spigot;
#X obj 1346 93 tgl 15 0 empty empty empty 17 7 0 10 -262144 -1 -1 0
1;
#X obj 1351 115 sel 1;
#X obj 1035 70 sel 77;
#X obj 1135 70 sel 79;
#X obj 1251 68 sel 81;
#X obj 1340 71 sel 83;
#X msg 746 169 1;
#X msg 864 171 2;
#X msg 950 168 3;
#X msg 1057 176 4;
#X msg 1152 175 5;
#X msg 1270 180 6;
#X msg 1358 174 7;
#X obj 671 176 r hpsh;
#X obj 1061 230 +;
#X obj 671 192 tgl 15 0 empty empty empty 17 7 0 10 -262144 -1 -1 0
1;
#X obj 671 208 * 7;
#X obj 1061 250 outlet;
#X connect 0 0 3 1;
#X connect 1 0 2 0;
#X connect 2 0 18 0;
#X connect 3 0 49 0;
#X connect 4 0 5 0;
#X connect 5 0 3 0;
#X connect 6 0 9 1;
#X connect 7 0 8 0;
#X connect 8 0 19 0;
#X connect 9 0 50 0;
#X connect 10 0 11 0;
#X connect 11 0 9 0;
#X connect 12 0 15 1;
#X connect 13 0 14 0;
#X connect 14 0 20 0;
#X connect 15 0 51 0;
#X connect 16 0 17 0;
#X connect 17 0 15 0;
#X connect 18 0 4 0;
#X connect 19 0 10 0;
#X connect 20 0 16 0;
#X connect 21 0 24 1;
#X connect 22 0 23 0;
#X connect 23 0 45 0;
#X connect 24 0 52 0;
#X connect 25 0 26 0;
#X connect 26 0 24 0;
#X connect 27 0 30 1;
#X connect 28 0 29 0;
#X connect 29 0 46 0;
#X connect 30 0 53 0;
#X connect 31 0 32 0;
#X connect 32 0 30 0;
#X connect 33 0 36 1;
#X connect 34 0 35 0;
#X connect 35 0 47 0;
#X connect 36 0 54 0;
#X connect 37 0 38 0;
#X connect 38 0 36 0;
#X connect 39 0 42 1;
#X connect 40 0 41 0;
#X connect 41 0 48 0;
#X connect 42 0 55 0;
#X connect 43 0 44 0;
#X connect 44 0 42 0;
#X connect 45 0 25 0;
#X connect 46 0 31 0;
#X connect 47 0 37 0;
#X connect 48 0 43 0;
#X connect 49 0 57 0;
#X connect 50 0 57 0;
#X connect 51 0 57 0;
#X connect 52 0 57 0;
#X connect 53 0 57 0;
#X connect 54 0 57 0;
#X connect 55 0 57 0;
#X connect 56 0 58 0;
#X connect 57 0 60 0;
#X connect 58 0 59 0;
#X connect 59 0 57 1;
#X restore 700 2 pd Chan///////////;
#X msg 572 246 symbol Start:\$1;
#X obj 797 171 sel 6 7 8;
#N canvas 4 50 1272 634 mODEMASTERNMUTE 0;
#X obj 14 246 s mt1;
#X obj 14 224 tgl 15 0 empty empty empty 17 7 0 10 -262144 -1 -1 1
1;
#X obj 53 224 tgl 15 0 empty empty empty 17 7 0 10 -262144 -1 -1 1
1;
#X obj 91 224 tgl 15 0 empty empty empty 17 7 0 10 -262144 -1 -1 1
1;
#X obj 168 225 tgl 15 0 empty empty empty 17 7 0 10 -262144 -1 -1 1
1;
#X obj 207 225 tgl 15 0 empty empty empty 17 7 0 10 -262144 -1 -1 1
1;
#X obj 245 225 tgl 15 0 empty empty empty 17 7 0 10 -262144 -1 -1 1
1;
#X obj 130 225 tgl 15 0 empty empty empty 17 7 0 10 -262144 -1 -1 1
1;
#X obj 27 37 r notes;
#X obj 19 130 unpack;
#X obj 17 191 spigot;
#X obj 57 192 spigot;
#X obj 99 192 spigot;
#X obj 175 193 spigot;
#X obj 214 191 spigot;
#X obj 255 192 spigot;
#X obj 135 192 spigot;
#X obj 53 246 s mt2;
#X obj 91 246 s mt3;
#X obj 130 247 s mt4;
#X obj 168 247 s mt5;
#X obj 207 247 s mt6;
#X obj 245 247 s mt7;
#X obj 19 153 stripnote;
#X msg 153 129 1;
#X msg 472 369 [\$1][\$2][\$3][\$4][\$5][\$6][\$7];
#X obj 45 299 t b;
#X obj 45 321 f;
#X obj 72 322 + 1;
#X msg 98 321 0, f 4;
#X obj 71 301 sel 4;
#X obj 59 341 sel 1 2 3 4;
#X obj 77 360 s meet16;
#X obj 77 414 s meet32;
#X obj 83 431 s meet8;
#X obj 83 378 s meet3;
#X obj 77 396 s meet33;
#X obj 35 86 spigot;
#X obj 69 69 tgl 15 0 empty empty empty 17 7 0 10 -262144 -1 -1 1 1
;
#X obj 224 25 r aux;
#X obj 224 45 sel 0;
#X msg 223 64 1, f 4;
#X msg 253 62 0, f 6;
#X obj 163 388 s screenLine1;
#X obj 163 408 s screenLine2;
#X obj 162 427 s screenLine3;
#X msg 163 368 symbol [Oo]_____O_0_____[oO];
#X obj 45 278 r met64;
#X obj 1031 292 r chen;
#X obj 1032 368 sel 0;
#X msg 1039 461 1, f 4;
#X msg 1039 479 0;
#X obj 1045 432 t b;
#X msg 1085 381 symbol *;
#X msg 1095 332 symbol .;
#X obj 1080 481 spigot;
#X obj 1111 273 sel 1;
#X obj 1081 171 t b;
#X msg 1038 489 bang;
#X msg 1089 417 symbol X, f 9;
#X obj 1082 352 f;
#X obj 1066 528 s screenLine4;
#X obj 1081 151 r seq8;
#X obj 28 614 tgl 15 0 empty empty empty 17 7 0 10 -262144 -1 -1 1
1;
#X obj 76 610 tgl 15 0 empty empty empty 17 7 0 10 -262144 -1 -1 1
1;
#X obj 114 610 tgl 15 0 empty empty empty 17 7 0 10 -262144 -1 -1 1
1;
#X obj 198 622 tgl 15 0 empty empty empty 17 7 0 10 -262144 -1 -1 1
1;
#X obj 157 615 tgl 15 0 empty empty empty 17 7 0 10 -262144 -1 -1 1
1;
#X obj 325 461 r chen;
#X obj 324 485 sel 0;
#X msg 331 529 1, f 4;
#X msg 304 529 0, f 6;
#X obj 14 414 unpack;
#X obj 10 537 spigot;
#X obj 50 538 spigot;
#X obj 92 538 spigot;
#X obj 168 539 spigot;
#X obj 128 538 spigot;
#X obj 14 437 stripnote;
#X msg 47 476 1;
#X obj 37 632 s mt8;
#X obj 76 631 s mt9;
#X obj 114 632 s mt10;
#X obj 152 634 s mt11;
#X obj 198 640 s mt12;
#X obj 1106 245 r mt8;
#X floatatom 78 110 5 0 0 0 - - -;
#X obj 25 519 sel 73;
#X obj 62 519 sel 75;
#X obj 99 519 sel 78;
#X obj 145 520 sel 80;
#X obj 185 492 sel 82;
#X obj 15 169 sel 72;
#X obj 52 169 sel 74;
#X obj 89 169 sel 76;
#X obj 135 169 sel 77;
#X obj 179 167 sel 79;
#X obj 230 167 sel 81;
#X obj 274 167 sel 83;
#X obj 1029 393 r met64;
#X obj 154 114 r ldb;
#X msg 1080 463 ..[\$1][\$2]..[\$3][\$4][\$5]..;
#X obj 1106 305 t b b;
#X obj 1085 224 spigot;
#X msg 1120 214 0;
#X msg 1119 220 1;
#X obj 1085 197 delay 88;
#X obj 1079 447 pack s s s s s, f 50;
#X obj 1043 318 t b b;
#X msg 1153 380 symbol *;
#X msg 1163 331 symbol .;
#X obj 1179 272 sel 1;
#X obj 1149 170 t b;
#X msg 1157 416 symbol X, f 9;
#X obj 1150 351 f;
#X obj 1174 304 t b b;
#X obj 1153 223 spigot;
#X msg 1188 213 0;
#X msg 1187 219 1;
#X obj 1153 196 delay 88;
#X obj 1149 150 r seq9;
#X obj 1174 244 r mt9;
#X msg 1221 380 symbol *;
#X msg 1231 331 symbol .;
#X obj 1247 272 sel 1;
#X obj 1217 170 t b;
#X msg 1225 416 symbol X, f 9;
#X obj 1218 351 f;
#X obj 1242 304 t b b;
#X obj 1221 223 spigot;
#X msg 1256 213 0;
#X msg 1255 219 1;
#X obj 1221 196 delay 88;
#X msg 1288 381 symbol *;
#X msg 1298 332 symbol .;
#X obj 1314 273 sel 1;
#X obj 1284 171 t b;
#X msg 1292 417 symbol X, f 9;
#X obj 1285 352 f;
#X obj 1309 305 t b b;
#X obj 1288 224 spigot;
#X msg 1323 214 0;
#X msg 1322 220 1;
#X obj 1288 197 delay 88;
#X msg 1356 381 symbol *;
#X msg 1364 332 symbol .;
#X obj 1382 273 sel 1;
#X obj 1352 171 t b;
#X msg 1360 417 symbol X, f 9;
#X obj 1372 360 f;
#X obj 1377 305 t b b;
#X obj 1356 224 spigot;
#X msg 1391 214 0;
#X msg 1390 220 1;
#X obj 1356 197 delay 88;
#X obj 1217 150 r seq10;
#X obj 1284 151 r seq11;
#X obj 1352 151 r seq12;
#X obj 1242 244 r mt10;
#X obj 1309 245 r mt11;
#X obj 1377 245 r mt12;
#X obj 105 456 r ldb;
#N canvas 4 50 1014 429 non/shif/hyper 0;
#X obj 372 93 r aux;
#X obj 381 271 tgl 15 0 empty empty empty 17 7 0 10 -262144 -1 -1 0
1;
#X obj 321 76 loadbang;
#X msg 321 132 1;
#X obj 469 191 r hpsh, f 12;
#X obj 446 271 tgl 15 0 empty empty empty 17 7 0 10 -262144 -1 -1 0
1;
#X obj 384 112 sel 1;
#X msg 383 136 0;
#X msg 407 136 1;
#X obj 333 269 tgl 15 0 empty empty empty 17 7 0 10 -262144 -1 -1 1
1;
#X obj 428 220 sel 1;
#X msg 422 238 0;
#X obj 331 297 outlet;
#X obj 381 302 outlet;
#X obj 446 306 outlet;
#X connect 0 0 1 0;
#X connect 0 0 6 0;
#X connect 1 0 13 0;
#X connect 2 0 3 0;
#X connect 3 0 9 0;
#X connect 4 0 5 0;
#X connect 4 0 10 0;
#X connect 5 0 14 0;
#X connect 6 0 7 0;
#X connect 6 1 8 0;
#X connect 7 0 9 0;
#X connect 8 0 9 0;
#X connect 9 0 12 0;
#X connect 10 0 11 0;
#X connect 11 0 1 0;
#X restore 392 533 pd non/shif/hyper;
#X obj 394 564 tgl 15 0 empty empty empty 17 7 0 10 -262144 -1 -1 1
1;
#X obj 447 558 tgl 15 0 empty empty empty 17 7 0 10 -262144 -1 -1 0
1;
#X obj 478 565 tgl 15 0 empty empty empty 17 7 0 10 -262144 -1 -1 0
1;
#X obj 13 559 spigot;
#X obj 52 561 spigot;
#X obj 94 559 spigot;
#X obj 170 560 spigot;
#X obj 130 559 spigot;
#X obj 318 96 r chen;
#X obj 328 124 sel 0;
#X msg 324 161 1, f 4;
#X msg 351 161 0;
#X obj 428 302 t b;
#X msg 468 251 symbol *;
#X msg 478 202 symbol .;
#X obj 462 399 spigot;
#X obj 494 143 sel 1;
#X obj 464 41 t b;
#X msg 420 384 bang;
#X msg 472 287 symbol X, f 9;
#X obj 465 222 f;
#X obj 370 277 r met64;
#X obj 489 175 t b b;
#X obj 468 94 spigot;
#X msg 503 84 0;
#X msg 502 90 1;
#X obj 468 67 delay 88;
#X obj 415 185 t b b;
#X msg 536 250 symbol *;
#X msg 546 201 symbol .;
#X obj 562 142 sel 1;
#X obj 532 40 t b;
#X msg 540 286 symbol X, f 9;
#X obj 533 221 f;
#X obj 557 174 t b b;
#X obj 536 93 spigot;
#X msg 571 83 0;
#X msg 570 89 1;
#X obj 536 66 delay 88;
#X msg 604 250 symbol *;
#X msg 614 201 symbol .;
#X obj 630 142 sel 1;
#X obj 600 40 t b;
#X msg 608 286 symbol X, f 9;
#X obj 601 221 f;
#X obj 625 174 t b b;
#X obj 604 93 spigot;
#X msg 639 83 0;
#X msg 638 89 1;
#X obj 604 66 delay 88;
#X msg 671 251 symbol *;
#X msg 681 202 symbol .;
#X obj 697 143 sel 1;
#X obj 667 41 t b;
#X msg 675 287 symbol X, f 9;
#X obj 668 222 f;
#X obj 692 175 t b b;
#X obj 671 94 spigot;
#X msg 706 84 0;
#X msg 705 90 1;
#X obj 671 67 delay 88;
#X msg 739 251 symbol *;
#X msg 747 202 symbol .;
#X obj 765 143 sel 1;
#X obj 735 41 t b;
#X msg 743 287 symbol X, f 9;
#X obj 755 230 f;
#X obj 760 175 t b b;
#X obj 739 94 spigot;
#X msg 774 84 0;
#X msg 773 90 1;
#X obj 739 67 delay 88;
#X obj 453 432 s screenLine5;
#X obj 462 317 pack s s s s s s s, f 69;
#X msg 810 252 symbol *;
#X msg 820 203 symbol .;
#X obj 841 142 sel 1;
#X obj 811 40 t b;
#X msg 814 288 symbol X, f 9;
#X obj 812 221 f;
#X obj 836 174 t b b;
#X obj 815 93 spigot;
#X msg 850 83 0;
#X msg 849 89 1;
#X obj 815 66 delay 88;
#X msg 883 250 symbol *;
#X msg 891 201 symbol .;
#X obj 909 142 sel 1;
#X obj 879 40 t b;
#X msg 887 286 symbol X, f 9;
#X obj 890 225 f;
#X obj 904 174 t b b;
#X obj 883 93 spigot;
#X msg 918 83 0;
#X msg 917 89 1;
#X obj 883 66 delay 88;
#X obj 464 21 r seq1;
#X obj 534 18 r seq2;
#X obj 600 20 r seq3;
#X obj 666 19 r seq4;
#X obj 735 21 r seq5;
#X obj 811 20 r seq6;
#X obj 879 20 r seq7;
#X obj 489 115 r mt1;
#X obj 557 114 r mt2;
#X obj 626 114 r mt3;
#X obj 692 115 r mt4;
#X obj 760 115 r mt5;
#X obj 836 114 r mt6;
#X obj 904 114 r mt7;
#X obj 283 109 tgl 15 0 empty empty empty 17 7 0 10 -262144 -1 -1 0
1;
#X connect 1 0 0 0;
#X connect 2 0 17 0;
#X connect 3 0 18 0;
#X connect 4 0 20 0;
#X connect 5 0 21 0;
#X connect 6 0 22 0;
#X connect 7 0 19 0;
#X connect 8 0 37 0;
#X connect 9 0 23 0;
#X connect 9 1 23 1;
#X connect 10 0 1 0;
#X connect 11 0 2 0;
#X connect 12 0 3 0;
#X connect 13 0 4 0;
#X connect 14 0 5 0;
#X connect 15 0 6 0;
#X connect 16 0 7 0;
#X connect 23 0 92 0;
#X connect 23 0 93 0;
#X connect 23 0 94 0;
#X connect 23 0 95 0;
#X connect 23 0 96 0;
#X connect 23 0 97 0;
#X connect 23 0 98 0;
#X connect 24 0 1 0;
#X connect 24 0 2 0;
#X connect 24 0 3 0;
#X connect 24 0 7 0;
#X connect 24 0 4 0;
#X connect 24 0 5 0;
#X connect 24 0 6 0;
#X connect 25 0 178 0;
#X connect 26 0 27 0;
#X connect 27 0 28 0;
#X connect 27 0 30 0;
#X connect 27 0 31 0;
#X connect 28 0 27 1;
#X connect 29 0 27 0;
#X connect 30 0 29 0;
#X connect 31 0 32 0;
#X connect 31 0 33 0;
#X connect 31 0 34 0;
#X connect 31 0 35 0;
#X connect 31 0 36 0;
#X connect 31 1 33 0;
#X connect 31 1 35 0;
#X connect 31 1 36 0;
#X connect 31 2 32 0;
#X connect 31 2 33 0;
#X connect 31 2 36 0;
#X connect 31 3 33 0;
#X connect 37 0 9 0;
#X connect 37 0 72 0;
#X connect 37 0 86 0;
#X connect 38 0 37 1;
#X connect 39 0 40 0;
#X connect 40 0 41 0;
#X connect 40 1 42 0;
#X connect 41 0 38 0;
#X connect 42 0 38 0;
#X connect 46 0 43 0;
#X connect 47 0 26 0;
#X connect 48 0 49 0;
#X connect 49 0 50 0;
#X connect 49 0 58 0;
#X connect 49 0 52 0;
#X connect 49 0 108 0;
#X connect 49 1 51 0;
#X connect 50 0 55 1;
#X connect 51 0 55 1;
#X connect 52 0 107 0;
#X connect 53 0 107 0;
#X connect 54 0 107 0;
#X connect 55 0 61 0;
#X connect 56 0 105 0;
#X connect 56 0 54 0;
#X connect 56 1 102 0;
#X connect 57 0 53 0;
#X connect 57 0 106 0;
#X connect 58 0 61 0;
#X connect 59 0 107 0;
#X connect 60 0 56 0;
#X connect 62 0 57 0;
#X connect 63 0 80 0;
#X connect 64 0 81 0;
#X connect 65 0 82 0;
#X connect 66 0 84 0;
#X connect 67 0 83 0;
#X connect 68 0 69 0;
#X connect 69 0 70 0;
#X connect 69 1 71 0;
#X connect 70 0 73 1;
#X connect 70 0 74 1;
#X connect 70 0 75 1;
#X connect 70 0 76 1;
#X connect 70 0 77 1;
#X connect 71 0 74 1;
#X connect 71 0 73 1;
#X connect 71 0 75 1;
#X connect 71 0 76 1;
#X connect 71 0 77 1;
#X connect 72 0 78 0;
#X connect 72 1 78 1;
#X connect 73 0 166 0;
#X connect 74 0 167 0;
#X connect 75 0 168 0;
#X connect 76 0 169 0;
#X connect 77 0 170 0;
#X connect 78 0 87 0;
#X connect 78 0 88 0;
#X connect 78 0 89 0;
#X connect 78 0 90 0;
#X connect 78 0 91 0;
#X connect 79 0 63 0;
#X connect 79 0 64 0;
#X connect 79 0 65 0;
#X connect 79 0 67 0;
#X connect 79 0 66 0;
#X connect 85 0 56 0;
#X connect 85 0 52 0;
#X connect 85 0 60 0;
#X connect 87 0 73 0;
#X connect 88 0 74 0;
#X connect 89 0 75 0;
#X connect 90 0 77 0;
#X connect 91 0 76 0;
#X connect 92 0 10 0;
#X connect 93 0 11 0;
#X connect 94 0 12 0;
#X connect 95 0 16 0;
#X connect 96 0 13 0;
#X connect 97 0 14 0;
#X connect 98 0 15 0;
#X connect 99 0 52 0;
#X connect 100 0 24 0;
#X connect 101 0 55 0;
#X connect 102 0 59 0;
#X connect 102 1 104 0;
#X connect 103 0 54 0;
#X connect 104 0 103 1;
#X connect 105 0 103 1;
#X connect 106 0 103 0;
#X connect 107 0 101 0;
#X connect 108 0 60 0;
#X connect 108 0 114 0;
#X connect 108 0 127 0;
#X connect 108 0 138 0;
#X connect 108 0 149 0;
#X connect 108 1 54 0;
#X connect 108 1 110 0;
#X connect 108 1 123 0;
#X connect 108 1 134 0;
#X connect 108 1 145 0;
#X connect 109 0 107 1;
#X connect 110 0 107 1;
#X connect 111 0 118 0;
#X connect 111 0 110 0;
#X connect 111 1 115 0;
#X connect 112 0 109 0;
#X connect 112 0 119 0;
#X connect 113 0 107 1;
#X connect 114 0 111 0;
#X connect 115 0 113 0;
#X connect 115 1 117 0;
#X connect 116 0 110 0;
#X connect 117 0 116 1;
#X connect 118 0 116 1;
#X connect 119 0 116 0;
#X connect 120 0 112 0;
#X connect 121 0 111 0;
#X connect 121 0 114 0;
#X connect 122 0 107 2;
#X connect 123 0 107 2;
#X connect 124 0 131 0;
#X connect 124 0 123 0;
#X connect 124 1 128 0;
#X connect 125 0 122 0;
#X connect 125 0 132 0;
#X connect 126 0 107 2;
#X connect 127 0 124 0;
#X connect 128 0 126 0;
#X connect 128 1 130 0;
#X connect 129 0 123 0;
#X connect 130 0 129 1;
#X connect 131 0 129 1;
#X connect 132 0 129 0;
#X connect 133 0 107 3;
#X connect 134 0 107 3;
#X connect 135 0 142 0;
#X connect 135 0 134 0;
#X connect 135 1 139 0;
#X connect 136 0 133 0;
#X connect 136 0 143 0;
#X connect 137 0 107 3;
#X connect 138 0 135 0;
#X connect 139 0 137 0;
#X connect 139 1 141 0;
#X connect 140 0 134 0;
#X connect 141 0 140 1;
#X connect 142 0 140 1;
#X connect 143 0 140 0;
#X connect 144 0 107 4;
#X connect 145 0 107 4;
#X connect 146 0 153 0;
#X connect 146 0 145 0;
#X connect 146 1 150 0;
#X connect 147 0 144 0;
#X connect 147 0 154 0;
#X connect 148 0 107 4;
#X connect 149 0 146 0;
#X connect 150 0 148 0;
#X connect 150 1 152 0;
#X connect 151 0 145 0;
#X connect 152 0 151 1;
#X connect 153 0 151 1;
#X connect 154 0 151 0;
#X connect 155 0 125 0;
#X connect 156 0 136 0;
#X connect 157 0 147 0;
#X connect 158 0 124 0;
#X connect 158 0 127 0;
#X connect 159 0 135 0;
#X connect 159 0 138 0;
#X connect 160 0 146 0;
#X connect 160 0 149 0;
#X connect 161 0 79 0;
#X connect 162 0 163 0;
#X connect 162 1 164 0;
#X connect 162 2 165 0;
#X connect 163 0 169 1;
#X connect 163 0 170 1;
#X connect 163 0 168 1;
#X connect 163 0 167 1;
#X connect 163 0 166 1;
#X connect 166 0 63 0;
#X connect 167 0 64 0;
#X connect 168 0 65 0;
#X connect 169 0 66 0;
#X connect 170 0 67 0;
#X connect 171 0 172 0;
#X connect 172 0 173 0;
#X connect 172 0 181 0;
#X connect 172 0 175 0;
#X connect 172 0 190 0;
#X connect 172 1 174 0;
#X connect 173 0 178 1;
#X connect 173 0 273 0;
#X connect 174 0 178 1;
#X connect 174 0 273 0;
#X connect 175 0 236 0;
#X connect 176 0 236 0;
#X connect 177 0 236 0;
#X connect 178 0 235 0;
#X connect 179 0 188 0;
#X connect 179 0 177 0;
#X connect 179 1 185 0;
#X connect 180 0 176 0;
#X connect 180 0 189 0;
#X connect 181 0 235 0;
#X connect 182 0 236 0;
#X connect 183 0 179 0;
#X connect 184 0 175 0;
#X connect 185 0 182 0;
#X connect 185 1 187 0;
#X connect 186 0 177 0;
#X connect 187 0 186 1;
#X connect 188 0 186 1;
#X connect 189 0 186 0;
#X connect 190 0 183 0;
#X connect 190 0 196 0;
#X connect 190 0 207 0;
#X connect 190 0 218 0;
#X connect 190 0 229 0;
#X connect 190 0 242 0;
#X connect 190 0 253 0;
#X connect 190 1 177 0;
#X connect 190 1 192 0;
#X connect 190 1 203 0;
#X connect 190 1 214 0;
#X connect 190 1 225 0;
#X connect 190 1 238 0;
#X connect 190 1 249 0;
#X connect 191 0 236 1;
#X connect 192 0 236 1;
#X connect 193 0 200 0;
#X connect 193 0 192 0;
#X connect 193 1 197 0;
#X connect 194 0 191 0;
#X connect 194 0 201 0;
#X connect 195 0 236 1;
#X connect 196 0 193 0;
#X connect 197 0 195 0;
#X connect 197 1 199 0;
#X connect 198 0 192 0;
#X connect 199 0 198 1;
#X connect 200 0 198 1;
#X connect 201 0 198 0;
#X connect 202 0 236 2;
#X connect 203 0 236 2;
#X connect 204 0 211 0;
#X connect 204 0 203 0;
#X connect 204 1 208 0;
#X connect 205 0 202 0;
#X connect 205 0 212 0;
#X connect 206 0 236 2;
#X connect 207 0 204 0;
#X connect 208 0 206 0;
#X connect 208 1 210 0;
#X connect 209 0 203 0;
#X connect 210 0 209 1;
#X connect 211 0 209 1;
#X connect 212 0 209 0;
#X connect 213 0 236 3;
#X connect 214 0 236 3;
#X connect 215 0 222 0;
#X connect 215 0 214 0;
#X connect 215 1 219 0;
#X connect 216 0 213 0;
#X connect 216 0 223 0;
#X connect 217 0 236 3;
#X connect 218 0 215 0;
#X connect 219 0 217 0;
#X connect 219 1 221 0;
#X connect 220 0 214 0;
#X connect 221 0 220 1;
#X connect 222 0 220 1;
#X connect 223 0 220 0;
#X connect 224 0 236 4;
#X connect 225 0 236 4;
#X connect 226 0 233 0;
#X connect 226 0 225 0;
#X connect 226 1 230 0;
#X connect 227 0 224 0;
#X connect 227 0 234 0;
#X connect 228 0 236 4;
#X connect 229 0 226 0;
#X connect 230 0 228 0;
#X connect 230 1 232 0;
#X connect 231 0 225 0;
#X connect 232 0 231 1;
#X connect 233 0 231 1;
#X connect 234 0 231 0;
#X connect 236 0 25 0;
#X connect 237 0 236 5;
#X connect 238 0 236 5;
#X connect 239 0 246 0;
#X connect 239 0 238 0;
#X connect 239 1 243 0;
#X connect 240 0 237 0;
#X connect 240 0 247 0;
#X connect 241 0 236 5;
#X connect 242 0 239 0;
#X connect 243 0 241 0;
#X connect 243 1 245 0;
#X connect 244 0 238 0;
#X connect 245 0 244 1;
#X connect 246 0 244 1;
#X connect 247 0 244 0;
#X connect 248 0 236 6;
#X connect 249 0 236 6;
#X connect 250 0 257 0;
#X connect 250 0 249 0;
#X connect 250 1 254 0;
#X connect 251 0 248 0;
#X connect 251 0 258 0;
#X connect 252 0 236 6;
#X connect 253 0 250 0;
#X connect 254 0 252 0;
#X connect 254 1 256 0;
#X connect 255 0 249 0;
#X connect 256 0 255 1;
#X connect 257 0 255 1;
#X connect 258 0 255 0;
#X connect 259 0 180 0;
#X connect 260 0 194 0;
#X connect 261 0 205 0;
#X connect 262 0 216 0;
#X connect 263 0 227 0;
#X connect 264 0 240 0;
#X connect 265 0 251 0;
#X connect 266 0 179 0;
#X connect 266 0 175 0;
#X connect 266 0 183 0;
#X connect 267 0 193 0;
#X connect 267 0 196 0;
#X connect 268 0 204 0;
#X connect 268 0 207 0;
#X connect 269 0 215 0;
#X connect 269 0 218 0;
#X connect 270 0 226 0;
#X connect 270 0 229 0;
#X connect 271 0 239 0;
#X connect 271 0 242 0;
#X connect 272 0 250 0;
#X connect 272 0 253 0;
#X connect 273 0 15 1;
#X connect 273 0 16 1;
#X connect 273 0 14 1;
#X connect 273 0 13 1;
#X connect 273 0 12 1;
#X connect 273 0 11 1;
#X connect 273 0 10 1;
#X restore 464 462 pd mODEMASTERNMUTE;
#X f 42;
#X msg 872 94 0, f 2;
#X obj 864 42 t b;
#X obj 849 21 sel 0 9;
#X msg 857 418 symbol **Metro**;
#X msg 1012 325 symbol **Master**;
#N canvas 396 96 445 444 clicktrack 0;
#X obj 169 69 inlet, f 7;
#X obj 179 96 sel 1;
#X msg 266 133 0;
#X obj 63 51 r met64;
#X obj 62 93 sel 1 5 9 13;
#X obj 356 133 switch~;
#X msg 296 116 1;
#X obj 205 377 outlet~;
#X obj 64 290 *~;
#X obj 64 150 mtof;
#X obj 134 219 t b;
#X msg 117 274 0;
#X msg 62 112 91;
#X msg 96 114 85;
#X floatatom 247 181 5 0 0 0 - - -;
#X floatatom 91 231 5 0 0 0 - - -;
#X obj 200 304 *~, f 4;
#X obj 123 250 delay 15;
#X msg 97 253 1.2;
#X obj 62 71 + 1;
#X obj 64 185 blsquare~ 30;
#X obj 169 123 moses 0.2;
#X obj 220 266 - 0.2;
#X obj 221 337 *~ 0.03;
#X connect 0 0 1 0;
#X connect 0 0 21 0;
#X connect 1 0 6 0;
#X connect 2 0 5 0;
#X connect 3 0 19 0;
#X connect 4 0 12 0;
#X connect 4 1 13 0;
#X connect 4 2 13 0;
#X connect 4 3 13 0;
#X connect 6 0 5 0;
#X connect 8 0 16 0;
#X connect 9 0 20 0;
#X connect 10 0 18 0;
#X connect 10 0 17 0;
#X connect 11 0 8 1;
#X connect 12 0 9 0;
#X connect 12 0 10 0;
#X connect 13 0 9 0;
#X connect 13 0 10 0;
#X connect 16 0 23 0;
#X connect 17 0 11 0;
#X connect 18 0 8 1;
#X connect 19 0 4 0;
#X connect 20 0 8 0;
#X connect 21 0 2 0;
#X connect 21 1 14 0;
#X connect 21 1 22 0;
#X connect 22 0 15 0;
#X connect 22 0 16 1;
#X connect 23 0 7 0;
#X restore 358 442 pd clicktrack;
#X obj 690 296 spigot;
#X obj 689 316 spigot;
#X obj 287 107 loadbang, f 15;
#X obj 987 10 r notes;
#X obj 988 58 unpack f f;
#X obj 987 41 spigot;
#X obj 1029 27 tgl 15 0 empty empty empty 17 7 0 10 -262144 -1 -1 0
1;
#X msg 1008 94 1, f 4;
#X msg 1051 11 0;
#X obj 989 75 t b b b;
#N canvas 161 157 1050 363 chen///////////// 0;
#X obj 581 120 r aux;
#X obj 769 3 r notes;
#X obj 703 17 unpack;
#X obj 538 145 spigot;
#X obj 530 87 tgl 15 0 empty empty empty 17 7 0 10 -262144 -1 -1 0
1;
#X obj 535 109 sel 1;
#X obj 524 65 sel 73;
#X obj 686 119 r aux;
#X obj 642 144 spigot;
#X obj 635 86 tgl 15 0 empty empty empty 17 7 0 10 -262144 -1 -1 0
1;
#X obj 640 108 sel 1;
#X obj 785 118 r aux;
#X obj 741 144 spigot;
#X obj 734 85 tgl 15 0 empty empty empty 17 7 0 10 -262144 -1 -1 0
1;
#X obj 739 107 sel 1;
#X obj 902 118 r aux;
#X obj 858 143 spigot;
#X obj 851 85 tgl 15 0 empty empty empty 17 7 0 10 -262144 -1 -1 0
1;
#X obj 856 107 sel 1;
#X obj 991 120 r aux;
#X obj 947 145 spigot;
#X obj 940 87 tgl 15 0 empty empty empty 17 7 0 10 -262144 -1 -1 0
1;
#X obj 945 109 sel 1;
#X obj 629 64 sel 75;
#X obj 729 64 sel 78;
#X obj 845 62 sel 80;
#X obj 934 65 sel 82;
#X msg 542 174 6;
#X msg 651 170 7;
#X msg 746 169 8;
#X msg 864 171 9;
#X msg 950 168 0;
#X obj 590 337 outlet;
#X obj 57 117 r aux;
#X obj 19 135 spigot;
#X obj 16 80 tgl 15 0 empty empty empty 17 7 0 10 -262144 -1 -1 0 1
;
#X obj 16 99 sel 1;
#X obj 16 61 sel 61;
#X msg 18 154 bang;
#X obj 12 186 s shrc;
#X obj 131 119 r aux;
#X obj 93 137 spigot;
#X obj 90 82 tgl 15 0 empty empty empty 17 7 0 10 -262144 -1 -1 0 1
;
#X obj 90 101 sel 1;
#X msg 92 156 bang;
#X obj 90 63 sel 70;
#X obj 86 188 s flus;
#X obj 452 182 r hpsh;
#X obj 452 202 tgl 15 0 empty empty empty 17 7 0 10 -262144 -1 -1 0
1;
#X obj 468 217 * 10;
#X floatatom 468 244 5 0 0 0 - - -;
#X obj 629 283 +;
#X floatatom 649 321 5 0 0 0 - - -;
#X connect 0 0 3 1;
#X connect 1 0 2 0;
#X connect 2 0 6 0;
#X connect 2 0 23 0;
#X connect 2 0 24 0;
#X connect 2 0 25 0;
#X connect 2 0 26 0;
#X connect 2 0 37 0;
#X connect 2 0 45 0;
#X connect 3 0 27 0;
#X connect 4 0 5 0;
#X connect 5 0 3 0;
#X connect 6 0 4 0;
#X connect 7 0 8 1;
#X connect 8 0 28 0;
#X connect 9 0 10 0;
#X connect 10 0 8 0;
#X connect 11 0 12 1;
#X connect 12 0 29 0;
#X connect 13 0 14 0;
#X connect 14 0 12 0;
#X connect 15 0 16 1;
#X connect 16 0 30 0;
#X connect 17 0 18 0;
#X connect 18 0 16 0;
#X connect 19 0 20 1;
#X connect 20 0 31 0;
#X connect 21 0 22 0;
#X connect 22 0 20 0;
#X connect 23 0 9 0;
#X connect 24 0 13 0;
#X connect 25 0 17 0;
#X connect 26 0 21 0;
#X connect 27 0 51 0;
#X connect 28 0 51 0;
#X connect 29 0 51 0;
#X connect 30 0 51 0;
#X connect 31 0 51 0;
#X connect 33 0 34 1;
#X connect 34 0 38 0;
#X connect 35 0 36 0;
#X connect 36 0 34 0;
#X connect 37 0 35 0;
#X connect 38 0 39 0;
#X connect 40 0 41 1;
#X connect 41 0 44 0;
#X connect 42 0 43 0;
#X connect 43 0 41 0;
#X connect 44 0 46 0;
#X connect 45 0 42 0;
#X connect 47 0 48 0;
#X connect 48 0 49 0;
#X connect 49 0 50 0;
#X connect 49 0 51 1;
#X connect 51 0 32 0;
#X connect 51 0 52 0;
#X restore 813 2 pd chen/////////////;
#X obj 577 67 r ldbdlyd;
#X obj 561 87 delay 133;
#X obj 268 58 s flush, f 14;
#X obj 266 21 spigot;
#X obj 266 3 r flus;
#X obj 971 356 delay 999;
#X obj 886 305 delay 222;
#X msg 765 286 bang;
#X msg 811 286 bang, f 9;
#N canvas 368 384 450 300 d#clicker 0;
#X obj 208 177 inlet;
#X obj 141 230 outlet;
#X obj 161 197 spigot;
#X obj 132 36 r notes;
#X obj 132 57 unpack;
#X obj 132 78 sel 63;
#X obj 196 118 r aux;
#X obj 132 128 spigot;
#X obj 133 104 tgl 15 0 empty empty empty 17 7 0 10 -262144 -1 -1 0
1;
#X obj 143 149 sel 1;
#X connect 0 0 2 1;
#X connect 2 0 1 0;
#X connect 3 0 4 0;
#X connect 4 0 5 0;
#X connect 5 0 8 0;
#X connect 6 0 7 1;
#X connect 7 0 9 0;
#X connect 8 0 7 0;
#X connect 9 0 2 0;
#X restore 370 420 pd d#clicker;
#X obj 352 422 tgl 15 0 empty empty empty 17 7 0 10 -262144 -1 -1 0
1;
#X msg 595 386 symbol Swing:\$1;
#X obj 592 364 int;
#X obj 374 46 * 166;
#X obj 1084 69 sel 10;
#X obj 1082 130 tgl 15 0 empty empty empty 17 7 0 10 -257985 -1 -1
0 1;
#X msg 1100 112 0, f 2;
#X msg 1082 112 1, f 2;
#N canvas 590 274 613 373 modefx 0;
#X obj 257 17 inlet;
#X obj 257 36 tgl 15 0 empty empty empty 17 7 0 10 -257985 -1 -1 0
1;
#X obj 58 31 r knob1;
#X obj 108 32 r knob2;
#X obj 157 32 r knob3;
#X obj 205 32 r knob4;
#X obj 58 48 spigot;
#X obj 97 48 spigot;
#X obj 138 48 spigot;
#X obj 179 48 spigot;
#X obj 270 92 sel 1;
#X obj 58 157 spigot;
#X msg 268 108 1;
#X msg 284 108 0;
#X obj 238 100 tgl 15 0 empty empty empty 17 7 0 10 -262144 -1 -1 0
1;
#X obj 316 66 spigot;
#X obj 469 161 s screenLine1;
#X obj 467 242 s screenLine5;
#X obj 468 181 s screenLine2;
#X obj 465 203 s screenLine3;
#X obj 467 221 s screenLine4;
#X msg 469 140 . . . . . . . . . . .;
#X obj 115 166 spigot;
#X msg 318 108 1;
#X msg 334 108 0;
#X obj 348 142 tgl 15 0 empty empty empty 17 7 0 10 -262144 -1 -1 0
1;
#X obj 320 92 sel 2;
#X obj 170 163 spigot;
#X msg 364 108 1;
#X msg 380 108 0;
#X obj 374 136 tgl 15 0 empty empty empty 17 7 0 10 -262144 -1 -1 0
1;
#X obj 366 92 sel 3;
#X msg 417 108 1;
#X msg 433 108 0;
#X obj 424 134 tgl 15 0 empty empty empty 17 7 0 10 -262144 -1 -1 0
1;
#X obj 419 92 sel 4;
#X msg 494 96 Del1 Rev Del2 Pitch;
#X obj 422 35 sel 1;
#X msg 389 183 Edit Delay 1;
#X msg 389 201 Edit Reverb;
#X msg 389 220 Edit Delay 2;
#X msg 389 238 Edit Chorus;
#N canvas 150 212 1050 363 ## 0;
#X obj 769 3 r notes;
#X obj 703 17 unpack;
#X obj 530 272 outlet;
#X obj 409 112 tgl 15 0 empty empty empty 17 7 0 10 -262144 -1 -1 0
1;
#X obj 409 131 sel 1;
#X obj 483 114 tgl 15 0 empty empty empty 17 7 0 10 -262144 -1 -1 0
1;
#X obj 487 135 sel 1;
#X obj 484 51 sel 61 63 66 68 70;
#X obj 558 114 tgl 15 0 empty empty empty 17 7 0 10 -262144 -1 -1 0
1;
#X obj 558 133 sel 1;
#X obj 632 116 tgl 15 0 empty empty empty 17 7 0 10 -262144 -1 -1 0
1;
#X obj 632 135 sel 1;
#X obj 820 136 r aux;
#X obj 710 115 tgl 15 0 empty empty empty 17 7 0 10 -262144 -1 -1 0
1;
#X obj 713 134 sel 1;
#X msg 438 179 1, f 5;
#X msg 500 172 2, f 5;
#X msg 560 183 3, f 5;
#X msg 620 186 4, f 5;
#X msg 707 185 5, f 5;
#X connect 0 0 1 0;
#X connect 1 0 7 0;
#X connect 3 0 4 0;
#X connect 4 0 15 0;
#X connect 5 0 6 0;
#X connect 6 0 16 0;
#X connect 7 0 3 0;
#X connect 7 1 5 0;
#X connect 7 2 8 0;
#X connect 7 3 10 0;
#X connect 7 4 13 0;
#X connect 8 0 9 0;
#X connect 9 0 17 0;
#X connect 10 0 11 0;
#X connect 11 0 18 0;
#X connect 13 0 14 0;
#X connect 14 0 19 0;
#X connect 15 0 2 0;
#X connect 16 0 2 0;
#X connect 17 0 2 0;
#X connect 18 0 2 0;
#X connect 19 0 2 0;
#X restore 316 12 pd ## Octv=1 (Noshif);
#X f 27;
#X obj 59 197 spigot;
#X obj 60 278 spigot;
#X obj 59 237 spigot;
#X obj 59 177 s pfx11, f 8;
#X obj 59 217 s pfx12, f 8;
#X obj 59 257 s pfx13, f 8;
#X obj 58 298 s pfx14, f 8;
#X obj 114 185 s pfx21, f 8;
#X obj 115 205 spigot;
#X obj 114 242 spigot;
#X obj 114 281 spigot;
#X obj 114 224 s pfx22, f 8;
#X obj 113 261 s pfx23, f 8;
#X obj 113 299 s pfx24, f 8;
#X obj 170 202 spigot;
#X obj 168 182 s pfx31, f 8;
#X obj 168 221 s pfx32, f 8;
#X obj 171 242 spigot;
#X obj 171 281 spigot;
#X obj 169 261 s pfx33, f 8;
#X obj 169 300 s pfx34, f 8;
#X obj 226 163 spigot;
#X obj 226 202 spigot;
#X obj 227 242 spigot;
#X obj 227 281 spigot;
#X obj 224 182 s pfx41, f 8;
#X obj 224 221 s pfx42, f 8;
#X obj 224 262 s pfx43, f 8;
#X obj 225 300 s pfx44, f 8;
#X msg 469 120 . . . . FX. . . . . .;
#X obj 471 72 delay 666;
#X connect 0 0 1 0;
#X connect 1 0 9 1;
#X connect 1 0 8 1;
#X connect 1 0 7 1;
#X connect 1 0 6 1;
#X connect 1 0 15 1;
#X connect 1 0 37 0;
#X connect 2 0 6 0;
#X connect 3 0 7 0;
#X connect 4 0 8 0;
#X connect 5 0 9 0;
#X connect 6 0 11 0;
#X connect 6 0 22 0;
#X connect 6 0 27 0;
#X connect 6 0 64 0;
#X connect 7 0 43 0;
#X connect 7 0 51 0;
#X connect 7 0 57 0;
#X connect 7 0 65 0;
#X connect 8 0 45 0;
#X connect 8 0 52 0;
#X connect 8 0 60 0;
#X connect 8 0 66 0;
#X connect 9 0 44 0;
#X connect 9 0 53 0;
#X connect 9 0 61 0;
#X connect 9 0 67 0;
#X connect 10 0 12 0;
#X connect 10 0 38 0;
#X connect 10 1 13 0;
#X connect 11 0 46 0;
#X connect 12 0 11 1;
#X connect 12 0 14 0;
#X connect 12 0 43 1;
#X connect 12 0 45 1;
#X connect 12 0 44 1;
#X connect 13 0 11 1;
#X connect 13 0 14 0;
#X connect 13 0 43 1;
#X connect 13 0 45 1;
#X connect 13 0 44 1;
#X connect 15 0 10 0;
#X connect 15 0 26 0;
#X connect 15 0 31 0;
#X connect 15 0 35 0;
#X connect 21 0 17 0;
#X connect 21 0 20 0;
#X connect 21 0 19 0;
#X connect 21 0 18 0;
#X connect 22 0 50 0;
#X connect 23 0 22 1;
#X connect 23 0 25 0;
#X connect 23 0 51 1;
#X connect 23 0 52 1;
#X connect 23 0 53 1;
#X connect 24 0 22 1;
#X connect 24 0 25 0;
#X connect 24 0 51 1;
#X connect 24 0 52 1;
#X connect 24 0 53 1;
#X connect 26 0 23 0;
#X connect 26 0 39 0;
#X connect 26 1 24 0;
#X connect 27 0 58 0;
#X connect 28 0 27 1;
#X connect 28 0 30 0;
#X connect 28 0 57 1;
#X connect 28 0 60 1;
#X connect 28 0 61 1;
#X connect 29 0 27 1;
#X connect 29 0 30 0;
#X connect 29 0 57 1;
#X connect 29 0 60 1;
#X connect 29 0 61 1;
#X connect 31 0 28 0;
#X connect 31 0 40 0;
#X connect 31 1 29 0;
#X connect 32 0 34 0;
#X connect 32 0 64 1;
#X connect 32 0 65 1;
#X connect 32 0 66 1;
#X connect 32 0 67 1;
#X connect 33 0 34 0;
#X connect 33 0 64 1;
#X connect 33 0 65 1;
#X connect 33 0 66 1;
#X connect 33 0 67 1;
#X connect 35 0 32 0;
#X connect 35 0 41 0;
#X connect 35 1 33 0;
#X connect 36 0 18 0;
#X connect 37 0 72 0;
#X connect 37 0 21 0;
#X connect 37 0 73 0;
#X connect 38 0 19 0;
#X connect 39 0 19 0;
#X connect 40 0 19 0;
#X connect 41 0 19 0;
#X connect 42 0 15 0;
#X connect 43 0 47 0;
#X connect 44 0 49 0;
#X connect 45 0 48 0;
#X connect 51 0 54 0;
#X connect 52 0 55 0;
#X connect 53 0 56 0;
#X connect 57 0 59 0;
#X connect 60 0 62 0;
#X connect 61 0 63 0;
#X connect 64 0 68 0;
#X connect 65 0 69 0;
#X connect 66 0 70 0;
#X connect 67 0 71 0;
#X connect 72 0 16 0;
#X connect 73 0 36 0;
#X connect 73 0 21 0;
#X restore 1078 151 pd modefx;
#X f 29;
#X obj 1096 92 t b;
#X obj 999 171 spigot;
#X text 1098 130 fx;
#X obj 268 40 t b b;
#X obj 359 214 abl_link~ 4 0 4 134;
#N canvas 388 89 584 500 tempustuff 0;
#X obj 114 23 inlet;
#X obj 114 91 /;
#X obj 114 45 t b f;
#X floatatom 114 109 5 0 0 0 - - -;
#X obj 87 126 tgl 15 0 empty empty empty 17 7 0 10 -262144 -1 -1 1
1;
#X msg 114 72 15000;
#X obj 114 125 / 2;
#X obj 87 142 metro;
#X obj 87 159 s m32r;
#X obj 187 61 inlet;
#X obj 186 112 change;
#X obj 186 78 sel 0;
#X msg 186 95 1;
#X msg 154 60 0;
#X connect 0 0 2 0;
#X connect 1 0 3 0;
#X connect 2 0 5 0;
#X connect 2 0 13 0;
#X connect 2 1 1 1;
#X connect 3 0 6 0;
#X connect 4 0 7 0;
#X connect 5 0 1 0;
#X connect 6 0 7 1;
#X connect 7 0 8 0;
#X connect 9 0 11 0;
#X connect 10 0 4 0;
#X connect 11 0 12 0;
#X connect 12 0 10 0;
#X connect 13 0 10 0;
#X restore 503 292 pd tempustuff;
#X obj 253 548 table copy 128, f 23;
#X msg 686 255 Ch:[\$1] \$2 \$3;
#X obj 602 163 sel 1;
#X obj 604 188 delay 1001;
#X obj 186 438 s~ rsm;
#X obj 1138 248 s glopro;
#X obj 1137 228 * 99;
#N canvas 169 204 1107 480 quicknobish 0;
#X obj 273 28 inlet;
#X obj 34 23 r knob1;
#X obj 86 24 r knob2;
#X obj 141 25 r knob3;
#X obj 195 24 r knob4;
#X obj 255 363 spigot;
#X obj 306 363 spigot;
#X obj 353 364 spigot;
#X obj 403 364 spigot;
#X obj 378 74 r aux;
#X obj 420 301 tgl 15 0 empty empty empty 17 7 0 10 -262144 -1 -1 0
1;
#X obj 347 38 loadbang;
#X msg 318 64 1;
#X obj 418 179 r hpsh;
#X obj 686 376 tgl 15 0 empty empty empty 17 7 0 10 -262144 -1 -1 0
1;
#X obj 476 388 spigot;
#X obj 527 388 spigot;
#X obj 575 389 spigot;
#X obj 624 389 spigot;
#X obj 320 126 sel 1;
#X msg 310 162 0;
#X msg 334 162 1;
#X obj 13 68 spigot;
#X obj 64 68 spigot;
#X obj 112 69 spigot;
#X obj 158 68 spigot;
#X obj 273 56 tgl 15 0 empty empty empty 17 7 0 10 -257985 -1 -1 0
1;
#X obj 6 346 spigot;
#X obj 57 346 spigot;
#X obj 105 347 spigot;
#X obj 154 347 spigot;
#X obj 211 347 tgl 15 0 empty empty empty 17 7 0 10 -262144 -1 -1 1
1;
#X obj 419 207 sel 1, f 10;
#X msg 422 238 0;
#X obj 8 405 outlet;
#X obj 51 405 outlet;
#X obj 95 405 outlet;
#X obj 138 405 outlet;
#X obj 291 423 outlet;
#X obj 334 423 outlet;
#X obj 378 423 outlet;
#X obj 421 423 outlet;
#X obj 481 433 outlet;
#X obj 524 433 outlet;
#X obj 568 433 outlet;
#X obj 611 433 outlet;
#X floatatom 413 122 5 0 0 0 - - -;
#X connect 0 0 26 0;
#X connect 1 0 22 0;
#X connect 2 0 23 0;
#X connect 3 0 24 0;
#X connect 4 0 25 0;
#X connect 5 0 38 0;
#X connect 6 0 39 0;
#X connect 7 0 40 0;
#X connect 8 0 41 0;
#X connect 9 0 19 0;
#X connect 9 0 46 0;
#X connect 9 0 10 0;
#X connect 10 0 8 1;
#X connect 10 0 7 1;
#X connect 10 0 6 1;
#X connect 10 0 5 1;
#X connect 11 0 12 0;
#X connect 12 0 31 0;
#X connect 13 0 14 0;
#X connect 13 0 32 0;
#X connect 14 0 18 1;
#X connect 14 0 17 1;
#X connect 14 0 16 1;
#X connect 14 0 15 1;
#X connect 15 0 42 0;
#X connect 16 0 43 0;
#X connect 17 0 44 0;
#X connect 18 0 45 0;
#X connect 19 0 20 0;
#X connect 19 1 21 0;
#X connect 20 0 31 0;
#X connect 21 0 31 0;
#X connect 22 0 27 0;
#X connect 22 0 5 0;
#X connect 22 0 15 0;
#X connect 23 0 28 0;
#X connect 23 0 6 0;
#X connect 23 0 16 0;
#X connect 24 0 29 0;
#X connect 24 0 7 0;
#X connect 24 0 17 0;
#X connect 25 0 30 0;
#X connect 25 0 8 0;
#X connect 25 0 18 0;
#X connect 26 0 25 1;
#X connect 26 0 24 1;
#X connect 26 0 23 1;
#X connect 26 0 22 1;
#X connect 27 0 34 0;
#X connect 28 0 35 0;
#X connect 29 0 36 0;
#X connect 30 0 37 0;
#X connect 31 0 30 1;
#X connect 31 0 29 1;
#X connect 31 0 28 1;
#X connect 31 0 27 1;
#X connect 32 0 33 0;
#X connect 33 0 10 0;
#X restore 1013 199 pd quicknobish;
#X f 23;
#X obj 1147 362 symbol;
#X obj 1147 429 s screenLine3;
#X obj 1147 381 t s b;
#X obj 1173 394 delay 666;
#X obj 1156 311 int;
#X msg 1175 411 bang, f 5;
#X msg 1156 329 Glo-pro:\$1%;
#X obj 946 70 t b, f 4;
#N canvas 355 152 819 604 load/save 0;
#X obj 91 132 inlet, f 21;
#X obj 258 354 s loadglobal, f 21;
#X obj 350 374 s saveglobal, f 21;
#X obj 91 154 tgl 15 0 empty empty empty 17 7 0 10 -262144 -1 -1 0
1;
#X obj 256 333 f;
#X obj 350 333 f;
#N canvas 4 50 1014 429 non/shif/hyper 0;
#X obj 372 93 r aux;
#X obj 381 271 tgl 15 0 empty empty empty 17 7 0 10 -262144 -1 -1 0
1;
#X obj 321 76 loadbang;
#X msg 321 132 1;
#X obj 469 191 r hpsh, f 12;
#X obj 446 271 tgl 15 0 empty empty empty 17 7 0 10 -262144 -1 -1 0
1;
#X obj 384 112 sel 1;
#X msg 383 136 0;
#X msg 407 136 1;
#X obj 333 269 tgl 15 0 empty empty empty 17 7 0 10 -262144 -1 -1 1
1;
#X obj 428 220 sel 1;
#X msg 422 238 0;
#X obj 331 297 outlet;
#X obj 381 302 outlet;
#X obj 446 306 outlet;
#X connect 0 0 1 0;
#X connect 0 0 6 0;
#X connect 1 0 13 0;
#X connect 2 0 3 0;
#X connect 3 0 9 0;
#X connect 4 0 5 0;
#X connect 4 0 10 0;
#X connect 5 0 14 0;
#X connect 6 0 7 0;
#X connect 6 1 8 0;
#X connect 7 0 9 0;
#X connect 8 0 9 0;
#X connect 9 0 12 0;
#X connect 10 0 11 0;
#X connect 11 0 1 0;
#X restore 374 132 pd non/shif/hyper;
#X obj 374 151 tgl 15 0 empty empty empty 17 7 0 10 -262144 -1 -1 1
1;
#X obj 423 151 tgl 15 0 empty empty empty 17 7 0 10 -262144 -1 -1 0
1;
#X obj 473 151 tgl 15 0 empty empty empty 17 7 0 10 -262144 -1 -1 0
1;
#X obj 89 196 spigot, f 9;
#N canvas 408 354 1033 588 howmanysongs 0;
#X obj 354 242 f;
#X obj 381 242 +;
#X obj 354 220 t b f;
#X msg 314 195 1;
#X msg 421 196 -1;
#X obj 354 364 outlet;
#X obj 314 48 inlet;
#X obj 243 46 inlet;
#X obj 616 64 inlet;
#X obj 359 145 tgl 15 0 empty empty empty 17 7 0 10 -262144 -1 -1 1
1;
#X obj 429 142 tgl 15 0 empty empty empty 17 7 0 10 -262144 -1 -1 1
1;
#X obj 330 165 spigot;
#X obj 397 164 spigot;
#X text 624 42 resetnum;
#X obj 615 100 t b;
#X msg 615 125 1;
#X msg 445 110 0;
#X msg 365 111 0;
#X obj 354 263 mod 16;
#X obj 471 312 sel 0 16;
#X connect 0 0 1 1;
#X connect 0 0 18 0;
#X connect 1 0 0 1;
#X connect 2 0 0 0;
#X connect 2 1 1 0;
#X connect 3 0 2 0;
#X connect 4 0 2 0;
#X connect 6 0 11 0;
#X connect 7 0 12 0;
#X connect 8 0 0 0;
#X connect 8 0 14 0;
#X connect 9 0 11 1;
#X connect 10 0 12 1;
#X connect 11 0 3 0;
#X connect 12 0 4 0;
#X connect 14 0 15 0;
#X connect 15 0 9 0;
#X connect 15 0 10 0;
#X connect 16 0 10 0;
#X connect 17 0 9 0;
#X connect 18 0 5 0;
#X connect 19 0 16 0;
#X connect 19 1 17 0;
#X connect 19 2 15 0;
#X restore 93 294 pd howmanysongs;
#X obj 93 269 bng 15 250 50 0 empty empty empty 17 7 0 10 -262144 -1
-1;
#X obj 136 268 bng 15 250 50 0 empty empty empty 17 7 0 10 -262144
-1 -1;
#X obj 232 132 loadbang, f 21;
#X msg 180 267 1;
#N canvas 236 304 788 338 shft+whit 0;
#X obj 136 12 r notes;
#X obj 294 18 unpack;
#X obj 136 84 tgl 15 0 empty empty empty 17 7 0 10 -262144 -1 -1 0
1;
#X obj 141 106 sel 1;
#X obj 225 86 tgl 15 0 empty empty empty 17 7 0 10 -262144 -1 -1 0
1;
#X obj 230 108 sel 1;
#X obj 324 85 tgl 15 0 empty empty empty 17 7 0 10 -262144 -1 -1 0
1;
#X obj 329 107 sel 1;
#X obj 441 85 tgl 15 0 empty empty empty 17 7 0 10 -262144 -1 -1 0
1;
#X obj 446 107 sel 1;
#X msg 157 170 2;
#X msg 240 168 3;
#X msg 338 168 4;
#X msg 458 170 5;
#X obj 304 245 outlet;
#X obj 130 62 sel 62;
#X obj 219 65 sel 64;
#X obj 318 63 sel 65;
#X obj 435 62 sel 67;
#X connect 0 0 1 0;
#X connect 1 0 15 0;
#X connect 1 0 16 0;
#X connect 1 0 17 0;
#X connect 1 0 18 0;
#X connect 2 0 3 0;
#X connect 3 0 10 0;
#X connect 4 0 5 0;
#X connect 5 0 11 0;
#X connect 6 0 7 0;
#X connect 7 0 12 0;
#X connect 8 0 9 0;
#X connect 9 0 13 0;
#X connect 10 0 14 0;
#X connect 11 0 14 0;
#X connect 12 0 14 0;
#X connect 13 0 14 0;
#X connect 15 0 2 0;
#X connect 16 0 4 0;
#X connect 17 0 6 0;
#X connect 18 0 8 0;
#X restore 89 173 pd shft+whit 2-7;
#X obj 89 219 spigot, f 9;
#X obj 227 223 sel 2 3 4 5;
#X obj 93 319 + 20;
#X floatatom 93 356 5 0 0 0 - - -;
#X obj 258 245 bng 15 250 50 0 empty empty empty 17 7 0 10 -262144
-1 -1;
#X obj 275 245 bng 15 250 50 0 empty empty empty 17 7 0 10 -262144
-1 -1;
#X obj 516 282 symbol;
#X obj 516 349 s screenLine3;
#X obj 516 301 t s b;
#X msg 544 331 bang, f 5;
#X msg 530 244 s0ng_nr:\$1;
#X obj 543 313 delay 3666;
#X msg 530 227 loadsong:\$1;
#X msg 530 209 savesong:\$1;
#X connect 0 0 3 0;
#X connect 3 0 10 1;
#X connect 4 0 1 0;
#X connect 4 0 29 0;
#X connect 5 0 2 0;
#X connect 5 0 30 0;
#X connect 6 0 7 0;
#X connect 6 1 8 0;
#X connect 6 2 9 0;
#X connect 8 0 17 1;
#X connect 10 0 17 0;
#X connect 11 0 19 0;
#X connect 12 0 11 0;
#X connect 13 0 11 1;
#X connect 14 0 15 0;
#X connect 15 0 11 2;
#X connect 16 0 10 0;
#X connect 17 0 18 0;
#X connect 18 0 12 0;
#X connect 18 1 13 0;
#X connect 18 2 21 0;
#X connect 18 3 22 0;
#X connect 19 0 5 1;
#X connect 19 0 4 1;
#X connect 19 0 20 0;
#X connect 19 0 27 0;
#X connect 21 0 4 0;
#X connect 22 0 5 0;
#X connect 23 0 25 0;
#X connect 25 0 24 0;
#X connect 25 1 28 0;
#X connect 26 0 24 0;
#X connect 27 0 23 0;
#X connect 28 0 26 0;
#X connect 29 0 23 0;
#X connect 30 0 23 0;
#X restore 464 482 pd load/save;
#X f 34;
#N canvas 4 50 1014 429 non/shif/hyper 0;
#X obj 372 93 r aux;
#X obj 381 271 tgl 15 0 empty empty empty 17 7 0 10 -262144 -1 -1 0
1;
#X obj 321 76 loadbang;
#X msg 321 132 1;
#X obj 469 191 r hpsh, f 12;
#X obj 446 271 tgl 15 0 empty empty empty 17 7 0 10 -262144 -1 -1 0
1;
#X obj 384 112 sel 1;
#X msg 383 136 0;
#X msg 407 136 1;
#X obj 333 269 tgl 15 0 empty empty empty 17 7 0 10 -262144 -1 -1 1
1;
#X obj 428 220 sel 1;
#X msg 422 238 0;
#X obj 331 297 outlet;
#X obj 381 302 outlet;
#X obj 446 306 outlet;
#X connect 0 0 1 0;
#X connect 0 0 6 0;
#X connect 1 0 13 0;
#X connect 2 0 3 0;
#X connect 3 0 9 0;
#X connect 4 0 5 0;
#X connect 4 0 10 0;
#X connect 5 0 14 0;
#X connect 6 0 7 0;
#X connect 6 1 8 0;
#X connect 7 0 9 0;
#X connect 8 0 9 0;
#X connect 9 0 12 0;
#X connect 10 0 11 0;
#X connect 11 0 1 0;
#X restore 725 505 pd non/shif/hyper;
#X obj 727 536 tgl 15 0 empty empty empty 17 7 0 10 -262144 -1 -1 1
1;
#X obj 780 530 tgl 15 0 empty empty empty 17 7 0 10 -262144 -1 -1 0
1;
#X obj 811 537 tgl 15 0 empty empty empty 17 7 0 10 -262144 -1 -1 0
1;
#N canvas 94 104 774 557 midi 0;
#X obj 344 366 s midiInGate;
#X obj 344 388 s midiOutGate;
#X obj 344 171 inlet;
#X msg 382 283 0;
#X connect 2 0 3 0;
#X connect 3 0 0 0;
#X connect 3 0 1 0;
#X restore 421 520 pd midi things;
#X obj 578 310 f;
#X obj 304 346 s ldb;
#N canvas 236 304 788 338 hpsh 0;
#X obj 62 68 r aux;
#X obj 19 14 r notes;
#X obj 19 32 unpack;
#X obj 37 84 tgl 15 0 empty empty empty 17 7 0 10 -262144 -1 -1 0 1
;
#X obj 13 62 sel 60;
#X obj 63 84 tgl 15 0 empty empty empty 17 7 0 10 -262144 -1 -1 0 1
;
#X obj 34 116 +, f 9;
#X obj 59 99 t b f;
#X obj 35 98 f;
#X obj 33 132 sel 2;
#X msg 32 149 1;
#X msg 53 149 0;
#X obj 33 166 tgl 15 0 empty empty empty 17 7 0 10 -262144 -1 -1 0
1;
#X obj 31 200 s hpsh;
#X connect 0 0 5 0;
#X connect 1 0 2 0;
#X connect 2 0 4 0;
#X connect 3 0 8 0;
#X connect 4 0 3 0;
#X connect 5 0 7 0;
#X connect 6 0 9 0;
#X connect 7 0 6 0;
#X connect 7 1 6 1;
#X connect 8 0 6 0;
#X connect 9 0 10 0;
#X connect 9 1 11 0;
#X connect 10 0 12 0;
#X connect 11 0 12 0;
#X connect 12 0 13 0;
#X restore 125 6 pd hpsh;
#X connect 1 0 2 0;
#X connect 1 0 5 0;
#X connect 1 0 107 0;
#X connect 1 0 108 0;
#X connect 1 0 152 0;
#X connect 5 0 158 0;
#X connect 6 0 5 0;
#X connect 6 1 5 2;
#X connect 7 0 5 0;
#X connect 7 1 5 1;
#X connect 8 0 6 0;
#X connect 9 0 6 0;
#X connect 10 0 6 0;
#X connect 17 0 20 0;
#X connect 17 0 21 0;
#X connect 17 0 65 0;
#X connect 17 0 97 0;
#X connect 18 0 93 0;
#X connect 19 0 93 1;
#X connect 20 0 54 1;
#X connect 20 0 112 0;
#X connect 20 0 93 2;
#X connect 21 0 22 0;
#X connect 21 1 23 0;
#X connect 22 0 20 0;
#X connect 23 0 20 0;
#X connect 25 0 26 0;
#X connect 25 0 28 0;
#X connect 26 0 24 0;
#X connect 27 0 26 1;
#X connect 28 0 27 0;
#X connect 31 0 99 0;
#X connect 32 0 59 0;
#X connect 33 0 41 2;
#X connect 34 0 155 0;
#X connect 35 0 40 0;
#X connect 35 0 45 1;
#X connect 35 0 47 0;
#X connect 36 0 34 0;
#X connect 37 0 155 0;
#X connect 39 0 38 0;
#X connect 41 0 42 0;
#X connect 42 0 36 0;
#X connect 43 0 46 0;
#X connect 44 0 48 0;
#X connect 44 1 45 0;
#X connect 45 0 43 1;
#X connect 46 0 49 0;
#X connect 47 0 44 0;
#X connect 48 0 43 0;
#X connect 51 0 50 0;
#X connect 52 0 50 1;
#X connect 53 0 51 1;
#X connect 53 0 52 1;
#X connect 54 0 31 0;
#X connect 60 0 7 0;
#X connect 62 0 57 0;
#X connect 63 0 60 0;
#X connect 63 0 61 0;
#X connect 64 0 32 0;
#X connect 65 0 37 0;
#X connect 66 0 67 0;
#X connect 66 0 139 0;
#X connect 66 0 98 0;
#X connect 66 0 137 0;
#X connect 66 1 68 0;
#X connect 67 0 77 0;
#X connect 68 0 77 0;
#X connect 69 0 73 0;
#X connect 70 0 74 0;
#X connect 71 0 75 0;
#X connect 72 0 76 0;
#X connect 73 0 145 0;
#X connect 74 0 89 0;
#X connect 76 0 120 0;
#X connect 77 0 76 1;
#X connect 77 0 75 1;
#X connect 77 0 74 1;
#X connect 77 0 73 1;
#X connect 77 0 100 1;
#X connect 77 0 108 1;
#X connect 77 0 121 1;
#X connect 77 0 122 1;
#X connect 77 0 141 0;
#X connect 77 0 159 0;
#X connect 78 0 79 0;
#X connect 87 0 36 0;
#X connect 87 0 121 0;
#X connect 89 0 31 1;
#X connect 90 0 11 0;
#X connect 91 0 105 0;
#X connect 91 0 115 0;
#X connect 91 0 119 0;
#X connect 91 0 137 0;
#X connect 91 1 104 0;
#X connect 92 0 4 0;
#X connect 92 0 113 0;
#X connect 92 0 146 0;
#X connect 92 1 91 0;
#X connect 92 1 117 0;
#X connect 93 0 29 0;
#X connect 93 0 15 0;
#X connect 93 0 51 0;
#X connect 93 0 161 0;
#X connect 93 1 30 0;
#X connect 93 1 15 1;
#X connect 93 1 52 0;
#X connect 94 0 95 0;
#X connect 97 0 1 0;
#X connect 97 0 172 0;
#X connect 98 0 62 0;
#X connect 98 0 139 0;
#X connect 98 0 118 0;
#X connect 98 0 138 0;
#X connect 100 0 20 0;
#X connect 101 0 100 0;
#X connect 102 0 107 1;
#X connect 102 0 135 1;
#X connect 102 0 164 0;
#X connect 102 0 173 0;
#X connect 102 0 15 2;
#X connect 104 0 102 0;
#X connect 105 0 102 0;
#X connect 107 0 109 0;
#X connect 108 0 109 0;
#X connect 109 0 110 0;
#X connect 109 0 68 0;
#X connect 110 0 4 0;
#X connect 110 0 113 0;
#X connect 111 0 97 0;
#X connect 111 0 151 0;
#X connect 112 0 88 0;
#X connect 113 0 10 0;
#X connect 113 1 9 0;
#X connect 113 2 8 0;
#X connect 115 0 1 0;
#X connect 116 0 97 0;
#X connect 117 2 116 0;
#X connect 118 0 79 0;
#X connect 119 0 79 0;
#X connect 120 0 29 0;
#X connect 120 0 30 0;
#X connect 121 0 179 0;
#X connect 122 0 144 0;
#X connect 123 0 17 0;
#X connect 123 0 33 0;
#X connect 123 0 32 0;
#X connect 123 0 64 0;
#X connect 123 0 109 0;
#X connect 123 0 178 0;
#X connect 123 0 180 0;
#X connect 124 0 126 0;
#X connect 125 0 130 0;
#X connect 126 0 125 0;
#X connect 127 0 126 1;
#X connect 128 0 2 0;
#X connect 129 0 127 0;
#X connect 130 0 129 0;
#X connect 130 0 109 0;
#X connect 130 1 128 0;
#X connect 131 0 66 0;
#X connect 131 0 92 0;
#X connect 132 0 133 0;
#X connect 133 0 17 0;
#X connect 135 0 154 0;
#X connect 136 0 135 0;
#X connect 137 0 79 0;
#X connect 137 0 57 0;
#X connect 138 0 140 0;
#X connect 138 0 62 0;
#X connect 138 0 90 0;
#X connect 138 0 79 0;
#X connect 139 0 3 0;
#X connect 139 0 88 0;
#X connect 140 0 57 0;
#X connect 141 0 142 0;
#X connect 142 0 120 0;
#X connect 143 0 88 0;
#X connect 144 0 143 0;
#X connect 145 0 87 0;
#X connect 146 0 115 0;
#X connect 146 0 149 0;
#X connect 146 1 148 0;
#X connect 147 0 150 0;
#X connect 147 0 152 1;
#X connect 148 0 147 0;
#X connect 149 0 147 0;
#X connect 151 0 148 0;
#X connect 152 0 109 0;
#X connect 154 0 134 0;
#X connect 155 0 54 0;
#X connect 155 0 156 1;
#X connect 155 3 35 0;
#X connect 155 3 156 0;
#X connect 158 0 3 0;
#X connect 159 0 160 0;
#X connect 160 0 144 0;
#X connect 160 0 179 0;
#X connect 163 0 162 0;
#X connect 163 0 169 0;
#X connect 164 7 163 0;
#X connect 165 0 167 0;
#X connect 167 0 166 0;
#X connect 167 1 168 0;
#X connect 168 0 170 0;
#X connect 169 0 171 0;
#X connect 170 0 166 0;
#X connect 171 0 165 0;
#X connect 172 0 104 0;
#X connect 174 0 175 0;
#X connect 174 1 176 0;
#X connect 174 2 177 0;
#X connect 179 0 78 0;
#X coords 0 -1 1 1 98 103 2 100 100;
