#N canvas 117 50 1056 454 10;
#X obj 101 101 cnv 15 97 97 empty empty empty 20 12 0 14 -33289 -66577
0;
#X obj 103 103 cnv 15 93 93 empty empty empty 20 12 0 14 -228856 -66577
0;
#X obj 9 420 soundfiler;
#X obj 12 275 openpanel;
#X obj 39 67 bng 15 250 50 0 empty empty load 4 8 0 8 -262144 -1 -1
;
#X obj -235 401 mtosr 44100;
#X msg -270 362 type 0;
#X msg -270 381 type 1;
#X msg -244 249 44100;
#X floatatom -100 383 5 0 0 0 - - -;
#X floatatom -185 383 6 0 0 0 - - -;
#X floatatom -139 383 6 0 0 0 - - -;
#X text -205 369 loopstart;
#X text -149 369 loopend;
#X text -102 369 startpos;
#X floatatom -77 292 5 0 0 0 - - -;
#X obj 28 486 *;
#X obj -138 355 int;
#X obj -183 355 int;
#X obj -100 355 int;
#X msg -206 214 bang;
#X obj -76 311 t b;
#X msg -12 69 60;
#X obj -156 226 t b f;
#X obj -278 493 *~, f 5;
#X obj -231 156 t b f;
#X obj -161 198 spigot;
#X obj 27 169 tgl 13 0 empty empty pit 3 7 0 6 -262144 -1 -1 1 1;
#X obj 38 185 sel 0;
#X msg 38 204 60;
#X obj -228 299 tgl 15 0 empty empty empty 17 7 0 10 -262144 -1 -1
0 1;
#X obj -233 322 sel 0 1;
#X obj 13 255 r samp\$1;
#X obj 8 378 pack s f;
#X obj 52 295 f \$0;
#X obj -279 437 tabread4~ \$0sa;
#X msg 8 401 read -resize \$1 \$2sa;
#N canvas 125 185 700 300 (subpatch) 0;
#X array \$0sa 25613 float 2;
#X coords 0 1 25613 -1 88 25 1;
#X restore 105 117 graph;
#X obj 179 103 cnv 8 14 14 empty \$0-met16 \$1 4 7 0 10 -128992 -260097
0;
#X obj 7 291 t s b;
#N canvas 40 98 840 634 :: 0;
#X obj 102 102 hradio 10 1 0 4 empty empty empty 0 -8 0 10 -203904
-1 -1 0;
#X obj 141 274 outlet;
#X floatatom 206 82 5 0 0 0 - - -;
#X obj 76 153 == 0;
#X obj 185 124 == 1;
#X obj 236 126 == 2;
#X obj 265 127 == 3;
#X obj 75 178 tgl 15 0 empty empty empty 17 7 0 10 -262144 -1 -1 0
1;
#X obj 185 149 tgl 15 0 empty empty empty 17 7 0 10 -262144 -1 -1 0
1;
#X obj 236 150 tgl 15 0 empty empty empty 17 7 0 10 -262144 -1 -1 0
1;
#X obj 266 150 tgl 15 0 empty empty empty 17 7 0 10 -262144 -1 -1 0
1;
#X obj 231 52 r osc1;
#X text 107 358 l.h.r.l.o.o.a;
#X obj 71 200 spigot;
#X obj 180 171 spigot;
#X obj 229 171 spigot;
#X obj 262 171 spigot;
#X obj 169 50 inlet;
#X obj 304 55 inlet;
#X connect 0 0 2 0;
#X connect 2 0 3 0;
#X connect 2 0 4 0;
#X connect 2 0 5 0;
#X connect 2 0 6 0;
#X connect 3 0 7 0;
#X connect 4 0 8 0;
#X connect 5 0 9 0;
#X connect 6 0 10 0;
#X connect 7 0 13 1;
#X connect 8 0 14 1;
#X connect 9 0 15 1;
#X connect 10 0 16 1;
#X connect 11 0 15 0;
#X connect 13 0 1 0;
#X connect 14 0 1 0;
#X connect 15 0 1 0;
#X connect 16 0 1 0;
#X connect 17 0 14 0;
#X connect 18 0 16 0;
#X coords 0 -1 1 1 45 14 2 100 100;
#X restore -142 134 pd ::;
#X obj 62 84 nbx 2 14 0 127 0 0 empty empty empty 0 -8 0 10 -1 -257985
-260097 50 256;
#X obj -263 71 r seq\$1;
#X obj -142 113 / 100;
#X obj -270 128 moses 3;
#X text -105 637 http://servando.teks.no;
#X text -95 647 http://servando.teks.no;
#X text -85 657 http://servando.teks.no;
#X text -75 667 http://servando.teks.no;
#X text -113 625 http://servando.teks.no;
#X text -55 617 http://servando.teks.no;
#X text -45 627 http://servando.teks.no;
#X text -35 637 http://servando.teks.no;
#X text -25 647 http://servando.teks.no;
#X text -15 657 http://servando.teks.no;
#X text -5 667 http://servando.teks.no;
#X text 5 677 http://servando.teks.no;
#X text 15 687 http://servando.teks.no;
#X text 25 697 http://servando.teks.no;
#X text 35 707 http://servando.teks.no;
#X text 45 717 http://servando.teks.no;
#X text 55 727 http://servando.teks.no;
#X text 65 635 http://servando.teks.no;
#X text 75 645 http://servando.teks.no;
#X obj -245 525 s~ ch\$1;
#X obj -278 418 susloop~ 4000 12000;
#X obj -232 468 *~, f 5;
#X obj 237 25 r knob1;
#X obj 287 26 r knob2;
#X obj 336 26 r knob3;
#X obj 384 26 r knob4;
#X obj 236 44 spigot;
#X obj 287 44 spigot;
#X obj 335 45 spigot;
#X obj 384 45 spigot;
#X obj 442 63 sel \$1;
#X obj 440 27 r chan, f 10;
#X obj 509 26 r chen;
#X obj 510 66 sel 7;
#X obj 507 44 moses 6;
#X msg 446 85 1;
#X msg 473 85 0;
#X msg 510 84 1;
#X msg 548 131 0, f 4;
#X obj 376 153 tgl 22 0 empty empty empty 17 7 0 10 -257985 -1 -1 0
1;
#X obj 511 101 t b f;
#X obj 476 45 f \$1;
#X obj 441 45 t f b;
#X obj 449 103 +;
#X obj 450 121 sel 2;
#X msg 449 139 1;
#X msg 472 139 0;
#X obj 457 438 s screenLine5;
#X obj 626 331 s screenLine2;
#X obj -199 282 sel 1;
#X obj 640 94 s syntyp;
#X msg 768 192 | _>__ | <>| / | \\\\ |;
#N canvas 461 69 740 354 idnwr60 0;
#X obj 354 242 f;
#X obj 381 242 +;
#X obj 354 220 t b f;
#X msg 314 195 1;
#X msg 421 196 -1;
#X obj 354 364 outlet;
#X obj 314 48 inlet;
#X obj 421 48 inlet;
#X obj 616 64 inlet;
#X obj 359 145 tgl 15 0 empty empty empty 17 7 0 10 -262144 -1 -1 1
1;
#X obj 429 142 tgl 15 0 empty empty empty 17 7 0 10 -262144 -1 -1 1
1;
#X obj 330 165 spigot;
#X obj 397 164 spigot;
#X text 624 42 resetnum;
#X obj 615 100 t b;
#X msg 615 125 1;
#X msg 445 110 0;
#X msg 365 111 0;
#X obj 354 264 mod 8;
#X obj 472 312 sel 0 8;
#X connect 0 0 1 1;
#X connect 0 0 18 0;
#X connect 1 0 0 1;
#X connect 2 0 0 0;
#X connect 2 1 1 0;
#X connect 3 0 2 0;
#X connect 4 0 2 0;
#X connect 6 0 11 0;
#X connect 7 0 12 0;
#X connect 8 0 0 0;
#X connect 8 0 14 0;
#X connect 9 0 11 1;
#X connect 10 0 12 1;
#X connect 11 0 3 0;
#X connect 12 0 4 0;
#X connect 14 0 15 0;
#X connect 15 0 9 0;
#X connect 15 0 10 0;
#X connect 16 0 10 0;
#X connect 17 0 9 0;
#X connect 18 0 5 0;
#X connect 19 0 16 0;
#X connect 19 1 17 0;
#X connect 19 2 15 0;
#X restore 201 368 pd idnwr60;
#X obj 179 281 bng 15 250 50 0 empty empty empty 17 7 0 10 -262144
-1 -1;
#X obj 158 275 bng 15 250 50 0 empty empty empty 17 7 0 10 -262144
-1 -1;
#X obj 201 387 + 1, f 5;
#X obj 201 512 pack f f;
#X obj 201 435 f \$1;
#X obj 201 414 t b f;
#X msg 200 532 \$1/\$2.wav;
#N canvas 140 79 1063 558 env 0;
#X obj -113 427 f;
#X msg -131 344 bang;
#X obj -131 547 vline~;
#X msg -131 518 1 \$1 \, 0 \$2 \$1;
#X obj -131 485 pack f f;
#X obj -17 434 mtof;
#X text -56 338 ATTACK;
#X text 11 409 DECAY;
#X obj -128 592 outlet~;
#X obj 30 55 t b f;
#X text -129 90 TRIGGER ENVELOPE;
#X obj 97 42 inlet;
#X obj 30 32 inlet;
#X obj -131 110 inlet;
#X obj -21 407 + 0.1;
#X connect 0 0 4 0;
#X connect 1 0 0 0;
#X connect 2 0 8 0;
#X connect 3 0 2 0;
#X connect 4 0 3 0;
#X connect 9 0 0 0;
#X connect 9 1 0 1;
#X connect 11 0 14 0;
#X connect 11 0 4 1;
#X connect 12 0 9 0;
#X connect 13 0 1 0;
#X connect 14 0 5 0;
#X restore -191 455 pd env;
#X f 23;
#X obj -181 174 + 12;
#N canvas 68 203 707 319 rekorder 0;
#X obj 53 88 adc~;
#X obj 54 221 tabwrite~ \$0sa;
#X msg 228 173 start;
#X obj 410 105 bng 15 250 50 0 empty empty empty 17 7 0 10 -258113
-1 -1;
#X msg 192 154 1;
#X obj 227 156 spigot;
#X obj 210 101 env~;
#X obj 239 99 moses 50;
#X obj 156 85 hsl 128 15 0 127 0 0 empty empty empty -2 -8 0 10 -262144
-1 -1 6300 1;
#X obj 406 138 tgl 8 0 empty empty empty 17 7 0 10 -262144 -1 -1 0
1;
#X msg 206 152 0;
#X msg 153 67 63;
#X obj 57 150 *~ 1;
#X msg 284 116 1;
#X obj 329 91 change, f 8;
#X obj 283 177 / 441;
#X obj 283 158 * 10;
#X obj 227 192 delay 500;
#X obj 331 34 delay 1000;
#X msg 330 72 0;
#X obj 53 110 delwrite~ del\$1 16;
#X obj 54 132 delread~ del\$1 16;
#X obj 318 157 inlet snflr;
#X obj 154 45 inlet ldb;
#X obj 357 53 t b;
#X obj 330 53 t b;
#X obj 406 38 inlet;
#X obj 406 229 outlet;
#X connect 0 0 6 0;
#X connect 0 0 20 0;
#X connect 2 0 1 0;
#X connect 3 0 4 0;
#X connect 4 0 9 0;
#X connect 5 0 2 0;
#X connect 5 0 17 0;
#X connect 6 0 7 0;
#X connect 7 1 13 0;
#X connect 8 0 7 1;
#X connect 9 0 5 1;
#X connect 9 0 27 0;
#X connect 10 0 9 0;
#X connect 11 0 8 0;
#X connect 12 0 1 0;
#X connect 13 0 14 0;
#X connect 14 0 5 0;
#X connect 14 0 24 0;
#X connect 15 0 18 1;
#X connect 15 0 17 1;
#X connect 16 0 15 0;
#X connect 17 0 10 0;
#X connect 18 0 25 0;
#X connect 19 0 14 0;
#X connect 21 0 12 0;
#X connect 22 0 16 0;
#X connect 23 0 11 0;
#X connect 24 0 18 0;
#X connect 25 0 19 0;
#X connect 26 0 3 0;
#X restore 206 262 pd rekorder;
#X f 16;
#X obj 108 143 hsl 85 10 0 1 0 0 empty empty empty 10 8 0 8 -228856
-33289 -33289 0 0;
#X obj 108 156 hsl 85 10 0 1 0 0 empty empty empty 10 8 0 8 -191407
-1 -1 0 0;
#X obj 107 182 hsl 85 10 0 1 0 0 empty empty empty 10 6 0 8 -66577
-260097 -1 4200 0;
#X obj 107 170 hsl 85 10 0 1 0 0 empty empty empty 10 6 0 8 -66577
-260097 -1 0 0;
#X obj -50 120 * 60;
#X obj -50 142 + 60;
#X obj -111 425 * 999;
#X obj -151 426 * 444;
#X msg 33 127 0.5;
#X obj 237 65 * 10;
#X obj 235 82 int;
#X obj 289 63 * 10;
#X obj 291 82 int;
#X obj 340 65 * 10;
#X obj 337 84 int;
#X obj 375 67 * 10;
#X obj 366 84 int;
#X obj 267 242 sel 1;
#X obj 283 330 s oscOut;
#X msg 283 311 send /led \$1;
#X obj 317 294 hradio 15 1 0 8 empty empty empty 0 -8 0 10 -262144
-1 -1 5;
#X msg 293 294 0;
#X msg 286 293 5;
#X obj 270 277 sel 1;
#X msg 242 304 0;
#N canvas -148 420 1272 215 shftc# 0;
#X obj 70 117 r aux;
#X obj 19 12 r notes;
#X obj 19 32 unpack;
#X obj 26 142 spigot;
#X obj 13 62 sel 61;
#X obj 19 84 tgl 15 0 empty empty empty 17 7 0 10 -262144 -1 -1 0 1
;
#X obj 24 106 sel 1;
#X obj 187 117 r aux;
#X obj 136 12 r notes;
#X obj 136 32 unpack;
#X obj 143 142 spigot;
#X obj 136 84 tgl 15 0 empty empty empty 17 7 0 10 -262144 -1 -1 0
1;
#X obj 141 106 sel 1;
#X obj 130 62 sel 63;
#X obj 276 119 r aux;
#X obj 225 14 r notes;
#X obj 225 34 unpack;
#X obj 232 144 spigot;
#X obj 225 86 tgl 15 0 empty empty empty 17 7 0 10 -262144 -1 -1 0
1;
#X obj 230 108 sel 1;
#X obj 219 64 sel 66;
#X obj 375 118 r aux;
#X obj 324 13 r notes;
#X obj 324 33 unpack;
#X obj 331 143 spigot;
#X obj 324 85 tgl 15 0 empty empty empty 17 7 0 10 -262144 -1 -1 0
1;
#X obj 329 107 sel 1;
#X obj 461 120 r aux;
#X obj 413 12 r notes;
#X obj 413 32 unpack;
#X obj 423 146 spigot;
#X obj 413 84 tgl 15 0 empty empty empty 17 7 0 10 -262144 -1 -1 0
1;
#X obj 418 106 sel 1;
#X obj 318 63 sel 68;
#X obj 407 61 sel 70;
#X msg 31 169 1;
#X msg 157 170 2;
#X msg 240 168 3;
#X msg 338 168 4;
#X msg 430 169 5;
#X obj 485 186 outlet;
#X connect 0 0 3 1;
#X connect 1 0 2 0;
#X connect 2 0 4 0;
#X connect 3 0 35 0;
#X connect 4 0 5 0;
#X connect 5 0 6 0;
#X connect 6 0 3 0;
#X connect 7 0 10 1;
#X connect 8 0 9 0;
#X connect 9 0 13 0;
#X connect 10 0 36 0;
#X connect 11 0 12 0;
#X connect 12 0 10 0;
#X connect 13 0 11 0;
#X connect 14 0 17 1;
#X connect 15 0 16 0;
#X connect 16 0 20 0;
#X connect 17 0 37 0;
#X connect 18 0 19 0;
#X connect 19 0 17 0;
#X connect 20 0 18 0;
#X connect 21 0 24 1;
#X connect 22 0 23 0;
#X connect 23 0 33 0;
#X connect 24 0 38 0;
#X connect 25 0 26 0;
#X connect 26 0 24 0;
#X connect 27 0 30 1;
#X connect 28 0 29 0;
#X connect 29 0 34 0;
#X connect 30 0 39 0;
#X connect 31 0 32 0;
#X connect 32 0 30 0;
#X connect 33 0 25 0;
#X connect 34 0 31 0;
#X connect 35 0 40 0;
#X connect 36 0 40 0;
#X connect 37 0 40 0;
#X connect 38 0 40 0;
#X connect 39 0 40 0;
#X restore 205 203 pd shftc# 1stoct;
#X obj 205 221 spigot;
#X msg 343 399 ***SAMPLER***;
#X obj 341 480 s screenLine4;
#X msg 306 276 **REC_Sample**;
#X msg 492 297 Load_Sample:\$1;
#X msg 3 41 1;
#X obj 206 239 sel 2 3 4;
#X msg 495 270 Pitchseq:\$1;
#X msg 768 175 (0).(+)__(-).(p).(^);
#X msg -91 61 0;
#X obj 98 293 switch~;
#X msg -189 79 1;
#X obj -122 85 change;
#X obj 109 104 tgl 8 0 empty empty empty 17 7 0 10 -262144 -1 -1 1
1;
#X obj 148 35 inlet;
#X obj -245 12 loadbang, f 26;
#X obj 508 317 symbol;
#X obj 527 385 s screenLine3;
#X obj 508 336 t s b;
#N canvas 31 134 851 395 Fxxxx 0;
#N canvas 12 312 906 372 redux_////////R 0;
#N canvas 4 300 495 254 passthruB 0;
#X obj 77 162 inlet~;
#X obj 77 183 hip~ 5;
#X obj 77 204 outlet~;
#X obj 275 160 inlet;
#X obj 275 180 * -1;
#X obj 275 201 + 1;
#X obj 275 222 switch~;
#X connect 0 0 1 0;
#X connect 1 0 2 0;
#X connect 3 0 4 0;
#X connect 4 0 5 0;
#X connect 5 0 6 0;
#X restore 305 193 pd passthruB;
#X obj 471 197 tgl 15 0 empty empty empty 17 7 0 10 -262144 -1 -1 0
1;
#X obj 311 127 inlet~;
#X obj 291 281 outlet~;
#N canvas 448 205 670 634 dsprocA 0;
#X obj 84 284 inlet~;
#X obj 83 336 hip~ 5;
#X obj 82 366 outlet~;
#X obj 261 237 inlet;
#X obj 261 258 switch~;
#X obj 83 314 samphold~;
#X obj 260 279 select 1;
#X msg 260 298 0;
#X obj 174 298 phasor~ 4410;
#X obj 174 220 mtof;
#X obj 200 203 + 100;
#X obj 200 184 * 20;
#X obj 200 165 inlet;
#X connect 0 0 5 0;
#X connect 1 0 2 0;
#X connect 3 0 4 0;
#X connect 3 0 6 0;
#X connect 5 0 1 0;
#X connect 6 0 7 0;
#X connect 7 0 8 1;
#X connect 8 0 5 1;
#X connect 9 0 8 0;
#X connect 10 0 9 0;
#X connect 11 0 10 0;
#X connect 12 0 11 0;
#X restore 396 193 pd dsprocA;
#X obj 471 174 inlet;
#X floatatom 44 44 5 0 0 0 - - -;
#X obj 424 139 inlet;
#X connect 0 0 3 0;
#X connect 1 0 0 1;
#X connect 1 0 4 2;
#X connect 2 0 0 0;
#X connect 2 0 4 0;
#X connect 4 0 3 0;
#X connect 5 0 1 0;
#X connect 7 0 4 1;
#X restore 102 157 pd redux_////////R;
#X obj 293 62 tgl 15 0 empty empty empty 17 7 0 10 -4032 -1 -1 0 1
;
#X obj 241 63 tgl 15 0 empty empty empty 17 7 0 10 -4034 -1 -1 0 1
;
#X obj 364 138 t b b;
#X msg 361 181 1, f 7;
#X msg 330 167 0;
#X obj 258 62 tgl 15 0 empty empty empty 17 7 0 10 -260097 -1 -1 0
1;
#N canvas 4 50 806 378 ringmor_////////R 0;
#N canvas 4 300 495 254 passthruB 0;
#X obj 77 162 inlet~;
#X obj 77 204 outlet~;
#X obj 275 160 inlet;
#X obj 275 180 * -1;
#X obj 275 201 + 1;
#X obj 275 222 switch~;
#X obj 77 183 hip~ 10;
#X connect 0 0 6 0;
#X connect 2 0 3 0;
#X connect 3 0 4 0;
#X connect 4 0 5 0;
#X connect 6 0 1 0;
#X restore 305 193 pd passthruB;
#X obj 604 149 tgl 15 0 empty empty empty 17 7 0 10 -262144 -1 -1 0
1;
#X obj 305 113 inlet~;
#X obj 305 224 outlet~;
#N canvas 302 50 782 442 dsprocA 0;
#X obj 45 110 inlet~;
#X obj 77 333 outlet~;
#X obj 534 129 inlet;
#X obj 535 151 switch~;
#X obj 220 95 inlet;
#X obj 66 212 osc~ 60;
#X obj 58 251 *~;
#X obj 77 312 hip~ 15;
#X connect 0 0 6 0;
#X connect 2 0 3 0;
#X connect 4 0 5 0;
#X connect 5 0 6 1;
#X connect 6 0 7 0;
#X connect 7 0 1 0;
#X restore 396 193 pd dsprocA;
#X obj 604 125 inlet;
#X obj 407 127 inlet;
#X connect 0 0 3 0;
#X connect 1 0 0 1;
#X connect 1 0 4 2;
#X connect 2 0 0 0;
#X connect 2 0 4 0;
#X connect 4 0 3 0;
#X connect 5 0 1 0;
#X connect 6 0 4 1;
#X restore 104 195 pd ringmor_////////R;
#N canvas 699 395 411 168 synthi///////R 0;
#N canvas 0 298 495 254 passthruB 0;
#X obj 77 162 inlet~;
#X obj 77 183 hip~ 5;
#X obj 77 204 outlet~;
#X obj 275 160 inlet;
#X obj 275 180 * -1;
#X obj 275 201 + 1;
#X obj 275 222 switch~;
#X connect 0 0 1 0;
#X connect 1 0 2 0;
#X connect 3 0 4 0;
#X connect 4 0 5 0;
#X connect 5 0 6 0;
#X restore 28 131 pd passthruB;
#X obj 195 108 tgl 15 0 empty empty empty 17 7 0 10 -262144 -1 -1 0
1;
#X obj 61 57 inlet~;
#X obj 46 193 outlet~;
#N canvas 162 77 1022 607 dsprocA 0;
#X obj 301 396 outlet~;
#X obj 647 173 inlet;
#X obj 647 191 switch~;
#X obj 297 303 inlet~;
#X msg 380 336 0;
#X msg 381 359 1;
#X msg 381 383 2;
#X msg 381 408 3;
#X msg 380 433 4;
#X text 415 335 ->a;
#X text 416 361 ->e;
#X text 415 384 ->i;
#X text 414 410 ->o;
#X text 414 435 ->u;
#X obj 298 342 vowel~ 0;
#X obj 300 373 *~ 0.2;
#X obj 611 220 int;
#X obj 611 240 change;
#X obj 299 322 *~ 4;
#X obj 611 192 * 4;
#X obj 611 173 inlet;
#X connect 1 0 2 0;
#X connect 3 0 18 0;
#X connect 4 0 14 1;
#X connect 5 0 14 1;
#X connect 6 0 14 1;
#X connect 7 0 14 1;
#X connect 8 0 14 1;
#X connect 14 0 15 0;
#X connect 15 0 0 0;
#X connect 16 0 17 0;
#X connect 17 0 14 1;
#X connect 18 0 14 0;
#X connect 19 0 16 0;
#X connect 20 0 19 0;
#X restore 132 131 pd dsprocA;
#X obj 195 85 inlet;
#X obj 146 76 inlet;
#X connect 0 0 3 0;
#X connect 1 0 0 1;
#X connect 1 0 4 2;
#X connect 2 0 0 0;
#X connect 2 0 4 0;
#X connect 4 0 3 0;
#X connect 5 0 1 0;
#X connect 6 0 4 1;
#X restore 105 213 pd synthi///////R;
#X obj 276 63 tgl 15 0 empty empty empty 17 7 0 10 -262144 -1 -1 0
1;
#N canvas 173 575 720 403 selektor 0;
#X obj -135 -83 int;
#X obj -184 -12 sel 1;
#X msg -193 11 1;
#X msg -149 13 0;
#X obj -184 40 tgl 15 0 empty empty empty 17 7 0 10 -262144 -1 -1 0
1;
#X msg -112 13 1;
#X msg -68 15 0;
#X obj -87 42 tgl 15 0 empty empty empty 17 7 0 10 -262144 -1 -1 0
1;
#X obj -104 -11 sel 2;
#X msg -33 15 1;
#X msg 10 18 0;
#X obj -8 44 tgl 15 0 empty empty empty 17 7 0 10 -262144 -1 -1 0 1
;
#X obj -24 -9 sel 3;
#X msg 73 2 1;
#X msg 117 4 0;
#X obj 98 31 tgl 15 0 empty empty empty 17 7 0 10 -262144 -1 -1 0 1
;
#X obj 81 -22 sel 4;
#X msg -272 13 1;
#X msg -228 15 0;
#X obj -261 47 tgl 15 0 empty empty empty 17 7 0 10 -262144 -1 -1 1
1;
#X obj -263 -11 sel 0;
#X obj -88 96 outlet;
#X obj -20 99 outlet;
#X obj 39 99 outlet;
#X obj -260 99 outlet;
#X obj -177 94 outlet;
#X obj 83 -81 r wig4;
#X msg 83 -53 4;
#X msg 35 -8 0;
#N canvas 1115 534 153 272 timeofineract 0;
#X obj 14 20 f;
#X obj 44 20 +;
#X obj 14 -1 t b f;
#X msg 13 -21 1;
#X msg 66 -29 0;
#X obj 20 -122 inlet;
#X obj 65 -122 inlet;
#X obj 12 -150 r ssec;
#X obj 15 52 outlet;
#X obj 13 -42 spigot;
#X msg 23 -100 1;
#X msg 22 -76 0;
#X obj 67 -101 t b b;
#X connect 0 0 1 1;
#X connect 0 0 8 0;
#X connect 1 0 0 1;
#X connect 2 0 0 0;
#X connect 2 1 1 0;
#X connect 3 0 2 0;
#X connect 4 0 0 0;
#X connect 5 0 10 0;
#X connect 6 0 12 0;
#X connect 7 0 9 0;
#X connect 9 0 3 0;
#X connect 10 0 9 1;
#X connect 11 0 9 1;
#X connect 12 0 4 0;
#X connect 12 1 11 0;
#X restore 165 -67 pd timeofineract;
#X floatatom 165 -45 5 0 0 0 - - -;
#X obj 218 -10 r nointe;
#X obj -135 -106 * 4;
#X obj 165 -22 sel 20;
#X obj -32 -71 s chfx;
#X obj -63 -96 change;
#X obj 188 96 outlet;
#X obj -249 -102 inlet;
#X floatatom -244 -71 5 0 0 0 - - -;
#X obj -180 -110 r fad4;
#X connect 0 0 1 0;
#X connect 0 0 8 0;
#X connect 0 0 12 0;
#X connect 0 0 20 0;
#X connect 0 0 16 0;
#X connect 0 0 35 0;
#X connect 0 0 36 0;
#X connect 1 0 2 0;
#X connect 1 1 3 0;
#X connect 2 0 4 0;
#X connect 3 0 4 0;
#X connect 4 0 25 0;
#X connect 5 0 7 0;
#X connect 6 0 7 0;
#X connect 7 0 21 0;
#X connect 8 0 5 0;
#X connect 8 1 6 0;
#X connect 9 0 11 0;
#X connect 10 0 11 0;
#X connect 11 0 22 0;
#X connect 12 0 9 0;
#X connect 12 1 10 0;
#X connect 13 0 15 0;
#X connect 14 0 15 0;
#X connect 15 0 23 0;
#X connect 16 0 13 0;
#X connect 16 0 28 0;
#X connect 16 1 14 0;
#X connect 17 0 19 0;
#X connect 18 0 19 0;
#X connect 19 0 24 0;
#X connect 20 0 17 0;
#X connect 20 1 18 0;
#X connect 26 0 27 0;
#X connect 26 0 29 0;
#X connect 27 0 16 0;
#X connect 29 0 30 0;
#X connect 30 0 33 0;
#X connect 31 0 14 0;
#X connect 32 0 0 0;
#X connect 33 0 29 1;
#X connect 33 0 14 0;
#X connect 35 0 34 0;
#X connect 37 0 0 0;
#X connect 39 0 32 0;
#X restore 256 29 pd selektor;
#N canvas 38 151 806 378 pfazer_////////R 0;
#N canvas 4 300 495 254 passthruB 0;
#X obj 77 162 inlet~;
#X obj 77 183 hip~ 5;
#X obj 77 204 outlet~;
#X obj 275 160 inlet;
#X obj 275 180 * -1;
#X obj 275 201 + 1;
#X obj 275 222 switch~;
#X connect 0 0 1 0;
#X connect 1 0 2 0;
#X connect 3 0 4 0;
#X connect 4 0 5 0;
#X connect 5 0 6 0;
#X restore 305 193 pd passthruB;
#X obj 470 179 tgl 15 0 empty empty empty 17 7 0 10 -262144 -1 -1 0
1;
#X obj 314 156 inlet~;
#X obj 305 224 outlet~;
#N canvas 314 242 782 442 dsprocA 0;
#X obj 75 256 inlet~;
#X obj 79 381 hip~ 5;
#X obj 79 402 outlet~;
#X obj 372 151 inlet;
#X obj 355 185 switch~;
#N canvas 492 217 694 637 phaser 0;
#X text 503 629 updated for Pd version 0.39;
#X text 194 10 PHASER;
#N canvas 876 177 375 255 startup 0;
#X obj 24 26 loadbang;
#X obj 24 53 bng 15 250 50 0 empty empty empty 0 -6 0 8 -262144 -1
-1;
#X obj 24 74 f \$0;
#X text 39 215 This subpatch loads initial;
#X text 34 241 values in number boxes.;
#X msg 24 100 \; \$1-pole 80;
#X connect 0 0 1 0;
#X connect 1 0 2 0;
#X connect 2 0 5 0;
#X restore 354 602 pd startup;
#X obj 114 369 rpole~;
#X obj 114 341 rzero_rev~;
#X obj 114 422 rpole~;
#X obj 114 395 rzero_rev~;
#X obj 114 475 rpole~;
#X obj 114 448 rzero_rev~;
#X obj 114 529 rpole~;
#X obj 114 502 rzero_rev~;
#X obj 89 562 +~;
#X text 256 14 The phaser ranks \, along with fuzz and wah-wah \, as
one of the great guitar pedals. A phaser simply adds an all-passed
copy of the signal to the original \, making phase reinforcement and
cancellation at frequencies that depend on the all-pass coefficients.
In this example the coefficients range from 0.88 to 0.98 \, controlled
by a phasor~ object (no relation). The phasor~ is converted to a symmetrical
triangle wave (abs($v1-0.5)) and then ranged appropriately.;
#X obj 207 399 phasor~ 0.3;
#X text 34 185 Many variations of this have been invented. A deeper
effect can be obtained by using 12 all-pass filters and adding the
outputs of the 4th \, 8th. and 12th one to the original. Various stereo
configurations are possible. Some people use 6 instead of the 4 stages
used here. Controls can be added to change the frequency of sweeping
and the range of the all-pass coeefficients.;
#X obj 204 427 expr~ 1 - 0.03 - 0.6*abs($v1-0.5)*abs($v1-0.5);
#X obj 339 341 hsl 128 15 0 127 0 0 empty empty empty -2 -8 0 10 -262144
-1 -1 0 1;
#X floatatom 375 397 5 0 0 0 - - -;
#X text 249 250 4;
#X obj 58 327 inlet~;
#X obj 267 311 inlet;
#X obj 91 612 outlet~;
#X obj 333 376 / 55;
#X obj 496 288 pack 0 555;
#X obj 499 311 line;
#X obj 526 261 * 4;
#X obj 494 237 inlet;
#X connect 3 0 6 0;
#X connect 4 0 3 0;
#X connect 5 0 8 0;
#X connect 6 0 5 0;
#X connect 7 0 10 0;
#X connect 8 0 7 0;
#X connect 9 0 11 1;
#X connect 10 0 9 0;
#X connect 11 0 21 0;
#X connect 13 0 15 0;
#X connect 15 0 4 1;
#X connect 15 0 3 1;
#X connect 15 0 6 1;
#X connect 15 0 5 1;
#X connect 15 0 8 1;
#X connect 15 0 7 1;
#X connect 15 0 10 1;
#X connect 15 0 9 1;
#X connect 16 0 22 0;
#X connect 19 0 4 0;
#X connect 19 0 11 0;
#X connect 20 0 13 0;
#X connect 22 0 13 1;
#X connect 22 0 17 0;
#X connect 23 0 24 0;
#X connect 24 0 17 0;
#X connect 24 0 13 1;
#X connect 25 0 23 0;
#X connect 26 0 25 0;
#X coords 0 0 1 1 88 26 0;
#X restore 77 287 pd phaser;
#X obj 215 216 inlet;
#X obj 68 323 *~ 0.6;
#X connect 0 0 5 0;
#X connect 1 0 2 0;
#X connect 3 0 4 0;
#X connect 5 0 7 0;
#X connect 6 0 5 2;
#X connect 7 0 1 0;
#X restore 396 193 pd dsprocA;
#X obj 470 160 inlet;
#X obj 424 128 inlet;
#X connect 0 0 3 0;
#X connect 1 0 0 1;
#X connect 1 0 4 2;
#X connect 2 0 0 0;
#X connect 2 0 4 0;
#X connect 4 0 3 0;
#X connect 5 0 1 0;
#X connect 6 0 4 1;
#X restore 103 175 pd pfazer_////////R;
#X obj 416 154 sel 0 1 2 3 4;
#X msg 428 197 symbol phaser;
#X msg 443 221 symbol Ring;
#X msg 456 243 symbol Vowel;
#X msg 471 262 symbol Bitcrush;
#X obj 106 233 outlet~;
#X obj 103 137 inlet~;
#X obj 364 96 loadbang, f 14;
#X obj 413 11 r knob1;
#X obj 463 12 r knob2;
#X obj 512 12 r knob3;
#X obj 560 12 r knob4;
#X obj 412 30 spigot;
#X obj 463 30 spigot;
#X obj 511 31 spigot;
#X obj 560 31 spigot;
#X obj 634 47 sel \$1;
#X obj 632 11 r chan, f 10;
#X obj 719 12 r chen;
#X obj 717 30 moses 6;
#X msg 638 69 1;
#X msg 665 69 0;
#X msg 725 78 1;
#X msg 768 80 0;
#X obj 643 141 tgl 15 0 empty empty empty 17 7 0 10 -257985 -1 -1 0
1;
#X obj 726 95 t b f;
#X obj 668 29 f \$1;
#X obj 633 29 t f b;
#X obj 641 87 +;
#X obj 642 105 sel 2;
#X msg 639 122 1;
#X msg 657 124 0;
#X obj 416 133 int;
#X obj 551 53 * 10;
#X obj 542 70 int;
#X obj 412 48 * 4;
#X obj 725 60 sel 17;
#X obj 463 108 mtof;
#X obj 463 89 * 80;
#X obj 421 306 pack s f;
#X obj 505 122 * 99;
#X obj 505 142 int, f 4;
#X obj 350 212 t b;
#X msg 420 324 FX:\$1//amt:\$2%;
#X obj 420 342 s screenLine4;
#X obj 566 334 s screenLine3;
#X obj 566 353 s screenLine5;
#X msg 416 176 symbol 00FF;
#X obj 566 314 s screenLine2;
#X msg 704 313 . . . . . . . . . . .;
#X obj 180 60 tgl 15 0 empty empty empty 17 7 0 10 -257985 -1 -1 1
1;
#X obj 355 12 inlet;
#X msg 355 45 0;
#X msg 704 296 . . . Insert Fx . . . . .;
#X obj 623 164 t f;
#X obj 622 180 change;
#X obj 622 198 sel 1 0;
#X obj 621 216 bng 15 250 50 0 empty empty empty 17 7 0 10 -262144
-1 -1;
#X obj 647 216 bng 15 250 50 0 empty empty empty 17 7 0 10 -262144
-1 -1;
#X obj 665 260 delay 5;
#X connect 0 0 11 0;
#X connect 1 0 0 2;
#X connect 2 0 11 2;
#X connect 3 0 5 0;
#X connect 3 0 64 0;
#X connect 3 1 4 0;
#X connect 4 0 2 0;
#X connect 4 0 1 0;
#X connect 4 0 6 0;
#X connect 4 0 9 0;
#X connect 5 0 2 0;
#X connect 5 0 1 0;
#X connect 5 0 6 0;
#X connect 5 0 9 0;
#X connect 6 0 7 2;
#X connect 7 0 8 0;
#X connect 8 0 17 0;
#X connect 9 0 8 2;
#X connect 10 0 62 0;
#X connect 10 1 2 0;
#X connect 10 2 6 0;
#X connect 10 3 9 0;
#X connect 10 4 1 0;
#X connect 10 5 12 0;
#X connect 11 0 7 0;
#X connect 12 0 59 0;
#X connect 12 1 13 0;
#X connect 12 2 14 0;
#X connect 12 3 15 0;
#X connect 12 4 16 0;
#X connect 13 0 51 0;
#X connect 14 0 51 0;
#X connect 15 0 51 0;
#X connect 16 0 51 0;
#X connect 18 0 0 0;
#X connect 19 0 3 0;
#X connect 20 0 24 0;
#X connect 21 0 25 0;
#X connect 22 0 26 0;
#X connect 23 0 27 0;
#X connect 24 0 47 0;
#X connect 25 0 0 1;
#X connect 25 0 11 1;
#X connect 25 0 50 0;
#X connect 25 0 52 0;
#X connect 25 0 8 1;
#X connect 27 0 45 0;
#X connect 28 0 32 0;
#X connect 28 1 33 0;
#X connect 29 0 39 0;
#X connect 30 0 31 0;
#X connect 31 1 48 0;
#X connect 32 0 40 0;
#X connect 33 0 40 0;
#X connect 34 0 37 0;
#X connect 35 0 37 0;
#X connect 36 0 27 1;
#X connect 36 0 26 1;
#X connect 36 0 25 1;
#X connect 36 0 24 1;
#X connect 36 0 66 0;
#X connect 37 0 40 0;
#X connect 37 1 40 1;
#X connect 38 0 28 1;
#X connect 39 0 28 0;
#X connect 39 1 38 0;
#X connect 40 0 41 0;
#X connect 41 0 42 0;
#X connect 41 1 43 0;
#X connect 42 0 36 0;
#X connect 43 0 36 0;
#X connect 44 0 12 0;
#X connect 44 0 10 0;
#X connect 45 0 46 0;
#X connect 47 0 44 0;
#X connect 48 0 34 0;
#X connect 48 1 35 0;
#X connect 49 0 7 1;
#X connect 50 0 49 0;
#X connect 51 0 55 0;
#X connect 52 0 53 0;
#X connect 53 0 51 1;
#X connect 53 0 54 0;
#X connect 54 0 51 0;
#X connect 55 0 56 0;
#X connect 59 0 51 0;
#X connect 61 0 57 0;
#X connect 61 0 58 0;
#X connect 63 0 64 0;
#X connect 64 0 10 0;
#X connect 65 0 60 0;
#X connect 66 0 67 0;
#X connect 67 0 68 0;
#X connect 68 0 69 0;
#X connect 68 0 71 0;
#X connect 68 1 60 0;
#X connect 68 1 57 0;
#X connect 68 1 58 0;
#X connect 68 1 70 0;
#X connect 71 0 65 0;
#X connect 71 0 61 0;
#X connect 71 0 54 0;
#X restore -245 508 pd Fxxxx;
#X text -281 700 servando Barreiro 2013 / 2015 /2020;
#X msg 365 313 bang, f 5;
#X obj -84 12 r flush, f 29;
#X msg 127 441 3000;
#X msg 570 170 Attack:\$1;
#X msg 594 186 Decay:\$1;
#X msg 631 202 Loop:\$1;
#X msg 647 219 Start.Point:\$1;
#X obj -114 42 delay 333;
#X msg -120 314 0;
#X obj -13 486 *;
#X obj -75 500 +;
#X obj -72 409 t b;
#X obj 200 475 mod 5;
#X obj 202 493 + 1;
#X floatatom 251 418 5 0 0 0 - - -;
#X obj 201 455 - 1;
#X floatatom 251 402 5 0 0 0 - - -;
#X obj 343 420 symbol;
#X obj 343 440 t s b;
#X obj 368 459 delay 999;
#X obj 529 367 delay 666;
#X msg 641 77 symbol Smplr;
#X obj 145 104 cnv 8 14 14 empty empty s3s4 2 7 0 11 -228856 -260097
0;
#X obj 457 331 t b b;
#X obj 444 173 t f;
#X obj 445 191 change;
#X obj 446 210 sel 1 0;
#X obj 627 290 delay 15;
#X obj 458 243 bng 15 250 50 0 empty empty empty 17 7 0 10 -262144
-1 -1;
#X obj 434 242 bng 15 250 50 0 empty empty empty 17 7 0 10 -262144
-1 -1;
#X obj -159 496 tgl 15 0 empty empty empty 17 7 0 10 -262144 -1 -1
0 1;
#X obj -125 513 sel 1;
#X obj -162 514 sig~;
#X msg -128 533 1;
#X msg -99 533 0;
#X msg 626 310 <-Start Loop Att Dec;
#X connect 2 0 15 0;
#X connect 2 0 107 1;
#X connect 2 0 164 1;
#X connect 2 0 16 1;
#X connect 3 0 33 0;
#X connect 4 0 3 0;
#X connect 5 0 65 0;
#X connect 6 0 65 0;
#X connect 7 0 65 0;
#X connect 8 0 65 0;
#X connect 9 0 65 3;
#X connect 9 0 165 1;
#X connect 9 0 166 0;
#X connect 10 0 65 1;
#X connect 11 0 65 2;
#X connect 15 0 21 0;
#X connect 16 0 165 0;
#X connect 17 0 11 0;
#X connect 18 0 10 0;
#X connect 19 0 9 0;
#X connect 20 0 65 0;
#X connect 20 0 105 0;
#X connect 21 0 163 0;
#X connect 22 0 41 0;
#X connect 23 0 20 0;
#X connect 23 1 41 0;
#X connect 24 0 153 0;
#X connect 25 0 20 0;
#X connect 25 1 106 0;
#X connect 26 0 41 0;
#X connect 26 0 23 0;
#X connect 27 0 26 1;
#X connect 27 0 28 0;
#X connect 27 0 141 0;
#X connect 28 0 29 0;
#X connect 29 0 41 0;
#X connect 30 0 31 0;
#X connect 31 0 6 0;
#X connect 31 1 7 0;
#X connect 32 0 39 0;
#X connect 33 0 36 0;
#X connect 34 0 33 1;
#X connect 35 0 24 0;
#X connect 36 0 2 0;
#X connect 39 0 33 0;
#X connect 39 1 34 0;
#X connect 41 0 5 0;
#X connect 42 0 43 0;
#X connect 42 0 44 0;
#X connect 42 0 145 0;
#X connect 43 0 40 0;
#X connect 44 1 25 0;
#X connect 65 0 35 0;
#X connect 66 0 24 1;
#X connect 67 0 71 0;
#X connect 68 0 72 0;
#X connect 69 0 73 0;
#X connect 70 0 74 0;
#X connect 71 0 108 0;
#X connect 71 0 117 0;
#X connect 72 0 109 0;
#X connect 72 0 119 0;
#X connect 73 0 111 0;
#X connect 73 0 121 0;
#X connect 74 0 110 0;
#X connect 74 0 123 0;
#X connect 75 0 80 0;
#X connect 75 0 176 0;
#X connect 75 1 81 0;
#X connect 76 0 87 0;
#X connect 77 0 79 0;
#X connect 78 0 82 0;
#X connect 78 1 83 0;
#X connect 79 1 78 0;
#X connect 80 0 88 0;
#X connect 81 0 88 0;
#X connect 82 0 85 0;
#X connect 83 0 85 0;
#X connect 84 0 74 1;
#X connect 84 0 73 1;
#X connect 84 0 72 1;
#X connect 84 0 71 1;
#X connect 84 0 134 1;
#X connect 84 0 179 0;
#X connect 85 0 88 0;
#X connect 85 1 88 1;
#X connect 86 0 75 1;
#X connect 87 0 75 0;
#X connect 87 1 86 0;
#X connect 88 0 89 0;
#X connect 89 0 90 0;
#X connect 89 1 91 0;
#X connect 90 0 84 0;
#X connect 91 0 84 0;
#X connect 94 0 30 0;
#X connect 97 0 100 0;
#X connect 98 0 97 0;
#X connect 99 0 97 1;
#X connect 100 0 103 0;
#X connect 100 0 138 0;
#X connect 100 0 171 0;
#X connect 101 0 104 0;
#X connect 102 0 170 0;
#X connect 103 0 102 0;
#X connect 103 1 101 1;
#X connect 104 0 33 0;
#X connect 105 0 66 0;
#X connect 105 0 66 1;
#X connect 106 0 26 0;
#X connect 107 0 131 0;
#X connect 108 0 112 0;
#X connect 108 0 164 0;
#X connect 109 0 16 0;
#X connect 109 0 94 0;
#X connect 110 0 114 0;
#X connect 110 0 186 0;
#X connect 111 0 115 0;
#X connect 112 0 113 0;
#X connect 113 0 43 1;
#X connect 114 0 105 2;
#X connect 115 0 105 1;
#X connect 116 0 110 0;
#X connect 117 0 118 0;
#X connect 118 0 161 0;
#X connect 119 0 120 0;
#X connect 120 0 160 0;
#X connect 121 0 122 0;
#X connect 122 0 158 0;
#X connect 123 0 124 0;
#X connect 124 0 159 0;
#X connect 125 0 107 2;
#X connect 127 0 126 0;
#X connect 128 0 127 0;
#X connect 129 0 127 0;
#X connect 130 0 127 0;
#X connect 131 0 130 0;
#X connect 131 0 137 0;
#X connect 131 1 129 0;
#X connect 131 1 155 0;
#X connect 132 0 27 0;
#X connect 132 0 97 2;
#X connect 133 0 134 0;
#X connect 134 0 125 0;
#X connect 134 0 140 0;
#X connect 135 0 172 0;
#X connect 137 0 151 0;
#X connect 138 0 150 0;
#X connect 139 0 27 0;
#X connect 140 0 98 0;
#X connect 140 1 99 0;
#X connect 140 2 27 0;
#X connect 141 0 150 0;
#X connect 143 0 146 0;
#X connect 143 0 147 0;
#X connect 143 0 108 0;
#X connect 143 0 109 0;
#X connect 143 0 111 0;
#X connect 145 0 146 0;
#X connect 146 0 147 0;
#X connect 147 0 144 0;
#X connect 148 0 147 0;
#X connect 149 0 8 0;
#X connect 149 0 22 0;
#X connect 149 0 34 0;
#X connect 149 0 157 0;
#X connect 149 0 132 0;
#X connect 149 0 107 0;
#X connect 149 0 116 0;
#X connect 149 0 139 0;
#X connect 149 0 143 0;
#X connect 149 0 162 0;
#X connect 150 0 152 0;
#X connect 152 0 151 0;
#X connect 152 1 175 0;
#X connect 153 0 64 0;
#X connect 155 0 151 0;
#X connect 156 0 153 1;
#X connect 156 0 162 0;
#X connect 157 0 16 1;
#X connect 157 0 164 1;
#X connect 158 0 150 0;
#X connect 159 0 150 0;
#X connect 160 0 150 0;
#X connect 161 0 150 0;
#X connect 162 0 143 0;
#X connect 163 0 18 0;
#X connect 163 0 17 0;
#X connect 163 0 19 0;
#X connect 163 0 109 0;
#X connect 164 0 19 0;
#X connect 164 0 18 0;
#X connect 165 0 11 0;
#X connect 166 0 165 0;
#X connect 167 0 168 0;
#X connect 168 0 169 0;
#X connect 168 0 101 0;
#X connect 170 0 167 0;
#X connect 172 0 173 0;
#X connect 173 0 136 0;
#X connect 173 1 174 0;
#X connect 174 0 136 0;
#X connect 175 0 151 0;
#X connect 176 0 95 0;
#X connect 178 0 151 0;
#X connect 178 0 92 0;
#X connect 178 1 92 0;
#X connect 178 1 151 0;
#X connect 179 0 180 0;
#X connect 180 0 181 0;
#X connect 181 0 135 0;
#X connect 181 0 178 0;
#X connect 181 0 182 0;
#X connect 181 0 184 0;
#X connect 181 1 93 0;
#X connect 181 1 183 0;
#X connect 182 0 190 0;
#X connect 185 0 187 0;
#X connect 186 0 188 0;
#X connect 186 1 189 0;
#X connect 187 0 24 1;
#X connect 188 0 185 0;
#X connect 189 0 185 0;
#X connect 190 0 93 0;
#X coords 0 -1 1 1 100 100 2 100 100;
