#N canvas 168 61 1275 796 10;
#X obj 101 101 cnv 15 97 97 empty empty empty 20 12 0 14 -33289 -66577
0;
#X obj 103 103 cnv 15 93 93 empty empty empty 20 12 0 14 -228856 -66577
0;
#X obj 185 534 soundfiler;
#X obj 141 413 openpanel;
#X obj 159 104 bng 15 250 50 0 empty empty load 4 8 0 8 -258113 -1
-1;
#X obj -235 401 mtosr 44100;
#X msg -270 362 type 0;
#X msg -270 381 type 1;
#X msg -280 88 44100;
#X floatatom -100 383 5 0 0 0 - - -;
#X floatatom -185 383 6 0 0 0 - - -;
#X floatatom -139 383 6 0 0 0 - - -;
#X text -205 369 loopstart;
#X text -149 369 loopend;
#X text -102 369 startpos;
#X floatatom -95 262 5 0 0 0 - - -;
#X obj -59 467 *;
#X obj -138 355 int;
#X obj -183 355 int;
#X obj -95 354 int;
#X msg -272 343 bang;
#X obj -114 292 t b;
#X msg -180 239 60;
#X obj -278 493 *~;
#X obj -266 171 t b f;
#X obj -260 278 spigot;
#X obj -223 255 tgl 13 0 empty empty pit 3 7 0 6 -4034 -1 -1 0 1;
#X obj -228 299 tgl 15 0 empty empty empty 17 7 0 10 -262144 -1 -1
0 1;
#X obj -233 322 sel 0 1;
#X obj 184 499 pack s f;
#X obj 96 456 f \$0;
#X obj -283 438 tabread4~ \$0sa;
#X obj 179 103 cnv 8 14 14 empty \$0-met16 \$1 4 7 0 10 -128992 -260097
0;
#X obj -260 299 nbx 2 14 0 127 0 0 empty empty empty 0 -8 0 10 -1 -257985
-260097 62 256;
#X obj -248 18 r seq\$1;
#X obj -249 131 moses 3;
#X text 615 875 http://servando.teks.no;
#X text 625 885 http://servando.teks.no;
#X text 635 895 http://servando.teks.no;
#X text 645 905 http://servando.teks.no;
#X text 607 863 http://servando.teks.no;
#X text 665 855 http://servando.teks.no;
#X text 675 865 http://servando.teks.no;
#X text 685 875 http://servando.teks.no;
#X text 695 885 http://servando.teks.no;
#X text 705 895 http://servando.teks.no;
#X text 715 905 http://servando.teks.no;
#X text 725 915 http://servando.teks.no;
#X text 735 925 http://servando.teks.no;
#X text 787 60 http://servando.teks.no;
#X text 797 70 http://servando.teks.no;
#X text 807 80 http://servando.teks.no;
#X text 817 90 http://servando.teks.no;
#X text 785 873 http://servando.teks.no;
#X text 794 883 http://servando.teks.no;
#X obj -283 418 susloop~ 4000 12000;
#X obj -232 468 *~;
#X obj 489 151 tgl 22 0 empty empty empty 17 7 0 10 -257985 -1 -1 0
1;
#X obj 501 317 s screenLine5;
#X obj -199 282 sel 1;
#X obj 809 251 s syntyp;
#X obj 199 357 bng 15 250 50 0 empty empty empty 17 7 0 10 -262144
-1 -1;
#X obj 274 358 bng 15 250 50 0 empty empty empty 17 7 0 10 -262144
-1 -1;
#X obj 201 393 + 1;
#X obj 201 459 pack f f;
#X obj 201 435 f \$1;
#X obj 201 414 t b f;
#X msg 200 477 \$1/\$2.wav;
#N canvas 140 79 1063 558 env 0;
#X obj -113 427 f;
#X msg -131 344 bang;
#X obj -131 547 vline~;
#X msg -131 518 1 \$1 \, 0 \$2 \$1;
#X obj -131 485 pack f f;
#X text -56 338 ATTACK;
#X obj -128 592 outlet~;
#X obj 30 55 t b f;
#X text -129 90 TRIGGER ENVELOPE;
#X obj 97 42 inlet;
#X obj 30 32 inlet;
#X obj -131 110 inlet;
#X connect 0 0 4 0;
#X connect 1 0 0 0;
#X connect 2 0 6 0;
#X connect 3 0 2 0;
#X connect 4 0 3 0;
#X connect 7 0 0 0;
#X connect 7 1 0 1;
#X connect 9 0 4 1;
#X connect 10 0 7 0;
#X connect 11 0 1 0;
#X restore -177 454 pd env;
#X obj -260 260 + 12;
#N canvas 273 183 925 440 rekorder 0;
#X obj 51 298 tabwrite~ \$0sa;
#X msg 180 166 stop;
#X obj 301 140 inlet;
#X obj 720 36 tgl 15 0 empty empty empty 17 7 0 10 -262144 -1 -1 0
1;
#X obj 299 203 sel 1;
#X obj 706 115 s oscOut;
#X msg 706 96 send /led \$1;
#X obj 740 79 hradio 15 1 0 8 empty empty empty 0 -8 0 10 -262144 -1
-1 0;
#X msg 716 79 0;
#X msg 709 78 5;
#X obj 720 58 sel 1;
#X msg 146 166 start;
#X obj 495 12 inlet;
#X obj 314 26 spigot;
#N canvas 402 288 603 250 shft+ 0;
#X obj 461 117 r aux;
#X obj 408 11 r notes;
#X obj 408 31 unpack;
#X obj 408 134 spigot;
#X obj 408 84 tgl 15 0 empty empty empty 17 7 0 10 -262144 -1 -1 0
1;
#X obj 408 105 sel 1;
#X obj 407 156 outlet;
#X floatatom 478 47 5 0 0 0 - - -;
#X obj 408 60 sel 70;
#X connect 0 0 3 1;
#X connect 1 0 2 0;
#X connect 2 0 7 0;
#X connect 2 0 8 0;
#X connect 3 0 6 0;
#X connect 4 0 5 0;
#X connect 5 0 3 0;
#X connect 8 0 4 0;
#X restore 314 6 pd shft+ >;
#X obj 83 8 bng 15 250 50 0 empty empty empty 17 7 0 10 -262144 -1
-1;
#N canvas 78 556 571 292 ininini 0;
#N canvas 422 281 727 277 selektor 0;
#X obj -135 -83 int;
#X obj -184 -12 sel 1;
#X msg -193 11 1;
#X msg -149 13 0;
#X obj -184 40 tgl 15 0 empty empty empty 17 7 0 10 -262144 -1 -1 0
1;
#X msg -112 13 1;
#X msg -68 15 0;
#X obj -87 42 tgl 15 0 empty empty empty 17 7 0 10 -262144 -1 -1 0
1;
#X obj -104 -11 sel 2;
#X msg -20 61 1;
#X msg 0 61 0;
#X obj -19 78 tgl 15 0 empty empty empty 17 7 0 10 -262144 -1 -1 0
1;
#X obj -21 43 sel 3;
#X msg 33 59 1;
#X msg 57 59 0;
#X obj 32 79 tgl 15 0 empty empty empty 17 7 0 10 -262144 -1 -1 0 1
;
#X obj 32 40 sel 4;
#X msg -272 13 1;
#X msg -228 15 0;
#X obj -261 47 tgl 15 0 empty empty empty 17 7 0 10 -262144 -1 -1 1
1;
#X obj -263 -11 sel 0;
#X obj -88 96 outlet;
#X obj -20 95 outlet;
#X obj 31 97 outlet;
#X obj -260 99 outlet;
#X obj -177 94 outlet;
#X obj -16 -67 s chfx;
#X obj -16 -86 change;
#X obj -249 -102 inlet;
#X connect 0 0 1 0;
#X connect 0 0 8 0;
#X connect 0 0 12 0;
#X connect 0 0 20 0;
#X connect 0 0 16 0;
#X connect 1 0 2 0;
#X connect 1 1 3 0;
#X connect 2 0 4 0;
#X connect 3 0 4 0;
#X connect 4 0 25 0;
#X connect 5 0 7 0;
#X connect 6 0 7 0;
#X connect 7 0 21 0;
#X connect 8 0 5 0;
#X connect 8 1 6 0;
#X connect 9 0 11 0;
#X connect 10 0 11 0;
#X connect 11 0 22 0;
#X connect 12 0 9 0;
#X connect 12 1 10 0;
#X connect 13 0 15 0;
#X connect 14 0 15 0;
#X connect 15 0 23 0;
#X connect 16 0 13 0;
#X connect 16 1 14 0;
#X connect 17 0 19 0;
#X connect 18 0 19 0;
#X connect 19 0 24 0;
#X connect 20 0 17 0;
#X connect 20 1 18 0;
#X connect 27 0 26 0;
#X connect 28 0 0 0;
#X restore 237 19 pd selektor;
#X obj 238 1 inlet;
#X obj 237 48 tgl 15 0 empty empty empty 17 7 0 10 -262144 -1 -1 1
1;
#X obj 252 48 tgl 15 0 empty empty empty 17 7 0 10 -262144 -1 -1 0
1;
#X obj 266 48 tgl 15 0 empty empty empty 17 7 0 10 -262144 -1 -1 0
1;
#X obj 281 48 tgl 15 0 empty empty empty 17 7 0 10 -262144 -1 -1 0
1;
#X obj 300 46 tgl 15 0 empty empty empty 17 7 0 10 -262144 -1 -1 0
1;
#X obj 83 239 outlet~;
#X obj 82 191 *~;
#X obj 97 173 line~;
#X msg 96 154 \$1 12;
#X obj 48 14 adc~;
#X obj 81 132 +~;
#X obj 148 193 *~;
#X obj 163 175 line~;
#X msg 162 156 \$1 12;
#X obj 207 195 *~;
#X obj 222 176 line~;
#X msg 226 158 \$1 12;
#X obj 268 196 *~;
#X obj 283 177 line~;
#X msg 287 159 \$1 12;
#X obj 396 245 outlet;
#X obj 324 75 sel 1;
#X obj 367 87 sel 1;
#X obj 406 100 sel 1;
#X obj 458 114 sel 1;
#X msg 364 163 symbol L+R;
#X msg 378 182 symbol L;
#X msg 392 201 symbol R;
#X obj 326 5 loadbang;
#X msg 326 30 1;
#X obj 126 15 r~ rsm;
#X obj 305 206 *~;
#X obj 320 187 line~;
#X msg 324 169 \$1 12;
#X obj 504 125 sel 1;
#X msg 457 202 symbol Bus;
#X msg 471 221 symbol Rsm;
#X connect 0 0 2 0;
#X connect 0 1 3 0;
#X connect 0 2 4 0;
#X connect 0 3 5 0;
#X connect 0 4 6 0;
#X connect 1 0 0 0;
#X connect 2 0 10 0;
#X connect 2 0 23 0;
#X connect 3 0 15 0;
#X connect 3 0 24 0;
#X connect 4 0 18 0;
#X connect 4 0 25 0;
#X connect 5 0 21 0;
#X connect 5 0 26 0;
#X connect 6 0 35 0;
#X connect 6 0 36 0;
#X connect 8 0 7 0;
#X connect 9 0 8 1;
#X connect 10 0 9 0;
#X connect 11 0 12 0;
#X connect 11 0 13 0;
#X connect 11 1 12 1;
#X connect 11 1 16 0;
#X connect 12 0 8 0;
#X connect 13 0 7 0;
#X connect 14 0 13 1;
#X connect 15 0 14 0;
#X connect 16 0 7 0;
#X connect 17 0 16 1;
#X connect 18 0 17 0;
#X connect 19 0 7 0;
#X connect 20 0 19 1;
#X connect 21 0 20 0;
#X connect 23 0 27 0;
#X connect 24 0 28 0;
#X connect 25 0 29 0;
#X connect 26 0 37 0;
#X connect 27 0 22 0;
#X connect 28 0 22 0;
#X connect 29 0 22 0;
#X connect 30 0 31 0;
#X connect 31 0 2 0;
#X connect 32 0 33 0;
#X connect 33 0 7 0;
#X connect 34 0 33 1;
#X connect 35 0 34 0;
#X connect 36 0 38 0;
#X connect 37 0 22 0;
#X connect 38 0 22 0;
#X restore 51 91 pd ininini;
#N canvas 461 69 740 354 idnwr60 0;
#X obj 354 242 f;
#X obj 381 242 +;
#X obj 354 220 t b f;
#X msg 314 195 1;
#X msg 421 196 -1;
#X obj 354 364 outlet;
#X obj 314 48 inlet;
#X obj 421 48 inlet;
#X obj 616 64 inlet;
#X obj 359 145 tgl 15 0 empty empty empty 17 7 0 10 -262144 -1 -1 1
1;
#X obj 429 142 tgl 15 0 empty empty empty 17 7 0 10 -262144 -1 -1 1
1;
#X obj 330 165 spigot;
#X obj 397 164 spigot;
#X text 624 42 resetnum;
#X obj 615 100 t b;
#X msg 615 125 1;
#X msg 445 110 0;
#X msg 365 111 0;
#X obj 354 264 mod 5;
#X obj 504 217 sel 0 4;
#X connect 0 0 1 1;
#X connect 0 0 18 0;
#X connect 1 0 0 1;
#X connect 2 0 0 0;
#X connect 2 1 1 0;
#X connect 3 0 2 0;
#X connect 4 0 2 0;
#X connect 6 0 11 0;
#X connect 7 0 12 0;
#X connect 8 0 0 0;
#X connect 8 0 14 0;
#X connect 9 0 11 1;
#X connect 10 0 12 1;
#X connect 11 0 3 0;
#X connect 12 0 4 0;
#X connect 14 0 15 0;
#X connect 15 0 9 0;
#X connect 15 0 10 0;
#X connect 16 0 10 0;
#X connect 17 0 9 0;
#X connect 18 0 5 0;
#X connect 19 0 16 0;
#X connect 19 1 17 0;
#X connect 19 2 15 0;
#X restore 83 48 pd idnwr60;
#X floatatom 73 68 5 0 0 0 - - -;
#X msg 142 31 0;
#X obj 194 33 loadbang;
#X symbolatom 95 121 10 0 0 0 - - -;
#X obj 162 374 outlet;
#X obj 349 51 r fs;
#X obj 349 69 spigot;
#X obj 255 289 timer;
#X obj 255 322 * 44.1;
#X obj 329 170 tgl 15 0 empty empty empty 17 7 0 10 -262144 -1 -1 0
1;
#X obj 270 242 t b;
#X obj 280 252 t b;
#X obj 19 376 outlet~;
#X obj 347 394 outlet samps;
#X obj 264 392 outlet rec;
#X obj 146 233 spigot;
#X msg 204 91 1;
#X obj 446 223 tgl 15 0 empty empty empty 17 7 0 10 -262144 -1 -1 1
1;
#X obj 446 154 r lpmd\$1;
#X obj 501 189 sel 1;
#X msg 492 219 0;
#X msg 511 244 1;
#X connect 1 0 33 0;
#X connect 2 0 4 0;
#X connect 2 0 3 0;
#X connect 2 0 32 0;
#X connect 3 0 10 0;
#X connect 4 0 11 0;
#X connect 4 0 28 0;
#X connect 4 1 1 0;
#X connect 4 1 29 0;
#X connect 6 0 5 0;
#X connect 7 0 6 0;
#X connect 8 0 6 0;
#X connect 9 0 6 0;
#X connect 10 0 9 0;
#X connect 10 1 8 0;
#X connect 11 0 33 0;
#X connect 12 0 13 1;
#X connect 12 0 24 1;
#X connect 13 0 15 0;
#X connect 14 0 13 0;
#X connect 15 0 17 0;
#X connect 16 0 0 0;
#X connect 16 0 30 0;
#X connect 16 1 21 0;
#X connect 17 0 18 0;
#X connect 18 0 16 0;
#X connect 19 0 17 2;
#X connect 19 0 18 0;
#X connect 20 0 19 0;
#X connect 20 0 34 0;
#X connect 21 0 22 0;
#X connect 23 0 24 0;
#X connect 24 0 4 0;
#X connect 24 0 3 0;
#X connect 24 0 32 0;
#X connect 25 0 26 0;
#X connect 26 0 31 0;
#X connect 27 0 4 0;
#X connect 28 0 25 0;
#X connect 29 0 25 1;
#X connect 33 0 0 0;
#X connect 34 0 33 1;
#X connect 35 0 33 1;
#X connect 36 0 37 0;
#X connect 37 0 38 0;
#X connect 37 1 39 0;
#X connect 38 0 35 0;
#X connect 39 0 35 0;
#X restore 326 271 pd rekorder;
#X obj 107 146 hsl 85 10 0 1 0 0 empty empty empty 10 8 0 8 -228856
-33289 -33289 0 0;
#X obj 107 158 hsl 85 10 0 1 0 0 empty empty empty 10 8 0 8 -191407
-1 -1 0 0;
#X obj 107 182 hsl 85 10 0 1 0 0 empty empty empty 10 6 0 8 -66577
-260097 -1 4056 0;
#X obj 106 170 hsl 85 10 0 1 0 0 empty empty empty 10 6 0 8 -66577
-260097 -1 0 0;
#X obj -111 425 * 999;
#X obj -151 426 * 444;
#X msg 42 75 0.5;
#X obj 237 65 * 10;
#X obj 235 82 int;
#X obj 271 66 * 10;
#X obj 273 85 int;
#X obj 305 65 * 10;
#X obj 307 84 int;
#X obj 338 66 * 10;
#X obj 338 85 int;
#X obj 328 253 spigot;
#X msg 595 312 Load_Sample:\$1;
#X msg -107 50 0;
#X obj 107 226 switch~;
#X msg -130 32 1;
#X obj -130 76 change;
#X obj 109 104 tgl 8 0 empty empty empty 17 7 0 10 -262144 -1 -1 1
1;
#X obj 582 339 symbol;
#X obj 588 360 t s b;
#N canvas 236 153 1280 639 Fxxxx 0;
#N canvas 12 312 906 372 redux_////////R 0;
#N canvas 4 300 495 254 passthruB 0;
#X obj 77 162 inlet~;
#X obj 77 183 hip~ 5;
#X obj 77 204 outlet~;
#X obj 275 160 inlet;
#X obj 275 180 * -1;
#X obj 275 201 + 1;
#X obj 275 222 switch~;
#X connect 0 0 1 0;
#X connect 1 0 2 0;
#X connect 3 0 4 0;
#X connect 4 0 5 0;
#X connect 5 0 6 0;
#X restore 305 193 pd passthruB;
#X obj 471 197 tgl 15 0 empty empty empty 17 7 0 10 -262144 -1 -1 0
1;
#X obj 311 127 inlet~;
#X obj 291 281 outlet~;
#N canvas 448 205 670 634 dsprocA 0;
#X obj 84 284 inlet~;
#X obj 83 336 hip~ 5;
#X obj 82 366 outlet~;
#X obj 261 237 inlet;
#X obj 261 258 switch~;
#X obj 83 314 samphold~;
#X obj 260 279 select 1;
#X msg 260 298 0;
#X obj 174 298 phasor~ 4410;
#X obj 174 220 mtof;
#X obj 200 203 + 100;
#X obj 200 184 * 20;
#X obj 200 165 inlet;
#X connect 0 0 5 0;
#X connect 1 0 2 0;
#X connect 3 0 4 0;
#X connect 3 0 6 0;
#X connect 5 0 1 0;
#X connect 6 0 7 0;
#X connect 7 0 8 1;
#X connect 8 0 5 1;
#X connect 9 0 8 0;
#X connect 10 0 9 0;
#X connect 11 0 10 0;
#X connect 12 0 11 0;
#X restore 396 193 pd dsprocA;
#X obj 471 174 inlet;
#X floatatom 44 44 5 0 0 0 - - -;
#X obj 424 139 inlet;
#X connect 0 0 3 0;
#X connect 1 0 0 1;
#X connect 1 0 4 2;
#X connect 2 0 0 0;
#X connect 2 0 4 0;
#X connect 4 0 3 0;
#X connect 5 0 1 0;
#X connect 7 0 4 1;
#X restore 102 157 pd redux_////////R;
#X obj 293 62 tgl 15 0 empty empty empty 17 7 0 10 -4032 -1 -1 0 1
;
#X obj 241 63 tgl 15 0 empty empty empty 17 7 0 10 -4034 -1 -1 0 1
;
#X obj 331 149 t b b;
#X msg 350 187 1;
#X msg 318 198 0;
#X obj 258 62 tgl 15 0 empty empty empty 17 7 0 10 -260097 -1 -1 0
1;
#N canvas 4 50 806 378 ringmor_////////R 0;
#N canvas 4 300 495 254 passthruB 0;
#X obj 77 162 inlet~;
#X obj 77 204 outlet~;
#X obj 275 160 inlet;
#X obj 275 180 * -1;
#X obj 275 201 + 1;
#X obj 275 222 switch~;
#X obj 77 183 hip~ 10;
#X connect 0 0 6 0;
#X connect 2 0 3 0;
#X connect 3 0 4 0;
#X connect 4 0 5 0;
#X connect 6 0 1 0;
#X restore 305 193 pd passthruB;
#X obj 604 149 tgl 15 0 empty empty empty 17 7 0 10 -262144 -1 -1 0
1;
#X obj 305 113 inlet~;
#X obj 305 224 outlet~;
#N canvas 302 50 782 442 dsprocA 0;
#X obj 45 110 inlet~;
#X obj 77 333 outlet~;
#X obj 534 129 inlet;
#X obj 535 151 switch~;
#X obj 220 95 inlet;
#X obj 125 217 osc~ 60;
#X obj 58 251 *~;
#X obj 77 312 hip~ 15;
#X connect 0 0 6 0;
#X connect 2 0 3 0;
#X connect 4 0 5 0;
#X connect 5 0 6 1;
#X connect 6 0 7 0;
#X connect 7 0 1 0;
#X restore 396 193 pd dsprocA;
#X obj 604 125 inlet;
#X obj 407 127 inlet;
#X connect 0 0 3 0;
#X connect 1 0 0 1;
#X connect 1 0 4 2;
#X connect 2 0 0 0;
#X connect 2 0 4 0;
#X connect 4 0 3 0;
#X connect 5 0 1 0;
#X connect 6 0 4 1;
#X restore 103 206 pd ringmor_////////R;
#N canvas 332 23 427 316 synthi///////R 0;
#N canvas 0 298 495 254 passthruB 0;
#X obj 77 162 inlet~;
#X obj 77 183 hip~ 5;
#X obj 77 204 outlet~;
#X obj 275 160 inlet;
#X obj 275 180 * -1;
#X obj 275 201 + 1;
#X obj 275 222 switch~;
#X connect 0 0 1 0;
#X connect 1 0 2 0;
#X connect 3 0 4 0;
#X connect 4 0 5 0;
#X connect 5 0 6 0;
#X restore 28 131 pd passthruB;
#X obj 195 108 tgl 15 0 empty empty empty 17 7 0 10 -262144 -1 -1 0
1;
#X obj 61 57 inlet~;
#X obj 46 193 outlet~;
#N canvas 162 77 1022 607 dsprocA 0;
#X obj 301 396 outlet~;
#X obj 647 173 inlet;
#X obj 647 191 switch~;
#X obj 297 303 inlet~;
#X msg 380 336 0;
#X msg 381 359 1;
#X msg 381 383 2;
#X msg 381 408 3;
#X msg 380 433 4;
#X text 415 335 ->a;
#X text 416 361 ->e;
#X text 415 384 ->i;
#X text 414 410 ->o;
#X text 414 435 ->u;
#X obj 298 342 vowel~ 0;
#X obj 300 373 *~ 0.2;
#X obj 611 220 int;
#X obj 611 240 change;
#X obj 299 322 *~ 4;
#X obj 611 192 * 4;
#X obj 611 173 inlet;
#X connect 1 0 2 0;
#X connect 3 0 18 0;
#X connect 4 0 14 1;
#X connect 5 0 14 1;
#X connect 6 0 14 1;
#X connect 7 0 14 1;
#X connect 8 0 14 1;
#X connect 14 0 15 0;
#X connect 15 0 0 0;
#X connect 16 0 17 0;
#X connect 17 0 14 1;
#X connect 18 0 14 0;
#X connect 19 0 16 0;
#X connect 20 0 19 0;
#X restore 132 131 pd dsprocA;
#X obj 195 85 inlet;
#X obj 146 76 inlet;
#X connect 0 0 3 0;
#X connect 1 0 0 1;
#X connect 1 0 4 2;
#X connect 2 0 0 0;
#X connect 2 0 4 0;
#X connect 4 0 3 0;
#X connect 5 0 1 0;
#X connect 6 0 4 1;
#X restore 103 229 pd synthi///////R;
#X obj 276 63 tgl 15 0 empty empty empty 17 7 0 10 -262144 -1 -1 0
1;
#N canvas 173 575 720 403 selektor 0;
#X obj -135 -83 int;
#X obj -184 -12 sel 1;
#X msg -193 11 1;
#X msg -149 13 0;
#X obj -184 40 tgl 15 0 empty empty empty 17 7 0 10 -262144 -1 -1 0
1;
#X msg -112 13 1;
#X msg -68 15 0;
#X obj -87 42 tgl 15 0 empty empty empty 17 7 0 10 -262144 -1 -1 0
1;
#X obj -104 -11 sel 2;
#X msg -33 15 1;
#X msg 10 18 0;
#X obj -8 44 tgl 15 0 empty empty empty 17 7 0 10 -262144 -1 -1 0 1
;
#X obj -24 -9 sel 3;
#X msg 73 2 1;
#X msg 117 4 0;
#X obj 98 31 tgl 15 0 empty empty empty 17 7 0 10 -262144 -1 -1 0 1
;
#X obj 81 -22 sel 4;
#X msg -272 13 1;
#X msg -228 15 0;
#X obj -261 47 tgl 15 0 empty empty empty 17 7 0 10 -262144 -1 -1 1
1;
#X obj -263 -11 sel 0;
#X obj -88 96 outlet;
#X obj -20 99 outlet;
#X obj 39 99 outlet;
#X obj -260 99 outlet;
#X obj -177 94 outlet;
#X obj 83 -81 r wig4;
#X msg 83 -53 4;
#X msg 35 -8 0;
#N canvas 1115 561 153 272 timeofineract 0;
#X obj 14 20 f;
#X obj 44 20 +;
#X obj 14 -1 t b f;
#X msg 13 -21 1;
#X msg 66 -29 0;
#X obj 20 -122 inlet;
#X obj 65 -122 inlet;
#X obj 12 -150 r ssec;
#X obj 15 52 outlet;
#X obj 13 -42 spigot;
#X msg 23 -100 1;
#X msg 22 -76 0;
#X obj 67 -101 t b b;
#X connect 0 0 1 1;
#X connect 0 0 8 0;
#X connect 1 0 0 1;
#X connect 2 0 0 0;
#X connect 2 1 1 0;
#X connect 3 0 2 0;
#X connect 4 0 0 0;
#X connect 5 0 10 0;
#X connect 6 0 12 0;
#X connect 7 0 9 0;
#X connect 9 0 3 0;
#X connect 10 0 9 1;
#X connect 11 0 9 1;
#X connect 12 0 4 0;
#X connect 12 1 11 0;
#X restore 165 -67 pd timeofineract;
#X floatatom 165 -45 5 0 0 0 - - -;
#X obj 218 -10 r nointe;
#X obj -135 -106 * 4;
#X obj 165 -22 sel 20;
#X obj -32 -71 s chfx;
#X obj -63 -96 change;
#X obj 188 96 outlet;
#X obj -249 -102 inlet;
#X floatatom -244 -71 5 0 0 0 - - -;
#X obj -180 -110 r fad4;
#X connect 0 0 1 0;
#X connect 0 0 8 0;
#X connect 0 0 12 0;
#X connect 0 0 20 0;
#X connect 0 0 16 0;
#X connect 0 0 35 0;
#X connect 0 0 36 0;
#X connect 1 0 2 0;
#X connect 1 1 3 0;
#X connect 2 0 4 0;
#X connect 3 0 4 0;
#X connect 4 0 25 0;
#X connect 5 0 7 0;
#X connect 6 0 7 0;
#X connect 7 0 21 0;
#X connect 8 0 5 0;
#X connect 8 1 6 0;
#X connect 9 0 11 0;
#X connect 10 0 11 0;
#X connect 11 0 22 0;
#X connect 12 0 9 0;
#X connect 12 1 10 0;
#X connect 13 0 15 0;
#X connect 14 0 15 0;
#X connect 15 0 23 0;
#X connect 16 0 13 0;
#X connect 16 0 28 0;
#X connect 16 1 14 0;
#X connect 17 0 19 0;
#X connect 18 0 19 0;
#X connect 19 0 24 0;
#X connect 20 0 17 0;
#X connect 20 1 18 0;
#X connect 26 0 27 0;
#X connect 26 0 29 0;
#X connect 27 0 16 0;
#X connect 29 0 30 0;
#X connect 30 0 33 0;
#X connect 31 0 14 0;
#X connect 32 0 0 0;
#X connect 33 0 29 1;
#X connect 33 0 14 0;
#X connect 35 0 34 0;
#X connect 37 0 0 0;
#X connect 39 0 32 0;
#X restore 258 30 pd selektor;
#N canvas 38 151 806 378 pfazer_////////R 0;
#N canvas 4 300 495 254 passthruB 0;
#X obj 77 162 inlet~;
#X obj 77 183 hip~ 5;
#X obj 77 204 outlet~;
#X obj 275 160 inlet;
#X obj 275 180 * -1;
#X obj 275 201 + 1;
#X obj 275 222 switch~;
#X connect 0 0 1 0;
#X connect 1 0 2 0;
#X connect 3 0 4 0;
#X connect 4 0 5 0;
#X connect 5 0 6 0;
#X restore 305 193 pd passthruB;
#X obj 470 179 tgl 15 0 empty empty empty 17 7 0 10 -262144 -1 -1 0
1;
#X obj 314 156 inlet~;
#X obj 305 224 outlet~;
#N canvas 314 242 782 442 dsprocA 0;
#X obj 75 256 inlet~;
#X obj 79 381 hip~ 5;
#X obj 79 402 outlet~;
#X obj 372 151 inlet;
#X obj 355 185 switch~;
#N canvas 492 217 694 637 phaser 0;
#X text 503 629 updated for Pd version 0.39;
#X text 194 10 PHASER;
#N canvas 876 177 375 255 startup 0;
#X obj 24 26 loadbang;
#X obj 24 53 bng 15 250 50 0 empty empty empty 0 -6 0 8 -262144 -1
-1;
#X obj 24 74 f \$0;
#X text 39 215 This subpatch loads initial;
#X text 34 241 values in number boxes.;
#X msg 24 100 \; \$1-pole 80;
#X connect 0 0 1 0;
#X connect 1 0 2 0;
#X connect 2 0 5 0;
#X restore 354 602 pd startup;
#X obj 114 369 rpole~;
#X obj 114 341 rzero_rev~;
#X obj 114 422 rpole~;
#X obj 114 395 rzero_rev~;
#X obj 114 475 rpole~;
#X obj 114 448 rzero_rev~;
#X obj 114 529 rpole~;
#X obj 114 502 rzero_rev~;
#X obj 89 562 +~;
#X text 256 14 The phaser ranks \, along with fuzz and wah-wah \, as
one of the great guitar pedals. A phaser simply adds an all-passed
copy of the signal to the original \, making phase reinforcement and
cancellation at frequencies that depend on the all-pass coefficients.
In this example the coefficients range from 0.88 to 0.98 \, controlled
by a phasor~ object (no relation). The phasor~ is converted to a symmetrical
triangle wave (abs($v1-0.5)) and then ranged appropriately.;
#X obj 207 399 phasor~ 0.3;
#X text 34 185 Many variations of this have been invented. A deeper
effect can be obtained by using 12 all-pass filters and adding the
outputs of the 4th \, 8th. and 12th one to the original. Various stereo
configurations are possible. Some people use 6 instead of the 4 stages
used here. Controls can be added to change the frequency of sweeping
and the range of the all-pass coeefficients.;
#X obj 204 427 expr~ 1 - 0.03 - 0.6*abs($v1-0.5)*abs($v1-0.5);
#X obj 339 341 hsl 128 15 0 127 0 0 empty empty empty -2 -8 0 10 -262144
-1 -1 0 1;
#X floatatom 375 397 5 0 0 0 - - -;
#X text 249 250 4;
#X obj 58 327 inlet~;
#X obj 267 311 inlet;
#X obj 91 612 outlet~;
#X obj 333 376 / 55;
#X obj 496 288 pack 0 555;
#X obj 499 311 line;
#X obj 526 261 * 4;
#X obj 494 237 inlet;
#X connect 3 0 6 0;
#X connect 4 0 3 0;
#X connect 5 0 8 0;
#X connect 6 0 5 0;
#X connect 7 0 10 0;
#X connect 8 0 7 0;
#X connect 9 0 11 1;
#X connect 10 0 9 0;
#X connect 11 0 21 0;
#X connect 13 0 15 0;
#X connect 15 0 4 1;
#X connect 15 0 3 1;
#X connect 15 0 6 1;
#X connect 15 0 5 1;
#X connect 15 0 8 1;
#X connect 15 0 7 1;
#X connect 15 0 10 1;
#X connect 15 0 9 1;
#X connect 16 0 22 0;
#X connect 19 0 4 0;
#X connect 19 0 11 0;
#X connect 20 0 13 0;
#X connect 22 0 13 1;
#X connect 22 0 17 0;
#X connect 23 0 24 0;
#X connect 24 0 17 0;
#X connect 24 0 13 1;
#X connect 25 0 23 0;
#X connect 26 0 25 0;
#X coords 0 0 1 1 88 26 0;
#X restore 77 287 pd phaser;
#X obj 215 216 inlet;
#X obj 68 323 *~ 0.6;
#X connect 0 0 5 0;
#X connect 1 0 2 0;
#X connect 3 0 4 0;
#X connect 5 0 7 0;
#X connect 6 0 5 2;
#X connect 7 0 1 0;
#X restore 396 193 pd dsprocA;
#X obj 470 160 inlet;
#X obj 424 128 inlet;
#X connect 0 0 3 0;
#X connect 1 0 0 1;
#X connect 1 0 4 2;
#X connect 2 0 0 0;
#X connect 2 0 4 0;
#X connect 4 0 3 0;
#X connect 5 0 1 0;
#X connect 6 0 4 1;
#X restore 103 175 pd pfazer_////////R;
#X obj 416 154 sel 0 1 2 3 4;
#X msg 428 197 symbol phaser;
#X msg 443 221 symbol Ring;
#X msg 456 243 symbol Vowel;
#X msg 471 262 symbol Bitcrush;
#X obj 103 507 outlet~;
#X obj 103 137 inlet~;
#X obj 380 82 loadbang;
#X obj 413 11 r knob1;
#X obj 463 12 r knob2;
#X obj 512 12 r knob3;
#X obj 560 12 r knob4;
#X obj 412 30 spigot;
#X obj 463 30 spigot;
#X obj 511 31 spigot;
#X obj 560 31 spigot;
#X obj 634 47 sel \$1;
#X obj 632 11 r chan;
#X obj 719 12 r chen;
#X obj 717 30 moses 6;
#X msg 638 69 1;
#X msg 665 69 0;
#X msg 725 78 1;
#X msg 768 80 0;
#X obj 643 141 tgl 15 0 empty empty empty 17 7 0 10 -257985 -1 -1 0
1;
#X obj 726 95 t b f;
#X obj 668 29 f \$1;
#X obj 633 29 t f b;
#X obj 641 87 +;
#X obj 642 105 sel 2;
#X msg 639 122 1;
#X msg 657 124 0;
#X obj 416 133 int;
#X obj 551 53 * 10;
#X obj 542 70 int;
#X obj 412 48 * 4;
#X obj 725 60 sel 17;
#X obj 421 306 pack s f;
#X obj 505 122 * 99;
#X obj 505 142 int;
#X obj 382 223 t b;
#X msg 420 324 FX:\$1//amt:\$2%;
#X obj 420 342 s screenLine4;
#X obj 703 351 s screenLine3;
#X obj 703 370 s screenLine5;
#X msg 416 176 symbol 00FF;
#X obj 703 331 s screenLine2;
#X msg 704 313 . . . . . . . . . . .;
#X obj 180 60 tgl 15 0 empty empty empty 17 7 0 10 -257985 -1 -1 1
1;
#X obj 218 -14 inlet;
#X msg 260 8 0;
#X msg 704 296 . . . Insert Fx . . . . .;
#X obj 623 164 t f;
#X obj 622 180 change;
#X obj 622 198 sel 1 0;
#X obj 621 216 bng 15 250 50 0 empty empty empty 17 7 0 10 -262144
-1 -1;
#X obj 647 216 bng 15 250 50 0 empty empty empty 17 7 0 10 -262144
-1 -1;
#X obj 702 275 delay 5;
#N canvas 422 281 727 277 selektor 0;
#X obj -135 -83 int;
#X obj -184 -12 sel 1;
#X msg -193 11 1;
#X msg -149 13 0;
#X obj -184 40 tgl 15 0 empty empty empty 17 7 0 10 -262144 -1 -1 0
1;
#X msg -112 13 1;
#X msg -68 15 0;
#X obj -87 42 tgl 15 0 empty empty empty 17 7 0 10 -262144 -1 -1 0
1;
#X obj -104 -11 sel 2;
#X msg -20 61 1;
#X msg 0 61 0;
#X obj -19 78 tgl 15 0 empty empty empty 17 7 0 10 -262144 -1 -1 0
1;
#X obj -21 43 sel 3;
#X msg 33 59 1;
#X msg 57 59 0;
#X obj 32 79 tgl 15 0 empty empty empty 17 7 0 10 -262144 -1 -1 0 1
;
#X obj 32 40 sel 4;
#X msg -272 13 1;
#X msg -228 15 0;
#X obj -261 47 tgl 15 0 empty empty empty 17 7 0 10 -262144 -1 -1 0
1;
#X obj -263 -11 sel 0;
#X obj -88 96 outlet;
#X obj -20 95 outlet;
#X obj 31 97 outlet;
#X obj -260 99 outlet;
#X obj -177 94 outlet;
#X obj -249 -102 inlet;
#X connect 0 0 1 0;
#X connect 0 0 8 0;
#X connect 0 0 12 0;
#X connect 0 0 20 0;
#X connect 0 0 16 0;
#X connect 1 0 2 0;
#X connect 1 1 3 0;
#X connect 2 0 4 0;
#X connect 3 0 4 0;
#X connect 4 0 25 0;
#X connect 5 0 7 0;
#X connect 6 0 7 0;
#X connect 7 0 21 0;
#X connect 8 0 5 0;
#X connect 8 1 6 0;
#X connect 9 0 11 0;
#X connect 10 0 11 0;
#X connect 11 0 22 0;
#X connect 12 0 9 0;
#X connect 12 1 10 0;
#X connect 13 0 15 0;
#X connect 14 0 15 0;
#X connect 15 0 23 0;
#X connect 16 0 13 0;
#X connect 16 1 14 0;
#X connect 17 0 19 0;
#X connect 18 0 19 0;
#X connect 19 0 24 0;
#X connect 20 0 17 0;
#X connect 20 1 18 0;
#X connect 26 0 0 0;
#X restore 856 93 pd selektor;
#X obj 857 75 inlet;
#X obj 856 122 tgl 15 0 empty empty empty 17 7 0 10 -262144 -1 -1 0
1;
#X obj 871 122 tgl 15 0 empty empty empty 17 7 0 10 -262144 -1 -1 0
1;
#X obj 885 122 tgl 15 0 empty empty empty 17 7 0 10 -262144 -1 -1 0
1;
#X obj 900 122 tgl 15 0 empty empty empty 17 7 0 10 -262144 -1 -1 0
1;
#X obj 916 122 tgl 15 0 empty empty empty 17 7 0 10 -262144 -1 -1 0
1;
#X obj 463 89 * 12;
#X obj 462 525 tgl 15 0 empty empty empty 17 7 0 10 -257985 -1 -1 0
1;
#N canvas 332 23 427 316 Emptyfx/////// 0;
#N canvas 0 298 495 254 passthruB 0;
#X obj 77 162 inlet~;
#X obj 77 183 hip~ 5;
#X obj 77 204 outlet~;
#X obj 275 160 inlet;
#X obj 275 180 * -1;
#X obj 275 201 + 1;
#X obj 275 222 switch~;
#X connect 0 0 1 0;
#X connect 1 0 2 0;
#X connect 3 0 4 0;
#X connect 4 0 5 0;
#X connect 5 0 6 0;
#X restore 28 131 pd passthruB;
#X obj 195 108 tgl 15 0 empty empty empty 17 7 0 10 -262144 -1 -1 0
1;
#X obj 61 57 inlet~;
#X obj 46 193 outlet~;
#N canvas 159 342 1022 607 dsprocA 0;
#X obj 301 396 outlet~;
#X obj 647 173 inlet;
#X obj 647 191 switch~;
#X obj 297 303 inlet~;
#X obj 611 220 int;
#X obj 611 240 change;
#X obj 611 192 * 4;
#X obj 611 173 inlet;
#X connect 1 0 2 0;
#X connect 4 0 5 0;
#X connect 6 0 4 0;
#X connect 7 0 6 0;
#X restore 132 131 pd dsprocA;
#X obj 195 85 inlet;
#X obj 146 76 inlet;
#X connect 0 0 3 0;
#X connect 1 0 0 1;
#X connect 1 0 4 2;
#X connect 2 0 0 0;
#X connect 2 0 4 0;
#X connect 4 0 3 0;
#X connect 5 0 1 0;
#X connect 6 0 4 1;
#X restore 372 542 pd Emptyfx///////;
#X obj 243 313 tgl 15 0 empty empty empty 17 7 0 10 -257985 -1 -1 0
1;
#N canvas 332 50 669 401 Tempophon////// 0;
#N canvas 0 298 495 254 passthruB 0;
#X obj 77 162 inlet~;
#X obj 77 183 hip~ 5;
#X obj 77 204 outlet~;
#X obj 275 160 inlet;
#X obj 275 180 * -1;
#X obj 275 201 + 1;
#X obj 275 222 switch~;
#X connect 0 0 1 0;
#X connect 1 0 2 0;
#X connect 3 0 4 0;
#X connect 4 0 5 0;
#X connect 5 0 6 0;
#X restore 28 131 pd passthruB;
#X obj 195 108 tgl 15 0 empty empty empty 17 7 0 10 -262144 -1 -1 0
1;
#X obj 61 57 inlet~;
#X obj 46 193 outlet~;
#X obj 195 85 inlet;
#X obj 146 76 inlet;
#N canvas 200 65 803 619 tempophAn 0;
#X obj 697 172 inlet;
#X obj 697 190 switch~;
#X obj 464 30 inlet;
#X obj 61 571 outlet~;
#X obj 110 96 hsl 128 15 -1 2.3 0 0 empty empty empty -2 -8 0 10 -257985
-1 -1 7697 1;
#X obj 90 125 phasor~;
#X obj 90 146 *~ 44100;
#X obj 90 167 s~ S0-index;
#X obj 193 131 t b f;
#X msg 191 154 1;
#X obj 186 177 -;
#X obj 260 191 spigot;
#X obj 292 174 tgl 15 0 empty empty empty 17 7 0 10 -262144 -1 -1 0
1;
#X obj 400 146 hsl 128 15 -1 2.3 0 0 empty empty empty -2 -8 0 10 -257985
-1 -1 7697 1;
#X obj 410 170 - 1;
#X obj 407 197 t b f;
#X obj 410 215 +;
#X obj 410 231 * 20;
#X obj 405 254 phasor~;
#X obj 78 322 -~ 0.5;
#X obj 161 292 +~ 0;
#X obj 163 349 *~ 2205;
#X obj 79 345 *~ -0.5;
#X obj 80 369 cos~;
#X obj 189 374 r~ S0-index;
#X obj 163 396 tabread~ \$0sa;
#X obj 81 423 *~;
#X obj 306 339 -~ 0.5;
#X obj 391 366 *~ 2205;
#X obj 307 362 *~ -0.5;
#X obj 308 386 cos~;
#X obj 418 392 r~ S0-index;
#X obj 391 413 tabread~ \$0sa;
#X obj 309 440 *~;
#X obj 380 324 wrap~;
#X obj 394 292 +~ 0.5;
#X obj 219 465 +~;
#X msg 390 90 1;
#X text 208 92 spd;
#X text 487 132 ptch;
#X msg 92 69 1;
#X floatatom 462 168 5 0 0 0 - - -;
#X obj 211 32 r ldb;
#X floatatom 241 125 5 0 0 0 - - -;
#X obj 463 53 * 3;
#X obj 461 75 - 1;
#X obj 517 31 inlet;
#X obj 516 54 * 3;
#X obj 514 76 - 1;
#X connect 0 0 1 0;
#X connect 2 0 44 0;
#X connect 4 0 5 0;
#X connect 4 0 8 0;
#X connect 4 0 43 0;
#X connect 5 0 6 0;
#X connect 6 0 7 0;
#X connect 6 0 25 0;
#X connect 6 0 32 0;
#X connect 8 0 9 0;
#X connect 8 1 10 1;
#X connect 9 0 10 0;
#X connect 10 0 11 0;
#X connect 11 0 16 0;
#X connect 12 0 11 1;
#X connect 13 0 14 0;
#X connect 13 0 41 0;
#X connect 14 0 15 0;
#X connect 15 0 16 0;
#X connect 15 1 16 1;
#X connect 16 0 17 0;
#X connect 17 0 18 0;
#X connect 18 0 35 0;
#X connect 18 0 20 0;
#X connect 19 0 22 0;
#X connect 20 0 21 0;
#X connect 20 0 19 0;
#X connect 21 0 25 0;
#X connect 22 0 23 0;
#X connect 23 0 26 0;
#X connect 25 0 26 1;
#X connect 26 0 36 0;
#X connect 27 0 29 0;
#X connect 28 0 32 0;
#X connect 29 0 30 0;
#X connect 30 0 33 0;
#X connect 32 0 33 1;
#X connect 33 0 36 1;
#X connect 34 0 28 0;
#X connect 34 0 27 0;
#X connect 35 0 34 0;
#X connect 36 0 3 0;
#X connect 37 0 13 0;
#X connect 40 0 4 0;
#X connect 42 0 40 0;
#X connect 42 0 37 0;
#X connect 44 0 45 0;
#X connect 45 0 4 0;
#X connect 46 0 47 0;
#X connect 47 0 48 0;
#X connect 48 0 13 0;
#X restore 133 138 pd tempophAn;
#X connect 0 0 3 0;
#X connect 1 0 0 1;
#X connect 1 0 6 2;
#X connect 2 0 0 0;
#X connect 4 0 1 0;
#X connect 5 0 6 0;
#X connect 6 0 3 0;
#X restore 138 332 pd Tempophon//////;
#X obj 332 365 tgl 15 0 empty empty empty 17 7 0 10 -257985 -1 -1 0
1;
#X obj 295 340 tgl 15 0 empty empty empty 17 7 0 10 -257985 -1 -1 0
1;
#N canvas 332 23 427 316 Filtre/////// 0;
#N canvas 0 298 495 254 passthruB 0;
#X obj 77 162 inlet~;
#X obj 77 183 hip~ 5;
#X obj 77 204 outlet~;
#X obj 275 160 inlet;
#X obj 275 180 * -1;
#X obj 275 201 + 1;
#X obj 275 222 switch~;
#X connect 0 0 1 0;
#X connect 1 0 2 0;
#X connect 3 0 4 0;
#X connect 4 0 5 0;
#X connect 5 0 6 0;
#X restore 28 131 pd passthruB;
#X obj 195 108 tgl 15 0 empty empty empty 17 7 0 10 -262144 -1 -1 0
1;
#X obj 61 57 inlet~;
#X obj 46 193 outlet~;
#N canvas 159 139 1022 607 dsprocA 0;
#X obj 301 396 outlet~;
#X obj 647 173 inlet;
#X obj 647 191 switch~;
#X obj 297 303 inlet~;
#X obj 611 220 int;
#X obj 611 240 change;
#X obj 611 192 * 4;
#X obj 611 173 inlet;
#X connect 1 0 2 0;
#X connect 4 0 5 0;
#X connect 6 0 4 0;
#X connect 7 0 6 0;
#X restore 132 131 pd dsprocA;
#X obj 195 85 inlet;
#X obj 146 76 inlet;
#X connect 0 0 3 0;
#X connect 1 0 0 1;
#X connect 1 0 4 2;
#X connect 2 0 0 0;
#X connect 2 0 4 0;
#X connect 4 0 3 0;
#X connect 5 0 1 0;
#X connect 6 0 4 1;
#X restore 212 355 pd Filtre///////;
#N canvas 332 23 427 316 Sidechain////// 0;
#N canvas 0 298 495 254 passthruB 0;
#X obj 77 162 inlet~;
#X obj 77 183 hip~ 5;
#X obj 77 204 outlet~;
#X obj 275 160 inlet;
#X obj 275 180 * -1;
#X obj 275 201 + 1;
#X obj 275 222 switch~;
#X connect 0 0 1 0;
#X connect 1 0 2 0;
#X connect 3 0 4 0;
#X connect 4 0 5 0;
#X connect 5 0 6 0;
#X restore 28 131 pd passthruB;
#X obj 195 108 tgl 15 0 empty empty empty 17 7 0 10 -262144 -1 -1 0
1;
#X obj 61 57 inlet~;
#X obj 46 193 outlet~;
#N canvas 159 342 1022 607 dsprocA 0;
#X obj 301 396 outlet~;
#X obj 647 173 inlet;
#X obj 647 191 switch~;
#X obj 297 303 inlet~;
#X obj 611 220 int;
#X obj 611 240 change;
#X obj 611 192 * 4;
#X obj 611 173 inlet;
#X connect 1 0 2 0;
#X connect 4 0 5 0;
#X connect 6 0 4 0;
#X connect 7 0 6 0;
#X restore 132 131 pd dsprocA;
#X obj 195 85 inlet;
#X obj 146 76 inlet;
#X connect 0 0 3 0;
#X connect 1 0 0 1;
#X connect 1 0 4 2;
#X connect 2 0 0 0;
#X connect 2 0 4 0;
#X connect 4 0 3 0;
#X connect 5 0 1 0;
#X connect 6 0 4 1;
#X restore 234 382 pd Sidechain//////;
#X obj 397 412 tgl 15 0 empty empty empty 17 7 0 10 -257985 -1 -1 0
1;
#N canvas 332 23 427 316 sendtoPFX/////// 0;
#N canvas 0 298 495 254 passthruB 0;
#X obj 77 162 inlet~;
#X obj 77 183 hip~ 5;
#X obj 77 204 outlet~;
#X obj 275 160 inlet;
#X obj 275 180 * -1;
#X obj 275 201 + 1;
#X obj 275 222 switch~;
#X connect 0 0 1 0;
#X connect 1 0 2 0;
#X connect 3 0 4 0;
#X connect 4 0 5 0;
#X connect 5 0 6 0;
#X restore 28 131 pd passthruB;
#X obj 195 108 tgl 15 0 empty empty empty 17 7 0 10 -262144 -1 -1 0
1;
#X obj 61 57 inlet~;
#X obj 46 193 outlet~;
#N canvas 159 342 1022 607 dsprocA 0;
#X obj 301 396 outlet~;
#X obj 647 173 inlet;
#X obj 647 191 switch~;
#X obj 297 303 inlet~;
#X obj 611 220 int;
#X obj 611 240 change;
#X obj 611 192 * 4;
#X obj 611 173 inlet;
#X connect 1 0 2 0;
#X connect 4 0 5 0;
#X connect 6 0 4 0;
#X connect 7 0 6 0;
#X restore 132 131 pd dsprocA;
#X obj 195 85 inlet;
#X obj 146 76 inlet;
#X connect 0 0 3 0;
#X connect 1 0 0 1;
#X connect 1 0 4 2;
#X connect 2 0 0 0;
#X connect 2 0 4 0;
#X connect 4 0 3 0;
#X connect 5 0 1 0;
#X connect 6 0 4 1;
#X restore 293 430 pd sendtoPFX///////;
#X obj 367 389 tgl 15 0 empty empty empty 17 7 0 10 -257985 -1 -1 0
1;
#N canvas 332 23 427 316 Delanular/////// 0;
#N canvas 0 298 495 254 passthruB 0;
#X obj 77 162 inlet~;
#X obj 77 183 hip~ 5;
#X obj 77 204 outlet~;
#X obj 275 160 inlet;
#X obj 275 180 * -1;
#X obj 275 201 + 1;
#X obj 275 222 switch~;
#X connect 0 0 1 0;
#X connect 1 0 2 0;
#X connect 3 0 4 0;
#X connect 4 0 5 0;
#X connect 5 0 6 0;
#X restore 28 131 pd passthruB;
#X obj 195 108 tgl 15 0 empty empty empty 17 7 0 10 -262144 -1 -1 0
1;
#X obj 61 57 inlet~;
#X obj 46 193 outlet~;
#N canvas 159 342 1022 607 dsprocA 0;
#X obj 301 396 outlet~;
#X obj 647 173 inlet;
#X obj 647 191 switch~;
#X obj 297 303 inlet~;
#X obj 611 220 int;
#X obj 611 240 change;
#X obj 611 192 * 4;
#X obj 611 173 inlet;
#X connect 1 0 2 0;
#X connect 4 0 5 0;
#X connect 6 0 4 0;
#X connect 7 0 6 0;
#X restore 132 131 pd dsprocA;
#X obj 195 85 inlet;
#X obj 146 76 inlet;
#X connect 0 0 3 0;
#X connect 1 0 0 1;
#X connect 1 0 4 2;
#X connect 2 0 0 0;
#X connect 2 0 4 0;
#X connect 4 0 3 0;
#X connect 5 0 1 0;
#X connect 6 0 4 1;
#X restore 263 406 pd Delanular///////;
#X connect 0 0 11 0;
#X connect 1 0 0 2;
#X connect 2 0 11 2;
#X connect 3 0 5 0;
#X connect 3 0 62 0;
#X connect 3 1 4 0;
#X connect 4 0 2 0;
#X connect 4 0 1 0;
#X connect 4 0 6 0;
#X connect 4 0 9 0;
#X connect 4 0 80 0;
#X connect 5 0 2 0;
#X connect 5 0 1 0;
#X connect 5 0 6 0;
#X connect 5 0 9 0;
#X connect 5 0 80 0;
#X connect 6 0 7 2;
#X connect 7 0 8 0;
#X connect 8 0 17 0;
#X connect 9 0 8 2;
#X connect 10 0 60 0;
#X connect 10 1 2 0;
#X connect 10 2 6 0;
#X connect 10 3 9 0;
#X connect 10 4 1 0;
#X connect 10 5 12 0;
#X connect 11 0 7 0;
#X connect 12 0 57 0;
#X connect 12 1 13 0;
#X connect 12 2 14 0;
#X connect 12 3 15 0;
#X connect 12 4 16 0;
#X connect 13 0 49 0;
#X connect 14 0 49 0;
#X connect 15 0 49 0;
#X connect 16 0 49 0;
#X connect 18 0 0 0;
#X connect 19 0 3 0;
#X connect 20 0 24 0;
#X connect 21 0 25 0;
#X connect 22 0 26 0;
#X connect 23 0 27 0;
#X connect 24 0 47 0;
#X connect 25 0 0 1;
#X connect 25 0 11 1;
#X connect 25 0 50 0;
#X connect 25 0 8 1;
#X connect 25 0 77 0;
#X connect 27 0 45 0;
#X connect 28 0 32 0;
#X connect 28 1 33 0;
#X connect 29 0 39 0;
#X connect 30 0 31 0;
#X connect 31 1 48 0;
#X connect 32 0 40 0;
#X connect 33 0 40 0;
#X connect 34 0 37 0;
#X connect 35 0 37 0;
#X connect 36 0 27 1;
#X connect 36 0 26 1;
#X connect 36 0 25 1;
#X connect 36 0 24 1;
#X connect 36 0 64 0;
#X connect 37 0 40 0;
#X connect 37 1 40 1;
#X connect 38 0 28 1;
#X connect 39 0 28 0;
#X connect 39 1 38 0;
#X connect 40 0 41 0;
#X connect 41 0 42 0;
#X connect 41 1 43 0;
#X connect 42 0 36 0;
#X connect 43 0 36 0;
#X connect 44 0 12 0;
#X connect 44 0 10 0;
#X connect 45 0 46 0;
#X connect 47 0 44 0;
#X connect 48 0 34 0;
#X connect 48 1 35 0;
#X connect 49 0 53 0;
#X connect 50 0 51 0;
#X connect 51 0 49 1;
#X connect 51 0 52 0;
#X connect 52 0 49 0;
#X connect 53 0 54 0;
#X connect 57 0 49 0;
#X connect 59 0 55 0;
#X connect 59 0 56 0;
#X connect 61 0 62 0;
#X connect 62 0 10 0;
#X connect 63 0 58 0;
#X connect 64 0 65 0;
#X connect 65 0 66 0;
#X connect 66 0 67 0;
#X connect 66 0 69 0;
#X connect 66 1 58 0;
#X connect 66 1 55 0;
#X connect 66 1 56 0;
#X connect 66 1 68 0;
#X connect 69 0 63 0;
#X connect 69 0 59 0;
#X connect 69 0 52 0;
#X connect 70 0 72 0;
#X connect 70 1 73 0;
#X connect 70 2 74 0;
#X connect 70 3 75 0;
#X connect 70 4 76 0;
#X connect 71 0 70 0;
#X connect 77 0 7 1;
#X connect 78 0 79 2;
#X connect 80 0 81 2;
#X connect 81 0 17 0;
#X connect 82 0 85 2;
#X connect 83 0 84 2;
#X connect 86 0 87 2;
#X connect 88 0 89 2;
#X restore -277 726 pd Fxxxx;
#X text 597 835 servando Barreiro 2013 / 2015 /2020;
#X obj -68 56 r flush;
#X msg 30 342 3000;
#X msg 572 160 Attack:\$1;
#X msg 575 178 Decay:\$1;
#X msg 578 195 Loop:\$1;
#X msg 578 212 Start.Point:\$1;
#X msg -120 314 0;
#X obj 0 356 *;
#X obj -95 466 +;
#X obj -49 436 t b;
#X floatatom 268 459 5 0 0 0 - - -;
#X obj 145 104 cnv 8 14 14 empty empty s3s44 2 7 0 11 -228856 -260097
0;
#X obj 499 298 t b b;
#X obj 497 197 t f;
#X obj 498 215 change;
#X obj 499 234 sel 1 0;
#X obj -95 638 tgl 15 0 empty empty empty 17 7 0 10 -262144 -1 -1 0
1;
#X obj -185 645 sig~;
#X obj 199 231 spigot;
#N canvas 130 355 1146 288 shft+ 0;
#X obj 19 12 r notes;
#X obj 19 32 unpack;
#X obj 13 62 sel 61;
#X obj 19 84 tgl 15 0 empty empty empty 17 7 0 10 -262144 -1 -1 0 1
;
#X obj 136 12 r notes;
#X obj 136 32 unpack;
#X obj 143 142 spigot;
#X obj 136 84 tgl 15 0 empty empty empty 17 7 0 10 -262144 -1 -1 0
1;
#X obj 141 106 sel 1;
#X obj 225 14 r notes;
#X obj 225 34 unpack;
#X obj 232 144 spigot;
#X obj 225 86 tgl 15 0 empty empty empty 17 7 0 10 -262144 -1 -1 0
1;
#X obj 230 108 sel 1;
#X obj 361 125 r aux;
#X obj 324 13 r notes;
#X obj 324 33 unpack;
#X obj 331 143 spigot;
#X obj 324 85 tgl 15 0 empty empty empty 17 7 0 10 -262144 -1 -1 0
1;
#X obj 329 107 sel 1;
#X msg 157 170 2;
#X msg 240 168 3;
#X msg 338 168 4;
#X obj 212 240 outlet;
#X obj 130 62 sel 62;
#X obj 219 64 sel 64;
#X obj 318 63 sel 66;
#N canvas 4 50 1014 429 non/shif/hyper 0;
#X obj 372 93 r aux;
#X obj 381 271 tgl 15 0 empty empty empty 17 7 0 10 -262144 -1 -1 0
1;
#X obj 321 76 loadbang;
#X msg 321 132 1;
#X obj 469 191 r hpsh;
#X obj 446 271 tgl 15 0 empty empty empty 17 7 0 10 -262144 -1 -1 0
1;
#X obj 384 112 sel 1;
#X msg 383 136 0;
#X msg 407 136 1;
#X obj 333 269 tgl 15 0 empty empty empty 17 7 0 10 -262144 -1 -1 1
1;
#X obj 428 220 sel 1;
#X msg 422 238 0;
#X obj 331 297 outlet;
#X obj 381 302 outlet;
#X obj 446 306 outlet;
#X connect 0 0 1 0;
#X connect 0 0 6 0;
#X connect 1 0 13 0;
#X connect 2 0 3 0;
#X connect 3 0 9 0;
#X connect 4 0 5 0;
#X connect 4 0 10 0;
#X connect 5 0 14 0;
#X connect 6 0 7 0;
#X connect 6 1 8 0;
#X connect 7 0 9 0;
#X connect 8 0 9 0;
#X connect 9 0 12 0;
#X connect 10 0 11 0;
#X connect 11 0 1 0;
#X restore 556 69 pd non/shif/hyper;
#X obj 558 100 tgl 15 0 empty empty empty 17 7 0 10 -262144 -1 -1 1
1;
#X obj 611 94 tgl 15 0 empty empty empty 17 7 0 10 -262144 -1 -1 0
1;
#X obj 646 102 tgl 15 0 empty empty empty 17 7 0 10 -262144 -1 -1 0
1;
#X obj 374 201 spigot;
#X obj 463 203 spigot;
#X msg 375 219 22;
#X msg 465 222 33;
#X connect 0 0 1 0;
#X connect 1 0 2 0;
#X connect 2 0 3 0;
#X connect 4 0 5 0;
#X connect 5 0 24 0;
#X connect 6 0 20 0;
#X connect 7 0 8 0;
#X connect 8 0 6 0;
#X connect 8 0 31 0;
#X connect 9 0 10 0;
#X connect 10 0 25 0;
#X connect 11 0 21 0;
#X connect 12 0 13 0;
#X connect 13 0 11 0;
#X connect 13 0 32 0;
#X connect 14 0 17 1;
#X connect 15 0 16 0;
#X connect 16 0 26 0;
#X connect 17 0 22 0;
#X connect 18 0 19 0;
#X connect 19 0 17 0;
#X connect 20 0 23 0;
#X connect 21 0 23 0;
#X connect 22 0 23 0;
#X connect 24 0 7 0;
#X connect 25 0 12 0;
#X connect 26 0 18 0;
#X connect 27 0 28 0;
#X connect 27 1 29 0;
#X connect 27 2 30 0;
#X connect 29 0 11 1;
#X connect 29 0 6 1;
#X connect 30 0 32 1;
#X connect 30 0 31 1;
#X connect 31 0 33 0;
#X connect 32 0 34 0;
#X connect 33 0 23 0;
#X connect 34 0 23 0;
#X restore 199 213 pd shft+ 1stoct;
#X obj 385 597 f \$1;
#X obj 413 597 f \$0;
#X obj 276 537 f;
#X msg 595 283 saved_as_\$1.wav;
#X obj 609 380 delay 3666;
#X obj 276 496 spigot;
#X obj 712 498 pack s f;
#X obj 711 476 t b f;
#X msg 713 525 Samp[\$2]_In_[\$1];
#X obj 583 402 s screenLine4;
#X obj 705 416 delay 45;
#X obj 715 547 s screenLine2;
#N canvas 408 354 1033 588 howmanysamplesdoyouneed? 0;
#X obj 354 242 f;
#X obj 381 242 +;
#X obj 354 220 t b f;
#X msg 314 195 1;
#X msg 421 196 -1;
#X obj 354 364 outlet;
#X obj 314 48 inlet;
#X obj 421 48 inlet;
#X obj 616 64 inlet;
#X obj 359 145 tgl 15 0 empty empty empty 17 7 0 10 -262144 -1 -1 1
1;
#X obj 429 142 tgl 15 0 empty empty empty 17 7 0 10 -262144 -1 -1 1
1;
#X obj 330 165 spigot;
#X obj 397 164 spigot;
#X text 624 42 resetnum;
#X obj 615 100 t b;
#X msg 615 125 1;
#X msg 445 110 0;
#X msg 365 111 0;
#X obj 354 264 mod 16;
#X obj 511 180 sel 0 16;
#X connect 0 0 1 1;
#X connect 0 0 18 0;
#X connect 1 0 0 1;
#X connect 2 0 0 0;
#X connect 2 1 1 0;
#X connect 3 0 2 0;
#X connect 4 0 2 0;
#X connect 6 0 11 0;
#X connect 7 0 12 0;
#X connect 8 0 0 0;
#X connect 8 0 14 0;
#X connect 9 0 11 1;
#X connect 10 0 12 1;
#X connect 11 0 3 0;
#X connect 12 0 4 0;
#X connect 14 0 15 0;
#X connect 15 0 9 0;
#X connect 15 0 10 0;
#X connect 16 0 10 0;
#X connect 17 0 9 0;
#X connect 18 0 5 0;
#X connect 19 0 16 0;
#X connect 19 1 17 0;
#X connect 19 2 15 0;
#X restore 199 374 pd howmanysamplesdoyouneed?;
#X obj 705 451 f;
#X obj 106 132 nbx 8 14 -1e+37 1e+37 0 0 empty empty empty 0 -8 0 10
-262144 -1 -1 529200 256;
#X msg 110 79 0;
#X obj 351 314 r loadglobal;
#X floatatom 307 335 5 0 0 0 - - -;
#X obj 350 334 - 1;
#X obj 382 576 r saveglobal;
#X msg 361 631 write -wave -normalize -nframes \$4 \$2/\$1.wav \$3sa
;
#X obj 361 614 pack f f f f;
#N canvas 40 519 441 338 drumkitmode 0;
#X obj 88 22 inlet;
#X obj 88 39 sel 0;
#X obj 186 96 r md\$1;
#X floatatom 185 116 5 0 0 0 - - -;
#X obj 68 258 outlet;
#X msg 88 56 1;
#X msg 108 56 0;
#X obj 120 101 tgl 15 0 empty empty empty 17 7 0 10 -262144 -1 -1 1
1;
#X obj 88 168 spigot;
#X connect 0 0 1 0;
#X connect 1 0 5 0;
#X connect 1 1 6 0;
#X connect 2 0 3 0;
#X connect 3 0 8 0;
#X connect 5 0 7 0;
#X connect 6 0 7 0;
#X connect 7 0 8 1;
#X connect 8 0 4 0;
#X restore -34 289 pd drumkitmode;
#X obj -34 353 *;
#X obj -268 324 t b;
#X obj 442 597 f;
#N canvas 4 50 1014 429 non/shif/hyper 0;
#X obj 372 93 r aux;
#X obj 381 271 tgl 15 0 empty empty empty 17 7 0 10 -262144 -1 -1 0
1;
#X obj 321 76 loadbang;
#X msg 321 132 1;
#X obj 469 191 r hpsh;
#X obj 446 271 tgl 15 0 empty empty empty 17 7 0 10 -262144 -1 -1 0
1;
#X obj 384 112 sel 1;
#X msg 383 136 0;
#X msg 407 136 1;
#X obj 333 269 tgl 15 0 empty empty empty 17 7 0 10 -262144 -1 -1 1
1;
#X obj 428 220 sel 1;
#X msg 422 238 0;
#X obj 331 297 outlet;
#X obj 381 302 outlet;
#X obj 446 306 outlet;
#X connect 0 0 1 0;
#X connect 0 0 6 0;
#X connect 1 0 13 0;
#X connect 2 0 3 0;
#X connect 3 0 9 0;
#X connect 4 0 5 0;
#X connect 4 0 10 0;
#X connect 5 0 14 0;
#X connect 6 0 7 0;
#X connect 6 1 8 0;
#X connect 7 0 9 0;
#X connect 8 0 9 0;
#X connect 9 0 12 0;
#X connect 10 0 11 0;
#X connect 11 0 1 0;
#X restore 810 427 pd non/shif/hyper;
#X obj 812 458 tgl 15 0 empty empty empty 17 7 0 10 -262144 -1 -1 1
1;
#X obj 865 452 tgl 15 0 empty empty empty 17 7 0 10 -262144 -1 -1 0
1;
#X obj 896 459 tgl 15 0 empty empty empty 17 7 0 10 -262144 -1 -1 0
1;
#N canvas 243 96 1033 588 folderswap 0;
#X obj 354 242 f;
#X obj 381 242 +;
#X obj 354 220 t b f;
#X msg 314 195 1;
#X msg 421 196 -1;
#X obj 354 364 outlet;
#X obj 314 48 inlet;
#X obj 421 48 inlet;
#X obj 616 64 inlet;
#X obj 359 145 tgl 15 0 empty empty empty 17 7 0 10 -262144 -1 -1 1
1;
#X obj 429 142 tgl 15 0 empty empty empty 17 7 0 10 -262144 -1 -1 1
1;
#X obj 330 165 spigot;
#X obj 397 164 spigot;
#X text 624 42 resetnum;
#X obj 615 100 t b;
#X msg 615 125 1;
#X msg 445 110 0;
#X msg 365 111 0;
#X obj 355 264 mod 14;
#X obj 471 312 sel 0 14;
#X connect 0 0 1 1;
#X connect 0 0 18 0;
#X connect 1 0 0 1;
#X connect 2 0 0 0;
#X connect 2 1 1 0;
#X connect 3 0 2 0;
#X connect 4 0 2 0;
#X connect 6 0 11 0;
#X connect 7 0 12 0;
#X connect 8 0 0 0;
#X connect 8 0 14 0;
#X connect 9 0 11 1;
#X connect 10 0 12 1;
#X connect 11 0 3 0;
#X connect 12 0 4 0;
#X connect 14 0 15 0;
#X connect 15 0 9 0;
#X connect 15 0 10 0;
#X connect 16 0 10 0;
#X connect 17 0 9 0;
#X connect 18 0 5 0;
#X connect 19 0 16 0;
#X connect 19 1 17 0;
#X connect 19 2 15 0;
#X restore 268 431 pd folderswap;
#X msg 594 263 f0ld3r:\$1;
#X obj 84 386 f \$1;
#X obj 235 124 table \$0sa 533333;
#X obj -17 444 f;
#X msg 184 568 1;
#X msg 208 569 0;
#X msg 184 516 read \$1 \$2sa \$2sb;
#X obj 235 141 table \$0sb 533333;
#X obj -211 834 s~ chs2\$1;
#X obj -210 810 *~;
#X obj -276 834 s~ chs1\$1;
#N canvas 153 92 981 503 stormono? 0;
#X obj 471 46 inlet;
#X obj 840 300 switch~;
#X obj 469 77 t b b;
#X msg 688 150 1;
#X obj 426 197 tabread \$0sb;
#X obj 452 154 line;
#X msg 607 222 0 0;
#X obj 432 242 sel 0;
#X obj 432 217 abs;
#X obj 529 298 tgl 15 0 empty empty empty 17 7 0 10 -262144 -1 -1 1
1;
#X floatatom 529 221 9 0 0 0 - - -;
#X msg 465 109 333333 666;
#X obj 607 173 sel 333333;
#X obj 459 309 f;
#X obj 607 198 t b b b;
#X msg 710 264 0;
#X obj 459 336 tgl 15 0 empty empty empty 17 7 0 10 -262144 -1 -1 1
1;
#X obj 272 197 tabread4~ \$0sb;
#X obj 271 246 outlet~;
#X obj 272 147 inlet~;
#X obj 459 414 outlet;
#X msg 429 265 1;
#X msg 471 265 0;
#X obj 608 317 sel 1;
#X obj 737 372 symbol;
#X obj 743 393 t s b;
#X obj 752 428 delay 3666;
#X msg 654 372 Sht3r30;
#X msg 582 369 M0n0;
#X obj 723 453 s screenLine5;
#X connect 0 0 2 0;
#X connect 2 0 11 0;
#X connect 2 1 3 0;
#X connect 3 0 1 0;
#X connect 4 0 8 0;
#X connect 5 0 4 0;
#X connect 5 0 10 0;
#X connect 5 0 12 0;
#X connect 6 0 5 0;
#X connect 7 0 21 0;
#X connect 7 1 22 0;
#X connect 8 0 7 0;
#X connect 11 0 5 0;
#X connect 12 0 14 0;
#X connect 13 0 16 0;
#X connect 14 0 6 0;
#X connect 14 2 13 0;
#X connect 15 0 1 0;
#X connect 16 0 20 0;
#X connect 16 0 23 0;
#X connect 17 0 18 0;
#X connect 19 0 17 0;
#X connect 21 0 9 0;
#X connect 21 0 13 1;
#X connect 22 0 9 0;
#X connect 22 0 13 1;
#X connect 23 0 15 0;
#X connect 23 0 28 0;
#X connect 23 1 27 0;
#X connect 24 0 25 0;
#X connect 25 0 29 0;
#X connect 25 1 26 0;
#X connect 26 0 29 0;
#X connect 27 0 24 0;
#X connect 28 0 24 0;
#X restore -80 580 pd stormono?;
#X obj -10 558 t b;
#X obj -211 765 *~;
#N canvas 84 117 1107 480 quicknobish 0;
#X obj 273 28 inlet;
#X obj 34 23 r knob1;
#X obj 86 24 r knob2;
#X obj 141 25 r knob3;
#X obj 195 24 r knob4;
#X obj 255 363 spigot;
#X obj 306 363 spigot;
#X obj 353 364 spigot;
#X obj 403 364 spigot;
#X obj 355 68 r aux;
#X obj 450 353 tgl 15 0 empty empty empty 17 7 0 10 -262144 -1 -1 0
1;
#X obj 347 38 loadbang;
#X msg 318 64 1;
#X obj 418 179 r hpsh;
#X obj 686 376 tgl 15 0 empty empty empty 17 7 0 10 -262144 -1 -1 0
1;
#X obj 476 388 spigot;
#X obj 527 388 spigot;
#X obj 575 389 spigot;
#X obj 624 389 spigot;
#X obj 368 104 sel 1;
#X msg 396 137 0;
#X msg 420 137 1;
#X obj 13 68 spigot;
#X obj 64 68 spigot;
#X obj 112 69 spigot;
#X obj 158 68 spigot;
#X obj 273 56 tgl 15 0 empty empty empty 17 7 0 10 -257985 -1 -1 0
1;
#X obj 6 346 spigot;
#X obj 57 346 spigot;
#X obj 105 347 spigot;
#X obj 154 347 spigot;
#X obj 211 347 tgl 15 0 empty empty empty 17 7 0 10 -262144 -1 -1 1
1;
#X obj 427 215 sel 1;
#X msg 422 238 0;
#X obj 8 405 outlet;
#X obj 51 405 outlet;
#X obj 95 405 outlet;
#X obj 138 405 outlet;
#X obj 291 423 outlet;
#X obj 334 423 outlet;
#X obj 378 423 outlet;
#X obj 421 423 outlet;
#X obj 481 433 outlet;
#X obj 524 433 outlet;
#X obj 568 433 outlet;
#X obj 611 433 outlet;
#X connect 0 0 26 0;
#X connect 1 0 22 0;
#X connect 2 0 23 0;
#X connect 3 0 24 0;
#X connect 4 0 25 0;
#X connect 5 0 38 0;
#X connect 6 0 39 0;
#X connect 7 0 40 0;
#X connect 8 0 41 0;
#X connect 9 0 10 0;
#X connect 9 0 19 0;
#X connect 10 0 8 1;
#X connect 10 0 7 1;
#X connect 10 0 6 1;
#X connect 10 0 5 1;
#X connect 11 0 12 0;
#X connect 12 0 31 0;
#X connect 13 0 14 0;
#X connect 13 0 32 0;
#X connect 14 0 18 1;
#X connect 14 0 17 1;
#X connect 14 0 16 1;
#X connect 14 0 15 1;
#X connect 15 0 42 0;
#X connect 16 0 43 0;
#X connect 17 0 44 0;
#X connect 18 0 45 0;
#X connect 19 0 20 0;
#X connect 19 1 21 0;
#X connect 20 0 31 0;
#X connect 21 0 31 0;
#X connect 22 0 27 0;
#X connect 22 0 5 0;
#X connect 22 0 15 0;
#X connect 23 0 28 0;
#X connect 23 0 6 0;
#X connect 23 0 16 0;
#X connect 24 0 29 0;
#X connect 24 0 7 0;
#X connect 24 0 17 0;
#X connect 25 0 30 0;
#X connect 25 0 8 0;
#X connect 25 0 18 0;
#X connect 26 0 25 1;
#X connect 26 0 24 1;
#X connect 26 0 23 1;
#X connect 26 0 22 1;
#X connect 27 0 34 0;
#X connect 28 0 35 0;
#X connect 29 0 36 0;
#X connect 30 0 37 0;
#X connect 31 0 30 1;
#X connect 31 0 29 1;
#X connect 31 0 28 1;
#X connect 31 0 27 1;
#X connect 32 0 33 0;
#X connect 33 0 10 0;
#X restore 253 22 pd quicknobish;
#X f 64;
#N canvas 101 136 603 274 hpsh 0;
#X obj 409 46 r notes;
#X obj 409 66 unpack;
#X obj 409 143 spigot;
#X obj 410 106 tgl 15 0 empty empty empty 17 7 0 10 -262144 -1 -1 0
1;
#X obj 409 124 sel 1;
#X obj 409 161 outlet;
#X obj 410 87 sel 71;
#X obj 447 126 r hpsh;
#X connect 0 0 1 0;
#X connect 1 0 6 0;
#X connect 2 0 5 0;
#X connect 3 0 4 0;
#X connect 4 0 2 0;
#X connect 6 0 3 0;
#X connect 7 0 2 1;
#X restore 275 477 pd hpsh + >;
#X obj 407 232 spigot;
#X obj 408 251 s rfi\$1;
#N canvas 387 357 636 230 looper 0;
#X obj 36 138 *~;
#X obj 85 125 line~;
#X obj 85 104 pack 0 6;
#X msg 347 73 reset;
#X msg 267 148 bang;
#X msg 302 131 stop;
#X obj 327 190 bng 15 250 50 0 empty empty empty 17 7 0 10 -262144
-1 -1;
#X msg 58 154 stop;
#X obj 35 51 inlet~;
#X obj 35 185 tabwrite~ \$0sa;
#X obj 251 170 tabplay~ \$0sa;
#X obj 348 112 s \$0sa;
#X obj 503 59 switch~;
#X obj 481 57 tgl 15 0 empty empty empty 17 7 0 10 -262144 -1 -1 0
1;
#X obj 85 62 spigot;
#X obj 85 19 inlet rec;
#X obj 214 19 inlet chin;
#X obj 503 42 inlet enab \, e;
#X obj 251 185 outlet~;
#X obj 102 85 tgl 15 0 empty empty empty 17 7 0 10 -262144 -1 -1 0
1;
#X obj 170 132 r bar\$1;
#X msg 348 92 const 0;
#X obj 347 18 inlet del;
#X obj 347 54 sel 2;
#X obj 347 35 spigot;
#X connect 0 0 9 0;
#X connect 1 0 0 1;
#X connect 2 0 1 0;
#X connect 3 0 5 0;
#X connect 3 0 7 0;
#X connect 3 0 21 0;
#X connect 4 0 10 0;
#X connect 5 0 10 0;
#X connect 7 0 9 0;
#X connect 8 0 0 0;
#X connect 10 0 18 0;
#X connect 10 0 9 0;
#X connect 10 1 6 0;
#X connect 10 1 9 0;
#X connect 10 1 4 0;
#X connect 14 0 2 0;
#X connect 14 0 19 0;
#X connect 15 0 14 0;
#X connect 16 0 14 1;
#X connect 16 0 24 1;
#X connect 17 0 12 0;
#X connect 17 0 13 0;
#X connect 20 0 10 0;
#X connect 20 0 9 0;
#X connect 21 0 11 0;
#X connect 22 0 24 0;
#X connect 23 0 3 0;
#X connect 24 0 23 0;
#X restore 327 711 pd looper;
#X obj 554 689 tgl 15 0 empty empty empty 17 7 0 10 -262144 -1 -1 0
1;
#X obj 549 459 bng 15 250 50 0 empty empty empty 17 7 0 10 -262144
-1 -1;
#X msg -221 234 1;
#X msg -208 236 0;
#X msg 554 670 1;
#X msg 566 670 0;
#X obj 551 648 sel 2;
#X obj 754 165 sel 0 1 2 3;
#X obj 556 712 s lpmd\$1;
#X obj 767 253 symbol;
#X symbolatom 107 114 10 0 0 0 - - -;
#X floatatom 549 504 5 0 0 0 - - -;
#X obj 752 146 f;
#N canvas 243 96 1033 588 modeselektor 0;
#X obj 354 242 f;
#X obj 381 242 +;
#X obj 354 220 t b f;
#X msg 314 195 1;
#X msg 421 196 -1;
#X obj 354 364 outlet;
#X obj 314 48 inlet;
#X obj 421 48 inlet;
#X obj 616 64 inlet;
#X obj 359 145 tgl 15 0 empty empty empty 17 7 0 10 -262144 -1 -1 1
1;
#X obj 429 142 tgl 15 0 empty empty empty 17 7 0 10 -262144 -1 -1 1
1;
#X obj 330 165 spigot;
#X obj 397 164 spigot;
#X text 624 42 resetnum;
#X obj 615 100 t b;
#X msg 615 125 1;
#X msg 445 110 0;
#X msg 365 111 0;
#X obj 354 264 mod 3;
#X obj 497 186 sel 0 3;
#X connect 0 0 1 1;
#X connect 0 0 18 0;
#X connect 1 0 0 1;
#X connect 2 0 0 0;
#X connect 2 1 1 0;
#X connect 3 0 2 0;
#X connect 4 0 2 0;
#X connect 6 0 11 0;
#X connect 7 0 12 0;
#X connect 8 0 0 0;
#X connect 8 0 14 0;
#X connect 9 0 11 1;
#X connect 10 0 12 1;
#X connect 11 0 3 0;
#X connect 12 0 4 0;
#X connect 14 0 15 0;
#X connect 15 0 9 0;
#X connect 15 0 10 0;
#X connect 16 0 10 0;
#X connect 17 0 9 0;
#X connect 18 0 5 0;
#X connect 19 0 16 0;
#X connect 19 1 17 0;
#X connect 19 2 15 0;
#X restore 549 481 pd modeselektor;
#X obj -280 61 r ldb;
#N canvas 630 222 450 300 chan+chen 0;
#X obj 732 51 sel \$1;
#X obj 728 13 r chan;
#X obj 799 14 r chen;
#X obj 800 54 sel 7;
#X obj 797 32 moses 6;
#X msg 736 73 1;
#X msg 763 73 0;
#X msg 800 72 1;
#X msg 841 67 0;
#X obj 801 89 t b f;
#X obj 766 33 f \$1;
#X obj 731 33 t f b;
#X obj 739 91 +;
#X obj 740 109 sel 2;
#X msg 739 127 1;
#X msg 762 127 0;
#X obj 739 151 outlet;
#X connect 0 0 5 0;
#X connect 0 1 6 0;
#X connect 1 0 11 0;
#X connect 2 0 4 0;
#X connect 3 0 7 0;
#X connect 3 1 8 0;
#X connect 4 1 3 0;
#X connect 5 0 12 0;
#X connect 6 0 12 0;
#X connect 7 0 9 0;
#X connect 8 0 9 0;
#X connect 9 0 12 0;
#X connect 9 1 12 1;
#X connect 10 0 0 1;
#X connect 11 0 0 0;
#X connect 11 1 10 0;
#X connect 12 0 13 0;
#X connect 13 0 14 0;
#X connect 13 1 15 0;
#X connect 14 0 16 0;
#X connect 15 0 16 0;
#X restore 489 104 pd chan+chen;
#X obj 97 287 r ldb;
#X obj 249 286 bng 15 250 50 0 empty empty empty 17 7 0 10 -262144
-1 -1;
#X obj -49 15 r ldb;
#X obj 185 552 moses 264000;
#N canvas 153 167 1272 503 buttonsss 0;
#X obj 30 7 r notes;
#X obj 30 25 unpack;
#X obj 34 304 spigot;
#X obj 35 239 sel 61;
#X obj 35 257 tgl 15 0 empty empty empty 17 7 0 10 -262144 -1 -1 0
1;
#X obj 143 142 spigot;
#X obj 136 84 tgl 15 0 empty empty empty 17 7 0 10 -262144 -1 -1 0
1;
#X obj 141 106 sel 1;
#X obj 130 62 sel 63;
#X obj 232 144 spigot;
#X obj 225 86 tgl 15 0 empty empty empty 17 7 0 10 -262144 -1 -1 0
1;
#X obj 229 105 sel 1;
#X obj 219 64 sel 66;
#X obj 331 143 spigot;
#X obj 324 85 tgl 15 0 empty empty empty 17 7 0 10 -262144 -1 -1 0
1;
#X obj 329 107 sel 1;
#X obj 318 63 sel 68;
#X msg 157 170 2;
#X msg 240 168 3;
#X msg 338 168 4;
#X obj 34 345 outlet;
#X obj 363 400 outlet;
#N canvas 4 50 1014 429 non/shif/hyper 0;
#X obj 372 93 r aux;
#X obj 381 271 tgl 15 0 empty empty empty 17 7 0 10 -262144 -1 -1 0
1;
#X obj 321 76 loadbang;
#X msg 321 132 1;
#X obj 469 191 r hpsh;
#X obj 446 271 tgl 15 0 empty empty empty 17 7 0 10 -262144 -1 -1 0
1;
#X obj 384 112 sel 1;
#X msg 383 136 0;
#X msg 407 136 1;
#X obj 333 269 tgl 15 0 empty empty empty 17 7 0 10 -262144 -1 -1 1
1;
#X obj 428 220 sel 1;
#X msg 422 238 0;
#X obj 331 297 outlet;
#X obj 381 302 outlet;
#X obj 446 306 outlet;
#X connect 0 0 1 0;
#X connect 0 0 6 0;
#X connect 1 0 13 0;
#X connect 2 0 3 0;
#X connect 3 0 9 0;
#X connect 4 0 5 0;
#X connect 4 0 10 0;
#X connect 5 0 14 0;
#X connect 6 0 7 0;
#X connect 6 1 8 0;
#X connect 7 0 9 0;
#X connect 8 0 9 0;
#X connect 9 0 12 0;
#X connect 10 0 11 0;
#X connect 11 0 1 0;
#X restore 447 102 pd non/shif/hyper;
#X obj 447 82 tgl 15 0 empty empty empty 17 7 0 10 -262144 -1 -1 1
1;
#X obj 498 126 tgl 15 0 empty empty empty 17 7 0 10 -262144 -1 -1 0
1;
#X obj 551 173 tgl 15 0 empty empty empty 17 7 0 10 -262144 -1 -1 0
1;
#X obj 127 293 spigot;
#X obj 164 369 outlet;
#X obj 161 319 sel 1;
#X obj 162 344 t b;
#X connect 0 0 1 0;
#X connect 1 0 3 0;
#X connect 1 0 8 0;
#X connect 1 0 12 0;
#X connect 1 0 16 0;
#X connect 2 0 20 0;
#X connect 3 0 4 0;
#X connect 4 0 2 0;
#X connect 4 0 26 0;
#X connect 5 0 17 0;
#X connect 6 0 7 0;
#X connect 7 0 5 0;
#X connect 8 0 6 0;
#X connect 9 0 18 0;
#X connect 10 0 11 0;
#X connect 11 0 9 0;
#X connect 12 0 10 0;
#X connect 13 0 19 0;
#X connect 14 0 15 0;
#X connect 15 0 13 0;
#X connect 16 0 14 0;
#X connect 17 0 21 0;
#X connect 18 0 21 0;
#X connect 19 0 21 0;
#X connect 22 0 23 0;
#X connect 22 1 24 0;
#X connect 22 2 25 0;
#X connect 24 0 5 1;
#X connect 24 0 9 1;
#X connect 24 0 26 1;
#X connect 25 0 2 1;
#X connect 26 0 28 0;
#X connect 28 0 29 0;
#X connect 29 0 27 0;
#X restore 328 213 pd buttonsss;
#X msg -118 525 0;
#X msg -83 524 1;
#X obj -99 491 sel 0 1 2;
#X obj -198 567 sel 1;
#X obj -126 600 f;
#X msg 752 186 symbol s4mpl3r;
#X msg 760 204 symbol Drumk1d;
#X msg 771 224 symbol L8P3R;
#X msg 882 232 symbol GRANULAR;
#X obj -220 215 sel 0 1 2;
#X obj 547 440 sel 4;
#X obj 199 327 sel 3 2 33 22;
#X obj 193 -5 r mt\$1;
#X obj 153 22 sel 0;
#X msg 183 53 1;
#X obj 117 45 delay 666;
#X obj 48 28 delay 666;
#X floatatom -4 512 5 0 0 0 - - -;
#X obj 20 586 int;
#X obj 25 612 tgl 15 0 empty empty empty 17 7 0 10 -262144 -1 -1 0
1;
#X connect 2 0 131 0;
#X connect 2 0 151 0;
#X connect 2 0 160 0;
#X connect 2 0 186 0;
#X connect 3 0 29 0;
#X connect 4 0 3 0;
#X connect 5 0 55 0;
#X connect 6 0 55 0;
#X connect 7 0 55 0;
#X connect 8 0 55 0;
#X connect 9 0 55 3;
#X connect 9 0 105 1;
#X connect 9 0 106 0;
#X connect 10 0 55 1;
#X connect 11 0 55 2;
#X connect 15 0 21 0;
#X connect 16 0 105 0;
#X connect 17 0 11 0;
#X connect 18 0 10 0;
#X connect 19 0 9 0;
#X connect 20 0 55 0;
#X connect 20 0 68 0;
#X connect 21 0 103 0;
#X connect 22 0 33 0;
#X connect 23 0 95 0;
#X connect 24 0 20 0;
#X connect 24 1 69 0;
#X connect 25 0 33 0;
#X connect 26 0 25 1;
#X connect 26 0 139 0;
#X connect 27 0 28 0;
#X connect 28 0 6 0;
#X connect 28 1 7 0;
#X connect 29 0 154 0;
#X connect 30 0 29 1;
#X connect 31 0 23 0;
#X connect 33 0 5 0;
#X connect 34 0 35 0;
#X connect 34 0 90 0;
#X connect 35 1 24 0;
#X connect 55 0 31 0;
#X connect 55 0 159 0;
#X connect 56 0 23 1;
#X connect 56 0 157 1;
#X connect 57 0 86 1;
#X connect 57 0 110 0;
#X connect 57 0 115 1;
#X connect 57 0 122 1;
#X connect 57 0 70 1;
#X connect 57 0 162 0;
#X connect 57 0 164 1;
#X connect 57 0 166 2;
#X connect 59 0 27 0;
#X connect 61 0 129 0;
#X connect 62 0 129 1;
#X connect 63 0 66 0;
#X connect 63 0 87 0;
#X connect 63 0 107 0;
#X connect 63 0 119 1;
#X connect 63 0 130 0;
#X connect 64 0 67 0;
#X connect 65 0 64 0;
#X connect 66 0 65 0;
#X connect 66 1 64 1;
#X connect 67 0 29 0;
#X connect 68 0 56 0;
#X connect 68 0 56 1;
#X connect 69 0 25 0;
#X connect 70 0 166 0;
#X connect 70 1 123 0;
#X connect 70 2 166 1;
#X connect 70 3 142 0;
#X connect 71 0 104 0;
#X connect 72 0 16 0;
#X connect 72 0 59 0;
#X connect 73 0 75 0;
#X connect 73 0 205 0;
#X connect 74 0 76 0;
#X connect 75 0 68 2;
#X connect 76 0 68 1;
#X connect 77 0 73 0;
#X connect 78 0 79 0;
#X connect 79 0 102 0;
#X connect 80 0 81 0;
#X connect 81 0 101 0;
#X connect 82 0 83 0;
#X connect 83 0 99 0;
#X connect 84 0 85 0;
#X connect 85 0 100 0;
#X connect 86 0 70 0;
#X connect 87 0 93 0;
#X connect 88 0 91 0;
#X connect 88 0 72 0;
#X connect 88 0 74 0;
#X connect 90 0 91 0;
#X connect 91 0 92 0;
#X connect 92 0 89 0;
#X connect 93 0 94 0;
#X connect 94 0 126 0;
#X connect 94 1 121 0;
#X connect 95 0 158 0;
#X connect 95 0 161 0;
#X connect 97 0 95 1;
#X connect 97 0 204 0;
#X connect 97 0 184 0;
#X connect 97 0 149 0;
#X connect 97 0 30 0;
#X connect 98 0 16 1;
#X connect 98 0 104 1;
#X connect 99 0 93 0;
#X connect 100 0 93 0;
#X connect 101 0 93 0;
#X connect 102 0 93 0;
#X connect 103 0 18 0;
#X connect 103 0 17 0;
#X connect 103 0 19 0;
#X connect 103 0 72 0;
#X connect 104 0 19 0;
#X connect 104 0 18 0;
#X connect 105 0 11 0;
#X connect 106 0 105 0;
#X connect 109 0 58 0;
#X connect 109 0 126 0;
#X connect 109 1 58 0;
#X connect 109 1 126 0;
#X connect 110 0 111 0;
#X connect 111 0 112 0;
#X connect 112 0 109 0;
#X connect 112 0 127 0;
#X connect 112 0 179 0;
#X connect 113 0 114 0;
#X connect 114 0 23 1;
#X connect 114 0 157 1;
#X connect 115 0 198 0;
#X connect 115 0 199 0;
#X connect 116 0 115 0;
#X connect 117 0 138 1;
#X connect 118 0 138 2;
#X connect 119 0 120 0;
#X connect 119 0 138 0;
#X connect 120 0 93 0;
#X connect 121 0 126 0;
#X connect 122 0 119 0;
#X connect 123 0 125 0;
#X connect 124 0 123 0;
#X connect 124 1 123 1;
#X connect 125 0 128 0;
#X connect 127 0 130 0;
#X connect 129 0 63 0;
#X connect 130 0 124 0;
#X connect 132 0 92 0;
#X connect 133 0 135 0;
#X connect 134 0 129 2;
#X connect 135 0 129 2;
#X connect 136 0 119 0;
#X connect 137 0 2 0;
#X connect 138 0 137 0;
#X connect 139 0 140 0;
#X connect 139 0 141 0;
#X connect 140 0 19 0;
#X connect 140 0 17 0;
#X connect 140 0 18 0;
#X connect 141 0 20 0;
#X connect 142 0 138 3;
#X connect 143 0 144 0;
#X connect 143 1 145 0;
#X connect 143 2 146 0;
#X connect 147 0 65 1;
#X connect 147 0 65 0;
#X connect 147 0 148 0;
#X connect 148 0 93 0;
#X connect 149 0 147 2;
#X connect 151 0 104 1;
#X connect 151 0 16 1;
#X connect 151 0 15 0;
#X connect 151 0 140 1;
#X connect 152 0 26 0;
#X connect 153 0 26 0;
#X connect 154 0 2 0;
#X connect 157 0 156 0;
#X connect 159 0 157 0;
#X connect 159 1 161 1;
#X connect 160 0 159 1;
#X connect 161 0 157 0;
#X connect 162 0 78 0;
#X connect 162 0 104 0;
#X connect 162 1 80 0;
#X connect 162 1 72 0;
#X connect 162 2 82 0;
#X connect 162 2 74 0;
#X connect 162 3 84 0;
#X connect 162 3 73 0;
#X connect 163 0 122 0;
#X connect 164 0 165 0;
#X connect 166 0 95 0;
#X connect 167 0 166 4;
#X connect 167 0 175 0;
#X connect 168 0 180 0;
#X connect 168 0 180 2;
#X connect 169 0 26 0;
#X connect 170 0 26 0;
#X connect 171 0 167 0;
#X connect 172 0 167 0;
#X connect 173 0 171 0;
#X connect 173 1 172 0;
#X connect 174 0 193 0;
#X connect 174 1 194 0;
#X connect 174 2 195 0;
#X connect 176 0 177 0;
#X connect 179 0 174 0;
#X connect 180 0 173 0;
#X connect 180 0 178 0;
#X connect 180 0 179 0;
#X connect 180 0 160 0;
#X connect 180 0 190 0;
#X connect 180 0 197 0;
#X connect 181 0 8 0;
#X connect 181 0 184 0;
#X connect 182 0 57 0;
#X connect 183 0 149 0;
#X connect 183 0 30 0;
#X connect 183 0 117 0;
#X connect 183 0 118 0;
#X connect 183 0 129 2;
#X connect 184 0 129 2;
#X connect 185 0 98 0;
#X connect 185 0 77 0;
#X connect 185 0 88 0;
#X connect 185 0 204 0;
#X connect 186 0 152 0;
#X connect 186 1 153 0;
#X connect 187 0 86 0;
#X connect 187 1 164 0;
#X connect 187 2 166 3;
#X connect 188 0 113 0;
#X connect 188 0 192 1;
#X connect 189 0 113 0;
#X connect 189 0 192 1;
#X connect 190 0 188 0;
#X connect 190 1 188 0;
#X connect 190 2 189 0;
#X connect 191 0 189 0;
#X connect 191 1 192 0;
#X connect 192 0 113 0;
#X connect 193 0 60 0;
#X connect 193 0 176 0;
#X connect 194 0 60 0;
#X connect 194 0 176 0;
#X connect 195 0 60 0;
#X connect 195 0 176 0;
#X connect 196 0 60 0;
#X connect 197 0 169 0;
#X connect 197 1 170 0;
#X connect 197 1 22 0;
#X connect 197 2 170 0;
#X connect 197 2 22 0;
#X connect 198 0 168 0;
#X connect 199 0 61 0;
#X connect 199 1 62 0;
#X connect 199 2 147 0;
#X connect 199 3 147 1;
#X connect 201 0 203 0;
#X connect 201 1 202 0;
#X connect 202 0 92 0;
#X connect 203 0 132 0;
#X connect 204 0 88 0;
#X connect 204 0 132 0;
#X connect 205 0 206 0;
#X connect 206 0 207 0;
#X connect 207 0 191 0;
#X coords 0 -1 1 1 100 100 2 100 100;
