#N canvas 105 50 1239 560 10;
#X obj 100 100 cnv 15 99 49 empty empty empty 20 12 0 14 -4034 -66577
0;
#X obj 103 103 cnv 15 95 45 empty empty empty 20 12 0 14 -191407 -66577
0;
#X obj 104 105 tgl 15 0 empty empty o 4 7 0 12 -258113 -1 -262144 0
1;
#X obj 121 105 bng 15 250 50 0 empty empty x 4 7 1 12 -162280 -262144
-262144;
#X obj 138 105 bng 15 250 50 0 empty empty % 3 8 1 10 -99865 -257985
-257985;
#X obj 104 128 tgl 15 0 empty empty empty 2 9 0 8 -260097 -1 -262144
0 1;
#X msg 312 99 50, f 8;
#X obj 181 106 cnv 8 14 14 empty \$0-met16 \$1 4 7 0 11 -128992 -257985
0;
#X text 154 104 s3sq;
#X obj 394 88 sel 1;
#X obj 479 145 s screenLine3;
#X msg 478 110 ***** recording *****;
#X msg 477 76 delete sequence;
#X msg 477 93 randomize;
#X obj 789 65 r knob1;
#X obj 836 65 r knob2;
#X obj 884 65 r knob3;
#X obj 930 65 r knob4;
#X obj 789 83 spigot;
#X obj 836 83 spigot;
#X obj 884 83 spigot;
#X obj 929 85 spigot;
#X obj 954 220 int;
#X obj 299 270 + 1, f 6;
#X obj 884 185 int, f 8;
#X obj 831 311 pack f f f f;
#X obj 758 159 tgl 15 0 empty empty empty 17 7 0 10 -257985 -1 -1 0
1;
#X obj 815 208 int;
#X obj 756 208 int;
#X text 846 538 http://servando.teks.no;
#X obj 323 10 spigot;
#X obj 947 154 * 99;
#X obj 635 22 sel \$1;
#X obj 633 -12 r chan, f 10;
#X obj 716 -23 r chen;
#X obj 716 -5 moses 6;
#X msg 635 41 1;
#X msg 662 42 0;
#X msg 714 29 1;
#X msg 737 27 0, f 4;
#X obj 687 113 tgl 15 0 empty empty empty 17 7 0 10 -257985 -1 -1 0
1;
#X obj 715 43 t b f;
#X obj 674 4 f \$1;
#X obj 634 4 t f b;
#X obj 687 57 +;
#X obj 688 75 sel 2;
#X msg 686 94 1;
#X msg 710 94 0;
#X obj 715 11 sel 6;
#X floatatom 322 61 5 0 0 0 - - -;
#X msg 1002 261 bang;
#X msg 637 151 1;
#X text 856 548 http://servando.teks.no;
#X text 866 558 http://servando.teks.no;
#X obj 552 316 s oscOut;
#X msg 552 297 send /led \$1;
#X obj 553 279 hradio 15 1 0 8 empty empty empty 0 -8 0 10 -262144
-1 -1 0;
#X obj 556 243 sel 1;
#X msg 554 261 4;
#X msg 582 261 0;
#N canvas 162 210 1283 549 swsq 0;
#X obj 115 222 sel 1 2 3 4 5 6 7 8 9 10 11 12 13 14 15 16, f 73;
#X obj 140 83 f;
#X obj 175 83 + 1;
#X msg 219 88 1;
#X obj 141 46 tgl 15 0 empty empty empty 17 7 0 10 -262144 -1 -1 0
1;
#X msg 190 9 0;
#X msg 149 9 1, f 5;
#X obj 219 58 sel 16;
#X obj 140 130 - 0;
#X obj 28 19 inlet, f 9;
#X obj 287 194 symbol;
#X obj 291 123 moses 1;
#X obj 294 99 moses 127;
#X obj 353 30 inlet;
#X obj 392 30 inlet, f 10;
#X obj 336 142 t b;
#X obj 289 143 t b;
#X obj 368 150 t b;
#X obj 75 282 symbol;
#X obj 120 282 symbol;
#X obj 163 282 symbol;
#X obj 208 282 symbol;
#X obj 252 281 symbol;
#X obj 297 281 symbol;
#X obj 340 281 symbol;
#X obj 385 281 symbol;
#X obj 429 281 symbol;
#X obj 474 281 symbol;
#X obj 517 281 symbol;
#X obj 562 281 symbol;
#X obj 606 280 symbol;
#X obj 649 279 symbol;
#X obj 694 280 symbol;
#X obj 735 280 symbol;
#X obj 75 302 pack s s s s s s s s s s s s s s s s, f 66;
#X msg 69 338 [\$1\$2\$3\$4 \$5\$6\$7\$8 \$9\$10\$11\$12 \$13\$14\$15\$16]
;
#X obj 614 224 s screenLine4;
#X obj 425 75 t b;
#X obj 28 39 sel 1;
#X obj 115 198 t f f;
#X obj 95 167 t b;
#X obj 291 69 int;
#X obj 94 18 inlet;
#X obj 425 94 delay 55;
#X obj 141 64 metro 8;
#X obj 27 57 t b b b;
#X obj 73 390 s screenLine5;
#X obj 2 336 t b b b b;
#X obj 454 148 r chin\$1;
#X obj 73 372 spigot;
#X obj 15 149 bng 15 250 50 0 empty empty empty 17 7 0 10 -262144 -1
-1;
#X obj 192 168 - 1;
#X msg 336 160 *;
#X msg 288 161 _;
#X msg 370 170 _;
#X obj 291 41 * 127;
#N canvas 525 143 583 541 stepwhere 0;
#X msg 63 108 [_*__ ____ ____ ____];
#X msg 78 130 [__*_ ____ ____ ____];
#X msg 133 192 [____ _*__ ____ ____];
#X msg 143 214 [____ __*_ ____ ____];
#X msg 157 233 [____ ___* ____ ____];
#X msg 194 275 [____ ____ _*__ ____];
#X msg 209 297 [____ ____ __*_ ____];
#X msg 222 318 [____ ____ ___* ____];
#X msg 253 362 [____ ____ ____ _*__];
#X msg 271 380 [____ ____ ____ __*_];
#X msg 289 400 [____ ____ ____ ___*];
#X obj 192 414 outlet;
#X obj 41 44 inlet;
#X msg 100 151 [___* ____ ____ ____];
#X obj 41 64 sel 1 2 3 4 5 6 7 8 9 10 11 12 13 14 15 16;
#X msg 41 88 [#___ ____ ____ ____];
#X msg 116 172 [____ #___ ____ ____];
#X msg 179 255 [____ ____ #___ ____];
#X msg 240 342 [____ ____ ____ #___];
#X connect 0 0 11 0;
#X connect 1 0 11 0;
#X connect 2 0 11 0;
#X connect 3 0 11 0;
#X connect 4 0 11 0;
#X connect 5 0 11 0;
#X connect 6 0 11 0;
#X connect 7 0 11 0;
#X connect 8 0 11 0;
#X connect 9 0 11 0;
#X connect 10 0 11 0;
#X connect 12 0 14 0;
#X connect 13 0 11 0;
#X connect 14 0 15 0;
#X connect 14 1 0 0;
#X connect 14 2 1 0;
#X connect 14 3 13 0;
#X connect 14 4 16 0;
#X connect 14 5 2 0;
#X connect 14 6 3 0;
#X connect 14 7 4 0;
#X connect 14 8 17 0;
#X connect 14 9 5 0;
#X connect 14 10 6 0;
#X connect 14 11 7 0;
#X connect 14 12 18 0;
#X connect 14 13 8 0;
#X connect 14 14 9 0;
#X connect 14 15 10 0;
#X connect 15 0 11 0;
#X connect 16 0 11 0;
#X connect 17 0 11 0;
#X connect 18 0 11 0;
#X restore 615 187 pd stepwhere;
#X obj 596 117 inlet, f 10;
#X obj 614 206 spigot;
#X msg 31 358 bang;
#N canvas 22 131 193 421 stepwhere 0;
#X obj 47 359 outlet;
#X obj 64 29 inlet;
#X obj 41 64 sel 1 17 33 49;
#X msg 38 112 1;
#X msg 55 133 2;
#X msg 69 156 3;
#X msg 86 177 4;
#X obj 72 262 pack f f;
#X obj 128 175 t b f;
#X msg 47 337 Bar[\$1] Step[\$2];
#X connect 1 0 2 0;
#X connect 1 0 8 0;
#X connect 2 0 3 0;
#X connect 2 1 4 0;
#X connect 2 2 5 0;
#X connect 2 3 6 0;
#X connect 3 0 7 0;
#X connect 4 0 7 0;
#X connect 5 0 7 0;
#X connect 6 0 7 0;
#X connect 7 0 9 0;
#X connect 8 0 7 0;
#X connect 8 1 7 1;
#X connect 9 0 0 0;
#X restore 733 192 pd stepwhere;
#X obj 737 211 spigot;
#X obj 737 229 s screenLine3;
#X text 23 3 go;
#X text 92 3 delete;
#X text 352 10 hi;
#X text 425 19 lo;
#X text 595 103 metro;
#X obj 684 73 inlet stepnu;
#X obj 689 92 sel 32 64 128;
#X msg 694 117 2;
#X msg 709 130 4;
#X msg 732 138 8;
#X msg 755 128 1, f 5;
#X obj 683 155 change;
#X obj 615 168 / 1;
#X obj 643 136 t b f;
#X obj 146 160 / 1;
#X obj 174 136 t b f;
#X obj 28 82 delay 66;
#X obj 190 190 tabread se\$1;
#X connect 0 0 18 0;
#X connect 0 1 19 0;
#X connect 0 2 20 0;
#X connect 0 3 21 0;
#X connect 0 4 22 0;
#X connect 0 5 23 0;
#X connect 0 6 24 0;
#X connect 0 7 25 0;
#X connect 0 8 26 0;
#X connect 0 9 27 0;
#X connect 0 10 28 0;
#X connect 0 11 29 0;
#X connect 0 12 30 0;
#X connect 0 13 31 0;
#X connect 0 14 32 0;
#X connect 0 15 33 0;
#X connect 1 0 2 0;
#X connect 1 0 7 0;
#X connect 1 0 8 0;
#X connect 2 0 1 1;
#X connect 3 0 1 1;
#X connect 4 0 44 0;
#X connect 5 0 4 0;
#X connect 6 0 4 0;
#X connect 7 0 3 0;
#X connect 7 0 5 0;
#X connect 7 0 40 0;
#X connect 8 0 77 0;
#X connect 9 0 38 0;
#X connect 10 0 33 1;
#X connect 10 0 18 1;
#X connect 10 0 19 1;
#X connect 10 0 20 1;
#X connect 10 0 21 1;
#X connect 10 0 22 1;
#X connect 10 0 23 1;
#X connect 10 0 24 1;
#X connect 10 0 25 1;
#X connect 10 0 26 1;
#X connect 10 0 27 1;
#X connect 10 0 28 1;
#X connect 10 0 29 1;
#X connect 10 0 30 1;
#X connect 10 0 31 1;
#X connect 10 0 32 1;
#X connect 11 0 16 0;
#X connect 11 1 15 0;
#X connect 12 0 11 0;
#X connect 12 1 17 0;
#X connect 13 0 12 1;
#X connect 13 0 37 0;
#X connect 14 0 11 1;
#X connect 14 0 37 0;
#X connect 15 0 52 0;
#X connect 16 0 53 0;
#X connect 17 0 54 0;
#X connect 18 0 34 0;
#X connect 19 0 34 1;
#X connect 20 0 34 2;
#X connect 21 0 34 3;
#X connect 22 0 34 4;
#X connect 23 0 34 5;
#X connect 24 0 34 6;
#X connect 25 0 34 7;
#X connect 26 0 34 8;
#X connect 27 0 34 9;
#X connect 28 0 34 10;
#X connect 29 0 34 11;
#X connect 30 0 34 12;
#X connect 31 0 34 13;
#X connect 32 0 34 14;
#X connect 33 0 34 15;
#X connect 34 0 35 0;
#X connect 35 0 49 0;
#X connect 37 0 43 0;
#X connect 38 0 45 0;
#X connect 39 0 0 0;
#X connect 39 1 51 0;
#X connect 40 0 34 0;
#X connect 41 0 12 0;
#X connect 42 0 59 0;
#X connect 42 0 47 0;
#X connect 43 0 6 0;
#X connect 44 0 1 0;
#X connect 45 0 79 0;
#X connect 45 2 59 0;
#X connect 47 0 59 0;
#X connect 47 1 59 0;
#X connect 47 2 59 0;
#X connect 48 0 49 1;
#X connect 48 0 58 1;
#X connect 48 0 61 1;
#X connect 49 0 46 0;
#X connect 50 0 40 0;
#X connect 51 0 80 0;
#X connect 52 0 10 0;
#X connect 53 0 10 0;
#X connect 54 0 10 0;
#X connect 55 0 41 0;
#X connect 56 0 58 0;
#X connect 57 0 60 0;
#X connect 57 0 75 0;
#X connect 58 0 36 0;
#X connect 59 0 49 0;
#X connect 59 0 58 0;
#X connect 60 0 61 0;
#X connect 61 0 62 0;
#X connect 68 0 69 0;
#X connect 68 0 7 1;
#X connect 69 0 70 0;
#X connect 69 1 71 0;
#X connect 69 2 72 0;
#X connect 69 3 73 0;
#X connect 70 0 74 0;
#X connect 71 0 74 0;
#X connect 72 0 74 0;
#X connect 73 0 74 0;
#X connect 74 0 76 0;
#X connect 74 0 78 0;
#X connect 75 0 56 0;
#X connect 76 0 75 0;
#X connect 76 1 75 1;
#X connect 77 0 39 0;
#X connect 78 0 77 0;
#X connect 78 0 3 0;
#X connect 78 1 77 1;
#X connect 79 0 6 0;
#X connect 80 0 55 0;
#X restore 286 381 pd swsq;
#X f 24;
#N canvas 64 498 1011 357 metrrr 0;
#X msg 135 227 32;
#X msg 158 227 64;
#X obj 92 155 moses 17;
#X obj -3 241 counter, f 16;
#X msg 181 227 128, f 4;
#X obj -3 260 - 1, f 6;
#X obj 79 19 inlet;
#X obj -3 280 outlet;
#X obj -3 19 r met64, f 11;
#X obj -3 192 t b;
#X msg 22 213 reset;
#X obj 258 81 spigot;
#N canvas 166 137 811 258 ^ 0;
#X obj 70 117 r aux;
#X obj 280 1 r notes;
#X obj 280 21 unpack;
#X obj 26 142 spigot;
#X obj 19 84 tgl 15 0 empty empty empty 17 7 0 10 -262144 -1 -1 0 1
;
#X obj 24 106 sel 1;
#X obj 187 117 r aux;
#X obj 143 142 spigot;
#X obj 136 84 tgl 15 0 empty empty empty 17 7 0 10 -262144 -1 -1 0
1;
#X obj 141 106 sel 1;
#X obj 276 119 r aux;
#X obj 232 144 spigot;
#X obj 225 86 tgl 15 0 empty empty empty 17 7 0 10 -262144 -1 -1 0
1;
#X obj 230 108 sel 1;
#X obj 375 118 r aux;
#X obj 331 143 spigot;
#X obj 324 85 tgl 15 0 empty empty empty 17 7 0 10 -262144 -1 -1 0
1;
#X obj 329 107 sel 1;
#X obj 461 120 r aux;
#X obj 423 146 spigot;
#X obj 419 87 tgl 15 0 empty empty empty 17 7 0 10 -262144 -1 -1 0
1;
#X obj 418 106 sel 1;
#X msg 31 169 1;
#X msg 157 170 2;
#X msg 240 168 3;
#X msg 338 168 4;
#X msg 430 169 5;
#X obj 410 214 outlet;
#X obj 14 62 sel 62;
#X obj 130 62 sel 64;
#X obj 318 63 sel 67;
#X obj 219 63 sel 65;
#X obj 418 69 sel 69;
#X obj 546 120 r aux;
#X obj 508 146 spigot;
#X obj 504 87 tgl 15 0 empty empty empty 17 7 0 10 -262144 -1 -1 0
1;
#X obj 503 106 sel 1;
#X msg 515 169 6;
#X obj 504 70 sel 71;
#X connect 0 0 3 1;
#X connect 1 0 2 0;
#X connect 2 0 28 0;
#X connect 2 0 29 0;
#X connect 2 0 31 0;
#X connect 2 0 30 0;
#X connect 2 0 32 0;
#X connect 2 0 38 0;
#X connect 3 0 22 0;
#X connect 4 0 5 0;
#X connect 5 0 3 0;
#X connect 6 0 7 1;
#X connect 7 0 23 0;
#X connect 8 0 9 0;
#X connect 9 0 7 0;
#X connect 10 0 11 1;
#X connect 11 0 24 0;
#X connect 12 0 13 0;
#X connect 13 0 11 0;
#X connect 14 0 15 1;
#X connect 15 0 25 0;
#X connect 16 0 17 0;
#X connect 17 0 15 0;
#X connect 18 0 19 1;
#X connect 19 0 26 0;
#X connect 20 0 21 0;
#X connect 21 0 19 0;
#X connect 22 0 27 0;
#X connect 23 0 27 0;
#X connect 24 0 27 0;
#X connect 25 0 27 0;
#X connect 26 0 27 0;
#X connect 28 0 4 0;
#X connect 29 0 8 0;
#X connect 30 0 16 0;
#X connect 31 0 12 0;
#X connect 32 0 20 0;
#X connect 33 0 34 1;
#X connect 34 0 37 0;
#X connect 35 0 36 0;
#X connect 36 0 34 0;
#X connect 37 0 27 0;
#X connect 38 0 35 0;
#X restore 258 48 pd ^ [ ] 1 //////////;
#X obj 326 67 r chin\$1;
#X floatatom 258 98 5 0 0 0 - - -;
#N canvas 461 69 740 433 idnwr60 0;
#X obj 354 242 f;
#X obj 381 242 +;
#X obj 354 220 t b f;
#X msg 314 195 1;
#X msg 421 196 -1;
#X obj 354 364 outlet;
#X obj 312 162 inlet;
#X obj 419 162 inlet;
#X obj 494 221 inlet;
#X text 502 199 resetnum;
#X obj 493 257 t b;
#X obj 354 264 mod 4;
#X connect 0 0 1 1;
#X connect 0 0 11 0;
#X connect 1 0 0 1;
#X connect 2 0 0 0;
#X connect 2 1 1 0;
#X connect 3 0 2 0;
#X connect 4 0 2 0;
#X connect 6 0 3 0;
#X connect 7 0 4 0;
#X connect 8 0 0 0;
#X connect 8 0 10 0;
#X connect 11 0 5 0;
#X restore 258 166 pd idnwr60;
#X obj 258 114 sel 1;
#X obj 90 203 f, f 4;
#X obj 173 182 sel 0 1 2 3;
#X obj 90 124 spigot;
#X msg 154 93 1;
#X msg 192 119 0;
#X obj 92 329 outlet;
#X obj 92 309 f;
#X obj 75 176 t b;
#X obj 166 41 loadbang;
#X msg 162 59 16;
#X floatatom 42 52 5 0 0 0 - - -;
#X obj 22 148 sel 0;
#X obj 16 105 spigot;
#X obj 55 84 tgl 15 0 empty empty empty 17 7 0 10 -262144 -1 -1 0 1
;
#X msg 38 173 0;
#X obj 119 19 inlet;
#X obj 119 44 sel 1;
#X msg 117 66 1;
#X connect 0 0 3 3;
#X connect 0 0 23 0;
#X connect 1 0 3 3;
#X connect 1 0 23 0;
#X connect 2 0 17 0;
#X connect 3 0 5 0;
#X connect 4 0 3 3;
#X connect 4 0 23 0;
#X connect 5 0 7 0;
#X connect 6 0 19 0;
#X connect 6 0 24 0;
#X connect 8 0 9 0;
#X connect 8 0 27 0;
#X connect 8 0 29 0;
#X connect 9 0 3 0;
#X connect 10 0 3 0;
#X connect 11 0 14 0;
#X connect 12 0 11 0;
#X connect 13 0 11 1;
#X connect 14 0 16 0;
#X connect 15 0 18 0;
#X connect 16 0 15 0;
#X connect 17 0 3 3;
#X connect 17 0 23 0;
#X connect 18 0 17 0;
#X connect 18 0 20 0;
#X connect 18 1 0 0;
#X connect 18 1 21 0;
#X connect 18 2 1 0;
#X connect 18 2 21 0;
#X connect 18 3 4 0;
#X connect 18 3 21 0;
#X connect 19 0 2 0;
#X connect 20 0 19 1;
#X connect 21 0 19 1;
#X connect 23 0 22 0;
#X connect 24 0 23 0;
#X connect 25 0 20 0;
#X connect 25 0 26 0;
#X connect 26 0 17 0;
#X connect 28 0 10 0;
#X connect 28 0 31 0;
#X connect 29 0 28 0;
#X connect 30 0 29 1;
#X connect 31 0 30 0;
#X connect 32 0 33 0;
#X connect 33 0 34 0;
#X connect 34 0 30 0;
#X restore 251 223 pd metrrr;
#X obj 284 348 f 1, f 6;
#X obj 283 317 t b, f 4;
#X obj 327 361 bng 15 250 50 0 empty empty empty 17 7 0 10 -191407
-1 -1;
#X obj 334 245 + 1;
#X obj 823 236 - 2;
#X obj 841 178 * 4;
#X obj 703 112 s chin\$1;
#N canvas 415 147 663 466 deleteanim 0;
#X obj 236 11 inlet;
#X obj 40 202 s screenLine4;
#X msg 177 44 *********************;
#X msg 177 61 ********************;
#X msg 177 78 *******************;
#X msg 177 95 ******************;
#X msg 177 112 *****************;
#X msg 177 129 ****************;
#X msg 177 146 ***************;
#X msg 177 163 **************;
#X msg 177 180 ************;
#X msg 177 197 **********;
#X msg 177 214 ********;
#X msg 177 231 *******;
#X msg 177 248 ******;
#X msg 177 265 *****;
#X msg 177 282 ****;
#X msg 177 299 ***;
#X msg 178 316 **;
#X msg 178 332 *;
#X obj 313 36 delay 33;
#X obj 314 57 delay 33;
#X obj 314 77 delay 33;
#X obj 314 94 delay 33;
#X obj 314 111 delay 33;
#X obj 314 128 delay 33;
#X obj 314 145 delay 33;
#X obj 314 162 delay 33;
#X obj 314 179 delay 33;
#X obj 314 196 delay 33;
#X obj 314 213 delay 33;
#X obj 313 230 delay 33;
#X obj 313 246 delay 33;
#X obj 313 263 delay 33;
#X obj 313 280 delay 33;
#X obj 313 297 delay 33;
#X obj 313 315 delay 33;
#X obj 313 333 delay 33;
#X obj 317 2 loadbang;
#X msg 424 27 15, f 8;
#X msg 178 348 |;
#X connect 0 0 2 0;
#X connect 0 0 20 0;
#X connect 2 0 1 0;
#X connect 3 0 1 0;
#X connect 4 0 1 0;
#X connect 5 0 1 0;
#X connect 6 0 1 0;
#X connect 7 0 1 0;
#X connect 8 0 1 0;
#X connect 9 0 1 0;
#X connect 10 0 1 0;
#X connect 11 0 1 0;
#X connect 12 0 1 0;
#X connect 13 0 1 0;
#X connect 14 0 1 0;
#X connect 15 0 1 0;
#X connect 16 0 1 0;
#X connect 17 0 1 0;
#X connect 18 0 1 0;
#X connect 19 0 1 0;
#X connect 20 0 21 0;
#X connect 20 0 3 0;
#X connect 21 0 22 0;
#X connect 21 0 4 0;
#X connect 22 0 23 0;
#X connect 22 0 5 0;
#X connect 23 0 24 0;
#X connect 23 0 6 0;
#X connect 24 0 25 0;
#X connect 24 0 7 0;
#X connect 25 0 26 0;
#X connect 25 0 8 0;
#X connect 26 0 27 0;
#X connect 26 0 9 0;
#X connect 27 0 28 0;
#X connect 27 0 10 0;
#X connect 28 0 29 0;
#X connect 28 0 11 0;
#X connect 29 0 30 0;
#X connect 29 0 12 0;
#X connect 30 0 31 0;
#X connect 30 0 13 0;
#X connect 31 0 14 0;
#X connect 31 0 32 0;
#X connect 32 0 33 0;
#X connect 32 0 15 0;
#X connect 33 0 34 0;
#X connect 33 0 16 0;
#X connect 34 0 35 0;
#X connect 34 0 17 0;
#X connect 35 0 36 0;
#X connect 35 0 18 0;
#X connect 36 0 37 0;
#X connect 36 0 19 0;
#X connect 37 0 40 0;
#X connect 38 0 39 0;
#X connect 39 0 37 1;
#X connect 39 0 36 1;
#X connect 39 0 35 1;
#X connect 39 0 34 1;
#X connect 39 0 33 1;
#X connect 39 0 32 1;
#X connect 39 0 31 1;
#X connect 39 0 30 1;
#X connect 39 0 29 1;
#X connect 39 0 28 1;
#X connect 39 0 27 1;
#X connect 39 0 26 1;
#X connect 39 0 25 1;
#X connect 39 0 24 1;
#X connect 39 0 23 1;
#X connect 39 0 21 1;
#X connect 40 0 1 0;
#X restore 478 34 pd deleteanim;
#X msg 831 326 #[\$1]-[\$2] ^[\$3] %[\$4];
#X msg 426 130 |, f 6;
#N canvas 166 137 1071 336 shift 0;
#X obj 70 117 r aux;
#X obj 19 12 r notes;
#X obj 19 32 unpack;
#X obj 26 142 spigot;
#X obj 13 62 sel 61;
#X obj 19 84 tgl 15 0 empty empty empty 17 7 0 10 -262144 -1 -1 0 1
;
#X obj 24 106 sel 1;
#X obj 187 117 r aux;
#X obj 136 12 r notes;
#X obj 136 32 unpack;
#X obj 143 142 spigot;
#X obj 136 84 tgl 15 0 empty empty empty 17 7 0 10 -262144 -1 -1 0
1;
#X obj 141 106 sel 1;
#X obj 130 62 sel 63;
#X obj 276 119 r aux;
#X obj 225 14 r notes;
#X obj 225 34 unpack;
#X obj 232 144 spigot;
#X obj 225 86 tgl 15 0 empty empty empty 17 7 0 10 -262144 -1 -1 0
1;
#X obj 230 108 sel 1;
#X obj 219 64 sel 66;
#X obj 375 118 r aux;
#X obj 324 13 r notes;
#X obj 324 33 unpack;
#X obj 331 143 spigot;
#X obj 324 85 tgl 15 0 empty empty empty 17 7 0 10 -262144 -1 -1 0
1;
#X obj 329 107 sel 1;
#X obj 461 120 r aux;
#X obj 413 12 r notes;
#X obj 413 32 unpack;
#X obj 423 146 spigot;
#X obj 413 84 tgl 15 0 empty empty empty 17 7 0 10 -262144 -1 -1 0
1;
#X obj 418 106 sel 1;
#X obj 318 63 sel 68;
#X obj 407 61 sel 70;
#X msg 31 169 1;
#X msg 157 170 2;
#X msg 240 168 3;
#X msg 338 168 4;
#X msg 430 169 5;
#X obj 427 198 outlet;
#X connect 0 0 3 1;
#X connect 1 0 2 0;
#X connect 2 0 4 0;
#X connect 3 0 35 0;
#X connect 4 0 5 0;
#X connect 5 0 6 0;
#X connect 6 0 3 0;
#X connect 7 0 10 1;
#X connect 8 0 9 0;
#X connect 9 0 13 0;
#X connect 10 0 36 0;
#X connect 11 0 12 0;
#X connect 12 0 10 0;
#X connect 13 0 11 0;
#X connect 14 0 17 1;
#X connect 15 0 16 0;
#X connect 16 0 20 0;
#X connect 17 0 37 0;
#X connect 18 0 19 0;
#X connect 19 0 17 0;
#X connect 20 0 18 0;
#X connect 21 0 24 1;
#X connect 22 0 23 0;
#X connect 23 0 33 0;
#X connect 24 0 38 0;
#X connect 25 0 26 0;
#X connect 26 0 24 0;
#X connect 27 0 30 1;
#X connect 28 0 29 0;
#X connect 29 0 34 0;
#X connect 30 0 39 0;
#X connect 31 0 32 0;
#X connect 32 0 30 0;
#X connect 33 0 25 0;
#X connect 34 0 31 0;
#X connect 35 0 40 0;
#X connect 36 0 40 0;
#X connect 37 0 40 0;
#X connect 38 0 40 0;
#X connect 39 0 40 0;
#X restore 323 -7 pd shift # 1stoct;
#X msg 479 127 (0).(X)__(R).(-).(-);
#X msg 479 52 ***SEQUENCER***;
#X obj 699 241 t b;
#X obj 680 137 t b b b b;
#X obj 177 -13 loadbang, f 16;
#X obj 889 441 symbol;
#X obj 831 344 s screenLine2;
#X obj 889 508 s screenLine3;
#X obj 889 460 t s b;
#X obj 915 473 delay 666;
#X obj 122 129 nbx 3 14 0 127 0 0 empty empty empty 0 -8 0 10 -128992
-4034 -4034 22 256;
#X obj 159 129 nbx 3 14 0 127 0 0 empty empty empty 0 -8 0 10 -128992
-4034 -4034 99 256;
#X msg 627 250 2;
#X obj 568 14 r ldbdlyd;
#X msg 619 194 0;
#X msg 817 380 Bar_steps:\$1;
#X obj 964 372 int;
#X obj 777 383 int;
#X obj 446 -8 sel 1 2 3 5, f 26;
#X obj 323 32 moses 6;
#X obj 727 272 - 2;
#X obj 119 -12 r flush;
#X obj 599 38 bng 15 250 50 0 empty empty empty 17 7 0 10 -262144 -1
-1;
#X obj 727 292 int;
#X msg 917 490 bang, f 5;
#X text 497 340 pani-k=SHft+A#;
#X msg 780 428 **S3rquencer**;
#X obj 801 281 t b f;
#X msg 781 445 Transpose:\$1_St's;
#X msg 964 390 Cmplx:\$1%;
#X msg 780 411 Offset:\$1steps;
#X obj 794 167 * 8;
#X obj 771 323 t b f;
#X obj 884 152 * 16;
#X obj 605 333 s ofs\$1;
#X obj 605 350 s dur\$1;
#N canvas 171 163 901 473 ^ 0;
#X obj 138 204 tabwrite copy;
#X obj 138 179 tabread \$0se\$1;
#X obj 153 50 r ofs\$1;
#X obj 343 8 r dur\$1;
#X obj 256 92 f;
#X obj 301 90 + 1;
#X msg 331 89 1, f 6;
#X obj 246 55 tgl 15 0 empty empty empty 17 7 0 10 -262144 -1 -1 0
1;
#X msg 304 41 0;
#X obj 310 112 sel 64;
#X msg 245 33 1;
#X obj 138 132 +;
#X obj 183 112 t f f;
#X floatatom 94 63 5 0 0 0 - - -;
#X floatatom 359 26 5 0 0 0 - - -;
#X obj 446 52 spigot;
#N canvas 166 137 811 258 ^ 0;
#X obj 70 117 r aux;
#X obj 280 1 r notes;
#X obj 280 21 unpack;
#X obj 26 142 spigot;
#X obj 19 84 tgl 15 0 empty empty empty 17 7 0 10 -262144 -1 -1 0 1
;
#X obj 24 106 sel 1;
#X obj 187 117 r aux;
#X obj 143 142 spigot;
#X obj 136 84 tgl 15 0 empty empty empty 17 7 0 10 -262144 -1 -1 0
1;
#X obj 141 106 sel 1;
#X obj 276 119 r aux;
#X obj 232 144 spigot;
#X obj 225 86 tgl 15 0 empty empty empty 17 7 0 10 -262144 -1 -1 0
1;
#X obj 230 108 sel 1;
#X obj 375 118 r aux;
#X obj 331 143 spigot;
#X obj 324 85 tgl 15 0 empty empty empty 17 7 0 10 -262144 -1 -1 0
1;
#X obj 329 107 sel 1;
#X obj 461 120 r aux;
#X obj 423 146 spigot;
#X obj 419 87 tgl 15 0 empty empty empty 17 7 0 10 -262144 -1 -1 0
1;
#X obj 418 106 sel 1;
#X msg 31 169 1;
#X msg 157 170 2;
#X msg 240 168 3;
#X msg 338 168 4;
#X msg 430 169 5;
#X obj 410 214 outlet;
#X obj 14 62 sel 62;
#X obj 130 62 sel 64;
#X obj 318 63 sel 67;
#X obj 219 63 sel 65;
#X obj 418 69 sel 69;
#X obj 546 120 r aux;
#X obj 508 146 spigot;
#X obj 504 87 tgl 15 0 empty empty empty 17 7 0 10 -262144 -1 -1 0
1;
#X obj 503 106 sel 1;
#X msg 515 169 6;
#X obj 504 70 sel 71;
#X connect 0 0 3 1;
#X connect 1 0 2 0;
#X connect 2 0 28 0;
#X connect 2 0 29 0;
#X connect 2 0 31 0;
#X connect 2 0 30 0;
#X connect 2 0 32 0;
#X connect 2 0 38 0;
#X connect 3 0 22 0;
#X connect 4 0 5 0;
#X connect 5 0 3 0;
#X connect 6 0 7 1;
#X connect 7 0 23 0;
#X connect 8 0 9 0;
#X connect 9 0 7 0;
#X connect 10 0 11 1;
#X connect 11 0 24 0;
#X connect 12 0 13 0;
#X connect 13 0 11 0;
#X connect 14 0 15 1;
#X connect 15 0 25 0;
#X connect 16 0 17 0;
#X connect 17 0 15 0;
#X connect 18 0 19 1;
#X connect 19 0 26 0;
#X connect 20 0 21 0;
#X connect 21 0 19 0;
#X connect 22 0 27 0;
#X connect 23 0 27 0;
#X connect 24 0 27 0;
#X connect 25 0 27 0;
#X connect 26 0 27 0;
#X connect 28 0 4 0;
#X connect 29 0 8 0;
#X connect 30 0 16 0;
#X connect 31 0 12 0;
#X connect 32 0 20 0;
#X connect 33 0 34 1;
#X connect 34 0 37 0;
#X connect 35 0 36 0;
#X connect 36 0 34 0;
#X connect 37 0 27 0;
#X connect 38 0 35 0;
#X restore 446 19 pd ^ [ ] 1 //////////;
#X obj 514 38 r chin\$1;
#X floatatom 446 69 5 0 0 0 - - -;
#X obj 447 85 sel 3 4;
#X obj 621 222 tabread copy;
#X obj 621 271 tabwrite \$0se\$1;
#X obj 738 249 +, f 7;
#X obj 621 177 t f f;
#X obj 442 202 f;
#X obj 487 200 + 1;
#X msg 517 199 1, f 6;
#X obj 432 165 tgl 15 0 empty empty empty 17 7 0 10 -262144 -1 -1 0
1;
#X msg 490 151 0;
#X obj 496 222 sel 64;
#X msg 431 143 1;
#X floatatom 572 239 5 0 0 0 - - -;
#X floatatom 730 194 5 0 0 0 - - -;
#X obj 447 293 symbol;
#X obj 447 360 s screenLine3;
#X obj 447 312 t s b;
#X obj 473 325 delay 666;
#X msg 475 342 bang, f 5;
#X msg 448 272 copy;
#X msg 483 272 pasta:\$1;
#X obj 248 72 metro 11;
#X obj 433 182 metro 11;
#X obj 381 377 outlet;
#X connect 1 0 0 0;
#X connect 2 0 11 1;
#X connect 2 0 13 0;
#X connect 2 0 22 1;
#X connect 3 0 9 1;
#X connect 3 0 14 0;
#X connect 3 0 29 1;
#X connect 4 0 5 0;
#X connect 4 0 9 0;
#X connect 4 0 12 0;
#X connect 5 0 4 1;
#X connect 6 0 4 1;
#X connect 7 0 40 0;
#X connect 8 0 7 0;
#X connect 9 0 6 0;
#X connect 9 0 8 0;
#X connect 10 0 7 0;
#X connect 11 0 1 0;
#X connect 12 0 11 0;
#X connect 12 1 0 1;
#X connect 15 0 18 0;
#X connect 16 0 15 0;
#X connect 17 0 15 1;
#X connect 18 0 19 0;
#X connect 19 0 10 0;
#X connect 19 0 38 0;
#X connect 19 1 30 0;
#X connect 19 1 42 0;
#X connect 20 0 31 0;
#X connect 20 0 21 0;
#X connect 22 0 21 1;
#X connect 23 0 20 0;
#X connect 23 1 32 0;
#X connect 23 1 22 0;
#X connect 24 0 25 0;
#X connect 24 0 29 0;
#X connect 24 0 23 0;
#X connect 25 0 24 1;
#X connect 26 0 24 1;
#X connect 27 0 41 0;
#X connect 28 0 27 0;
#X connect 29 0 26 0;
#X connect 29 0 28 0;
#X connect 30 0 27 0;
#X connect 31 0 39 0;
#X connect 33 0 35 0;
#X connect 35 0 34 0;
#X connect 35 1 36 0;
#X connect 36 0 37 0;
#X connect 37 0 34 0;
#X connect 38 0 33 0;
#X connect 39 0 33 0;
#X connect 40 0 4 0;
#X connect 41 0 24 0;
#X restore 392 305 pd ^ v /////////;
#X f 19;
#X obj 251 327 bng 15 250 50 0 empty empty empty 17 7 0 10 -262144
-1 -1;
#X obj 673 188 delay 5;
#X connect 2 0 9 0;
#X connect 2 0 63 0;
#X connect 2 0 61 1;
#X connect 3 0 51 0;
#X connect 3 0 62 0;
#X connect 4 0 6 0;
#X connect 4 0 62 0;
#X connect 6 0 22 0;
#X connect 6 0 84 0;
#X connect 9 0 11 0;
#X connect 11 0 10 0;
#X connect 12 0 10 0;
#X connect 13 0 10 0;
#X connect 14 0 18 0;
#X connect 15 0 19 0;
#X connect 16 0 20 0;
#X connect 17 0 21 0;
#X connect 18 0 104 0;
#X connect 19 0 67 0;
#X connect 20 0 106 0;
#X connect 21 0 31 0;
#X connect 22 0 25 3;
#X connect 22 0 75 0;
#X connect 23 0 60 4;
#X connect 24 0 88 0;
#X connect 24 0 100 0;
#X connect 24 0 61 0;
#X connect 25 0 70 0;
#X connect 26 0 18 1;
#X connect 26 0 19 1;
#X connect 26 0 20 1;
#X connect 26 0 21 1;
#X connect 27 0 66 0;
#X connect 28 0 65 0;
#X connect 28 0 25 0;
#X connect 28 0 75 0;
#X connect 28 0 107 0;
#X connect 30 0 92 0;
#X connect 31 0 22 0;
#X connect 31 0 89 0;
#X connect 32 0 36 0;
#X connect 32 1 37 0;
#X connect 33 0 43 0;
#X connect 34 0 35 0;
#X connect 35 1 48 0;
#X connect 36 0 44 0;
#X connect 36 0 5 0;
#X connect 37 0 44 0;
#X connect 37 0 5 0;
#X connect 37 0 2 0;
#X connect 38 0 41 0;
#X connect 39 0 41 0;
#X connect 39 0 2 0;
#X connect 40 0 30 1;
#X connect 40 0 68 0;
#X connect 41 0 44 0;
#X connect 41 1 44 1;
#X connect 42 0 32 1;
#X connect 43 0 32 0;
#X connect 43 1 42 0;
#X connect 44 0 45 0;
#X connect 45 0 46 0;
#X connect 45 0 63 0;
#X connect 45 0 50 0;
#X connect 45 0 76 0;
#X connect 45 1 47 0;
#X connect 45 1 64 0;
#X connect 46 0 40 0;
#X connect 46 0 26 0;
#X connect 47 0 40 0;
#X connect 47 0 26 0;
#X connect 48 0 38 0;
#X connect 48 0 99 0;
#X connect 48 1 39 0;
#X connect 49 0 91 0;
#X connect 50 0 28 0;
#X connect 50 0 27 0;
#X connect 50 0 24 0;
#X connect 50 0 22 0;
#X connect 50 0 90 0;
#X connect 50 0 89 0;
#X connect 51 0 31 0;
#X connect 51 0 106 0;
#X connect 55 0 54 0;
#X connect 56 0 55 0;
#X connect 57 0 58 0;
#X connect 57 0 51 0;
#X connect 57 0 87 0;
#X connect 57 0 85 0;
#X connect 57 1 59 0;
#X connect 57 1 71 0;
#X connect 58 0 55 0;
#X connect 59 0 55 0;
#X connect 61 0 23 0;
#X connect 61 1 100 0;
#X connect 61 1 60 5;
#X connect 62 0 60 0;
#X connect 63 0 62 0;
#X connect 64 0 60 1;
#X connect 65 0 23 1;
#X connect 66 0 25 1;
#X connect 66 0 75 0;
#X connect 67 0 27 0;
#X connect 67 0 93 0;
#X connect 70 0 79 0;
#X connect 71 0 10 0;
#X connect 72 0 30 0;
#X connect 73 0 10 0;
#X connect 75 0 25 0;
#X connect 76 0 111 0;
#X connect 76 3 50 0;
#X connect 77 0 51 0;
#X connect 77 0 71 0;
#X connect 77 0 85 0;
#X connect 78 0 81 0;
#X connect 81 0 80 0;
#X connect 81 1 82 0;
#X connect 82 0 97 0;
#X connect 83 0 60 3;
#X connect 84 0 60 2;
#X connect 85 0 27 0;
#X connect 86 0 51 0;
#X connect 86 0 85 0;
#X connect 86 0 87 0;
#X connect 87 0 28 0;
#X connect 88 0 78 0;
#X connect 89 0 102 0;
#X connect 90 0 103 0;
#X connect 91 0 2 0;
#X connect 91 1 3 0;
#X connect 91 1 12 0;
#X connect 91 1 69 0;
#X connect 91 2 4 0;
#X connect 91 2 13 0;
#X connect 91 3 51 0;
#X connect 91 3 87 0;
#X connect 91 3 85 0;
#X connect 92 0 49 0;
#X connect 93 0 96 0;
#X connect 94 0 3 0;
#X connect 94 0 51 0;
#X connect 94 0 87 0;
#X connect 94 0 85 0;
#X connect 95 0 51 0;
#X connect 95 0 87 0;
#X connect 95 0 85 0;
#X connect 96 0 101 0;
#X connect 96 0 105 0;
#X connect 97 0 80 0;
#X connect 99 0 78 0;
#X connect 100 0 75 0;
#X connect 100 1 25 2;
#X connect 101 0 78 0;
#X connect 102 0 78 0;
#X connect 103 0 78 0;
#X connect 104 0 28 0;
#X connect 104 0 90 0;
#X connect 105 0 25 0;
#X connect 105 1 25 1;
#X connect 106 0 24 0;
#X connect 109 0 63 0;
#X connect 110 0 62 0;
#X connect 111 0 75 0;
#X coords 0 0 1 1 100 50 2 100 100;
