#N canvas 84 87 1100 597 10;
#X obj 100 100 cnv 15 99 49 empty empty empty 20 12 0 14 -33289 -66577
0;
#X obj 102 102 cnv 15 95 45 empty empty empty 20 12 0 14 -191407 -66577
0;
#X obj 69 318 spigot;
#X obj -81 407 int;
#X obj -81 445 moses 1;
#X obj -94 16 f;
#X obj -49 14 + 1;
#X msg -22 13 1;
#X obj -104 -21 tgl 15 0 empty empty empty 17 7 0 10 -262144 -1 -1
0 1;
#X msg -47 -21 0;
#X msg -23 67 0, f 4;
#X msg -37 110 1;
#X obj 104 105 tgl 15 0 empty empty o 4 7 0 12 -258113 -1 -262144 0
1;
#X obj 69 456 / 127;
#X obj -81 391 * 127;
#X obj -51 53 t b;
#X obj 121 105 bng 15 250 50 0 empty empty x 4 7 1 12 -162280 -262144
-262144;
#X obj 38 40 f;
#X obj 61 40 + 1;
#X msg 84 40 1;
#X obj 61 59 sel 64;
#X obj 38 7 tgl 15 0 empty empty empty 17 7 0 10 -262144 -1 -1 0 1
;
#X msg 84 23 0;
#X msg 109 23 1;
#X obj 38 23 metro 5;
#X obj 39 59 t b;
#X obj 138 105 bng 15 250 50 0 empty empty % 3 8 1 10 -99865 -257985
-257985;
#X obj 39 96 + 20;
#X obj 39 77 random 60;
#X obj -81 423 moses 127;
#X obj -103 299 spigot;
#X obj 104 128 tgl 15 0 empty empty empty 2 9 0 8 -260097 -1 -262144
1 1;
#X obj -81 357 +;
#X obj 267 136 r met64, f 25;
#X obj -91 37 - 1;
#X obj 118 424 +;
#X obj -72 532 +;
#X obj -81 375 tabread \$0se\$1;
#X obj 65 489 tabwrite \$0se\$1;
#X obj -83 588 s seq\$1;
#X msg 312 117 50, f 8;
#X msg 230 84 122;
#X msg 141 65 22;
#X obj 181 106 cnv 8 14 14 empty \$0-met16 \$1 4 7 0 11 -128992 -257985
0;
#X msg 133 343 -1, f 8;
#X obj 38 114 / 127;
#X text -26 110 octv;
#X text 154 104 s3sq;
#X obj 165 23 f \$0;
#X msg 122 23 seed \$1;
#X obj -101 198 r notes;
#X obj -103 281 stripnote;
#X obj -101 238 unpack f f;
#X obj 419 96 sel 1;
#X obj 479 145 s screenLine3;
#X msg 478 110 ***** recording *****;
#X msg 477 76 delete sequence;
#X msg 477 93 randomize;
#X obj 789 65 r knob1;
#X obj 836 65 r knob2;
#X obj 884 65 r knob3;
#X obj 930 65 r knob4;
#X obj 789 83 spigot;
#X obj 836 83 spigot;
#X obj 884 83 spigot;
#X obj 929 85 spigot;
#X obj 954 220 int;
#X obj 329 275 + 1;
#X obj 888 181 int, f 8;
#X obj 831 311 pack f f f f;
#X obj 758 159 tgl 15 0 empty empty empty 17 7 0 10 -257985 -1 -1 1
1;
#X obj 815 208 int;
#X obj 756 208 int;
#X text 340 398 http://servando.teks.no;
#X obj -101 219 spigot;
#X obj -99 143 r aux;
#X obj -102 163 sel 1;
#X msg -106 184 0;
#X msg -76 184 1;
#X obj 323 10 spigot;
#X obj 69 472 pipe 20;
#X msg 224 49 0;
#X obj 947 154 * 99;
#X obj 635 22 sel \$1;
#X obj 633 -12 r chan, f 10;
#X obj 716 -23 r chen;
#X obj 716 -5 moses 6;
#X msg 635 41 1;
#X msg 662 42 0;
#X msg 714 29 1;
#X msg 737 27 0, f 4;
#X obj 687 113 tgl 15 0 empty empty empty 17 7 0 10 -257985 -1 -1 1
1;
#X obj 715 43 t b f;
#X obj 674 4 f \$1;
#X obj 634 4 t f b;
#X obj 687 57 +;
#X obj 688 75 sel 2;
#X msg 686 94 1;
#X msg 710 94 0;
#X obj 715 11 sel 6;
#X floatatom 322 61 5 0 0 0 - - -;
#X msg 685 187 bang;
#X msg 637 151 1;
#X floatatom -51 300 5 0 0 0 - - -;
#X obj 236 127 * 24;
#X obj 205 127 + 36;
#X text 350 408 http://servando.teks.no;
#X text 360 418 http://servando.teks.no;
#X obj 126 567 makenote 100 100;
#X obj 122 604 noteout, f 13;
#X obj 229 585 f \$1;
#X obj 436 324 s oscOut;
#X msg 436 305 send /led \$1;
#X obj 437 287 hradio 15 1 0 8 empty empty empty 0 -8 0 10 -262144
-1 -1 0;
#X obj 440 251 sel 1;
#X msg 438 269 4;
#X msg 466 269 0;
#N canvas 43 249 1016 435 swsq 0;
#X obj 141 203 tabread \$0se\$1;
#X obj 115 222 sel 1 2 3 4 5 6 7 8 9 10 11 12 13 14 15 16, f 73;
#X obj 152 107 f;
#X obj 207 102 + 1;
#X msg 237 102 1;
#X obj 153 70 tgl 15 0 empty empty empty 17 7 0 10 -262144 -1 -1 0
1;
#X msg 210 83 0;
#X msg 153 49 1;
#X obj 205 122 sel 16;
#X obj 151 127 - 0;
#X obj 51 19 inlet, f 9;
#X obj 287 194 symbol;
#X obj 291 123 moses 1;
#X obj 294 99 moses 127;
#X obj 344 62 inlet;
#X obj 425 55 inlet, f 10;
#X obj 336 142 t b;
#X obj 289 143 t b;
#X obj 368 150 t b;
#X obj 75 282 symbol;
#X obj 120 282 symbol;
#X obj 163 282 symbol;
#X obj 208 282 symbol;
#X obj 252 281 symbol;
#X obj 297 281 symbol;
#X obj 340 281 symbol;
#X obj 385 281 symbol;
#X obj 429 281 symbol;
#X obj 474 281 symbol;
#X obj 517 281 symbol;
#X obj 562 281 symbol;
#X obj 606 280 symbol;
#X obj 649 279 symbol;
#X obj 694 280 symbol;
#X obj 735 280 symbol;
#X obj 75 302 pack s s s s s s s s s s s s s s s s, f 66;
#X msg 73 320 [\$1\$2\$3\$4 \$5\$6\$7\$8 \$9\$10\$11\$12 \$13\$14\$15\$16]
;
#X obj 841 211 sel 1 2 3 4 5 6 7 8 9 10 11 12 13 14 15 16, f 73;
#X obj 876 105 f;
#X obj 928 103 + 1;
#X msg 962 102 1;
#X obj 876 73 tgl 15 0 empty empty empty 17 7 0 10 -262144 -1 -1 0
1;
#X msg 931 84 0;
#X msg 961 83 1;
#X obj 876 88 metro 5;
#X obj 926 123 sel 16;
#X obj 876 121 - 0;
#X obj 793 135 delay 100;
#X obj 793 156 delay 82;
#X obj 823 106 bng 15 250 50 0 empty empty empty 17 7 0 10 -262144
-1 -1;
#X obj 1003 82 * 127;
#X obj 1133 177 symbol;
#X obj 1002 122 moses 1;
#X obj 1003 102 moses 127;
#X obj 1047 141 t b;
#X msg 1047 159 x;
#X obj 1003 141 t b;
#X obj 1089 139 t b;
#X obj 783 287 symbol;
#X obj 828 287 symbol;
#X obj 871 287 symbol;
#X obj 916 287 symbol;
#X obj 960 286 symbol;
#X obj 1005 286 symbol;
#X obj 1048 286 symbol;
#X obj 1093 286 symbol;
#X obj 1137 286 symbol;
#X obj 1182 286 symbol;
#X obj 1225 286 symbol;
#X obj 1270 286 symbol;
#X obj 1314 285 symbol;
#X obj 1357 284 symbol;
#X obj 1402 285 symbol;
#X obj 1449 286 symbol;
#X obj 793 350 pack s s s s s s s s s s s s s s s s, f 66;
#X msg 1002 159 _;
#X msg 1091 159 _;
#X msg 791 369 [\$1\$2\$3\$4 \$5\$6\$7\$8 \$9\$10\$11\$12 \$13\$14\$15\$16]
;
#X obj 620 391 s screenLine4;
#X obj 775 189 tabread \$0se2\$1;
#X obj 425 75 t b;
#X obj 51 39 sel 1;
#X obj 115 158 t f f;
#X obj 80 170 t b;
#X obj 291 69 int;
#X floatatom 185 161 5 0 0 0 - - -;
#X obj 119 22 inlet;
#X obj 425 94 delay 55;
#X obj 153 88 metro 8;
#X obj 51 62 t b b b;
#X obj 62 398 s screenLine5;
#X obj 20 120 t b b b b;
#X obj 308 361 r chin\$1;
#X obj 73 372 spigot;
#X obj 823 87 inlet;
#X obj 117 107 bng 15 250 50 0 empty empty empty 17 7 0 10 -262144
-1 -1;
#X obj 171 179 - 1;
#X msg 336 160 *;
#X msg 288 161 _;
#X msg 370 170 _;
#X obj 291 41 * 127;
#N canvas 525 143 583 541 stepwhere 0;
#X msg 63 108 [_*__ ____ ____ ____];
#X msg 78 130 [__*_ ____ ____ ____];
#X msg 133 192 [____ _*__ ____ ____];
#X msg 143 214 [____ __*_ ____ ____];
#X msg 157 233 [____ ___* ____ ____];
#X msg 194 275 [____ ____ _*__ ____];
#X msg 209 297 [____ ____ __*_ ____];
#X msg 222 318 [____ ____ ___* ____];
#X msg 253 362 [____ ____ ____ _*__];
#X msg 271 380 [____ ____ ____ __*_];
#X msg 289 400 [____ ____ ____ ___*];
#X obj 192 414 outlet;
#X obj 41 44 inlet;
#X msg 100 151 [___* ____ ____ ____];
#X obj 41 64 sel 1 2 3 4 5 6 7 8 9 10 11 12 13 14 15 16;
#X msg 41 88 [#___ ____ ____ ____];
#X msg 116 172 [____ #___ ____ ____];
#X msg 179 255 [____ ____ #___ ____];
#X msg 240 342 [____ ____ ____ #___];
#X connect 0 0 11 0;
#X connect 1 0 11 0;
#X connect 2 0 11 0;
#X connect 3 0 11 0;
#X connect 4 0 11 0;
#X connect 5 0 11 0;
#X connect 6 0 11 0;
#X connect 7 0 11 0;
#X connect 8 0 11 0;
#X connect 9 0 11 0;
#X connect 10 0 11 0;
#X connect 12 0 14 0;
#X connect 13 0 11 0;
#X connect 14 0 15 0;
#X connect 14 1 0 0;
#X connect 14 2 1 0;
#X connect 14 3 13 0;
#X connect 14 4 16 0;
#X connect 14 5 2 0;
#X connect 14 6 3 0;
#X connect 14 7 4 0;
#X connect 14 8 17 0;
#X connect 14 9 5 0;
#X connect 14 10 6 0;
#X connect 14 11 7 0;
#X connect 14 12 18 0;
#X connect 14 13 8 0;
#X connect 14 14 9 0;
#X connect 14 15 10 0;
#X connect 15 0 11 0;
#X connect 16 0 11 0;
#X connect 17 0 11 0;
#X connect 18 0 11 0;
#X restore 610 147 pd stepwhere;
#X obj 610 128 inlet, f 10;
#X obj 617 361 spigot;
#X obj 51 83 delay 33;
#X msg 125 344 bang;
#X connect 0 0 100 0;
#X connect 1 0 19 0;
#X connect 1 1 20 0;
#X connect 1 2 21 0;
#X connect 1 3 22 0;
#X connect 1 4 23 0;
#X connect 1 5 24 0;
#X connect 1 6 25 0;
#X connect 1 7 26 0;
#X connect 1 8 27 0;
#X connect 1 9 28 0;
#X connect 1 10 29 0;
#X connect 1 11 30 0;
#X connect 1 12 31 0;
#X connect 1 13 32 0;
#X connect 1 14 33 0;
#X connect 1 15 34 0;
#X connect 2 0 3 0;
#X connect 2 0 8 0;
#X connect 2 0 9 0;
#X connect 3 0 2 1;
#X connect 4 0 2 1;
#X connect 5 0 88 0;
#X connect 6 0 5 0;
#X connect 7 0 5 0;
#X connect 8 0 4 0;
#X connect 8 0 6 0;
#X connect 8 0 83 0;
#X connect 9 0 82 0;
#X connect 10 0 81 0;
#X connect 11 0 34 1;
#X connect 11 0 19 1;
#X connect 11 0 20 1;
#X connect 11 0 21 1;
#X connect 11 0 22 1;
#X connect 11 0 23 1;
#X connect 11 0 24 1;
#X connect 11 0 25 1;
#X connect 11 0 26 1;
#X connect 11 0 27 1;
#X connect 11 0 28 1;
#X connect 11 0 29 1;
#X connect 11 0 30 1;
#X connect 11 0 31 1;
#X connect 11 0 32 1;
#X connect 11 0 33 1;
#X connect 12 0 17 0;
#X connect 12 1 16 0;
#X connect 13 0 12 0;
#X connect 13 1 18 0;
#X connect 14 0 13 1;
#X connect 14 0 80 0;
#X connect 15 0 12 1;
#X connect 15 0 80 0;
#X connect 16 0 97 0;
#X connect 17 0 98 0;
#X connect 18 0 99 0;
#X connect 19 0 35 0;
#X connect 20 0 35 1;
#X connect 21 0 35 2;
#X connect 22 0 35 3;
#X connect 23 0 35 4;
#X connect 24 0 35 5;
#X connect 25 0 35 6;
#X connect 26 0 35 7;
#X connect 27 0 35 8;
#X connect 28 0 35 9;
#X connect 29 0 35 10;
#X connect 30 0 35 11;
#X connect 31 0 35 12;
#X connect 32 0 35 13;
#X connect 33 0 35 14;
#X connect 34 0 35 15;
#X connect 35 0 36 0;
#X connect 36 0 93 0;
#X connect 37 0 58 0;
#X connect 37 1 59 0;
#X connect 37 2 60 0;
#X connect 37 3 61 0;
#X connect 37 4 62 0;
#X connect 37 5 63 0;
#X connect 37 6 64 0;
#X connect 37 7 65 0;
#X connect 37 8 66 0;
#X connect 37 9 67 0;
#X connect 37 10 68 0;
#X connect 37 11 69 0;
#X connect 37 12 70 0;
#X connect 37 13 71 0;
#X connect 37 14 72 0;
#X connect 37 15 73 0;
#X connect 38 0 39 0;
#X connect 38 0 45 0;
#X connect 38 0 46 0;
#X connect 39 0 38 1;
#X connect 40 0 38 1;
#X connect 41 0 44 0;
#X connect 42 0 41 0;
#X connect 43 0 41 0;
#X connect 44 0 38 0;
#X connect 45 0 40 0;
#X connect 45 0 42 0;
#X connect 46 0 37 0;
#X connect 46 0 79 0;
#X connect 47 0 43 0;
#X connect 47 0 48 0;
#X connect 48 0 58 0;
#X connect 49 0 47 0;
#X connect 49 0 43 0;
#X connect 50 0 53 0;
#X connect 51 0 73 1;
#X connect 51 0 58 1;
#X connect 51 0 59 1;
#X connect 51 0 60 1;
#X connect 51 0 61 1;
#X connect 51 0 62 1;
#X connect 51 0 63 1;
#X connect 51 0 64 1;
#X connect 51 0 65 1;
#X connect 51 0 66 1;
#X connect 51 0 67 1;
#X connect 51 0 68 1;
#X connect 51 0 69 1;
#X connect 51 0 70 1;
#X connect 51 0 71 1;
#X connect 51 0 72 1;
#X connect 52 0 56 0;
#X connect 52 1 54 0;
#X connect 53 0 52 0;
#X connect 53 1 57 0;
#X connect 54 0 55 0;
#X connect 55 0 51 0;
#X connect 56 0 75 0;
#X connect 57 0 76 0;
#X connect 58 0 74 0;
#X connect 59 0 74 1;
#X connect 60 0 74 2;
#X connect 61 0 74 3;
#X connect 62 0 74 4;
#X connect 63 0 74 5;
#X connect 64 0 74 6;
#X connect 65 0 74 7;
#X connect 66 0 74 8;
#X connect 67 0 74 9;
#X connect 68 0 74 10;
#X connect 69 0 74 11;
#X connect 70 0 74 12;
#X connect 71 0 74 13;
#X connect 72 0 74 14;
#X connect 73 0 74 15;
#X connect 74 0 77 0;
#X connect 75 0 51 0;
#X connect 76 0 51 0;
#X connect 79 0 50 0;
#X connect 80 0 87 0;
#X connect 81 0 89 0;
#X connect 82 0 1 0;
#X connect 82 1 85 0;
#X connect 82 1 96 0;
#X connect 83 0 35 0;
#X connect 84 0 13 0;
#X connect 86 0 105 0;
#X connect 86 0 91 0;
#X connect 87 0 7 0;
#X connect 88 0 2 0;
#X connect 89 0 104 0;
#X connect 89 2 105 0;
#X connect 91 0 105 0;
#X connect 91 1 105 0;
#X connect 91 2 105 0;
#X connect 92 0 93 1;
#X connect 92 0 103 1;
#X connect 93 0 90 0;
#X connect 94 0 49 0;
#X connect 95 0 83 0;
#X connect 96 0 0 0;
#X connect 97 0 11 0;
#X connect 98 0 11 0;
#X connect 99 0 11 0;
#X connect 100 0 84 0;
#X connect 101 0 103 0;
#X connect 102 0 101 0;
#X connect 103 0 78 0;
#X connect 104 0 7 0;
#X connect 105 0 93 0;
#X connect 105 0 103 0;
#X restore 285 366 pd swsq;
#X f 24;
#X obj 212 496 tabwrite \$0se2\$1;
#X obj 213 477 / 127;
#X obj 213 459 * 100;
#X msg 213 441 1;
#X obj 214 425 t b;
#N canvas 462 174 624 383 metrrr 0;
#X obj 104 30 r meet8;
#X obj 177 29 r meet16;
#X obj 243 28 r meet32;
#X obj 375 26 r meet3;
#X obj 487 24 r meet33;
#X obj 17 19 inlet;
#X obj 215 250 outlet;
#X msg 128 165 0;
#X msg 101 164 1;
#X obj 82 185 spigot;
#X obj 114 70 t b, f 4;
#X obj 114 90 f;
#X obj 141 91 + 1;
#X obj 128 116 sel 16;
#X msg 98 102 1;
#X msg 226 165 0;
#X msg 199 164 1;
#X obj 180 185 spigot;
#X obj 212 70 t b, f 4;
#X obj 212 90 f;
#X obj 239 91 + 1;
#X obj 224 121 sel 16;
#X msg 196 102 1;
#X obj 101 143 sel 0;
#X obj 184 144 sel 1;
#X msg 300 168 0;
#X msg 273 167 1;
#X obj 254 188 spigot;
#X obj 286 73 t b, f 4;
#X obj 286 93 f;
#X obj 313 94 + 1;
#X obj 299 125 sel 16;
#X msg 270 105 1;
#X msg 403 168 0;
#X msg 376 167 1;
#X obj 357 188 spigot;
#X obj 389 73 t b, f 4;
#X obj 389 93 f;
#X obj 416 94 + 1;
#X obj 400 121 sel 16;
#X msg 373 105 1;
#X msg 514 170 0;
#X msg 487 169 1;
#X obj 468 190 spigot;
#X obj 500 75 t b, f 4;
#X obj 500 95 f;
#X obj 527 96 + 1;
#X obj 513 126 sel 16;
#X msg 484 107 1;
#X obj 258 147 sel 2;
#X obj 361 147 sel 3;
#X obj 472 149 sel 4;
#X connect 0 0 10 0;
#X connect 1 0 18 0;
#X connect 2 0 28 0;
#X connect 3 0 36 0;
#X connect 4 0 44 0;
#X connect 5 0 23 0;
#X connect 5 0 24 0;
#X connect 5 0 49 0;
#X connect 5 0 50 0;
#X connect 5 0 51 0;
#X connect 7 0 9 1;
#X connect 8 0 9 1;
#X connect 9 0 6 0;
#X connect 10 0 11 0;
#X connect 11 0 12 0;
#X connect 11 0 9 0;
#X connect 11 0 13 0;
#X connect 12 0 11 1;
#X connect 13 0 14 0;
#X connect 14 0 11 0;
#X connect 15 0 17 1;
#X connect 16 0 17 1;
#X connect 17 0 6 0;
#X connect 18 0 19 0;
#X connect 19 0 20 0;
#X connect 19 0 17 0;
#X connect 19 0 21 0;
#X connect 20 0 19 1;
#X connect 21 0 22 0;
#X connect 22 0 19 0;
#X connect 23 0 8 0;
#X connect 23 1 7 0;
#X connect 24 0 16 0;
#X connect 24 1 15 0;
#X connect 25 0 27 1;
#X connect 26 0 27 1;
#X connect 27 0 6 0;
#X connect 28 0 29 0;
#X connect 29 0 30 0;
#X connect 29 0 27 0;
#X connect 29 0 31 0;
#X connect 30 0 29 1;
#X connect 31 0 32 0;
#X connect 32 0 29 0;
#X connect 33 0 35 1;
#X connect 34 0 35 1;
#X connect 35 0 6 0;
#X connect 36 0 37 0;
#X connect 37 0 38 0;
#X connect 37 0 35 0;
#X connect 37 0 39 0;
#X connect 38 0 37 1;
#X connect 39 0 40 0;
#X connect 40 0 37 0;
#X connect 41 0 43 1;
#X connect 42 0 43 1;
#X connect 43 0 6 0;
#X connect 44 0 45 0;
#X connect 45 0 46 0;
#X connect 45 0 43 0;
#X connect 45 0 47 0;
#X connect 46 0 45 1;
#X connect 47 0 48 0;
#X connect 48 0 45 0;
#X connect 49 0 26 0;
#X connect 49 1 25 0;
#X connect 50 0 34 0;
#X connect 50 1 33 0;
#X connect 51 0 42 0;
#X connect 51 1 41 0;
#X restore 632 287 pd metrrr;
#X obj 284 348 f 1, f 6;
#X obj 274 332 t b, f 4;
#X obj 326 336 bng 15 250 50 0 empty empty empty 17 7 0 10 -262144
-1 -1;
#X obj 118 472 spigot;
#X obj 151 454 tgl 15 0 empty empty empty 17 7 0 10 -262144 -1 -1 1
1;
#X obj -95 101 sel 1;
#X msg -99 122 0;
#X msg -69 122 1;
#X obj -52 89 delay 666;
#X obj 350 256 + 1;
#X obj 823 236 - 2;
#X obj 841 178 * 4;
#X obj 361 450 sel -2 -1 0 1 2;
#X msg 17 488 0;
#X obj -101 261 - 24;
#X obj -96 517 +;
#X obj 703 112 s chin\$1;
#N canvas 415 147 663 466 deleteanim 0;
#X obj 236 11 inlet;
#X obj 40 202 s screenLine4;
#X msg 177 44 *********************;
#X msg 177 61 ********************;
#X msg 177 78 *******************;
#X msg 177 95 ******************;
#X msg 177 112 *****************;
#X msg 177 129 ****************;
#X msg 177 146 ***************;
#X msg 177 163 **************;
#X msg 177 180 ************;
#X msg 177 197 **********;
#X msg 177 214 ********;
#X msg 177 231 *******;
#X msg 177 248 ******;
#X msg 177 265 *****;
#X msg 177 282 ****;
#X msg 177 299 ***;
#X msg 178 316 **;
#X msg 178 332 *;
#X obj 313 36 delay 33;
#X obj 314 57 delay 33;
#X obj 314 77 delay 33;
#X obj 314 94 delay 33;
#X obj 314 111 delay 33;
#X obj 314 128 delay 33;
#X obj 314 145 delay 33;
#X obj 314 162 delay 33;
#X obj 314 179 delay 33;
#X obj 314 196 delay 33;
#X obj 314 213 delay 33;
#X obj 313 230 delay 33;
#X obj 313 246 delay 33;
#X obj 313 263 delay 33;
#X obj 313 280 delay 33;
#X obj 313 297 delay 33;
#X obj 313 315 delay 33;
#X obj 313 333 delay 33;
#X obj 317 2 loadbang;
#X msg 424 27 15, f 8;
#X msg 178 348 |;
#X connect 0 0 2 0;
#X connect 0 0 20 0;
#X connect 2 0 1 0;
#X connect 3 0 1 0;
#X connect 4 0 1 0;
#X connect 5 0 1 0;
#X connect 6 0 1 0;
#X connect 7 0 1 0;
#X connect 8 0 1 0;
#X connect 9 0 1 0;
#X connect 10 0 1 0;
#X connect 11 0 1 0;
#X connect 12 0 1 0;
#X connect 13 0 1 0;
#X connect 14 0 1 0;
#X connect 15 0 1 0;
#X connect 16 0 1 0;
#X connect 17 0 1 0;
#X connect 18 0 1 0;
#X connect 19 0 1 0;
#X connect 20 0 21 0;
#X connect 20 0 3 0;
#X connect 21 0 22 0;
#X connect 21 0 4 0;
#X connect 22 0 23 0;
#X connect 22 0 5 0;
#X connect 23 0 24 0;
#X connect 23 0 6 0;
#X connect 24 0 25 0;
#X connect 24 0 7 0;
#X connect 25 0 26 0;
#X connect 25 0 8 0;
#X connect 26 0 27 0;
#X connect 26 0 9 0;
#X connect 27 0 28 0;
#X connect 27 0 10 0;
#X connect 28 0 29 0;
#X connect 28 0 11 0;
#X connect 29 0 30 0;
#X connect 29 0 12 0;
#X connect 30 0 31 0;
#X connect 30 0 13 0;
#X connect 31 0 14 0;
#X connect 31 0 32 0;
#X connect 32 0 33 0;
#X connect 32 0 15 0;
#X connect 33 0 34 0;
#X connect 33 0 16 0;
#X connect 34 0 35 0;
#X connect 34 0 17 0;
#X connect 35 0 36 0;
#X connect 35 0 18 0;
#X connect 36 0 37 0;
#X connect 36 0 19 0;
#X connect 37 0 40 0;
#X connect 38 0 39 0;
#X connect 39 0 37 1;
#X connect 39 0 36 1;
#X connect 39 0 35 1;
#X connect 39 0 34 1;
#X connect 39 0 33 1;
#X connect 39 0 32 1;
#X connect 39 0 31 1;
#X connect 39 0 30 1;
#X connect 39 0 29 1;
#X connect 39 0 28 1;
#X connect 39 0 27 1;
#X connect 39 0 26 1;
#X connect 39 0 25 1;
#X connect 39 0 24 1;
#X connect 39 0 23 1;
#X connect 39 0 21 1;
#X connect 40 0 1 0;
#X restore 478 34 pd deleteanim;
#X msg 831 341 #[\$1]-[\$2] ^[\$3] %[\$4];
#X obj -102 -4 metro 3;
#X msg 426 130 |, f 6;
#N canvas -147 190 1272 215 shift 0;
#X obj 70 117 r aux;
#X obj 19 12 r notes;
#X obj 19 32 unpack;
#X obj 26 142 spigot;
#X obj 13 62 sel 61;
#X obj 19 84 tgl 15 0 empty empty empty 17 7 0 10 -262144 -1 -1 0 1
;
#X obj 24 106 sel 1;
#X obj 187 117 r aux;
#X obj 136 12 r notes;
#X obj 136 32 unpack;
#X obj 143 142 spigot;
#X obj 136 84 tgl 15 0 empty empty empty 17 7 0 10 -262144 -1 -1 0
1;
#X obj 141 106 sel 1;
#X obj 130 62 sel 63;
#X obj 276 119 r aux;
#X obj 225 14 r notes;
#X obj 225 34 unpack;
#X obj 232 144 spigot;
#X obj 225 86 tgl 15 0 empty empty empty 17 7 0 10 -262144 -1 -1 0
1;
#X obj 230 108 sel 1;
#X obj 219 64 sel 66;
#X obj 375 118 r aux;
#X obj 324 13 r notes;
#X obj 324 33 unpack;
#X obj 331 143 spigot;
#X obj 324 85 tgl 15 0 empty empty empty 17 7 0 10 -262144 -1 -1 0
1;
#X obj 329 107 sel 1;
#X obj 461 120 r aux;
#X obj 413 12 r notes;
#X obj 413 32 unpack;
#X obj 423 146 spigot;
#X obj 413 84 tgl 15 0 empty empty empty 17 7 0 10 -262144 -1 -1 0
1;
#X obj 418 106 sel 1;
#X obj 318 63 sel 68;
#X obj 407 61 sel 70;
#X msg 31 169 1;
#X msg 157 170 2;
#X msg 240 168 3;
#X msg 338 168 4;
#X msg 430 169 5;
#X obj 427 198 outlet;
#X connect 0 0 3 1;
#X connect 1 0 2 0;
#X connect 2 0 4 0;
#X connect 3 0 35 0;
#X connect 4 0 5 0;
#X connect 5 0 6 0;
#X connect 6 0 3 0;
#X connect 7 0 10 1;
#X connect 8 0 9 0;
#X connect 9 0 13 0;
#X connect 10 0 36 0;
#X connect 11 0 12 0;
#X connect 12 0 10 0;
#X connect 13 0 11 0;
#X connect 14 0 17 1;
#X connect 15 0 16 0;
#X connect 16 0 20 0;
#X connect 17 0 37 0;
#X connect 18 0 19 0;
#X connect 19 0 17 0;
#X connect 20 0 18 0;
#X connect 21 0 24 1;
#X connect 22 0 23 0;
#X connect 23 0 33 0;
#X connect 24 0 38 0;
#X connect 25 0 26 0;
#X connect 26 0 24 0;
#X connect 27 0 30 1;
#X connect 28 0 29 0;
#X connect 29 0 34 0;
#X connect 30 0 39 0;
#X connect 31 0 32 0;
#X connect 32 0 30 0;
#X connect 33 0 25 0;
#X connect 34 0 31 0;
#X connect 35 0 40 0;
#X connect 36 0 40 0;
#X connect 37 0 40 0;
#X connect 38 0 40 0;
#X connect 39 0 40 0;
#X restore 323 -7 pd shift # 1stoct;
#X msg 479 127 (0).(X)__(R).(-).(-);
#X msg -14 586 5;
#X msg 180 65 99;
#X msg 479 52 ***SEQUENCER***;
#X obj -83 570 spigot;
#X obj -27 557 tgl 15 0 empty empty empty 17 7 0 10 -262144 -1 -1 1
1;
#X obj 65 552 r mt\$1;
#X obj 753 271 t b;
#X obj 689 135 t b b b b;
#X obj 222 -7 loadbang, f 16;
#X obj 276 209 mod 16, f 7;
#X obj 889 441 symbol;
#X obj 831 359 s screenLine2;
#X obj 888 524 s screenLine3;
#X obj 889 460 t s b;
#X obj 915 473 delay 666;
#X obj 122 129 nbx 3 14 0 127 0 0 empty empty empty 0 -8 0 10 -128992
-4034 -4034 22 256;
#X obj 159 129 nbx 3 14 0 127 0 0 empty empty empty 0 -8 0 10 -128992
-4034 -4034 60 256;
#X obj 13 200 table \$0se\$1 128;
#X obj 328 497 table \$0se2\$1 128;
#X msg 627 250 2;
#X obj 568 14 r ldbdlyd;
#X msg 619 194 0;
#X msg 863 397 Bar_steps:\$1;
#X obj 964 372 int;
#X obj 446 356 int;
#X obj 748 370 int;
#X obj 430 -7 sel 1 2 3 5, f 26;
#X obj 323 26 moses 6;
#X obj 694 287 - 2;
#X obj 119 -12 r flush;
#X obj 599 38 bng 15 250 50 0 empty empty empty 17 7 0 10 -262144 -1
-1;
#X obj 822 29 print ldbdld ch\$1;
#X obj 694 307 int;
#X msg 917 490 bang, f 5;
#X text 505 506 pani-k=SHft+A#;
#X msg 643 401 **S3rquencer**;
#X floatatom 372 177 5 0 0 0 - - -;
#X obj 321 156 moses 17;
#X obj 379 195 sel 17 18;
#X msg 345 209 32;
#X msg 621 339 64;
#X obj -40 36 sel 64;
#X obj 897 157 * 16;
#X msg -27 462 -24;
#X msg -20 482 -12;
#X msg 26 510 12;
#X msg 50 529 24;
#X obj 864 234 t b f;
#X msg 672 458 Transpose:\$1_St's;
#X msg 964 390 Cmplx:\$1%;
#X msg 756 397 Offset:\$1steps;
#X obj 794 167 * 8;
#X obj 708 331 t b f;
#X connect 2 0 13 0;
#X connect 2 0 125 0;
#X connect 3 0 29 0;
#X connect 4 1 36 0;
#X connect 5 0 6 0;
#X connect 5 0 15 0;
#X connect 5 0 34 0;
#X connect 5 0 188 0;
#X connect 6 0 5 1;
#X connect 7 0 5 1;
#X connect 8 0 129 0;
#X connect 8 0 143 0;
#X connect 9 0 8 0;
#X connect 10 0 38 0;
#X connect 10 0 118 0;
#X connect 11 0 8 0;
#X connect 12 0 2 1;
#X connect 12 0 114 0;
#X connect 12 0 53 0;
#X connect 12 0 125 0;
#X connect 13 0 80 0;
#X connect 14 0 3 0;
#X connect 15 0 10 0;
#X connect 16 0 11 0;
#X connect 16 0 102 0;
#X connect 16 0 124 0;
#X connect 16 0 132 0;
#X connect 17 0 18 0;
#X connect 17 0 20 0;
#X connect 17 0 25 0;
#X connect 17 0 35 0;
#X connect 18 0 17 1;
#X connect 19 0 17 1;
#X connect 20 0 19 0;
#X connect 20 0 22 0;
#X connect 21 0 24 0;
#X connect 22 0 21 0;
#X connect 23 0 21 0;
#X connect 24 0 17 0;
#X connect 25 0 28 0;
#X connect 26 0 23 0;
#X connect 26 0 40 0;
#X connect 26 0 124 0;
#X connect 27 0 45 0;
#X connect 28 0 27 0;
#X connect 29 0 4 0;
#X connect 30 0 2 0;
#X connect 30 0 139 0;
#X connect 31 0 30 1;
#X connect 32 0 37 0;
#X connect 33 0 156 0;
#X connect 34 0 38 1;
#X connect 34 0 118 1;
#X connect 35 0 118 1;
#X connect 35 0 127 0;
#X connect 36 0 150 0;
#X connect 37 0 14 0;
#X connect 40 0 66 0;
#X connect 40 0 163 0;
#X connect 41 0 163 0;
#X connect 42 0 162 0;
#X connect 44 0 32 1;
#X connect 44 0 35 1;
#X connect 45 0 38 0;
#X connect 45 0 118 0;
#X connect 45 0 122 0;
#X connect 48 0 49 0;
#X connect 49 0 28 0;
#X connect 50 0 74 0;
#X connect 51 0 30 0;
#X connect 51 0 103 0;
#X connect 52 0 138 0;
#X connect 52 1 51 1;
#X connect 52 1 119 0;
#X connect 53 0 55 0;
#X connect 55 0 54 0;
#X connect 56 0 54 0;
#X connect 57 0 54 0;
#X connect 58 0 62 0;
#X connect 59 0 63 0;
#X connect 60 0 64 0;
#X connect 61 0 65 0;
#X connect 62 0 198 0;
#X connect 63 0 135 0;
#X connect 64 0 189 0;
#X connect 65 0 82 0;
#X connect 65 0 104 0;
#X connect 66 0 69 3;
#X connect 66 0 153 0;
#X connect 67 0 117 4;
#X connect 67 0 35 0;
#X connect 67 0 32 0;
#X connect 68 0 184 0;
#X connect 68 0 169 0;
#X connect 68 0 194 0;
#X connect 69 0 142 0;
#X connect 70 0 62 1;
#X connect 70 0 63 1;
#X connect 70 0 64 1;
#X connect 70 0 65 1;
#X connect 71 0 134 0;
#X connect 72 0 123 0;
#X connect 72 0 133 0;
#X connect 72 0 69 0;
#X connect 72 0 153 0;
#X connect 74 0 52 0;
#X connect 75 0 76 0;
#X connect 76 0 77 0;
#X connect 76 1 78 0;
#X connect 77 0 74 1;
#X connect 78 0 74 1;
#X connect 79 0 174 0;
#X connect 80 0 38 0;
#X connect 81 0 12 0;
#X connect 82 0 66 0;
#X connect 82 0 170 0;
#X connect 83 0 87 0;
#X connect 83 1 88 0;
#X connect 84 0 94 0;
#X connect 85 0 86 0;
#X connect 86 1 99 0;
#X connect 87 0 95 0;
#X connect 87 0 31 0;
#X connect 88 0 95 0;
#X connect 88 0 31 0;
#X connect 88 0 12 0;
#X connect 89 0 92 0;
#X connect 90 0 92 0;
#X connect 90 0 12 0;
#X connect 91 0 79 1;
#X connect 91 0 140 0;
#X connect 92 0 95 0;
#X connect 92 1 95 1;
#X connect 93 0 83 1;
#X connect 94 0 83 0;
#X connect 94 1 93 0;
#X connect 95 0 96 0;
#X connect 96 0 97 0;
#X connect 96 0 125 0;
#X connect 96 0 101 0;
#X connect 96 0 154 0;
#X connect 96 1 98 0;
#X connect 96 1 126 0;
#X connect 97 0 91 0;
#X connect 97 0 70 0;
#X connect 98 0 91 0;
#X connect 98 0 70 0;
#X connect 99 0 89 0;
#X connect 99 0 182 0;
#X connect 99 1 90 0;
#X connect 100 0 173 0;
#X connect 101 0 72 0;
#X connect 101 0 71 0;
#X connect 101 0 68 0;
#X connect 101 0 66 0;
#X connect 101 0 172 0;
#X connect 101 0 171 0;
#X connect 101 0 170 0;
#X connect 102 0 82 0;
#X connect 102 0 128 0;
#X connect 102 0 151 0;
#X connect 102 0 189 0;
#X connect 104 0 105 0;
#X connect 105 0 163 0;
#X connect 108 0 109 0;
#X connect 108 1 109 1;
#X connect 110 0 109 2;
#X connect 112 0 111 0;
#X connect 113 0 112 0;
#X connect 114 0 115 0;
#X connect 114 0 102 0;
#X connect 114 0 41 0;
#X connect 114 0 168 0;
#X connect 114 0 166 0;
#X connect 114 1 116 0;
#X connect 114 1 144 0;
#X connect 115 0 112 0;
#X connect 116 0 112 0;
#X connect 119 0 118 0;
#X connect 120 0 119 0;
#X connect 121 0 120 0;
#X connect 122 0 121 0;
#X connect 124 0 117 0;
#X connect 125 0 124 0;
#X connect 126 0 117 1;
#X connect 127 0 38 1;
#X connect 128 0 127 1;
#X connect 129 0 130 0;
#X connect 129 1 131 0;
#X connect 130 0 128 0;
#X connect 131 0 128 0;
#X connect 132 0 11 0;
#X connect 132 0 41 0;
#X connect 133 0 67 1;
#X connect 134 0 69 1;
#X connect 134 0 153 0;
#X connect 135 0 71 0;
#X connect 135 0 175 0;
#X connect 136 0 190 0;
#X connect 136 1 191 0;
#X connect 136 2 137 0;
#X connect 136 3 192 0;
#X connect 136 4 193 0;
#X connect 137 0 36 1;
#X connect 137 0 139 1;
#X connect 138 0 51 0;
#X connect 139 0 150 0;
#X connect 142 0 158 0;
#X connect 143 0 5 0;
#X connect 144 0 54 0;
#X connect 145 0 79 0;
#X connect 146 0 54 0;
#X connect 147 0 36 1;
#X connect 148 0 163 0;
#X connect 150 0 39 0;
#X connect 150 0 108 0;
#X connect 151 0 150 1;
#X connect 152 0 151 0;
#X connect 153 0 69 0;
#X connect 154 0 153 0;
#X connect 154 1 153 0;
#X connect 154 3 101 0;
#X connect 155 0 42 0;
#X connect 155 0 44 0;
#X connect 155 0 48 0;
#X connect 155 0 148 0;
#X connect 155 0 110 0;
#X connect 155 0 102 0;
#X connect 155 0 144 0;
#X connect 155 0 166 0;
#X connect 155 0 78 0;
#X connect 156 0 67 0;
#X connect 157 0 160 0;
#X connect 160 0 159 0;
#X connect 160 1 161 0;
#X connect 161 0 180 0;
#X connect 162 0 4 1;
#X connect 162 0 117 3;
#X connect 163 0 29 1;
#X connect 163 0 117 2;
#X connect 166 0 71 0;
#X connect 167 0 102 0;
#X connect 167 0 166 0;
#X connect 167 0 168 0;
#X connect 168 0 72 0;
#X connect 169 0 157 0;
#X connect 170 0 196 0;
#X connect 172 0 197 0;
#X connect 173 0 12 0;
#X connect 173 1 16 0;
#X connect 173 1 56 0;
#X connect 173 1 81 0;
#X connect 173 1 141 0;
#X connect 173 2 26 0;
#X connect 173 2 57 0;
#X connect 173 2 81 0;
#X connect 173 3 102 0;
#X connect 173 3 168 0;
#X connect 173 3 166 0;
#X connect 174 0 100 0;
#X connect 175 0 179 0;
#X connect 176 0 16 0;
#X connect 176 0 102 0;
#X connect 176 0 168 0;
#X connect 176 0 166 0;
#X connect 177 0 102 0;
#X connect 177 0 168 0;
#X connect 177 0 166 0;
#X connect 179 0 195 0;
#X connect 179 0 136 0;
#X connect 179 0 199 0;
#X connect 180 0 159 0;
#X connect 182 0 157 0;
#X connect 183 0 185 0;
#X connect 184 0 156 1;
#X connect 184 0 171 0;
#X connect 184 1 183 0;
#X connect 185 0 186 0;
#X connect 185 1 187 0;
#X connect 186 0 156 1;
#X connect 186 0 171 0;
#X connect 187 0 156 1;
#X connect 188 0 7 0;
#X connect 188 0 9 0;
#X connect 189 0 68 0;
#X connect 190 0 36 1;
#X connect 190 0 139 1;
#X connect 191 0 36 1;
#X connect 191 0 139 1;
#X connect 192 0 36 1;
#X connect 192 0 139 1;
#X connect 193 0 36 1;
#X connect 193 0 139 1;
#X connect 194 0 153 0;
#X connect 194 1 69 2;
#X connect 195 0 157 0;
#X connect 196 0 157 0;
#X connect 197 0 157 0;
#X connect 198 0 72 0;
#X connect 198 0 172 0;
#X connect 199 0 69 0;
#X connect 199 1 69 1;
#X coords 0 0 1 1 100 50 2 100 100;
