#N canvas 405 80 1376 738 10;
#X obj 100 100 cnv 15 99 49 empty empty empty 20 12 0 14 -260097 -66577
0;
#X obj 103 103 cnv 15 95 45 empty empty empty 20 12 0 14 -162280 -66577
0;
#X obj 79 297 spigot;
#X obj -82 401 int;
#X obj -51 428 moses 1;
#X obj -95 10 f;
#X obj -47 15 + 1;
#X msg -20 14 1, f 4;
#X obj -105 -27 tgl 15 0 empty empty empty 17 7 0 10 -262144 -1 -1
0 1;
#X msg -45 -20 0;
#X msg 3 59 0, f 4;
#X msg -28 102 1;
#X obj 105 106 tgl 15 0 empty empty o 4 7 0 12 -258113 -1 -262144 0
1;
#X obj 53 425 / 127;
#X obj -82 385 * 127;
#X obj -49 54 t b;
#X obj 139 105 bng 15 250 50 0 empty empty x 4 7 1 12 -162280 -262144
-262144;
#X obj 40 41 f;
#X obj 63 41 + 1;
#X msg 591 147 1;
#X obj 40 7 tgl 15 0 empty empty empty 17 7 0 10 -262144 -1 -1 0 1
;
#X msg 86 24 0;
#X msg 111 24 1;
#X obj 40 24 metro 5;
#X obj 41 60 t b;
#X obj 137 125 bng 15 250 50 0 empty empty % 3 8 1 10 -99865 -257985
-257985;
#X obj 41 97 + 20;
#X obj 41 78 random 60;
#X obj -51 406 moses 127;
#X obj -104 293 spigot;
#X obj 106 126 tgl 15 0 empty empty empty 2 9 0 8 -260097 -1 -262144
0 1;
#X obj -82 351 +;
#X obj -92 31 - 1;
#X obj 117 418 +;
#X obj -73 526 +;
#X obj 2 645 s seq\$1, f 22;
#X msg 311 93 50, f 8;
#X msg 229 78 122;
#X msg 143 66 22;
#X obj 184 104 cnv 8 14 14 empty \$0-met16 \$1 4 7 0 11 -33289 -257985
0;
#X msg -22 342 -1, f 8;
#X obj 40 115 / 127;
#X text -16 175 octv;
#X text 158 104 s3sq;
#X obj 164 17 f \$0;
#X msg 124 24 seed \$1;
#X obj -102 192 r notes;
#X obj -104 275 stripnote;
#X obj -99 239 unpack f f;
#X obj 393 82 sel 1;
#X obj 1131 281 s screenLine3;
#X msg 1130 246 ***** recording *****;
#X msg 1129 212 delete sequence;
#X msg 1129 229 randomize;
#X obj 905 214 int;
#X obj 298 264 + 1, f 6;
#X obj 836 311 pack f f f f;
#X obj 821 210 int;
#X obj 765 221 int;
#X text 870 624 http://servando.teks.no;
#X obj -102 213 spigot;
#X obj -49 141 r aux, f 8;
#X obj -103 157 sel 1;
#X msg -107 178 0;
#X msg -77 178 1;
#X obj 296 1 spigot;
#X obj 68 466 pipe 20;
#X msg 255 30 0;
#X obj 961 200 * 99;
#X obj 634 16 sel \$1;
#X obj 632 -18 r chan, f 10;
#X obj 715 -29 r chen;
#X obj 715 -11 moses 6;
#X msg 634 35 1;
#X msg 661 36 0;
#X msg 713 23 1;
#X msg 736 21 0, f 4;
#X obj 817 8 tgl 20 0 empty empty empty 17 7 0 10 -257985 -1 -1 0 1
;
#X obj 714 37 t b f;
#X obj 673 -2 f \$1;
#X obj 633 -2 t f b;
#X obj 686 51 +;
#X obj 687 69 sel 2;
#X msg 685 88 1;
#X msg 709 88 0;
#X obj 714 5 sel 6;
#X floatatom 297 44 5 0 0 0 - - -;
#X msg 920 254 bang, f 13;
#X msg 537 103 1;
#X floatatom -60 306 5 0 0 0 - - -;
#X obj 235 121 * 24;
#X obj 204 121 + 36;
#X text 880 634 http://servando.teks.no;
#X text 890 644 http://servando.teks.no;
#X obj 204 674 makenote 100 100;
#X obj 204 694 noteout, f 13;
#X obj 280 642 f \$1;
#X obj 551 310 s oscOut;
#X msg 551 291 send /led \$1;
#X obj 552 273 hradio 15 1 0 8 empty empty empty 0 -8 0 10 -262144
-1 -1 0;
#X obj 555 237 sel 1;
#X msg 553 255 4;
#X msg 581 255 0;
#N canvas 66 85 1145 545 swsq 0;
#X obj 115 222 sel 1 2 3 4 5 6 7 8 9 10 11 12 13 14 15 16, f 73;
#X obj 140 83 f;
#X obj 175 83 + 1;
#X msg 219 88 1;
#X obj 141 46 tgl 15 0 empty empty empty 17 7 0 10 -262144 -1 -1 0
1;
#X msg 190 9 0;
#X msg 149 9 1, f 5;
#X obj 219 58 sel 16;
#X obj 140 130 - 0;
#X obj 28 19 inlet, f 9;
#X obj 287 194 symbol;
#X obj 291 123 moses 1;
#X obj 294 99 moses 127;
#X obj 353 30 inlet;
#X obj 392 30 inlet, f 10;
#X obj 336 142 t b;
#X obj 289 143 t b;
#X obj 368 150 t b;
#X obj 75 282 symbol;
#X obj 120 282 symbol;
#X obj 163 282 symbol;
#X obj 208 282 symbol;
#X obj 252 281 symbol;
#X obj 297 281 symbol;
#X obj 340 281 symbol;
#X obj 385 281 symbol;
#X obj 429 281 symbol;
#X obj 474 281 symbol;
#X obj 517 281 symbol;
#X obj 562 281 symbol;
#X obj 606 280 symbol;
#X obj 649 279 symbol;
#X obj 694 280 symbol;
#X obj 735 280 symbol;
#X obj 75 302 pack s s s s s s s s s s s s s s s s, f 66;
#X msg 69 338 [\$1\$2\$3\$4 \$5\$6\$7\$8 \$9\$10\$11\$12 \$13\$14\$15\$16]
;
#X obj 617 227 s screenLine4;
#X obj 425 75 t b;
#X obj 28 39 sel 1;
#X obj 115 198 t f f;
#X obj 95 167 t b;
#X obj 291 69 int;
#X obj 94 18 inlet;
#X obj 425 94 delay 55;
#X obj 141 64 metro 8;
#X obj 27 57 t b b b;
#X obj 73 390 s screenLine5;
#X obj 2 336 t b b b b;
#X obj 454 148 r chin\$1;
#X obj 73 372 spigot;
#X obj 15 149 bng 15 250 50 0 empty empty empty 17 7 0 10 -262144 -1
-1;
#X obj 192 168 - 1;
#X msg 336 160 *;
#X msg 288 161 _;
#X msg 370 170 _;
#X obj 291 41 * 127;
#N canvas 525 143 583 541 stepwhere 0;
#X msg 63 108 [_*__ ____ ____ ____];
#X msg 78 130 [__*_ ____ ____ ____];
#X msg 133 192 [____ _*__ ____ ____];
#X msg 143 214 [____ __*_ ____ ____];
#X msg 157 233 [____ ___* ____ ____];
#X msg 194 275 [____ ____ _*__ ____];
#X msg 209 297 [____ ____ __*_ ____];
#X msg 222 318 [____ ____ ___* ____];
#X msg 253 362 [____ ____ ____ _*__];
#X msg 271 380 [____ ____ ____ __*_];
#X msg 289 400 [____ ____ ____ ___*];
#X obj 192 414 outlet;
#X obj 41 44 inlet;
#X msg 100 151 [___* ____ ____ ____];
#X obj 41 64 sel 1 2 3 4 5 6 7 8 9 10 11 12 13 14 15 16;
#X msg 41 88 [#___ ____ ____ ____];
#X msg 116 172 [____ #___ ____ ____];
#X msg 179 255 [____ ____ #___ ____];
#X msg 240 342 [____ ____ ____ #___];
#X connect 0 0 11 0;
#X connect 1 0 11 0;
#X connect 2 0 11 0;
#X connect 3 0 11 0;
#X connect 4 0 11 0;
#X connect 5 0 11 0;
#X connect 6 0 11 0;
#X connect 7 0 11 0;
#X connect 8 0 11 0;
#X connect 9 0 11 0;
#X connect 10 0 11 0;
#X connect 12 0 14 0;
#X connect 13 0 11 0;
#X connect 14 0 15 0;
#X connect 14 1 0 0;
#X connect 14 2 1 0;
#X connect 14 3 13 0;
#X connect 14 4 16 0;
#X connect 14 5 2 0;
#X connect 14 6 3 0;
#X connect 14 7 4 0;
#X connect 14 8 17 0;
#X connect 14 9 5 0;
#X connect 14 10 6 0;
#X connect 14 11 7 0;
#X connect 14 12 18 0;
#X connect 14 13 8 0;
#X connect 14 14 9 0;
#X connect 14 15 10 0;
#X connect 15 0 11 0;
#X connect 16 0 11 0;
#X connect 17 0 11 0;
#X connect 18 0 11 0;
#X restore 618 190 pd stepwhere;
#X obj 568 43 inlet, f 10;
#X obj 617 209 spigot;
#X msg 31 358 bang;
#N canvas 22 131 504 421 stepwhere 0;
#X obj 47 359 outlet;
#X obj 41 63 inlet;
#X obj 38 85 sel 1 17 33 49;
#X msg 38 112 1;
#X msg 55 133 2;
#X msg 69 156 3;
#X msg 86 177 4;
#X obj 128 175 t b f;
#X msg 47 337 Bar[\$1].Stp[\$2].sq[\$3];
#X obj 72 262 pack f f f;
#X obj 181 88 inlet;
#X obj 181 175 t b f;
#X connect 1 0 2 0;
#X connect 1 0 7 0;
#X connect 2 0 3 0;
#X connect 2 1 4 0;
#X connect 2 2 5 0;
#X connect 2 3 6 0;
#X connect 3 0 9 0;
#X connect 4 0 9 0;
#X connect 5 0 9 0;
#X connect 6 0 9 0;
#X connect 7 0 9 0;
#X connect 7 1 9 1;
#X connect 8 0 0 0;
#X connect 9 0 8 0;
#X connect 10 0 11 0;
#X connect 11 0 9 0;
#X connect 11 1 9 2;
#X restore 733 192 pd stepwhere;
#X f 14;
#X obj 737 211 spigot;
#X obj 737 229 s screenLine3;
#X text 23 3 go;
#X text 92 3 delete;
#X text 352 10 hi;
#X text 425 19 lo;
#X text 567 29 metro;
#X obj 689 41 inlet stepnu;
#X msg 689 77 2;
#X obj 739 141 change;
#X obj 615 168 / 1;
#X obj 630 139 t b f;
#X obj 146 160 / 1;
#X obj 174 136 t b f;
#X obj 190 190 tabread se\$1;
#X obj 814 41 inlet;
#X obj 28 82 delay 66;
#X obj 689 57 sel 32 48 64 80 96 112 128, f 43;
#X msg 704 94 3;
#X msg 730 108 4;
#X msg 758 93 5, f 5;
#X msg 786 108 6;
#X msg 821 116 7;
#X msg 842 130 8;
#X msg 865 144 1;
#X connect 0 0 18 0;
#X connect 0 1 19 0;
#X connect 0 2 20 0;
#X connect 0 3 21 0;
#X connect 0 4 22 0;
#X connect 0 5 23 0;
#X connect 0 6 24 0;
#X connect 0 7 25 0;
#X connect 0 8 26 0;
#X connect 0 9 27 0;
#X connect 0 10 28 0;
#X connect 0 11 29 0;
#X connect 0 12 30 0;
#X connect 0 13 31 0;
#X connect 0 14 32 0;
#X connect 0 15 33 0;
#X connect 1 0 2 0;
#X connect 1 0 7 0;
#X connect 1 0 8 0;
#X connect 2 0 1 1;
#X connect 3 0 1 1;
#X connect 4 0 44 0;
#X connect 5 0 4 0;
#X connect 6 0 4 0;
#X connect 7 0 3 0;
#X connect 7 0 5 0;
#X connect 7 0 40 0;
#X connect 8 0 73 0;
#X connect 9 0 38 0;
#X connect 10 0 33 1;
#X connect 10 0 18 1;
#X connect 10 0 19 1;
#X connect 10 0 20 1;
#X connect 10 0 21 1;
#X connect 10 0 22 1;
#X connect 10 0 23 1;
#X connect 10 0 24 1;
#X connect 10 0 25 1;
#X connect 10 0 26 1;
#X connect 10 0 27 1;
#X connect 10 0 28 1;
#X connect 10 0 29 1;
#X connect 10 0 30 1;
#X connect 10 0 31 1;
#X connect 10 0 32 1;
#X connect 11 0 16 0;
#X connect 11 1 15 0;
#X connect 12 0 11 0;
#X connect 12 1 17 0;
#X connect 13 0 12 1;
#X connect 13 0 37 0;
#X connect 14 0 11 1;
#X connect 14 0 37 0;
#X connect 15 0 52 0;
#X connect 16 0 53 0;
#X connect 17 0 54 0;
#X connect 18 0 34 0;
#X connect 19 0 34 1;
#X connect 20 0 34 2;
#X connect 21 0 34 3;
#X connect 22 0 34 4;
#X connect 23 0 34 5;
#X connect 24 0 34 6;
#X connect 25 0 34 7;
#X connect 26 0 34 8;
#X connect 27 0 34 9;
#X connect 28 0 34 10;
#X connect 29 0 34 11;
#X connect 30 0 34 12;
#X connect 31 0 34 13;
#X connect 32 0 34 14;
#X connect 33 0 34 15;
#X connect 34 0 35 0;
#X connect 35 0 49 0;
#X connect 37 0 43 0;
#X connect 38 0 45 0;
#X connect 39 0 0 0;
#X connect 39 1 51 0;
#X connect 40 0 34 0;
#X connect 41 0 12 0;
#X connect 42 0 59 0;
#X connect 42 0 47 0;
#X connect 43 0 6 0;
#X connect 44 0 1 0;
#X connect 45 0 77 0;
#X connect 45 2 59 0;
#X connect 47 0 59 0;
#X connect 47 1 59 0;
#X connect 47 2 59 0;
#X connect 48 0 49 1;
#X connect 48 0 58 1;
#X connect 48 0 61 1;
#X connect 49 0 46 0;
#X connect 50 0 40 0;
#X connect 51 0 75 0;
#X connect 52 0 10 0;
#X connect 53 0 10 0;
#X connect 54 0 10 0;
#X connect 55 0 41 0;
#X connect 56 0 58 0;
#X connect 57 0 60 0;
#X connect 57 0 71 0;
#X connect 58 0 36 0;
#X connect 59 0 49 0;
#X connect 59 0 58 0;
#X connect 60 0 61 0;
#X connect 61 0 62 0;
#X connect 68 0 7 1;
#X connect 68 0 78 0;
#X connect 69 0 70 0;
#X connect 70 0 72 0;
#X connect 70 0 74 0;
#X connect 71 0 56 0;
#X connect 72 0 71 0;
#X connect 72 1 71 1;
#X connect 73 0 39 0;
#X connect 74 0 73 0;
#X connect 74 0 3 0;
#X connect 74 1 73 1;
#X connect 75 0 55 0;
#X connect 76 0 60 1;
#X connect 77 0 6 0;
#X connect 78 0 69 0;
#X connect 78 1 79 0;
#X connect 78 2 80 0;
#X connect 78 3 81 0;
#X connect 78 4 82 0;
#X connect 78 5 83 0;
#X connect 78 6 84 0;
#X connect 78 7 85 0;
#X connect 79 0 70 0;
#X connect 80 0 70 0;
#X connect 81 0 70 0;
#X connect 82 0 70 0;
#X connect 83 0 70 0;
#X connect 84 0 70 0;
#X connect 85 0 70 0;
#X restore 285 374 pd swsq;
#X f 24;
#N canvas 31 81 479 533 metrrr 0;
#X msg 196 205 32;
#X obj 97 191 moses 17;
#X obj 4 275 counter, f 16;
#X obj 4 294 - 1, f 6;
#X obj 82 51 inlet;
#X obj -3 363 outlet;
#X obj 6 51 r met64, f 11;
#X obj 4 191 t b;
#X msg 23 240 reset;
#X obj 241 54 spigot;
#N canvas 18 608 811 258 ^ 0;
#X obj 70 117 r aux;
#X obj 280 1 r notes;
#X obj 280 21 unpack;
#X obj 26 142 spigot;
#X obj 19 84 tgl 15 0 empty empty empty 17 7 0 10 -262144 -1 -1 0 1
;
#X obj 24 106 sel 1;
#X msg 31 169 1;
#X obj 410 214 outlet;
#X floatatom 324 65 5 0 0 0 - - -;
#X obj 14 62 sel 70;
#X connect 0 0 3 1;
#X connect 1 0 2 0;
#X connect 2 0 8 0;
#X connect 2 0 9 0;
#X connect 3 0 6 0;
#X connect 4 0 5 0;
#X connect 5 0 3 0;
#X connect 6 0 7 0;
#X connect 9 0 4 0;
#X restore 241 23 pd ^ [ ] 1 //////////;
#X obj 309 40 r chin\$1;
#X floatatom 241 71 5 0 0 0 - - -;
#N canvas 461 69 740 433 idnwr60 0;
#X obj 354 242 f;
#X obj 381 242 +;
#X obj 354 220 t b f;
#X msg 314 195 1;
#X msg 421 196 -1;
#X obj 354 364 outlet;
#X obj 312 162 inlet;
#X obj 419 162 inlet;
#X obj 494 221 inlet;
#X text 502 199 resetnum;
#X obj 493 257 t b;
#X obj 354 264 mod 8;
#X connect 0 0 1 1;
#X connect 0 0 11 0;
#X connect 1 0 0 1;
#X connect 2 0 0 0;
#X connect 2 1 1 0;
#X connect 3 0 2 0;
#X connect 4 0 2 0;
#X connect 6 0 3 0;
#X connect 7 0 4 0;
#X connect 8 0 0 0;
#X connect 8 0 10 0;
#X connect 11 0 5 0;
#X restore 241 104 pd idnwr60;
#X obj 241 87 sel 1;
#X obj 97 237 f, f 4;
#X obj 90 124 spigot;
#X msg 188 87 1;
#X msg 192 119 0;
#X obj 224 341 f;
#X obj 144 327 t b;
#X obj 166 41 loadbang;
#X msg 169 206 16;
#X obj 22 148 sel 0;
#X obj 16 105 spigot;
#X obj 50 88 tgl 15 0 empty empty empty 17 7 0 10 -262144 -1 -1 0 1
;
#X msg 51 172 0;
#X msg 81 87 1;
#X floatatom 49 318 5 0 0 0 - - -;
#X obj 44 342 sel 0;
#X obj 44 363 s bar\$1;
#X msg 242 206 64, f 4;
#X msg 219 206 48;
#X obj 188 174 sel 0 1 2 3 4 5 6 7, f 43;
#X obj 224 361 outlet, f 16;
#X text 283 345 scrn;
#X msg 282 206 80;
#X msg 309 206 96;
#X msg 338 207 112;
#X msg 366 207 128, f 4;
#X floatatom 281 131 5 0 0 0 - - -;
#X obj 81 69 sel 16;
#X connect 0 0 2 3;
#X connect 0 0 19 0;
#X connect 1 0 15 0;
#X connect 2 0 3 0;
#X connect 3 0 5 0;
#X connect 3 0 29 0;
#X connect 4 0 16 0;
#X connect 4 0 20 0;
#X connect 4 0 28 0;
#X connect 4 0 41 0;
#X connect 6 0 7 0;
#X connect 6 0 24 0;
#X connect 7 0 2 0;
#X connect 8 0 2 0;
#X connect 9 0 12 0;
#X connect 10 0 9 0;
#X connect 11 0 9 1;
#X connect 12 0 14 0;
#X connect 13 0 33 0;
#X connect 13 0 20 0;
#X connect 13 0 40 0;
#X connect 14 0 13 0;
#X connect 15 0 2 3;
#X connect 15 0 19 0;
#X connect 16 0 1 0;
#X connect 17 0 16 1;
#X connect 18 0 16 1;
#X connect 19 0 34 0;
#X connect 20 0 19 0;
#X connect 21 0 17 0;
#X connect 21 0 22 0;
#X connect 22 0 15 0;
#X connect 23 0 8 0;
#X connect 23 0 26 0;
#X connect 24 0 23 0;
#X connect 25 0 24 1;
#X connect 26 0 25 0;
#X connect 27 0 25 0;
#X connect 29 0 30 0;
#X connect 31 0 2 3;
#X connect 31 0 19 0;
#X connect 32 0 2 3;
#X connect 32 0 19 0;
#X connect 33 0 17 0;
#X connect 33 0 22 0;
#X connect 33 1 0 0;
#X connect 33 1 18 0;
#X connect 33 2 32 0;
#X connect 33 2 18 0;
#X connect 33 3 31 0;
#X connect 33 3 18 0;
#X connect 33 4 18 0;
#X connect 33 4 36 0;
#X connect 33 5 18 0;
#X connect 33 5 37 0;
#X connect 33 6 18 0;
#X connect 33 6 38 0;
#X connect 33 7 18 0;
#X connect 33 7 39 0;
#X connect 36 0 2 3;
#X connect 36 0 19 0;
#X connect 37 0 2 3;
#X connect 37 0 19 0;
#X connect 38 0 2 3;
#X connect 38 0 19 0;
#X connect 39 0 2 3;
#X connect 39 0 19 0;
#X connect 41 0 27 0;
#X restore 298 216 pd metrrr;
#X f 19;
#X obj 283 342 f 1, f 6;
#X obj 282 311 t b, f 4;
#X obj 326 355 bng 15 250 50 0 empty empty empty 17 7 0 10 -191407
-1 -1;
#X obj 124 464 spigot;
#X obj 152 430 tgl 15 0 empty empty empty 17 7 0 10 -262144 -1 -1 1
1;
#X obj -96 95 sel 1;
#X msg -100 116 0;
#X msg -70 116 1;
#X obj -40 74 delay 666;
#X obj 331 246 + 1;
#X obj 822 230 - 2;
#X obj 841 158 * 4;
#X obj 96 532 sel -2 -1 0 1 2;
#X msg 16 482 0;
#X obj -102 255 - 24;
#X obj -97 511 +;
#X obj 710 137 s chin\$1;
#N canvas 415 147 663 466 deleteanim 0;
#X obj 236 11 inlet;
#X obj 40 202 s screenLine4;
#X msg 177 44 *********************;
#X msg 177 61 ********************;
#X msg 177 78 *******************;
#X msg 177 95 ******************;
#X msg 177 112 *****************;
#X msg 177 129 ****************;
#X msg 177 146 ***************;
#X msg 177 163 **************;
#X msg 177 180 ************;
#X msg 177 197 **********;
#X msg 177 214 ********;
#X msg 177 231 *******;
#X msg 177 248 ******;
#X msg 177 265 *****;
#X msg 177 282 ****;
#X msg 177 299 ***;
#X msg 178 316 **;
#X msg 178 332 *;
#X obj 313 36 delay 33;
#X obj 314 57 delay 33;
#X obj 314 77 delay 33;
#X obj 314 94 delay 33;
#X obj 314 111 delay 33;
#X obj 314 128 delay 33;
#X obj 314 145 delay 33;
#X obj 314 162 delay 33;
#X obj 314 179 delay 33;
#X obj 314 196 delay 33;
#X obj 314 213 delay 33;
#X obj 313 230 delay 33;
#X obj 313 246 delay 33;
#X obj 313 263 delay 33;
#X obj 313 280 delay 33;
#X obj 313 297 delay 33;
#X obj 313 315 delay 33;
#X obj 313 333 delay 33;
#X obj 317 2 loadbang;
#X msg 424 27 15, f 8;
#X msg 178 348 |;
#X connect 0 0 2 0;
#X connect 0 0 20 0;
#X connect 2 0 1 0;
#X connect 3 0 1 0;
#X connect 4 0 1 0;
#X connect 5 0 1 0;
#X connect 6 0 1 0;
#X connect 7 0 1 0;
#X connect 8 0 1 0;
#X connect 9 0 1 0;
#X connect 10 0 1 0;
#X connect 11 0 1 0;
#X connect 12 0 1 0;
#X connect 13 0 1 0;
#X connect 14 0 1 0;
#X connect 15 0 1 0;
#X connect 16 0 1 0;
#X connect 17 0 1 0;
#X connect 18 0 1 0;
#X connect 19 0 1 0;
#X connect 20 0 21 0;
#X connect 20 0 3 0;
#X connect 21 0 22 0;
#X connect 21 0 4 0;
#X connect 22 0 23 0;
#X connect 22 0 5 0;
#X connect 23 0 24 0;
#X connect 23 0 6 0;
#X connect 24 0 25 0;
#X connect 24 0 7 0;
#X connect 25 0 26 0;
#X connect 25 0 8 0;
#X connect 26 0 27 0;
#X connect 26 0 9 0;
#X connect 27 0 28 0;
#X connect 27 0 10 0;
#X connect 28 0 29 0;
#X connect 28 0 11 0;
#X connect 29 0 30 0;
#X connect 29 0 12 0;
#X connect 30 0 31 0;
#X connect 30 0 13 0;
#X connect 31 0 14 0;
#X connect 31 0 32 0;
#X connect 32 0 33 0;
#X connect 32 0 15 0;
#X connect 33 0 34 0;
#X connect 33 0 16 0;
#X connect 34 0 35 0;
#X connect 34 0 17 0;
#X connect 35 0 36 0;
#X connect 35 0 18 0;
#X connect 36 0 37 0;
#X connect 36 0 19 0;
#X connect 37 0 40 0;
#X connect 38 0 39 0;
#X connect 39 0 37 1;
#X connect 39 0 36 1;
#X connect 39 0 35 1;
#X connect 39 0 34 1;
#X connect 39 0 33 1;
#X connect 39 0 32 1;
#X connect 39 0 31 1;
#X connect 39 0 30 1;
#X connect 39 0 29 1;
#X connect 39 0 28 1;
#X connect 39 0 27 1;
#X connect 39 0 26 1;
#X connect 39 0 25 1;
#X connect 39 0 24 1;
#X connect 39 0 23 1;
#X connect 39 0 21 1;
#X connect 40 0 1 0;
#X restore 1130 170 pd deleteanim;
#X msg 839 334 #[\$1]-[\$2] ^[\$3] %[\$4];
#X obj -103 -10 metro 3;
#X msg 419 127 |, f 6;
#N canvas -13 382 1071 336 shift 0;
#X obj 70 117 r aux;
#X obj 19 12 r notes;
#X obj 19 32 unpack;
#X obj 26 142 spigot;
#X obj 13 62 sel 61;
#X obj 19 84 tgl 15 0 empty empty empty 17 7 0 10 -262144 -1 -1 0 1
;
#X obj 24 106 sel 1;
#X obj 187 117 r aux;
#X obj 143 142 spigot;
#X obj 136 84 tgl 15 0 empty empty empty 17 7 0 10 -262144 -1 -1 0
1;
#X obj 141 106 sel 1;
#X obj 130 62 sel 63;
#X obj 276 119 r aux;
#X obj 232 144 spigot;
#X obj 225 86 tgl 15 0 empty empty empty 17 7 0 10 -262144 -1 -1 0
1;
#X obj 230 108 sel 1;
#X obj 219 64 sel 66;
#X obj 375 118 r aux;
#X obj 331 143 spigot;
#X obj 324 85 tgl 15 0 empty empty empty 17 7 0 10 -262144 -1 -1 0
1;
#X obj 329 107 sel 1;
#X obj 461 120 r aux;
#X obj 423 146 spigot;
#X obj 413 84 tgl 15 0 empty empty empty 17 7 0 10 -262144 -1 -1 0
1;
#X obj 418 106 sel 1;
#X obj 318 63 sel 68;
#X obj 407 61 sel 70;
#X msg 31 169 1;
#X msg 157 170 2;
#X msg 240 168 3;
#X msg 338 168 4;
#X msg 430 169 5;
#X obj 427 198 outlet;
#X connect 0 0 3 1;
#X connect 1 0 2 0;
#X connect 2 0 4 0;
#X connect 2 0 11 0;
#X connect 2 0 26 0;
#X connect 2 0 25 0;
#X connect 2 0 16 0;
#X connect 3 0 27 0;
#X connect 4 0 5 0;
#X connect 5 0 6 0;
#X connect 6 0 3 0;
#X connect 7 0 8 1;
#X connect 8 0 28 0;
#X connect 9 0 10 0;
#X connect 10 0 8 0;
#X connect 11 0 9 0;
#X connect 12 0 13 1;
#X connect 13 0 29 0;
#X connect 14 0 15 0;
#X connect 15 0 13 0;
#X connect 16 0 14 0;
#X connect 17 0 18 1;
#X connect 18 0 30 0;
#X connect 19 0 20 0;
#X connect 20 0 18 0;
#X connect 21 0 22 1;
#X connect 22 0 31 0;
#X connect 23 0 24 0;
#X connect 24 0 22 0;
#X connect 25 0 19 0;
#X connect 26 0 23 0;
#X connect 27 0 32 0;
#X connect 28 0 32 0;
#X connect 29 0 32 0;
#X connect 30 0 32 0;
#X connect 31 0 32 0;
#X restore 324 -37 pd shift # 1stoct;
#X msg -63 456 5;
#X msg 179 59 99;
#X msg 1131 188 ***SEQUENCER***;
#X obj -56 571 spigot;
#X obj -28 551 tgl 15 0 empty empty empty 17 7 0 10 -262144 -1 -1 1
1;
#X obj -16 256 r mt\$1, f 11;
#X obj 698 235 t b;
#X obj 697 187 t b b b b;
#X obj 954 417 symbol;
#X obj 840 354 s screenLine2;
#X obj 954 484 s screenLine3;
#X obj 954 436 t s b;
#X obj 980 449 delay 666;
#X obj 89 218 nbx 3 14 0 127 0 0 empty empty empty 0 -8 0 10 -128992
-4034 -4034 22 256;
#X obj 165 195 nbx 3 14 0 127 0 0 empty empty empty 0 -8 0 10 -128992
-4034 -4034 50 256;
#X msg 626 244 2;
#X obj 566 7 r ldbdlyd;
#X msg 618 188 0;
#X msg 816 374 Bar_steps:\$1;
#X obj 959 375 int;
#X obj 779 386 int;
#X obj 297 23 moses 6;
#X obj 726 266 - 2;
#X obj 81 -19 r flush;
#X obj 598 32 bng 15 250 50 0 empty empty empty 17 7 0 10 -262144 -1
-1;
#X obj 726 286 int;
#X msg 982 466 bang, f 5;
#X text 547 333 pani-k=SHft+A#;
#X msg -28 456 -24;
#X msg -21 476 -12;
#X msg 25 504 12;
#X msg 49 523 24;
#X obj 867 274 t b f;
#X msg 817 434 Transpose:\$1_St's;
#X msg 953 396 Cmplx:\$1%;
#X msg 816 400 Offset:\$1steps;
#X obj 793 161 * 8;
#X obj 770 317 t b f;
#X obj 822 116 * 16;
#X obj 704 391 s ofs\$1;
#N canvas 221 256 1010 424 ^ 0;
#X obj 138 204 tabwrite copy;
#X obj 153 50 r ofs\$1;
#X obj 343 8 r dur\$1;
#X obj 256 92 f;
#X obj 301 90 + 1;
#X msg 331 89 1, f 6;
#X obj 246 55 tgl 15 0 empty empty empty 17 7 0 10 -262144 -1 -1 0
1;
#X msg 304 41 0;
#X obj 310 112 sel 64;
#X msg 245 33 1;
#X obj 138 132 +;
#X obj 183 112 t f f;
#X floatatom 94 63 5 0 0 0 - - -;
#X floatatom 359 26 5 0 0 0 - - -;
#X obj 446 52 spigot;
#N canvas 166 137 811 258 ^ 0;
#X obj 70 117 r aux;
#X obj 280 1 r notes;
#X obj 280 21 unpack;
#X obj 26 142 spigot;
#X obj 19 84 tgl 15 0 empty empty empty 17 7 0 10 -262144 -1 -1 0 1
;
#X obj 24 106 sel 1;
#X obj 187 117 r aux;
#X obj 143 142 spigot;
#X obj 136 84 tgl 15 0 empty empty empty 17 7 0 10 -262144 -1 -1 0
1;
#X obj 141 106 sel 1;
#X obj 276 119 r aux;
#X obj 232 144 spigot;
#X obj 225 86 tgl 15 0 empty empty empty 17 7 0 10 -262144 -1 -1 0
1;
#X obj 230 108 sel 1;
#X obj 375 118 r aux;
#X obj 331 143 spigot;
#X obj 324 85 tgl 15 0 empty empty empty 17 7 0 10 -262144 -1 -1 0
1;
#X obj 329 107 sel 1;
#X obj 461 120 r aux;
#X obj 423 146 spigot;
#X obj 419 87 tgl 15 0 empty empty empty 17 7 0 10 -262144 -1 -1 0
1;
#X obj 418 106 sel 1;
#X msg 31 169 1;
#X msg 157 170 2;
#X msg 240 168 3;
#X msg 338 168 4;
#X msg 430 169 5;
#X obj 410 214 outlet;
#X obj 14 62 sel 62;
#X obj 130 62 sel 64;
#X obj 318 63 sel 67;
#X obj 219 63 sel 65;
#X obj 418 69 sel 69;
#X obj 546 120 r aux;
#X obj 508 146 spigot;
#X obj 504 87 tgl 15 0 empty empty empty 17 7 0 10 -262144 -1 -1 0
1;
#X obj 503 106 sel 1;
#X msg 515 169 6;
#X obj 504 70 sel 71;
#X connect 0 0 3 1;
#X connect 1 0 2 0;
#X connect 2 0 28 0;
#X connect 2 0 29 0;
#X connect 2 0 31 0;
#X connect 2 0 30 0;
#X connect 2 0 32 0;
#X connect 2 0 38 0;
#X connect 3 0 22 0;
#X connect 4 0 5 0;
#X connect 5 0 3 0;
#X connect 6 0 7 1;
#X connect 7 0 23 0;
#X connect 8 0 9 0;
#X connect 9 0 7 0;
#X connect 10 0 11 1;
#X connect 11 0 24 0;
#X connect 12 0 13 0;
#X connect 13 0 11 0;
#X connect 14 0 15 1;
#X connect 15 0 25 0;
#X connect 16 0 17 0;
#X connect 17 0 15 0;
#X connect 18 0 19 1;
#X connect 19 0 26 0;
#X connect 20 0 21 0;
#X connect 21 0 19 0;
#X connect 22 0 27 0;
#X connect 23 0 27 0;
#X connect 24 0 27 0;
#X connect 25 0 27 0;
#X connect 26 0 27 0;
#X connect 28 0 4 0;
#X connect 29 0 8 0;
#X connect 30 0 16 0;
#X connect 31 0 12 0;
#X connect 32 0 20 0;
#X connect 33 0 34 1;
#X connect 34 0 37 0;
#X connect 35 0 36 0;
#X connect 36 0 34 0;
#X connect 37 0 27 0;
#X connect 38 0 35 0;
#X restore 446 19 pd ^ [ ] 1 //////////;
#X obj 514 38 r chin\$1;
#X floatatom 446 69 5 0 0 0 - - -;
#X obj 447 85 sel 3 4;
#X obj 621 222 tabread copy;
#X obj 738 249 +, f 7;
#X obj 621 177 t f f;
#X obj 442 202 f;
#X obj 487 200 + 1;
#X msg 517 199 1, f 6;
#X obj 432 165 tgl 15 0 empty empty empty 17 7 0 10 -262144 -1 -1 0
1;
#X msg 490 151 0;
#X obj 496 222 sel 64;
#X msg 431 143 1;
#X floatatom 572 239 5 0 0 0 - - -;
#X floatatom 730 194 5 0 0 0 - - -;
#X obj 447 293 symbol;
#X obj 447 360 s screenLine3;
#X obj 447 312 t s b;
#X obj 473 325 delay 666;
#X msg 475 342 bang, f 5;
#X msg 448 272 copy;
#X msg 483 272 pasta:\$1;
#X obj 248 72 metro 11;
#X obj 433 182 metro 11;
#X obj 381 377 outlet;
#X obj 138 179 tabread se\$1;
#X obj 620 271 tabwrite se\$1;
#X connect 1 0 10 1;
#X connect 1 0 12 0;
#X connect 1 0 20 1;
#X connect 2 0 8 1;
#X connect 2 0 13 0;
#X connect 2 0 27 1;
#X connect 3 0 4 0;
#X connect 3 0 8 0;
#X connect 3 0 11 0;
#X connect 4 0 3 1;
#X connect 5 0 3 1;
#X connect 6 0 38 0;
#X connect 7 0 6 0;
#X connect 8 0 5 0;
#X connect 8 0 7 0;
#X connect 9 0 6 0;
#X connect 10 0 41 0;
#X connect 11 0 10 0;
#X connect 11 1 0 1;
#X connect 14 0 17 0;
#X connect 15 0 14 0;
#X connect 16 0 14 1;
#X connect 17 0 18 0;
#X connect 18 0 9 0;
#X connect 18 0 36 0;
#X connect 18 1 28 0;
#X connect 18 1 40 0;
#X connect 19 0 29 0;
#X connect 19 0 42 0;
#X connect 20 0 42 1;
#X connect 21 0 19 0;
#X connect 21 1 30 0;
#X connect 21 1 20 0;
#X connect 22 0 23 0;
#X connect 22 0 27 0;
#X connect 22 0 21 0;
#X connect 23 0 22 1;
#X connect 24 0 22 1;
#X connect 25 0 39 0;
#X connect 26 0 25 0;
#X connect 27 0 24 0;
#X connect 27 0 26 0;
#X connect 28 0 25 0;
#X connect 29 0 37 0;
#X connect 31 0 33 0;
#X connect 33 0 32 0;
#X connect 33 1 34 0;
#X connect 34 0 35 0;
#X connect 35 0 32 0;
#X connect 36 0 31 0;
#X connect 37 0 31 0;
#X connect 38 0 3 0;
#X connect 39 0 22 0;
#X connect 41 0 0 0;
#X restore 392 295 pd ^ v /////////;
#X f 19;
#X obj -38 37 sel 128;
#X obj 63 60 sel 128;
#X obj 312 312 bng 15 250 50 0 empty empty empty 17 7 0 10 -262144
-1 -1;
#X obj 698 205 delay 5;
#X obj -82 369 tabread se\$1;
#X obj 94 505 tabwrite se\$1;
#N canvas 517 199 615 415 load/save 0;
#X obj 107 280 soundfiler;
#X obj 100 239 pack s f;
#N canvas 461 69 740 354 idnwr60 0;
#X obj 354 242 f;
#X obj 381 242 +;
#X obj 354 220 t b f;
#X msg 314 195 1;
#X msg 421 196 -1;
#X obj 354 364 outlet;
#X obj 314 48 inlet;
#X obj 421 48 inlet;
#X obj 616 64 inlet;
#X obj 359 145 tgl 15 0 empty empty empty 17 7 0 10 -262144 -1 -1 1
1;
#X obj 429 142 tgl 15 0 empty empty empty 17 7 0 10 -262144 -1 -1 1
1;
#X obj 330 165 spigot;
#X obj 397 164 spigot;
#X text 624 42 resetnum;
#X obj 615 100 t b;
#X msg 615 125 1;
#X msg 445 110 0;
#X msg 365 111 0;
#X obj 354 264 mod 8;
#X obj 472 312 sel 0 8;
#X connect 0 0 1 1;
#X connect 0 0 18 0;
#X connect 1 0 0 1;
#X connect 2 0 0 0;
#X connect 2 1 1 0;
#X connect 3 0 2 0;
#X connect 4 0 2 0;
#X connect 6 0 11 0;
#X connect 7 0 12 0;
#X connect 8 0 0 0;
#X connect 8 0 14 0;
#X connect 9 0 11 1;
#X connect 10 0 12 1;
#X connect 11 0 3 0;
#X connect 12 0 4 0;
#X connect 14 0 15 0;
#X connect 15 0 9 0;
#X connect 15 0 10 0;
#X connect 16 0 10 0;
#X connect 17 0 9 0;
#X connect 18 0 5 0;
#X connect 19 0 16 0;
#X connect 19 1 17 0;
#X connect 19 2 15 0;
#X restore 101 111 pd idnwr60;
#X obj 101 90 bng 15 250 50 0 empty empty empty 17 7 0 10 -262144 -1
-1;
#X obj 119 91 bng 15 250 50 0 empty empty empty 17 7 0 10 -262144 -1
-1;
#X obj 101 130 + 1, f 5;
#X obj 101 202 pack f f;
#X obj 101 178 f \$1;
#X obj 101 157 t b f;
#X obj 99 44 spigot;
#X obj 335 30 inlet;
#X obj 347 105 f \$1;
#X floatatom 302 165 5 0 0 0 - - -;
#X obj 302 144 f;
#X obj 347 87 bng 15 250 50 0 empty empty empty 17 7 0 10 -262144 -1
-1;
#X obj 302 37 bng 15 250 50 0 empty empty empty 17 7 0 10 -260097 -1
-1;
#X obj 302 124 spigot;
#X obj 302 231 pack f f;
#X obj 99 71 sel 3 2;
#X msg 410 158 saved_as_se\$1.wav;
#X msg 158 93 0;
#X obj 158 73 loadbang;
#X msg 100 220 \$1/se\$2.wav;
#X obj 75 341 outlet;
#X obj 75 321 t b;
#X obj 236 361 outlet;
#X obj 410 176 symbol;
#X obj 410 197 t s b;
#X obj 421 216 delay 3666;
#X obj 410 235 s screenLine4;
#X msg 100 257 read \$1 se\$2;
#X msg 292 265 write -wave -bytes 4 \$2/se\$1.wav se\$2;
#X obj 406 97 r loadglobal, f 21;
#X obj 406 120 r saveglobal, f 21;
#N canvas 101 136 603 274 shft+$ 0;
#X obj 461 120 r aux;
#X obj 413 12 r notes;
#X obj 413 32 unpack;
#X obj 409 143 spigot;
#X obj 413 84 tgl 15 0 empty empty empty 17 7 0 10 -262144 -1 -1 0
1;
#X obj 418 106 sel 1;
#X obj 212 240 outlet;
#X floatatom 503 60 5 0 0 0 - - -;
#X obj 408 60 sel 71;
#X connect 0 0 3 1;
#X connect 1 0 2 0;
#X connect 2 0 7 0;
#X connect 2 0 8 0;
#X connect 3 0 6 0;
#X connect 4 0 5 0;
#X connect 5 0 3 0;
#X connect 8 0 4 0;
#X restore 302 65 pd shft+$;
#X f 17;
#X obj 297 292 soundfiler;
#N canvas 156 178 603 274 shft+ 0;
#X obj 187 117 r aux;
#X obj 136 12 r notes;
#X obj 136 32 unpack;
#X obj 143 142 spigot;
#X obj 136 84 tgl 15 0 empty empty empty 17 7 0 10 -262144 -1 -1 0
1;
#X obj 141 106 sel 1;
#X obj 276 119 r aux;
#X obj 225 14 r notes;
#X obj 225 34 unpack;
#X obj 232 144 spigot;
#X obj 225 86 tgl 15 0 empty empty empty 17 7 0 10 -262144 -1 -1 0
1;
#X obj 230 108 sel 1;
#X msg 157 170 2;
#X msg 240 168 3;
#X obj 212 240 outlet;
#X obj 130 62 sel 62;
#X obj 219 64 sel 64;
#X connect 0 0 3 1;
#X connect 1 0 2 0;
#X connect 2 0 15 0;
#X connect 3 0 12 0;
#X connect 4 0 5 0;
#X connect 5 0 3 0;
#X connect 6 0 9 1;
#X connect 7 0 8 0;
#X connect 8 0 16 0;
#X connect 9 0 13 0;
#X connect 10 0 11 0;
#X connect 11 0 9 0;
#X connect 12 0 14 0;
#X connect 13 0 14 0;
#X connect 15 0 4 0;
#X connect 16 0 10 0;
#X restore 98 16 pd shft+ < >;
#X connect 1 0 30 0;
#X connect 2 0 5 0;
#X connect 3 0 2 0;
#X connect 4 0 2 1;
#X connect 5 0 8 0;
#X connect 5 0 13 1;
#X connect 5 0 25 0;
#X connect 6 0 22 0;
#X connect 7 0 6 0;
#X connect 7 0 1 1;
#X connect 8 0 7 0;
#X connect 8 1 6 1;
#X connect 9 0 18 0;
#X connect 10 0 9 1;
#X connect 10 0 16 1;
#X connect 11 0 17 1;
#X connect 13 0 12 0;
#X connect 13 0 19 0;
#X connect 13 0 17 0;
#X connect 14 0 11 0;
#X connect 15 0 16 0;
#X connect 16 0 13 0;
#X connect 17 0 31 0;
#X connect 18 0 3 0;
#X connect 18 1 4 0;
#X connect 19 0 26 0;
#X connect 20 0 2 2;
#X connect 21 0 20 0;
#X connect 21 0 14 0;
#X connect 22 0 1 0;
#X connect 24 0 23 0;
#X connect 26 0 27 0;
#X connect 27 0 29 0;
#X connect 27 1 28 0;
#X connect 28 0 29 0;
#X connect 30 0 0 0;
#X connect 30 0 24 0;
#X connect 31 0 35 0;
#X connect 32 0 2 2;
#X connect 33 0 17 0;
#X connect 34 0 16 0;
#X connect 36 0 9 0;
#X restore 422 350 pd load/save;
#X f 16;
#X obj 39 38;
#X obj 243 443 - 36;
#X obj 275 498 s md\$1, f 19;
#X obj 2 619 f;
#X obj 219 534 t b f;
#X obj 2 593 spigot;
#X obj 301 604 tgl 15 0 empty empty empty 17 7 0 10 -262144 -1 -1 1
1;
#X obj 342 548 random 100;
#X obj 341 567 moses 100;
#X msg 340 587 1;
#X msg 382 587 0;
#X obj 593 503 * 99;
#X obj 594 524 int;
#X msg 594 548 probabilistic:\$1%;
#X obj 681 525 t b;
#X obj 821 539 delay 666;
#X obj 421 553 r glopro, f 12;
#N canvas 169 134 1107 480 quicknobish 0;
#X obj 273 28 inlet;
#X obj 34 23 r knob1;
#X obj 86 24 r knob2;
#X obj 141 25 r knob3;
#X obj 195 24 r knob4;
#X obj 255 363 spigot;
#X obj 306 363 spigot;
#X obj 353 364 spigot;
#X obj 403 364 spigot;
#X obj 355 68 r aux;
#X obj 450 353 tgl 15 0 empty empty empty 17 7 0 10 -262144 -1 -1 0
1;
#X obj 347 38 loadbang;
#X msg 318 64 1;
#X obj 418 179 r hpsh;
#X obj 686 376 tgl 15 0 empty empty empty 17 7 0 10 -262144 -1 -1 0
1;
#X obj 476 388 spigot;
#X obj 527 388 spigot;
#X obj 575 389 spigot;
#X obj 624 389 spigot;
#X obj 368 104 sel 1;
#X msg 396 137 0;
#X msg 420 137 1;
#X obj 13 68 spigot;
#X obj 64 68 spigot;
#X obj 112 69 spigot;
#X obj 158 68 spigot;
#X obj 273 56 tgl 15 0 empty empty empty 17 7 0 10 -257985 -1 -1 0
1;
#X obj 6 346 spigot;
#X obj 57 346 spigot;
#X obj 105 347 spigot;
#X obj 154 347 spigot;
#X obj 211 347 tgl 15 0 empty empty empty 17 7 0 10 -262144 -1 -1 1
1;
#X obj 427 215 sel 1;
#X msg 422 238 0;
#X obj 8 405 outlet;
#X obj 51 405 outlet;
#X obj 95 405 outlet;
#X obj 138 405 outlet;
#X obj 291 423 outlet;
#X obj 334 423 outlet;
#X obj 378 423 outlet;
#X obj 421 423 outlet;
#X obj 481 433 outlet;
#X obj 524 433 outlet;
#X obj 568 433 outlet;
#X obj 611 433 outlet;
#X connect 0 0 26 0;
#X connect 1 0 22 0;
#X connect 2 0 23 0;
#X connect 3 0 24 0;
#X connect 4 0 25 0;
#X connect 5 0 38 0;
#X connect 6 0 39 0;
#X connect 7 0 40 0;
#X connect 8 0 41 0;
#X connect 9 0 10 0;
#X connect 9 0 19 0;
#X connect 10 0 8 1;
#X connect 10 0 7 1;
#X connect 10 0 6 1;
#X connect 10 0 5 1;
#X connect 11 0 12 0;
#X connect 12 0 31 0;
#X connect 13 0 14 0;
#X connect 13 0 32 0;
#X connect 14 0 18 1;
#X connect 14 0 17 1;
#X connect 14 0 16 1;
#X connect 14 0 15 1;
#X connect 15 0 42 0;
#X connect 16 0 43 0;
#X connect 17 0 44 0;
#X connect 18 0 45 0;
#X connect 19 0 20 0;
#X connect 19 1 21 0;
#X connect 20 0 31 0;
#X connect 21 0 31 0;
#X connect 22 0 27 0;
#X connect 22 0 5 0;
#X connect 22 0 15 0;
#X connect 23 0 28 0;
#X connect 23 0 6 0;
#X connect 23 0 16 0;
#X connect 24 0 29 0;
#X connect 24 0 7 0;
#X connect 24 0 17 0;
#X connect 25 0 30 0;
#X connect 25 0 8 0;
#X connect 25 0 18 0;
#X connect 26 0 25 1;
#X connect 26 0 24 1;
#X connect 26 0 23 1;
#X connect 26 0 22 1;
#X connect 27 0 34 0;
#X connect 28 0 35 0;
#X connect 29 0 36 0;
#X connect 30 0 37 0;
#X connect 31 0 30 1;
#X connect 31 0 29 1;
#X connect 31 0 28 1;
#X connect 31 0 27 1;
#X connect 32 0 33 0;
#X connect 33 0 10 0;
#X restore 805 47 pd quicknobish;
#X f 35;
#X obj 232 413 spigot;
#X obj 260 393 tgl 15 0 empty empty empty 17 7 0 10 -262144 -1 -1 1
1;
#X obj 274 479 spigot;
#X msg 614 475 100;
#X obj 317 696 ctlout, f 13;
#X obj 317 677 * 127;
#X msg 386 676 1;
#X obj 246 464 / 24;
#X obj 869 129 int, f 8;
#X obj 33 -17 r rfi\$1;
#X obj 74 158 r ldb, f 16;
#N canvas 4 50 1014 429 non/shif/hyper 0;
#X obj 372 93 r aux;
#X obj 381 271 tgl 15 0 empty empty empty 17 7 0 10 -262144 -1 -1 0
1;
#X obj 321 76 loadbang;
#X msg 321 132 1;
#X obj 469 191 r hpsh, f 12;
#X obj 446 271 tgl 15 0 empty empty empty 17 7 0 10 -262144 -1 -1 0
1;
#X obj 384 112 sel 1;
#X msg 383 136 0;
#X msg 407 136 1;
#X obj 333 269 tgl 15 0 empty empty empty 17 7 0 10 -262144 -1 -1 1
1;
#X obj 428 220 sel 1;
#X msg 422 238 0;
#X obj 331 297 outlet;
#X obj 381 302 outlet;
#X obj 446 306 outlet;
#X connect 0 0 1 0;
#X connect 0 0 6 0;
#X connect 1 0 13 0;
#X connect 2 0 3 0;
#X connect 3 0 9 0;
#X connect 4 0 5 0;
#X connect 4 0 10 0;
#X connect 5 0 14 0;
#X connect 6 0 7 0;
#X connect 6 1 8 0;
#X connect 7 0 9 0;
#X connect 8 0 9 0;
#X connect 9 0 12 0;
#X connect 10 0 11 0;
#X connect 11 0 1 0;
#X restore 433 -12 pd non/shif/hyper;
#X obj 435 19 tgl 15 0 empty empty empty 17 7 0 10 -262144 -1 -1 1
1;
#X obj 488 13 tgl 15 0 empty empty empty 17 7 0 10 -262144 -1 -1 0
1;
#X obj 519 20 tgl 15 0 empty empty empty 17 7 0 10 -262144 -1 -1 0
1;
#X obj 153 -35 sel 1 2 3 5 4, f 26;
#X msg 131 371 0;
#X obj 226 173 table se\$1 130, f 34;
#X obj 460 456 tabwrite se\$1;
#X obj 465 400 / 127;
#X msg 527 431 129;
#X obj 460 426 t f b;
#X obj 486 494 tabread se\$1;
#X msg 417 455 129;
#X floatatom 519 551 5 0 0 0 - - -;
#X obj 502 524 * 127;
#X connect 2 0 13 0;
#X connect 2 0 106 0;
#X connect 3 0 28 0;
#X connect 4 1 34 0;
#X connect 4 1 193 0;
#X connect 5 0 6 0;
#X connect 5 0 15 0;
#X connect 5 0 32 0;
#X connect 5 0 168 0;
#X connect 6 0 5 1;
#X connect 7 0 5 1;
#X connect 8 0 110 0;
#X connect 8 0 124 0;
#X connect 9 0 8 0;
#X connect 10 0 173 0;
#X connect 11 0 8 0;
#X connect 12 0 2 1;
#X connect 12 0 100 0;
#X connect 12 0 49 0;
#X connect 12 0 106 0;
#X connect 13 0 66 0;
#X connect 14 0 3 0;
#X connect 15 0 10 0;
#X connect 16 0 11 0;
#X connect 16 0 105 0;
#X connect 16 0 113 0;
#X connect 17 0 18 0;
#X connect 17 0 24 0;
#X connect 17 0 33 0;
#X connect 17 0 169 0;
#X connect 18 0 17 1;
#X connect 19 0 17 1;
#X connect 20 0 23 0;
#X connect 21 0 20 0;
#X connect 22 0 20 0;
#X connect 23 0 17 0;
#X connect 24 0 27 0;
#X connect 25 0 22 0;
#X connect 25 0 36 0;
#X connect 25 0 105 0;
#X connect 26 0 41 0;
#X connect 27 0 26 0;
#X connect 28 0 4 0;
#X connect 29 0 2 0;
#X connect 29 0 120 0;
#X connect 29 0 193 0;
#X connect 30 0 29 1;
#X connect 31 0 172 0;
#X connect 32 0 173 1;
#X connect 33 0 108 0;
#X connect 34 0 130 0;
#X connect 36 0 54 0;
#X connect 36 0 141 0;
#X connect 37 0 141 0;
#X connect 38 0 140 0;
#X connect 40 0 31 1;
#X connect 40 0 33 1;
#X connect 41 0 173 0;
#X connect 44 0 45 0;
#X connect 45 0 27 0;
#X connect 46 0 60 0;
#X connect 47 0 29 0;
#X connect 47 0 89 0;
#X connect 48 0 119 0;
#X connect 48 1 47 1;
#X connect 49 0 51 0;
#X connect 51 0 50 0;
#X connect 52 0 50 0;
#X connect 53 0 50 0;
#X connect 54 0 56 3;
#X connect 54 0 133 0;
#X connect 54 0 141 0;
#X connect 55 0 103 4;
#X connect 55 0 33 0;
#X connect 55 0 31 0;
#X connect 56 0 123 0;
#X connect 57 0 115 0;
#X connect 58 0 114 0;
#X connect 58 0 56 0;
#X connect 58 0 133 0;
#X connect 58 0 166 0;
#X connect 60 0 48 0;
#X connect 61 0 62 0;
#X connect 62 0 63 0;
#X connect 62 1 64 0;
#X connect 63 0 60 1;
#X connect 64 0 60 1;
#X connect 65 0 148 0;
#X connect 66 0 173 0;
#X connect 67 0 12 0;
#X connect 68 0 54 0;
#X connect 68 0 146 0;
#X connect 69 0 73 0;
#X connect 69 1 74 0;
#X connect 70 0 80 0;
#X connect 71 0 72 0;
#X connect 72 1 85 0;
#X connect 73 0 81 0;
#X connect 73 0 30 0;
#X connect 74 0 81 0;
#X connect 74 0 30 0;
#X connect 74 0 12 0;
#X connect 75 0 78 0;
#X connect 76 0 78 0;
#X connect 76 0 12 0;
#X connect 77 0 65 1;
#X connect 77 0 121 0;
#X connect 77 0 174 0;
#X connect 77 0 192 0;
#X connect 78 0 81 0;
#X connect 78 1 81 1;
#X connect 79 0 69 1;
#X connect 80 0 69 0;
#X connect 80 1 79 0;
#X connect 81 0 82 0;
#X connect 82 0 83 0;
#X connect 82 0 106 0;
#X connect 82 0 87 0;
#X connect 82 0 134 0;
#X connect 82 1 84 0;
#X connect 82 1 107 0;
#X connect 83 0 77 0;
#X connect 84 0 77 0;
#X connect 85 0 75 0;
#X connect 85 1 76 0;
#X connect 86 0 208 0;
#X connect 87 0 58 0;
#X connect 87 0 57 0;
#X connect 87 0 54 0;
#X connect 87 0 147 0;
#X connect 87 0 146 0;
#X connect 87 0 201 0;
#X connect 88 0 68 0;
#X connect 88 0 109 0;
#X connect 88 0 131 0;
#X connect 88 0 165 0;
#X connect 90 0 91 0;
#X connect 91 0 141 0;
#X connect 94 0 95 0;
#X connect 94 1 95 1;
#X connect 96 0 95 2;
#X connect 96 0 197 1;
#X connect 98 0 97 0;
#X connect 99 0 98 0;
#X connect 100 0 101 0;
#X connect 100 0 88 0;
#X connect 100 0 37 0;
#X connect 100 0 144 0;
#X connect 100 0 142 0;
#X connect 100 1 102 0;
#X connect 100 1 125 0;
#X connect 101 0 98 0;
#X connect 102 0 98 0;
#X connect 104 0 55 0;
#X connect 104 1 159 0;
#X connect 104 1 103 5;
#X connect 105 0 103 0;
#X connect 106 0 105 0;
#X connect 107 0 103 1;
#X connect 108 0 173 1;
#X connect 109 0 108 1;
#X connect 110 0 111 0;
#X connect 110 1 112 0;
#X connect 111 0 109 0;
#X connect 112 0 109 0;
#X connect 113 0 11 0;
#X connect 113 0 37 0;
#X connect 114 0 55 1;
#X connect 115 0 56 1;
#X connect 115 0 133 0;
#X connect 116 0 57 0;
#X connect 116 0 149 0;
#X connect 117 0 155 0;
#X connect 117 1 156 0;
#X connect 117 2 118 0;
#X connect 117 3 157 0;
#X connect 117 4 158 0;
#X connect 118 0 34 1;
#X connect 118 0 120 1;
#X connect 119 0 47 0;
#X connect 120 0 130 0;
#X connect 123 0 136 0;
#X connect 124 0 5 0;
#X connect 125 0 50 0;
#X connect 126 0 65 0;
#X connect 127 0 34 1;
#X connect 128 0 141 0;
#X connect 130 0 179 0;
#X connect 131 0 130 1;
#X connect 132 0 131 0;
#X connect 132 0 194 0;
#X connect 133 0 56 0;
#X connect 134 0 171 0;
#X connect 134 3 87 0;
#X connect 135 0 138 0;
#X connect 138 0 137 0;
#X connect 138 1 139 0;
#X connect 139 0 153 0;
#X connect 140 0 4 1;
#X connect 140 0 103 3;
#X connect 141 0 28 1;
#X connect 141 0 103 2;
#X connect 142 0 57 0;
#X connect 143 0 88 0;
#X connect 143 0 142 0;
#X connect 143 0 144 0;
#X connect 144 0 58 0;
#X connect 145 0 135 0;
#X connect 146 0 161 0;
#X connect 147 0 162 0;
#X connect 148 0 86 0;
#X connect 149 0 152 0;
#X connect 150 0 16 0;
#X connect 150 0 88 0;
#X connect 150 0 144 0;
#X connect 150 0 142 0;
#X connect 150 0 196 0;
#X connect 151 0 88 0;
#X connect 151 0 144 0;
#X connect 151 0 142 0;
#X connect 152 0 160 0;
#X connect 152 0 117 0;
#X connect 152 0 164 0;
#X connect 153 0 137 0;
#X connect 155 0 34 1;
#X connect 155 0 120 1;
#X connect 156 0 34 1;
#X connect 156 0 120 1;
#X connect 157 0 34 1;
#X connect 157 0 120 1;
#X connect 158 0 34 1;
#X connect 158 0 120 1;
#X connect 159 0 133 0;
#X connect 159 1 56 2;
#X connect 160 0 135 0;
#X connect 161 0 135 0;
#X connect 162 0 135 0;
#X connect 163 0 58 0;
#X connect 163 0 147 0;
#X connect 164 0 56 0;
#X connect 164 1 56 1;
#X connect 165 0 201 0;
#X connect 167 0 106 0;
#X connect 168 0 7 0;
#X connect 168 0 9 0;
#X connect 169 0 19 0;
#X connect 169 0 21 0;
#X connect 170 0 105 0;
#X connect 171 0 133 0;
#X connect 172 0 14 0;
#X connect 174 0 105 0;
#X connect 174 0 216 0;
#X connect 174 1 103 6;
#X connect 176 0 200 0;
#X connect 178 0 35 0;
#X connect 178 0 94 0;
#X connect 179 0 180 0;
#X connect 179 0 182 0;
#X connect 179 1 178 1;
#X connect 180 0 178 0;
#X connect 181 0 180 1;
#X connect 181 0 195 1;
#X connect 182 0 183 0;
#X connect 183 0 184 0;
#X connect 183 1 185 0;
#X connect 184 0 181 0;
#X connect 185 0 181 0;
#X connect 186 0 187 0;
#X connect 187 0 188 0;
#X connect 187 0 189 0;
#X connect 187 0 183 1;
#X connect 188 0 136 0;
#X connect 189 0 190 0;
#X connect 190 0 56 0;
#X connect 191 0 183 1;
#X connect 192 0 163 0;
#X connect 192 1 116 0;
#X connect 192 2 165 0;
#X connect 192 3 68 0;
#X connect 192 7 186 0;
#X connect 193 0 176 0;
#X connect 194 0 193 1;
#X connect 195 0 177 0;
#X connect 195 0 198 0;
#X connect 196 0 187 0;
#X connect 198 0 197 0;
#X connect 199 0 197 2;
#X connect 200 0 195 0;
#X connect 201 0 145 0;
#X connect 201 0 104 0;
#X connect 201 0 212 0;
#X connect 202 0 12 0;
#X connect 203 0 38 0;
#X connect 203 0 40 0;
#X connect 203 0 44 0;
#X connect 203 0 128 0;
#X connect 203 0 96 0;
#X connect 203 0 88 0;
#X connect 203 0 125 0;
#X connect 203 0 142 0;
#X connect 203 0 64 0;
#X connect 203 0 199 0;
#X connect 204 0 205 0;
#X connect 204 1 206 0;
#X connect 204 2 207 0;
#X connect 208 0 12 0;
#X connect 208 1 52 0;
#X connect 208 1 67 0;
#X connect 208 1 122 0;
#X connect 208 1 196 0;
#X connect 208 1 16 0;
#X connect 208 2 25 0;
#X connect 208 2 53 0;
#X connect 208 2 67 0;
#X connect 208 3 88 0;
#X connect 208 3 144 0;
#X connect 208 3 142 0;
#X connect 208 4 209 0;
#X connect 209 0 66 0;
#X connect 212 0 214 0;
#X connect 213 0 211 1;
#X connect 214 0 211 0;
#X connect 214 1 213 0;
#X connect 215 0 218 0;
#X connect 216 0 215 0;
#X connect 218 0 217 0;
#X connect 218 0 201 0;
#X coords 0 0 1 1 100 50 2 100 100;
