#N canvas 183 471 837 573 10;
#X obj 304 186 r notesIn-\$1;
#X obj 304 491 s notesOut-\$1;
#X obj 25 186 inlet~ inL-\$1;
#X obj 135 186 inlet~ inR-\$1;
#X obj 27 491 outlet~ outL-\$1;
#X obj 136 491 outlet~ outR-\$1;
#X obj 583 185 r auxIn-\$1;
#X obj 582 208 r expIn-\$1;
#X obj 582 233 r fsIn-\$1;
#N canvas 541 250 947 567 synth 1;
#X obj 16 231 pack 0 0 0, f 11;
#X obj 16 257 route 1 2 3 4 5 6 7 8, f 81;
#X text 365 235 aircraft carrier;
#X obj 16 204 poly 8 1, f 11;
#X obj 234 543 outlet~;
#X obj 86 384 bp-voice \$1;
#X obj 233 517 hip~ 5;
#X obj 233 471 lop~ 1000;
#X obj 16 347 bp-voice \$1;
#X obj 158 348 bp-voice \$1;
#X obj 227 373 bp-voice \$1;
#X obj 296 347 bp-voice \$1;
#X obj 368 379 bp-voice \$1;
#X obj 439 351 bp-voice \$1;
#X obj 508 378 bp-voice \$1;
#X obj 17 8 inlet notes;
#X obj 388 189 route 1 2 3 4 5 6 7 8, f 81;
#X obj 148 13 inlet ctrl;
#N canvas 324 629 450 300 route 0;
#X obj 69 97 unpack 0 0 0;
#X obj 68 68 t l l;
#X obj 68 197 list;
#X obj 139 144 t b;
#X obj 139 123 route 1 0;
#X obj 226 163 unpack 0 0 0;
#X obj 226 194 pack 0 0 0;
#X obj 68 19 inlet msg;
#X obj 68 218 outlet global;
#X obj 226 215 outlet voice;
#X obj 187 162 - 1;
#X connect 0 2 4 0;
#X connect 1 0 0 0;
#X connect 1 1 2 1;
#X connect 1 1 5 0;
#X connect 2 0 8 0;
#X connect 3 0 2 0;
#X connect 4 0 3 0;
#X connect 4 1 3 0;
#X connect 4 2 10 0;
#X connect 5 0 6 1;
#X connect 5 1 6 2;
#X connect 6 0 9 0;
#X connect 7 0 1 0;
#X connect 10 0 6 0;
#X restore 63 46 pd route;
#N canvas 324 629 450 300 route 0;
#X obj 69 97 unpack 0 0 0;
#X obj 68 68 t l l;
#X obj 68 197 list;
#X obj 139 144 t b;
#X obj 139 123 route 1 0;
#X obj 234 171 unpack 0 0 0;
#X obj 234 202 pack 0 0 0;
#X obj 68 19 inlet msg;
#X obj 68 218 outlet global;
#X obj 234 223 outlet voice;
#X obj 190 158 - 1;
#X connect 0 2 4 0;
#X connect 1 0 0 0;
#X connect 1 1 2 1;
#X connect 1 1 5 0;
#X connect 2 0 8 0;
#X connect 3 0 2 0;
#X connect 4 0 3 0;
#X connect 4 1 3 0;
#X connect 4 2 10 0;
#X connect 5 0 6 1;
#X connect 5 1 6 2;
#X connect 6 0 9 0;
#X connect 7 0 1 0;
#X connect 10 0 6 0;
#X restore 148 48 pd route;
#X msg 47 150 stop;
#X obj 351 73 unpack 0 0 0;
#X obj 351 94 sel 123;
#X msg 351 115 stop;
#X obj 66 97 r auxIn-\$1;
#X obj 66 118 sel 1;
#X obj 233 492 clip~ -1 1;
#X obj 471 459 r volume-\$1;
#X obj 471 480 / 100;
#X floatatom 471 501 5 0 0 0 - - -;
#X obj 232 439 *~;
#X obj 471 521 sig~;
#X obj 233 417 *~ 0.3;
#X connect 0 0 1 0;
#X connect 1 0 8 0;
#X connect 1 1 5 0;
#X connect 1 2 9 0;
#X connect 1 3 10 0;
#X connect 1 4 11 0;
#X connect 1 5 12 0;
#X connect 1 6 13 0;
#X connect 1 7 14 0;
#X connect 3 0 0 0;
#X connect 3 1 0 1;
#X connect 3 2 0 2;
#X connect 5 0 32 0;
#X connect 6 0 4 0;
#X connect 7 0 26 0;
#X connect 8 0 32 0;
#X connect 9 0 32 0;
#X connect 10 0 32 0;
#X connect 11 0 32 0;
#X connect 12 0 32 0;
#X connect 13 0 32 0;
#X connect 14 0 32 0;
#X connect 15 0 3 0;
#X connect 16 0 8 1;
#X connect 16 1 5 1;
#X connect 16 2 9 1;
#X connect 16 3 10 1;
#X connect 16 4 11 1;
#X connect 16 5 12 1;
#X connect 16 6 13 1;
#X connect 16 7 14 1;
#X connect 17 0 19 0;
#X connect 17 0 21 0;
#X connect 18 0 3 0;
#X connect 18 1 1 0;
#X connect 19 0 8 1;
#X connect 19 0 5 1;
#X connect 19 0 9 1;
#X connect 19 0 11 1;
#X connect 19 0 13 1;
#X connect 19 0 10 1;
#X connect 19 0 12 1;
#X connect 19 0 14 1;
#X connect 19 1 16 0;
#X connect 20 0 3 0;
#X connect 21 0 22 0;
#X connect 22 0 23 0;
#X connect 23 0 3 0;
#X connect 24 0 25 0;
#X connect 25 0 20 0;
#X connect 26 0 6 0;
#X connect 27 0 28 0;
#X connect 28 0 29 0;
#X connect 29 0 31 0;
#X connect 30 0 7 0;
#X connect 31 0 30 1;
#X connect 32 0 30 0;
#X restore 143 324 pd synth;
#X text 446 35 C&G basic polyphonic patch with 8 voices;
#X obj 405 186 r ctrlIn-\$1;
#X obj 405 491 s ctrlOut-\$1;
#X connect 0 0 9 0;
#X connect 9 0 5 0;
#X connect 9 0 4 0;
#X connect 11 0 9 1;
