#N canvas 1244 149 624 745 10;
#X obj 212 78 inlet;
#X obj 212 143 unpack f f;
#X obj 269 355 == 0;
#X text 166 544 Freq. (Hz);
#X text 54 78 MIDI pitch \, legato 1/0;
#X obj 185 355 == 1;
#X obj 534 78 inlet;
#X text 488 78 tuning;
#X obj 212 209 +;
#X obj 212 237 t f f;
#X floatatom 322 216 5 0 0 0 - - -;
#X floatatom 164 188 5 0 0 0 - - -;
#X obj 135 285 sig~;
#X obj 135 306 lop~ 7.23;
#X obj 135 387 *~;
#X obj 239 297 sig~;
#X obj 240 387 *~;
#X obj 241 435 +~;
#X obj 241 472 mtof~;
#X obj 241 501 snapshot~;
#X obj 291 472 metro 50;
#X obj 291 452 tgl 15 0 empty empty empty 17 7 0 10 -262144 -1 -1 1
1;
#X floatatom 241 522 5 0 0 0 - - -;
#X obj 241 544 outlet;
#X connect 0 0 1 0;
#X connect 1 0 8 0;
#X connect 1 0 11 0;
#X connect 1 1 2 0;
#X connect 1 1 5 0;
#X connect 1 1 10 0;
#X connect 2 0 16 1;
#X connect 5 0 14 1;
#X connect 6 0 17 1;
#X connect 8 0 9 0;
#X connect 9 0 12 0;
#X connect 9 1 15 0;
#X connect 12 0 13 0;
#X connect 13 0 14 0;
#X connect 14 0 17 0;
#X connect 15 0 16 0;
#X connect 16 0 17 0;
#X connect 17 0 18 0;
#X connect 18 0 19 0;
#X connect 19 0 22 0;
#X connect 20 0 19 0;
#X connect 21 0 20 0;
#X connect 22 0 23 0;
#X coords 0 745 1 744 120 180 0;
