#N canvas 869 248 1034 651 10;
#X obj 70 461 *~, f 9;
#X obj 69 62 swap, f 6;
#X obj 69 393 cg-play-sample samp-1;
#X obj 192 300 r \$0-2-sample;
#X obj 192 348 list trim;
#X obj 675 288 tabread param1;
#X obj 675 349 list prepend speed;
#X obj 675 400 s \$0-2-sample;
#X obj 580 228 tabread param2;
#X obj 580 309 s \$0-2-vol;
#X obj 121 430 r \$0-2-vol;
#X obj 575 526 s \$0-2-sample;
#X obj 485 313 tabread param3;
#X obj 575 505 list prepend start;
#X obj 390 537 s \$0-2-sample;
#X obj 390 272 tabread param4;
#X obj 390 513 list prepend size;
#X obj 390 182 t f f f f b, f 64;
#X obj 824 376 s \$0-2-sample;
#X obj 69 85 sel 0;
#X msg 69 106 0;
#X obj 96 128 t f b;
#X obj 123 150 f, f 8;
#X obj 824 324 v samp-1-lengthSamp;
#X obj 824 352 list prepend sampLength;
#X obj 575 343 r global-start;
#X obj 266 379 r global-length;
#X obj 390 443 f;
#X obj 390 393 t b a;
#X obj 575 419 f;
#X obj 575 369 t b a;
#X obj 390 464 * 1, f 6;
#X obj 675 313 cg-2-way-detent;
#X obj 575 461 wrap;
#X obj 575 440 + 0, f 6;
#X obj 580 249 pow 2;
#X obj 390 333 pow 2;
#X obj 390 293 max 0.001;
#X obj 70 482 throw~ voice-out;
#X floatatom 449 393 5 0 0 0 - - -;
#X floatatom 786 415 5 0 0 0 - - -;
#X floatatom 860 429 5 0 0 0 - - -;
#X floatatom 643 381 5 0 0 0 - - -;
#X floatatom 485 334 5 0 0 0 - - -;
#X floatatom 123 171 5 0 0 0 - - -;
#X obj 69 20 inlet;
#X floatatom 204 108 5 0 0 0 - - -;
#X floatatom 25 229 5 0 0 0 - - -;
#X obj 69 41 unpack 0 0;
#X floatatom 641 262 5 0 0 0 - - -;
#X floatatom 266 421 5 0 0 0 - - -;
#X obj 266 400 / 100;
#X connect 0 0 38 0;
#X connect 1 0 19 0;
#X connect 1 0 47 0;
#X connect 1 1 22 1;
#X connect 2 0 0 0;
#X connect 3 0 4 0;
#X connect 4 0 2 1;
#X connect 5 0 32 0;
#X connect 6 0 7 0;
#X connect 8 0 35 0;
#X connect 8 0 49 0;
#X connect 10 0 0 1;
#X connect 12 0 29 0;
#X connect 12 0 43 0;
#X connect 13 0 11 0;
#X connect 15 0 37 0;
#X connect 16 0 14 0;
#X connect 17 0 15 0;
#X connect 17 1 12 0;
#X connect 17 2 8 0;
#X connect 17 3 5 0;
#X connect 17 4 23 0;
#X connect 19 0 20 0;
#X connect 19 1 21 0;
#X connect 20 0 2 0;
#X connect 21 0 2 0;
#X connect 21 1 22 0;
#X connect 22 0 17 0;
#X connect 22 0 44 0;
#X connect 23 0 24 0;
#X connect 24 0 18 0;
#X connect 24 0 41 0;
#X connect 25 0 30 0;
#X connect 25 0 42 0;
#X connect 26 0 51 0;
#X connect 27 0 31 0;
#X connect 28 0 27 0;
#X connect 28 1 31 1;
#X connect 29 0 34 0;
#X connect 30 0 29 0;
#X connect 30 1 34 1;
#X connect 31 0 16 0;
#X connect 32 0 6 0;
#X connect 32 0 40 0;
#X connect 33 0 13 0;
#X connect 34 0 33 0;
#X connect 35 0 9 0;
#X connect 36 0 28 0;
#X connect 36 0 39 0;
#X connect 37 0 36 0;
#X connect 45 0 48 0;
#X connect 48 0 1 0;
#X connect 48 1 1 1;
#X connect 48 1 46 0;
#X connect 50 0 27 0;
#X connect 51 0 50 0;
