#N canvas 702 50 1214 998 10;
#X declare -path cg-pd-library-local/sampling;
#X declare -path cg-pd-library-local/sequencer;
#X declare -path cg-pd-library-local/externals;
#X declare -path cg-pd-library-local/metronome;
#X declare -path soundshare;
#N canvas 490 398 1426 646 param-editor 0;
#X obj 138 121 r edit-note;
#X obj 51 116 spigot 0;
#X obj 51 152 tabwrite param1;
#X obj 342 121 r edit-note;
#X obj 255 115 spigot 0;
#X obj 130 315 r edit-note;
#X obj 43 309 spigot 0;
#X obj 334 313 r edit-note;
#X obj 247 308 spigot 0;
#X obj 255 152 tabwrite param2;
#X obj 43 353 tabwrite param3;
#X obj 247 353 tabwrite param4;
#X obj 994 219 stripnote;
#X obj 670 275 s edit-note;
#N canvas 6 50 450 300 lock-knobs 0;
#X obj 160 78 s knob1Override;
#X obj 171 101 s knob2Override;
#X obj 188 124 s knob3Override;
#X obj 201 148 s knob4Override;
#X obj 234 17 inlet;
#X connect 4 0 0 0;
#X connect 4 0 1 0;
#X connect 4 0 2 0;
#X connect 4 0 3 0;
#X restore 1087 329 pd lock-knobs;
#X obj 960 391 bag;
#X msg 994 284 flush;
#X text 439 165 <-- output them;
#X msg 921 189 clear;
#X text 1001 148 copy params from one key to another;
#X obj 670 208 stripnote;
#X obj 670 160 t a a;
#X obj 839 121 spigot 0;
#X obj 839 145 t a a b a, f 21;
#X obj 794 293 s key-just-copied;
#X obj 953 414 t f b;
#X obj 994 249 t b f f, f 16;
#X obj 1087 273 change;
#X obj 1087 300 bang;
#X obj 670 100 spigot 0, f 15;
#X obj 1118 409 f;
#X obj 954 451 f;
#N canvas 605 423 869 512 copy-params-in-edit-mode 0;
#X text 341 43 is there one note being held?;
#X text 346 94 copy over params;
#X obj 76 31 r local-notes;
#X restore 670 398 pd copy-params-in-edit-mode;
#X obj 51 62 r oknob1;
#X obj 255 62 r oknob2;
#X obj 43 247 r oknob3;
#X obj 247 244 r oknob4;
#X floatatom 808 65 5 0 0 0 - - -;
#X obj 791 109 tgl 15 0 empty empty empty 17 7 0 10 -262144 -1 -1 1
1;
#X obj 757 46 inlet;
#X obj 292 272 r edit_state-\$1;
#X obj 300 86 r edit_state-\$1;
#X obj 96 86 r edit_state-\$1;
#X obj 88 271 r edit_state-\$1;
#X floatatom 710 255 5 0 0 0 - - -;
#X obj 884 78 r edit_state-\$1;
#X floatatom 1227 449 5 0 0 0 - - -;
#X obj 860 505 tabread param1;
#X obj 860 536 tabwrite param1;
#X obj 985 505 tabread param2;
#X obj 985 536 tabwrite param2;
#X obj 1101 505 tabread param3;
#X obj 1101 536 tabwrite param3;
#X obj 1220 505 tabread param4;
#X obj 1220 536 tabwrite param4;
#X obj 665 55 inlet;
#X obj 595 170 bng 15 250 50 0 empty empty empty 17 7 0 10 -262144
-1 -1;
#X connect 0 0 2 1;
#X connect 1 0 2 0;
#X connect 3 0 9 1;
#X connect 4 0 9 0;
#X connect 5 0 10 1;
#X connect 6 0 10 0;
#X connect 7 0 11 1;
#X connect 8 0 11 0;
#X connect 12 0 26 0;
#X connect 15 0 25 0;
#X connect 16 0 15 0;
#X connect 18 0 15 0;
#X connect 20 0 13 0;
#X connect 20 0 44 0;
#X connect 21 0 20 0;
#X connect 21 1 22 0;
#X connect 22 0 23 0;
#X connect 23 0 24 0;
#X connect 23 1 15 0;
#X connect 23 2 18 0;
#X connect 23 3 12 0;
#X connect 25 0 31 0;
#X connect 26 0 16 0;
#X connect 26 1 30 0;
#X connect 26 2 27 0;
#X connect 27 0 28 0;
#X connect 28 0 14 0;
#X connect 29 0 21 0;
#X connect 29 0 56 0;
#X connect 30 0 46 0;
#X connect 30 0 48 1;
#X connect 30 0 50 1;
#X connect 30 0 52 1;
#X connect 30 0 54 1;
#X connect 31 0 47 0;
#X connect 31 0 49 0;
#X connect 31 0 51 0;
#X connect 31 0 53 0;
#X connect 33 0 1 0;
#X connect 34 0 4 0;
#X connect 35 0 6 0;
#X connect 36 0 8 0;
#X connect 39 0 29 1;
#X connect 39 0 38 0;
#X connect 40 0 8 1;
#X connect 41 0 4 1;
#X connect 42 0 1 1;
#X connect 43 0 6 1;
#X connect 45 0 22 1;
#X connect 47 0 48 0;
#X connect 49 0 50 0;
#X connect 51 0 52 0;
#X connect 53 0 54 0;
#X connect 55 0 29 0;
#X restore 110 288 pd param-editor;
#N canvas 0 50 1920 998 states-and-leds 0;
#N canvas 133 141 1783 760 led-screen 0;
#X obj 325 167 r edit-note;
#X obj 283 225 f;
#X obj 225 92 r state;
#X msg 283 271 \; screenLine5 Editing Key \$1 \; led 7 \;;
#X obj 285 532 r edit-note;
#X obj 314 600 spigot 0;
#X msg 315 629 \; screenLine5 Editing Key \$1 \; led 7 \;;
#X obj 225 114 sel 0 1 2 3 4 5;
#N canvas 21 50 1583 859 param-disp 0;
#X obj 97 217 tabread param1;
#X obj 100 114 r edit-note;
#X obj 104 185 f;
#X obj 102 292 spigot 0;
#X obj 320 65 r state;
#X obj 315 101 sel 4;
#X obj 347 172 bang;
#X msg 311 223 0;
#X msg 211 215 1;
#X obj 266 159 t b b;
#X text 371 114 state 4 key edit;
#X obj 92 472 outlet;
#X obj 102 331 cg-2-way-detent;
#X obj 102 370 * 100;
#X obj 102 391 i;
#X obj 207 391 r cgSc-1-mute-print;
#X obj 207 412 ==;
#X obj 135 432 spigot 0;
#X obj 35 216 r oknob1;
#X obj 209 57 r edit_state-\$1;
#X obj 210 83 tgl 15 0 empty empty empty 17 7 0 10 -262144 -1 -1 1
1;
#X obj 210 103 sel 1;
#X floatatom 35 237 5 0 0 0 - - -;
#X floatatom 117 137 5 0 0 0 - - -;
#X floatatom 120 411 5 0 0 0 - - -;
#X floatatom 97 238 5 0 0 0 - - -;
#X connect 0 0 3 0;
#X connect 0 0 25 0;
#X connect 1 0 2 0;
#X connect 1 0 23 0;
#X connect 2 0 0 0;
#X connect 3 0 12 0;
#X connect 4 0 5 0;
#X connect 6 0 7 0;
#X connect 7 0 3 1;
#X connect 8 0 3 1;
#X connect 9 0 2 0;
#X connect 9 1 8 0;
#X connect 12 0 13 0;
#X connect 13 0 14 0;
#X connect 14 0 11 0;
#X connect 14 0 24 0;
#X connect 15 0 16 0;
#X connect 16 0 17 1;
#X connect 18 0 3 0;
#X connect 18 0 22 0;
#X connect 19 0 20 0;
#X connect 20 0 21 0;
#X connect 21 0 9 0;
#X connect 21 1 6 0;
#X restore 719 585 pd param-disp;
#N canvas 15 51 610 567 param-disp 0;
#X obj 100 114 r edit-note;
#X obj 104 185 f;
#X obj 102 292 spigot 0;
#X obj 347 172 bang;
#X msg 311 223 0;
#X msg 211 215 1;
#X obj 267 166 t b b;
#X text 371 114 state 4 key edit;
#X obj 176 459 outlet;
#X obj 97 217 tabread param2;
#X obj 181 391 i;
#X obj 174 367 * 100;
#X obj 288 395 r cgSc-1-mute-print;
#X obj 288 416 ==;
#X obj 187 428 spigot 0;
#X obj 35 216 r oknob2;
#X obj 209 57 r edit_state-\$1;
#X obj 210 83 tgl 15 0 empty empty empty 17 7 0 10 -262144 -1 -1 1
1;
#X obj 210 103 sel 1;
#X connect 0 0 1 0;
#X connect 1 0 9 0;
#X connect 2 0 11 0;
#X connect 3 0 4 0;
#X connect 4 0 2 1;
#X connect 5 0 2 1;
#X connect 6 0 1 0;
#X connect 6 1 5 0;
#X connect 9 0 2 0;
#X connect 10 0 8 0;
#X connect 11 0 10 0;
#X connect 12 0 13 0;
#X connect 13 0 14 1;
#X connect 14 0 8 0;
#X connect 15 0 2 0;
#X connect 16 0 17 0;
#X connect 17 0 18 0;
#X connect 18 0 6 0;
#X connect 18 1 3 0;
#X restore 960 587 pd param-disp;
#N canvas 18 50 1027 672 param-disp 0;
#X obj 100 114 r edit-note;
#X obj 104 185 f;
#X obj 102 292 spigot 0;
#X obj 347 172 bang;
#X msg 311 223 0;
#X msg 211 215 1;
#X obj 260 158 t b b;
#X text 371 114 state 4 key edit;
#X obj 132 491 outlet;
#X obj 97 217 tabread param3;
#X obj 288 395 r cgSc-1-mute-print;
#X obj 288 416 ==;
#X obj 187 428 spigot 0;
#X obj 209 57 r edit_state-\$1;
#X obj 210 83 tgl 15 0 empty empty empty 17 7 0 10 -262144 -1 -1 1
1;
#X obj 210 103 sel 1;
#X floatatom 97 238 5 0 0 0 - - -;
#X floatatom 35 237 5 0 0 0 - - -;
#X obj 35 216 r oknob3;
#X connect 0 0 1 0;
#X connect 1 0 9 0;
#X connect 2 0 12 0;
#X connect 2 0 8 0;
#X connect 3 0 4 0;
#X connect 4 0 2 1;
#X connect 5 0 2 1;
#X connect 6 0 1 0;
#X connect 6 1 5 0;
#X connect 9 0 2 0;
#X connect 9 0 16 0;
#X connect 10 0 11 0;
#X connect 11 0 12 1;
#X connect 13 0 14 0;
#X connect 14 0 15 0;
#X connect 15 0 6 0;
#X connect 15 1 3 0;
#X connect 18 0 2 0;
#X connect 18 0 17 0;
#X restore 1211 537 pd param-disp;
#N canvas 16 50 610 568 param-disp 0;
#X obj 100 114 r edit-note;
#X obj 104 185 f;
#X obj 102 292 spigot 0;
#X obj 347 172 bang;
#X msg 311 223 0;
#X msg 211 215 1;
#X obj 294 142 t b b;
#X text 371 114 state 4 key edit;
#X obj 101 419 outlet;
#X obj 97 217 tabread param4;
#X obj 147 318 r cgSc-1-mute-print;
#X obj 147 339 ==;
#X obj 133 364 spigot 0;
#X obj 35 216 r oknob4;
#X obj 209 57 r edit_state-\$1;
#X obj 210 83 tgl 15 0 empty empty empty 17 7 0 10 -262144 -1 -1 1
1;
#X obj 210 103 sel 1;
#X connect 0 0 1 0;
#X connect 1 0 9 0;
#X connect 2 0 8 0;
#X connect 3 0 4 0;
#X connect 4 0 2 1;
#X connect 5 0 2 1;
#X connect 6 0 1 0;
#X connect 6 1 5 0;
#X connect 9 0 2 0;
#X connect 10 0 11 0;
#X connect 11 0 12 1;
#X connect 12 0 8 0;
#X connect 13 0 2 0;
#X connect 14 0 15 0;
#X connect 15 0 16 0;
#X connect 16 0 6 0;
#X connect 16 1 3 0;
#X restore 1356 523 pd param-disp;
#X text 975 559 display edit params in key edit mode;
#N canvas 124 235 1064 550 e-param-disp 0;
#X obj 317 39 r eparam1;
#X obj 269 307 f;
#X obj 502 309 f;
#X obj 356 314 f;
#X obj 431 318 f;
#X obj 343 507 outlet;
#X obj 425 504 outlet;
#X obj 511 503 outlet;
#X obj 580 495 outlet;
#X obj 401 37 r eparam2;
#X obj 479 40 r eparam3;
#X obj 559 40 r eparam4;
#X obj 283 421 i;
#X obj 373 394 i;
#X obj 450 417 i;
#X obj 709 3 r state;
#X obj 290 236 spigot;
#X obj 368 243 spigot;
#X obj 542 245 spigot;
#X obj 465 249 spigot;
#X obj 646 88 t b b;
#X msg 762 100 0;
#X msg 447 158 1;
#X text 689 189 allow screen messages only in states 0 1 2 3;
#X obj 588 388 i;
#X obj 587 367 * 99;
#X obj 449 392 * 1000;
#X obj 282 399 * 100;
#X obj 431 339 pow 2;
#X obj 373 372 * 99;
#X obj 373 415 + 1;
#X obj 705 39 sel 0 1 2 3 4 5;
#X connect 0 0 16 0;
#X connect 1 0 27 0;
#X connect 2 0 25 0;
#X connect 3 0 29 0;
#X connect 4 0 28 0;
#X connect 9 0 17 0;
#X connect 10 0 19 0;
#X connect 11 0 18 0;
#X connect 12 0 5 0;
#X connect 13 0 30 0;
#X connect 14 0 7 0;
#X connect 15 0 31 0;
#X connect 16 0 1 0;
#X connect 17 0 3 0;
#X connect 18 0 2 0;
#X connect 19 0 4 0;
#X connect 20 0 2 0;
#X connect 20 0 4 0;
#X connect 20 0 3 0;
#X connect 20 0 1 0;
#X connect 20 1 22 0;
#X connect 21 0 18 1;
#X connect 21 0 19 1;
#X connect 21 0 17 1;
#X connect 21 0 16 1;
#X connect 22 0 18 1;
#X connect 22 0 19 1;
#X connect 22 0 17 1;
#X connect 22 0 16 1;
#X connect 24 0 8 0;
#X connect 25 0 24 0;
#X connect 26 0 14 0;
#X connect 27 0 12 0;
#X connect 28 0 26 0;
#X connect 29 0 13 0;
#X connect 30 0 6 0;
#X connect 31 0 20 0;
#X connect 31 1 20 0;
#X connect 31 2 20 0;
#X connect 31 3 20 0;
#X connect 31 4 21 0;
#X connect 31 5 21 0;
#X restore 517 92 pd e-param-disp;
#X f 78;
#X obj 206 645 s editing-key;
#X obj 1478 510 r state;
#X obj 1478 532 sel 5;
#X msg 1478 554 0;
#X obj 1510 554 t b;
#X msg 1510 576 1;
#X obj 1483 601 f;
#X msg 962 620 \; screenLine2 2: Level \$1% \;;
#X msg 719 620 \; screenLine1 1: Speed \$1% \;;
#X obj 1206 656 int;
#X obj 1363 652 int;
#X obj 1363 608 * 100;
#X msg 1370 711 \; screenLine4 4: Length \$1% \;;
#X msg 672 229 \; screenLine2 2: Global Length \$1% \;;
#X msg 517 268 \; screenLine1 1: Global Start \$1% \;;
#X msg 827 187 \; screenLine3 3: Del. Time \$1ms;
#X msg 982 138 \; screenLine4 4: Del. Feedback \$1%;
#X obj 1209 613 * 100;
#X msg 1169 708 \; screenLine3 3: Start \$1% \;;
#X obj 1356 544 pow 2;
#X obj 283 246 + 1;
#X obj 285 553 + 1;
#X obj 392 533 r edit_state-\$1;
#X obj 220 169 r edit_state-\$1;
#X connect 0 0 1 1;
#X connect 1 0 34 0;
#X connect 2 0 7 0;
#X connect 4 0 35 0;
#X connect 5 0 6 0;
#X connect 5 0 14 0;
#X connect 7 4 1 0;
#X connect 8 0 22 0;
#X connect 9 0 21 0;
#X connect 10 0 31 0;
#X connect 11 0 33 0;
#X connect 13 0 28 0;
#X connect 13 1 27 0;
#X connect 13 2 29 0;
#X connect 13 3 30 0;
#X connect 15 0 16 0;
#X connect 16 0 17 0;
#X connect 16 1 18 0;
#X connect 17 0 20 0;
#X connect 18 0 19 0;
#X connect 19 0 20 0;
#X connect 23 0 32 0;
#X connect 24 0 26 0;
#X connect 25 0 24 0;
#X connect 31 0 23 0;
#X connect 33 0 25 0;
#X connect 34 0 3 0;
#X connect 35 0 5 0;
#X connect 36 0 5 1;
#X connect 37 0 1 1;
#X restore 959 32 pd led-screen;
#X obj 860 25 r state;
#X obj 860 47 v state;
#N canvas 6 50 450 300 lock-knobs 0;
#X obj 160 78 s knob1Override;
#X obj 171 101 s knob2Override;
#X obj 188 124 s knob3Override;
#X obj 201 148 s knob4Override;
#X obj 234 17 inlet;
#X connect 4 0 0 0;
#X connect 4 0 1 0;
#X connect 4 0 2 0;
#X connect 4 0 3 0;
#X restore 920 589 pd lock-knobs;
#X obj 586 445 r state;
#X msg 901 627 1;
#X msg 824 628 0;
#X obj 901 547 t b b b;
#X obj 586 490 sel 0 1 2 3 4 5, f 68;
#X obj 1200 340 s state;
#X text 493 411 dispatch events on state changes;
#X obj 824 701 s key-edit-state;
#X msg 426 363 4;
#X obj 426 395 s state;
#X obj 351 302 sel 0, f 7;
#X text 461 33 states: 0 stopped \, 1 playing \, 2 rec enabled \, 3
recording \, 4 key edit \, 5 info screen;
#X obj 351 275 v seq3-1-state;
#X obj 227 120 sel 0;
#X obj 293 181 + 1;
#X obj 293 202 == 1;
#X obj 254 181 f 1;
#X obj 254 242 sel 0 1, f 33;
#X msg 351 352 Edit:ON;
#X msg 144 336 Edit:OFF;
#X text 406 301 <--- only allow key editing from stopped state;
#X msg 352 424 0;
#X obj 352 446 s state;
#X msg 290 431 0;
#X obj 263 401 t b b b b;
#X obj 717 557 t b;
#X obj 358 70 r seq3-1-actions;
#X obj 351 325 t b b b, f 13;
#X obj 358 123 sel 5 7 8;
#X obj 358 99 spigot 0;
#X obj 409 146 t b b;
#X msg 436 168 0;
#X obj 254 145 t b, f 4;
#X msg 332 144 0;
#X msg 488 180 1;
#X obj 227 99 r cgSc-1-7;
#X obj 144 437 s cgSc-1-7label;
#N canvas 792 623 450 300 sc-7-aux-press-return 0;
#X obj 142 6 r state;
#X obj 142 27 sel 4;
#X obj 40 96 r aux;
#X obj 40 117 spigot 0;
#X obj 40 138 sel 1;
#X obj 40 159 t b b;
#X msg 117 128 0;
#X msg 142 48 1;
#X obj 40 200 s \$0-auto-7-off;
#X connect 0 0 1 0;
#X connect 1 0 7 0;
#X connect 2 0 3 0;
#X connect 3 0 4 0;
#X connect 4 0 5 0;
#X connect 5 0 8 0;
#X connect 5 1 6 0;
#X connect 6 0 3 1;
#X connect 7 0 3 1;
#X restore 54 542 pd sc-7-aux-press-return;
#X obj 218 290 r \$0-auto-7-off;
#X obj 218 311 t b;
#X msg 1200 318 0;
#X obj 305 39 r \$0-auto-7-off;
#X msg 305 60 0;
#X obj 1200 285 r loadbang-\$1;
#X obj 166 60 r edit_state-\$1;
#X obj 144 198 r loadbang-\$1;
#X obj 263 638 s aux-led-\$1;
#X msg 263 562 0;
#X connect 1 0 2 0;
#X connect 4 0 8 0;
#X connect 5 0 11 0;
#X connect 6 0 11 0;
#X connect 7 0 5 0;
#X connect 7 1 3 0;
#X connect 8 0 29 0;
#X connect 8 1 29 0;
#X connect 8 2 29 0;
#X connect 8 3 29 0;
#X connect 8 4 7 0;
#X connect 8 5 6 0;
#X connect 12 0 13 0;
#X connect 14 0 31 0;
#X connect 16 0 14 0;
#X connect 17 1 36 0;
#X connect 18 0 19 0;
#X connect 19 0 20 1;
#X connect 20 0 18 0;
#X connect 20 0 21 0;
#X connect 21 0 28 0;
#X connect 21 1 16 0;
#X connect 22 0 40 0;
#X connect 23 0 40 0;
#X connect 25 0 26 0;
#X connect 28 0 51 0;
#X connect 28 1 27 0;
#X connect 28 2 25 0;
#X connect 28 3 23 0;
#X connect 29 0 6 0;
#X connect 30 0 33 0;
#X connect 31 0 22 0;
#X connect 31 1 12 0;
#X connect 31 2 38 0;
#X connect 32 3 34 0;
#X connect 33 0 32 0;
#X connect 34 0 37 0;
#X connect 34 1 35 0;
#X connect 35 0 33 1;
#X connect 36 0 20 0;
#X connect 37 0 20 0;
#X connect 38 0 33 1;
#X connect 39 0 17 0;
#X connect 42 0 43 0;
#X connect 43 0 28 0;
#X connect 44 0 9 0;
#X connect 45 0 46 0;
#X connect 46 0 20 0;
#X connect 47 0 44 0;
#X connect 48 0 17 0;
#X connect 49 0 23 0;
#X restore 222 139 pd states-and-leds;
#N canvas 4 50 1912 998 save-params 0;
#X obj 122 105 sel 0;
#X obj 122 74 change;
#X msg 455 92 \; param1 read param1.txt \; param2 read param2.txt \;
param3 read param3.txt \; param4 read param4.txt \;;
#X msg 123 140 \; param1 write /tmp/state/param1.txt \; param2 write
/tmp/state/param2.txt \; param3 write /tmp/state/param3.txt \; param4
write /tmp/state/param4.txt \;;
#X obj 471 42 r loadbang-\$1;
#X obj 122 42 r edit_state-\$1;
#X connect 0 0 3 0;
#X connect 1 0 0 0;
#X connect 4 0 2 0;
#X connect 5 0 1 0;
#X restore 222 164 pd save-params;
#N canvas 13 50 450 300 CG-PdLibrary-Local 0;
#X obj 502 35 r cgSc-1-slots;
#X obj 60 68 declare -path cg-pd-library-local/sampling;
#X obj 60 98 declare -path cg-pd-library-local/sequencer;
#X obj 58 130 declare -path cg-pd-library-local/externals;
#X obj 59 165 declare -path cg-pd-library-local/metronome;
#X restore 222 89 pd CG-PdLibrary-Local;
#X obj 31 352 pack 0 0 0;
#X obj 49 269 spigot 1;
#X obj 94 185 r rec-state;
#X obj 94 206 sel 3, f 9;
#X obj 145 234 t b;
#X msg 94 236 0;
#X msg 145 255 1;
#N canvas 860 264 1056 593 sound-out-delay 0;
#X obj 729 143 f;
#X obj 630 125 f;
#X obj 434 490 *~ 1;
#X obj 433 247 inlet~;
#X obj 729 306 f;
#X obj 599 358 delay5sec 5;
#X obj 502 204 lop~ 5;
#X obj 502 110 r key-edit-state;
#X obj 729 284 * 0.98;
#X obj 729 261 clip 0 1;
#X obj 630 146 t f f;
#X obj 729 166 t f f;
#X obj 872 395 lop~ 15;
#X obj 567 430 *~, f 20;
#X obj 797 260 sel 0;
#X obj 872 262 sel 0;
#X obj 924 283 t b;
#X obj 828 279 t b;
#X msg 910 342 1;
#X msg 872 341 0;
#X obj 502 145 ==;
#X obj 566 491 *~ 1;
#X obj 477 292 *~ 0.7;
#X obj 567 405 *~, f 6;
#X obj 433 364 *~ 0.98;
#X obj 566 524 outlet~;
#X obj 435 523 outlet~;
#X obj 657 168 / 100;
#X obj 630 102 r eparam3-\$1;
#X obj 729 102 r eparam4-\$1;
#X floatatom 582 181 5 0 0 0 - - -;
#X obj 729 123 / 100;
#X obj 599 379 *~ 0.98;
#X connect 0 0 11 0;
#X connect 1 0 10 0;
#X connect 2 0 26 0;
#X connect 3 0 22 0;
#X connect 3 0 24 0;
#X connect 4 0 5 2;
#X connect 5 0 32 0;
#X connect 6 0 23 0;
#X connect 7 0 20 0;
#X connect 8 0 4 0;
#X connect 9 0 8 0;
#X connect 10 0 5 1;
#X connect 10 0 30 0;
#X connect 10 1 27 0;
#X connect 11 0 9 0;
#X connect 11 1 15 0;
#X connect 12 0 13 1;
#X connect 13 0 2 0;
#X connect 13 0 21 0;
#X connect 14 0 19 0;
#X connect 14 1 17 0;
#X connect 15 0 19 0;
#X connect 15 1 16 0;
#X connect 16 0 18 0;
#X connect 17 0 18 0;
#X connect 18 0 12 0;
#X connect 19 0 12 0;
#X connect 20 0 6 0;
#X connect 21 0 25 0;
#X connect 22 0 5 0;
#X connect 24 0 2 0;
#X connect 24 0 21 0;
#X connect 27 0 14 0;
#X connect 28 0 1 0;
#X connect 29 0 31 0;
#X connect 31 0 0 0;
#X connect 32 0 23 1;
#X connect 32 0 13 0;
#X restore 29 466 pd sound-out-delay;
#X obj 364 427 s global-length;
#X obj 263 428 s global-start;
#X obj 31 331 poly 8 0, f 10;
#X obj 31 378 clone -s 1 child-samp-voice 8;
#N canvas 902 87 929 961 record-load-sample 1;
#X obj 130 126 *~ 1;
#X obj 131 60 *~ 0.707;
#X obj 201 59 *~ 0.707;
#X text 270 46 Audio In;
#X text 172 90 load and record sample;
#N canvas 4 50 583 463 aux 0;
#X obj 75 309 s samp-1-kill;
#X obj 75 259 sel 1;
#X obj 75 229 spigot 0;
#X obj 75 280 t b b;
#X msg 159 243 0;
#X text 289 86 aux press cancels rec;
#X obj 105 89 r samp-states;
#X obj 105 114 route 1;
#X obj 105 135 sel 0 1 2 3, f 22;
#X msg 137 169 1;
#X msg 105 169 0;
#X obj 75 208 r auxIn-\$1;
#X obj 218 186 r pg_rec;
#X obj 218 207 sel 0;
#X connect 1 0 3 0;
#X connect 2 0 1 0;
#X connect 3 0 0 0;
#X connect 3 1 4 0;
#X connect 4 0 2 1;
#X connect 6 0 7 0;
#X connect 7 0 8 0;
#X connect 8 0 10 0;
#X connect 8 1 9 0;
#X connect 8 2 9 0;
#X connect 9 0 2 1;
#X connect 10 0 2 1;
#X connect 11 0 2 0;
#X connect 12 0 2 1;
#X connect 12 0 13 0;
#X connect 13 0 0 0;
#X restore 130 291 pd aux press cancels rec;
#N canvas 106 50 1537 837 shortcut-6 0;
#X obj 57 145 s samp-1-arm;
#X obj 30 91 sel 0;
#X obj 57 117 t b;
#X obj 70 239 r samp-live-time;
#X obj 70 260 route 1;
#X obj 417 198 r samp-states;
#X obj 417 223 route 1;
#X obj 417 314 sel 0 1 2 3, f 22;
#X msg 465 490 /oled/gFillArea 3 0 0 128 50 0;
#X msg 188 379 /oled/gFillArea 3 0 0 128 50 0;
#X msg 55 467 /oled/gFlip 3;
#X obj 41 347 t b f b b;
#X obj 449 381 t b b b;
#X obj 235 624 s oscOut;
#X obj 322 539 t a;
#X obj 561 77 r cgSc-1-mute-print;
#X obj 561 178 spigot 0;
#X obj 561 199 sel 0;
#X obj 647 108 r samp-states;
#X obj 647 133 route 1;
#X obj 417 284 f;
#X msg 72 435 /oled/gPrintln 3 40 25 16 1 \$1 sec;
#X obj 621 260 s cgSc-1-mute-print;
#X msg 626 215 0;
#X obj 647 154 t f f;
#X obj 648 194 sel 0;
#X msg 111 407 /oled/gPrintln 3 15 10 16 1 RECORDING;
#X msg 426 425 /oled/gPrintln 3 13 10 16 1 REC:ARMED;
#X obj 401 573 r cgSc-1-mute-print;
#X obj 312 566 spigot 0;
#X obj 401 594 ==;
#X obj 561 220 del 10;
#X obj 156 70 r fs;
#X obj 156 91 sel 1;
#X text 142 37 Arm Recording;
#X text 185 72 Footswitch;
#X text 145 1 Aux Menu Selection;
#X obj 81 61 r pg_rec;
#X obj 86 93 tgl 15 0 empty empty empty 17 7 0 10 -262144 -1 -1 0 1
;
#X obj 30 58 spigot;
#X obj 30 37 r auxIn-\$1;
#X connect 1 1 2 0;
#X connect 2 0 0 0;
#X connect 3 0 4 0;
#X connect 4 0 11 0;
#X connect 5 0 6 0;
#X connect 6 0 20 0;
#X connect 7 1 12 0;
#X connect 8 0 14 0;
#X connect 9 0 14 0;
#X connect 10 0 14 0;
#X connect 11 0 10 0;
#X connect 11 1 21 0;
#X connect 11 2 26 0;
#X connect 11 3 9 0;
#X connect 12 0 10 0;
#X connect 12 1 27 0;
#X connect 12 2 8 0;
#X connect 14 0 29 0;
#X connect 14 0 13 0;
#X connect 15 0 16 0;
#X connect 16 0 17 0;
#X connect 17 0 31 0;
#X connect 18 0 19 0;
#X connect 19 0 24 0;
#X connect 20 0 7 0;
#X connect 21 0 14 0;
#X connect 23 0 22 0;
#X connect 24 0 25 0;
#X connect 24 1 16 1;
#X connect 25 0 23 0;
#X connect 26 0 14 0;
#X connect 27 0 14 0;
#X connect 28 0 30 0;
#X connect 30 0 29 1;
#X connect 31 0 20 0;
#X connect 32 0 33 0;
#X connect 33 0 0 0;
#X connect 37 0 38 0;
#X connect 38 0 39 1;
#X connect 39 0 1 0;
#X connect 40 0 39 0;
#X restore 130 260 pd shortcut-6 and the printing;
#X obj 129 220 clone -s 1 load-rec-sample 1 samp 10000 sounds 1, f
28;
#X obj 131 38 inlet~;
#X obj 201 37 inlet~;
#X obj 324 107 r loadbang-\$1;
#X obj 324 136 bng 15 250 50 0 empty empty empty 17 7 0 10 -262144
-1 -1;
#X msg 324 156 all bang;
#X obj 45 174 sampleload \$1;
#X connect 0 0 7 3;
#X connect 0 0 7 1;
#X connect 1 0 0 0;
#X connect 2 0 0 0;
#X connect 8 0 1 0;
#X connect 9 0 2 0;
#X connect 10 0 11 0;
#X connect 11 0 12 0;
#X connect 12 0 7 4;
#X connect 13 0 7 0;
#X connect 13 1 7 2;
#X restore 214 32 pd record-load-sample;
#N canvas 1443 199 450 300 parameter-arrays 0;
#X obj 45 121 array define param4 24;
#X obj 45 92 array define param3 24;
#X obj 44 61 array define param2 24;
#X obj 45 31 array define param1 24;
#X restore 222 114 pd parameter-arrays;
#X obj 31 74 r notesIn-\$1;
#X obj 111 45 s notesOut-\$1;
#X obj 14 -7 r loadbang-\$1;
#X obj 215 -4 inlet~ inL-\$1;
#X obj 336 -4 inlet~ inR-\$1;
#X obj 29 493 outlet~ outL-\$1;
#X obj 135 493 outlet~ outR-\$1;
#X obj 112 -7 r expIn-\$1;
#X obj 112 19 r fsIn-\$1;
#X obj 14 19 int 0;
#X obj 14 45 s aux-led-\$1;
#X obj 360 252 r ctrlIn-\$1;
#X obj 360 273 s ctrlOut-\$1;
#X obj 436 41 sel \$1;
#X msg 532 227 /oled/gClear 3 1;
#X msg 484 255 /oled/gFlip 3;
#X obj 436 13 unpack s s, f 13;
#X obj 436 -8 r activePage;
#X obj 469 104 &&;
#X msg 436 71 1;
#X msg 469 71 0;
#X text 761 160 page and module is active;
#X obj 469 195 t b b b b b;
#X obj 484 284 s oscOut;
#X msg 562 71 1;
#X symbolatom 366 44 10 0 0 0 - - -;
#X symbolatom 716 27 10 0 0 0 - - -;
#X msg 511 71 0;
#X obj 357 175 tgl 15 0 empty empty empty 17 7 0 10 -262144 -1 -1 1
1;
#X obj 357 195 s edit_state-\$1;
#X obj 197 198 r edit_state-\$1;
#X obj 31 97 unpack 0 0, f 18;
#X obj 31 138 % 24;
#X obj 31 118 - 12;
#X obj 31 159 pack 0 0, f 18;
#X obj 29 421 catch~ voice-out;
#X obj 263 322 r eparam1-\$1;
#X obj 364 321 r eparam2-\$1;
#X obj 469 136 sel 1;
#X obj 511 41 sel pg_main pg_edit pg_rec;
#X msg 613 71 0;
#X obj 716 95 s pg_rec;
#X msg 716 72 1;
#X msg 773 72 0;
#X obj 526 162 s aux-led-\$1;
#X obj 599 128 s aux-label-\$1;
#X obj 716 49 sel pg_rec;
#X msg 835 111 0;
#X obj 805 132 s aux-led-\$1;
#X msg 805 111 3;
#X floatatom 99 353 5 0 0 0 - - -;
#X obj 29 443 *~ 0.5;
#X msg 545 123 7;
#X msg 638 162 Main Page;
#X obj 638 183 s aux-label-\$1;
#X obj 531 367 declare -path soundshare;
#X msg 461 311 Edit Page;
#X obj 461 332 s aux-label-\$1;
#X msg 599 107 Record Page;
#X connect 4 0 15 0;
#X connect 6 0 7 0;
#X connect 7 0 9 0;
#X connect 7 1 8 0;
#X connect 8 0 10 0;
#X connect 9 0 5 1;
#X connect 10 0 5 1;
#X connect 11 0 23 0;
#X connect 11 1 24 0;
#X connect 14 0 4 0;
#X connect 14 0 68 0;
#X connect 14 1 4 1;
#X connect 14 2 4 2;
#X connect 18 0 49 0;
#X connect 20 0 27 0;
#X connect 21 0 16 0;
#X connect 22 0 16 1;
#X connect 27 0 28 0;
#X connect 29 0 30 0;
#X connect 31 0 37 0;
#X connect 31 1 38 0;
#X connect 32 0 41 0;
#X connect 33 0 41 0;
#X connect 34 0 31 0;
#X connect 34 0 43 0;
#X connect 34 1 44 0;
#X connect 34 1 57 0;
#X connect 35 0 34 0;
#X connect 36 0 46 0;
#X connect 36 0 56 0;
#X connect 37 0 36 0;
#X connect 38 0 36 0;
#X connect 40 0 74 0;
#X connect 40 1 33 0;
#X connect 40 4 32 0;
#X connect 42 0 36 1;
#X connect 44 0 64 0;
#X connect 45 0 36 1;
#X connect 45 0 62 0;
#X connect 46 0 47 0;
#X connect 48 0 0 1;
#X connect 49 0 51 0;
#X connect 49 1 52 1;
#X connect 50 0 52 0;
#X connect 51 0 50 0;
#X connect 52 0 0 0;
#X connect 52 0 14 0;
#X connect 53 0 69 0;
#X connect 54 0 13 0;
#X connect 55 0 12 0;
#X connect 56 0 40 0;
#X connect 57 0 45 0;
#X connect 57 0 71 0;
#X connect 57 1 42 0;
#X connect 57 1 70 0;
#X connect 57 2 58 0;
#X connect 58 0 36 1;
#X connect 60 0 59 0;
#X connect 61 0 59 0;
#X connect 64 0 60 0;
#X connect 64 0 76 0;
#X connect 64 0 67 0;
#X connect 64 1 61 0;
#X connect 64 1 65 0;
#X connect 65 0 66 0;
#X connect 67 0 66 0;
#X connect 69 0 11 0;
#X connect 70 0 62 0;
#X connect 71 0 72 0;
#X connect 74 0 75 0;
#X connect 76 0 63 0;
