#N canvas 884 101 691 733 10;
#X obj 143 125 soundshare_select;
#X obj 192 18 r loadbang-\$1;
#X floatatom 280 50 5 0 0 0 - - -;
#X msg 274 100 -1;
#X obj 143 146 t b a;
#X obj 119 167 del 1000;
#X obj 149 190 list;
#X obj 205 173 f \$0;
#X obj 171 214 list;
#X msg 171 339 open \$1;
#X obj 171 360 t a b b;
#X msg 210 404 0;
#X obj 171 430 readsf~;
#X msg 179 404 1;
#X obj 143 382 delay 100;
#X obj 242 147 list;
#X msg 242 172 bang;
#X obj 242 214 symbol;
#X obj 242 277 s aux-label-\$1;
#X obj 280 27 r samp_src-\$1;
#X obj 72 63 r samp_select-\$1;
#X msg 242 235 \$1;
#X obj 313 131 s aux-label-\$1;
#X symbolatom 320 173 45 0 0 0 - - -;
#X msg 319 212 \$1 !;
#X obj 280 70 t f f;
#X obj 52 470 / 100;
#X obj 52 491 sig~;
#X obj 171 477 *~;
#X obj 52 449 r samp_vol-\$1;
#X obj 170 510 outlet~;
#X obj 288 510 outlet;
#X obj 270 369 print;
#X msg 210 478 all stop;
#X msg 288 478 all bang;
#X msg 324 345 read \$1;
#X obj 324 366 soundfile_info;
#X obj 324 387 unpack f s f f f f s f;
#X floatatom 392 430 30 0 0 0 - - -;
#X obj 360 409 i;
#X msg 360 478 all soundfile \$1;
#X connect 0 0 4 0;
#X connect 0 1 15 0;
#X connect 0 2 22 0;
#X connect 1 0 0 1;
#X connect 1 0 7 0;
#X connect 1 0 3 0;
#X connect 2 0 25 0;
#X connect 3 0 0 2;
#X connect 4 0 5 0;
#X connect 4 1 6 1;
#X connect 5 0 6 0;
#X connect 6 0 8 0;
#X connect 7 0 8 1;
#X connect 8 0 9 0;
#X connect 8 0 35 0;
#X connect 9 0 10 0;
#X connect 9 0 32 0;
#X connect 10 0 12 0;
#X connect 10 1 14 0;
#X connect 10 2 11 0;
#X connect 11 0 12 0;
#X connect 12 0 28 0;
#X connect 12 1 33 0;
#X connect 13 0 12 0;
#X connect 14 0 13 0;
#X connect 14 0 34 0;
#X connect 15 0 16 0;
#X connect 15 0 17 1;
#X connect 15 0 23 0;
#X connect 15 0 24 0;
#X connect 16 0 17 0;
#X connect 17 0 21 0;
#X connect 19 0 2 0;
#X connect 20 0 0 0;
#X connect 21 0 18 0;
#X connect 24 0 18 0;
#X connect 25 0 0 1;
#X connect 25 1 0 2;
#X connect 26 0 27 0;
#X connect 27 0 28 1;
#X connect 28 0 30 0;
#X connect 29 0 26 0;
#X connect 33 0 31 0;
#X connect 34 0 31 0;
#X connect 35 0 36 0;
#X connect 36 0 37 0;
#X connect 37 2 39 0;
#X connect 39 0 38 0;
#X connect 39 0 40 0;
#X connect 40 0 31 0;
