#N canvas 473 50 1443 994 10;
#X obj 187 60 inlet;
#X obj 193 567 *~;
#X obj 225 765 outlet~;
#X obj 349 317 sel 0;
#X obj 384 448 vline~;
#X msg 139 622 reset;
#X text 471 622 Q (1-4);
#X obj 103 369 *~;
#X obj 385 494 *~;
#X msg 349 401 0 50;
#X msg 412 393 \$1 10;
#X obj 412 356 / 127;
#X obj 193 531 *~ 1;
#X obj 225 738 hip~ 5;
#X obj 226 669 moog~;
#X obj 225 716 *~ 1;
#X obj 214 271 +~;
#X obj 187 215 sig~;
#X obj 196 156 +;
#X obj 187 185 mtof;
#X obj 187 106 unpack f f 0, f 21;
#X obj 475 97 inlet ctrl;
#X obj 433 164 - 0.5;
#X obj 427 218 t b f;
#X text 498 173 PB = 0..1 \, but its biploar -1 to 1 \, so (x-0.5 *
2 * 48);
#X obj 186 132 + 0;
#X obj 541 256 sig~;
#X obj 541 281 lop~ 5;
#X obj 272 582 +~;
#X obj 647 116 * 2;
#X obj 433 185 * 2;
#X obj 527 197 * 1000;
#X obj 475 119 route 0 2 123;
#X obj 467 257 t b;
#X obj 432 520 r~ as-cutoff-local;
#X obj 337 621 r~ as-resonance;
#X obj 224 156 r as_trans;
#X obj 647 95 r pb_range;
#X floatatom 318 149 5 0 0 0 - - -;
#X obj 102 398 blsaw;
#X obj 164 384 blsaw;
#X obj 232 246 r~ as-f;
#X floatatom 133 154 5 0 0 0 - - -;
#X floatatom 252 210 5 0 0 0 - - -;
#X obj 15 285 r~ as-offset;
#X connect 0 0 20 0;
#X connect 1 0 14 0;
#X connect 3 0 9 0;
#X connect 3 1 11 0;
#X connect 4 0 8 1;
#X connect 4 0 8 0;
#X connect 5 0 14 0;
#X connect 7 0 39 0;
#X connect 8 0 1 1;
#X connect 9 0 4 0;
#X connect 10 0 4 0;
#X connect 11 0 10 0;
#X connect 12 0 1 0;
#X connect 13 0 2 0;
#X connect 14 0 15 0;
#X connect 15 0 13 0;
#X connect 16 0 7 0;
#X connect 16 0 40 0;
#X connect 17 0 16 0;
#X connect 18 0 19 0;
#X connect 19 0 17 0;
#X connect 19 0 43 0;
#X connect 20 0 25 0;
#X connect 20 1 3 0;
#X connect 20 1 38 0;
#X connect 21 0 32 0;
#X connect 22 0 30 0;
#X connect 23 0 25 0;
#X connect 23 1 25 1;
#X connect 25 0 42 0;
#X connect 25 0 18 0;
#X connect 26 0 27 0;
#X connect 27 0 28 1;
#X connect 28 0 14 1;
#X connect 29 0 30 1;
#X connect 30 0 23 0;
#X connect 31 0 26 0;
#X connect 32 0 22 0;
#X connect 32 1 31 0;
#X connect 32 2 33 0;
#X connect 33 0 9 0;
#X connect 34 0 28 0;
#X connect 35 0 14 2;
#X connect 36 0 18 1;
#X connect 37 0 29 0;
#X connect 39 0 12 0;
#X connect 40 0 12 0;
#X connect 41 0 16 1;
#X connect 44 0 7 1;
