#N canvas 525 218 568 337 10;
#X obj 352 172 s notesOut-\$1;
#X obj 61 90 inlet~ inL-\$1;
#X obj 170 90 inlet~ inR-\$1;
#X obj 168 250 outlet~ outL-\$1;
#X obj 277 250 outlet~ outR-\$1;
#X obj 351 79 r auxIn-\$1;
#X obj 350 102 r expIn-\$1;
#X obj 273 81 r ctrlIn-\$1;
#X obj 351 136 s ctrlOut-\$1;
#X obj 63 188 pd~ -ninsig 0 -noutsig 2;
#N canvas 4 50 578 377 subparams 1;
#X obj 240 15 r as_oscratio-\$1;
#X obj 235 99 r as_cutoff-\$1;
#X obj 57 100 r as_reso-\$1;
#X floatatom 59 36 5 0 0 0 - - -;
#X floatatom 240 36 5 0 0 0 - - -;
#X floatatom 57 121 5 0 0 0 - - -;
#X floatatom 235 120 5 0 0 0 - - -;
#X msg 240 56 as_oscratio \$1;
#X msg 57 141 as_reso \$1;
#X obj 159 237 outlet;
#X obj 399 43 r loaded-\$1;
#X msg 235 140 as_cutoff \$1;
#X obj 270 170 r notesIn-\$1;
#X obj 270 191 unpack 0 0;
#X msg 270 212 notes \$1;
#X msg 330 212 velocity \$1;
#X obj 59 15 r as_trans-\$1;
#X msg 59 56 as_trans \$1;
#X obj 41 197 r volume-\$1;
#X floatatom 41 218 5 0 0 0 - - -;
#X msg 41 238 volume \$1;
#X msg 440 195 aux \$1;
#X obj 440 174 r auxIn-\$1;
#X connect 0 0 4 0;
#X connect 1 0 6 0;
#X connect 2 0 5 0;
#X connect 3 0 17 0;
#X connect 4 0 7 0;
#X connect 5 0 8 0;
#X connect 6 0 11 0;
#X connect 7 0 9 0;
#X connect 8 0 9 0;
#X connect 10 0 4 0;
#X connect 10 0 3 0;
#X connect 10 0 5 0;
#X connect 10 0 6 0;
#X connect 11 0 9 0;
#X connect 12 0 13 0;
#X connect 13 0 14 0;
#X connect 13 1 15 0;
#X connect 14 0 9 0;
#X connect 15 0 9 0;
#X connect 16 0 3 0;
#X connect 17 0 9 0;
#X connect 18 0 19 0;
#X connect 19 0 20 0;
#X connect 20 0 9 0;
#X connect 21 0 9 0;
#X connect 22 0 21 0;
#X restore 76 165 pd subparams;
#X obj 63 119 r loadbang-\$1;
#X obj 63 215 route loaded;
#X obj 63 236 bang;
#X obj 63 257 s loaded-\$1;
#X msg 63 140 pd~ start -nogui synth.pd;
#X connect 9 0 12 0;
#X connect 9 1 3 0;
#X connect 9 2 4 0;
#X connect 10 0 9 0;
#X connect 11 0 15 0;
#X connect 12 0 13 0;
#X connect 13 0 14 0;
#X connect 15 0 9 0;
