#N canvas 4 50 951 697 10;
#X obj 154 342 pack f f f;
#X obj 154 367 route 1 2 3 4;
#X obj 154 312 poly 4 1;
#X obj 302 68 inlet ctrl;
#N canvas 324 629 450 300 route 0;
#X obj 69 97 unpack 0 0 0;
#X obj 68 68 t l l;
#X obj 68 197 list;
#X obj 139 144 t b;
#X obj 139 123 route 1 0;
#X obj 226 163 unpack 0 0 0;
#X obj 226 194 pack 0 0 0;
#X obj 68 19 inlet msg;
#X obj 68 218 outlet global;
#X obj 226 215 outlet voice;
#X obj 187 162 - 1;
#X connect 0 2 4 0;
#X connect 1 0 0 0;
#X connect 1 1 2 1;
#X connect 1 1 5 0;
#X connect 2 0 8 0;
#X connect 3 0 2 0;
#X connect 4 0 3 0;
#X connect 4 1 3 0;
#X connect 4 2 10 0;
#X connect 5 0 6 1;
#X connect 5 1 6 2;
#X connect 6 0 9 0;
#X connect 7 0 1 0;
#X connect 10 0 6 0;
#X restore 171 97 pd route;
#N canvas 324 629 450 300 route 0;
#X obj 69 97 unpack 0 0 0;
#X obj 68 68 t l l;
#X obj 68 197 list;
#X obj 139 144 t b;
#X obj 139 123 route 1 0;
#X obj 234 171 unpack 0 0 0;
#X obj 234 202 pack 0 0 0;
#X obj 68 19 inlet msg;
#X obj 68 218 outlet global;
#X obj 234 223 outlet voice;
#X obj 190 158 - 1;
#X connect 0 2 4 0;
#X connect 1 0 0 0;
#X connect 1 1 2 1;
#X connect 1 1 5 0;
#X connect 2 0 8 0;
#X connect 3 0 2 0;
#X connect 4 0 3 0;
#X connect 4 1 3 0;
#X connect 4 2 10 0;
#X connect 5 0 6 1;
#X connect 5 1 6 2;
#X connect 6 0 9 0;
#X connect 7 0 1 0;
#X connect 10 0 6 0;
#X restore 317 132 pd route;
#X msg 57 192 stop;
#X obj 420 276 route 1 2 3 4;
#X obj 227 133 unpack 0 0 0;
#X obj 227 154 sel 123;
#X msg 227 175 stop;
#X obj 602 150 sig~;
#X obj 601 181 lop~ 5;
#X obj 655 186 + 1;
#X floatatom 655 209 5 0 0 0 - - -;
#X obj 602 233 *~ 1;
#X obj 602 101 mtof;
#X obj 602 123 / 8.1785;
#X obj 757 160 sig~;
#X obj 756 189 lop~ 5;
#X obj 757 137 * 2;
#X obj 757 107 / 100;
#X obj 606 393 sig~;
#X obj 606 421 lop~ 5;
#X obj 606 365 * 4;
#X obj 765 334 sig~;
#X obj 765 359 lop~ 5;
#X obj 606 337 / 100;
#X obj 767 297 r as_cutoff;
#X obj 606 291 r as_reso;
#X obj 767 50 r as_oscratio;
#X obj 108 35 r notes;
#X obj 106 76 pack 0 0;
#X obj 161 55 r velocity;
#X floatatom 108 56 5 0 0 0 - - -;
#X floatatom 161 76 5 0 0 0 - - -;
#X floatatom 603 72 5 0 0 0 - - -;
#X floatatom 767 71 5 0 0 0 - - -;
#X obj 606 449 send~ as-resonance;
#X obj 765 384 s~ as-cutoff-local;
#X obj 755 215 send~ as-offset;
#X obj 602 257 send~ as-f;
#X obj 655 150 r fsIn;
#X obj 98 409 bng 15 250 50 0 empty empty empty 17 7 0 10 -262144 -1
-1;
#X obj 159 420 bng 15 250 50 0 empty empty empty 17 7 0 10 -262144
-1 -1;
#X obj 205 430 bng 15 250 50 0 empty empty empty 17 7 0 10 -262144
-1 -1;
#X obj 241 427 bng 15 250 50 0 empty empty empty 17 7 0 10 -262144
-1 -1;
#X floatatom 804 328 5 0 0 0 - - -;
#X floatatom 606 312 5 0 0 0 - - -;
#X obj 603 51 r as_trans;
#X obj 467 142 loadbang;
#X obj 467 163 t b b;
#X msg 467 184 loaded;
#X msg 493 207 \; pd dsp 1;
#X obj 467 239 stdout;
#X obj 86 533 as-simple;
#X obj 196 532 as-simple;
#X obj 296 532 as-simple;
#X obj 402 532 as-simple;
#X obj 237 664 dac~;
#X obj 236 603 *~ 1;
#X obj 473 569 r volume;
#X obj 473 590 / 100;
#X obj 62 126 r aux;
#X obj 62 147 sel 1;
#X obj 236 624 clip~ -1 1;
#X connect 0 0 1 0;
#X connect 1 0 43 0;
#X connect 1 0 55 0;
#X connect 1 1 44 0;
#X connect 1 1 56 0;
#X connect 1 2 45 0;
#X connect 1 2 57 0;
#X connect 1 3 46 0;
#X connect 1 3 58 0;
#X connect 2 0 0 0;
#X connect 2 1 0 1;
#X connect 2 2 0 2;
#X connect 3 0 5 0;
#X connect 3 0 8 0;
#X connect 4 0 2 0;
#X connect 4 1 1 0;
#X connect 5 0 56 1;
#X connect 5 0 55 1;
#X connect 5 0 57 1;
#X connect 5 0 58 1;
#X connect 5 1 7 0;
#X connect 6 0 2 0;
#X connect 7 0 55 1;
#X connect 7 1 56 1;
#X connect 7 2 57 1;
#X connect 7 3 58 1;
#X connect 8 0 9 0;
#X connect 9 0 10 0;
#X connect 10 0 2 0;
#X connect 11 0 12 0;
#X connect 12 0 15 0;
#X connect 13 0 14 0;
#X connect 14 0 15 1;
#X connect 15 0 41 0;
#X connect 16 0 17 0;
#X connect 17 0 11 0;
#X connect 18 0 19 0;
#X connect 19 0 40 0;
#X connect 20 0 18 0;
#X connect 21 0 20 0;
#X connect 22 0 23 0;
#X connect 23 0 38 0;
#X connect 24 0 22 0;
#X connect 25 0 26 0;
#X connect 26 0 39 0;
#X connect 27 0 24 0;
#X connect 28 0 25 0;
#X connect 28 0 47 0;
#X connect 29 0 27 0;
#X connect 29 0 48 0;
#X connect 30 0 21 0;
#X connect 30 0 37 0;
#X connect 31 0 32 0;
#X connect 31 0 34 0;
#X connect 32 0 2 0;
#X connect 33 0 32 1;
#X connect 33 0 35 0;
#X connect 42 0 13 0;
#X connect 49 0 16 0;
#X connect 49 0 36 0;
#X connect 50 0 51 0;
#X connect 51 0 52 0;
#X connect 51 1 53 0;
#X connect 52 0 54 0;
#X connect 55 0 60 0;
#X connect 56 0 60 0;
#X connect 57 0 60 0;
#X connect 58 0 60 0;
#X connect 60 0 65 0;
#X connect 61 0 62 0;
#X connect 62 0 60 1;
#X connect 63 0 64 0;
#X connect 64 0 6 0;
#X connect 65 0 59 0;
#X connect 65 0 59 1;
