#N canvas 876 157 981 628 10;
#X declare -path ./CG-Pd-Library-Local/sequencer;
#X declare -path ./CG-Pd-Library-Local/externals;
#X declare -path ./CG-Pd-Library-Local/metronome;
#X obj 310 66 r notesIn-\$1;
#X obj 255 246 s notesOut-\$1;
#X obj 255 38 r auxIn-\$1;
#X obj 366 202 s aux-label-\$1;
#X obj 674 104 s aux-led-\$1;
#X obj 310 84 list split 2;
#X obj 674 86 r seq3-\$1-led;
#X obj 366 102 r loadbang-\$1;
#X obj 366 148 unpack s 0 0, f 21;
#N canvas 13 50 450 300 CG-PdLibrary-Local 0;
#X obj 60 98 declare -path ./CG-Pd-Library-Local/sequencer;
#X obj 58 130 declare -path ./CG-Pd-Library-Local/externals;
#X obj 59 165 declare -path ./CG-Pd-Library-Local/metronome;
#X restore 674 58 pd CG-PdLibrary-Local;
#N canvas 135 72 1257 583 seq3 0;
#X obj 345 133 inlet aux;
#X obj 462 198 r \$0-reprint-port;
#N canvas 594 50 1231 860 seq3-5option-control 0;
#X obj 139 278 outlet;
#X obj 65 121 t b;
#X msg 65 143 2;
#X obj 298 126 t b;
#X msg 298 148 3;
#X text 437 5 when aux is pressed after recording starts immediatley
end the rec and play the loop;
#X obj 170 70 sel 0;
#X obj 202 94 t b;
#X msg 202 116 1;
#X obj 33 88 sel 0;
#X obj 266 99 sel 0;
#X obj 54 541 sel 1, f 12;
#X obj 135 574 t b, f 4;
#X obj 381 574 t b, f 4;
#X obj 237 563 sel 2 3, f 12;
#X obj 1085 372 t b, f 4;
#X msg 1085 417 Latch:Off;
#X msg 1004 417 Latch:On;
#X text 248 513 print to the shortcut menu;
#X obj 378 141 f 0;
#X msg 130 22 4;
#X obj 373 105 r midi-stop;
#X obj 507 125 t b;
#X obj 475 98 sel 0;
#X msg 507 147 5;
#X obj 542 574 t b, f 4;
#X obj 461 550 sel 5, f 12;
#X obj 54 620 f;
#X msg 54 650 \$1Seq:Stop;
#X obj 135 619 f;
#X msg 135 649 \$1Seq:Play;
#X msg 237 633 \$1Rec:Armd;
#X msg 312 631 \$1Rec:On;
#X msg 381 635 \$1Rec:Off;
#X obj 237 608 f;
#X obj 312 607 f;
#X obj 381 607 f;
#X obj 542 596 f;
#X obj 461 602 f;
#X msg 461 649 \$1Dub:On;
#X obj 193 366 + 1;
#X obj 559 76 sel 1;
#X obj 559 174 t b b;
#X msg 640 152 0;
#X obj 559 152 spigot 0;
#X msg 612 129 1;
#X msg 559 196 1;
#X obj 1004 348 sel 4, f 12;
#X obj 358 53 t b;
#X obj 326 26 sel 0;
#X msg 358 75 6;
#X obj 740 623 f;
#X obj 612 104 sel 3, f 12;
#X msg 542 649 \$1Dub:Off;
#X obj 698 566 sel 6, f 10;
#X obj 765 591 t b;
#X obj 698 690 spigot 1;
#X obj 785 687 spigot 0;
#X obj 908 597 sel 3;
#X obj 825 641 ==;
#X obj 895 658 f;
#X msg 908 622 1;
#X msg 851 573 0;
#X msg 785 712 \$1:Undo;
#X msg 698 715 \$1:Undid;
#X obj 698 588 t b b;
#X msg 31 211 0;
#X obj 31 189 r loadbang-\$1;
#X obj 33 66 r cgSc-\$1-2;
#X obj 171 48 r cgSc-\$1-1;
#X obj 267 72 r cgSc-\$1-5;
#X obj 326 2 r cgSc-\$1-4;
#X obj 475 71 r cgSc-\$1-3;
#X obj 559 52 r cgSc-\$1-aux;
#X obj 612 80 r seq3-\$1-actions;
#X obj 237 542 r seq3-\$1-actions;
#X obj 1004 327 r seq3-\$1-actions;
#X obj 1004 460 s cgSc-\$1-5label;
#X obj 237 675 s cgSc-\$1-2label;
#X obj 54 692 s cgSc-\$1-1label;
#X obj 860 96 s cgSc-\$1-slots;
#X obj 193 343 r cgSc-\$1-slots;
#X obj 54 519 r seq3-\$1-actions;
#X obj 461 692 s cgSc-\$1-3label;
#X obj 698 748 s cgSc-\$1-4label;
#X obj 908 575 r seq3-\$1-actions;
#X obj 860 74 r init-\$1-slot;
#X obj 461 529 r seq3-\$1-actions;
#X obj 698 545 r seq3-\$1-actions;
#X obj 192 520 t f f;
#X obj 395 533 t f f f;
#X obj 590 549 t f f;
#X obj 193 386 t f f f f, f 107;
#X obj 130 4 r start;
#X connect 1 0 2 0;
#X connect 2 0 0 0;
#X connect 3 0 4 0;
#X connect 4 0 0 0;
#X connect 6 1 7 0;
#X connect 7 0 8 0;
#X connect 8 0 0 0;
#X connect 9 1 1 0;
#X connect 10 1 3 0;
#X connect 11 0 27 0;
#X connect 11 1 12 0;
#X connect 12 0 29 0;
#X connect 13 0 36 0;
#X connect 14 0 34 0;
#X connect 14 1 35 0;
#X connect 14 2 13 0;
#X connect 15 0 16 0;
#X connect 16 0 77 0;
#X connect 17 0 77 0;
#X connect 19 0 0 0;
#X connect 20 0 0 0;
#X connect 21 0 19 0;
#X connect 22 0 24 0;
#X connect 23 1 22 0;
#X connect 24 0 0 0;
#X connect 25 0 37 0;
#X connect 26 0 38 0;
#X connect 26 1 25 0;
#X connect 27 0 28 0;
#X connect 28 0 79 0;
#X connect 29 0 30 0;
#X connect 30 0 79 0;
#X connect 31 0 78 0;
#X connect 32 0 78 0;
#X connect 33 0 78 0;
#X connect 34 0 31 0;
#X connect 35 0 32 0;
#X connect 36 0 33 0;
#X connect 37 0 53 0;
#X connect 38 0 39 0;
#X connect 39 0 83 0;
#X connect 40 0 92 0;
#X connect 41 0 44 0;
#X connect 42 0 46 0;
#X connect 42 1 43 0;
#X connect 43 0 44 1;
#X connect 44 0 42 0;
#X connect 45 0 44 1;
#X connect 46 0 0 0;
#X connect 47 0 17 0;
#X connect 47 1 15 0;
#X connect 48 0 50 0;
#X connect 49 1 48 0;
#X connect 50 0 0 0;
#X connect 51 0 56 0;
#X connect 51 0 57 0;
#X connect 52 0 45 0;
#X connect 53 0 83 0;
#X connect 54 0 65 0;
#X connect 54 1 55 0;
#X connect 55 0 51 0;
#X connect 56 0 64 0;
#X connect 57 0 63 0;
#X connect 58 0 61 0;
#X connect 59 0 56 1;
#X connect 60 0 59 0;
#X connect 60 0 57 1;
#X connect 61 0 60 0;
#X connect 62 0 60 0;
#X connect 63 0 84 0;
#X connect 64 0 84 0;
#X connect 65 0 51 0;
#X connect 65 1 62 0;
#X connect 66 0 0 0;
#X connect 67 0 66 0;
#X connect 68 0 9 0;
#X connect 69 0 6 0;
#X connect 70 0 10 0;
#X connect 71 0 49 0;
#X connect 72 0 23 0;
#X connect 73 0 41 0;
#X connect 74 0 52 0;
#X connect 75 0 14 0;
#X connect 76 0 47 0;
#X connect 81 0 40 0;
#X connect 82 0 11 0;
#X connect 85 0 58 0;
#X connect 86 0 80 0;
#X connect 87 0 26 0;
#X connect 88 0 54 0;
#X connect 89 0 27 0;
#X connect 89 1 29 0;
#X connect 90 0 34 0;
#X connect 90 1 35 0;
#X connect 90 2 36 0;
#X connect 91 0 38 0;
#X connect 91 1 37 0;
#X connect 92 0 89 0;
#X connect 92 1 90 0;
#X connect 92 2 91 0;
#X connect 92 3 51 0;
#X connect 93 0 20 0;
#X restore 382 252 pd seq3-5option-control;
#N canvas 441 356 860 595 slot-saver-1 0;
#X obj 200 105 t b b;
#X msg 200 216 0;
#X obj 200 237 tabread \$0-slot;
#X obj 200 258 s cgSc-\$1-slots;
#X obj 388 19 r cgSc-\$1-slots;
#X obj 388 40 t a b;
#X obj 388 91 tabwrite \$0-slot;
#X msg 437 64 0;
#X obj 391 328 array define \$0-slot;
#X obj 598 140 list, f 7;
#X msg 598 117 69;
#X obj 598 161 route 69;
#X obj 637 116 r \$1-lokal-path;
#X obj 598 29 r saveState;
#X obj 684 27 r rackSavePreset;
#X obj 598 92 t b;
#X msg 404 297 write \$1/presets/\$2/\$3-slot-tracker.txt;
#X obj 598 184 list;
#X msg 391 267 read \$1/presets/\$2/\$3-slot-tracker.txt;
#X obj 391 194 list, f 7;
#X msg 391 171 69;
#X obj 391 215 route 69;
#X obj 430 170 r \$1-lokal-path;
#X obj 391 236 list;
#N canvas 100 596 803 448 presetDir 0;
#X obj 88 153 s rackMsgs;
#X obj 88 106 symbol \$1;
#X obj 87 181 r rackCurrentPreset;
#X obj 102 203 r rackCurrentPreset-\$1;
#X obj 87 225 symbol \$1;
#X obj 442 163 s rackMsgs;
#X obj 442 113 symbol \$1;
#X obj 159 24 r loadbang-\$1;
#X obj 442 186 r rackDataDir;
#X obj 535 189 r rackDataDir-\$1;
#X msg 442 138 getsetting dataDir ./data rackDataDir-\$1;
#X obj 441 219 symbol \$1;
#X obj 179 348 pack s s s;
#X obj 255 210 symbol \$1;
#X obj 159 50 t b b b, f 27;
#X obj 114 293 t b b s;
#X obj 255 232 t b s;
#X obj 111 387 outlet;
#X obj 179 387 outlet;
#X text 35 -1 track preset directory and bang on change;
#X obj 298 27 bng 15 250 50 0 empty empty empty 17 7 0 10 -262144 -1
-1;
#X obj 446 70 bng 15 250 50 0 empty empty empty 17 7 0 10 -262144 -1
-1;
#X obj 418 32 r rackSavePreset;
#X msg 88 128 getsetting currentPreset Default rackCurrentPreset-\$1
;
#X connect 1 0 23 0;
#X connect 2 0 4 0;
#X connect 3 0 4 0;
#X connect 4 0 15 0;
#X connect 6 0 10 0;
#X connect 7 0 14 0;
#X connect 8 0 11 0;
#X connect 9 0 11 0;
#X connect 10 0 5 0;
#X connect 11 0 12 0;
#X connect 12 0 18 0;
#X connect 13 0 16 0;
#X connect 14 0 1 0;
#X connect 14 1 13 0;
#X connect 14 2 6 0;
#X connect 15 0 17 0;
#X connect 15 1 12 0;
#X connect 15 2 12 1;
#X connect 16 0 12 0;
#X connect 16 1 12 2;
#X connect 20 0 14 0;
#X connect 22 0 21 0;
#X connect 22 0 14 0;
#X connect 23 0 0 0;
#X restore 222 17 pd presetDir;
#X obj 291 44 s \$1-lokal-path;
#X obj 673 90 delay 250;
#X obj 673 67 t b;
#X obj 716 52 r rackNewPreset;
#X connect 0 0 1 0;
#X connect 0 1 20 0;
#X connect 1 0 2 0;
#X connect 2 0 3 0;
#X connect 4 0 5 0;
#X connect 5 0 6 0;
#X connect 5 1 7 0;
#X connect 7 0 6 1;
#X connect 9 0 11 0;
#X connect 10 0 9 0;
#X connect 11 0 17 0;
#X connect 12 0 9 1;
#X connect 13 0 15 0;
#X connect 14 0 27 0;
#X connect 15 0 10 0;
#X connect 16 0 8 0;
#X connect 17 0 16 0;
#X connect 18 0 8 0;
#X connect 19 0 21 0;
#X connect 20 0 19 0;
#X connect 21 0 23 0;
#X connect 22 0 19 1;
#X connect 23 0 18 0;
#X connect 24 0 0 0;
#X connect 24 1 25 0;
#X connect 26 0 10 0;
#X connect 27 0 26 0;
#X connect 28 0 27 0;
#X restore 813 249 pd slot-saver-1;
#N canvas 41 155 961 771 metro-here 0;
#X obj 549 508 f;
#X msg 696 393 0;
#X obj 765 393 t b b;
#X msg 792 423 1;
#X obj 430 566 list, f 7;
#X obj 430 588 route 69;
#X obj 430 502 t b a;
#X msg 430 536 69;
#X obj 430 444 pack, f 10;
#X obj 460 402 t b a;
#X obj 696 471 f;
#X obj 430 610 spigot 1;
#X obj 549 530 spigot 1, f 25;
#X obj 823 601 + 1;
#X obj 783 662 f;
#X obj 737 539 t b b;
#X obj 549 651 f;
#X obj 823 575 r cgSc-\$1-slots;
#X obj 562 479 r seq3-\$1-actions;
#X obj 430 695 print-line5 \$1, f 54;
#X obj 696 342 r cgSc-\$1-mute-print;
#X msg 308 347 0;
#X obj 696 365 sel 1, f 12;
#X obj 308 319 t b b;
#X obj 460 377 f;
#X obj 804 171 inlet;
#X obj 737 518 del 1;
#X obj 308 289 del 2;
#X obj 549 455 del 3;
#X obj 430 716 outlet;
#X obj 460 346 r bpm;
#X obj 56 288 s beat-clock-\$1;
#X obj 226 255 clockfix;
#X obj 112 220 r beat-clock;
#X obj 209 278 i, f 1;
#X obj 114 115 r master-ticks;
#X obj 114 185 spigot 1;
#X obj 136 136 r start;
#X msg 225 170 0;
#X obj 134 157 r reset;
#X msg 188 171 1;
#X obj 564 156 spigot 1;
#X floatatom 198 341 5 0 0 0 - - -;
#X msg 262 221 345;
#X connect 0 0 12 0;
#X connect 1 0 10 0;
#X connect 2 0 28 0;
#X connect 2 1 3 0;
#X connect 3 0 10 0;
#X connect 4 0 5 0;
#X connect 5 0 11 0;
#X connect 6 0 7 0;
#X connect 6 1 4 1;
#X connect 7 0 4 0;
#X connect 8 0 6 0;
#X connect 9 0 8 0;
#X connect 9 1 8 1;
#X connect 10 0 11 1;
#X connect 10 0 12 1;
#X connect 11 0 19 0;
#X connect 12 0 16 0;
#X connect 13 0 14 0;
#X connect 14 0 19 2;
#X connect 15 0 16 0;
#X connect 15 1 14 0;
#X connect 16 0 19 1;
#X connect 17 0 13 0;
#X connect 18 0 0 0;
#X connect 19 0 29 0;
#X connect 20 0 22 0;
#X connect 21 0 8 0;
#X connect 22 0 1 0;
#X connect 22 1 2 0;
#X connect 23 0 21 0;
#X connect 23 1 24 0;
#X connect 24 0 9 0;
#X connect 25 0 26 0;
#X connect 25 0 27 0;
#X connect 25 0 28 0;
#X connect 26 0 15 0;
#X connect 27 0 23 0;
#X connect 28 0 0 0;
#X connect 28 0 7 0;
#X connect 30 0 24 0;
#X connect 32 0 34 0;
#X connect 33 0 32 0;
#X connect 34 0 42 0;
#X connect 35 0 36 0;
#X connect 36 0 31 0;
#X connect 37 0 41 0;
#X connect 38 0 36 1;
#X connect 39 0 40 0;
#X connect 40 0 36 1;
#X connect 41 0 38 0;
#X connect 41 0 23 0;
#X connect 41 0 0 0;
#X connect 41 0 15 0;
#X connect 42 0 31 0;
#X connect 43 0 32 0;
#X restore 813 135 pd metro-here;
#X obj 345 395 outlet notes;
#X obj 345 229 shortcut \$1 0, f 20;
#X obj 419 273 r cgSc-\$1-slots;
#X obj 813 106 inlet;
#X obj 813 156 outlet;
#X obj 345 322 seq3 \$1 1 ../../sequences \$1 0, f 19;
#X obj 441 126 inlet notes;
#X obj 456 295 r beat-clock-\$1;
#X obj 456 362 outlet;
#X connect 0 0 6 0;
#X connect 1 0 6 2;
#X connect 2 0 10 1;
#X connect 4 0 9 0;
#X connect 6 0 10 0;
#X connect 7 0 10 2;
#X connect 8 0 4 0;
#X connect 10 0 5 0;
#X connect 10 1 13 0;
#X connect 11 0 6 1;
#X connect 12 0 10 3;
#X restore 255 131 pd seq3 - - - - - -;
#X obj 255 228 list append 0;
#X obj 650 209 r metronome-\$1;
#X obj 591 55 sel \$1, f 9;
#X obj 591 27 unpack s s;
#X obj 591 9 r activePage;
#X msg 591 73 1;
#X msg 642 84 0;
#X obj 591 98 change;
#X obj 591 116 sel 1;
#X obj 518 575 s oscOut;
#X obj 533 441 * 128;
#X obj 533 459 int;
#X obj 518 511 f;
#X obj 501 320 metro 50;
#X msg 426 529 /oled/gFlip 3;
#X obj 501 69 delay 500;
#X obj 366 166 pack s 0 s, f 22;
#X msg 518 529 /oled/gInvertArea 3 0 33 \$1 3;
#X obj 501 338 t b b b b;
#X msg 706 529 /oled/gFillArea 3 0 30 128 9 0;
#X msg 621 144 stop;
#X text 193 290 implement selectable MIDI out \, and AUDIO input;
#X obj 650 231 / 100;
#X obj 650 367 s rackMsgs;
#X obj 650 253 t b f;
#X obj 650 313 pack s 2;
#X msg 650 343 setparam \$1 metronome \$2;
#X obj 650 279 symbol s2;
#X obj 426 13 notein;
#X obj 426 48 midisel3;
#X obj 481 14 r midiCh;
#X obj 426 69 spigot 0;
#X obj 36 407 inlet~ inL-\$1;
#X obj 131 408 inlet~ inR-\$1;
#X obj 39 566 outlet~ outL-\$1;
#X obj 149 566 outlet~ outR-\$1;
#X obj 38 454 r expIn-\$1;
#X obj 38 479 r fsIn-\$1;
#X obj 39 510 r ctrlIn-\$1;
#X obj 39 536 s ctrlOut-\$1;
#X msg 366 184 \$3∆ Clip \$2∆ \$1;
#X connect 0 0 5 0;
#X connect 2 0 10 0;
#X connect 5 0 10 1;
#X connect 6 0 4 0;
#X connect 7 0 10 2;
#X connect 8 0 27 0;
#X connect 8 1 27 1;
#X connect 10 0 11 0;
#X connect 10 1 21 0;
#X connect 10 2 8 0;
#X connect 11 0 1 0;
#X connect 12 0 33 0;
#X connect 13 0 16 0;
#X connect 13 0 26 0;
#X connect 13 1 17 0;
#X connect 13 1 31 0;
#X connect 14 0 13 0;
#X connect 14 0 27 2;
#X connect 15 0 14 0;
#X connect 16 0 18 0;
#X connect 17 0 18 0;
#X connect 18 0 19 0;
#X connect 18 0 42 1;
#X connect 19 0 10 2;
#X connect 21 0 22 0;
#X connect 22 0 23 1;
#X connect 23 0 28 0;
#X connect 24 0 29 0;
#X connect 25 0 20 0;
#X connect 26 0 24 0;
#X connect 27 0 51 0;
#X connect 28 0 20 0;
#X connect 29 0 25 0;
#X connect 29 1 23 0;
#X connect 29 3 30 0;
#X connect 30 0 20 0;
#X connect 31 0 26 0;
#X connect 31 0 24 0;
#X connect 33 0 35 0;
#X connect 35 0 38 0;
#X connect 35 1 36 1;
#X connect 36 0 37 0;
#X connect 37 0 34 0;
#X connect 38 0 36 0;
#X connect 39 0 40 0;
#X connect 39 1 40 1;
#X connect 39 2 40 2;
#X connect 40 0 42 0;
#X connect 41 0 40 3;
#X connect 49 0 50 0;
#X connect 51 0 3 0;
