#N canvas 24 114 1316 846 10;
#X obj 16 148 line~;
#X obj 20 194 tabread4~ granu;
#N canvas 904 96 908 864 fader 0;
#X obj 71 262 inlet~;
#X obj 69 562 *~;
#X obj 69 607 outlet~;
#X obj 143 158 inlet;
#X obj 124 562 *~;
#X obj 124 607 outlet~;
#X obj 69 452 *~;
#X obj 117 332 delay 15;
#X msg 118 363 0 100;
#X obj 236 280 r grain_size;
#X obj 69 452 *~;
#X obj 236 319 + 20;
#X obj 229 596 line~;
#X msg 227 568 \$1 15;
#X obj 284 596 line~;
#X msg 282 568 \$1 15;
#X obj 228 427 random 127;
#X obj 228 447 / 127;
#X obj 235 386 bng 15 250 50 0 empty empty empty 17 7 0 10 -262144
-1 -1;
#X obj 195 513 -;
#X msg 193 476 1;
#X obj 228 466 t b f;
#X floatatom 195 532 5 0 0 0 - - -;
#X obj 347 384 r stereo;
#X obj 336 422 random 127;
#X obj 332 451 / 127;
#X obj 299 517 -;
#X msg 297 480 1;
#X obj 332 470 t b f;
#X floatatom 299 536 5 0 0 0 - - -;
#X obj 134 209 delay 15;
#X obj 143 178 t b b b b, f 48;
#X msg 237 230 0 20;
#X msg 195 226 1 35;
#X obj 194 205 delay 20;
#X obj 118 409 line~, f 6;
#X msg 269 396 seed \$1;
#X msg 437 422 seed \$1;
#X msg 437 464 seed 0;
#X obj 545 381 t f f, f 22;
#X obj 545 426 + 100;
#X obj 806 185 inlet;
#X obj 437 443 cyclone/prepend set;
#X connect 0 0 6 0;
#X connect 1 0 2 0;
#X connect 3 0 31 0;
#X connect 4 0 5 0;
#X connect 6 0 1 0;
#X connect 6 0 4 0;
#X connect 7 0 8 0;
#X connect 8 0 35 0;
#X connect 9 0 11 0;
#X connect 11 0 7 1;
#X connect 12 0 1 1;
#X connect 13 0 12 0;
#X connect 14 0 4 1;
#X connect 15 0 14 0;
#X connect 16 0 17 0;
#X connect 17 0 21 0;
#X connect 18 0 16 0;
#X connect 18 0 24 0;
#X connect 19 0 22 0;
#X connect 20 0 19 0;
#X connect 21 0 20 0;
#X connect 21 1 19 1;
#X connect 22 0 13 0;
#X connect 23 0 16 1;
#X connect 23 0 24 1;
#X connect 24 0 25 0;
#X connect 25 0 28 0;
#X connect 26 0 29 0;
#X connect 27 0 26 0;
#X connect 28 0 27 0;
#X connect 28 1 26 1;
#X connect 29 0 15 0;
#X connect 30 0 7 0;
#X connect 31 0 30 0;
#X connect 31 1 34 0;
#X connect 31 2 32 0;
#X connect 31 3 18 0;
#X connect 32 0 35 0;
#X connect 33 0 35 0;
#X connect 34 0 33 0;
#X connect 35 0 6 1;
#X connect 36 0 16 0;
#X connect 37 0 24 0;
#X connect 37 0 42 0;
#X connect 39 0 40 0;
#X connect 39 1 37 0;
#X connect 40 0 36 0;
#X connect 41 0 39 0;
#X connect 42 0 38 0;
#X restore 14 246 pd fader;
#X f 44;
#X obj 16 8 inlet;
#X obj 14 317 outlet~;
#X obj 275 321 outlet~;
#X obj 16 109 t anything b;
#X obj 93 13 loadbang;
#X obj 16 82 route;
#X obj 179 17 bng 15 250 50 0 empty empty empty 17 7 0 10 -262144 -1
-1;
#X obj 93 34 float \$1;
#X obj 14 269 clip~ -0.8 0.8;
#X obj 276 281 clip~ -0.8 0.8;
#X connect 0 0 1 0;
#X connect 1 0 2 0;
#X connect 2 0 11 0;
#X connect 2 1 12 0;
#X connect 3 0 8 0;
#X connect 6 0 0 0;
#X connect 6 1 2 1;
#X connect 7 0 10 0;
#X connect 8 0 6 0;
#X connect 9 0 10 0;
#X connect 10 0 8 1;
#X connect 10 0 2 2;
#X connect 11 0 4 0;
#X connect 12 0 5 0;
