#N canvas 260 53 1656 998 10;
#N canvas 120 218 816 576 array 0;
#N canvas 0 50 450 250 (subpatch) 0;
#X array granu 441000 float 2;
#X coords 0 1 441000 -1 200 140 1 0 0;
#X restore 19 20 graph;
#X obj 241 30 inlet~;
#X obj 314 32 inlet;
#X obj 242 114 tabwrite~ granu;
#X connect 1 0 3 0;
#X connect 2 0 3 0;
#X restore 25 413 pd array;
#X f 33;
#N canvas 366 171 1277 824 fade 0;
#X obj 14 50 inlet~;
#X obj 14 386 *~;
#X obj 14 417 outlet~;
#X obj 94 50 inlet~;
#X obj 94 386 *~;
#X obj 94 417 outlet~;
#X obj 165 4 inlet;
#X msg 166 241 0 15;
#X msg 213 241 1 50;
#X obj 165 24 t b b, f 32;
#X msg 166 45 1;
#X floatatom 166 195 20 0 0 0 - - -;
#X msg 354 123 goto 0;
#X obj 166 124 metro 50;
#X obj 166 214 sel 1 2, f 18;
#X obj 166 351 line~;
#X obj 271 261 sel 1;
#X obj 271 241 > 180;
#X obj 271 280 t b b, f 10;
#X msg 329 305 0;
#X obj 330 332 s granu_rec_metro;
#X obj 166 64 s granu_rec_metro;
#X obj 166 89 r granu_rec_metro;
#X msg 271 331 0 20;
#X obj 166 150 cyclone/counter, f 35;
#X obj 465 197 tgl 15 0 empty empty empty 17 7 0 10 -262144 -1 -1 0
1;
#X obj 465 235 s led;
#X obj 530 104 r granu_rec_metro;
#X msg 530 151 0;
#X obj 530 174 pipe 100;
#X obj 536 259 s lfo_pause;
#X msg 535 236 1;
#X obj 530 197 sel 0;
#X obj 530 127 sel 0;
#X connect 0 0 1 0;
#X connect 1 0 2 0;
#X connect 3 0 4 0;
#X connect 4 0 5 0;
#X connect 6 0 9 0;
#X connect 7 0 15 0;
#X connect 8 0 15 0;
#X connect 9 0 10 0;
#X connect 9 1 12 0;
#X connect 10 0 21 0;
#X connect 11 0 14 0;
#X connect 12 0 24 0;
#X connect 13 0 24 0;
#X connect 13 0 25 0;
#X connect 14 0 7 0;
#X connect 14 1 8 0;
#X connect 14 2 17 0;
#X connect 15 0 1 1;
#X connect 15 0 4 1;
#X connect 16 0 18 0;
#X connect 17 0 16 0;
#X connect 18 0 23 0;
#X connect 18 1 19 0;
#X connect 19 0 20 0;
#X connect 22 0 13 0;
#X connect 23 0 15 0;
#X connect 24 0 11 0;
#X connect 25 0 26 0;
#X connect 27 0 33 0;
#X connect 28 0 29 0;
#X connect 29 0 25 0;
#X connect 29 0 32 0;
#X connect 31 0 30 0;
#X connect 32 0 31 0;
#X connect 33 0 28 0;
#X restore 25 327 pd fade;
#X f 27;
#X obj 378 32 r aux;
#X obj 378 81 tgl 15 0 empty empty empty 17 7 0 10 -262144 -1 -1 0
1;
#X obj 378 102 sel 1;
#X obj 268 244 s start_rec;
#X obj 184 296 r start_rec;
#X obj 219 383 r start_rec;
#X obj 802 53 * 127;
#X obj 558 221 hsl 128 15 0 127 0 0 empty empty empty -2 -8 0 10 -262144
-1 -1 708 1;
#X obj 555 258 t f f, f 12;
#X obj 555 378 metro, f 12;
#X obj 555 278 < 1900;
#X obj 555 337 tgl 15 0 empty empty empty 17 7 0 10 -262144 -1 -1 1
1;
#X obj 802 113 s trig_speed;
#X obj 555 191 r trig_speed;
#X obj 946 53 * 127;
#X obj 946 117 s start_point;
#X obj 1252 51 * 127;
#X obj 1253 192 s grain_size;
#X obj 641 294 r start_point;
#X obj 1108 52 * 127;
#X obj 1108 112 s start_fine;
#X msg 555 422 trig;
#X obj 555 538 route list;
#X obj 556 561 route trig;
#X obj 776 294 r start_fine;
#X obj 641 371 +;
#X floatatom 641 391 20 0 0 0 - - -;
#X obj 952 342 t b f;
#X obj 954 375 +;
#X obj 776 333 t b f f;
#X obj 554 479 pack s f f, f 33;
#X obj 663 659 unpack f f;
#X obj 556 647 unpack f f;
#X obj 553 828 pack f f f, f 20;
#X obj 662 704 -;
#X obj 663 679 swap;
#X floatatom 662 724 5 0 0 0 - - -;
#X obj 554 596 t anything anything;
#X obj 581 765 +;
#X obj 553 901 unpack f f f, f 25;
#X floatatom 703 930 10 0 0 0 - - -;
#X floatatom 628 1006 10 0 0 0 - - -;
#X obj 951 248 r grain_size;
#X obj 628 1069 pack 0 0;
#X msg 596 1115 399796 4504.48;
#X obj 552 1063 t b f;
#X obj 703 1000 / 44.1;
#X obj 555 297 change;
#X obj 434 926 random 10;
#X obj 391 871 r grain_spray;
#X obj 689 141 hsl 128 15 0 127 0 0 empty empty empty -2 -8 0 10 -262144
-1 -1 0 1;
#X obj 689 170 s grain_spray;
#X obj 805 75 hsl 128 15 0 127 0 0 empty empty empty -2 -8 0 10 -262144
-1 -1 0 1;
#X obj 946 72 hsl 128 15 0 127 0 0 empty empty empty -2 -8 0 10 -262144
-1 -1 0 1;
#X obj 1108 71 hsl 128 15 0 127 0 0 empty empty empty -2 -8 0 10 -262144
-1 -1 0 1;
#X obj 1252 79 hsl 128 15 0 127 0 0 empty empty empty -2 -8 0 10 -262144
-1 -1 0 1;
#X obj 553 950 +;
#X obj 634 948 +;
#X obj 434 945 t f f;
#X obj 863 172 s stereo;
#X obj 862 145 hsl 128 15 0 127 0 0 empty empty empty -2 -8 0 10 -262144
-1 -1 0 1;
#X obj 555 397 t b b b;
#N canvas 379 53 1537 998 voices 0;
#X obj 15 33 inlet;
#X obj 24 817 outlet~;
#X obj 104 817 outlet~;
#X obj 23 71 t anything b;
#X obj 129 38 bng 15 250 50 0 empty empty empty 17 7 0 10 -262144 -1
-1;
#X floatatom 132 210 5 0 0 0 - - -;
#X obj 106 103 tgl 15 0 empty empty empty 17 7 0 10 -262144 -1 -1 0
1;
#X obj 106 120 sel 1;
#X msg 132 228 set \$1;
#X obj 135 170 + 1;
#X obj 107 445 grainkriss 2;
#X obj 192 445 grainkriss 3;
#X obj 277 445 grainkriss 4;
#X obj 367 445 grainkriss 5;
#X obj 452 445 grainkriss 6;
#X obj 537 445 grainkriss 7;
#X obj 622 445 grainkriss 8;
#X obj 22 445 grainkriss 1;
#X obj 724 446 grainkriss 9;
#X obj 809 446 grainkriss 10;
#X obj 895 446 grainkriss 11;
#X obj 979 446 grainkriss 12;
#X obj 1069 446 grainkriss 13;
#X obj 1154 446 grainkriss 14;
#X obj 1239 446 grainkriss 15;
#X obj 1324 446 grainkriss 16;
#X obj 428 332 grainkriss 17;
#X obj 513 332 grainkriss 18;
#X obj 598 332 grainkriss 19;
#X obj 683 332 grainkriss 20;
#X obj 773 332 grainkriss 21;
#X obj 858 332 grainkriss 22;
#X obj 943 332 grainkriss 23;
#X obj 1028 332 grainkriss 24;
#X obj 1130 333 grainkriss 25;
#X obj 1215 333 grainkriss 26;
#X obj 1301 333 grainkriss 27;
#X obj 1385 333 grainkriss 28;
#X obj 1476 333 grainkriss 29;
#X obj 1560 332 grainkriss 30;
#X obj 1645 333 grainkriss 31;
#X obj 1730 333 grainkriss 32;
#X obj 80 292 cyclone/prepend;
#X obj 135 150 cyclone/counter 31;
#X connect 0 0 3 0;
#X connect 3 0 42 0;
#X connect 3 1 6 0;
#X connect 4 0 43 0;
#X connect 5 0 8 0;
#X connect 6 0 7 0;
#X connect 7 0 43 0;
#X connect 8 0 42 0;
#X connect 9 0 5 0;
#X connect 10 0 1 0;
#X connect 10 1 2 0;
#X connect 11 0 1 0;
#X connect 11 1 2 0;
#X connect 12 0 1 0;
#X connect 12 1 2 0;
#X connect 13 0 1 0;
#X connect 13 1 2 0;
#X connect 14 0 1 0;
#X connect 14 1 2 0;
#X connect 15 0 1 0;
#X connect 15 1 2 0;
#X connect 16 0 1 0;
#X connect 16 1 2 0;
#X connect 17 0 1 0;
#X connect 17 1 2 0;
#X connect 18 0 1 0;
#X connect 18 1 2 0;
#X connect 19 0 1 0;
#X connect 19 1 2 0;
#X connect 20 0 1 0;
#X connect 20 1 2 0;
#X connect 21 0 1 0;
#X connect 21 1 2 0;
#X connect 22 0 1 0;
#X connect 22 1 2 0;
#X connect 23 0 1 0;
#X connect 23 1 2 0;
#X connect 24 0 1 0;
#X connect 24 1 2 0;
#X connect 25 0 1 0;
#X connect 25 1 2 0;
#X connect 26 0 1 0;
#X connect 26 1 2 0;
#X connect 27 0 1 0;
#X connect 27 1 2 0;
#X connect 28 0 1 0;
#X connect 28 1 2 0;
#X connect 29 0 1 0;
#X connect 29 1 2 0;
#X connect 30 0 1 0;
#X connect 30 1 2 0;
#X connect 31 0 1 0;
#X connect 31 1 2 0;
#X connect 32 0 1 0;
#X connect 32 1 2 0;
#X connect 33 0 1 0;
#X connect 33 1 2 0;
#X connect 34 0 1 0;
#X connect 34 1 2 0;
#X connect 35 0 1 0;
#X connect 35 1 2 0;
#X connect 36 0 1 0;
#X connect 36 1 2 0;
#X connect 37 0 1 0;
#X connect 37 1 2 0;
#X connect 38 0 1 0;
#X connect 38 1 2 0;
#X connect 39 0 1 0;
#X connect 39 1 2 0;
#X connect 40 0 1 0;
#X connect 40 1 2 0;
#X connect 41 0 1 0;
#X connect 41 1 2 0;
#X connect 42 0 10 0;
#X connect 42 0 11 0;
#X connect 42 0 12 0;
#X connect 42 0 13 0;
#X connect 42 0 14 0;
#X connect 42 0 15 0;
#X connect 42 0 16 0;
#X connect 42 0 17 0;
#X connect 42 0 18 0;
#X connect 42 0 25 0;
#X connect 42 0 24 0;
#X connect 42 0 23 0;
#X connect 42 0 22 0;
#X connect 42 0 21 0;
#X connect 42 0 20 0;
#X connect 42 0 19 0;
#X connect 42 0 26 0;
#X connect 42 0 27 0;
#X connect 42 0 28 0;
#X connect 42 0 29 0;
#X connect 42 0 30 0;
#X connect 42 0 31 0;
#X connect 42 0 32 0;
#X connect 42 0 33 0;
#X connect 42 0 34 0;
#X connect 42 0 35 0;
#X connect 42 0 36 0;
#X connect 42 0 37 0;
#X connect 42 0 38 0;
#X connect 42 0 39 0;
#X connect 42 0 40 0;
#X connect 42 0 41 0;
#X connect 43 0 9 0;
#X restore 553 1155 pd voices;
#X msg 906 630 1;
#X msg 963 637 2;
#X msg 1003 644 4;
#X floatatom 710 1065 10 0 0 0 - - -;
#X obj 789 1029 * 44.1;
#X msg 858 619 0.5;
#X msg 807 614 0.25;
#X obj 807 571 sel 72 74 76 77 79 81 83, f 43;
#X msg 1060 647 8;
#X msg 1110 653 16;
#X obj 952 323 * 1;
#X obj 1053 217 r fromnotes;
#X obj 849 864 s fromnotes;
#X obj 1053 279 t b f;
#X floatatom 1053 394 5 0 0 0 - - -;
#X obj 1249 99 / 2;
#X obj 943 92 / 2;
#X obj 26 290 inlet~;
#X obj 105 293 inlet~;
#X obj 508 1509 outlet~;
#X obj 647 1512 outlet~;
#X obj 807 546 r granunotes;
#X obj 552 1328 bob~;
#X obj 731 1155 sig~;
#X obj 731 1179 +~;
#X obj 731 1131 r grain_cutoff;
#X obj 604 1339 bob~;
#X floatatom 846 1210 5 0 200 0 - - -;
#X obj 846 1234 / 25;
#X text 894 1230 scaled to 0-8;
#X text 893 1212 0-200 control;
#X obj 846 1161 loadbang;
#X msg 846 1186 10;
#X obj 845 1262 line~;
#X obj 943 1143 r grain_q;
#X obj 509 1370 clip~ -0.5 0.5;
#X obj 604 1360 clip~ -0.5 0.5;
#X obj 628 1089 cyclone/prepend set;
#X obj 506 1447 hip~ 20;
#X obj 645 1469 hip~ 20;
#X obj 555 239 cyclone/scale 0 127 5 2000 2.5;
#X obj 641 322 cyclone/scale 0 127 0 418500;
#X obj 776 314 cyclone/scale 0 127 0 22500;
#X obj 1054 238 cyclone/scale 0 1 0 1 8;
#X obj 1249 127 cyclone/scale 0 127 1 200 2.5;
#X obj 391 891 cyclone/scale 0 127 10 44100;
#X obj 266 56 > 60;
#X obj 266 109 + 1;
#X obj 266 87 tgl 15 0 empty empty empty 17 7 0 10 -262144 -1 -1 0
1;
#X obj 266 33 r slow_transition;
#X obj 300 217 s start_rec_slow;
#X floatatom 266 132 5 0 0 0 - - -;
#X obj 282 298 r slow_rec;
#X obj 299 383 r slow_rec;
#X obj 594 1201 r start_rec_slow;
#N canvas 572 220 1277 824 fade_when_slow 0;
#X obj 14 180 inlet~;
#X obj 14 689 *~;
#X obj 14 720 outlet~;
#X obj 94 180 inlet~;
#X obj 94 689 *~;
#X obj 94 720 outlet~;
#X obj 236 6 inlet;
#X msg 166 215 1;
#X floatatom 166 375 20 0 0 0 - - -;
#X msg 354 303 goto 0;
#X obj 166 654 line~;
#X obj 511 596 sel 1;
#X msg 649 655 0;
#X obj 166 330 cyclone/counter, f 35;
#X obj 166 304 metro 1000;
#X obj 109 525 loadbang;
#X msg 109 548 1;
#X obj 212 613 s rev_swell;
#X obj 440 674 s rev_swell;
#X obj 389 602 t b b b;
#X obj 298 562 s slow_rec;
#X obj 166 234 s granu_rec_metro_slow;
#X obj 166 269 r granu_rec_metro_slow;
#X obj 650 682 s granu_rec_metro_slow;
#X obj 169 433 sel 1 2 3 4, f 58;
#X msg 378 634 1 5000;
#X msg 212 590 1;
#X msg 441 637 0;
#X obj 166 113 cyclone/gate;
#X obj 526 716 s slow_active;
#X obj 138 63 r slow_active;
#X msg 517 660 1;
#X msg 556 244 0;
#X obj 511 576 > 5;
#X obj 445 304 r start_point;
#X msg 166 570 0 700;
#X obj 402 559 pipe 800;
#X obj 77 91 loadbang;
#X msg 77 114 1;
#X obj 454 360 i;
#X msg 438 465 set \$1;
#X floatatom 417 492 5 0 0 0 - - -;
#X obj 454 406 clip 0 8000;
#X obj 177 540 t b b b, f 15;
#X msg 624 258 0;
#X obj 624 281 s lfo_pause;
#X obj 511 616 t b b b, f 10;
#X obj 165 194 t b b b b b, f 67;
#X obj 786 245 s led;
#X msg 687 122 5;
#X obj 447 333 cyclone/scale 0 127 0 9500;
#X obj 202 464 pipe 750;
#X obj 202 487 t b;
#X connect 0 0 1 0;
#X connect 1 0 2 0;
#X connect 3 0 4 0;
#X connect 4 0 5 0;
#X connect 6 0 28 1;
#X connect 7 0 21 0;
#X connect 8 0 24 0;
#X connect 9 0 13 0;
#X connect 10 0 1 1;
#X connect 10 0 4 1;
#X connect 11 0 46 0;
#X connect 12 0 23 0;
#X connect 13 0 8 0;
#X connect 14 0 13 0;
#X connect 15 0 16 0;
#X connect 16 0 10 0;
#X connect 19 0 25 0;
#X connect 19 1 27 0;
#X connect 22 0 14 0;
#X connect 24 0 43 0;
#X connect 24 0 51 0;
#X connect 24 2 36 0;
#X connect 24 4 33 0;
#X connect 25 0 10 0;
#X connect 26 0 17 0;
#X connect 27 0 18 0;
#X connect 28 0 47 0;
#X connect 28 0 49 0;
#X connect 30 0 28 0;
#X connect 31 0 29 0;
#X connect 32 0 28 0;
#X connect 33 0 11 0;
#X connect 34 0 50 0;
#X connect 35 0 10 0;
#X connect 36 0 19 0;
#X connect 37 0 38 0;
#X connect 38 0 28 0;
#X connect 39 0 42 0;
#X connect 40 0 41 0;
#X connect 41 0 36 1;
#X connect 42 0 40 0;
#X connect 43 0 35 0;
#X connect 43 1 26 0;
#X connect 44 0 45 0;
#X connect 46 0 31 0;
#X connect 46 1 12 0;
#X connect 47 0 7 0;
#X connect 47 1 9 0;
#X connect 47 2 32 0;
#X connect 47 3 41 0;
#X connect 47 4 44 0;
#X connect 49 0 48 0;
#X connect 50 0 39 0;
#X connect 51 0 52 0;
#X connect 52 0 20 0;
#X restore 430 1249 pd fade_when_slow;
#X f 27;
#X floatatom 795 732 5 0 0 0 - - -;
#X floatatom 793 824 5 0 0 0 - - -;
#X obj 975 764 r granunotes;
#X floatatom 881 911 5 0 0 0 - - -;
#X obj 975 819 sel 60 61 62 63 64 65 66 67 68 69 70 71, f 101;
#X msg 975 862 1;
#X msg 1131 885 1.18914;
#X msg 1026 867 1.059;
#X msg 1074 878 1.122;
#X msg 1200 882 1.26;
#X msg 1257 887 1.335;
#X msg 1317 891 1.414;
#X msg 1662 912 1.335;
#X msg 1722 916 1.414;
#X msg 1380 887 1.498;
#X msg 1431 892 1.587;
#X msg 1479 903 1.682;
#X msg 1536 909 1.782;
#X msg 1605 907 1.888;
#X obj 795 997 *;
#X obj 814 943 t b f;
#X obj 815 895 loadbang;
#X msg 815 918 1;
#X obj 751 670 loadbang;
#X msg 751 693 1;
#X obj 594 684 t f f;
#X obj 594 707 t b f;
#X obj 91 51 r fs;
#X obj 91 95 tgl 15 0 empty empty empty 17 7 0 10 -262144 -1 -1 0 1
;
#X obj 40 155 cyclone/gate;
#X obj 20 50 r pedal_on;
#X obj 40 178 s aux;
#X obj 267 188 cyclone/gate 2;
#X obj 430 29 r whatpage;
#X obj 430 52 != 7;
#X obj 430 85 tgl 15 0 empty empty empty 17 7 0 10 -262144 -1 -1 1
1;
#X obj 397 145 spigot;
#X obj 504 27 r whatpage;
#X obj 504 83 tgl 15 0 empty empty empty 17 7 0 10 -262144 -1 -1 0
1;
#X obj 504 50 != 6;
#X obj 397 177 spigot;
#X connect 1 0 0 0;
#X connect 1 1 0 0;
#X connect 2 0 3 0;
#X connect 3 0 4 0;
#X connect 4 0 157 0;
#X connect 6 0 1 2;
#X connect 7 0 0 1;
#X connect 8 0 54 0;
#X connect 9 0 105 0;
#X connect 10 0 12 0;
#X connect 10 1 11 1;
#X connect 11 0 63 0;
#X connect 12 0 49 0;
#X connect 13 0 11 0;
#X connect 15 0 9 0;
#X connect 16 0 55 0;
#X connect 18 0 57 0;
#X connect 20 0 106 0;
#X connect 21 0 56 0;
#X connect 23 0 32 0;
#X connect 24 0 25 0;
#X connect 25 0 39 0;
#X connect 26 0 107 0;
#X connect 27 0 28 0;
#X connect 28 0 32 1;
#X connect 28 0 30 0;
#X connect 29 0 30 0;
#X connect 29 1 30 1;
#X connect 30 0 32 2;
#X connect 31 0 27 0;
#X connect 31 1 27 1;
#X connect 32 0 24 0;
#X connect 33 0 37 0;
#X connect 33 1 37 1;
#X connect 34 0 35 0;
#X connect 34 0 40 0;
#X connect 34 1 146 0;
#X connect 35 0 41 0;
#X connect 36 0 38 0;
#X connect 37 0 36 0;
#X connect 37 1 36 1;
#X connect 39 0 34 0;
#X connect 39 1 33 0;
#X connect 40 0 35 1;
#X connect 41 0 58 0;
#X connect 41 1 59 0;
#X connect 41 2 42 0;
#X connect 42 0 48 0;
#X connect 43 0 45 0;
#X connect 44 0 75 0;
#X connect 45 0 102 0;
#X connect 46 0 64 0;
#X connect 47 0 46 0;
#X connect 47 1 64 0;
#X connect 48 0 45 1;
#X connect 49 0 13 0;
#X connect 50 0 60 0;
#X connect 51 0 110 0;
#X connect 52 0 53 0;
#X connect 54 0 14 0;
#X connect 55 0 81 0;
#X connect 56 0 22 0;
#X connect 57 0 80 0;
#X connect 58 0 47 0;
#X connect 59 0 43 0;
#X connect 60 0 58 1;
#X connect 60 1 59 1;
#X connect 62 0 61 0;
#X connect 63 0 23 0;
#X connect 63 1 50 0;
#X connect 64 0 120 0;
#X connect 64 1 120 1;
#X connect 65 0 121 0;
#X connect 66 0 121 0;
#X connect 67 0 121 0;
#X connect 69 0 48 1;
#X connect 70 0 121 0;
#X connect 71 0 121 0;
#X connect 72 0 71 0;
#X connect 72 1 70 0;
#X connect 72 2 65 0;
#X connect 72 3 66 0;
#X connect 72 4 67 0;
#X connect 72 5 73 0;
#X connect 72 6 74 0;
#X connect 73 0 121 0;
#X connect 74 0 121 0;
#X connect 75 0 29 0;
#X connect 76 0 108 0;
#X connect 78 0 75 0;
#X connect 78 1 75 1;
#X connect 78 1 79 0;
#X connect 80 0 109 0;
#X connect 81 0 17 0;
#X connect 82 0 1 0;
#X connect 83 0 1 1;
#X connect 86 0 72 0;
#X connect 87 0 100 0;
#X connect 88 0 89 0;
#X connect 89 0 87 1;
#X connect 89 0 91 1;
#X connect 90 0 88 0;
#X connect 91 0 101 0;
#X connect 92 0 93 0;
#X connect 93 0 98 0;
#X connect 96 0 97 0;
#X connect 97 0 92 0;
#X connect 98 0 91 2;
#X connect 98 0 87 2;
#X connect 99 0 92 0;
#X connect 100 0 103 0;
#X connect 101 0 104 0;
#X connect 102 0 46 0;
#X connect 103 0 84 0;
#X connect 104 0 85 0;
#X connect 105 0 10 0;
#X connect 106 0 27 0;
#X connect 107 0 31 0;
#X connect 108 0 78 0;
#X connect 109 0 19 0;
#X connect 110 0 50 1;
#X connect 111 0 113 0;
#X connect 112 0 116 0;
#X connect 113 0 112 0;
#X connect 114 0 111 0;
#X connect 116 0 153 0;
#X connect 117 0 1 2;
#X connect 118 0 0 1;
#X connect 119 0 120 2;
#X connect 120 0 87 0;
#X connect 120 1 91 0;
#X connect 121 0 122 0;
#X connect 122 0 77 0;
#X connect 122 0 140 0;
#X connect 123 0 125 0;
#X connect 124 0 141 0;
#X connect 125 0 126 0;
#X connect 125 1 128 0;
#X connect 125 2 129 0;
#X connect 125 3 127 0;
#X connect 125 4 130 0;
#X connect 125 5 131 0;
#X connect 125 6 132 0;
#X connect 125 7 135 0;
#X connect 125 8 136 0;
#X connect 125 9 137 0;
#X connect 125 10 138 0;
#X connect 125 11 139 0;
#X connect 126 0 124 0;
#X connect 127 0 124 0;
#X connect 128 0 124 0;
#X connect 129 0 124 0;
#X connect 130 0 124 0;
#X connect 131 0 124 0;
#X connect 132 0 124 0;
#X connect 135 0 124 0;
#X connect 136 0 124 0;
#X connect 137 0 124 0;
#X connect 138 0 124 0;
#X connect 139 0 124 0;
#X connect 140 0 69 0;
#X connect 141 0 140 0;
#X connect 141 1 140 1;
#X connect 142 0 143 0;
#X connect 143 0 141 0;
#X connect 144 0 145 0;
#X connect 145 0 121 0;
#X connect 146 0 147 0;
#X connect 146 1 35 2;
#X connect 147 0 40 0;
#X connect 147 1 40 1;
#X connect 148 0 149 0;
#X connect 149 0 150 1;
#X connect 150 0 152 0;
#X connect 151 0 150 0;
#X connect 153 0 5 0;
#X connect 153 1 115 0;
#X connect 154 0 155 0;
#X connect 155 0 156 0;
#X connect 156 0 157 1;
#X connect 157 0 161 0;
#X connect 158 0 160 0;
#X connect 159 0 161 1;
#X connect 160 0 159 0;
#X connect 161 0 153 1;
