#N canvas 177 69 1200 975 12;
#X obj 149 594 phasor~ 220;
#X floatatom 664 821 5 0 200 0 - - -;
#X obj 182 900 bob~;
#X obj 664 845 / 25;
#X obj 391 762 line~;
#X floatatom 867 807 5 0 999 0 - - -;
#X msg 867 853 saturation \$1;
#X obj 867 757 loadbang;
#X obj 867 829 / 100;
#X floatatom 1004 827 5 1 10 0 - - -;
#X text 1000 752 oversampling;
#X msg 1004 854 oversample \$1;
#X obj 1004 775 loadbang;
#X msg 1004 800 2;
#X text 712 841 scaled to 0-8;
#X text 711 823 0-200 control;
#X msg 867 782 300;
#X obj 664 752 loadbang;
#X msg 664 777 10;
#X obj 663 873 line~;
#X floatatom 31 486 5 0 0 0 - - -;
#X obj 6 252 tgl 15 0 empty empty empty 17 7 0 10 -262144 -1 -1 0 1
;
#X obj 6 363 metro 200;
#X obj 6 387 tgl 15 0 empty empty empty 17 7 0 10 -262144 -1 -1 1 1
;
#X obj 391 362 tgl 15 0 empty empty empty 17 7 0 10 -262144 -1 -1 1
1;
#X obj 391 406 tgl 15 0 empty empty empty 17 7 0 10 -262144 -1 -1 0
1;
#X obj 391 501 * 1;
#X obj 391 613 + 1;
#X floatatom 409 458 5 0 0 0 - - -;
#X floatatom 409 582 5 0 0 0 - - -;
#X obj 391 382 metro 1500;
#X obj 86 1387 hsl 128 15 0 127 0 0 empty empty empty -2 -8 0 10 -262144
-1 -1 4000 1;
#X obj 34 1434 *~;
#X obj 83 1407 / 127;
#X obj 181 1295 *~;
#X obj 34 1526 *~;
#X obj 338 1557 *~;
#X obj 418 1504 hsl 128 15 0 127 0 0 empty empty empty -2 -8 0 10 -262144
-1 -1 12700 1;
#X obj 415 1524 / 127;
#X obj 272 1484 *~;
#X obj 330 1485 *~;
#X obj 243 624 phasor~ 220;
#X obj 36 738 osc~;
#X obj 36 977 *~;
#X obj 54 805 vsl 15 128 0 127 0 0 empty empty empty 0 -9 0 10 -262144
-1 -1 12700 1;
#X obj 33 1554 *~ 0.2;
#X obj 338 1586 *~ 0.2;
#X floatatom 305 1085 7 -10 10 0 - - -;
#X obj 308 1064 hsl 128 15 1 100 0 1 empty empty empty 45 9 1 12 -228856
-1 -1 10200 1;
#X text 340 1063 drive factor;
#X obj 305 1133 line~;
#X msg 305 1108 \$1 20;
#X obj 183 1095 *~;
#X obj 182 932 /~ 10;
#X obj 243 648 *~ 1;
#X obj 783 1542 *~;
#X obj 868 1607 *~;
#X obj 685 1451 hsl 128 15 0 127 0 0 empty empty empty -2 -8 0 10 -262144
-1 -1 2000 1;
#X obj 773 1340 delwrite~ del_line_1 5000;
#X obj 783 1385 delwrite~ del_line_2 5000;
#X obj 752 1481 / 64;
#X obj 783 1566 hip~ 200;
#X obj 868 1631 hip~ 200;
#X obj 868 1655 lop~ 3000;
#X obj 783 1590 lop~ 3000;
#X obj 806 1493 vd~ del_line_2 500;
#X obj 243 595 * 1.02;
#X obj 54 941 / 64;
#X obj 149 721 *~ 0.05;
#X obj 36 1025 lop~ 50;
#X obj 783 1614 *~ 0.2;
#X obj 949 1629 *~ 0.2;
#X obj 684 1391 loadbang;
#X obj 424 1441 loadbang;
#X msg 424 1465 127;
#X obj 389 321 loadbang;
#X obj 410 406 loadbang;
#X msg 409 429 145;
#X obj 126 1327 loadbang;
#X msg 126 1351 40;
#X msg 684 1415 20;
#X obj 201 1009 loadbang;
#X obj 201 1057 line~;
#X msg 201 1033 20 5000;
#X floatatom 155 125 5 0 0 0 - - -;
#X obj 155 174 mtof;
#X floatatom 155 198 5 0 0 0 - - -;
#X obj 155 148 - 36;
#X obj 32 1653 outlet~;
#X obj 338 1662 outlet~;
#X obj 160 89 inlet;
#X obj 188 832 sig~;
#X obj 188 856 +~;
#X obj 391 714 pack f f;
#X obj 408 653 loadbang;
#X msg 408 677 1500;
#X obj 187 268 t b f;
#X obj 187 292 spigot, f 9;
#X obj 246 260 != 1;
#X obj 951 1529 vd~ del_line_1 550;
#X msg 200 1242 \$1 50;
#X obj 199 1266 line~;
#X obj 15 223 loadbang;
#X obj 7 144 r \$1_syntharp;
#X obj 7 168 > 60;
#X text 805 71 ↑ Midi note ON in here;
#X obj 155 223 t f f;
#X obj 496 585 r \$1_sweep_time;
#X obj 247 187 r \$1_syntharp;
#X obj 535 389 r \$1_sweep;
#X obj 458 285 r \$1_sweep_time;
#X obj 410 526 loadbang;
#X msg 409 549 145;
#X obj 444 549 r \$1_sweep;
#X obj 54 770 r \$1_subosc;
#X obj 34 560 t f f f;
#X obj 742 691 r \$1_q;
#X obj 182 1166 cyclone/overdrive~;
#X obj 188 774 r \$1_cutoff;
#X obj 330 1230 rev3~ 100 90 3000 20;
#X obj 199 1202 r \$1_revsend;
#X text 807 240 cutoff;
#X text 809 259 q;
#X text 808 280 syntharp;
#X text 809 298 sweep;
#X text 810 320 sweep_time;
#X text 811 340 subosc;
#X text 806 218 Parameters:;
#X text 811 362 revsend;
#X text 808 111 Name is argument 1 F.ex kl_filterrev synth1;
#X text 807 161 Send 0-127 to: \$1_parameter f.ex synth1_cutoff;
#X obj 188 798 cyclone/scale 0 127 0 10000 2.5;
#X obj 247 221 > 60;
#X obj 458 351 i;
#X obj 458 315 cyclone/scale 0 127 1 15000 3 @classic 0;
#X obj 498 667 i;
#X obj 498 631 cyclone/scale 0 127 1 15000 3 @classic 0;
#X obj 16 331 i;
#X obj 39 254 r synth1_arp;
#X obj 743 751 i;
#X obj 742 721 cyclone/scale 0 127 10 90;
#X obj 508 483 i;
#X obj 508 463 cyclone/scale 0 127 0 1500 3 @classic 0;
#X obj 33 1610 hip~ 20;
#X obj 337 1619 hip~ 20;
#X obj 6 407 + 1;
#X obj 31 509 *;
#X obj 6 431 t b f;
#X obj 16 312 cyclone/scale 0 127 20 2000;
#X obj 148 1541 *~;
#X obj 147 1569 *~ 0.2;
#X obj 148 1656 outlet~;
#X obj 147 1625 hip~ 20;
#X connect 0 0 68 0;
#X connect 1 0 3 0;
#X connect 2 0 53 0;
#X connect 3 0 19 0;
#X connect 4 0 92 1;
#X connect 5 0 8 0;
#X connect 6 0 2 0;
#X connect 7 0 16 0;
#X connect 8 0 6 0;
#X connect 9 0 11 0;
#X connect 11 0 2 0;
#X connect 12 0 13 0;
#X connect 13 0 9 0;
#X connect 16 0 5 0;
#X connect 17 0 18 0;
#X connect 18 0 1 0;
#X connect 19 0 2 2;
#X connect 20 0 146 0;
#X connect 21 0 22 0;
#X connect 22 0 23 0;
#X connect 23 0 145 0;
#X connect 24 0 30 0;
#X connect 25 0 26 0;
#X connect 26 0 27 0;
#X connect 27 0 93 0;
#X connect 28 0 26 1;
#X connect 29 0 27 1;
#X connect 30 0 25 0;
#X connect 31 0 33 0;
#X connect 32 0 35 0;
#X connect 33 0 32 1;
#X connect 34 0 119 0;
#X connect 34 0 119 1;
#X connect 35 0 45 0;
#X connect 36 0 46 0;
#X connect 37 0 38 0;
#X connect 38 0 35 1;
#X connect 38 0 39 1;
#X connect 38 0 40 1;
#X connect 38 0 36 1;
#X connect 38 0 149 1;
#X connect 39 0 149 0;
#X connect 40 0 36 0;
#X connect 41 0 54 0;
#X connect 42 0 43 0;
#X connect 43 0 69 0;
#X connect 44 0 67 0;
#X connect 45 0 143 0;
#X connect 46 0 144 0;
#X connect 47 0 51 0;
#X connect 48 0 47 0;
#X connect 50 0 117 1;
#X connect 51 0 50 0;
#X connect 52 0 117 0;
#X connect 53 0 52 0;
#X connect 54 0 68 0;
#X connect 55 0 61 0;
#X connect 56 0 62 0;
#X connect 57 0 60 0;
#X connect 60 0 55 1;
#X connect 60 0 56 1;
#X connect 61 0 64 0;
#X connect 62 0 63 0;
#X connect 63 0 71 0;
#X connect 63 0 119 1;
#X connect 64 0 70 0;
#X connect 64 0 119 0;
#X connect 65 0 55 0;
#X connect 66 0 41 0;
#X connect 67 0 43 1;
#X connect 68 0 2 0;
#X connect 69 0 32 0;
#X connect 70 0 58 0;
#X connect 71 0 59 0;
#X connect 72 0 80 0;
#X connect 73 0 74 0;
#X connect 74 0 37 0;
#X connect 75 0 24 0;
#X connect 76 0 77 0;
#X connect 77 0 28 0;
#X connect 78 0 79 0;
#X connect 78 0 31 0;
#X connect 79 0 31 0;
#X connect 80 0 57 0;
#X connect 81 0 83 0;
#X connect 82 0 52 1;
#X connect 83 0 82 0;
#X connect 84 0 87 0;
#X connect 85 0 86 0;
#X connect 86 0 106 0;
#X connect 87 0 85 0;
#X connect 90 0 84 0;
#X connect 91 0 92 0;
#X connect 92 0 2 1;
#X connect 93 0 4 0;
#X connect 94 0 95 0;
#X connect 95 0 93 1;
#X connect 96 0 97 0;
#X connect 97 0 23 0;
#X connect 98 0 97 1;
#X connect 99 0 56 0;
#X connect 100 0 101 0;
#X connect 101 0 34 1;
#X connect 102 0 21 0;
#X connect 103 0 104 0;
#X connect 104 0 21 0;
#X connect 106 1 96 0;
#X connect 106 1 20 0;
#X connect 107 0 136 0;
#X connect 108 0 132 0;
#X connect 109 0 142 0;
#X connect 110 0 134 0;
#X connect 111 0 112 0;
#X connect 112 0 29 0;
#X connect 113 0 29 0;
#X connect 114 0 44 0;
#X connect 115 0 42 0;
#X connect 115 1 0 0;
#X connect 115 2 66 0;
#X connect 116 0 140 0;
#X connect 117 0 32 0;
#X connect 117 0 34 0;
#X connect 118 0 131 0;
#X connect 119 0 39 0;
#X connect 119 1 40 0;
#X connect 119 2 58 0;
#X connect 119 3 59 0;
#X connect 120 0 100 0;
#X connect 131 0 91 0;
#X connect 132 0 98 0;
#X connect 133 0 30 1;
#X connect 134 0 133 0;
#X connect 135 0 93 1;
#X connect 136 0 135 0;
#X connect 137 0 22 1;
#X connect 138 0 148 0;
#X connect 139 0 1 0;
#X connect 140 0 139 0;
#X connect 141 0 28 0;
#X connect 142 0 141 0;
#X connect 143 0 88 0;
#X connect 144 0 89 0;
#X connect 145 0 147 0;
#X connect 146 0 115 0;
#X connect 147 0 146 0;
#X connect 147 1 146 1;
#X connect 148 0 137 0;
#X connect 149 0 150 0;
#X connect 150 0 152 0;
#X connect 152 0 151 0;
#X coords 0 -1 1 1 350 400 1 800 50;
