#N canvas 620 440 559 232 10;
#X declare -path patchmenu;
#X declare -path externals;
#X obj 15 24 declare -path patchmenu;
#N canvas 108 156 679 492 more-menu-info 0;
#X text 74 180 When you select a page from the menu (or turn the wheel
which brings up the menu page) \, the following events are triggered:
;
#X text 72 26 We like to thinkg of these pages as functional spaces
as opposed to simple knob pages. Having the Aux button paged means
it is possible to have \, for example \, a sample record page. In this
context it is helpful to have some signals that indicate page change
events. For example consider a page that was recording a sample to
be manipulated elsewhere in the patch. If you started a recording on
the record page but didn't stop it \, you might want to stop it automatically
when you navigate to a new page. To help solve this kind of issue the
menu system provides the following signals and values.;
#X obj 89 235 r page-closing;
#X floatatom 89 257 5 0 0 0 - - -;
#X text 189 244 First the current page numer is sent out as page-closing.
;
#X text 190 287 Then the OLED is cleard \, the new OLED page is activated
\, and the page knob paramters are recalled.;
#X text 191 334 The curpage value is updated with the new page value.
;
#X obj 92 333 v curpage;
#X floatatom 89 401 5 0 0 0 - - -;
#X obj 89 379 r page-ready;
#X text 189 382 Finally the new page number is sent out as page-ready.
;
#X connect 2 0 3 0;
#X connect 9 0 8 0;
#X restore 335 78 pd more-menu-info;
#X text 174 28 Add the patchmenu folder to the search path.;
#N canvas 344 87 774 712 choose 0;
#X obj 292 18 inlet;
#X obj 95 122 inlet;
#X obj 122 281 tgl 15 0 empty empty empty 17 7 0 10 -262144 -1 -1 1
1;
#X obj 255 279 tgl 15 0 empty empty empty 17 7 0 10 -262144 -1 -1 0
1;
#X obj 89 303 spigot;
#X obj 222 301 spigot;
#X obj 121 248 r m1;
#X obj 248 247 r m2;
#X msg 205 154 \; m1 1 \; m2 0 \;;
#X msg 256 153 \; m1 0 \; m2 1 \;;
#X obj 140 55 loadbang;
#N canvas 5 50 450 300 highlight-line 0;
#X obj 136 140 s oscOut;
#X msg 136 115 send /oled/invertline \$1;
#X obj 137 89 inlet;
#X connect 1 0 0 0;
#X connect 2 0 1 0;
#X restore 423 231 pd highlight-line;
#X msg 399 188 0;
#X obj 323 111 t b b;
#X obj 272 58 sel 4 5 6 7 8;
#X obj 383 113 t b b;
#X msg 437 188 4;
#X msg 310 473 \; screenLine1 1) Synth1 \; screenLine2 2) Synth2 \;
screenLine3 3) Granulator1 \; screenLine4 4) Granulator2 \; screenLine5
5) Mixer \;;
#X obj 19 391 loadbang;
#X obj 19 414 del 50;
#X obj 90 389 loadbang;
#X obj 90 412 del 2000;
#X obj 140 78 del 2000;
#X obj 67 82 s enc;
#X msg 70 55 0 \, 0;
#X obj 72 25 del 3050;
#X msg 21 580 \; screenLine1 Snowgrains \; screenLine2 ---------- \;
screenLine3 Version 1.1 \; screenLine4 ---------- \; screenLine5 Made
by Lislegaard \;;
#X msg 498 473 \; screenLine1 6) Mixer2 \; screenLine2 7) LFO + Rec
\; screenLine3 8) Settings \; screenLine4 <-- HOME \; screenLine5 ########
\;;
#X obj 19 437 t b b, f 26;
#X obj 19 520 spigot;
#X obj 45 471 r usb;
#X obj 45 494 == 0;
#X obj 185 471 r usb;
#X obj 185 494 == 1;
#X obj 169 528 spigot;
#X msg 235 579 \; screenLine1 Snowgrains \; screenLine2 ----------
\; screenLine3 Version 1.1 \; screenLine4 USB: OK! \; screenLine5 Made
by Lislegaard \;;
#X connect 0 0 14 0;
#X connect 1 0 4 0;
#X connect 1 0 5 0;
#X connect 2 0 4 1;
#X connect 3 0 5 1;
#X connect 4 0 17 0;
#X connect 5 0 27 0;
#X connect 6 0 2 0;
#X connect 7 0 3 0;
#X connect 10 0 22 0;
#X connect 10 0 25 0;
#X connect 12 0 11 0;
#X connect 13 0 12 0;
#X connect 13 1 27 0;
#X connect 14 0 8 0;
#X connect 14 0 15 0;
#X connect 14 1 9 0;
#X connect 14 1 13 0;
#X connect 14 2 9 0;
#X connect 14 3 9 0;
#X connect 14 4 9 0;
#X connect 14 5 8 0;
#X connect 15 0 16 0;
#X connect 15 1 17 0;
#X connect 16 0 11 0;
#X connect 18 0 19 0;
#X connect 19 0 28 0;
#X connect 20 0 21 0;
#X connect 22 0 8 0;
#X connect 24 0 23 0;
#X connect 25 0 24 0;
#X connect 28 0 29 0;
#X connect 28 1 34 0;
#X connect 29 0 26 0;
#X connect 30 0 31 0;
#X connect 31 0 29 1;
#X connect 32 0 33 0;
#X connect 33 0 34 1;
#X connect 34 0 35 0;
#X restore 16 126 pd choose;
#X f 11;
#X obj 80 102 r whatpage;
#N canvas 4 53 1912 995 mapping 0;
#X obj 112 82 r p1k1;
#X obj 410 79 r p1k2;
#X obj 666 82 r p1k3;
#X obj 883 83 r p1k4;
#X obj 108 337 r p2k1;
#X obj 405 306 r p2k2;
#X obj 667 328 r p2k3;
#X obj 962 332 r p2k4;
#X obj 125 1191 r p4k1;
#X obj 285 1191 r p4k2;
#X obj 463 1128 r p4k3;
#X obj 137 1633 i;
#X obj 137 1533 r p5k1;
#X msg 114 274 \; p1s1 1: Cutoff \$1;
#X obj 111 103 * 127;
#X obj 114 124 hsl 128 15 0 127 0 0 empty empty empty -2 -8 0 10 -262144
-1 -1 3054 1;
#X obj 114 243 i;
#X obj 137 1570 * 127;
#X obj 170 1632 s synthvol;
#X msg 137 1663 \; p5s1 1: SynthVolume \$1;
#X obj 410 100 * 127;
#X obj 410 121 hsl 128 15 0 127 0 0 empty empty empty -2 -8 0 10 -262144
-1 -1 12700 1;
#X obj 405 220 i;
#X msg 405 245 \; p1s2 2: Sub \$1;
#X obj 666 154 i;
#X floatatom 666 175 5 0 0 0 - - -;
#X msg 665 221 \; p1s3 3: Octave \$1;
#X obj 666 128 * 4;
#X obj 136 831 * 127;
#X obj 136 891 s trig_speed;
#X obj 314 861 * 127;
#X obj 315 954 s start_point;
#X obj 667 866 * 127;
#X obj 666 975 s grain_size;
#X obj 523 867 * 127;
#X obj 523 927 s start_fine;
#X obj 131 1235 hsl 128 15 0 127 0 0 empty empty empty -2 -8 0 10 -262144
-1 -1 2644 1;
#X obj 165 1266 s grain_spray;
#X obj 139 853 hsl 128 15 0 127 0 0 empty empty empty -2 -8 0 10 -262144
-1 -1 1639 1;
#X obj 317 889 hsl 128 15 0 127 0 0 empty empty empty -2 -8 0 10 -262144
-1 -1 73 1;
#X obj 523 886 hsl 128 15 0 127 0 0 empty empty empty -2 -8 0 10 -262144
-1 -1 0 1;
#X obj 667 894 hsl 128 15 0 127 0 0 empty empty empty -2 -8 0 10 -262144
-1 -1 5053 1;
#X obj 307 1269 s stereo;
#X obj 285 1240 hsl 128 15 0 127 0 0 empty empty empty -2 -8 0 10 -262144
-1 -1 12700 1;
#X obj 136 807 r p3k1;
#X obj 137 970 r trig_speed;
#X msg 168 1083 \; p3s1 1: Trig Speed \$1;
#X obj 137 991 i;
#X obj 317 696 r p3k2;
#X obj 300 994 r start_point;
#X obj 310 1056 i;
#X msg 311 1086 \; p3s2 2: Start Point \$1;
#X obj 522 849 r p3k3;
#X obj 667 842 r p3k4;
#X obj 513 959 r start_fine;
#X obj 513 980 i;
#X msg 504 1003 \; p3s3 3: Start Fine \$1;
#X obj 676 1010 r grain_size;
#X obj 676 1031 i;
#X msg 671 1059 \; p3s4 4: Grain Size \$1;
#X floatatom 1183 751 5 0 0 0 - - -;
#X obj 1183 730 r whatpage;
#X floatatom 1183 814 5 0 0 0 - - -;
#X floatatom 1258 814 5 0 0 0 - - -;
#X obj 1183 834 +;
#X obj 1183 855 > 0;
#X obj 1183 876 tgl 15 0 empty empty empty 17 7 0 10 -262144 -1 -1
1 1;
#X obj 1183 771 expr $f1 ==0 \; $f1 ==1 \;;
#X obj 1183 905 s synthnotes;
#X text 31 1542 Page 5 Mixer;
#X obj 317 1633 i;
#X obj 317 1570 * 127;
#X obj 317 1533 r p5k2;
#X obj 350 1632 s grainvol;
#X text 17 132 Synth1;
#X text 22 398 Synth2;
#X text 36 955 Granualar1;
#X text 36 1223 Granular2;
#X obj 125 1210 * 127;
#X obj 128 1253 i;
#X msg 125 1321 \; p4s1 1: Spray \$1;
#X obj 285 1210 * 127;
#X obj 282 1257 i;
#X msg 285 1320 \; p4s2 2: Stereo \$1;
#X obj 884 107 * 127;
#X obj 887 134 hsl 128 15 0 127 0 0 empty empty empty -2 -8 0 10 -262144
-1 -1 422 1;
#X obj 882 242 i;
#X obj 103 367 * 127;
#X obj 103 388 hsl 128 15 0 127 0 0 empty empty empty -2 -8 0 10 -262144
-1 -1 0 1;
#X obj 102 486 i;
#X msg 111 537 \; p2s1 1: Resonance \$1;
#X obj 405 341 * 127;
#X obj 405 362 hsl 128 15 0 127 0 0 empty empty empty -2 -8 0 10 -262144
-1 -1 4444 1;
#X obj 402 483 i;
#X obj 667 352 * 127;
#X obj 667 373 hsl 128 15 0 127 0 0 empty empty empty -2 -8 0 10 -262144
-1 -1 8578 1;
#X obj 648 507 i;
#X msg 648 535 \; p2s3 3: Sweep Time \$1;
#X msg 402 512 \; p2s2 2: Sweep \$1;
#X floatatom 1415 748 5 0 0 0 - - -;
#X obj 1415 727 r whatpage;
#X obj 1367 894 spigot;
#X floatatom 1415 811 5 0 0 0 - - -;
#X floatatom 1490 811 5 0 0 0 - - -;
#X obj 1415 831 +;
#X obj 1415 852 > 0;
#X obj 1415 873 tgl 15 0 empty empty empty 17 7 0 10 -262144 -1 -1
0 1;
#X obj 1415 768 expr $f1 ==2 \; $f1 ==3 \;;
#X obj 1368 861 r notes;
#X obj 1330 927 s granunotes;
#X obj 528 1611 i;
#X obj 528 1585 * 127;
#X obj 527 1506 r p5k3;
#X obj 1148 1630 i;
#X obj 1148 1609 * 127;
#X obj 1148 1530 r p5k4;
#X obj 1195 1609 s revsend2;
#X obj 465 1218 * 127;
#X obj 465 1239 hsl 128 15 0 127 0 0 empty empty empty -2 -8 0 10 -262144
-1 -1 6083 1;
#X obj 465 1386 i;
#X obj 487 1333 s grain_cutoff;
#X msg 465 1437 \; p4s3 3: Cutoff \$1;
#X obj 723 1247 * 127;
#X obj 723 1268 hsl 128 15 0 127 0 0 empty empty empty -2 -8 0 10 -262144
-1 -1 0 1;
#X obj 721 1310 i;
#X obj 728 1217 r p4k4;
#X msg 730 1361 \; p4s4 4: Resonance \$1;
#X obj 765 1322 s grain_q;
#X obj 664 914 / 1;
#X text 39 2088 LFO;
#X obj 121 2316 i;
#X obj 121 2289 * 127;
#X obj 168 2304 s filterlfo;
#X obj 288 2194 i;
#X obj 288 2167 * 127;
#X obj 182 2121 osc~;
#X obj 183 2226 snapshot~;
#X obj 226 2166 metro 20;
#X obj 227 2144 tgl 15 0 empty empty empty 17 7 0 10 -262144 -1 -1
0 1;
#X obj 466 1179 +;
#X obj 547 1108 r filterlfo;
#X obj 547 1128 t b f;
#X obj 183 2246 *;
#X obj 503 2474 i;
#X obj 503 2447 * 127;
#X obj 668 2201 i;
#X obj 668 2174 * 127;
#X obj 562 2128 osc~;
#X obj 653 2429 snapshot~;
#X obj 607 2151 tgl 15 0 empty empty empty 17 7 0 10 -262144 -1 -1
1 1;
#X obj 564 2443 *;
#X obj 567 2476 s grainlfo;
#X obj 319 754 +;
#X obj 392 717 t b f;
#X obj 392 697 r grainlfo;
#X obj 606 2173 metro 200;
#X obj 462 1256 clip 0 127;
#X obj 666 2357 lop~ 1;
#X obj 456 2429 > 0;
#X obj 76 2308 > 0;
#X obj 902 362 > 0.5;
#X obj 903 383 tgl 15 0 empty empty empty 17 7 0 10 -262144 -1 -1 0
1;
#X obj 904 434 sel 0 1, f 50;
#X msg 904 496 \; p2s4 4: Arp OFF;
#X msg 1043 496 \; p2s4 4: Arp ON;
#X obj 144 1888 i;
#X obj 144 1867 * 127;
#X obj 177 1887 s invol;
#X obj 102 466 cyclone/scale 0 127 10 90;
#X obj 648 479 cyclone/scale 0 127 1 15000 3 @classic 0;
#X obj 334 1888 i;
#X obj 334 1867 * 127;
#X obj 367 1887 s insend;
#X obj 402 463 cyclone/scale 0 127 0 1500 3 @classic 0;
#X obj 149 2697 i;
#X obj 149 2676 * 127;
#X text 46 2617 Settings;
#X obj 149 2597 r p8k1;
#X obj 212 2696 s boost;
#X msg 149 2727 \; p8s1 1: Master Boost \$1;
#X msg 317 1663 \; p5s2 2: GrainVolume \$1;
#X text 40 1768 Mixer 2;
#X obj 144 1788 r p6k1;
#X obj 334 1788 r p6k2;
#X msg 144 1918 \; p6s1 1: InputVolume \$1;
#X msg 334 1918 \; p6s2 2: InputToGrain \$1;
#X obj 503 1887 i;
#X obj 503 1866 * 127;
#X obj 503 1787 r p6k3;
#X obj 536 1886 s synthsend;
#X msg 503 1917 \; p6s3 3: SynthToGrain \$1;
#X obj 121 2096 r p7k1;
#X obj 288 2094 r p7k2;
#X obj 501 2103 r p7k3;
#X obj 672 1984 r p7k4;
#X msg 669 2231 \; p7s4 4: Grain Speed \$1;
#X msg 503 2505 \; p7s3 3: Grain LFO \$1;
#X msg 121 2345 \; p7s1 1: Filter LFO \$1;
#X msg 288 2224 \; p7s2 2: Filter Speed \$1;
#X obj 619 2238 sel 0;
#X msg 619 2259 0;
#X obj 962 362 * 127;
#X obj 138 162 s synth1_cutoff;
#X obj 114 210 cyclone/scale 0 127 0 10000 2.5;
#X obj 962 403 s synth1_syntharp;
#X obj 663 402 s synth1_sweep_time;
#X obj 427 142 s synth1_subosc;
#X obj 709 102 * 127;
#X obj 711 123 hsl 128 15 0 127 0 0 empty empty empty -2 -8 0 10 -262144
-1 -1 10962 1;
#X obj 708 152 s synth1_octave;
#X obj 902 157 s synth1_arp;
#X obj 116 415 s synth1_q;
#X obj 479 417 s synth1_sweep;
#X obj 882 223 cyclone/scale 0 127 20 2000;
#X obj 462 1289 cyclone/scale 0 127 0 10000 2.5;
#X obj 574 1612 s synth1_revsend;
#X obj 664 942 cyclone/scale 0 127 1 200 2.5;
#X obj 465 1405 cyclone/speedlim 50;
#X obj 564 2205 cyclone/scale~ -1 1 0 1;
#X obj 688 2009 cyclone/scale 0 1 0.002 0.05;
#X obj 304 2119 cyclone/scale 0 1 0.02 5;
#X obj 184 2198 cyclone/scale~ -1 1 0 1;
#X obj 673 1837 i;
#X obj 673 1816 * 127;
#X obj 673 1787 r p6k4;
#X obj 706 1836 s slow_transition;
#X obj 673 1860 > 60;
#X obj 673 1883 sel 0 1, f 19;
#X obj 872 1969 r lfo_pause;
#X obj 872 1998 sel 0 1;
#X obj 314 909 clip 0 127;
#X msg 871 2052 0;
#X floatatom 929 2100 5 0 0 0 - - -;
#X msg 688 2032 set \$1;
#X msg 929 2122 \$1 2000;
#X obj 929 2145 line;
#X obj 931 2035 del 400;
#X obj 357 2586 i;
#X obj 357 2556 * 127;
#X obj 357 2512 r p8k2;
#X msg 317 2794 \; p8s2 2: Pedal OFF;
#X obj 358 2742 s pedal_on;
#X obj 612 2781 s footSwitchPolarity;
#X obj 862 2409 r p8k3;
#X obj 721 1290 cyclone/scale 0 127 10 90;
#X msg 880 289 \; p1s4 4: Rate \$1;
#X obj 1110 2484 i;
#X obj 1110 2429 * 127;
#X obj 1110 2507 > 63;
#X obj 1110 2400 r p8k4;
#X obj 1267 2581 s midicontrol;
#X obj 1110 2450 hsl 128 15 0 127 0 0 empty empty empty -2 -8 0 10
-262144 -1 -1 12700 1;
#X obj 137 1591 hsl 128 15 0 127 0 0 empty empty empty -2 -8 0 10 -262144
-1 -1 9534 1;
#X obj 320 1591 hsl 128 15 0 127 0 0 empty empty empty -2 -8 0 10 -262144
-1 -1 11806 1;
#X obj 137 1014 sel 127;
#X msg 28 1083 \; p3s1 1: Trig Speed STOP;
#X msg 671 1932 \; p6s4 4: Transition: Fast;
#X msg 871 1926 \; p6s4 4: Transition: Slow;
#X msg 1366 2667 \; p8s4 4: Midi CTRL ON;
#X msg 1188 2697 \; p8s4 4: Midi CTRL OFF;
#X obj 1439 898 r midi_granunotes;
#X msg 1454 2843;
#X obj 1101 2795 s pd;
#X obj 1106 2746 bng 15 250 50 0 empty empty empty 17 7 0 10 -262144
-1 -1;
#X obj 1104 2890 s pd;
#X obj 1109 2841 bng 15 250 50 0 empty empty empty 17 7 0 10 -262144
-1 -1;
#X msg 1104 2867 audio-dialog 0 0 0 0 2 0 0 0 0 0 0 0 2 0 0 0 44100
10 -1 64;
#X msg 1101 2772 audio-dialog 0 0 0 0 2 0 0 0 0 0 0 0 2 0 0 0 44100
25 -1 256;
#X obj 177 97 * 127;
#X obj 178 76 r p1k1m;
#X obj 464 88 * 127;
#X obj 464 67 r p1k2m;
#X obj 981 94 * 127;
#X obj 806 89 * 127;
#X obj 763 69 r p1k3m;
#X obj 981 70 r p1k4m;
#X obj 191 356 * 127;
#X obj 493 330 * 127;
#X obj 755 341 * 127;
#X obj 1050 351 * 127;
#X obj 196 326 r p2k1m;
#X obj 493 295 r p2k2m;
#X obj 755 317 r p2k3m;
#X obj 1050 321 r p2k4m;
#X obj 175 1163 * 127;
#X obj 335 1163 * 127;
#X obj 515 1171 * 127;
#X obj 773 1200 * 127;
#X obj 175 1144 r p4k1m;
#X obj 335 1144 r p4k2m;
#X obj 513 1081 r p4k3m;
#X obj 778 1170 r p4k4m;
#X obj 199 1514 * 127;
#X obj 379 1514 * 127;
#X obj 590 1529 * 127;
#X obj 1210 1553 * 127;
#X obj 199 1477 r p5k1m;
#X obj 379 1477 r p5k2m;
#X obj 589 1450 r p5k3m;
#X obj 1210 1474 r p5k4m;
#X obj 206 1842 * 127;
#X obj 396 1842 * 127;
#X obj 565 1841 * 127;
#X obj 735 1791 * 127;
#X obj 206 1763 r p6k1m;
#X obj 396 1763 r p6k2m;
#X obj 565 1762 r p6k3m;
#X obj 735 1762 r p6k4m;
#X obj 185 2060 r p7k1m;
#X obj 355 2053 r p7k2m;
#X obj 759 1969 r p7k4m;
#X obj 355 2076 / 127;
#X obj 185 2083 / 127;
#X obj 565 2049 r p7k3m;
#X obj 565 2072 / 127;
#X obj 719 1975 / 127;
#X obj 1191 2618 sel 0 1;
#X obj 1125 2322 r menu;
#N canvas 4 53 1912 995 midiinfo 0;
#X obj 157 40 r whatpage;
#X obj 157 96 tgl 15 0 empty empty empty 17 7 0 10 -262144 -1 -1 0
1;
#X obj 157 63 == 7;
#X obj 104 133 spigot;
#X obj 103 88 r aux;
#X obj 104 156 sel 1;
#X obj 705 265 t b;
#X obj 104 202 sel 0 1 2 3 4 5 6, f 99;
#X obj 104 179 counter, f 26;
#X msg 84 729 \; p8s1 1/7: Synth1 \; p8s2 CC01: Cutoff \; p8s3 CC02:
Sub \; p8s4 CC03: Octave \; p8s5 CC04: Rate \;;
#X msg 129 629 \; p8s1 2/7: Synth2 \; p8s2 CC05: Resonance \; p8s3
CC06: Sweep \; p8s4 CC07: Sweep time \; p8s5 CC08: Arp \;;
#X msg 193 490 \; p8s1 3/7: Granulator1 \; p8s2 CC09: Trig speed \;
p8s3 CC10: Start point \; p8s4 CC11: Start fine \; p8s5 CC12: Grain
size \;;
#X msg 484 505 \; p8s1 6/7: Mixer2 \; p8s2 CC21: InputVol \; p8s3 CC22:
InToGrain \; p8s4 CC23: SynthToGrain \; p8s5 CC24: Transition \;;
#X msg 419 643 \; p8s1 5/7: Mixer \; p8s2 CC17: SynthVol \; p8s3 CC18:
GrainVol \; p8s4 CC19: SynthRev \; p8s5 CC20: GrainRev \;;
#X floatatom 37 233 5 0 0 0 - - -;
#X msg 230 386 \; p8s1 4/7: Granulator2 \; p8s2 CC13: Spray \; p8s3
CC14: Stereo \; p8s4 CC15: Cutoff \; p8s5 CC16: Resonance;
#X msg 521 406 \; p8s1 7/7: LFO \; p8s2 CC25: FilterLFO \; p8s3 CC26:
FilterSpeed \; p8s4 CC27: GrainLFO \; p8s5 CC28: GrainSpeed \;;
#X msg 710 286 goto 0 \, bang;
#X msg 161 140 goto 0;
#X obj 157 116 t b b, f 23;
#X connect 0 0 2 0;
#X connect 1 0 3 1;
#X connect 1 0 19 0;
#X connect 2 0 1 0;
#X connect 3 0 5 0;
#X connect 4 0 3 0;
#X connect 5 0 8 0;
#X connect 6 0 17 0;
#X connect 7 0 9 0;
#X connect 7 1 10 0;
#X connect 7 2 11 0;
#X connect 7 3 15 0;
#X connect 7 4 13 0;
#X connect 7 5 12 0;
#X connect 7 6 16 0;
#X connect 7 7 6 0;
#X connect 8 0 7 0;
#X connect 8 0 14 0;
#X connect 17 0 8 0;
#X connect 18 0 8 0;
#X connect 19 0 18 0;
#X restore 1715 2640 pd midiinfo;
#X msg 1262 2407 \; p8s5 AUX = MidiCC list;
#X msg 528 1665 \; p5s3 3: Synth Reverb \$1;
#X msg 1497 1817 \; p5s4 4: Grain Reverb \$1;
#X msg 785 2623 \; p8s3 3: Recorder OFF;
#X msg 794 2669 \; p8s3 3: Recorder 2 track;
#X obj 862 2485 i;
#X obj 862 2432 * 3;
#X obj 862 2578 sel 0 1 2;
#X msg 1129 2126 \; p7s5 AUX = Record;
#X obj 1150 1707 t b b;
#X msg 1177 1743 0;
#X obj 1256 1692 t b b;
#X msg 1309 1725 1;
#X obj 1372 1710 t b f;
#X obj 1177 1766 s grainshort;
#X obj 1150 1666 moses 10;
#X obj 1256 1669 moses 20;
#X obj 357 2604 moses 30, f 24;
#X obj 357 2632 t b b;
#X msg 365 2677 0;
#X msg 421 2681 1;
#X msg 570 2736 0;
#X msg 659 2735 1;
#X obj 500 2636 moses 64, f 21;
#X obj 622 2675 t b b b;
#X obj 494 2691 t b b b;
#X msg 571 2823 \; p8s2 2: Pedal INVERTED;
#X msg 477 2891 \; p8s2 2: Pedal NORMAL;
#X obj 927 2547 s rec_mode;
#X obj 862 2455 clip 0 2;
#X msg 819 2740 \; p8s3 3: Recorder 9 track;
#X obj 1124 1949 t b b, f 32;
#X obj 1126 2050 spigot;
#X obj 1299 2060 spigot;
#X msg 1261 2123 \; p7s5 AUX = Stop;
#X obj 1160 1977 r recorder;
#X obj 1160 2000 t a a, f 21;
#X obj 1160 2023 == 0;
#X obj 1258 2026 == 1;
#X obj 1061 1999 loadbang;
#X msg 1061 2022 1;
#X floatatom 1447 2024 5 0 0 0 - - -;
#X connect 0 0 14 0;
#X connect 1 0 20 0;
#X connect 2 0 27 0;
#X connect 2 0 207 0;
#X connect 3 0 84 0;
#X connect 4 0 87 0;
#X connect 5 0 91 0;
#X connect 6 0 94 0;
#X connect 7 0 160 0;
#X connect 7 0 201 0;
#X connect 8 0 78 0;
#X connect 9 0 81 0;
#X connect 10 0 139 0;
#X connect 11 0 19 0;
#X connect 12 0 17 0;
#X connect 14 0 15 0;
#X connect 15 0 202 0;
#X connect 15 0 203 0;
#X connect 16 0 13 0;
#X connect 17 0 252 0;
#X connect 20 0 21 0;
#X connect 21 0 206 0;
#X connect 21 0 22 0;
#X connect 22 0 23 0;
#X connect 24 0 25 0;
#X connect 25 0 26 0;
#X connect 27 0 24 0;
#X connect 28 0 38 0;
#X connect 30 0 39 0;
#X connect 32 0 41 0;
#X connect 34 0 40 0;
#X connect 36 0 37 0;
#X connect 36 0 79 0;
#X connect 38 0 29 0;
#X connect 39 0 230 0;
#X connect 40 0 35 0;
#X connect 41 0 128 0;
#X connect 43 0 42 0;
#X connect 43 0 82 0;
#X connect 44 0 28 0;
#X connect 45 0 47 0;
#X connect 47 0 254 0;
#X connect 48 0 152 0;
#X connect 49 0 50 0;
#X connect 50 0 51 0;
#X connect 52 0 34 0;
#X connect 53 0 32 0;
#X connect 54 0 55 0;
#X connect 55 0 56 0;
#X connect 57 0 58 0;
#X connect 58 0 59 0;
#X connect 60 0 67 0;
#X connect 61 0 60 0;
#X connect 62 0 64 0;
#X connect 63 0 64 1;
#X connect 64 0 65 0;
#X connect 65 0 66 0;
#X connect 66 0 68 0;
#X connect 67 0 62 0;
#X connect 67 1 63 0;
#X connect 70 0 180 0;
#X connect 71 0 253 0;
#X connect 72 0 71 0;
#X connect 78 0 36 0;
#X connect 79 0 80 0;
#X connect 81 0 43 0;
#X connect 82 0 83 0;
#X connect 84 0 85 0;
#X connect 85 0 210 0;
#X connect 85 0 213 0;
#X connect 86 0 245 0;
#X connect 87 0 88 0;
#X connect 88 0 168 0;
#X connect 88 0 211 0;
#X connect 89 0 90 0;
#X connect 91 0 92 0;
#X connect 92 0 173 0;
#X connect 92 0 212 0;
#X connect 93 0 98 0;
#X connect 94 0 95 0;
#X connect 95 0 205 0;
#X connect 95 0 169 0;
#X connect 96 0 97 0;
#X connect 99 0 107 0;
#X connect 100 0 99 0;
#X connect 101 0 109 0;
#X connect 102 0 104 0;
#X connect 103 0 104 1;
#X connect 104 0 105 0;
#X connect 105 0 106 0;
#X connect 106 0 101 1;
#X connect 107 0 102 0;
#X connect 107 1 103 0;
#X connect 108 0 101 0;
#X connect 110 0 320 0;
#X connect 111 0 110 0;
#X connect 112 0 215 0;
#X connect 112 0 111 0;
#X connect 113 0 334 0;
#X connect 113 0 321 0;
#X connect 114 0 113 0;
#X connect 115 0 114 0;
#X connect 115 0 116 0;
#X connect 117 0 118 0;
#X connect 118 0 156 0;
#X connect 119 0 217 0;
#X connect 122 0 123 0;
#X connect 123 0 244 0;
#X connect 124 0 126 0;
#X connect 125 0 122 0;
#X connect 128 0 216 0;
#X connect 130 0 197 0;
#X connect 131 0 130 0;
#X connect 131 0 159 0;
#X connect 133 0 198 0;
#X connect 134 0 133 0;
#X connect 135 0 221 0;
#X connect 136 0 142 0;
#X connect 137 0 136 0;
#X connect 138 0 137 0;
#X connect 139 0 117 0;
#X connect 140 0 141 0;
#X connect 141 0 139 0;
#X connect 141 1 139 1;
#X connect 142 0 132 0;
#X connect 143 0 196 0;
#X connect 144 0 143 0;
#X connect 144 0 158 0;
#X connect 145 0 195 0;
#X connect 146 0 145 0;
#X connect 147 0 218 0;
#X connect 148 0 150 0;
#X connect 149 0 155 0;
#X connect 149 0 199 0;
#X connect 150 0 151 0;
#X connect 152 0 30 0;
#X connect 153 0 152 0;
#X connect 153 1 152 1;
#X connect 154 0 153 0;
#X connect 155 0 148 0;
#X connect 156 0 214 0;
#X connect 156 0 119 0;
#X connect 157 0 148 0;
#X connect 158 0 149 0;
#X connect 159 0 138 0;
#X connect 160 0 161 0;
#X connect 161 0 162 0;
#X connect 162 0 163 0;
#X connect 162 1 164 0;
#X connect 165 0 184 0;
#X connect 166 0 165 0;
#X connect 166 0 167 0;
#X connect 168 0 89 0;
#X connect 169 0 96 0;
#X connect 170 0 185 0;
#X connect 171 0 170 0;
#X connect 171 0 172 0;
#X connect 173 0 93 0;
#X connect 174 0 179 0;
#X connect 175 0 174 0;
#X connect 175 0 178 0;
#X connect 177 0 175 0;
#X connect 182 0 166 0;
#X connect 183 0 171 0;
#X connect 186 0 190 0;
#X connect 187 0 186 0;
#X connect 187 0 189 0;
#X connect 188 0 187 0;
#X connect 191 0 131 0;
#X connect 191 0 142 1;
#X connect 192 0 134 0;
#X connect 192 0 220 0;
#X connect 193 0 144 0;
#X connect 193 0 150 1;
#X connect 193 0 350 0;
#X connect 194 0 146 0;
#X connect 194 0 219 0;
#X connect 199 0 200 0;
#X connect 200 0 151 0;
#X connect 201 0 204 0;
#X connect 203 0 16 0;
#X connect 207 0 208 0;
#X connect 208 0 209 0;
#X connect 213 0 86 0;
#X connect 214 0 120 0;
#X connect 216 0 33 0;
#X connect 217 0 121 0;
#X connect 218 0 157 0;
#X connect 219 0 147 0;
#X connect 219 0 233 0;
#X connect 220 0 135 0;
#X connect 221 0 136 0;
#X connect 222 0 226 0;
#X connect 223 0 222 0;
#X connect 223 0 225 0;
#X connect 224 0 223 0;
#X connect 226 0 227 0;
#X connect 227 0 256 0;
#X connect 227 1 257 0;
#X connect 228 0 229 0;
#X connect 229 0 231 0;
#X connect 229 1 236 0;
#X connect 230 0 31 0;
#X connect 231 0 147 0;
#X connect 232 0 234 0;
#X connect 233 0 232 0;
#X connect 234 0 235 0;
#X connect 235 0 147 0;
#X connect 236 0 232 0;
#X connect 237 0 336 0;
#X connect 238 0 237 0;
#X connect 239 0 238 0;
#X connect 243 0 325 0;
#X connect 244 0 124 0;
#X connect 244 0 127 0;
#X connect 246 0 248 0;
#X connect 247 0 251 0;
#X connect 248 0 250 0;
#X connect 248 0 316 0;
#X connect 249 0 247 0;
#X connect 249 0 319 0;
#X connect 251 0 246 0;
#X connect 252 0 11 0;
#X connect 252 0 18 0;
#X connect 253 0 70 0;
#X connect 253 0 73 0;
#X connect 254 0 255 0;
#X connect 254 1 46 0;
#X connect 260 0 109 0;
#X connect 263 0 267 0;
#X connect 265 0 266 0;
#X connect 266 0 264 0;
#X connect 267 0 262 0;
#X connect 268 0 202 0;
#X connect 269 0 268 0;
#X connect 270 0 206 0;
#X connect 271 0 270 0;
#X connect 272 0 210 0;
#X connect 273 0 209 0;
#X connect 274 0 273 0;
#X connect 275 0 272 0;
#X connect 276 0 211 0;
#X connect 277 0 212 0;
#X connect 278 0 205 0;
#X connect 279 0 204 0;
#X connect 280 0 276 0;
#X connect 281 0 277 0;
#X connect 282 0 278 0;
#X connect 283 0 279 0;
#X connect 284 0 37 0;
#X connect 285 0 42 0;
#X connect 286 0 214 0;
#X connect 287 0 127 0;
#X connect 288 0 284 0;
#X connect 289 0 285 0;
#X connect 290 0 286 0;
#X connect 291 0 287 0;
#X connect 292 0 18 0;
#X connect 293 0 73 0;
#X connect 294 0 215 0;
#X connect 295 0 116 0;
#X connect 296 0 292 0;
#X connect 297 0 293 0;
#X connect 298 0 294 0;
#X connect 299 0 295 0;
#X connect 300 0 167 0;
#X connect 301 0 172 0;
#X connect 302 0 189 0;
#X connect 303 0 225 0;
#X connect 304 0 300 0;
#X connect 305 0 301 0;
#X connect 306 0 302 0;
#X connect 307 0 303 0;
#X connect 308 0 312 0;
#X connect 309 0 311 0;
#X connect 310 0 315 0;
#X connect 311 0 220 0;
#X connect 312 0 142 1;
#X connect 313 0 314 0;
#X connect 314 0 150 1;
#X connect 315 0 219 0;
#X connect 316 0 259 0;
#X connect 316 1 258 0;
#X connect 317 0 247 0;
#X connect 317 0 238 0;
#X connect 317 0 175 0;
#X connect 324 0 326 0;
#X connect 324 0 347 0;
#X connect 325 0 348 0;
#X connect 326 0 322 0;
#X connect 326 0 265 0;
#X connect 326 1 323 0;
#X connect 326 1 263 0;
#X connect 326 2 349 0;
#X connect 326 2 263 0;
#X connect 328 1 329 0;
#X connect 329 0 333 0;
#X connect 331 0 333 0;
#X connect 332 0 331 0;
#X connect 334 0 328 0;
#X connect 334 1 335 0;
#X connect 335 0 330 0;
#X connect 335 1 332 0;
#X connect 336 0 337 0;
#X connect 336 1 342 0;
#X connect 337 0 240 0;
#X connect 337 1 338 0;
#X connect 338 0 241 0;
#X connect 339 0 241 0;
#X connect 340 0 242 0;
#X connect 341 0 242 0;
#X connect 342 0 344 0;
#X connect 342 1 343 0;
#X connect 343 0 345 0;
#X connect 343 1 341 0;
#X connect 343 2 339 0;
#X connect 344 0 346 0;
#X connect 344 1 339 0;
#X connect 344 2 340 0;
#X connect 348 0 324 0;
#X connect 350 0 351 0;
#X connect 350 1 352 0;
#X connect 351 0 327 0;
#X connect 352 0 353 0;
#X connect 354 0 355 0;
#X connect 354 0 360 0;
#X connect 355 0 356 0;
#X connect 355 1 357 0;
#X connect 356 0 351 1;
#X connect 357 0 352 1;
#X connect 358 0 359 0;
#X connect 359 0 351 1;
#X restore 15 152 pd mapping;
#N canvas 724 53 1154 847 guts 0;
#N canvas 4 50 450 300 mixer 0;
#X obj 19 37 inlet~;
#X obj 19 58 outlet~;
#X obj 89 37 inlet~;
#X obj 89 58 outlet~;
#X connect 0 0 1 0;
#X connect 2 0 3 0;
#X restore 45 1538 pd mixer;
#X f 17;
#X obj 53 1960 throw~ outL;
#X obj 152 1964 throw~ outR;
#X obj 125 1106 vsl 15 128 0 127 0 0 empty empty empty 0 -9 0 10 -262144
-1 -1 9534 1;
#X obj 33 103 r notes;
#X obj 24 286 spigot;
#X obj 57 243 tgl 15 0 empty empty empty 17 7 0 10 -262144 -1 -1 1
1;
#X msg 223 261 -12;
#X msg 261 270 0;
#X msg 321 273 12;
#X msg 368 272 24;
#X obj 193 218 sel 0 1 2 3 4, f 23;
#X msg 193 239 -24;
#X obj 46 322 +, f 16;
#X obj 31 148 unpack 0 0;
#X obj 31 181 stripnote;
#X obj 454 1312 granularkriss;
#X obj 57 211 r synthnotes;
#X obj 57 263 == 1;
#X obj 117 87 loadbang;
#X msg 108 173 48;
#X obj 374 217 loadbang;
#N canvas 4 53 953 944 fader 0;
#X obj 13 116 inlet~;
#X obj 13 137 *~;
#X obj 13 230 outlet~;
#X obj 73 115 inlet~;
#X obj 73 136 *~;
#X obj 73 229 outlet~;
#X obj 147 19 inlet;
#X obj 147 131 line~;
#X obj 147 40 / 64;
#X obj 13 160 clip~ -0.5 0.5;
#X obj 70 190 clip~ -0.5 0.5;
#X msg 147 110 \$1 250;
#X connect 0 0 1 0;
#X connect 1 0 9 0;
#X connect 3 0 4 0;
#X connect 4 0 10 0;
#X connect 6 0 8 0;
#X connect 7 0 4 1;
#X connect 7 0 1 1;
#X connect 8 0 11 0;
#X connect 9 0 2 0;
#X connect 10 0 5 0;
#X connect 11 0 7 0;
#X restore 455 1408 pd fader;
#X f 16;
#X obj 722 1224 vsl 15 128 0 127 0 0 empty empty empty 0 -9 0 10 -262144
-1 -1 11806 1;
#X obj 731 1152 r grainvol;
#N canvas 116 76 1680 968 efx 0;
#X obj 18 18 inlet~;
#X obj 389 383 *~;
#X obj 629 758 outlet~;
#X obj 708 763 outlet~;
#X obj 22 414 *~;
#X obj 22 475 else/plate.rev~ 0 0.4 1 0.2 1;
#X msg 176 416 \$1 50;
#X obj 22 435 *~ 0.2;
#X obj 176 437 line~;
#X obj 442 23 r revsend2;
#X msg 442 44 \$1 50;
#X obj 442 213 line~;
#X obj 97 373 loadbang;
#X msg 97 394 1;
#X obj 385 450 else/giga.rev~ -size 1000 -damp 1 -bw 0.7 -dry 0 -early
0.18 -late 1 -spread 1;
#X obj 754 451 else/giga.rev~ -size 780 -damp 1 -bw 0.7 -dry 0 -early
0.18 -late 1 -spread 1;
#X obj 758 403 else/chorus~ 6 1 1, f 22;
#X obj 442 266 +~;
#X obj 501 215 line~;
#X obj 542 116 loadbang;
#X msg 542 139 0;
#X obj 602 110 r rev_swell;
#X msg 602 164 \$1 500;
#X obj 602 133 * 4;
#X floatatom 63 329 5 0 0 0 - - -;
#X obj 63 284 r grainshort;
#X connect 0 0 1 0;
#X connect 0 0 4 0;
#X connect 1 0 14 0;
#X connect 1 0 16 0;
#X connect 4 0 7 0;
#X connect 5 0 2 0;
#X connect 5 1 3 0;
#X connect 6 0 8 0;
#X connect 7 0 5 0;
#X connect 8 0 4 1;
#X connect 9 0 10 0;
#X connect 10 0 11 0;
#X connect 11 0 17 0;
#X connect 12 0 13 0;
#X connect 13 0 6 0;
#X connect 14 0 2 0;
#X connect 14 1 3 0;
#X connect 15 0 3 0;
#X connect 15 1 2 0;
#X connect 16 0 15 0;
#X connect 17 0 1 1;
#X connect 18 0 17 1;
#X connect 19 0 20 0;
#X connect 20 0 18 0;
#X connect 21 0 23 0;
#X connect 22 0 18 0;
#X connect 23 0 22 0;
#X connect 24 0 6 0;
#X connect 25 0 24 0;
#X restore 556 1532 pd efx;
#X obj 228 1208 r~ inL;
#N canvas 4 53 450 300 fader 0;
#X obj 13 116 inlet~;
#X obj 13 137 *~;
#X obj 13 158 outlet~;
#X obj 73 115 inlet~;
#X obj 73 136 *~;
#X obj 73 157 outlet~;
#X obj 147 19 inlet;
#X msg 147 110 \$1 50;
#X obj 147 131 line~;
#X obj 147 40 / 127;
#X obj 217 19 inlet;
#X msg 217 110 \$1 50;
#X obj 217 131 line~;
#X obj 217 40 / 127;
#X obj 200 178 *~;
#X obj 200 199 outlet~;
#X obj 260 177 *~;
#X obj 260 198 outlet~;
#X connect 0 0 1 0;
#X connect 0 0 14 0;
#X connect 1 0 2 0;
#X connect 3 0 4 0;
#X connect 3 0 16 0;
#X connect 4 0 5 0;
#X connect 6 0 9 0;
#X connect 7 0 8 0;
#X connect 8 0 4 1;
#X connect 8 0 1 1;
#X connect 9 0 7 0;
#X connect 10 0 13 0;
#X connect 11 0 12 0;
#X connect 12 0 14 1;
#X connect 12 0 16 1;
#X connect 13 0 11 0;
#X connect 14 0 15 0;
#X connect 16 0 17 0;
#X restore 267 1242 pd fader;
#X f 16;
#X obj 288 1208 r~ inR;
#X obj 347 1083 vsl 15 128 0 127 0 0 empty empty empty 0 -9 0 10 -262144
-1 -1 0 1;
#X obj 348 1052 r invol;
#X obj 193 184 change;
#X obj 407 1083 vsl 15 128 0 127 0 0 empty empty empty 0 -9 0 10 -262144
-1 -1 0 1;
#X obj 408 1052 r insend;
#X obj 851 1087 vsl 15 128 0 127 0 0 empty empty empty 0 -9 0 10 -262144
-1 -1 1639 1;
#X obj 851 1066 r trig_speed;
#X obj 740 1497 *;
#X floatatom 850 1358 5 0 0 0 - - -;
#X obj 851 1223 moses 35;
#X obj 846 1326 cyclone/scale 0 35 0.1 2 1.5 @classic 0;
#X obj 887 1263 cyclone/scale 36 127 2 3 1.5 @classic 0;
#X obj 1161 1117 vsl 15 128 0 127 0 0 empty empty empty 0 -9 0 10 -262144
-1 -1 2087 1;
#X obj 739 1542 *;
#X floatatom 1162 1418 5 0 0 0 - - -;
#X obj 1161 1253 moses 35;
#X obj 1164 1073 r grain_size;
#X obj 1156 1356 cyclone/scale 0 35 3 1 1.5 @classic 0;
#X obj 1197 1293 cyclone/scale 36 127 1 0.5 1.5 @classic 0;
#X obj 85 1647 r boost;
#X obj 85 1668 vsl 15 128 0 127 0 0 empty empty empty 0 -9 0 10 -262144
-1 -1 2955 1;
#X obj 85 1804 cyclone/scale 0 127 0.5 2;
#X msg 85 1825 \$1 50;
#X obj 85 1846 line~;
#X obj 149 1883 *~;
#X obj 48 1877 *~;
#X obj 847 1447 t b f;
#X obj 1162 1438 t b f;
#N canvas 4 53 450 300 fader 0;
#X obj 13 56 inlet~;
#X obj 13 247 *~;
#X obj 13 268 outlet~;
#X obj 153 55 inlet~;
#X obj 153 246 *~;
#X obj 153 267 outlet~;
#X obj 227 19 inlet;
#X msg 227 110 \$1 50;
#X obj 227 131 line~;
#X obj 227 40 / 127;
#X obj 297 19 inlet;
#X msg 297 110 \$1 50;
#X obj 297 131 line~;
#X obj 297 40 / 127;
#X obj 280 178 *~;
#X obj 280 199 outlet~;
#X obj 340 177 *~;
#X obj 340 198 outlet~;
#X connect 0 0 1 0;
#X connect 0 0 14 0;
#X connect 1 0 2 0;
#X connect 3 0 4 0;
#X connect 3 0 16 0;
#X connect 4 0 5 0;
#X connect 6 0 9 0;
#X connect 7 0 8 0;
#X connect 8 0 4 1;
#X connect 8 0 1 1;
#X connect 9 0 7 0;
#X connect 10 0 13 0;
#X connect 11 0 12 0;
#X connect 12 0 14 1;
#X connect 12 0 16 1;
#X connect 13 0 11 0;
#X connect 14 0 15 0;
#X connect 16 0 17 0;
#X restore 52 1273 pd fader;
#X f 16;
#X obj 163 1132 vsl 15 128 0 127 0 0 empty empty empty 0 -9 0 10 -262144
-1 -1 12700 1;
#X obj 164 1088 r synthsend;
#X obj 47 398 kl_filterrev synth1;
#X obj 195 76 r synth1_octave;
#X obj 195 154 i;
#X obj 195 128 cyclone/scale 0 127 0 4;
#X obj 128 289 t b b f;
#N canvas 623 351 1293 693 delay 0;
#X obj 48 59 r rev_swell;
#X obj 25 35 inlet~;
#X obj 119 95 inlet~;
#X obj 21 439 outlet~;
#X obj 124 441 outlet~;
#X obj 25 191 *~;
#X obj 116 189 *~;
#X obj 198 95 loadbang;
#X msg 198 126 0;
#X obj 48 141 line~;
#X msg 47 114 \$1 2000;
#X obj 30 324 else/fbdelay~ 1500 0.9 2;
#X obj 205 323 else/fbdelay~ 1500 0.9 2;
#X obj 48 82 * 8;
#X obj 291 216 r rev_swell;
#X obj 291 239 sel 1 0, f 33;
#X msg 291 262 0.9;
#X msg 399 272 0.4;
#X connect 0 0 13 0;
#X connect 1 0 5 0;
#X connect 2 0 6 0;
#X connect 5 0 11 0;
#X connect 6 0 12 0;
#X connect 7 0 8 0;
#X connect 8 0 9 0;
#X connect 9 0 5 1;
#X connect 9 0 6 1;
#X connect 10 0 9 0;
#X connect 11 0 3 0;
#X connect 12 0 4 0;
#X connect 13 0 10 0;
#X connect 14 0 15 0;
#X connect 15 0 16 0;
#X connect 15 1 17 0;
#X connect 16 0 11 2;
#X connect 16 0 12 2;
#X connect 17 0 11 2;
#X connect 17 0 12 2;
#X restore 547 1347 pd delay;
#X obj 161 1920 *~;
#X obj 60 1914 *~;
#X obj 269 1845 line~;
#X obj 285 1684 loadbang;
#X obj 285 1708 t b b, f 22;
#X msg 285 1753 1 1000;
#X msg 407 1735 0;
#X obj 286 1730 del 2000;
#X obj 184 311 r midi_synthnotes;
#N canvas 28 53 1820 995 recorder 0;
#X obj 282 839 receive~ 2L;
#X obj 365 838 receive~ 2R;
#X msg 302 517 stop, f 6;
#X msg 398 501 start;
#X obj 287 910 writesf~ 2;
#X obj 171 45 loadbang;
#X obj 98 203 textfile;
#X msg 638 113 clear;
#X obj 98 320 + 1;
#X obj 98 343 t f f, f 16;
#X floatatom 190 387 5 0 0 0 - - -;
#X obj 190 409 s recname;
#X obj 98 382 t b f b;
#X msg 664 166 add \$1;
#X floatatom 98 226 5 0 0 0 - - -;
#X obj 573 260 r recname;
#X msg 573 538 open /usbdrive/organelle_rec0_snowgrains_stereo.wav
;
#X obj 397 437 bng 15 250 50 0 empty empty empty 17 7 0 10 -262144
-1 -1;
#X obj 303 442 bng 15 250 50 0 empty empty empty 17 7 0 10 -262144
-1 -1;
#X obj 303 462 t b b;
#X msg 1823 384 \; p7s5 RECORDING;
#X msg 1712 389 \; p7s5 Stopped;
#X obj 1714 183 r aux;
#X obj 1812 182 r whatpage;
#X obj 1812 205 == 6;
#X obj 1819 259 tgl 15 0 empty empty empty 17 7 0 10 -262144 -1 -1
0 1;
#X obj 1714 256 spigot;
#X obj 1708 289 tgl 15 0 empty empty empty 17 7 0 10 -262144 -1 -1
0 1;
#X obj 1723 320 sel 0 1;
#X obj 1638 324 s recorder;
#X obj 349 349 r recorder;
#X obj 349 372 sel 0 1;
#X obj 1714 206 sel 1;
#X obj 1716 449 r recorder;
#X obj 1716 495 tgl 15 0 empty empty empty 17 7 0 10 -262144 -1 -1
0 1;
#X obj 1717 572 tgl 15 0 empty empty empty 17 7 0 10 -262144 -1 -1
0 1;
#X msg 1941 708 \; p1s5 RECORDING;
#X msg 1941 759 \; p2s5 RECORDING;
#X msg 1939 811 \; p3s5 RECORDING;
#X msg 1939 862 \; p4s5 RECORDING;
#X msg 2054 706 \; p5s5 RECORDING;
#X msg 2054 757 \; p6s5 RECORDING;
#X obj 1716 614 sel 0 1;
#X obj 1717 529 metro 1000;
#X msg 1712 711 \; p1s5 RECORDING.;
#X msg 1711 764 \; p2s5 RECORDING.;
#X msg 1709 815 \; p3s5 RECORDING.;
#X msg 1709 866 \; p4s5 RECORDING.;
#X msg 1824 710 \; p5s5 RECORDING.;
#X msg 1824 762 \; p6s5 RECORDING.;
#X obj 1063 260 r recname;
#X msg 1063 538 open /usbdrive/organelle_rec0_snowgrains_9track.wav
;
#X obj 1314 774 receive~ synthR;
#X obj 680 720 receive~ innL;
#X obj 765 753 receive~ innR;
#X obj 861 717 receive~ granularL;
#X obj 955 749 receive~ granularR;
#X obj 1040 777 receive~ reverbL;
#X obj 1148 780 receive~ reverbR;
#X obj 392 724 spigot;
#X obj 418 665 r rec_mode;
#X obj 418 688 == 1;
#X obj 206 616 spigot;
#X obj 232 557 r rec_mode;
#X obj 232 580 == 1;
#X obj 468 724 spigot;
#X obj 494 665 r rec_mode;
#X obj 493 688 == 2;
#X obj 306 694 spigot;
#X obj 332 635 r rec_mode;
#X obj 331 658 == 2;
#X obj 587 670 spigot;
#X obj 613 611 r rec_mode;
#X obj 613 634 == 1;
#X obj 981 651 spigot;
#X obj 1007 592 r rec_mode;
#X obj 1006 615 == 2;
#X obj 302 540 t a a, f 15;
#X obj 399 593 t a a, f 16;
#X obj 397 465 t b b b, f 115;
#X obj 687 864 writesf~ 9, f 121;
#X obj 1219 806 receive~ synthL;
#X obj 1406 811 receive~ synthM;
#X obj 157 286 != 0;
#X obj 157 309 s usb;
#X obj 218 232 loadbang;
#X obj 218 255 del 25;
#X obj 23 147 loadbang;
#X obj 23 170 del 100;
#X obj 97 273 - 1;
#X msg 23 193 0;
#X msg 177 92 read /usbdrive/rec.txt \, rewind \, bang;
#X obj 573 298 sprintf set open /usbdrive/organelle_rec%s_snowgrains_stereo.wav
, f 75;
#X obj 1061 297 sprintf set open /usbdrive/organelle_rec%s_snowgrains_9track.wav
, f 75;
#X msg 525 213 write /usbdrive/rec.txt;
#X connect 0 0 4 0;
#X connect 1 0 4 1;
#X connect 2 0 77 0;
#X connect 3 0 78 0;
#X connect 5 0 91 0;
#X connect 6 0 14 0;
#X connect 7 0 6 0;
#X connect 8 0 9 0;
#X connect 9 0 12 0;
#X connect 9 1 10 0;
#X connect 10 0 11 0;
#X connect 12 0 94 0;
#X connect 12 1 13 0;
#X connect 12 2 7 0;
#X connect 13 0 6 0;
#X connect 14 0 83 0;
#X connect 14 0 89 0;
#X connect 15 0 92 0;
#X connect 16 0 71 0;
#X connect 17 0 79 0;
#X connect 18 0 19 0;
#X connect 19 0 91 0;
#X connect 19 1 2 0;
#X connect 22 0 32 0;
#X connect 23 0 24 0;
#X connect 24 0 25 0;
#X connect 25 0 26 1;
#X connect 26 0 27 0;
#X connect 27 0 28 0;
#X connect 27 0 29 0;
#X connect 28 0 21 0;
#X connect 28 1 20 0;
#X connect 30 0 31 0;
#X connect 31 0 18 0;
#X connect 31 1 17 0;
#X connect 32 0 26 0;
#X connect 33 0 34 0;
#X connect 34 0 43 0;
#X connect 35 0 42 0;
#X connect 42 0 44 0;
#X connect 42 0 48 0;
#X connect 42 0 49 0;
#X connect 42 0 47 0;
#X connect 42 0 46 0;
#X connect 42 0 45 0;
#X connect 42 1 36 0;
#X connect 42 1 41 0;
#X connect 42 1 40 0;
#X connect 42 1 39 0;
#X connect 42 1 38 0;
#X connect 42 1 37 0;
#X connect 43 0 35 0;
#X connect 50 0 93 0;
#X connect 51 0 74 0;
#X connect 52 0 80 7;
#X connect 53 0 80 0;
#X connect 54 0 80 1;
#X connect 55 0 80 2;
#X connect 56 0 80 3;
#X connect 57 0 80 4;
#X connect 58 0 80 5;
#X connect 59 0 4 0;
#X connect 60 0 61 0;
#X connect 61 0 59 1;
#X connect 62 0 4 0;
#X connect 63 0 64 0;
#X connect 64 0 62 1;
#X connect 65 0 80 0;
#X connect 66 0 67 0;
#X connect 67 0 65 1;
#X connect 68 0 80 0;
#X connect 69 0 70 0;
#X connect 70 0 68 1;
#X connect 71 0 4 0;
#X connect 72 0 73 0;
#X connect 73 0 71 1;
#X connect 74 0 80 0;
#X connect 75 0 76 0;
#X connect 76 0 74 1;
#X connect 77 0 62 0;
#X connect 77 1 68 0;
#X connect 78 0 59 0;
#X connect 78 1 65 0;
#X connect 79 0 3 0;
#X connect 79 1 16 0;
#X connect 79 2 51 0;
#X connect 81 0 80 6;
#X connect 82 0 80 8;
#X connect 83 0 84 0;
#X connect 85 0 86 0;
#X connect 86 0 14 0;
#X connect 87 0 88 0;
#X connect 88 0 90 0;
#X connect 89 0 8 0;
#X connect 90 0 89 1;
#X connect 91 0 6 0;
#X connect 92 0 16 0;
#X connect 93 0 51 0;
#X connect 94 0 6 0;
#X restore 616 1827 pd recorder;
#X obj 248 1943 send~ 2L;
#X obj 322 1943 send~ 2R;
#X obj 296 1478 send~ granularL;
#X obj 401 1477 send~ granularR;
#X obj 548 1621 send~ reverbL;
#X obj 653 1620 send~ reverbR;
#X obj 239 1369 send~ innL;
#X obj 344 1366 send~ innR;
#X obj 519 692 vsl 15 128 0 127 0 0 empty empty empty 0 -9 0 10 -262144
-1 -1 9534 1;
#X obj 518 657 r synthvol;
#X obj 126 1028 loadbang;
#X msg 126 1051 127;
#X obj 83 873 *~;
#X obj 282 876 *~;
#X msg 519 918 \$1 50;
#X obj 519 939 line~;
#X obj 368 868 *~;
#X obj 49 1103 *~ 1;
#X obj 89 1103 *~ 1;
#X obj 83 917 send~ synthM;
#X obj 275 996 send~ synthL;
#X obj 363 996 send~ synthR;
#X obj 519 828 / 127;
#X connect 0 0 54 0;
#X connect 0 1 53 0;
#X connect 3 0 57 2;
#X connect 4 0 14 0;
#X connect 5 0 13 0;
#X connect 6 0 18 0;
#X connect 7 0 64 0;
#X connect 8 0 64 0;
#X connect 9 0 64 0;
#X connect 10 0 64 0;
#X connect 11 0 12 0;
#X connect 11 1 7 0;
#X connect 11 2 8 0;
#X connect 11 3 9 0;
#X connect 11 4 10 0;
#X connect 12 0 64 0;
#X connect 13 0 60 0;
#X connect 14 0 15 0;
#X connect 14 1 15 1;
#X connect 15 0 5 0;
#X connect 16 0 65 0;
#X connect 16 0 22 0;
#X connect 16 1 65 1;
#X connect 16 1 22 1;
#X connect 17 0 6 0;
#X connect 18 0 5 1;
#X connect 19 0 20 0;
#X connect 20 0 13 0;
#X connect 21 0 8 0;
#X connect 22 0 0 0;
#X connect 22 0 25 0;
#X connect 22 0 78 0;
#X connect 22 1 0 1;
#X connect 22 1 25 0;
#X connect 22 1 79 0;
#X connect 23 0 36 0;
#X connect 24 0 23 0;
#X connect 25 0 0 0;
#X connect 25 0 80 0;
#X connect 25 1 0 1;
#X connect 25 1 81 0;
#X connect 26 0 27 0;
#X connect 27 0 0 0;
#X connect 27 0 82 0;
#X connect 27 1 0 1;
#X connect 27 1 83 0;
#X connect 27 2 16 0;
#X connect 27 3 16 1;
#X connect 28 0 27 1;
#X connect 29 0 27 2;
#X connect 30 0 29 0;
#X connect 31 0 11 0;
#X connect 32 0 27 3;
#X connect 33 0 32 0;
#X connect 34 0 38 0;
#X connect 35 0 34 0;
#X connect 36 0 42 0;
#X connect 37 0 55 0;
#X connect 38 0 39 0;
#X connect 38 1 40 0;
#X connect 39 0 37 0;
#X connect 40 0 37 0;
#X connect 41 0 44 0;
#X connect 42 0 22 2;
#X connect 43 0 56 0;
#X connect 44 0 46 0;
#X connect 44 1 47 0;
#X connect 45 0 41 0;
#X connect 46 0 43 0;
#X connect 47 0 43 0;
#X connect 48 0 49 0;
#X connect 49 0 50 0;
#X connect 50 0 51 0;
#X connect 51 0 52 0;
#X connect 52 0 53 1;
#X connect 52 0 54 1;
#X connect 53 0 66 0;
#X connect 54 0 67 0;
#X connect 55 0 36 0;
#X connect 55 1 36 1;
#X connect 56 0 42 0;
#X connect 56 1 42 1;
#X connect 57 0 0 0;
#X connect 57 1 0 1;
#X connect 57 2 16 0;
#X connect 57 3 16 1;
#X connect 58 0 57 3;
#X connect 59 0 58 0;
#X connect 60 0 88 0;
#X connect 60 0 93 0;
#X connect 60 0 94 0;
#X connect 60 1 89 0;
#X connect 60 1 93 0;
#X connect 60 2 92 0;
#X connect 60 2 94 0;
#X connect 61 0 63 0;
#X connect 62 0 31 0;
#X connect 63 0 62 0;
#X connect 64 0 13 0;
#X connect 64 1 13 0;
#X connect 64 2 13 1;
#X connect 65 0 22 0;
#X connect 65 1 22 1;
#X connect 66 0 2 0;
#X connect 66 0 77 0;
#X connect 67 0 1 0;
#X connect 67 0 76 0;
#X connect 68 0 66 1;
#X connect 68 0 67 1;
#X connect 69 0 70 0;
#X connect 70 0 73 0;
#X connect 70 1 72 0;
#X connect 71 0 68 0;
#X connect 72 0 68 0;
#X connect 73 0 71 0;
#X connect 74 0 13 0;
#X connect 84 0 98 0;
#X connect 84 0 3 0;
#X connect 85 0 84 0;
#X connect 86 0 87 0;
#X connect 87 0 3 0;
#X connect 88 0 95 0;
#X connect 89 0 96 0;
#X connect 90 0 91 0;
#X connect 91 0 92 1;
#X connect 91 0 89 1;
#X connect 91 0 88 1;
#X connect 92 0 97 0;
#X connect 93 0 57 0;
#X connect 94 0 57 1;
#X connect 98 0 90 0;
#X restore 15 174 pd guts;
#N canvas 4 53 616 847 monitor 0;
#X obj 78 89 vsl 15 64 0 1 0 0 empty empty empty 0 -9 0 10 -262144
-1 -1 1515 1;
#X obj 78 65 r p1k1;
#X obj 135 89 vsl 15 64 0 1 0 0 empty empty empty 0 -9 0 10 -262144
-1 -1 6300 1;
#X obj 192 89 vsl 15 64 0 1 0 0 empty empty empty 0 -9 0 10 -262144
-1 -1 5438 1;
#X obj 249 89 vsl 15 64 0 1 0 0 empty empty empty 0 -9 0 10 -262144
-1 -1 209 1;
#X obj 135 65 r p1k2;
#X obj 192 65 r p1k3;
#X obj 249 65 r p1k4;
#X obj 76 193 vsl 15 64 0 1 0 0 empty empty empty 0 -9 0 10 -262144
-1 -1 0 1;
#X obj 133 193 vsl 15 64 0 1 0 0 empty empty empty 0 -9 0 10 -262144
-1 -1 2205 1;
#X obj 190 193 vsl 15 64 0 1 0 0 empty empty empty 0 -9 0 10 -262144
-1 -1 4255 1;
#X obj 247 193 vsl 15 64 0 1 0 0 empty empty empty 0 -9 0 10 -262144
-1 -1 0 1;
#X obj 76 296 vsl 15 64 0 1 0 0 empty empty empty 0 -9 0 10 -262144
-1 -1 813 1;
#X obj 133 296 vsl 15 64 0 1 0 0 empty empty empty 0 -9 0 10 -262144
-1 -1 0 1;
#X obj 190 296 vsl 15 64 0 1 0 0 empty empty empty 0 -9 0 10 -262144
-1 -1 0 1;
#X obj 247 296 vsl 15 64 0 1 0 0 empty empty empty 0 -9 0 10 -262144
-1 -1 2506 1;
#X obj 76 401 vsl 15 64 0 1 0 0 empty empty empty 0 -9 0 10 -262144
-1 -1 1312 1;
#X obj 133 401 vsl 15 64 0 1 0 0 empty empty empty 0 -9 0 10 -262144
-1 -1 6300 1;
#X obj 190 401 vsl 15 64 0 1 0 0 empty empty empty 0 -9 0 10 -262144
-1 -1 3018 1;
#X obj 247 401 vsl 15 64 0 1 0 0 empty empty empty 0 -9 0 10 -262144
-1 -1 0 1;
#X obj 26 98 r p1a;
#X obj 26 120 tgl 15 0 empty empty empty 17 7 0 10 -262144 -1 -1 0
1;
#X obj 28 227 tgl 15 0 empty empty empty 17 7 0 10 -262144 -1 -1 0
1;
#X obj 29 329 tgl 15 0 empty empty empty 17 7 0 10 -262144 -1 -1 0
1;
#X obj 30 437 tgl 15 0 empty empty empty 17 7 0 10 -262144 -1 -1 0
1;
#X obj 76 169 r p2k1;
#X obj 133 170 r p2k2;
#X obj 190 169 r p2k3;
#X obj 247 169 r p2k4;
#X obj 76 274 r p3k1;
#X obj 132 273 r p3k2;
#X obj 190 272 r p3k3;
#X obj 248 272 r p3k4;
#X obj 76 377 r p4k1;
#X obj 133 377 r p4k2;
#X obj 191 378 r p4k3;
#X obj 247 378 r p4k4;
#X obj 28 205 r p2a;
#X obj 29 308 r p3a;
#X obj 30 417 r p4a;
#X obj 367 89 vsl 15 64 0 1 0 0 empty empty empty 0 -9 0 10 -262144
-1 -1 4730 1;
#X obj 424 89 vsl 15 64 0 1 0 0 empty empty empty 0 -9 0 10 -262144
-1 -1 5857 1;
#X obj 481 89 vsl 15 64 0 1 0 0 empty empty empty 0 -9 0 10 -262144
-1 -1 5376 1;
#X obj 538 89 vsl 15 64 0 1 0 0 empty empty empty 0 -9 0 10 -262144
-1 -1 6300 1;
#X obj 365 193 vsl 15 64 0 1 0 0 empty empty empty 0 -9 0 10 -262144
-1 -1 0 1;
#X obj 422 193 vsl 15 64 0 1 0 0 empty empty empty 0 -9 0 10 -262144
-1 -1 0 1;
#X obj 479 193 vsl 15 64 0 1 0 0 empty empty empty 0 -9 0 10 -262144
-1 -1 6300 1;
#X obj 536 193 vsl 15 64 0 1 0 0 empty empty empty 0 -9 0 10 -262144
-1 -1 0 1;
#X obj 365 296 vsl 15 64 0 1 0 0 empty empty empty 0 -9 0 10 -262144
-1 -1 0 1;
#X obj 422 296 vsl 15 64 0 1 0 0 empty empty empty 0 -9 0 10 -262144
-1 -1 0 1;
#X obj 479 296 vsl 15 64 0 1 0 0 empty empty empty 0 -9 0 10 -262144
-1 -1 4816 1;
#X obj 536 296 vsl 15 64 0 1 0 0 empty empty empty 0 -9 0 10 -262144
-1 -1 333 1;
#X obj 365 401 vsl 15 64 0 1 0 0 empty empty empty 0 -9 0 10 -262144
-1 -1 1466 1;
#X obj 422 401 vsl 15 64 0 1 0 0 empty empty empty 0 -9 0 10 -262144
-1 -1 0 1;
#X obj 479 401 vsl 15 64 0 1 0 0 empty empty empty 0 -9 0 10 -262144
-1 -1 6300 1;
#X obj 536 401 vsl 15 64 0 1 0 0 empty empty empty 0 -9 0 10 -262144
-1 -1 6300 1;
#X obj 315 120 tgl 15 0 empty empty empty 17 7 0 10 -262144 -1 -1 0
1;
#X obj 317 227 tgl 15 0 empty empty empty 17 7 0 10 -262144 -1 -1 0
1;
#X obj 318 329 tgl 15 0 empty empty empty 17 7 0 10 -262144 -1 -1 0
1;
#X obj 319 437 tgl 15 0 empty empty empty 17 7 0 10 -262144 -1 -1 0
1;
#X obj 315 98 r p5a;
#X obj 317 205 r p6a;
#X obj 318 308 r p7a;
#X obj 319 417 r p8a;
#X obj 367 65 r p5k1;
#X obj 424 65 r p5k2;
#X obj 481 65 r p5k3;
#X obj 538 65 r p5k4;
#X obj 365 169 r p6k1;
#X obj 422 170 r p6k2;
#X obj 479 169 r p6k3;
#X obj 536 169 r p6k4;
#X obj 365 274 r p7k1;
#X obj 428 270 r p7k2;
#X obj 479 272 r p7k3;
#X obj 537 272 r p7k4;
#X obj 365 377 r p8k1;
#X obj 422 377 r p8k2;
#X obj 480 378 r p8k3;
#X obj 536 378 r p8k4;
#X text 79 11 The patch menu yields 4 pages of knob values abbreviated
pXkY for page 1-8 \, knob 1-4. The Aux button and OLED screen lines
are also paged as pXa and pXsY.;
#X connect 1 0 0 0;
#X connect 5 0 2 0;
#X connect 6 0 3 0;
#X connect 7 0 4 0;
#X connect 20 0 21 0;
#X connect 25 0 8 0;
#X connect 26 0 9 0;
#X connect 27 0 10 0;
#X connect 28 0 11 0;
#X connect 29 0 12 0;
#X connect 30 0 13 0;
#X connect 31 0 14 0;
#X connect 32 0 15 0;
#X connect 33 0 16 0;
#X connect 34 0 17 0;
#X connect 35 0 18 0;
#X connect 36 0 19 0;
#X connect 37 0 22 0;
#X connect 38 0 23 0;
#X connect 39 0 24 0;
#X connect 60 0 56 0;
#X connect 61 0 57 0;
#X connect 62 0 58 0;
#X connect 63 0 59 0;
#X connect 64 0 40 0;
#X connect 65 0 41 0;
#X connect 66 0 42 0;
#X connect 67 0 43 0;
#X connect 68 0 44 0;
#X connect 69 0 45 0;
#X connect 70 0 46 0;
#X connect 71 0 47 0;
#X connect 72 0 48 0;
#X connect 73 0 49 0;
#X connect 74 0 50 0;
#X connect 75 0 51 0;
#X connect 76 0 52 0;
#X connect 77 0 53 0;
#X connect 78 0 54 0;
#X connect 79 0 55 0;
#X restore 336 100 pd monitor og faders;
#N canvas 4 53 591 579 setup 0;
#X obj 16 266 patchmenu;
#X obj 43 156 s enableSubMenu;
#X obj 16 63 loadbang;
#X msg 16 215 0;
#X text 144 138 On startup \, first enable the patch submenu system
by sending a bang to enableSubMenu. This patch is then responsible
for sending a bang to goHome in order to return to the main Organelle
menu.;
#X obj 16 130 t b b;
#X text 66 211 Enable the patch menu with a starting page number. 0
is for the menu page itself. 1 would start on page 1;
#X text 114 83 Checks the /root/version file \, releasing a bang if
the OS version is high enough. Otherwise displays warning to update
Organelle OS.;
#X obj 16 93 versioncheck 2;
#X obj 16 191 delay 30;
#X text 84 262 This defines a menu with 9 entries: 8 pages of controls
and a Home selection that returns to main Organelle menu.;
#X obj 16 287 outlet;
#X connect 0 0 11 0;
#X connect 2 0 8 0;
#X connect 3 0 0 0;
#X connect 5 0 9 0;
#X connect 5 1 1 0;
#X connect 8 0 5 0;
#X connect 9 0 3 0;
#X restore 16 102 pd setup;
#X obj 15 54 declare -path externals;
#X text 94 126 Menues and splash screen;
#N canvas 367 53 1081 991 external 0;
#X obj 49 336 ctlin 1 1;
#X obj 49 382 spigot;
#X obj 49 403 / 127;
#X text 48 314 Synth cutoff;
#X obj 82 358 r midicontrol;
#X obj 189 382 spigot;
#X obj 189 403 / 127;
#X obj 222 358 r midicontrol;
#X obj 189 336 ctlin 2 1;
#X obj 319 382 spigot;
#X obj 319 403 / 127;
#X obj 352 358 r midicontrol;
#X obj 459 382 spigot;
#X obj 459 403 / 127;
#X obj 492 358 r midicontrol;
#X text 318 314 Synth Octave;
#X text 188 314 Sub;
#X text 458 314 Rate;
#X obj 459 336 ctlin 4 1;
#X obj 319 336 ctlin 3 1;
#X obj 49 522 spigot;
#X obj 49 543 / 127;
#X obj 82 498 r midicontrol;
#X obj 189 522 spigot;
#X obj 189 543 / 127;
#X obj 222 498 r midicontrol;
#X obj 319 522 spigot;
#X obj 319 543 / 127;
#X obj 352 498 r midicontrol;
#X obj 459 522 spigot;
#X obj 459 543 / 127;
#X obj 492 498 r midicontrol;
#X obj 49 476 ctlin 5 1;
#X obj 189 476 ctlin 6 1;
#X obj 319 476 ctlin 7 1;
#X obj 459 476 ctlin 8 1;
#X text 48 454 Synth resonance;
#X text 188 454 Sweep;
#X text 318 454 Sweep Time;
#X text 458 454 Arp Off/On;
#X obj 49 662 spigot;
#X obj 49 683 / 127;
#X obj 82 638 r midicontrol;
#X obj 189 662 spigot;
#X obj 189 683 / 127;
#X obj 222 638 r midicontrol;
#X obj 319 662 spigot;
#X obj 319 683 / 127;
#X obj 352 638 r midicontrol;
#X obj 459 662 spigot;
#X obj 459 683 / 127;
#X obj 492 638 r midicontrol;
#X text 48 594 Trig speed;
#X obj 49 616 ctlin 9 1;
#X obj 189 616 ctlin 10 1;
#X obj 319 616 ctlin 11 1;
#X obj 459 616 ctlin 12 1;
#X text 188 594 Start point;
#X text 318 594 Start fine;
#X text 458 594 Grain size;
#X obj 49 802 spigot;
#X obj 49 823 / 127;
#X obj 82 778 r midicontrol;
#X obj 189 802 spigot;
#X obj 189 823 / 127;
#X obj 222 778 r midicontrol;
#X obj 319 802 spigot;
#X obj 319 823 / 127;
#X obj 352 778 r midicontrol;
#X obj 459 802 spigot;
#X obj 459 823 / 127;
#X obj 492 778 r midicontrol;
#X obj 49 756 ctlin 13 1;
#X obj 189 756 ctlin 14 1;
#X obj 319 756 ctlin 15 1;
#X obj 459 756 ctlin 16 1;
#X text 46 873 Synth volume;
#X text 186 873 Grain volume;
#X text 316 873 Synth reverb;
#X text 456 873 Grain reverb;
#X obj 49 942 spigot;
#X obj 49 963 / 127;
#X obj 82 918 r midicontrol;
#X obj 189 942 spigot;
#X obj 189 963 / 127;
#X obj 222 918 r midicontrol;
#X obj 319 942 spigot;
#X obj 319 963 / 127;
#X obj 352 918 r midicontrol;
#X obj 459 942 spigot;
#X obj 459 963 / 127;
#X obj 492 918 r midicontrol;
#X obj 49 896 ctlin 17 1;
#X obj 189 896 ctlin 18 1;
#X obj 319 896 ctlin 19 1;
#X obj 459 896 ctlin 20 1;
#X text 46 1013 Input volume;
#X text 186 1013 Input to grain;
#X text 316 1013 Synth to grain;
#X text 456 1013 Transition Fast/Slow;
#X obj 49 1082 spigot;
#X obj 49 1103 / 127;
#X obj 82 1058 r midicontrol;
#X obj 189 1082 spigot;
#X obj 189 1103 / 127;
#X obj 222 1058 r midicontrol;
#X obj 319 1082 spigot;
#X obj 319 1103 / 127;
#X obj 352 1058 r midicontrol;
#X obj 459 1082 spigot;
#X obj 459 1103 / 127;
#X obj 492 1058 r midicontrol;
#X text 47 1163 Filter LFO;
#X text 187 1163 Filter speed;
#X text 317 1163 Grain LFO;
#X text 457 1163 Grain speed;
#X obj 49 1036 ctlin 21 1;
#X obj 189 1036 ctlin 22 1;
#X obj 319 1036 ctlin 23 1;
#X obj 459 1036 ctlin 24 1;
#X obj 49 1432 spigot;
#X obj 49 1453 / 127;
#X obj 82 1408 r midicontrol;
#X obj 189 1432 spigot;
#X obj 189 1453 / 127;
#X obj 222 1408 r midicontrol;
#X obj 319 1432 spigot;
#X obj 319 1453 / 127;
#X obj 352 1408 r midicontrol;
#X text 49 1358 Master boost;
#X text 185 1357 Pedal Off/On;
#X text 315 1357 Polarity;
#X text 48 734 Spray;
#X text 188 734 Stereo;
#X text 458 734 Resonance;
#X text 318 734 Cutoff;
#X text 52 1697 :);
#X obj 49 1232 spigot;
#X obj 49 1253 / 127;
#X obj 82 1208 r midicontrol;
#X obj 189 1232 spigot;
#X obj 189 1253 / 127;
#X obj 222 1208 r midicontrol;
#X obj 319 1232 spigot;
#X obj 319 1253 / 127;
#X obj 352 1208 r midicontrol;
#X obj 459 1232 spigot;
#X obj 459 1253 / 127;
#X obj 492 1208 r midicontrol;
#X obj 56 119 notein 2;
#X obj 56 145 stripnote;
#X obj 186 144 stripnote;
#X obj 186 118 notein 3;
#X obj 186 227 moses 1;
#X obj 186 276 s aux;
#X msg 186 250 1 \, 0;
#X obj 224 254 s midi_granunotes;
#X obj 56 260 s midi_synthnotes;
#X obj 49 1187 ctlin 25 1;
#X obj 189 1186 ctlin 26 1;
#X obj 319 1186 ctlin 27 1;
#X obj 459 1186 ctlin 28 1;
#X obj 49 1386 ctlin 29 1;
#X obj 189 1386 ctlin 30 1;
#X obj 319 1386 ctlin 31 1;
#X obj 56 218 spigot;
#X obj 87 175 r midicontrol;
#X obj 207 199 spigot;
#X obj 238 156 r midicontrol;
#X obj 49 424 s p1k1m;
#X obj 189 424 s p1k2m;
#X obj 319 424 s p1k3m;
#X obj 459 425 s p1k4m;
#X obj 49 564 s p2k1m;
#X obj 189 564 s p2k2m;
#X obj 319 564 s p2k3m;
#X obj 459 564 s p2k4m;
#X obj 459 704 s p3k4m;
#X obj 318 704 s p3k3m;
#X obj 189 704 s p3k2m;
#X obj 49 704 s p3k1m;
#X obj 49 844 s p4k1m;
#X obj 188 844 s p4k2m;
#X obj 319 844 s p4k3m;
#X obj 459 844 s p4k4m;
#X obj 459 984 s p5k4m;
#X obj 319 984 s p5k3m;
#X obj 188 984 s p5k2m;
#X obj 49 984 s p5k1m;
#X obj 49 1124 s p6k1m;
#X obj 188 1125 s p6k2m;
#X obj 319 1124 s p6k3m;
#X obj 459 1124 s p6k4m;
#X obj 49 1274 s p7k1m;
#X obj 188 1275 s p7k2m;
#X obj 319 1274 s p7k3m;
#X obj 459 1274 s p7k4m;
#X obj 49 1474 s p8k1m;
#X obj 187 1475 s p8k2m;
#X obj 319 1475 s p8k3m;
#X connect 0 0 1 0;
#X connect 1 0 2 0;
#X connect 2 0 169 0;
#X connect 4 0 1 1;
#X connect 5 0 6 0;
#X connect 6 0 170 0;
#X connect 7 0 5 1;
#X connect 8 0 5 0;
#X connect 9 0 10 0;
#X connect 10 0 171 0;
#X connect 11 0 9 1;
#X connect 12 0 13 0;
#X connect 13 0 172 0;
#X connect 14 0 12 1;
#X connect 18 0 12 0;
#X connect 19 0 9 0;
#X connect 20 0 21 0;
#X connect 21 0 173 0;
#X connect 22 0 20 1;
#X connect 23 0 24 0;
#X connect 24 0 174 0;
#X connect 25 0 23 1;
#X connect 26 0 27 0;
#X connect 27 0 175 0;
#X connect 28 0 26 1;
#X connect 29 0 30 0;
#X connect 30 0 176 0;
#X connect 31 0 29 1;
#X connect 32 0 20 0;
#X connect 33 0 23 0;
#X connect 34 0 26 0;
#X connect 35 0 29 0;
#X connect 40 0 41 0;
#X connect 41 0 180 0;
#X connect 42 0 40 1;
#X connect 43 0 44 0;
#X connect 44 0 179 0;
#X connect 45 0 43 1;
#X connect 46 0 47 0;
#X connect 47 0 178 0;
#X connect 48 0 46 1;
#X connect 49 0 50 0;
#X connect 50 0 177 0;
#X connect 51 0 49 1;
#X connect 53 0 40 0;
#X connect 54 0 43 0;
#X connect 55 0 46 0;
#X connect 56 0 49 0;
#X connect 60 0 61 0;
#X connect 61 0 181 0;
#X connect 62 0 60 1;
#X connect 63 0 64 0;
#X connect 64 0 182 0;
#X connect 65 0 63 1;
#X connect 66 0 67 0;
#X connect 67 0 183 0;
#X connect 68 0 66 1;
#X connect 69 0 70 0;
#X connect 70 0 184 0;
#X connect 71 0 69 1;
#X connect 72 0 60 0;
#X connect 73 0 63 0;
#X connect 74 0 66 0;
#X connect 75 0 69 0;
#X connect 80 0 81 0;
#X connect 81 0 188 0;
#X connect 82 0 80 1;
#X connect 83 0 84 0;
#X connect 84 0 187 0;
#X connect 85 0 83 1;
#X connect 86 0 87 0;
#X connect 87 0 186 0;
#X connect 88 0 86 1;
#X connect 89 0 90 0;
#X connect 90 0 185 0;
#X connect 91 0 89 1;
#X connect 92 0 80 0;
#X connect 93 0 83 0;
#X connect 94 0 86 0;
#X connect 95 0 89 0;
#X connect 100 0 101 0;
#X connect 101 0 189 0;
#X connect 102 0 100 1;
#X connect 103 0 104 0;
#X connect 104 0 190 0;
#X connect 105 0 103 1;
#X connect 106 0 107 0;
#X connect 107 0 191 0;
#X connect 108 0 106 1;
#X connect 109 0 110 0;
#X connect 110 0 192 0;
#X connect 111 0 109 1;
#X connect 116 0 100 0;
#X connect 117 0 103 0;
#X connect 118 0 106 0;
#X connect 119 0 109 0;
#X connect 120 0 121 0;
#X connect 121 0 197 0;
#X connect 122 0 120 1;
#X connect 123 0 124 0;
#X connect 124 0 198 0;
#X connect 125 0 123 1;
#X connect 126 0 127 0;
#X connect 127 0 199 0;
#X connect 128 0 126 1;
#X connect 137 0 138 0;
#X connect 138 0 193 0;
#X connect 139 0 137 1;
#X connect 140 0 141 0;
#X connect 141 0 194 0;
#X connect 142 0 140 1;
#X connect 143 0 144 0;
#X connect 144 0 195 0;
#X connect 145 0 143 1;
#X connect 146 0 147 0;
#X connect 147 0 196 0;
#X connect 148 0 146 1;
#X connect 149 0 150 0;
#X connect 149 1 150 1;
#X connect 150 0 165 0;
#X connect 151 0 167 0;
#X connect 152 0 151 0;
#X connect 152 1 151 1;
#X connect 153 0 155 0;
#X connect 153 1 156 0;
#X connect 155 0 154 0;
#X connect 158 0 137 0;
#X connect 159 0 140 0;
#X connect 160 0 143 0;
#X connect 161 0 146 0;
#X connect 162 0 120 0;
#X connect 163 0 123 0;
#X connect 164 0 126 0;
#X connect 165 0 157 0;
#X connect 166 0 165 1;
#X connect 167 0 153 0;
#X connect 168 0 167 1;
#X restore 15 198 pd external midi;
#X connect 4 0 3 1;
#X connect 8 0 3 0;
