#N canvas 125 79 748 810 10;
#X msg 295 250 waveform \$1;
#X msg 189 319 notein \$1 \$2;
#X obj 279 379 septavox~, f 18;
#X obj 188 219 unpack;
#X obj 188 253 - 24;
#X obj 188 287 pack;
#X obj 179 419 inlet~ inL-\$1;
#X obj 359 419 inlet~ inR-\$1;
#X obj 219 499 outlet~ outL-\$1;
#X obj 328 499 outlet~ outR-\$1;
#X obj 258 453 +~;
#X obj 315 453 +~;
#X obj 191 186 r notesIn-\$1;
#X obj 294 278 r tune-\$1;
#X obj 294 223 r waveform-\$1;
#X obj 392 154 r depth-\$1;
#X obj 455 305 / 100;
#X obj 411 177 r amount-\$1;
#X obj 424 199 r envelope-\$1;
#X obj 441 224 r decay-\$1;
#X obj 458 251 r pattern-\$1;
#X obj 471 273 r modulation-\$1;
#X obj 593 232 / 100;
#X obj 571 154 r rate-\$1;
#X obj 586 179 r glide_time-\$1;
#X obj 599 202 r attack-\$1;
#X obj 54 675 + 1;
#X obj 54 705 s aux-led-\$1;
#X obj 861 200 r activePage;
#X obj 856 266 sel \$1;
#X msg 292 193 mode \$1;
#X msg 295 302 knob1 \$1;
#X msg 456 332 knob2 \$1;
#X msg 593 260 knob3 \$1;
#X floatatom 667 479 3 0 0 0 - - - 0;
#X obj 622 410 sel 1;
#X obj 623 465 t f f;
#X obj 668 450 + 1;
#X obj 632 498 % 7;
#X obj 627 439 i 0;
#X obj 623 379 r auxIn-\$1;
#X msg 570 593 selectpage \$1;
#X obj 574 627 s rackMsgs;
#X obj 674 595 s mode-\$1;
#X obj 292 166 r mode-\$1;
#X obj 11 10 v mode-\$1 0;
#X obj 61 620 r mode-\$1;
#X obj 59 647 f;
#X text 17 601 update aux led based on mode;
#X text 552 352 cycle mode and page with aux button;
#X text 822 169 if active page != mode \, change page to match mode;
#X msg 890 635 selectpage \$1;
#X obj 888 673 s rackMsgs;
#X obj 933 361 v mode-\$1;
#X obj 858 236 unpack s s;
#X obj 718 272 print activePage;
#X obj 988 459 print mode;
#X obj 1005 658 print selectpage;
#X obj 882 298 symbol;
#X obj 883 329 t s b;
#X obj 939 404 makefilename %d;
#X obj 889 443 sel dummy;
#X obj 933 481 bng 18 250 50 0 empty empty empty 0 -9 0 10 #fcfcfc #000000 #000000;
#X obj 900 594 v mode-\$1;
#X obj 906 541 del 50;
#X obj 619 543 t f f;
#X connect 0 0 2 0;
#X connect 1 0 2 0;
#X connect 2 0 10 1;
#X connect 2 0 11 1;
#X connect 3 0 4 0;
#X connect 3 1 5 1;
#X connect 4 0 5 0;
#X connect 5 0 1 0;
#X connect 6 0 10 0;
#X connect 7 0 11 0;
#X connect 10 0 8 0;
#X connect 11 0 9 0;
#X connect 12 0 3 0;
#X connect 13 0 31 0;
#X connect 14 0 0 0;
#X connect 15 0 16 0;
#X connect 16 0 32 0;
#X connect 17 0 16 0;
#X connect 18 0 16 0;
#X connect 19 0 16 0;
#X connect 20 0 16 0;
#X connect 21 0 16 0;
#X connect 22 0 33 0;
#X connect 23 0 22 0;
#X connect 24 0 22 0;
#X connect 25 0 22 0;
#X connect 26 0 27 0;
#X connect 28 0 54 0;
#X connect 28 0 55 0;
#X connect 29 0 58 0;
#X connect 30 0 2 0;
#X connect 31 0 2 0;
#X connect 32 0 2 0;
#X connect 33 0 2 0;
#X connect 34 0 38 0;
#X connect 35 0 39 0;
#X connect 36 0 38 0;
#X connect 36 1 37 0;
#X connect 37 0 39 1;
#X connect 38 0 65 0;
#X connect 39 0 36 0;
#X connect 40 0 35 0;
#X connect 41 0 42 0;
#X connect 44 0 30 0;
#X connect 46 0 47 0;
#X connect 47 0 26 0;
#X connect 51 0 57 0;
#X connect 51 0 52 0;
#X connect 53 0 56 0;
#X connect 53 0 60 0;
#X connect 54 0 29 0;
#X connect 54 1 58 1;
#X connect 58 0 59 0;
#X connect 59 0 61 0;
#X connect 59 1 53 0;
#X connect 60 0 61 1;
#X connect 61 1 62 0;
#X connect 62 0 64 0;
#X connect 63 0 51 0;
#X connect 64 0 63 0;
#X connect 65 0 41 0;
#X connect 65 1 43 0;
