#N canvas 556 311 493 271 10;
#X obj 33 30 r loadbang-\$1;
#X obj 117 217 outlet~ outL-\$1;
#X obj 219 217 outlet~ outR-\$1;
#X obj 301 80 inlet~ inL;
#X obj 385 80 inlet~ inR;
#X obj 301 30 r expIn-\$1;
#X obj 395 56 r fsIn-\$1;
#X obj 301 55 s notesOut-\$1;
#X obj 377 30 s ctrlOut-\$1;
#X text 194 173 Pd~ subprocess;
#X obj 33 175 pd~ -ninsig 0 -noutsig 2;
#N canvas 830 91 1007 676 subparams 0;
#X obj 443 636 outlet;
#X obj 836 256 r loadbang-\$1;
#X msg 836 277 loadbang \$1;
#X obj 127 474 r notesIn-\$1;
#X obj 127 495 unpack 0 0;
#X msg 110 527 notes \$1;
#X msg 180 527 velocity \$1;
#X obj 640 458 r ctrlIn-\$1;
#X obj 640 479 unpack 0 0 0;
#X floatatom 639 501 5 0 0 0 - - -;
#X floatatom 707 503 5 0 0 0 - - -;
#X floatatom 809 503 5 0 0 0 - - -;
#X msg 639 527 valuem \$1;
#X msg 809 527 channelm \$1;
#X msg 707 527 controllerm \$1;
#X obj 36 260 r attack-\$1;
#X obj 242 262 r release-\$1;
#X obj 356 262 r sustain-\$1;
#X obj 142 261 r decay-\$1;
#X msg 36 281 attack \$1;
#X msg 142 282 decay \$1;
#X msg 242 283 release \$1;
#X msg 356 283 sustain \$1;
#X obj 41 32 r sf_vol-\$1;
#X msg 41 53 sf_vol \$1;
#X obj 144 32 r sf_select-\$1;
#X msg 144 53 sf_select \$1;
#X obj 286 32 r sf_pan-\$1;
#X msg 286 53 sf_pan \$1;
#X obj 385 32 r sf_prog-\$1;
#X msg 385 53 sf_prog \$1;
#X obj 567 10 r sf_semitone-\$1;
#X msg 567 31 sf_semitone \$1;
#X obj 558 285 r auxIn-\$1;
#X msg 558 306 auxIn \$1;
#X connect 1 0 2 0;
#X connect 2 0 0 0;
#X connect 3 0 4 0;
#X connect 4 0 5 0;
#X connect 4 1 6 0;
#X connect 5 0 0 0;
#X connect 6 0 0 0;
#X connect 7 0 8 0;
#X connect 8 0 9 0;
#X connect 8 1 10 0;
#X connect 8 2 11 0;
#X connect 9 0 12 0;
#X connect 10 0 14 0;
#X connect 11 0 13 0;
#X connect 12 0 0 0;
#X connect 13 0 0 0;
#X connect 14 0 0 0;
#X connect 15 0 19 0;
#X connect 16 0 21 0;
#X connect 17 0 22 0;
#X connect 18 0 20 0;
#X connect 19 0 0 0;
#X connect 20 0 0 0;
#X connect 21 0 0 0;
#X connect 22 0 0 0;
#X connect 23 0 24 0;
#X connect 24 0 0 0;
#X connect 25 0 26 0;
#X connect 26 0 0 0;
#X connect 27 0 28 0;
#X connect 28 0 0 0;
#X connect 29 0 30 0;
#X connect 30 0 0 0;
#X connect 31 0 32 0;
#X connect 32 0 0 0;
#X connect 33 0 34 0;
#X connect 34 0 0 0;
#X restore 166 123 pd subparams;
#X text 252 123 subprocess parameters;
#X obj 19 217 s aux-label-\$1;
#X msg 33 51 pd~ start -nogui pd~-sfplayer.pd;
#X connect 0 0 14 0;
#X connect 10 0 13 0;
#X connect 10 1 1 0;
#X connect 10 2 2 0;
#X connect 11 0 10 0;
#X connect 14 0 10 0;
