#N canvas 571 248 1345 659 10;
#X obj 705 396 *~ 0.7;
#X obj 815 396 *~ 0.7;
#X obj 464 79 / 100;
#X obj 704 339 fluid~;
#X msg 704 216 note 1 \$1 \$2;
#X msg 637 127 load \$1;
#X obj 637 105 openpanel;
#X obj 637 85 bng 15 250 50 0 empty empty empty 0 -6 0 8 -260818 -1
-1;
#X obj 577 54 bng 15 250 50 0 empty empty empty 17 7 0 10 -262144 -1
-1;
#X obj 443 157 list;
#X msg 759 293 prog 1 \$1;
#X msg 853 308 bank 1 \$1;
#X obj 587 157 bng 15 250 50 0 empty empty empty 17 7 0 10 -262144
-1 -1;
#X obj 773 271 nbx 5 14 -1e+37 1e+37 0 0 empty empty empty 0 -8 0 10
-262144 -1 -1 0 256;
#X obj 464 114 sfshare_select \$1;
#X floatatom 57 88 5 0 0 0 - - -;
#X msg 57 130 gen 1 \$2 \$1;
#X floatatom 259 92 5 0 0 0 - - -;
#X msg 259 134 gen 1 \$2 \$1;
#X floatatom 48 272 5 0 0 0 - - -;
#X msg 48 314 gen 1 \$2 \$1;
#X floatatom 295 277 5 0 0 0 - - -;
#X obj 392 280 fluid.gen2sym;
#X symbolatom 392 301 20 0 0 0 - - -;
#X floatatom 391 257 5 0 0 0 - - -;
#X msg 295 319 gen 1 \$2 \$1;
#X obj 57 151 s \$0-iiwu;
#X obj 48 335 s \$0-iiwu;
#X obj 259 154 s \$0-iiwu;
#X obj 57 109 pack 10 34;
#X obj 259 113 pack 200 36;
#X obj 48 293 pack 80 37;
#X obj 629 304 r \$0-iiwu;
#X obj 295 340 s \$0-iiwu;
#X obj 704 189 pack 0 0;
#X obj 295 298 pack 3000 38;
#X msg 215 469 gen 1 \$2 \$1;
#X obj 215 490 s \$0-iiwu;
#X obj 146 368 hsl 128 15 0 100 0 0 empty empty empty -2 -8 0 10 -262144
-1 -1 0 1;
#X obj 329 418 i 8;
#X obj 349 382 bng 15 250 50 0 empty empty empty 17 7 0 10 -262144
-1 -1;
#X floatatom 171 424 20 0 0 0 - - -;
#X obj 171 399 int;
#X obj 215 448 pack 0 16;
#X msg 1000 281 gen 1 \$2 \$1;
#X obj 1000 302 s \$0-iiwu;
#X floatatom 998 197 5 0 0 0 - - -;
#X obj 1000 259 pack 0 51;
#X floatatom 1111 197 5 0 0 0 - - -;
#X obj 1111 217 pack 0 17;
#X msg 1111 238 gen 1 \$2 \$1;
#X obj 1111 259 s \$0-iiwu;
#X floatatom 717 279 5 0 0 0 - - -;
#X obj 216 55 r decay;
#X obj 14 51 r attack;
#X obj 5 235 r sustain;
#X obj 252 240 r release;
#X obj 723 469 dac~;
#X obj 464 22 r sf_select;
#X obj 577 22 r auxIn;
#X obj 563 188 stdout;
#X obj 998 176 r sf_semitone;
#X obj 1111 176 r sf_pan;
#X obj 755 239 r sf_prog;
#X obj 853 264 r sf_bank;
#X obj 848 339 r sf_vol;
#X obj 704 105 r notes;
#X msg 887 77 \; pd dsp 1;
#X obj 760 111 r velocity;
#X floatatom 858 180 5 0 0 0 - - -;
#X floatatom 875 173 5 0 0 0 - - -;
#X floatatom 760 132 5 0 0 0 - - -;
#X obj 887 56 loadbang;
#X obj 703 160 +;
#X connect 0 0 57 0;
#X connect 1 0 57 1;
#X connect 2 0 14 0;
#X connect 3 0 0 0;
#X connect 3 1 1 0;
#X connect 4 0 3 0;
#X connect 5 0 3 0;
#X connect 6 0 5 0;
#X connect 7 0 6 0;
#X connect 8 0 9 0;
#X connect 9 0 5 0;
#X connect 10 0 3 0;
#X connect 11 0 3 0;
#X connect 13 0 10 0;
#X connect 14 0 9 1;
#X connect 14 1 12 0;
#X connect 14 1 60 0;
#X connect 15 0 29 0;
#X connect 16 0 26 0;
#X connect 17 0 30 0;
#X connect 18 0 28 0;
#X connect 19 0 31 0;
#X connect 20 0 27 0;
#X connect 21 0 35 0;
#X connect 22 0 23 0;
#X connect 24 0 22 0;
#X connect 25 0 33 0;
#X connect 29 0 16 0;
#X connect 30 0 18 0;
#X connect 31 0 20 0;
#X connect 32 0 3 0;
#X connect 34 0 4 0;
#X connect 35 0 25 0;
#X connect 36 0 37 0;
#X connect 38 0 42 0;
#X connect 39 0 43 1;
#X connect 40 0 39 0;
#X connect 41 0 43 0;
#X connect 42 0 41 0;
#X connect 43 0 36 0;
#X connect 44 0 45 0;
#X connect 46 0 73 1;
#X connect 47 0 44 0;
#X connect 48 0 49 0;
#X connect 49 0 50 0;
#X connect 50 0 51 0;
#X connect 53 0 17 0;
#X connect 54 0 15 0;
#X connect 55 0 19 0;
#X connect 56 0 21 0;
#X connect 58 0 2 0;
#X connect 59 0 8 0;
#X connect 61 0 46 0;
#X connect 62 0 48 0;
#X connect 63 0 10 0;
#X connect 63 0 52 0;
#X connect 64 0 11 0;
#X connect 65 0 1 1;
#X connect 65 0 0 1;
#X connect 66 0 69 0;
#X connect 66 0 73 0;
#X connect 68 0 34 1;
#X connect 68 0 71 0;
#X connect 72 0 67 0;
#X connect 73 0 34 0;
