#N canvas 120 50 975 729 10;
#X obj 304 186 r notesIn-\$1;
#X obj 304 601 s notesOut-\$1;
#X obj 25 186 inlet~ inL-\$1;
#X obj 135 186 inlet~ inR-\$1;
#X obj 27 601 outlet~ outL-\$1;
#X obj 136 601 outlet~ outR-\$1;
#X obj 424 185 r auxIn-\$1;
#X obj 423 208 r expIn-\$1;
#X obj 423 233 r fsIn-\$1;
#X obj 504 185 r ctrlIn-\$1;
#X obj 504 600 s ctrlOut-\$1;
#X obj 670 600 s rackMsgs;
#X obj 704 64 r master-ticks;
#X obj 438 441 random_p 1 \$1;
#X obj 552 441 random_p 2 \$1;
#X obj 665 441 random_p 3 \$1;
#X obj 780 441 random_p 4 \$1;
#X obj 507 366 r r_speed_1-\$1;
#X obj 599 366 r r_speed_2-\$1;
#X obj 692 366 r r_speed_3-\$1;
#X obj 782 366 r r_speed_4-\$1;
#N canvas 407 235 713 503 Graphics 0;
#X obj 151 388 pack 0 0;
#X obj 152 299 metro 50;
#X msg 32 332 /oled/gFlip 3;
#X obj 32 431 s oscOutRaw;
#X obj 152 317 t b b b;
#X msg 151 416 /oled/gSetPixel 3 \$1 \$2 1;
#X obj 151 341 random 132;
#X obj 222 354 + 54;
#X obj 52 50 r activePage;
#X obj 52 72 unpack s s, f 17;
#X msg 52 121 1;
#X msg 109 122 0;
#X obj 52 180 change;
#X obj 152 269 tgl 15 0 empty empty empty 17 7 0 10 -262144 -1 -1 1
1;
#X msg 152 243 1;
#X msg 219 255 0;
#X obj 192 194 sel 1;
#X msg 103 210 stop;
#X obj 52 93 sel \$1, f 10;
#X obj 515 389 pack 0 0;
#X obj 515 331 random 132;
#X obj 585 353 + 54;
#X obj 349 387 pack 0 0;
#X msg 349 415 /oled/gSetPixel 3 \$1 \$2 1;
#X obj 349 331 random 132;
#X obj 420 353 + 54;
#X obj 517 270 pack 0 0;
#X obj 517 212 random 132;
#X obj 587 234 + 54;
#X msg 517 298 /oled/gSetPixel 3 \$1 \$2 1;
#X obj 353 270 pack 0 0;
#X msg 353 298 /oled/gSetPixel 3 \$1 \$2 1;
#X obj 353 213 random 132;
#X obj 424 236 + 54;
#X obj 33 389 s aux-label-\$1;
#X msg 33 304 ∆;
#X msg 515 417 /oled/gSetPixel 3 \$1 \$2 1;
#X obj 353 141 pack 0 0 0 0;
#X obj 255 301 t b b b;
#X obj 353 103 t f f;
#X obj 353 84 random 120;
#X obj 255 282 metro 300;
#X msg 353 169 /oled/gInvertArea 3 \$1 \$2 \$3 \$4;
#X obj 489 105 + 1;
#X obj 489 84 random 3;
#X obj 84 264 * 50;
#X obj 33 231 r update-graphics;
#X obj 40 248 r speed-graphics;
#X obj 84 285 max 50;
#X obj 211 302 max 50;
#X obj 211 281 * 25;
#X obj 422 107 + 53;
#X obj 152 225 delay 10;
#X obj 424 213 random 9;
#X obj 587 212 random 9;
#X obj 420 331 random 9;
#X obj 585 331 random 9;
#X obj 222 333 random 9;
#X obj 422 84 random 9;
#X connect 0 0 5 0;
#X connect 1 0 4 0;
#X connect 2 0 3 0;
#X connect 4 0 2 0;
#X connect 4 1 6 0;
#X connect 4 1 20 0;
#X connect 4 1 24 0;
#X connect 4 1 32 0;
#X connect 4 1 27 0;
#X connect 4 2 53 0;
#X connect 4 2 54 0;
#X connect 4 2 55 0;
#X connect 4 2 56 0;
#X connect 4 2 57 0;
#X connect 5 0 3 0;
#X connect 6 0 0 0;
#X connect 7 0 0 1;
#X connect 8 0 9 0;
#X connect 9 0 18 0;
#X connect 10 0 12 0;
#X connect 11 0 12 0;
#X connect 12 0 16 0;
#X connect 13 0 1 0;
#X connect 13 0 41 0;
#X connect 14 0 13 0;
#X connect 15 0 13 0;
#X connect 16 0 52 0;
#X connect 16 1 17 0;
#X connect 16 1 15 0;
#X connect 17 0 52 0;
#X connect 18 0 10 0;
#X connect 18 1 11 0;
#X connect 19 0 36 0;
#X connect 20 0 19 0;
#X connect 21 0 19 1;
#X connect 22 0 23 0;
#X connect 24 0 22 0;
#X connect 25 0 22 1;
#X connect 26 0 29 0;
#X connect 27 0 26 0;
#X connect 28 0 26 1;
#X connect 29 0 3 0;
#X connect 30 0 31 0;
#X connect 31 0 3 0;
#X connect 32 0 30 0;
#X connect 33 0 30 1;
#X connect 35 0 34 0;
#X connect 37 0 42 0;
#X connect 38 0 2 0;
#X connect 38 1 40 0;
#X connect 38 2 44 0;
#X connect 38 2 58 0;
#X connect 39 0 37 0;
#X connect 40 0 39 0;
#X connect 41 0 38 0;
#X connect 42 0 3 0;
#X connect 43 0 37 2;
#X connect 43 0 37 3;
#X connect 44 0 43 0;
#X connect 45 0 48 0;
#X connect 46 0 35 0;
#X connect 47 0 45 0;
#X connect 47 0 50 0;
#X connect 48 0 1 1;
#X connect 49 0 41 1;
#X connect 50 0 49 0;
#X connect 51 0 37 1;
#X connect 52 0 14 0;
#X connect 53 0 33 0;
#X connect 54 0 28 0;
#X connect 55 0 25 0;
#X connect 56 0 21 0;
#X connect 57 0 7 0;
#X connect 58 0 51 0;
#X restore 837 597 pd Graphics;
#X connect 12 0 13 0;
#X connect 12 0 16 0;
#X connect 12 0 15 0;
#X connect 12 0 14 0;
#X connect 13 0 10 0;
#X connect 13 1 11 0;
#X connect 14 0 10 0;
#X connect 14 1 11 0;
#X connect 15 0 10 0;
#X connect 15 1 11 0;
#X connect 16 0 10 0;
#X connect 16 1 11 0;
#X connect 17 0 13 1;
#X connect 18 0 14 1;
#X connect 19 0 15 1;
#X connect 20 0 16 1;
