#N canvas 174 335 553 493 10;
#X obj 36 315 tb_peakcomp~;
#X obj 180 315 tb_peakcomp~;
#X obj 99 48 delay 100;
#X msg 99 226 knee 1;
#X obj 192 380 +;
#X obj 192 398 / 2;
#X obj 105 346 env~;
#X obj 249 347 env~;
#X obj 249 363 + 0.01;
#X obj 105 363 + 0.01;
#X obj 192 416 sig~;
#X msg 99 169 release \$1;
#X obj 200 213 pack 0 100;
#X obj 200 231 line;
#X obj 391 230 pack 0 100;
#X obj 391 248 line;
#X obj 244 58 pack 0 100;
#X obj 244 79 line;
#X obj 281 103 pack 0 100;
#X obj 281 123 line;
#X msg 99 95 threshold \$1;
#X msg 99 123 ratio \$1;
#X msg 100 145 attack \$1;
#X obj 305 213 pack 0 100;
#X obj 305 233 line;
#X msg 101 197 makeup \$1;
#X obj 17 161 inlet~;
#X obj 250 249 inlet~;
#X obj 181 452 outlet~;
#X obj 36 452 outlet~;
#X obj 283 452 outlet~ GR;
#X obj 245 39 r threshold-\$1;
#X obj 281 83 r ratio-\$1;
#X obj 317 127 r attack-\$1;
#X obj 354 168 r release-\$1;
#X obj 391 212 r makeup-\$1;
#X floatatom 508 278 5 0 0 0 - - -;
#X obj 199 174 settings-label \$1;
#X obj 99 20 r loadbang-\$1;
#X obj 36 336 clip~ -1 1;
#X obj 180 336 clip~ -1 1;
#N canvas 4 50 450 300 Lmute 1;
#X obj 124 48 r comp_selectL-\$1;
#X obj 124 71 tgl 15 0 empty empty empty 17 7 0 10 -262144 -1 -1 1
1;
#X obj 124 91 sel 1 0;
#X obj 124 112 t b b;
#X obj 175 113 t b b;
#X msg 124 133 1 1;
#X msg 175 134 0 1;
#X obj 124 180 line~;
#X obj 175 181 line~;
#X obj 124 201 outlet~;
#X obj 175 202 outlet~;
#X msg 151 156 0 1;
#X msg 202 156 1 1;
#X connect 0 0 1 0;
#X connect 1 0 2 0;
#X connect 2 0 3 0;
#X connect 2 1 4 0;
#X connect 3 0 5 0;
#X connect 3 1 11 0;
#X connect 4 0 6 0;
#X connect 4 1 12 0;
#X connect 5 0 7 0;
#X connect 6 0 7 0;
#X connect 7 0 9 0;
#X connect 8 0 10 0;
#X connect 11 0 8 0;
#X connect 12 0 8 0;
#X restore 32 186 pd Lmute;
#N canvas 4 50 450 300 Rmute 0;
#X obj 124 71 tgl 15 0 empty empty empty 17 7 0 10 -262144 -1 -1 1
1;
#X obj 124 91 sel 1 0;
#X obj 124 112 t b b;
#X obj 175 113 t b b;
#X msg 124 133 1 1;
#X msg 175 134 0 1;
#X obj 124 180 line~;
#X obj 175 181 line~;
#X obj 124 201 outlet~;
#X obj 175 202 outlet~;
#X msg 151 156 0 1;
#X msg 202 156 1 1;
#X obj 124 48 r comp_selectR-\$1;
#X connect 0 0 1 0;
#X connect 1 0 2 0;
#X connect 1 1 3 0;
#X connect 2 0 4 0;
#X connect 2 1 10 0;
#X connect 3 0 5 0;
#X connect 3 1 11 0;
#X connect 4 0 6 0;
#X connect 5 0 6 0;
#X connect 6 0 8 0;
#X connect 7 0 9 0;
#X connect 10 0 7 0;
#X connect 11 0 7 0;
#X connect 12 0 0 0;
#X restore 336 289 pd Rmute;
#X obj 18 210 *~;
#X obj 250 270 *~;
#X obj 329 392 *~;
#X obj 3 388 *~;
#X connect 0 0 39 0;
#X connect 0 2 6 0;
#X connect 1 0 40 0;
#X connect 1 2 7 0;
#X connect 2 0 20 0;
#X connect 2 0 21 0;
#X connect 2 0 3 0;
#X connect 3 0 1 0;
#X connect 3 0 0 0;
#X connect 4 0 5 0;
#X connect 5 0 10 0;
#X connect 6 0 9 0;
#X connect 7 0 8 0;
#X connect 8 0 4 1;
#X connect 9 0 4 0;
#X connect 10 0 30 0;
#X connect 11 0 1 0;
#X connect 11 0 0 0;
#X connect 12 0 13 0;
#X connect 13 0 22 0;
#X connect 14 0 15 0;
#X connect 15 0 25 0;
#X connect 16 0 17 0;
#X connect 17 0 20 0;
#X connect 18 0 19 0;
#X connect 19 0 21 0;
#X connect 20 0 1 0;
#X connect 20 0 0 0;
#X connect 21 0 1 0;
#X connect 21 0 0 0;
#X connect 22 0 1 0;
#X connect 22 0 0 0;
#X connect 23 0 24 0;
#X connect 24 0 11 0;
#X connect 25 0 1 0;
#X connect 25 0 0 0;
#X connect 26 0 43 0;
#X connect 26 0 46 0;
#X connect 27 0 44 0;
#X connect 27 0 45 0;
#X connect 31 0 16 0;
#X connect 32 0 18 0;
#X connect 33 0 37 0;
#X connect 34 0 37 1;
#X connect 35 0 14 0;
#X connect 35 0 36 0;
#X connect 37 0 12 0;
#X connect 37 1 23 0;
#X connect 38 0 2 0;
#X connect 39 0 29 0;
#X connect 40 0 28 0;
#X connect 41 0 43 1;
#X connect 41 1 46 1;
#X connect 42 0 44 1;
#X connect 42 1 45 1;
#X connect 43 0 0 1;
#X connect 43 0 0 0;
#X connect 44 0 1 0;
#X connect 44 0 1 1;
#X connect 45 0 28 0;
#X connect 46 0 29 0;
