#N canvas 780 425 748 493 10;
#X obj 36 297 tb_peakcomp~;
#X obj 99 48 delay 100;
#X msg 99 226 knee 1;
#X obj 192 362 +;
#X obj 192 380 / 2;
#X obj 105 328 env~;
#X obj 249 329 env~;
#X obj 249 345 + 0.01;
#X obj 105 345 + 0.01;
#X obj 192 398 sig~;
#X msg 99 169 release \$1;
#X obj 200 213 pack 0 100;
#X obj 200 231 line;
#X obj 391 230 pack 0 100;
#X obj 391 248 line;
#X obj 244 58 pack 0 100;
#X obj 244 79 line;
#X obj 281 103 pack 0 100;
#X obj 281 123 line;
#X msg 99 95 threshold \$1;
#X msg 99 123 ratio \$1;
#X msg 100 145 attack \$1;
#X obj 305 213 pack 0 100;
#X obj 305 233 line;
#X msg 101 197 makeup \$1;
#X obj 57 258 inlet~;
#X obj 160 258 inlet~;
#X obj 181 452 outlet~;
#X obj 36 452 outlet~;
#X obj 283 452 outlet~ GR;
#X msg 380 135 1;
#X msg 396 60 8;
#X obj 245 39 r dsthresh-\$1;
#X msg 400 175 0;
#X obj 199 174 dssettings-label \$1;
#X obj 99 20 r loadbang-\$1;
#X obj 180 297 tb_peakcomp~;
#X obj 180 318 /~ 10;
#X obj 36 318 /~ 10;
#X connect 0 0 38 0;
#X connect 0 2 5 0;
#X connect 1 0 19 0;
#X connect 1 0 20 0;
#X connect 1 0 2 0;
#X connect 2 0 36 0;
#X connect 2 0 0 0;
#X connect 3 0 4 0;
#X connect 4 0 9 0;
#X connect 5 0 8 0;
#X connect 6 0 7 0;
#X connect 7 0 3 1;
#X connect 8 0 3 0;
#X connect 9 0 29 0;
#X connect 10 0 36 0;
#X connect 10 0 0 0;
#X connect 11 0 12 0;
#X connect 12 0 21 0;
#X connect 13 0 14 0;
#X connect 14 0 24 0;
#X connect 15 0 16 0;
#X connect 16 0 19 0;
#X connect 17 0 18 0;
#X connect 18 0 20 0;
#X connect 19 0 36 0;
#X connect 19 0 0 0;
#X connect 20 0 36 0;
#X connect 20 0 0 0;
#X connect 21 0 36 0;
#X connect 21 0 0 0;
#X connect 22 0 23 0;
#X connect 23 0 10 0;
#X connect 24 0 36 0;
#X connect 24 0 0 0;
#X connect 25 0 0 0;
#X connect 25 0 0 1;
#X connect 26 0 36 0;
#X connect 26 0 36 1;
#X connect 30 0 34 0;
#X connect 30 0 34 1;
#X connect 31 0 17 0;
#X connect 32 0 15 0;
#X connect 33 0 13 0;
#X connect 34 0 11 0;
#X connect 34 1 22 0;
#X connect 35 0 1 0;
#X connect 35 0 30 0;
#X connect 35 0 31 0;
#X connect 35 0 33 0;
#X connect 36 0 37 0;
#X connect 36 2 6 0;
#X connect 37 0 27 0;
#X connect 38 0 28 0;
