#N canvas 31 50 1404 674 10;
#X obj 200 326 i;
#X obj 234 475 f;
#X obj 200 344 + 2;
#X obj 200 272 / 100;
#X obj 200 254 -;
#X obj 193 233 f;
#X obj 200 290 + 1;
#X obj 200 308 * 600;
#X obj 200 362 +;
#X obj 200 380 int;
#X obj 193 197 snapshot~;
#X obj 144 -34 sel \$1;
#X msg 264 90 stop;
#X obj 144 -52 unpack s s;
#X obj 144 -70 r activePage;
#X obj 144 12 &&;
#X msg 201 -16 1;
#X msg 282 -16 0;
#X msg 144 -16 1;
#X msg 177 -16 0;
#X obj 200 398 min 125;
#X obj 144 104 delay 500;
#X obj 144 48 t f f;
#X obj 18 568 s oscOutRaw;
#X obj 144 76 sel 1;
#X obj 144 30 change;
#X obj 200 416 t b f f b;
#X obj 192 215 t b f;
#X obj 193 166 inlet~;
#X obj 144 134 metro 58.0498;
#X obj 363 382 r bypassmeter;
#X obj 217 449 spigot 1;
#X msg 262 416 1, f 2;
#X msg 390 435 0, f 2;
#X obj 338 435 t b b b;
#X obj 363 407 sel 0 100;
#X msg 244 118 /oled/gFillArea 5 0 50 128 14 0;
#X obj 68 147 tgl 15 0 empty empty empty 17 7 0 10 -262144 -1 -1 0
1;
#X msg 203 549 /oled/gFlip 3;
#X msg 218 521 /oled/gFillArea 3 2 128 \$1 9 1;
#X msg 234 493 /oled/gFillArea 3 2 128 \$1 9 0;
#X obj 201 -34 sel pg_deess;
#X connect 0 0 2 0;
#X connect 1 0 40 0;
#X connect 2 0 8 0;
#X connect 3 0 6 0;
#X connect 4 0 3 0;
#X connect 5 0 4 0;
#X connect 6 0 7 0;
#X connect 7 0 0 0;
#X connect 8 0 9 0;
#X connect 9 0 20 0;
#X connect 10 0 27 0;
#X connect 11 0 18 0;
#X connect 11 1 19 0;
#X connect 12 0 21 0;
#X connect 12 0 29 0;
#X connect 13 0 11 0;
#X connect 13 1 41 0;
#X connect 14 0 13 0;
#X connect 15 0 25 0;
#X connect 15 0 37 0;
#X connect 16 0 15 1;
#X connect 17 0 15 1;
#X connect 18 0 15 0;
#X connect 19 0 15 0;
#X connect 20 0 26 0;
#X connect 21 0 29 0;
#X connect 22 0 24 0;
#X connect 24 0 21 0;
#X connect 24 1 12 0;
#X connect 24 1 36 0;
#X connect 25 0 22 0;
#X connect 26 0 38 0;
#X connect 26 1 31 0;
#X connect 26 2 1 1;
#X connect 26 3 1 0;
#X connect 27 0 5 0;
#X connect 27 1 4 1;
#X connect 28 0 10 0;
#X connect 29 0 10 0;
#X connect 30 0 35 0;
#X connect 31 0 39 0;
#X connect 32 0 31 1;
#X connect 33 0 31 1;
#X connect 34 0 38 0;
#X connect 34 2 32 0;
#X connect 35 0 34 0;
#X connect 35 1 33 0;
#X connect 36 0 23 0;
#X connect 38 0 23 0;
#X connect 39 0 23 0;
#X connect 40 0 23 0;
#X connect 41 0 16 0;
#X connect 41 1 17 0;
