#N canvas 4 50 673 998 10;
#X obj 36 234 inlet attack;
#X obj 150 233 inlet release;
#X obj 36 255 int;
#X obj 150 254 int;
#X obj 140 288 select 1 2 3 4 5;
#X obj 25 577 outlet attack;
#X obj 155 577 outlet release;
#X msg 146 341 50;
#X msg 165 371 100;
#X msg 184 404 300;
#X msg 209 439 600;
#X msg 235 477 1200;
#X msg 25 341 0.1;
#X msg 44 371 0.3;
#X msg 63 404 0.6;
#X msg 88 439 3;
#X obj 21 288 select 1 2 3 4 5 6;
#X msg 114 477 10;
#X msg 134 510 30;
#X connect 0 0 2 0;
#X connect 1 0 3 0;
#X connect 2 0 16 0;
#X connect 3 0 4 0;
#X connect 4 0 7 0;
#X connect 4 1 8 0;
#X connect 4 2 9 0;
#X connect 4 3 10 0;
#X connect 4 4 11 0;
#X connect 7 0 6 0;
#X connect 8 0 6 0;
#X connect 9 0 6 0;
#X connect 10 0 6 0;
#X connect 11 0 6 0;
#X connect 12 0 5 0;
#X connect 13 0 5 0;
#X connect 14 0 5 0;
#X connect 15 0 5 0;
#X connect 16 0 12 0;
#X connect 16 1 13 0;
#X connect 16 2 14 0;
#X connect 16 3 15 0;
#X connect 16 4 17 0;
#X connect 16 5 18 0;
#X connect 17 0 5 0;
#X connect 18 0 5 0;
