#N canvas 790 50 593 742 10;
#X obj -6 199 rmstodb;
#X floatatom 161 92 5 0 0 0 threshold - -;
#X obj -41 522 *~;
#X obj -5 249 >;
#X obj -14 285 pack f f;
#X msg -16 347 \$1 \$2;
#X floatatom 163 128 5 0 0 0 attack - -;
#X obj -12 308 t a b;
#X msg 42 380 0 \$1;
#X obj 40 359 int;
#X obj 30 333 delay;
#X floatatom 162 186 5 0 0 0 decay - -;
#X floatatom 160 158 5 0 0 0 hold - -;
#X obj -65 95 inlet~;
#X obj -40 564 outlet~;
#X obj -9 425 line~;
#X obj 295 200 rmstodb;
#X obj 268 523 *~;
#X obj 295 224 >;
#X obj 295 286 pack f f;
#X msg 293 348 \$1 \$2;
#X obj 297 309 t a b;
#X msg 351 381 0 \$1;
#X obj 349 360 int;
#X obj 339 334 delay;
#X obj 244 96 inlet~;
#X obj 269 565 outlet~;
#X obj 300 426 line~;
#X obj 10 8 r gate-thresh-\$1;
#X obj 10 34 r gate-attack-\$1;
#X obj 10 60 r gate-hold-\$1;
#X obj 10 86 r gate-decay-\$1;
#X floatatom 169 272 5 0 0 0 - - -;
#X msg 251 32 5000;
#X obj 295 176 env~ 4096;
#X obj 2 183 env~ 4096;
#X msg 218 32 80;
#X obj 383 79 r loadbang-\$1;
#X obj 271 121 *~;
#X obj -36 119 *~;
#N canvas 798 182 450 300 Rmute 1;
#X obj 124 71 tgl 15 0 empty empty empty 17 7 0 10 -262144 -1 -1 0
1;
#X obj 124 91 sel 1 0;
#X obj 124 112 t b b;
#X obj 175 113 t b b;
#X msg 124 133 1 1;
#X msg 175 134 0 1;
#X obj 124 180 line~;
#X obj 175 181 line~;
#X obj 124 201 outlet~;
#X obj 175 202 outlet~;
#X msg 151 156 0 1;
#X msg 202 156 1 1;
#X obj 124 48 r gate_selectR-\$1;
#X connect 0 0 1 0;
#X connect 1 0 2 0;
#X connect 1 1 3 0;
#X connect 2 0 4 0;
#X connect 2 1 10 0;
#X connect 3 0 5 0;
#X connect 3 1 11 0;
#X connect 4 0 6 0;
#X connect 5 0 6 0;
#X connect 6 0 8 0;
#X connect 7 0 9 0;
#X connect 10 0 7 0;
#X connect 11 0 7 0;
#X connect 12 0 0 0;
#X restore 317 142 pd Rmute;
#N canvas 440 193 450 300 Lmute 1;
#X obj 124 71 tgl 15 0 empty empty empty 17 7 0 10 -262144 -1 -1 0
1;
#X obj 124 91 sel 1 0;
#X obj 124 112 t b b;
#X obj 175 113 t b b;
#X msg 124 133 1 1;
#X msg 175 134 0 1;
#X obj 124 194 line~;
#X obj 175 195 line~;
#X obj 124 215 outlet~;
#X obj 175 216 outlet~;
#X msg 151 156 0 1;
#X msg 202 156 1 1;
#X obj 124 48 r gate_selectL-\$1;
#X connect 0 0 1 0;
#X connect 1 0 2 0;
#X connect 1 1 3 0;
#X connect 2 0 4 0;
#X connect 2 1 10 0;
#X connect 3 0 5 0;
#X connect 3 1 11 0;
#X connect 4 0 6 0;
#X connect 5 0 6 0;
#X connect 6 0 8 0;
#X connect 7 0 9 0;
#X connect 10 0 7 0;
#X connect 11 0 7 0;
#X connect 12 0 0 0;
#X restore 24 143 pd Lmute;
#X obj 60 522 *~;
#X obj 346 523 *~;
#X msg 293 32 75000;
#X msg 179 32 132;
#X connect 0 0 3 0;
#X connect 0 0 32 0;
#X connect 1 0 3 1;
#X connect 1 0 18 1;
#X connect 2 0 14 0;
#X connect 3 0 4 0;
#X connect 4 0 7 0;
#X connect 5 0 15 0;
#X connect 6 0 4 1;
#X connect 6 0 19 1;
#X connect 7 0 5 0;
#X connect 7 1 10 0;
#X connect 8 0 15 0;
#X connect 9 0 8 0;
#X connect 10 0 9 0;
#X connect 11 0 9 1;
#X connect 11 0 23 1;
#X connect 12 0 10 1;
#X connect 12 0 24 1;
#X connect 13 0 39 0;
#X connect 13 0 42 0;
#X connect 15 0 2 1;
#X connect 16 0 18 0;
#X connect 17 0 26 0;
#X connect 18 0 19 0;
#X connect 19 0 21 0;
#X connect 20 0 27 0;
#X connect 21 0 20 0;
#X connect 21 1 24 0;
#X connect 22 0 27 0;
#X connect 23 0 22 0;
#X connect 24 0 23 0;
#X connect 25 0 38 0;
#X connect 25 0 43 0;
#X connect 27 0 17 1;
#X connect 28 0 1 0;
#X connect 29 0 6 0;
#X connect 30 0 12 0;
#X connect 31 0 11 0;
#X connect 33 0 12 0;
#X connect 34 0 16 0;
#X connect 35 0 0 0;
#X connect 36 0 6 0;
#X connect 37 0 44 0;
#X connect 37 0 33 0;
#X connect 37 0 36 0;
#X connect 37 0 45 0;
#X connect 38 0 34 0;
#X connect 38 0 17 0;
#X connect 39 0 35 0;
#X connect 39 0 2 0;
#X connect 40 0 38 1;
#X connect 40 1 43 1;
#X connect 41 0 39 1;
#X connect 41 1 42 1;
#X connect 42 0 14 0;
#X connect 43 0 26 0;
#X connect 44 0 11 0;
#X connect 45 0 1 0;
#X coords 0 742 1 741 95 95 0;
