#N canvas 4 50 1912 998 10;
#X obj 100 -22 inlet~ inL-\$1;
#X obj 100 196 outlet~ outL-\$1;
#X obj 800 0 sel \$1;
#X obj 800 -18 unpack s s;
#X obj 800 -36 r activePage;
#X obj 842 76 &&;
#X msg 857 30 1;
#X msg 992 30 0;
#X msg 800 30 1;
#X msg 833 30 0;
#X obj 869 151 delay 500;
#X obj 209 444 i;
#X obj 936 1075 f;
#X obj 209 408 / 100;
#X obj 209 390 -;
#X obj 197 362 f;
#X obj 312 442 i;
#X obj 949 1029 f;
#X obj 312 406 / 100;
#X obj 312 388 -;
#X obj 300 360 f;
#X obj 300 342 t b f;
#X obj 197 344 t b f;
#X obj 372 899 s oscOutRaw;
#X obj 1539 -49 r loadbang-\$1;
#X obj 1544 15 s aux-label-\$1;
#X obj 1586 -21 int 0;
#X obj 1586 -3 s aux-led-\$1;
#X obj 1544 -3 symbol;
#X obj 433 442 i;
#X obj 963 983 f;
#X obj 433 406 / 100;
#X obj 433 388 -;
#X obj 421 360 f;
#X obj 421 342 t b f;
#X obj 804 438 i;
#X obj 1003 942 f;
#X obj 804 402 / 100;
#X obj 804 384 -;
#X obj 792 356 f;
#X obj 792 338 t b f;
#X obj 209 480 min 64;
#X obj 312 478 min 64;
#X obj 433 478 min 64;
#X obj 804 474 min 64;
#X obj 1397 428 s rackMsgs;
#X obj 1607 259 / 1023;
#X obj 1607 344 symbol \$1;
#X obj 1607 372 pack s 2;
#X obj 1607 223 i;
#X obj 1607 241 change -1;
#X obj 1127 249 / 1023;
#X obj 1127 344 symbol \$1;
#X obj 1127 372 pack s 2;
#X obj 1127 213 i;
#X obj 1127 231 change -1;
#X obj 1273 249 / 1023;
#X obj 1273 344 symbol \$1;
#X obj 1273 372 pack s 2;
#X obj 1273 213 i;
#X obj 1273 231 change -1;
#X obj 1437 259 / 1023;
#X obj 1437 344 symbol \$1;
#X obj 1437 372 pack s 2;
#X obj 1437 223 i;
#X obj 1437 241 change -1;
#X obj 1127 195 r oknob1Raw;
#X obj 1273 195 r oknob2Raw;
#X obj 1437 205 r oknob3Raw;
#X obj 1607 205 r oknob4Raw;
#X msg 1127 390 setparam \$1 lowband \$2;
#X msg 1273 390 setparam \$1 midlowband \$2;
#X msg 1437 390 setparam \$1 midhighband \$2;
#X msg 1607 390 setparam \$1 highband \$2;
#X msg 367 632 /oled/gShowInfoBar 3 0;
#X msg 231 632 /oled/gShowInfoBar 3 1;
#X obj 312 424 * 64;
#X obj 312 460 + 63;
#X obj 312 496 max 0;
#X obj 433 424 * 64;
#X obj 804 420 * 64;
#X obj 209 426 * 64;
#X obj 209 498 max 0;
#X obj 804 492 max 0;
#X obj 433 496 max 0;
#X obj 209 462 + 63;
#X obj 433 460 + 63;
#X obj 804 456 + 63;
#X obj 197 252 env~ 4352 2176;
#X obj 300 250 env~ 4352 2176;
#X obj 421 250 env~ 4352 2176;
#X obj 792 256 env~ 4352 2176;
#X obj 928 406 bng 15 250 50 0 empty empty empty 17 7 0 10 -262144
-1 -1;
#X obj 792 320 *;
#X obj 792 302 / 10;
#X obj 792 284 spigot 0;
#X msg 923 1121 /oled/gFlip 3 1;
#X msg 869 169 1;
#X obj 421 278 spigot 0;
#X obj 421 296 / 10;
#X obj 421 324 *;
#X obj 300 324 *;
#X obj 300 296 / 10;
#X obj 300 278 spigot 0;
#X obj 197 280 spigot 0;
#X obj 197 298 / 10;
#X obj 197 326 *;
#X obj 1127 326 t b f, f 14;
#X obj 1273 326 t b f, f 14;
#X obj 1437 326 t b f, f 14;
#X obj 1607 326 t b f, f 14;
#X msg 869 133 stop;
#X obj 1016 869 f;
#X obj 1031 812 i;
#X obj 1029 746 f;
#X obj 1044 728 i;
#X obj 1044 710 r midlowband-\$1;
#X obj 1043 664 f;
#X obj 1058 646 i;
#X obj 1058 628 r midhighband-\$1;
#X obj 1056 582 f;
#X obj 1071 534 i;
#X obj 1071 514 r highband-\$1;
#X obj 153 171 outlet~ outR-\$1;
#X obj 439 -22 inlet~ inR-\$1;
#X msg 41 632 /oled/gFillArea 3 0 50 128 14 0;
#X msg 1070 486 /oled/gFillArea 3 0 0 128 64 1;
#X msg 1056 600 /oled/gPrintln 3 101 53 8 0 \$1%;
#X msg 1043 682 /oled/gPrintln 3 69 53 8 0 \$1%;
#X msg 1029 764 /oled/gPrintln 3 37 53 8 0 \$1%;
#X msg 1016 887 /oled/gPrintln 3 5 53 8 0 \$1%;
#X obj 842 94 change;
#X obj 1127 308 spigot 0;
#X obj 1273 308 spigot 0;
#X obj 1437 308 spigot 0;
#X obj 1607 308 spigot 0;
#X obj 842 115 sel 1;
#X msg 995 129 0;
#X obj 1539 33 print loaded:eq4 into \$1;
#X obj 100 87 comp \$1, f 18;
#X obj 205 115 oled \$1;
#X obj 1127 281 override;
#X obj 1008 -38 sel pg_eq4;
#X obj 1029 13 &&;
#X msg 1008 -17 1;
#X msg 1067 -18 0;
#X obj 1029 34 change;
#X obj 1583 56 tgl 15 0 empty empty empty 17 7 0 10 -262144 -1 -1 0
1;
#X obj 1270 279 override;
#X obj 1441 285 override;
#X obj 1610 284 override;
#X msg 1352 104 1;
#X obj 1492 33 del 10;
#X obj 550 444 i;
#X obj 550 408 / 100;
#X obj 550 390 -;
#X obj 538 362 f;
#X obj 538 344 t b f;
#X obj 671 444 i;
#X obj 671 408 / 100;
#X obj 671 390 -;
#X obj 659 362 f;
#X obj 659 344 t b f;
#X obj 550 480 min 64;
#X obj 671 480 min 64;
#X obj 550 426 * 64;
#X obj 550 462 + 63;
#X obj 550 498 max 0;
#X obj 671 426 * 64;
#X obj 671 498 max 0;
#X obj 671 462 + 63;
#X obj 538 252 env~ 4352 2176;
#X obj 659 252 env~ 4352 2176;
#X obj 659 280 spigot 0;
#X obj 659 298 / 10;
#X obj 659 326 *;
#X obj 538 326 *;
#X obj 538 298 / 10;
#X obj 538 280 spigot 0;
#X obj 923 448 t b b b b b b b b b b b b;
#X msg 936 1093 /oled/gInvertArea 3 0 0 32 \$1 1;
#X msg 949 1047 /oled/gInvertArea 3 32 0 32 \$1 1;
#X msg 963 1001 /oled/gInvertArea 3 64 0 32 \$1 1;
#X msg 1003 960 /oled/gInvertArea 3 96 0 32 \$1 1;
#X obj 804 598 spigot;
#X obj 209 598 spigot;
#X obj 312 522 spigot;
#X obj 433 522 spigot;
#X obj 550 522 spigot;
#X obj 671 522 spigot;
#X obj 1135 812 i;
#X obj 1156 532 i;
#X obj 1031 792 r lowband-\$1;
#X obj 1135 791 r lowlowband-\$1;
#X obj 1156 513 r highhighband-\$1;
#X obj 413 705 r auxIn-\$1;
#X obj 413 731 tgl 15 0 empty empty empty 17 7 0 10 -262144 -1 -1 0
1;
#X obj 413 776 ==;
#X obj 413 802 tgl 15 0 empty empty empty 17 7 0 10 -262144 -1 -1 1
1;
#X obj 413 751 s auxPress-\$1;
#X obj 413 822 s auxUnpress-\$1;
#X obj 242 567 r auxPress-\$1;
#X obj 837 567 r auxPress-\$1;
#X obj 496 575 r auxUnpress-\$1;
#X obj 1071 555 spigot;
#X obj 1268 558 r auxUnpress-\$1;
#X obj 1156 553 spigot;
#X obj 1274 527 r auxPress-\$1;
#X obj 1031 833 spigot;
#X obj 1135 833 spigot;
#X obj 1238 818 r auxUnpress-\$1;
#X obj 1238 791 r auxPress-\$1;
#X obj 968 249 / 1023;
#X obj 968 344 symbol \$1;
#X obj 968 372 pack s 2;
#X obj 968 213 i;
#X obj 968 231 change -1;
#X obj 968 195 r oknob1Raw;
#X obj 968 326 t b f, f 14;
#X obj 968 308 spigot 0;
#X obj 968 281 override;
#X msg 968 390 setparam \$1 lowlowband \$2;
#X obj 1754 258 / 1023;
#X obj 1754 343 symbol \$1;
#X obj 1754 371 pack s 2;
#X obj 1754 222 i;
#X obj 1754 240 change -1;
#X obj 1754 204 r oknob4Raw;
#X obj 1754 325 t b f, f 14;
#X obj 1754 307 spigot 0;
#X obj 1757 283 override;
#X obj 1231 -3 &&;
#X obj 1231 20 tgl 15 0 empty empty empty 17 7 0 10 -262144 -1 -1 0
1;
#X obj 1231 -26 r auxPress-\$1;
#X obj 1257 101 &&;
#X obj 1257 124 tgl 15 0 empty empty empty 17 7 0 10 -262144 -1 -1
1 1;
#X obj 1257 78 r auxUnpress-\$1;
#X floatatom 1281 583 5 0 0 0 - - -;
#X floatatom 1192 577 5 0 0 0 - - -;
#X floatatom 1851 354 5 0 0 0 - - -;
#X msg 1754 389 setparam \$1 highhighband \$2;
#X obj 516 671 r loadbang-\$1;
#X obj 516 692 t b b;
#X obj 516 713 del 10;
#N canvas 579 289 1201 633 deesser 1;
#X obj 177 66 vsl 15 128 1 1.4 0 0 empty empty empty 0 -9 0 10 -262144
-1 -1 12079 1;
#X obj 124 277 *;
#X obj 182 220 * -1;
#X obj 122 184 bng 15 250 50 0 empty empty empty 17 7 0 10 -262144
-1 -1;
#X obj 229 270 /;
#X obj 229 291 abs;
#X obj 229 229 i 8000;
#X obj 124 231 i 4000;
#X floatatom 233 189 5 0 0 0 - - -;
#X obj 124 252 *;
#X obj 229 250 *;
#X obj 86 57 vsl 15 128 0.75 2 0 0 empty empty empty 0 -9 0 10 -262144
-1 -1 8020 1;
#X text 242 84 Q;
#X text 107 88 freq mult;
#X obj 324 39 inlet~;
#X obj 395 39 inlet~;
#X obj 305 533 outlet~;
#X obj 393 533 outlet~;
#X obj 325 165 *~;
#X obj 394 145 *~;
#X obj 302 199 hip~ 4000;
#X obj 302 230 lop~ 8000;
#X obj 423 188 hip~ 4000;
#X obj 423 219 lop~ 8000;
#X msg 133 20 1;
#X msg 198 21 1.4;
#X obj 124 298 int;
#X obj 229 312 int;
#X floatatom 229 333 5 0 0 0 - - -;
#X floatatom 124 319 5 0 0 0 - - -;
#X obj 27 7 r freq_mult-\$1;
#X obj 252 13 r q-\$1;
#X obj 607 85 sel \$1;
#X obj 607 67 unpack s s;
#X obj 607 49 r activePage;
#X obj 607 131 &&;
#X msg 664 103 1;
#X msg 745 103 0;
#X msg 607 103 1;
#X msg 640 103 0;
#X obj 607 149 change;
#X obj 664 85 sel pg_deess;
#X obj 611 187 tgl 15 0 empty empty empty 17 7 0 10 -262144 -1 -1 0
1;
#X obj 124 397 pack 0 0;
#X obj 229 353 t b f;
#X obj 124 418 spigot;
#X msg 127 439 \$1 --------- \$2;
#X obj 124 460 s aux-label-\$1;
#X obj 678 196 sel 1;
#X obj 678 217 del 10;
#X obj 498 213 *~;
#X obj 541 213 *~;
#X floatatom 252 34 5 0 0 0 - - -;
#X floatatom 27 28 5 0 0 0 - - -;
#X obj 321 1 r loadbang-\$1;
#X obj 303 495 +~;
#X obj 383 466 +~;
#N canvas 402 304 450 300 isolate 0;
#X obj 159 51 inlet~;
#X obj 244 51 inlet;
#X obj 312 51 inlet;
#X obj 159 86 hip~;
#X obj 197 86 lop~;
#X obj 159 153 outlet~;
#X obj 159 107 +~;
#X obj 159 128 *~ 0.707;
#X connect 0 0 3 0;
#X connect 0 0 4 0;
#X connect 1 0 3 1;
#X connect 2 0 4 1;
#X connect 3 0 6 0;
#X connect 4 0 6 1;
#X connect 6 0 7 0;
#X connect 7 0 5 0;
#X restore 349 385 pd isolate;
#N canvas 402 304 450 300 isolate 0;
#X obj 159 51 inlet~;
#X obj 244 51 inlet;
#X obj 312 51 inlet;
#X obj 159 86 hip~;
#X obj 197 86 lop~;
#X obj 159 153 outlet~;
#X obj 159 107 +~;
#X obj 159 128 *~ 0.707;
#X connect 0 0 3 0;
#X connect 0 0 4 0;
#X connect 1 0 3 1;
#X connect 2 0 4 1;
#X connect 3 0 6 0;
#X connect 4 0 6 1;
#X connect 6 0 7 0;
#X connect 7 0 5 0;
#X restore 431 388 pd isolate;
#N canvas 416 203 450 300 Lmute 0;
#X obj 159 37 r ds_selectL-\$1;
#X obj 159 78 tgl 15 0 empty empty empty 17 7 0 10 -262144 -1 -1 1
1;
#X obj 159 98 sel 1 0;
#X obj 159 119 t b b;
#X msg 159 140 1 1;
#X obj 159 191 line~;
#X obj 159 212 outlet~;
#X obj 240 121 t b b;
#X msg 240 142 1 1;
#X obj 240 193 line~;
#X obj 240 214 outlet~;
#X msg 186 164 0 1;
#X msg 267 164 0 1;
#X connect 0 0 1 0;
#X connect 1 0 2 0;
#X connect 2 0 3 0;
#X connect 2 1 7 0;
#X connect 3 0 4 0;
#X connect 3 1 11 0;
#X connect 4 0 5 0;
#X connect 5 0 6 0;
#X connect 7 0 8 0;
#X connect 7 1 12 0;
#X connect 8 0 9 0;
#X connect 9 0 10 0;
#X connect 11 0 9 0;
#X connect 12 0 5 0;
#X restore 457 52 pd Lmute;
#N canvas 416 203 450 300 Rmute 0;
#X obj 159 78 tgl 15 0 empty empty empty 17 7 0 10 -262144 -1 -1 1
1;
#X obj 159 98 sel 1 0;
#X obj 159 119 t b b;
#X msg 159 140 1 1;
#X obj 159 191 line~;
#X obj 159 212 outlet~;
#X obj 240 121 t b b;
#X msg 240 142 1 1;
#X obj 240 193 line~;
#X obj 240 214 outlet~;
#X msg 186 164 0 1;
#X msg 267 164 0 1;
#X obj 159 37 r ds_selectR-\$1;
#X connect 0 0 1 0;
#X connect 1 0 2 0;
#X connect 1 1 6 0;
#X connect 2 0 3 0;
#X connect 2 1 10 0;
#X connect 3 0 4 0;
#X connect 4 0 5 0;
#X connect 6 0 7 0;
#X connect 6 1 11 0;
#X connect 7 0 8 0;
#X connect 8 0 9 0;
#X connect 10 0 8 0;
#X connect 11 0 4 0;
#X connect 12 0 0 0;
#X restore 528 53 pd Rmute;
#X obj 713 357 s dsresponse-\$1;
#X msg 706 329 100;
#X msg 749 328 50;
#X msg 791 329 10;
#X obj 597 547 clip~ -1 1;
#X obj 702 546 clip~ -1 1;
#X obj 820 61 vsl 15 128 -80 0 0 0 empty empty empty 0 -9 0 10 -262144
-1 -1 0 1;
#X obj 784 240 pack 0 100;
#X obj 784 261 line;
#X msg 784 282 threshold \$1;
#X obj 870 239 pack 0 100;
#X obj 870 260 line;
#X obj 953 239 pack 0 100;
#X obj 953 260 line;
#X msg 775 469 knee 0;
#X obj 1034 241 pack 0 100;
#X obj 1034 262 line;
#X msg 953 281 attack \$1;
#X msg 1034 283 release \$1;
#X obj 895 61 vsl 15 128 2 40 0 0 empty empty empty 0 -9 0 10 -262144
-1 -1 0 1;
#X obj 963 76 vsl 15 128 0.1 100 0 0 empty empty empty 0 -9 0 10 -262144
-1 -1 0 1;
#X floatatom 820 197 5 0 0 0 - - -;
#X floatatom 963 212 5 0 0 0 - - -;
#X obj 1034 76 vsl 15 128 50 600 0 0 empty empty empty 0 -9 0 10 -262144
-1 -1 0 1;
#X floatatom 1047 212 5 0 0 0 - - -;
#X obj 892 197 int;
#X floatatom 892 218 5 0 0 0 - - -;
#X obj 819 305 bng 15 250 50 0 empty empty empty 17 7 0 10 -262144
-1 -1;
#X obj 598 568 /~ 20;
#X obj 702 567 /~ 20;
#X obj 870 435 r loadbang-\$1;
#X obj 629 503 tb_peakcomp~;
#X obj 806 527 env~;
#X floatatom 806 548 5 0 0 0 - - -;
#X msg 950 471 release 60;
#X msg 869 471 ratio 1000;
#X connect 0 0 1 1;
#X connect 0 0 3 0;
#X connect 0 0 2 0;
#X connect 0 0 8 0;
#X connect 1 0 26 0;
#X connect 2 0 4 1;
#X connect 3 0 6 0;
#X connect 3 0 7 0;
#X connect 4 0 5 0;
#X connect 5 0 27 0;
#X connect 6 0 10 0;
#X connect 7 0 9 0;
#X connect 9 0 1 0;
#X connect 10 0 4 0;
#X connect 11 0 9 1;
#X connect 11 0 10 1;
#X connect 11 0 3 0;
#X connect 14 0 18 0;
#X connect 14 0 50 0;
#X connect 15 0 19 0;
#X connect 15 0 51 0;
#X connect 18 0 20 0;
#X connect 18 0 57 0;
#X connect 19 0 22 0;
#X connect 19 0 58 0;
#X connect 20 0 21 0;
#X connect 21 0 92 0;
#X connect 22 0 23 0;
#X connect 23 0 92 1;
#X connect 24 0 11 0;
#X connect 24 0 0 0;
#X connect 25 0 0 0;
#X connect 26 0 29 0;
#X connect 27 0 28 0;
#X connect 28 0 21 1;
#X connect 28 0 23 1;
#X connect 28 0 44 0;
#X connect 28 0 57 1;
#X connect 28 0 58 1;
#X connect 29 0 20 1;
#X connect 29 0 22 1;
#X connect 29 0 43 0;
#X connect 29 0 57 2;
#X connect 29 0 58 2;
#X connect 30 0 53 0;
#X connect 31 0 52 0;
#X connect 32 0 38 0;
#X connect 32 1 39 0;
#X connect 33 0 32 0;
#X connect 33 1 41 0;
#X connect 34 0 33 0;
#X connect 35 0 40 0;
#X connect 36 0 35 1;
#X connect 37 0 35 1;
#X connect 38 0 35 0;
#X connect 39 0 35 0;
#X connect 40 0 42 0;
#X connect 41 0 36 0;
#X connect 41 1 37 0;
#X connect 42 0 45 1;
#X connect 42 0 48 0;
#X connect 43 0 45 0;
#X connect 44 0 43 0;
#X connect 44 1 43 1;
#X connect 45 0 46 0;
#X connect 46 0 47 0;
#X connect 48 0 49 0;
#X connect 49 0 43 0;
#X connect 50 0 16 0;
#X connect 51 0 17 0;
#X connect 52 0 0 0;
#X connect 53 0 11 0;
#X connect 54 0 52 0;
#X connect 54 0 53 0;
#X connect 55 0 16 0;
#X connect 56 0 17 0;
#X connect 57 0 55 1;
#X connect 58 0 56 1;
#X connect 59 0 18 1;
#X connect 59 1 50 1;
#X connect 60 0 19 1;
#X connect 60 1 51 1;
#X connect 62 0 61 0;
#X connect 63 0 61 0;
#X connect 64 0 61 0;
#X connect 65 0 89 0;
#X connect 66 0 90 0;
#X connect 67 0 68 0;
#X connect 67 0 82 0;
#X connect 68 0 69 0;
#X connect 69 0 70 0;
#X connect 70 0 88 0;
#X connect 70 0 92 0;
#X connect 71 0 72 0;
#X connect 73 0 74 0;
#X connect 74 0 78 0;
#X connect 75 0 92 0;
#X connect 76 0 77 0;
#X connect 77 0 79 0;
#X connect 80 0 86 0;
#X connect 81 0 83 0;
#X connect 81 0 73 0;
#X connect 84 0 85 0;
#X connect 84 0 76 0;
#X connect 86 0 87 0;
#X connect 86 0 71 0;
#X connect 89 0 55 0;
#X connect 90 0 56 0;
#X connect 91 0 96 0;
#X connect 91 0 95 0;
#X connect 91 0 75 0;
#X connect 92 0 65 0;
#X connect 92 1 66 0;
#X connect 92 2 93 0;
#X connect 93 0 94 0;
#X connect 95 0 92 0;
#X connect 96 0 92 0;
#X restore 100 34 pd deesser;
#X f 57;
#X obj 857 0 sel pg_eq4;
#X obj 1330 -53 r loadbang-\$1;
#N canvas 80 278 1016 673 EQ 0;
#X obj 53 25 inlet~;
#X obj 143 22 inlet~;
#X obj 237 130 *~;
#X obj 128 193 *~;
#X obj 344 168 *~;
#X obj 726 70 *~;
#X obj 290 90 *~;
#X obj 182 145 *~;
#X obj 405 103 *~;
#X obj 810 121 *~;
#X obj 128 211 lop~ 100;
#X obj 182 211 lop~ 100;
#X obj 236 211 hip~ 100;
#X obj 234 240 lop~ 300;
#X obj 290 211 hip~ 100;
#X obj 288 240 lop~ 300;
#X obj 344 211 hip~ 300;
#X obj 342 240 lop~ 600;
#X obj 466 168 *~;
#X obj 532 103 *~;
#X obj 404 211 hip~ 300;
#X obj 402 240 lop~ 600;
#X obj 466 211 hip~ 600;
#X obj 464 240 lop~ 4000;
#X obj 531 211 hip~ 600;
#X obj 529 240 lop~ 4000;
#X obj 595 166 *~;
#X obj 660 146 *~;
#X obj 595 209 hip~ 4000;
#X obj 593 240 lop~ 8000;
#X obj 660 209 hip~ 4000;
#X obj 658 240 lop~ 8000;
#X obj 726 240 hip~ 10000;
#X obj 810 240 hip~ 10000;
#X obj 129 365 *~ 0.707;
#X obj 289 369 *~ 0.707;
#X obj 129 386 outlet~;
#X obj 289 390 outlet~;
#X obj 38 -35 pack 1 30;
#X obj 38 -17 line 0 3;
#X obj 339 -40 pack 1 30;
#X obj 339 -22 line 0 3;
#X obj 339 -58 / 100;
#X obj 38 -53 / 100;
#X obj 467 -36 pack 1 30;
#X obj 467 -18 line 0 3;
#X obj 467 -54 / 100;
#X obj 705 -33 pack 1 30;
#X obj 705 -15 line 0 3;
#X obj 705 -51 / 100;
#X obj 339 -76 r midlowband-\$1;
#X obj 467 -75 r midhighband-\$1;
#X obj 577 -72 r highband-\$1;
#X obj 577 -36 pack 1 30;
#X obj 577 -18 line 0 3;
#X obj 577 -54 / 100;
#X obj 705 -69 r highhighband-\$1;
#X obj 189 -73 r lowband-\$1;
#X obj 189 -37 pack 1 30;
#X obj 189 -19 line 0 3;
#X obj 189 -55 / 100;
#X obj 38 -71 r lowlowband-\$1;
#X obj 129 344 hip~ 80;
#X obj 289 348 hip~ 80;
#N canvas 315 475 450 300 Rmute 0;
#X obj 131 61 tgl 15 0 empty empty empty 17 7 0 10 -262144 -1 -1 1
1;
#X obj 131 81 sel 1 0;
#X obj 131 102 t b b;
#X obj 173 101 t b b;
#X msg 131 123 1 1;
#X msg 173 122 0 1;
#X obj 131 189 line~;
#X obj 131 210 outlet~;
#X obj 194 188 line~;
#X obj 194 209 outlet~;
#X msg 158 147 0 1;
#X msg 200 147 1 1;
#X obj 131 35 r eq_selectR-\$1;
#X connect 0 0 1 0;
#X connect 1 0 2 0;
#X connect 1 1 3 0;
#X connect 2 0 4 0;
#X connect 2 1 10 0;
#X connect 3 0 5 0;
#X connect 3 1 11 0;
#X connect 4 0 6 0;
#X connect 5 0 6 0;
#X connect 6 0 7 0;
#X connect 8 0 9 0;
#X connect 10 0 8 0;
#X connect 11 0 8 0;
#X connect 12 0 0 0;
#X restore 225 5 pd Rmute;
#N canvas 1001 536 450 300 Lmute 0;
#X obj 131 61 tgl 15 0 empty empty empty 17 7 0 10 -262144 -1 -1 1
1;
#X obj 131 81 sel 1 0;
#X obj 131 102 t b b;
#X obj 173 101 t b b;
#X msg 131 123 1 1;
#X msg 173 122 0 1;
#X obj 131 189 line~;
#X obj 131 210 outlet~;
#X obj 185 188 line~;
#X obj 185 209 outlet~;
#X msg 161 158 0 1;
#X msg 209 158 1 1;
#X obj 131 35 r eq_selectL-\$1;
#X connect 0 0 1 0;
#X connect 1 0 2 0;
#X connect 1 1 3 0;
#X connect 2 0 4 0;
#X connect 2 1 10 0;
#X connect 3 0 5 0;
#X connect 3 1 11 0;
#X connect 4 0 6 0;
#X connect 5 0 6 0;
#X connect 6 0 7 0;
#X connect 8 0 9 0;
#X connect 10 0 8 0;
#X connect 11 0 8 0;
#X connect 12 0 0 0;
#X restore 100 -16 pd Lmute;
#X obj 53 69 *~;
#X obj 145 48 *~;
#X obj 17 284 *~;
#X obj 53 285 *~;
#X obj 404 374 outlet~;
#X obj 468 374 outlet~;
#X obj 522 374 outlet~;
#X obj 586 374 outlet~;
#X obj 647 374 outlet~;
#X obj 711 374 outlet~;
#X connect 0 0 66 0;
#X connect 0 0 68 0;
#X connect 1 0 67 0;
#X connect 1 0 69 0;
#X connect 2 0 12 0;
#X connect 3 0 10 0;
#X connect 4 0 16 0;
#X connect 5 0 32 0;
#X connect 6 0 14 0;
#X connect 7 0 11 0;
#X connect 8 0 20 0;
#X connect 9 0 33 0;
#X connect 10 0 62 0;
#X connect 10 0 70 0;
#X connect 11 0 63 0;
#X connect 12 0 13 0;
#X connect 13 0 62 0;
#X connect 13 0 71 0;
#X connect 14 0 15 0;
#X connect 15 0 63 0;
#X connect 16 0 17 0;
#X connect 17 0 62 0;
#X connect 17 0 72 0;
#X connect 18 0 22 0;
#X connect 19 0 24 0;
#X connect 20 0 21 0;
#X connect 21 0 63 0;
#X connect 22 0 23 0;
#X connect 23 0 62 0;
#X connect 23 0 73 0;
#X connect 24 0 25 0;
#X connect 25 0 63 0;
#X connect 26 0 28 0;
#X connect 27 0 30 0;
#X connect 28 0 29 0;
#X connect 29 0 62 0;
#X connect 29 0 74 0;
#X connect 30 0 31 0;
#X connect 31 0 63 0;
#X connect 32 0 62 0;
#X connect 32 0 75 0;
#X connect 33 0 63 0;
#X connect 34 0 36 0;
#X connect 35 0 37 0;
#X connect 38 0 39 0;
#X connect 39 0 3 1;
#X connect 39 0 7 1;
#X connect 40 0 41 0;
#X connect 41 0 8 1;
#X connect 41 0 4 1;
#X connect 42 0 40 0;
#X connect 43 0 38 0;
#X connect 44 0 45 0;
#X connect 45 0 19 1;
#X connect 45 0 18 1;
#X connect 46 0 44 0;
#X connect 47 0 48 0;
#X connect 48 0 5 1;
#X connect 48 0 9 1;
#X connect 49 0 47 0;
#X connect 50 0 42 0;
#X connect 51 0 46 0;
#X connect 52 0 55 0;
#X connect 53 0 54 0;
#X connect 54 0 27 1;
#X connect 54 0 26 1;
#X connect 55 0 53 0;
#X connect 56 0 49 0;
#X connect 57 0 60 0;
#X connect 58 0 59 0;
#X connect 59 0 6 1;
#X connect 59 0 2 1;
#X connect 60 0 58 0;
#X connect 61 0 43 0;
#X connect 62 0 34 0;
#X connect 63 0 35 0;
#X connect 64 0 67 1;
#X connect 64 1 69 1;
#X connect 65 0 66 1;
#X connect 65 1 68 1;
#X connect 66 0 3 0;
#X connect 66 0 2 0;
#X connect 66 0 4 0;
#X connect 66 0 18 0;
#X connect 66 0 26 0;
#X connect 66 0 5 0;
#X connect 67 0 7 0;
#X connect 67 0 6 0;
#X connect 67 0 8 0;
#X connect 67 0 19 0;
#X connect 67 0 27 0;
#X connect 67 0 9 0;
#X connect 68 0 62 0;
#X connect 69 0 63 0;
#X restore 101 62 pd EQ;
#X f 57;
#X obj 572 -13 mute_selector ds_select \$1;
#X obj 572 13 mute_selector eq_select \$1;
#X obj 572 38 mute_selector comp_select \$1;
#X obj 572 -39 mute_selector reverb_select \$1;
#X obj 153 143 hip~ 5;
#X obj 101 143 hip~ 5;
#X obj 1645 67 r loadbang-\$1;
#X obj 1645 88 delay 30;
#X msg 1645 109 0;
#X obj 1645 130 s thru_gain-\$1;
#X obj 101 5 gate \$1, f 57;
#X obj 573 66 mute_selector gate_select \$1;
#X connect 0 0 258 0;
#X connect 2 0 8 0;
#X connect 2 1 9 0;
#X connect 3 0 2 0;
#X connect 3 1 245 0;
#X connect 3 1 142 0;
#X connect 4 0 3 0;
#X connect 5 0 131 0;
#X connect 5 0 231 1;
#X connect 5 0 234 1;
#X connect 6 0 5 1;
#X connect 7 0 5 1;
#X connect 8 0 5 0;
#X connect 8 0 143 0;
#X connect 9 0 5 0;
#X connect 9 0 143 0;
#X connect 10 0 74 0;
#X connect 10 0 97 0;
#X connect 11 0 85 0;
#X connect 12 0 180 0;
#X connect 13 0 81 0;
#X connect 14 0 13 0;
#X connect 15 0 14 0;
#X connect 16 0 77 0;
#X connect 17 0 181 0;
#X connect 18 0 76 0;
#X connect 19 0 18 0;
#X connect 20 0 19 0;
#X connect 21 0 20 0;
#X connect 21 1 19 1;
#X connect 22 0 15 0;
#X connect 22 1 14 1;
#X connect 24 0 26 0;
#X connect 24 0 28 0;
#X connect 24 0 138 0;
#X connect 24 0 152 0;
#X connect 26 0 27 0;
#X connect 28 0 25 0;
#X connect 29 0 86 0;
#X connect 30 0 182 0;
#X connect 31 0 79 0;
#X connect 32 0 31 0;
#X connect 33 0 32 0;
#X connect 34 0 33 0;
#X connect 34 1 32 1;
#X connect 35 0 87 0;
#X connect 36 0 183 0;
#X connect 37 0 80 0;
#X connect 38 0 37 0;
#X connect 39 0 38 0;
#X connect 40 0 39 0;
#X connect 40 1 38 1;
#X connect 41 0 82 0;
#X connect 42 0 78 0;
#X connect 43 0 84 0;
#X connect 44 0 83 0;
#X connect 46 0 150 0;
#X connect 47 0 48 0;
#X connect 48 0 73 0;
#X connect 49 0 50 0;
#X connect 50 0 46 0;
#X connect 51 0 141 0;
#X connect 52 0 53 0;
#X connect 53 0 70 0;
#X connect 54 0 55 0;
#X connect 55 0 51 0;
#X connect 56 0 148 0;
#X connect 57 0 58 0;
#X connect 58 0 71 0;
#X connect 59 0 60 0;
#X connect 60 0 56 0;
#X connect 61 0 149 0;
#X connect 62 0 63 0;
#X connect 63 0 72 0;
#X connect 64 0 65 0;
#X connect 65 0 61 0;
#X connect 66 0 54 0;
#X connect 67 0 59 0;
#X connect 68 0 64 0;
#X connect 69 0 49 0;
#X connect 70 0 45 0;
#X connect 71 0 45 0;
#X connect 72 0 45 0;
#X connect 73 0 45 0;
#X connect 74 0 23 0;
#X connect 75 0 23 0;
#X connect 76 0 16 0;
#X connect 77 0 42 0;
#X connect 78 0 186 0;
#X connect 79 0 29 0;
#X connect 80 0 35 0;
#X connect 81 0 11 0;
#X connect 82 0 185 0;
#X connect 83 0 184 0;
#X connect 84 0 187 0;
#X connect 85 0 41 0;
#X connect 86 0 43 0;
#X connect 87 0 44 0;
#X connect 88 0 104 0;
#X connect 89 0 103 0;
#X connect 90 0 98 0;
#X connect 91 0 95 0;
#X connect 92 0 179 0;
#X connect 93 0 40 0;
#X connect 94 0 93 0;
#X connect 94 0 93 1;
#X connect 95 0 94 0;
#X connect 95 0 92 0;
#X connect 96 0 23 0;
#X connect 97 0 95 1;
#X connect 97 0 103 1;
#X connect 97 0 104 1;
#X connect 97 0 98 1;
#X connect 97 0 178 1;
#X connect 97 0 173 1;
#X connect 98 0 99 0;
#X connect 99 0 100 0;
#X connect 99 0 100 1;
#X connect 100 0 34 0;
#X connect 101 0 21 0;
#X connect 102 0 101 0;
#X connect 102 0 101 1;
#X connect 103 0 102 0;
#X connect 104 0 105 0;
#X connect 105 0 106 0;
#X connect 105 0 106 1;
#X connect 106 0 22 0;
#X connect 107 0 52 0;
#X connect 107 1 53 1;
#X connect 108 0 57 0;
#X connect 108 1 58 1;
#X connect 109 0 62 0;
#X connect 109 1 63 1;
#X connect 110 0 47 0;
#X connect 110 1 48 1;
#X connect 111 0 10 0;
#X connect 112 0 130 0;
#X connect 113 0 208 0;
#X connect 114 0 129 0;
#X connect 115 0 114 1;
#X connect 116 0 115 0;
#X connect 117 0 128 0;
#X connect 118 0 117 1;
#X connect 119 0 118 0;
#X connect 120 0 127 0;
#X connect 121 0 204 0;
#X connect 122 0 121 0;
#X connect 122 0 238 0;
#X connect 124 0 258 1;
#X connect 125 0 23 0;
#X connect 126 0 23 0;
#X connect 127 0 23 0;
#X connect 128 0 23 0;
#X connect 129 0 23 0;
#X connect 130 0 23 0;
#X connect 131 0 133 1;
#X connect 131 0 134 1;
#X connect 131 0 136 0;
#X connect 132 0 107 0;
#X connect 133 0 108 0;
#X connect 134 0 109 0;
#X connect 135 0 110 0;
#X connect 136 0 10 0;
#X connect 136 1 125 0;
#X connect 136 1 111 0;
#X connect 136 1 137 0;
#X connect 137 0 104 1;
#X connect 137 0 103 1;
#X connect 137 0 98 1;
#X connect 137 0 95 1;
#X connect 137 0 178 1;
#X connect 137 0 173 1;
#X connect 139 0 253 0;
#X connect 139 1 252 0;
#X connect 139 2 140 0;
#X connect 141 0 132 0;
#X connect 142 0 144 0;
#X connect 142 1 145 0;
#X connect 143 0 146 0;
#X connect 144 0 143 1;
#X connect 145 0 143 1;
#X connect 146 0 147 0;
#X connect 147 0 141 1;
#X connect 147 0 148 1;
#X connect 147 0 149 1;
#X connect 147 0 150 1;
#X connect 148 0 133 0;
#X connect 149 0 134 0;
#X connect 150 0 135 0;
#X connect 151 0 141 0;
#X connect 151 0 148 0;
#X connect 151 0 149 0;
#X connect 151 0 150 0;
#X connect 151 0 235 0;
#X connect 152 0 151 0;
#X connect 153 0 166 0;
#X connect 154 0 165 0;
#X connect 155 0 154 0;
#X connect 156 0 155 0;
#X connect 157 0 156 0;
#X connect 157 1 155 1;
#X connect 158 0 170 0;
#X connect 159 0 168 0;
#X connect 160 0 159 0;
#X connect 161 0 160 0;
#X connect 162 0 161 0;
#X connect 162 1 160 1;
#X connect 163 0 167 0;
#X connect 164 0 169 0;
#X connect 165 0 153 0;
#X connect 166 0 163 0;
#X connect 167 0 188 0;
#X connect 168 0 158 0;
#X connect 169 0 189 0;
#X connect 170 0 164 0;
#X connect 171 0 178 0;
#X connect 172 0 173 0;
#X connect 173 0 174 0;
#X connect 174 0 175 0;
#X connect 174 0 175 1;
#X connect 175 0 162 0;
#X connect 176 0 157 0;
#X connect 177 0 176 0;
#X connect 177 0 176 1;
#X connect 178 0 177 0;
#X connect 179 0 96 0;
#X connect 179 1 12 0;
#X connect 179 2 17 0;
#X connect 179 3 30 0;
#X connect 179 6 36 0;
#X connect 179 7 112 0;
#X connect 179 8 114 0;
#X connect 179 9 117 0;
#X connect 179 10 120 0;
#X connect 179 11 126 0;
#X connect 180 0 23 0;
#X connect 181 0 23 0;
#X connect 182 0 23 0;
#X connect 183 0 23 0;
#X connect 184 0 36 1;
#X connect 185 0 12 1;
#X connect 186 0 12 1;
#X connect 187 0 17 1;
#X connect 188 0 30 1;
#X connect 189 0 36 1;
#X connect 190 0 209 0;
#X connect 191 0 206 0;
#X connect 192 0 113 0;
#X connect 193 0 190 0;
#X connect 194 0 191 0;
#X connect 194 0 237 0;
#X connect 195 0 196 0;
#X connect 196 0 197 0;
#X connect 196 0 199 0;
#X connect 197 0 198 0;
#X connect 198 0 200 0;
#X connect 201 0 185 1;
#X connect 202 0 184 1;
#X connect 203 0 186 1;
#X connect 203 0 187 1;
#X connect 203 0 188 1;
#X connect 203 0 189 1;
#X connect 204 0 120 1;
#X connect 205 0 204 1;
#X connect 206 0 120 1;
#X connect 207 0 206 1;
#X connect 208 0 112 1;
#X connect 209 0 112 1;
#X connect 210 0 208 1;
#X connect 211 0 209 1;
#X connect 212 0 220 0;
#X connect 213 0 214 0;
#X connect 214 0 221 0;
#X connect 215 0 216 0;
#X connect 216 0 212 0;
#X connect 217 0 215 0;
#X connect 218 0 213 0;
#X connect 218 1 214 1;
#X connect 219 0 218 0;
#X connect 220 0 219 0;
#X connect 221 0 45 0;
#X connect 222 0 230 0;
#X connect 223 0 224 0;
#X connect 224 0 240 0;
#X connect 225 0 226 0;
#X connect 226 0 222 0;
#X connect 227 0 225 0;
#X connect 228 0 223 0;
#X connect 228 1 224 1;
#X connect 228 1 239 0;
#X connect 229 0 228 0;
#X connect 230 0 229 0;
#X connect 231 0 232 0;
#X connect 232 0 219 1;
#X connect 232 0 229 1;
#X connect 232 0 220 1;
#X connect 232 0 230 1;
#X connect 233 0 231 0;
#X connect 234 0 235 0;
#X connect 235 0 132 1;
#X connect 235 0 135 1;
#X connect 235 0 220 1;
#X connect 235 0 230 1;
#X connect 236 0 234 0;
#X connect 240 0 45 0;
#X connect 241 0 242 0;
#X connect 242 0 243 0;
#X connect 242 1 196 0;
#X connect 243 0 196 0;
#X connect 244 0 247 0;
#X connect 244 1 247 1;
#X connect 245 0 6 0;
#X connect 245 1 7 0;
#X connect 245 1 75 0;
#X connect 246 0 141 2;
#X connect 246 0 148 2;
#X connect 246 0 149 2;
#X connect 246 0 150 2;
#X connect 247 0 139 0;
#X connect 247 1 139 1;
#X connect 247 2 88 0;
#X connect 247 3 89 0;
#X connect 247 4 90 0;
#X connect 247 5 171 0;
#X connect 247 6 172 0;
#X connect 247 7 91 0;
#X connect 252 0 123 0;
#X connect 253 0 1 0;
#X connect 254 0 255 0;
#X connect 255 0 256 0;
#X connect 256 0 257 0;
#X connect 258 0 244 0;
#X connect 258 1 244 1;
