#N canvas 1021 417 643 445 10;
#X msg 224 213 1;
#X floatatom 224 234 5 0 0 0 - - -;
#X floatatom 263 234 5 0 0 0 - - -;
#X msg 397 216 1;
#X floatatom 358 237 5 0 0 0 - - -;
#X floatatom 397 237 5 0 0 0 - - -;
#X msg 89 212 1;
#X msg 128 212 1;
#X floatatom 89 233 5 0 0 0 - - -;
#X floatatom 128 233 5 0 0 0 - - -;
#X msg 263 213 0;
#X msg 358 216 0;
#X obj 186 282 tgl 15 0 empty empty empty 17 7 0 10 -262144 -1 -1 1
1;
#X obj 324 285 tgl 15 0 empty empty empty 17 7 0 10 -262144 -1 -1 0
1;
#X floatatom 166 102 5 0 2 0 - - -;
#X obj 232 123 sel 0 1 2 3;
#X floatatom 464 235 5 0 0 0 - - -;
#X floatatom 505 242 5 0 0 0 - - -;
#X msg 464 214 0;
#X msg 505 221 0;
#X floatatom 51 234 5 0 0 0 - - -;
#X floatatom 183 235 5 0 0 0 - - -;
#X floatatom 316 235 5 0 0 0 - - -;
#X floatatom 542 242 5 0 0 0 - - -;
#X msg 542 221 1;
#X msg 51 213 0;
#X msg 183 214 0;
#X msg 316 214 0;
#X msg 356 54 Active;
#X msg 430 122 Inactive;
#X obj 232 97 r \$1-\$2;
#X obj 186 303 s \$1L-\$2;
#X obj 321 304 s \$1R-\$2;
#X obj 450 158 s aux-label-\$2;
#X msg 394 76 R Inactive;
#X msg 404 100 L Inactive;
#X connect 0 0 1 0;
#X connect 1 0 12 0;
#X connect 2 0 13 0;
#X connect 3 0 5 0;
#X connect 4 0 12 0;
#X connect 5 0 13 0;
#X connect 6 0 8 0;
#X connect 7 0 9 0;
#X connect 8 0 12 0;
#X connect 9 0 13 0;
#X connect 10 0 2 0;
#X connect 11 0 4 0;
#X connect 12 0 31 0;
#X connect 13 0 32 0;
#X connect 14 0 15 0;
#X connect 15 0 6 0;
#X connect 15 0 7 0;
#X connect 15 0 25 0;
#X connect 15 0 28 0;
#X connect 15 1 0 0;
#X connect 15 1 10 0;
#X connect 15 1 26 0;
#X connect 15 1 34 0;
#X connect 15 2 11 0;
#X connect 15 2 3 0;
#X connect 15 2 27 0;
#X connect 15 2 35 0;
#X connect 15 3 18 0;
#X connect 15 3 19 0;
#X connect 15 3 29 0;
#X connect 15 3 24 0;
#X connect 16 0 12 0;
#X connect 17 0 13 0;
#X connect 18 0 16 0;
#X connect 19 0 17 0;
#X connect 24 0 23 0;
#X connect 25 0 20 0;
#X connect 26 0 21 0;
#X connect 27 0 22 0;
#X connect 28 0 33 0;
#X connect 29 0 33 0;
#X connect 30 0 15 0;
#X connect 34 0 33 0;
#X connect 35 0 33 0;
