#N canvas 4 50 673 998 10;
#X obj 350 247 s aux-label-\$1;
#X obj 36 234 inlet attack;
#X obj 150 233 inlet release;
#X obj 39 34 r activePage;
#X obj 39 57 unpack s s;
#X obj 39 78 sel \$1;
#X msg 38 103 1, f 2;
#X msg 68 103 0, f 2;
#X msg 96 102 1, f 2;
#X msg 189 102 0, f 2;
#X obj 87 136 &&;
#X obj 87 158 change;
#X obj 87 180 sel 1;
#X obj 36 255 int;
#X obj 150 254 int;
#X obj 140 288 select 1 2 3 4 5;
#X obj 25 577 outlet attack;
#X obj 155 577 outlet release;
#X msg 146 341 50;
#X msg 165 371 100;
#X msg 184 404 300;
#X msg 209 439 600;
#X msg 235 477 1200;
#X msg 25 341 0.1;
#X msg 44 371 0.3;
#X msg 63 404 0.6;
#X msg 88 439 3;
#X obj 21 288 select 1 2 3 4 5 6;
#X obj 147 159 pack f f;
#X obj 148 137 t b;
#X msg 114 477 10;
#X msg 134 510 30;
#X msg 350 213 A: \$1mS . R: \$2mS . .;
#X obj 87 201 delay 500;
#X msg 311 233 ∆;
#X obj 27 186 tgl 15 0 empty empty empty 17 7 0 10 -262144 -1 -1 0
1;
#X obj 96 79 sel pg_compress;
#X connect 1 0 13 0;
#X connect 2 0 14 0;
#X connect 3 0 4 0;
#X connect 4 0 5 0;
#X connect 4 1 36 0;
#X connect 5 0 6 0;
#X connect 5 1 7 0;
#X connect 6 0 10 0;
#X connect 7 0 10 0;
#X connect 8 0 10 1;
#X connect 9 0 10 1;
#X connect 10 0 11 0;
#X connect 10 0 35 0;
#X connect 11 0 12 0;
#X connect 12 0 33 0;
#X connect 12 1 34 0;
#X connect 13 0 27 0;
#X connect 14 0 15 0;
#X connect 15 0 18 0;
#X connect 15 1 19 0;
#X connect 15 2 20 0;
#X connect 15 3 21 0;
#X connect 15 4 22 0;
#X connect 18 0 17 0;
#X connect 18 0 28 1;
#X connect 18 0 29 0;
#X connect 19 0 17 0;
#X connect 19 0 28 1;
#X connect 19 0 29 0;
#X connect 20 0 17 0;
#X connect 20 0 28 1;
#X connect 20 0 29 0;
#X connect 21 0 17 0;
#X connect 21 0 28 1;
#X connect 21 0 29 0;
#X connect 22 0 17 0;
#X connect 22 0 28 1;
#X connect 22 0 29 0;
#X connect 23 0 16 0;
#X connect 23 0 28 0;
#X connect 24 0 16 0;
#X connect 24 0 28 0;
#X connect 25 0 16 0;
#X connect 25 0 28 0;
#X connect 26 0 16 0;
#X connect 26 0 28 0;
#X connect 27 0 23 0;
#X connect 27 1 24 0;
#X connect 27 2 25 0;
#X connect 27 3 26 0;
#X connect 27 4 30 0;
#X connect 27 5 31 0;
#X connect 28 0 32 0;
#X connect 29 0 28 0;
#X connect 30 0 16 0;
#X connect 30 0 28 0;
#X connect 31 0 16 0;
#X connect 31 0 28 0;
#X connect 32 0 0 0;
#X connect 33 0 13 0;
#X connect 33 0 14 0;
#X connect 34 0 0 0;
#X connect 36 0 8 0;
#X connect 36 1 9 0;
