#N canvas 4 50 870 850 10;
#X obj 214 96 inlet~;
#X obj 244 171 abs~;
#X obj 243 197 -~;
#X obj 243 258 +~;
#X obj 243 279 /~;
#X obj 229 508 outlet~;
#X obj 348 217 +~ 0;
#X obj 243 300 clip~ 0 1;
#X obj 243 351 lop~;
#X obj 342 124 r dsthresh-\$1;
#X obj 65 223 delwrite~ \$0-comp 500;
#X obj 64 299 delread~ \$0-comp 0;
#X obj 195 389 *~;
#X obj 342 145 + 100;
#X obj 342 166 dbtorms;
#X obj 336 341 swap 1000;
#X obj 336 362 /;
#X obj 61 141 r loadbang-\$1;
#X obj 336 320 r dsresponse-\$1;
#X floatatom 465 184 5 0 0 0 - - -;
#X floatatom 459 361 5 0 0 0 - - -;
#X floatatom 453 258 5 0 0 0 - - -;
#X floatatom 188 170 5 0 0 0 - - -;
#X obj 243 218 /~ 20;
#X msg 64 268 1;
#X connect 0 0 1 0;
#X connect 0 0 10 0;
#X connect 1 0 2 0;
#X connect 1 0 6 0;
#X connect 2 0 23 0;
#X connect 3 0 4 0;
#X connect 4 0 7 0;
#X connect 6 0 4 1;
#X connect 7 0 8 0;
#X connect 8 0 12 1;
#X connect 8 0 5 0;
#X connect 9 0 13 0;
#X connect 9 0 19 0;
#X connect 11 0 12 0;
#X connect 13 0 14 0;
#X connect 14 0 2 1;
#X connect 14 0 3 1;
#X connect 14 0 21 0;
#X connect 15 0 16 0;
#X connect 15 1 16 1;
#X connect 16 0 8 1;
#X connect 17 0 24 0;
#X connect 18 0 15 0;
#X connect 18 0 20 0;
#X connect 23 0 3 0;
#X connect 24 0 11 0;
