#N canvas 393 162 1290 712 10;
#X obj 60 78 inlet aux;
#N canvas 9 50 1163 752 print-grid 0;
#X obj 606 425 s oscOut;
#X text 480 480 Line \, start x \, y \, end x \, y \, color (0 or 1)
;
#X obj 370 249 f;
#X obj 403 249 + 1;
#X obj 370 214 until;
#X msg 414 215 0;
#X obj 370 179 t a b;
#X msg 370 156 6;
#X obj 370 271 * 11;
#X obj 370 293 + 8;
#X obj 457 243 f;
#X obj 490 243 + 1;
#X obj 457 208 until;
#X msg 501 209 0;
#X obj 457 173 t a b;
#X msg 457 150 3;
#X obj 457 288 min 127;
#X obj 458 264 * 64;
#X obj 406 101 t b b b b;
#X obj 431 49 inlet;
#X msg 351 353 /oled/gLine 1 0 \$1 127 \$1 1;
#X msg 459 315 /oled/gLine 1 \$1 9 \$1 63 1;
#X msg 655 328 /oled/gFillArea 1 0 8 128 56 0;
#X msg 566 355 /oled/gFlip 1 1;
#X connect 2 0 3 0;
#X connect 2 0 8 0;
#X connect 3 0 2 1;
#X connect 4 0 2 0;
#X connect 5 0 2 1;
#X connect 6 0 4 0;
#X connect 6 1 5 0;
#X connect 7 0 6 0;
#X connect 8 0 9 0;
#X connect 9 0 20 0;
#X connect 10 0 11 0;
#X connect 10 0 17 0;
#X connect 11 0 10 1;
#X connect 12 0 10 0;
#X connect 13 0 10 1;
#X connect 14 0 12 0;
#X connect 14 1 13 0;
#X connect 15 0 14 0;
#X connect 16 0 21 0;
#X connect 17 0 16 0;
#X connect 18 0 23 0;
#X connect 18 1 7 0;
#X connect 18 2 15 0;
#X connect 18 3 22 0;
#X connect 19 0 18 0;
#X connect 20 0 0 0;
#X connect 21 0 0 0;
#X connect 22 0 0 0;
#X connect 23 0 0 0;
#X restore 155 420 pd print-grid;
#X obj 74 314 sel 1 0, f 16;
#X text 142 342 go back to home screen;
#N canvas 910 426 871 385 re-print 0;
#X obj 96 30 inlet;
#X text 614 82 clear the screen;
#X obj 88 111 s oscOut;
#X msg 88 89 /oled/gFillArea 1 0 8 128 56 0;
#X connect 0 0 3 0;
#X connect 3 0 2 0;
#X restore 128 359 pd re-print;
#X obj 497 212 ==;
#N canvas 5 50 450 300 just-note-offs 0;
#X obj 67 16 inlet;
#X obj 67 38 unpack;
#X obj 67 89 sel 0;
#X obj 67 60 swap, f 6;
#X obj 67 116 f, f 7;
#X obj 67 138 pack 0 0;
#X obj 67 160 outlet;
#X connect 0 0 1 0;
#X connect 1 0 3 0;
#X connect 1 1 3 1;
#X connect 2 0 4 0;
#X connect 3 0 2 0;
#X connect 3 1 4 1;
#X connect 4 0 5 0;
#X connect 5 0 6 0;
#X restore 470 329 pd just-note-offs;
#X obj 144 617 outlet;
#X text 647 390 top line of keys "the black keys";
#X text 598 328 so notes dont get stuck;
#X obj 444 249 spigot 1;
#X obj 363 249 spigot 0;
#X obj 74 395 t b b, f 12;
#X obj 1046 208 s cgSc-\$1-aux;
#X obj 695 231 del 1;
#X obj 695 195 sel 0 1, f 15;
#X msg 695 253 0;
#X msg 746 225 1;
#X obj 74 448 s cgSc-\$1-print!;
#X obj 870 442 sc-module \$1 10;
#X obj 310 65 moses 60;
#X obj 363 87 moses 84;
#X obj 310 35 unpack 0 0, f 23;
#X obj 363 117 pack 0 0;
#X obj 968 622 s cgSc-\$1-slots;
#N canvas 355 183 1307 642 slots 0;
#X obj 36 25 inlet;
#X obj 36 70 sel 0;
#X obj 68 93 t b;
#X obj 139 186 s \$0-white-keys;
#X msg 68 115 0;
#X obj 107 70 sel 0;
#X obj 139 93 t b;
#X msg 139 115 1;
#X obj 179 70 sel 0;
#X obj 211 93 t b;
#X obj 249 70 sel 0;
#X obj 281 93 t b;
#X msg 211 115 2;
#X msg 281 115 3;
#X obj 541 289 r \$0-white-keys;
#X obj 323 70 sel 0;
#X obj 355 93 t b;
#X obj 426 186 s \$0-white-keys;
#X obj 394 70 sel 0;
#X obj 426 93 t b;
#X obj 466 70 sel 0;
#X obj 498 93 t b;
#X obj 536 70 sel 0;
#X obj 568 93 t b;
#X msg 355 115 4;
#X msg 426 115 5;
#X msg 498 115 6;
#X msg 568 115 7;
#X obj 606 70 sel 0;
#X obj 638 93 t b;
#X obj 709 186 s \$0-white-keys;
#X obj 677 70 sel 0;
#X obj 709 93 t b;
#X msg 638 115 8;
#X msg 709 114 9;
#X obj 570 503 outlet;
#X obj 35 46 route 61 63 66 68 70 73 75 78 80 82, f 144;
#X floatatom 482 318 5 0 0 0 - - -;
#X obj 570 447 f;
#X obj 570 470 spigot 0;
#X msg 502 456 1;
#X obj 470 436 delay 50;
#X msg 470 457 0;
#X obj 585 326 r master-ticks;
#X obj 591 372 f;
#X obj 622 372 + 1;
#X obj 591 393 sel 4;
#X msg 591 419 1;
#X obj 591 349 sel 23;
#X obj 499 404 r signature;
#X text 346 13 implement receive master pattern;
#X obj 664 377 r signature_set;
#X connect 0 0 36 0;
#X connect 1 1 2 0;
#X connect 2 0 4 0;
#X connect 4 0 3 0;
#X connect 5 1 6 0;
#X connect 6 0 7 0;
#X connect 7 0 3 0;
#X connect 8 1 9 0;
#X connect 9 0 12 0;
#X connect 10 1 11 0;
#X connect 11 0 13 0;
#X connect 12 0 3 0;
#X connect 13 0 3 0;
#X connect 14 0 37 0;
#X connect 14 0 38 1;
#X connect 14 0 40 0;
#X connect 15 1 16 0;
#X connect 16 0 24 0;
#X connect 18 1 19 0;
#X connect 19 0 25 0;
#X connect 20 1 21 0;
#X connect 21 0 26 0;
#X connect 22 1 23 0;
#X connect 23 0 27 0;
#X connect 24 0 17 0;
#X connect 25 0 17 0;
#X connect 26 0 17 0;
#X connect 27 0 17 0;
#X connect 28 1 29 0;
#X connect 29 0 33 0;
#X connect 31 1 32 0;
#X connect 32 0 34 0;
#X connect 33 0 30 0;
#X connect 34 0 30 0;
#X connect 36 0 1 0;
#X connect 36 1 5 0;
#X connect 36 2 8 0;
#X connect 36 3 10 0;
#X connect 36 4 15 0;
#X connect 36 5 18 0;
#X connect 36 6 20 0;
#X connect 36 7 22 0;
#X connect 36 8 28 0;
#X connect 36 9 31 0;
#X connect 38 0 39 0;
#X connect 39 0 41 0;
#X connect 39 0 35 0;
#X connect 40 0 39 1;
#X connect 41 0 42 0;
#X connect 42 0 39 1;
#X connect 43 0 48 0;
#X connect 44 0 45 0;
#X connect 44 0 46 0;
#X connect 45 0 44 1;
#X connect 46 0 38 0;
#X connect 46 0 47 0;
#X connect 47 0 44 1;
#X connect 48 0 44 0;
#X connect 49 0 47 0;
#X connect 51 0 46 1;
#X restore 965 506 pd slots;
#X obj 845 45 inlet manual-reprint;
#X obj 117 281 t b b;
#X obj 898 84 r cgSc-\$1-aux;
#X obj 845 107 spigot 0;
#X obj 363 139 t a a;
#N canvas 754 195 1143 710 print-slots 0;
#X obj 126 540 s oscOut;
#X obj 264 362 f;
#X obj 218 332 t b a a b b b;
#X obj 676 543 s oscOut;
#X obj 814 365 f;
#X obj 768 335 t b a a b b b;
#X obj 294 286 moses 10;
#X obj 294 215 + 1;
#X text 359 281 center single digits;
#X obj 414 218 del 500;
#X msg 535 174 stop;
#X obj 293 149 t f b b, f 35;
#X obj 293 13 r cgSc-\$1-slots;
#X obj 414 250 outlet;
#X obj 294 175 pipe 5;
#X obj 293 115 spigot 0;
#X obj 338 65 del 20;
#X msg 338 87 1;
#X obj 338 43 r loadbang-\$1;
#X obj 478 50 r cgSc-\$1-mute-print;
#X msg 39 391 /oled/gFlip 1;
#X msg 154 409 /oled/gPrintln 1 54 22 32 1 \$1;
#X msg 264 386 /oled/gPrintln 1 54 22 32 0 \$1;
#X msg 347 433 /oled/gFillArea 1 34 8 56 56 0;
#X msg 352 475 /oled/gBox 1 34 8 56 56 1;
#X msg 343 509 /oled/gClear 1 1;
#X msg 589 394 /oled/gFlip 1;
#X msg 703 412 /oled/gPrintln 1 46 22 32 1 \$1;
#X msg 814 391 /oled/gPrintln 1 46 22 32 0 \$1;
#X msg 895 436 /oled/gFillArea 1 34 8 56 56 0;
#X msg 902 479 /oled/gBox 1 34 8 56 56 1;
#X msg 893 512 /oled/gClear 1 1;
#X connect 1 0 22 0;
#X connect 2 0 20 0;
#X connect 2 1 21 0;
#X connect 2 2 1 1;
#X connect 2 3 1 0;
#X connect 2 4 24 0;
#X connect 2 5 23 0;
#X connect 4 0 28 0;
#X connect 5 0 26 0;
#X connect 5 1 27 0;
#X connect 5 2 4 1;
#X connect 5 3 4 0;
#X connect 5 4 30 0;
#X connect 5 5 29 0;
#X connect 6 0 2 0;
#X connect 6 1 5 0;
#X connect 7 0 6 0;
#X connect 9 0 13 0;
#X connect 10 0 9 0;
#X connect 11 0 14 0;
#X connect 11 1 9 0;
#X connect 11 2 10 0;
#X connect 12 0 15 0;
#X connect 14 0 7 0;
#X connect 15 0 11 0;
#X connect 16 0 17 0;
#X connect 17 0 15 1;
#X connect 18 0 16 0;
#X connect 19 0 15 1;
#X connect 20 0 0 0;
#X connect 21 0 0 0;
#X connect 22 0 0 0;
#X connect 23 0 0 0;
#X connect 24 0 0 0;
#X connect 25 0 0 0;
#X connect 26 0 3 0;
#X connect 27 0 3 0;
#X connect 28 0 3 0;
#X connect 29 0 3 0;
#X connect 30 0 3 0;
#X connect 31 0 3 0;
#X restore 791 13 pd print-slots;
#X text 31 13 Arg 1: match number to seq3;
#X text 31 33 Arg 2: Midi in on/off;
#X obj 588 471 sc-module \$1 5;
#X obj 532 492 sc-module \$1 4;
#X obj 475 535 sc-module \$1 3;
#X obj 701 523 sc-module \$1 7;
#X obj 645 567 sc-module \$1 6;
#X obj 314 607 sc-module \$1 1;
#X obj 368 561 sc-module \$1 2;
#X obj 757 495 sc-module \$1 8;
#X obj 814 471 sc-module \$1 9;
#X obj 746 294 s cgSc-\$1-muter;
#X text 1043 509 bottom keys/white keys;
#X obj 74 160 t f f f f f, f 162;
#X obj 74 215 t f f;
#X obj 101 236 s cgSc-\$1-mute-print;
#X obj 221 20 r onotes;
#X obj 313 6 inlet outside notes;
#X obj 253 122 pack 0 0;
#X obj 253 143 s \$0-pass-thru;
#X obj 144 579 r \$0-pass-thru;
#X obj 832 574 s clearPreset-\$1;
#X obj 968 561 t f b;
#X obj 1014 579 bng 15 250 50 0 empty empty empty 17 7 0 10 -262144
-1 -1;
#X obj 1162 581 ==;
#X obj 1162 602 sel 0;
#X msg 1162 623 1;
#X msg 1192 623 0;
#X obj 1100 637 spigot 1;
#X obj 1195 581 f;
#X obj 1100 567 t f b f;
#X obj 812 548 t b b;
#X obj 810 608 s save-clear-\$1;
#X obj 875 504 r loadbang-\$1;
#X msg 875 546 0;
#X obj 875 525 delay 100;
#N canvas 4 50 450 492 hold-note 0;
#X obj 54 12 inlet;
#X obj 265 184 outlet;
#X msg 153 170 stop;
#X obj 61 190 t b b;
#X msg 87 249 1;
#X msg 133 227 0;
#X obj 87 289 sel 0 1;
#X obj 325 186 outlet;
#X obj 114 109 t b b b b;
#X msg 165 133 1;
#X obj 61 212 spigot 0;
#X obj 87 87 sel 0;
#X obj 325 163 t b;
#X obj 265 162 t b;
#X obj 54 33 t f, f 37;
#X obj 133 195 del 100;
#X connect 0 0 14 0;
#X connect 2 0 15 0;
#X connect 3 0 10 0;
#X connect 3 1 2 0;
#X connect 4 0 6 0;
#X connect 5 0 6 0;
#X connect 5 0 10 1;
#X connect 6 0 12 0;
#X connect 6 1 13 0;
#X connect 8 1 15 0;
#X connect 8 2 2 0;
#X connect 8 3 9 0;
#X connect 9 0 10 1;
#X connect 10 0 4 0;
#X connect 11 0 3 0;
#X connect 11 1 8 0;
#X connect 12 0 7 0;
#X connect 13 0 1 0;
#X connect 14 0 11 0;
#X connect 15 0 5 0;
#X restore 176 74 pd hold-note;
#X obj 276 185 bng 15 250 50 0 empty empty empty 17 7 0 10 -262144
-1 -1;
#X obj 233 124 bng 15 250 50 0 empty empty empty 17 7 0 10 -262144
-1 -1;
#X obj 29 102 sel 1;
#X msg 196 194 100;
#X msg 277 205 1;
#X msg 29 129 1;
#X obj 73 123 spigot 0;
#X msg 241 279 1;
#X obj 113 102 t f f;
#X obj 277 226 t b f;
#X obj 167 100 spigot 1;
#X msg 277 250 0;
#X obj 242 303 spigot 0;
#X obj 242 324 t b f;
#X msg 246 371 0;
#X obj 363 410 route 60 83 64 65 67 69 71 72 74 76, f 81;
#N canvas 1133 288 502 205 GLOBAL-PATTERN-IN 0;
#X obj 32 78 sel 1 2 3 4 5 6 7 8 9 10, f 55;
#X msg 32 102 61, f 2;
#X msg 64 102 63, f 2;
#X msg 98 102 66, f 2;
#X msg 130 102 68, f 2;
#X msg 161 102 70, f 2;
#X msg 193 102 73, f 2;
#X msg 227 102 75, f 2;
#X msg 259 102 78, f 2;
#X msg 293 102 80, f 2;
#X msg 325 102 82, f 2;
#X obj 371 50 unpack 0 0 0;
#X obj 371 165 outlet;
#X obj 32 40 r master-pattern-change-\$1;
#X obj 371 28 r notesIn-s2;
#X obj 371 116 makenote, f 12;
#X msg 440 74 2;
#X obj 371 139 pack 0 0, f 12;
#X connect 0 0 1 0;
#X connect 0 1 2 0;
#X connect 0 2 3 0;
#X connect 0 3 4 0;
#X connect 0 4 5 0;
#X connect 0 5 6 0;
#X connect 0 6 7 0;
#X connect 0 7 8 0;
#X connect 0 8 9 0;
#X connect 0 9 10 0;
#X connect 1 0 15 0;
#X connect 2 0 15 0;
#X connect 3 0 15 0;
#X connect 4 0 15 0;
#X connect 5 0 15 0;
#X connect 6 0 15 0;
#X connect 7 0 15 0;
#X connect 8 0 15 0;
#X connect 9 0 15 0;
#X connect 10 0 15 0;
#X connect 11 1 15 1;
#X connect 11 2 16 0;
#X connect 13 0 0 0;
#X connect 14 0 11 0;
#X connect 15 0 17 0;
#X connect 15 1 17 1;
#X connect 16 0 15 2;
#X connect 17 0 12 0;
#X restore 446 370 pd GLOBAL-PATTERN-IN;
#X obj 571 39 r seq3-\$1-actions;
#X obj 490 121 spigot 0;
#X obj 571 84 sel 0 1 2 3, f 22;
#X msg 573 114 0;
#X msg 614 115 1;
#X msg 572 137 1;
#X msg 614 137 0;
#X msg 484 144 1;
#X msg 462 103 1;
#X obj 462 82 del 500;
#X obj 513 12 r loadbang-\$1;
#X msg 513 33 0;
#X connect 0 0 68 0;
#X connect 0 0 71 0;
#X connect 2 0 12 0;
#X connect 2 1 4 0;
#X connect 5 0 10 1;
#X connect 6 0 7 0;
#X connect 10 0 7 0;
#X connect 11 0 6 0;
#X connect 11 0 84 0;
#X connect 12 0 18 0;
#X connect 12 1 1 0;
#X connect 14 0 16 0;
#X connect 15 0 14 0;
#X connect 15 1 17 0;
#X connect 16 0 43 0;
#X connect 17 0 43 0;
#X connect 20 0 50 0;
#X connect 20 1 21 0;
#X connect 21 0 23 0;
#X connect 21 1 50 0;
#X connect 22 0 20 0;
#X connect 22 1 23 1;
#X connect 22 1 50 1;
#X connect 23 0 30 0;
#X connect 25 0 62 0;
#X connect 26 0 29 0;
#X connect 27 0 12 0;
#X connect 27 1 4 0;
#X connect 28 0 29 1;
#X connect 29 0 27 0;
#X connect 30 0 11 0;
#X connect 30 1 10 0;
#X connect 31 0 29 0;
#X connect 45 1 11 1;
#X connect 45 2 5 0;
#X connect 45 3 15 0;
#X connect 46 0 2 0;
#X connect 46 1 47 0;
#X connect 49 0 22 0;
#X connect 50 0 51 0;
#X connect 52 0 7 0;
#X connect 54 0 24 0;
#X connect 54 1 55 0;
#X connect 54 1 53 0;
#X connect 56 0 57 0;
#X connect 57 0 58 0;
#X connect 57 1 59 0;
#X connect 58 0 60 1;
#X connect 59 0 60 1;
#X connect 60 0 54 0;
#X connect 61 0 56 0;
#X connect 62 0 56 1;
#X connect 62 0 60 0;
#X connect 62 1 61 0;
#X connect 62 2 61 1;
#X connect 63 0 64 0;
#X connect 63 1 53 0;
#X connect 65 0 67 0;
#X connect 66 0 24 0;
#X connect 67 0 66 0;
#X connect 68 0 79 0;
#X connect 68 1 70 0;
#X connect 69 0 73 0;
#X connect 70 0 76 0;
#X connect 71 0 74 0;
#X connect 71 0 87 0;
#X connect 71 1 75 1;
#X connect 71 1 45 0;
#X connect 73 0 78 0;
#X connect 74 0 75 0;
#X connect 75 0 45 0;
#X connect 76 0 77 0;
#X connect 76 0 79 1;
#X connect 76 0 81 0;
#X connect 77 0 75 0;
#X connect 77 1 75 1;
#X connect 78 0 80 0;
#X connect 78 1 40 0;
#X connect 78 1 81 1;
#X connect 79 0 69 0;
#X connect 80 0 79 1;
#X connect 81 0 82 0;
#X connect 82 0 83 0;
#X connect 82 1 39 0;
#X connect 83 0 81 1;
#X connect 84 0 35 0;
#X connect 84 1 63 0;
#X connect 84 10 25 0;
#X connect 85 0 84 0;
#X connect 86 0 88 0;
#X connect 87 0 93 0;
#X connect 87 0 95 0;
#X connect 88 0 89 0;
#X connect 88 0 91 0;
#X connect 88 1 89 0;
#X connect 88 1 91 0;
#X connect 88 2 89 0;
#X connect 88 2 91 0;
#X connect 88 3 90 0;
#X connect 88 3 92 0;
#X connect 89 0 87 1;
#X connect 90 0 87 1;
#X connect 91 0 81 1;
#X connect 92 0 81 1;
#X connect 93 0 82 0;
#X connect 94 0 79 1;
#X connect 95 0 94 0;
#X connect 96 0 97 0;
#X connect 97 0 88 0;
