#N canvas 267 284 727 387 12;
#X declare -path lib;
#X declare -path svc;
#X obj 10 7 declare -path lib;
#X obj 10 30 bangSvc;
#X obj 374 30 reset;
#X obj 164 30 knobSvc;
#N canvas 697 394 788 347 settings 0;
#X obj 28 8 v gain;
#X obj 28 78 v wet;
#X obj 548 5 r loadbang2;
#X obj 28 55 v hpf;
#X obj 28 32 v drive;
#X obj 349 9 v pedalTarget;
#X obj 349 33 v pedalMin;
#X obj 348 58 v pedalMax;
#X obj 348 85 v pedalCurrent;
#X obj 124 7 v lpf;
#X obj 124 30 v thres;
#X obj 124 53 v gtAttack;
#X obj 124 76 v gtRelease;
#X obj 561 35 print initializing parameters;
#X obj 220 35 v character;
#X obj 220 8 v charAmount;
#X obj 220 85 v charMixin;
#X obj 220 60 v charType;
#X obj 26 118 v tubeWarmth;
#X obj 25 141 v warmthAmount;
#X obj 25 164 v color;
#X msg 548 67 \; gain 1 \; drive 20 \; hpf 100 \; wet 0.05 \; pedalTarget 0 \; pedalMin 0 \; pedalMax 0.5 \; lpf 10000 \; thres 50 \; gtAttack 1 \; gtRelease 1 \; charAmount 0 \; character 50 \; charType 1 \; charMixin 0 \; tubeWarmth 5 \; warmthAmount 0 \; color 0 \;;
#X connect 2 0 21 0;
#X connect 2 0 13 0;
#X restore 10 53 pd settings;
#N canvas 153 482 1411 424 screen1 0;
#X obj 20 20 r switchPage1;
#X obj 207 124 r p1k1;
#X obj 20 142 screen 1 1;
#X obj 315 303 screen 1 2;
#X msg 315 273 Gain: \$1%;
#X obj 315 114 expr gain;
#X obj 348 149 r gain;
#X obj 207 231 s gain;
#X obj 207 172 * 5;
#X obj 207 198 catch-knob 0.5;
#X obj 315 226 i;
#X obj 602 114 expr drive;
#X obj 635 149 r drive;
#X obj 494 124 r p1k2;
#X obj 494 236 s drive;
#X msg 602 267 Drive: \$1%;
#X obj 602 297 screen 1 3;
#X obj 889 242 i;
#X obj 889 130 expr hpf;
#X obj 922 165 r hpf;
#X obj 781 250 s hpf;
#X msg 889 267 Highpass: \$1 Hz;
#X obj 889 297 screen 1 4;
#X obj 781 140 r p1k3;
#X obj 1156 232 i;
#X obj 1048 130 r p1k4;
#X obj 1048 225 s wet;
#X obj 1156 120 expr wet;
#X obj 1189 155 r wet;
#X msg 1156 301 Wet: \$1%;
#X obj 1156 331 screen 1 5;
#X obj 781 191 * 5000;
#X obj 410 124 r driveExpr;
#X obj 978 130 r wetExpr;
#X obj 1048 192 catch-knob 0.1;
#X msg 20 110 ---| F U Z Z Y |---;
#X obj 781 217 catch-knob 100;
#X obj 494 177 * 1000;
#X obj 494 203 catch-knob 50;
#X obj 207 148 pow 3;
#X obj 494 152 pow 4;
#X obj 781 166 pow 4;
#X obj 1048 167 pow 4;
#X obj 602 215 i;
#X obj 315 202 * 10000;
#X obj 315 250 / 100;
#X obj 602 189 * 1000;
#X obj 602 242 / 10000;
#X obj 1156 208 * 1e+06;
#X obj 1156 256 / 10000;
#X connect 0 0 35 0;
#X connect 0 0 5 0;
#X connect 0 0 11 0;
#X connect 0 0 18 0;
#X connect 0 0 27 0;
#X connect 1 0 39 0;
#X connect 4 0 3 0;
#X connect 5 0 9 1;
#X connect 5 0 44 0;
#X connect 6 0 9 1;
#X connect 6 0 44 0;
#X connect 8 0 9 0;
#X connect 9 0 7 0;
#X connect 10 0 45 0;
#X connect 11 0 38 1;
#X connect 11 0 46 0;
#X connect 12 0 38 1;
#X connect 12 0 46 0;
#X connect 13 0 40 0;
#X connect 15 0 16 0;
#X connect 17 0 21 0;
#X connect 18 0 17 0;
#X connect 18 0 36 1;
#X connect 19 0 17 0;
#X connect 19 0 36 1;
#X connect 21 0 22 0;
#X connect 23 0 41 0;
#X connect 24 0 49 0;
#X connect 25 0 42 0;
#X connect 27 0 34 1;
#X connect 27 0 48 0;
#X connect 28 0 34 1;
#X connect 28 0 48 0;
#X connect 29 0 30 0;
#X connect 31 0 36 0;
#X connect 32 0 40 0;
#X connect 33 0 42 0;
#X connect 34 0 26 0;
#X connect 35 0 2 0;
#X connect 36 0 20 0;
#X connect 37 0 38 0;
#X connect 38 0 14 0;
#X connect 39 0 8 0;
#X connect 40 0 37 0;
#X connect 41 0 31 0;
#X connect 42 0 34 0;
#X connect 43 0 47 0;
#X connect 44 0 10 0;
#X connect 45 0 4 0;
#X connect 46 0 43 0;
#X connect 47 0 15 0;
#X connect 48 0 24 0;
#X connect 49 0 29 0;
#X restore 77 80 pd screen1;
#X text 288 79 Pedal config;
#X obj 220 30 auxSvc;
#X obj 269 30 midiSvc;
#X text 155 103 Filters;
#X text 10 105 Character;
#N canvas 90 443 1355 502 screen2 0;
#X msg 256 253 Amount: \$1%;
#X obj 256 204 i;
#X obj 148 139 pow 2;
#X msg 20 73 ---| C H R C T R |---;
#X obj 944 104 r amountCExpr;
#X obj 256 99 expr charAmount;
#X obj 289 134 r charAmount;
#X obj 148 214 s charAmount;
#X obj 401 199 s character;
#X obj 509 102 expr character;
#X obj 542 137 r character;
#X obj 1159 192 i;
#X obj 1043 139 pow 2;
#X obj 1043 199 s charMixin;
#X obj 1159 102 expr charMixin;
#X obj 1192 130 r charMixin;
#X msg 1159 242 Mixin: \$1%;
#X obj 1043 166 catch-knob 0.1;
#X obj 1159 166 * 1000;
#X obj 1159 216 / 10;
#X obj 20 20 r switchPage2;
#X obj 20 105 screen 2 1;
#X obj 256 279 screen 2 2;
#X obj 148 109 r p2k1;
#X obj 401 104 r p2k2;
#X obj 509 268 screen 2 3;
#X obj 669 103 r p2k3;
#X obj 786 311 screen 2 4;
#X obj 1043 104 r p2k4;
#X obj 1159 267 screen 2 5;
#X obj 148 189 catch-knob 10;
#X msg 509 242 Character: \$1;
#X obj 509 190 i;
#X obj 256 228 / 100;
#X obj 148 163 * 50;
#X obj 256 179 * 200;
#X obj 401 135 * 500;
#X obj 509 214 / 100;
#X obj 509 166 * 20;
#X obj 785 101 expr charType;
#X obj 818 136 r charType;
#X obj 669 224 s charType;
#X obj 785 191 sel 0 1 2 3 4 5, f 22;
#X msg 786 221 1;
#X msg 818 221 2;
#X msg 851 221 3;
#X msg 882 221 4;
#X msg 921 221 5;
#X obj 669 128 * 6;
#X obj 669 152 i;
#X obj 669 191 catch-knob 0.6;
#X msg 705 281 Type: none;
#X msg 786 281 Type: \$1;
#X obj 401 166 catch-knob 25;
#X connect 0 0 22 0;
#X connect 1 0 33 0;
#X connect 2 0 34 0;
#X connect 3 0 21 0;
#X connect 4 0 12 0;
#X connect 5 0 30 1;
#X connect 5 0 35 0;
#X connect 6 0 30 1;
#X connect 6 0 35 0;
#X connect 9 0 38 0;
#X connect 9 0 53 1;
#X connect 10 0 38 0;
#X connect 10 0 53 1;
#X connect 11 0 19 0;
#X connect 12 0 17 0;
#X connect 14 0 17 1;
#X connect 14 0 18 0;
#X connect 15 0 17 1;
#X connect 15 0 18 0;
#X connect 16 0 29 0;
#X connect 17 0 13 0;
#X connect 18 0 11 0;
#X connect 19 0 16 0;
#X connect 20 0 3 0;
#X connect 20 0 5 0;
#X connect 20 0 9 0;
#X connect 20 0 14 0;
#X connect 20 0 39 0;
#X connect 23 0 2 0;
#X connect 24 0 36 0;
#X connect 26 0 48 0;
#X connect 28 0 12 0;
#X connect 30 0 7 0;
#X connect 31 0 25 0;
#X connect 32 0 37 0;
#X connect 33 0 0 0;
#X connect 34 0 30 0;
#X connect 35 0 1 0;
#X connect 36 0 53 0;
#X connect 37 0 31 0;
#X connect 38 0 32 0;
#X connect 39 0 42 0;
#X connect 39 0 50 1;
#X connect 40 0 42 0;
#X connect 40 0 50 1;
#X connect 42 0 51 0;
#X connect 42 1 43 0;
#X connect 42 2 44 0;
#X connect 42 3 45 0;
#X connect 42 4 46 0;
#X connect 42 5 47 0;
#X connect 43 0 52 0;
#X connect 44 0 52 0;
#X connect 45 0 52 0;
#X connect 46 0 52 0;
#X connect 47 0 52 0;
#X connect 48 0 49 0;
#X connect 49 0 50 0;
#X connect 50 0 41 0;
#X connect 51 0 27 0;
#X connect 52 0 27 0;
#X connect 53 0 8 0;
#X restore 77 103 pd screen2;
#X text 323 102 Presets;
#X obj 325 30 encSvc;
#X obj 136 7 declare -path svc;
#N canvas 480 374 1394 466 screen4 0;
#X obj 402 226 i;
#X obj 294 199 catch-knob 500;
#X obj 294 173 * 10000;
#X msg 402 251 LP Cutoff: \$1 Hz;
#X obj 402 114 expr lpf;
#X obj 435 149 r lpf;
#X obj 294 232 s lpf;
#X obj 661 232 i;
#X obj 553 154 * 100;
#X obj 553 180 catch-knob 5;
#X obj 661 120 expr thres;
#X obj 694 155 r thres;
#X obj 553 213 s thres;
#X msg 717 314 GT Threshold: -\$1 db;
#X obj 964 239 i;
#X floatatom 754 246 5 0 0 0 - - - 0;
#X obj 636 270 sel 0;
#X msg 579 314 GT Threshold: 0 db;
#X obj 294 148 pow 2;
#X obj 856 163 pow 2;
#X obj 856 216 catch-knob 150;
#X obj 222 124 r lpfExpr;
#X obj 964 127 expr gtAttack;
#X obj 997 162 r gtAttack;
#X obj 856 190 * 1000;
#X obj 856 249 s gtAttack;
#X msg 964 265 GT Attack: \$1 ms;
#X obj 1239 248 i;
#X obj 1131 172 pow 2;
#X obj 1131 225 catch-knob 150;
#X obj 1131 199 * 5000;
#X obj 1239 136 expr gtRelease;
#X obj 1272 171 r gtRelease;
#X obj 1131 258 s gtRelease;
#X msg 1239 274 GT Release: \$1 ms;
#X msg 20 110 ---| F I L T E R |---;
#X obj 20 20 r switchPage4;
#X obj 20 142 screen 4 1;
#X obj 294 124 r p4k1;
#X obj 402 281 screen 4 2;
#X obj 553 130 r p4k2;
#X obj 648 368 screen 4 3;
#X obj 856 137 r p4k3;
#X obj 964 295 screen 4 4;
#X obj 1131 146 r p4k4;
#X obj 1239 304 screen 4 5;
#X connect 0 0 3 0;
#X connect 1 0 6 0;
#X connect 2 0 1 0;
#X connect 3 0 39 0;
#X connect 4 0 0 0;
#X connect 4 0 1 1;
#X connect 5 0 0 0;
#X connect 5 0 1 1;
#X connect 7 0 15 0;
#X connect 7 0 16 0;
#X connect 8 0 9 0;
#X connect 9 0 12 0;
#X connect 10 0 7 0;
#X connect 10 0 9 1;
#X connect 11 0 7 0;
#X connect 11 0 9 1;
#X connect 13 0 41 0;
#X connect 14 0 26 0;
#X connect 16 0 17 0;
#X connect 16 1 13 0;
#X connect 17 0 41 0;
#X connect 18 0 2 0;
#X connect 19 0 24 0;
#X connect 20 0 25 0;
#X connect 21 0 18 0;
#X connect 22 0 14 0;
#X connect 22 0 20 1;
#X connect 23 0 14 0;
#X connect 23 0 20 1;
#X connect 24 0 20 0;
#X connect 26 0 43 0;
#X connect 27 0 34 0;
#X connect 28 0 30 0;
#X connect 29 0 33 0;
#X connect 30 0 29 0;
#X connect 31 0 27 0;
#X connect 31 0 29 1;
#X connect 32 0 27 0;
#X connect 32 0 29 1;
#X connect 34 0 45 0;
#X connect 35 0 37 0;
#X connect 36 0 35 0;
#X connect 36 0 4 0;
#X connect 36 0 10 0;
#X connect 36 0 22 0;
#X connect 36 0 31 0;
#X connect 38 0 18 0;
#X connect 40 0 8 0;
#X connect 42 0 19 0;
#X connect 44 0 28 0;
#X restore 208 103 pd screen4;
#X obj 66 30 pageSvc 6 0 0;
#N canvas 390 336 1153 358 screen5 0;
#X obj 971 77 r exp;
#X obj 536 88 expr pedalMin;
#X obj 557 112 r pedalMin;
#X obj 506 222 s pedalMin;
#X obj 734 82 expr pedalMax;
#X obj 755 106 r pedalMax;
#X obj 702 215 s pedalMax;
#X obj 670 188 t b f;
#X obj 474 194 t b f;
#X obj 474 247 s save-pedal;
#X obj 670 240 s save-pedal;
#X obj 474 145 i;
#X obj 474 121 * 1000;
#X obj 474 169 / 1000;
#X obj 670 139 i;
#X obj 670 115 * 1000;
#X obj 670 163 / 1000;
#X obj 212 139 i;
#X obj 325 83 expr pedalTarget;
#X obj 346 107 r pedalTarget;
#X obj 212 165 catch-knob 1;
#N canvas 1671 155 685 536 target 0;
#X obj 19 18 inlet;
#X obj 220 315 outlet;
#X msg 19 198 symbol None;
#X msg 36 173 symbol Wet;
#X msg 54 147 symbol Drive;
#X msg 71 122 symbol Cutoff;
#X msg 89 96 symbol Character;
#X obj 19 43 sel 0 1 2 3 4;
#X msg 107 70 symbol Heat;
#X connect 0 0 7 0;
#X connect 2 0 1 0;
#X connect 3 0 1 0;
#X connect 4 0 1 0;
#X connect 5 0 1 0;
#X connect 6 0 1 0;
#X connect 7 0 2 0;
#X connect 7 1 3 0;
#X connect 7 2 4 0;
#X connect 7 3 5 0;
#X connect 7 4 6 0;
#X connect 7 5 8 0;
#X connect 8 0 1 0;
#X restore 325 149 pd target;
#X obj 212 191 s pedalTarget;
#X obj 971 189 pack \$1 \$2;
#X obj 1038 78 r pedalCurrent;
#X obj 971 127 i;
#X obj 971 103 * 1000;
#X obj 971 151 / 1000;
#X obj 1038 127 i;
#X obj 1038 103 * 1000;
#X obj 1038 151 / 1000;
#X msg 926 145 0;
#X obj 894 79 t b b;
#X msg 894 145 0;
#X msg 325 179 Target: \$1;
#X msg 536 146 Pedal min: \$1;
#X msg 734 138 Pedal max: \$1;
#X msg 971 218 CURRENT: \$1>>\$2;
#X msg 20 109 ---| P E D A L |---;
#X obj 20 20 r switchPage5;
#X obj 20 142 screen 5 1;
#X obj 212 91 r p5k1;
#X obj 325 207 screen 5 2;
#X obj 474 97 r p5k2;
#X obj 536 176 screen 5 3;
#X obj 670 91 r p5k3;
#X obj 734 168 screen 5 4;
#X obj 971 248 screen 5 5;
#X obj 212 115 * 5;
#X connect 0 0 26 0;
#X connect 1 0 35 0;
#X connect 2 0 35 0;
#X connect 4 0 36 0;
#X connect 5 0 36 0;
#X connect 7 0 10 0;
#X connect 7 1 6 0;
#X connect 8 0 9 0;
#X connect 8 1 3 0;
#X connect 11 0 13 0;
#X connect 12 0 11 0;
#X connect 13 0 8 0;
#X connect 14 0 16 0;
#X connect 15 0 14 0;
#X connect 16 0 7 0;
#X connect 17 0 20 0;
#X connect 18 0 21 0;
#X connect 18 0 20 1;
#X connect 19 0 21 0;
#X connect 19 0 20 1;
#X connect 20 0 22 0;
#X connect 21 0 34 0;
#X connect 23 0 37 0;
#X connect 24 0 29 0;
#X connect 25 0 27 0;
#X connect 26 0 25 0;
#X connect 27 0 23 0;
#X connect 28 0 30 0;
#X connect 29 0 28 0;
#X connect 30 0 23 1;
#X connect 31 0 23 1;
#X connect 32 0 33 0;
#X connect 32 1 31 0;
#X connect 33 0 23 0;
#X connect 34 0 42 0;
#X connect 35 0 44 0;
#X connect 36 0 46 0;
#X connect 37 0 47 0;
#X connect 38 0 40 0;
#X connect 39 0 38 0;
#X connect 39 0 18 0;
#X connect 39 0 32 0;
#X connect 39 0 1 0;
#X connect 39 0 4 0;
#X connect 41 0 48 0;
#X connect 43 0 12 0;
#X connect 45 0 15 0;
#X connect 48 0 17 0;
#X restore 376 80 pd screen5;
#N canvas 840 446 1040 385 screen6 0;
#X obj 121 208 r currentPageNumber;
#X obj 27 242 spigot;
#X msg 22 112 ---| P R E S E T |---;
#X obj 27 198 r auxOn;
#X obj 27 222 bng 15 250 50 0 empty empty empty 17 7 0 10 #fcfcfc #000000 #000000;
#N canvas 517 79 758 675 save 0;
#X msg 611 216 add \$1;
#X obj 105 467 textfile;
#X msg 551 175 clear;
#X obj 281 151 t b b b b b b b b b b b b b b b b b b b;
#X obj 536 199 expr gain;
#X obj 670 233 s \$0-write;
#X obj 281 646 s \$0-write;
#X obj 105 441 r \$0-write;
#X msg 611 241 add \$1;
#X obj 671 258 s \$0-write;
#X obj 521 224 expr drive;
#X msg 611 265 add \$1;
#X obj 671 282 s \$0-write;
#X msg 611 290 add \$1;
#X obj 671 307 s \$0-write;
#X msg 611 314 add \$1;
#X obj 671 331 s \$0-write;
#X msg 611 337 add \$1;
#X obj 671 354 s \$0-write;
#X msg 611 361 add \$1;
#X obj 671 378 s \$0-write;
#X msg 611 386 add \$1;
#X obj 672 403 s \$0-write;
#X msg 611 411 add \$1;
#X obj 672 428 s \$0-write;
#X msg 611 435 add \$1;
#X obj 672 452 s \$0-write;
#X msg 611 460 add \$1;
#X obj 672 477 s \$0-write;
#X msg 611 485 add \$1;
#X obj 672 502 s \$0-write;
#X obj 138 81 spigot 0;
#X obj 191 55 r $-psnr;
#X msg 281 621 write preset-\$1.cfg cr;
#X obj 281 595 + 0;
#X obj 299 570 r $-psnr;
#X obj 14 11 r \$0-processpreset;
#X obj 14 110 s switchPage;
#X msg 14 87 1;
#X obj 14 42 t b b;
#X obj 138 105 t b b;
#X obj 161 251 + 0;
#X obj 179 226 r $-psnr;
#X obj 138 147 t b b b;
#X msg 184 174 clear;
#X obj 161 304 s \$0-write;
#X obj 76 357 s \$0-write;
#X msg 76 332 write preset.cfg cr;
#X msg 161 278 add \$1;
#X obj 669 192 s \$0-write;
#X obj 184 201 s \$0-write;
#X obj 401 418 expr character;
#X obj 506 248 expr hpf;
#X obj 491 273 expr wet;
#X obj 476 297 expr lpf;
#X obj 461 320 expr thres;
#X obj 446 344 expr gtAttack;
#X obj 431 369 expr gtRelease;
#X obj 416 394 expr charAmount;
#X obj 371 468 expr charMixin;
#X obj 386 443 expr charType;
#X msg 611 533 add \$1;
#X obj 672 550 s \$0-write;
#X msg 611 509 add \$1;
#X obj 672 526 s \$0-write;
#X obj 356 492 expr tubeWarmth;
#X obj 341 516 expr warmthAmount;
#X msg 611 558 add \$1;
#X obj 672 575 s \$0-write;
#X obj 326 541 expr color;
#X connect 0 0 5 0;
#X connect 2 0 49 0;
#X connect 3 0 34 0;
#X connect 3 3 69 0;
#X connect 3 4 66 0;
#X connect 3 5 65 0;
#X connect 3 6 59 0;
#X connect 3 7 60 0;
#X connect 3 8 51 0;
#X connect 3 9 58 0;
#X connect 3 10 57 0;
#X connect 3 11 56 0;
#X connect 3 12 55 0;
#X connect 3 13 54 0;
#X connect 3 14 53 0;
#X connect 3 15 52 0;
#X connect 3 16 10 0;
#X connect 3 17 4 0;
#X connect 3 18 2 0;
#X connect 4 0 0 0;
#X connect 7 0 1 0;
#X connect 8 0 9 0;
#X connect 10 0 8 0;
#X connect 11 0 12 0;
#X connect 13 0 14 0;
#X connect 15 0 16 0;
#X connect 17 0 18 0;
#X connect 19 0 20 0;
#X connect 21 0 22 0;
#X connect 23 0 24 0;
#X connect 25 0 26 0;
#X connect 27 0 28 0;
#X connect 29 0 30 0;
#X connect 31 0 40 0;
#X connect 32 0 31 1;
#X connect 33 0 6 0;
#X connect 34 0 33 0;
#X connect 35 0 34 1;
#X connect 36 0 39 0;
#X connect 38 0 37 0;
#X connect 39 0 38 0;
#X connect 39 1 31 0;
#X connect 40 0 43 0;
#X connect 40 1 3 0;
#X connect 41 0 48 0;
#X connect 42 0 41 1;
#X connect 43 0 47 0;
#X connect 43 1 41 0;
#X connect 43 2 44 0;
#X connect 44 0 50 0;
#X connect 47 0 46 0;
#X connect 48 0 45 0;
#X connect 51 0 25 0;
#X connect 52 0 11 0;
#X connect 53 0 13 0;
#X connect 54 0 15 0;
#X connect 55 0 17 0;
#X connect 56 0 19 0;
#X connect 57 0 21 0;
#X connect 58 0 23 0;
#X connect 59 0 29 0;
#X connect 60 0 27 0;
#X connect 61 0 62 0;
#X connect 63 0 64 0;
#X connect 65 0 63 0;
#X connect 66 0 61 0;
#X connect 67 0 68 0;
#X connect 69 0 67 0;
#X restore 88 319 pd save;
#N canvas 515 239 725 722 load 0;
#X obj 129 252 textfile;
#X obj 161 153 t b b;
#X msg 161 205 rewind;
#X obj 129 125 t b b;
#X obj 129 671 s gain;
#X obj 146 647 s drive;
#X obj 198 573 s lpf;
#X obj 232 519 s gtAttack;
#X obj 23 93 t b b;
#X obj 23 145 s switchPage;
#X msg 23 122 1;
#X obj 382 177 textfile;
#X obj 414 99 t b b;
#X msg 414 129 rewind;
#X obj 382 71 t b b;
#X msg 471 130 read preset.cfg;
#X msg 218 205 read preset-\$1.cfg;
#X obj 218 180 +;
#X obj 236 155 r $-plnr;
#X obj 382 207 s $-plnr;
#X obj 350 16 r loadbang5;
#X obj 350 40 t b b;
#X obj 23 66 spigot 0;
#X obj 76 40 r $-plnr;
#X obj 23 15 r \$0-processpreset;
#X obj 515 194 print loading preset;
#X obj 163 623 s hpf;
#X obj 180 599 s wet;
#X obj 215 546 s thres;
#X obj 250 492 s gtRelease;
#X obj 267 464 s charAmount;
#X obj 284 437 s character;
#X obj 319 383 s charMixin;
#X obj 129 276 unpack f f f f f f f f f f f f f f f f f;
#X obj 302 411 s charType;
#X obj 336 355 s tubeWarmth;
#X obj 354 329 s warmthAmount;
#X obj 371 303 s color;
#X connect 0 0 33 0;
#X connect 1 0 2 0;
#X connect 1 1 17 0;
#X connect 2 0 0 0;
#X connect 3 0 0 0;
#X connect 3 1 1 0;
#X connect 8 0 10 0;
#X connect 8 1 3 0;
#X connect 10 0 9 0;
#X connect 11 0 19 0;
#X connect 11 0 25 0;
#X connect 12 0 13 0;
#X connect 12 1 15 0;
#X connect 13 0 11 0;
#X connect 14 0 11 0;
#X connect 14 1 12 0;
#X connect 15 0 11 0;
#X connect 16 0 0 0;
#X connect 17 0 16 0;
#X connect 18 0 17 1;
#X connect 20 0 21 0;
#X connect 21 0 8 0;
#X connect 21 1 14 0;
#X connect 22 0 8 0;
#X connect 23 0 22 1;
#X connect 24 0 22 0;
#X connect 33 0 4 0;
#X connect 33 1 5 0;
#X connect 33 2 26 0;
#X connect 33 3 27 0;
#X connect 33 4 6 0;
#X connect 33 5 28 0;
#X connect 33 6 7 0;
#X connect 33 7 29 0;
#X connect 33 8 30 0;
#X connect 33 9 31 0;
#X connect 33 10 34 0;
#X connect 33 11 32 0;
#X connect 33 12 35 0;
#X connect 33 13 36 0;
#X connect 33 14 37 0;
#X restore 26 319 pd load;
#X obj 355 129 * 20;
#X msg 325 80 0;
#X obj 355 153 i;
#X obj 850 91 screen 5 4;
#X obj 621 130 * 20;
#X msg 606 81 0;
#X obj 621 154 i;
#X msg 436 125 Save as preset \$1;
#X obj 355 181 s $-psnr;
#X obj 621 182 s $-plnr;
#X obj 436 98 r $-psnr;
#X obj 692 120 r $-plnr;
#X msg 692 147 Load preset \$1;
#X msg 850 61 Select and hit AUX;
#X msg 312 201 0;
#X msg 588 208 0;
#X obj 312 227 s $-plnr;
#X obj 588 232 s $-psnr;
#X obj 27 266 s \$0-processpreset;
#X obj 22 22 r switchPage6;
#X obj 22 144 screen 6 1;
#X obj 84 225 == 6;
#X obj 355 105 r p6k1;
#X obj 436 149 screen 6 2;
#X obj 621 106 r p6k2;
#X obj 692 171 screen 6 3;
#X connect 0 0 28 0;
#X connect 1 0 25 0;
#X connect 2 0 27 0;
#X connect 3 0 4 0;
#X connect 4 0 1 0;
#X connect 7 0 9 0;
#X connect 8 0 7 0;
#X connect 9 0 15 0;
#X connect 9 0 21 0;
#X connect 11 0 13 0;
#X connect 12 0 11 0;
#X connect 13 0 16 0;
#X connect 13 0 22 0;
#X connect 14 0 30 0;
#X connect 17 0 14 0;
#X connect 18 0 19 0;
#X connect 19 0 32 0;
#X connect 20 0 10 0;
#X connect 21 0 23 0;
#X connect 22 0 24 0;
#X connect 26 0 2 0;
#X connect 26 0 8 0;
#X connect 26 0 20 0;
#X connect 26 0 12 0;
#X connect 28 0 1 1;
#X connect 29 0 7 0;
#X connect 31 0 11 0;
#X restore 376 103 pd screen6;
#X text 176 82 Tube;
#N canvas 320 399 1178 424 screen3 1;
#X obj 256 204 i;
#X obj 577 185 i;
#X obj 256 228 / 100;
#X obj 20 20 r switchPage3;
#X msg 20 73 ---| T U B E |---;
#X obj 20 105 screen 3 1;
#X obj 148 133 * 20;
#X obj 148 157 - 10;
#X obj 148 189 catch-knob 1;
#X obj 148 214 s tubeWarmth;
#X obj 256 99 expr tubeWarmth;
#X obj 289 134 r tubeWarmth;
#X obj 256 279 screen 3 2;
#X obj 148 109 r p3k1;
#X obj 256 179 * 100;
#X obj 465 99 r p3k2;
#X obj 465 161 catch-knob 0.1;
#X obj 465 194 s warmthAmount;
#X obj 577 161 * 100;
#X msg 577 210 Influence: \$1%;
#X obj 577 236 screen 3 3;
#X obj 577 97 expr warmthAmount;
#X obj 610 132 r warmthAmount;
#X msg 256 253 Heat: \$1%;
#X obj 387 99 r heatExpr;
#X obj 735 161 catch-knob 0.1;
#X obj 735 99 r p3k3;
#X obj 735 194 s color;
#X obj 847 97 expr color;
#X obj 880 132 r color;
#X obj 847 297 screen 3 4;
#X obj 735 123 * 3.7;
#N canvas 322 335 755 332 color 0;
#X obj 12 6 inlet;
#X obj 12 293 outlet;
#X msg 108 217 symbol blue;
#X msg 321 217 symbol yellow;
#X msg 423 217 symbol orange;
#X msg 526 217 symbol red;
#X msg 608 217 symbol infrared;
#X obj 108 48 moses 0.6;
#X obj 197 65 moses 1.2;
#X obj 321 82 moses 1.8;
#X obj 423 99 moses 2.4;
#X obj 526 116 moses 3;
#X msg 12 217 symbol black;
#X obj 12 31 moses 0.1;
#X msg 197 217 symbol lightblue;
#X connect 0 0 13 0;
#X connect 2 0 1 0;
#X connect 3 0 1 0;
#X connect 4 0 1 0;
#X connect 5 0 1 0;
#X connect 6 0 1 0;
#X connect 7 0 2 0;
#X connect 7 1 8 0;
#X connect 8 0 14 0;
#X connect 8 1 9 0;
#X connect 9 0 3 0;
#X connect 9 1 10 0;
#X connect 10 0 4 0;
#X connect 10 1 11 0;
#X connect 11 0 5 0;
#X connect 11 1 6 0;
#X connect 12 0 1 0;
#X connect 13 0 12 0;
#X connect 13 1 7 0;
#X connect 14 0 1 0;
#X restore 847 197 pd color;
#X obj 912 197 * 27;
#X obj 847 166 t f f;
#X obj 847 246 pack s f;
#X obj 912 221 i;
#X msg 847 271 Color: \$1 (\$2);
#X connect 0 0 2 0;
#X connect 1 0 19 0;
#X connect 2 0 23 0;
#X connect 3 0 4 0;
#X connect 3 0 10 0;
#X connect 3 0 21 0;
#X connect 3 0 28 0;
#X connect 4 0 5 0;
#X connect 6 0 7 0;
#X connect 7 0 8 0;
#X connect 8 0 9 0;
#X connect 10 0 8 1;
#X connect 10 0 14 0;
#X connect 11 0 8 1;
#X connect 11 0 14 0;
#X connect 13 0 6 0;
#X connect 14 0 0 0;
#X connect 15 0 16 0;
#X connect 16 0 17 0;
#X connect 18 0 1 0;
#X connect 19 0 20 0;
#X connect 21 0 16 1;
#X connect 21 0 18 0;
#X connect 22 0 16 1;
#X connect 22 0 18 0;
#X connect 23 0 12 0;
#X connect 24 0 16 0;
#X connect 25 0 27 0;
#X connect 26 0 31 0;
#X connect 28 0 25 1;
#X connect 28 0 34 0;
#X connect 29 0 25 1;
#X connect 29 0 34 0;
#X connect 31 0 25 0;
#X connect 32 0 35 0;
#X connect 33 0 36 0;
#X connect 34 0 32 0;
#X connect 34 1 33 0;
#X connect 35 0 37 0;
#X connect 36 0 35 1;
#X connect 37 0 30 0;
#X restore 208 80 pd screen3;
#N canvas 456 247 527 641 dist 0;
#X obj 36 31 adc~;
#X obj 35 601 throw~ outL;
#X obj 122 601 throw~ outR;
#X obj 286 353 r drive;
#X obj 69 115 r hpf;
#X obj 77 10 r gain;
#X obj 90 530 r wet;
#X obj 84 188 r lpf;
#X obj 100 214 r thres;
#X obj 36 547 xfade~;
#X obj 115 239 r gtAttack;
#X obj 130 264 r gtRelease;
#X obj 54 501 tube~, f 29;
#X obj 36 75 *~;
#X obj 146 289 r charAmount;
#X obj 161 315 r character;
#X obj 192 367 r charMixin;
#X obj 286 377 pack \$1 100;
#X obj 207 394 line;
#X obj 77 33 pack \$1 100;
#X obj 77 57 vline~;
#X obj 36 573 expr~ tanh($v1);
#X obj 69 139 pack \$1 100;
#X obj 69 163 line;
#X obj 177 341 r charType;
#X obj 223 419 r tubeWarmth;
#X obj 238 445 r warmthAmount;
#X obj 254 471 r color;
#X connect 0 0 13 0;
#X connect 3 0 17 0;
#X connect 4 0 22 0;
#X connect 5 0 19 0;
#X connect 6 0 9 2;
#X connect 7 0 12 2;
#X connect 8 0 12 3;
#X connect 9 0 21 0;
#X connect 10 0 12 4;
#X connect 11 0 12 5;
#X connect 12 0 9 1;
#X connect 13 0 12 0;
#X connect 13 0 9 0;
#X connect 14 0 12 6;
#X connect 15 0 12 7;
#X connect 16 0 12 9;
#X connect 17 0 18 0;
#X connect 18 0 12 10;
#X connect 19 0 20 0;
#X connect 20 0 13 1;
#X connect 21 0 1 0;
#X connect 21 0 2 0;
#X connect 22 0 23 0;
#X connect 23 0 12 1;
#X connect 24 0 12 8;
#X connect 25 0 12 11;
#X connect 26 0 12 12;
#X connect 27 0 12 13;
#X restore 262 53 pd dist;
#X text 10 82 Mix/Drive;
#N canvas 748 99 1102 591 fs-cfg 0;
#X msg 394 157 read pedal.cfg;
#X obj 305 204 textfile;
#X obj 337 126 t b b;
#X msg 337 156 rewind;
#X obj 305 228 unpack f f, f 12;
#X msg 93 233 write pedal.cfg cr;
#X obj 305 98 t b b;
#X obj 305 252 s pedalMin;
#X obj 386 253 s pedalMax;
#X obj 305 69 r loadbang5;
#X msg 133 155 add \$1;
#X msg 113 205 add \$1;
#X obj 10 250 textfile;
#X obj 133 132 expr pedalMin;
#X obj 113 182 expr pedalMax;
#X obj 93 47 r save-pedal;
#X obj 93 78 t b b b b;
#X msg 153 106 clear;
#X obj 579 63 v pedalRange;
#X obj 578 192 -;
#X obj 595 163 t b f;
#X obj 578 216 s pedalRange;
#X obj 595 139 r pedalMin;
#X obj 578 115 r pedalMax;
#X obj 579 88 v pedalMult;
#X obj 533 263 s pedalMult;
#X obj 533 239 expr if ($f1 > 0 \, 1 / $f1 \, 0);
#X obj 792 63 r exp;
#X obj 824 112 expr pedalMult;
#X obj 792 88 t f b;
#X obj 792 134 *;
#X obj 792 234 clip 0 1;
#X obj 792 158 t f b;
#X obj 792 206 -;
#X obj 825 183 expr pedalMult * pedalMin;
#X obj 792 258 s pedalCurrent;
#X connect 0 0 1 0;
#X connect 1 0 4 0;
#X connect 2 0 3 0;
#X connect 2 1 0 0;
#X connect 3 0 1 0;
#X connect 4 0 7 0;
#X connect 4 1 8 0;
#X connect 5 0 12 0;
#X connect 6 0 1 0;
#X connect 6 1 2 0;
#X connect 9 0 6 0;
#X connect 10 0 12 0;
#X connect 11 0 12 0;
#X connect 13 0 10 0;
#X connect 14 0 11 0;
#X connect 15 0 16 0;
#X connect 16 0 5 0;
#X connect 16 1 14 0;
#X connect 16 2 13 0;
#X connect 16 3 17 0;
#X connect 17 0 12 0;
#X connect 19 0 21 0;
#X connect 19 0 26 0;
#X connect 20 0 19 0;
#X connect 20 1 19 1;
#X connect 22 0 20 0;
#X connect 23 0 19 0;
#X connect 26 0 25 0;
#X connect 27 0 29 0;
#X connect 28 0 30 1;
#X connect 29 0 30 0;
#X connect 29 1 28 0;
#X connect 30 0 32 0;
#X connect 31 0 35 0;
#X connect 32 0 33 0;
#X connect 32 1 34 0;
#X connect 33 0 31 0;
#X connect 34 0 33 1;
#X restore 94 53 pd fs-cfg;
#N canvas 385 265 413 272 fs-process 0;
#X obj 108 14 r pedalCurrent;
#X obj 9 14 r pedalTarget;
#X obj 9 74 pack \$1 \$2;
#X obj 108 38 t b f;
#X obj 47 200 s driveExpr;
#X obj 28 222 s wetExpr;
#X obj 9 98 route 0 1 2 3 4 5;
#X obj 67 176 s lpfExpr;
#X obj 86 152 s amountCExpr;
#X obj 105 126 s heatExpr;
#X connect 0 0 3 0;
#X connect 1 0 2 0;
#X connect 2 0 6 0;
#X connect 3 0 2 0;
#X connect 3 1 2 1;
#X connect 6 1 5 0;
#X connect 6 2 4 0;
#X connect 6 3 7 0;
#X connect 6 4 8 0;
#X connect 6 5 9 0;
#X restore 164 53 pd fs-process;
