#N canvas 314 64 1481 892 10;
#X obj 1267 549 t b b;
#X obj 1267 591 s start-timer;
#X obj 1294 567 s reset-timer;
#X obj 891 369 s recording;
#X obj 282 251 r recording;
#X obj 282 319 - 1;
#X obj 282 347 tgl 15 0 empty empty empty 17 7 0 10 -262144 -1 -1 -1
1;
#X obj 249 364 spigot;
#X obj 249 382 s reset-timer;
#X obj 249 197 delay 3000;
#N canvas 461 150 452 799 timer 0;
#X floatatom 170 221 5 0 0 0 - - -;
#X obj 136 203 % 60;
#X floatatom 136 221 5 0 0 0 - - -;
#X obj 94 203 % 24;
#X floatatom 94 221 5 0 0 0 - - -;
#X obj 122 167 t f f f;
#X obj 127 121 i;
#X obj 38 42 bng 15 250 50 0 empty empty empty 17 7 0 10 -262144 -1
-1;
#X obj 206 42 bng 15 250 50 0 empty empty empty 17 7 0 10 -262144 -1
-1;
#X obj 151 121 + 1;
#X obj 122 42 bng 15 250 50 0 empty empty empty 17 7 0 10 -262144 -1
-1;
#X obj 38 77 tgl 15 0 empty empty empty 17 7 0 10 -262144 -1 -1 0 1
;
#X obj 38 94 metro 1000;
#X obj 170 203 % 60;
#X obj 136 185 / 60;
#X obj 94 185 / 3600;
#X msg 38 59 1;
#X msg 206 59 0;
#X obj 122 59 t b b b;
#X msg 150 78 0;
#X msg 122 78 0;
#X obj 38 24 r start-timer;
#X obj 122 24 r reset-timer;
#X obj 206 24 r stop-timer;
#X obj 127 149 f;
#X obj 93 244 pack 0 0 0 0;
#X msg 93 332 #\$4 \$1 h \$2 min \$3 sec \;;
#X obj 264 368 r stop-timer;
#X msg 220 373 ‎‎;
#X obj 334 51 unpack s s;
#X obj 334 33 r activePage;
#X msg 334 87 1;
#X msg 367 87 0;
#X obj 346 115 t f;
#X obj 91 283 spigot;
#X obj 314 321 r captureNUM;
#X obj 334 69 sel f3;
#X obj 93 377 s screenLine5;
#X connect 0 0 25 2;
#X connect 1 0 2 0;
#X connect 2 0 25 1;
#X connect 3 0 4 0;
#X connect 4 0 25 0;
#X connect 5 0 15 0;
#X connect 5 1 14 0;
#X connect 5 2 13 0;
#X connect 6 0 9 0;
#X connect 6 0 24 0;
#X connect 7 0 16 0;
#X connect 8 0 17 0;
#X connect 9 0 6 1;
#X connect 10 0 18 0;
#X connect 11 0 12 0;
#X connect 12 0 6 0;
#X connect 13 0 0 0;
#X connect 14 0 1 0;
#X connect 15 0 3 0;
#X connect 16 0 11 0;
#X connect 17 0 11 0;
#X connect 18 0 20 0;
#X connect 18 1 19 0;
#X connect 18 2 17 0;
#X connect 19 0 6 1;
#X connect 20 0 5 0;
#X connect 21 0 7 0;
#X connect 22 0 10 0;
#X connect 23 0 8 0;
#X connect 24 0 5 0;
#X connect 25 0 34 0;
#X connect 26 0 37 0;
#X connect 27 0 28 0;
#X connect 28 0 37 0;
#X connect 29 0 36 0;
#X connect 30 0 29 0;
#X connect 31 0 33 0;
#X connect 32 0 33 0;
#X connect 33 0 34 1;
#X connect 34 0 26 0;
#X connect 35 0 25 3;
#X connect 36 0 31 0;
#X connect 36 1 32 0;
#X restore 130 289 pd timer;
#X obj 92 52 unpack s s;
#X obj 92 34 r activePage;
#X msg 92 88 1;
#X msg 148 94 0;
#X msg 104 187 1;
#X msg 131 187 0;
#X obj 104 215 tgl 15 0 empty empty empty 17 7 0 10 -262144 -1 -1 0
1;
#X obj 1294 485 s stop-timer;
#X obj 249 225 spigot;
#X obj 1267 379 sel 1 0;
#X msg 1272 503 3;
#X msg 1242 503 0;
#X msg 316 319 1;
#X obj 249 169 r redrawcapture;
#X msg 158 183 stop;
#X obj 104 159 sel 1;
#X obj 104 141 change;
#X obj 886 309 tgl 50 0 empty empty empty 17 7 0 100 -262144 -1 -1
0 1;
#X floatatom 1036 438 5 0 0 0 - - -;
#X obj 886 163 tgl 50 0 empty empty empty 17 7 0 100 -262144 -1 -1
0 1;
#X obj 1036 302 + 1, f 4;
#X msg 887 262 1;
#X obj 886 215 sel 1 0;
#X msg 915 262 0;
#X obj 992 302 i 1;
#X obj 992 274 t b f;
#X obj 886 243 t b b;
#X msg 123 838 start;
#X msg 837 749 stop;
#X obj 913 411 t b b, f 12;
#X obj 982 701 *~;
#X obj 875 795 *~, f 9;
#X obj 96 496 t b b;
#X obj 96 704 delay 5;
#X obj 96 722 t b b;
#X obj 932 849 *~, f 9;
#X obj 875 867 writesf~ 2;
#X obj 168 785 i 1, f 7;
#X obj 982 665 lop~ 1;
#X obj 913 679 delay 1000;
#X floatatom 992 257 5 0 0 0 - - -;
#X obj 886 393 sel 1;
#X obj 875 759 inlet~;
#X obj 932 813 inlet~;
#X text 1068 438 .wav (current capture);
#X text 1022 665 second fade-in + fade-out + stop-delay;
#X text 939 867 channels (stereo);
#X msg 96 740 1;
#X msg 982 637 0;
#X obj 922 243 t b b;
#X obj 953 13 r loadbang-\$1;
#X obj 886 127 sel 1;
#X obj 953 31 t b b b;
#X obj 992 167 textfile;
#X obj 992 77 until;
#X msg 1071 67 rewind;
#X obj 992 49 t b b b, f 27;
#X msg 992 95 bang;
#X obj 992 185 list;
#X obj 992 203 unpack f;
#X obj 992 221 - 1;
#X obj 992 239 max 0;
#X obj 1020 629 r arm-record;
#X obj 1020 647 * 10000;
#X obj 1015 593 delay 1000;
#X msg 1015 611 1;
#X obj 886 109 r auxIn-f3;
#X obj 1272 531 s aux-led-f3;
#X obj 1083 460 s captureNUM;
#X obj 707 278 s record-capture;
#X obj 1036 465 t b f;
#X obj 972 482 symbol \$2;
#X obj 707 233 spigot 0;
#X obj 707 210 r r-multitrack-f3-\$1;
#X msg 1080 127 read counter.txt cr;
#X msg 1036 544 write counter.txt;
#X obj 1036 562 text define counter-\$1;
#X obj 1100 517 text set counter-\$1;
#X text 563 826 24bit;
#X obj 678 379 spigot 0;
#X obj 707 333 sel 0;
#X msg 707 354 1, f 1;
#X msg 734 353 0, f 1;
#X obj 168 807 pack f s f;
#X obj 261 751 r bpm;
#X floatatom 261 772 5 0 0 0 - - -;
#X obj 123 760 t b b b, f 15;
#X obj 246 793 f;
#X obj 61 153 tgl 15 0 empty empty empty 17 7 0 10 -262144 -1 -1 0
1;
#X msg 168 826 open -bytes 3 /tmp/media/recordings/\$1-\$2_\$3.wav
, f 63;
#X obj 201 81 sel pg_f3;
#X obj 92 70 sel \$1;
#X obj 102 119 &&;
#X msg 201 102 1;
#X msg 246 103 0;
#X obj 233 652 bng 15 250 50 0 empty empty empty 17 7 0 10 -262144
-1 -1;
#X obj 607 285 r loadbang-\$1;
#X obj 607 306 delay 10;
#X connect 0 0 1 0;
#X connect 0 1 2 0;
#X connect 4 0 5 0;
#X connect 5 0 6 0;
#X connect 6 0 7 1;
#X connect 7 0 8 0;
#X connect 9 0 19 0;
#X connect 11 0 102 0;
#X connect 11 1 101 0;
#X connect 12 0 11 0;
#X connect 13 0 103 0;
#X connect 14 0 103 0;
#X connect 15 0 17 0;
#X connect 16 0 17 0;
#X connect 17 0 19 1;
#X connect 19 0 7 0;
#X connect 20 0 21 0;
#X connect 20 0 0 0;
#X connect 20 1 18 0;
#X connect 20 1 22 0;
#X connect 21 0 78 0;
#X connect 22 0 78 0;
#X connect 23 0 6 0;
#X connect 24 0 9 0;
#X connect 25 0 9 0;
#X connect 26 0 15 0;
#X connect 26 1 16 0;
#X connect 26 1 25 0;
#X connect 27 0 26 0;
#X connect 28 0 3 0;
#X connect 28 0 20 0;
#X connect 28 0 90 0;
#X connect 29 0 79 0;
#X connect 29 0 81 0;
#X connect 29 0 48 1;
#X connect 30 0 33 0;
#X connect 30 0 83 0;
#X connect 31 0 35 1;
#X connect 31 0 29 0;
#X connect 32 0 28 0;
#X connect 33 0 37 0;
#X connect 33 1 60 0;
#X connect 34 0 28 0;
#X connect 35 0 31 0;
#X connect 36 0 35 0;
#X connect 36 1 35 1;
#X connect 37 0 32 0;
#X connect 38 0 47 0;
#X connect 39 0 47 0;
#X connect 40 0 50 0;
#X connect 40 1 59 0;
#X connect 41 0 42 1;
#X connect 41 0 46 1;
#X connect 42 0 47 0;
#X connect 43 0 44 0;
#X connect 43 1 59 0;
#X connect 44 0 45 0;
#X connect 45 0 58 0;
#X connect 45 1 97 0;
#X connect 45 1 106 0;
#X connect 46 0 47 1;
#X connect 48 0 94 0;
#X connect 49 0 41 0;
#X connect 49 0 41 1;
#X connect 50 0 39 0;
#X connect 51 0 36 0;
#X connect 52 0 75 0;
#X connect 52 0 43 0;
#X connect 52 1 40 0;
#X connect 53 0 42 0;
#X connect 54 0 46 0;
#X connect 58 0 49 0;
#X connect 59 0 49 0;
#X connect 60 0 35 0;
#X connect 60 1 34 0;
#X connect 61 0 63 0;
#X connect 62 0 30 0;
#X connect 63 0 23 0;
#X connect 63 1 82 0;
#X connect 63 2 67 0;
#X connect 64 0 69 0;
#X connect 64 1 65 1;
#X connect 65 0 68 0;
#X connect 66 0 64 0;
#X connect 67 0 65 0;
#X connect 67 1 66 0;
#X connect 67 2 85 0;
#X connect 68 0 64 0;
#X connect 69 0 70 0;
#X connect 70 0 71 0;
#X connect 71 0 72 0;
#X connect 72 0 51 0;
#X connect 73 0 74 0;
#X connect 74 0 49 1;
#X connect 75 0 76 0;
#X connect 76 0 49 1;
#X connect 77 0 62 0;
#X connect 81 0 86 0;
#X connect 81 1 88 0;
#X connect 82 0 94 1;
#X connect 83 0 80 0;
#X connect 84 0 83 1;
#X connect 84 0 91 0;
#X connect 85 0 64 0;
#X connect 86 0 87 0;
#X connect 90 0 52 0;
#X connect 91 0 92 0;
#X connect 91 1 93 0;
#X connect 92 0 90 1;
#X connect 93 0 90 1;
#X connect 94 0 100 0;
#X connect 95 0 96 0;
#X connect 96 0 98 1;
#X connect 97 0 38 0;
#X connect 97 1 48 0;
#X connect 97 2 98 0;
#X connect 98 0 94 2;
#X connect 100 0 47 0;
#X connect 101 0 104 0;
#X connect 101 1 105 0;
#X connect 102 0 13 0;
#X connect 102 1 14 0;
#X connect 103 0 99 0;
#X connect 103 0 27 0;
#X connect 104 0 103 1;
#X connect 105 0 103 1;
#X connect 107 0 108 0;
#X connect 108 0 92 0;
