#N canvas 4 77 284 300 10;
#X text 50 212 previous scene;
#X text 148 212 next scene;
#N canvas 76 161 232 193 midi 0;
#X obj 37 67 sel 127;
#X obj 37 88 bng 15 250 50 0 empty empty empty 17 7 0 10 -262144 -1
-1;
#X obj 37 133 s greater-\$1;
#X obj 101 25 ctlin;
#X floatatom 114 67 5 0 0 0 - - -;
#X obj 114 88 spigot;
#X obj 155 67 == 2;
#X obj 114 109 outlet;
#X connect 0 0 1 0;
#X connect 1 0 2 0;
#X connect 3 0 0 0;
#X connect 3 1 4 0;
#X connect 3 2 6 0;
#X connect 4 0 5 0;
#X connect 5 0 7 0;
#X connect 6 0 5 1;
#X restore 87 51 pd midi;
#X obj 143 51 r greater-\$1;
#X obj 54 127 spigot;
#X obj 143 127 spigot;
#X obj 143 158 i 127;
#X obj 54 168 i 127;
#X obj 87 104 tgl 15 0 empty empty empty 17 7 0 10 -262144 -1 -1 0
1;
#X obj 176 104 tgl 15 0 empty empty empty 17 7 0 10 -262144 -1 -1 0
1;
#X obj 176 81 == 6;
#X obj 54 147 t b b;
#X obj 54 190 ctlout 26 16;
#X obj 143 190 ctlout 27 16;
#X obj 119 112 bng 15 250 50 0 empty empty empty 17 7 0 10 -262144
-1 -1;
#X obj 27 112 bng 15 250 50 0 empty empty empty 17 7 0 10 -262144 -1
-1;
#X obj 54 28 r greater-\$1;
#X obj 87 81 == 5;
#X connect 2 0 10 0;
#X connect 2 0 17 0;
#X connect 3 0 5 0;
#X connect 3 0 14 0;
#X connect 4 0 11 0;
#X connect 5 0 6 0;
#X connect 6 0 13 0;
#X connect 7 0 12 0;
#X connect 8 0 4 1;
#X connect 9 0 5 1;
#X connect 10 0 9 0;
#X connect 11 0 7 0;
#X connect 11 1 7 0;
#X connect 16 0 4 0;
#X connect 16 0 15 0;
#X connect 17 0 8 0;
