#N canvas 4 50 1912 998 10;
#X obj 375 64 chainin 1 \$1;
#X obj 375 176 chainout 1 \$1;
#X obj 373 92 fullmodule a1 \$1;
#X obj 373 118 fullmodule a2 \$1;
#X obj 374 147 fullmodule a3 \$1;
#X obj 125 160 auxmodule m1 \$1;
#X obj 125 178 auxmodule m2 \$1;
#X obj 125 196 auxmodule m3 \$1;
#X obj 125 114 auxmodule s1 \$1;
#X obj 125 132 auxmodule s2 \$1;
#X obj 532 96 fullmodule b1 \$1;
#X obj 532 124 fullmodule b2 \$1;
#X obj 532 152 fullmodule b3 \$1;
#X obj 532 181 fullmodule b4 \$1;
#X obj 652 96 fullmodule c1 \$1;
#X obj 652 124 fullmodule c2 \$1;
#X obj 652 152 fullmodule c3 \$1;
#X obj 532 68 chainin 2 \$1;
#X obj 652 68 chainin 3 \$1;
#X obj 825 428 premodule p1 \$1;
#X obj 518 371 +~;
#X obj 608 371 +~;
#X obj 518 408 +~;
#X obj 608 408 +~;
#X obj 824 458 postmodule p2 \$1;
#X obj 652 181 chainout 3 \$1;
#X obj 532 208 chainout 2 \$1;
#X obj 10 11 r notesIn-\$1;
#X obj 115 12 r auxIn-\$1;
#N canvas 708 260 732 612 keyhandler 0;
#X obj 65 47 inlet note;
#X obj 197 47 inlet aux;
#X obj 182 203 i;
#X obj 65 85 unpack 0 0 0;
#X obj 65 278 spigot 1;
#X obj 237 278 spigot 0;
#X obj 110 234 == 0;
#X obj 110 134 == 0;
#X obj 65 177 spigot 0;
#X text 139 135 do on key release;
#X text 217 297 aux+key handling;
#X text 47 297 normal handling;
#X obj 65 198 - 60;
#X obj 237 340 outlet auxkey;
#X obj 65 336 outlet normkey;
#X obj 188 250 tgl 15 0 empty empty empty 17 7 0 10 -262144 -1 -1 0
1;
#X connect 0 0 3 0;
#X connect 1 0 2 0;
#X connect 2 0 5 1;
#X connect 2 0 6 0;
#X connect 2 0 15 0;
#X connect 3 0 8 0;
#X connect 3 1 7 0;
#X connect 4 0 14 0;
#X connect 5 0 13 0;
#X connect 6 0 4 1;
#X connect 7 0 8 1;
#X connect 8 0 12 0;
#X connect 12 0 5 0;
#X connect 12 0 4 0;
#X restore 10 48 pd keyhandler;
#X msg 10 150 selectpage \$1;
#X obj 10 168 s rackMsgs;
#X obj 141 377 mainctrlhandler \$1;
#X obj 10 436 actmodhandler \$1;
#X obj 54 272 auxhandler;
#X obj 15 218 r activeModule;
#X obj 15 236 symbol;
#X obj 10 318 route 0;
#X msg 49 390 get \$1 1;
#X obj 49 372 - 1;
#X obj 15 254 t b s s;
#X obj 10 200 r r-main-dest-\$1;
#X obj 10 300 pack 0 s;
#X obj 49 354 unpack 0 s;
#X obj 10 336 symbol;
#X obj 532 36 r~ oinL;
#X obj 601 36 r~ oinR;
#X obj 517 641 throw~ ooutL;
#X obj 611 641 throw~ ooutR;
#X obj 10 489 r led-clock;
#X obj 10 507 s aux-led-\$1;
#X msg 115 62 -1;
#X obj 10 114 f;
#X obj 115 80 t b f;
#X obj 10 132 change;
#X obj 115 44 sel 0;
#X obj 608 441 +~;
#X obj 518 442 +~;
#X obj 608 474 +~;
#X obj 518 475 +~;
#X obj 517 497 premastermodule f1 \$1, f 16;
#X obj 517 535 premastermodule f2 \$1, f 16;
#X obj 517 573 mastermodule f3 \$1, f 16;
#N canvas 911 50 1005 928 mixer 0;
#N canvas 168 97 1071 475 mix-knobs 0;
#X obj 187 407 s rackMsgs;
#X obj 14 118 spigot;
#X obj 14 72 / 1023;
#X obj 14 154 symbol \$1;
#X obj 14 182 pack s 2;
#X obj 14 36 i;
#X obj 14 54 change -1;
#X obj 14 136 t b f f, f 29;
#X obj 194 118 spigot;
#X obj 194 72 / 1023;
#X obj 194 154 symbol \$1;
#X obj 194 182 pack s 2;
#X obj 194 36 i;
#X obj 194 54 change -1;
#X obj 194 136 t b f f, f 29;
#X obj 374 118 spigot;
#X obj 374 72 / 1023;
#X obj 374 154 symbol \$1;
#X obj 374 182 pack s 2;
#X obj 374 36 i;
#X obj 374 54 change -1;
#X obj 374 136 t b f f, f 31;
#X obj 14 18 r oknob1Raw;
#X obj 194 18 r oknob2Raw;
#X obj 374 18 r oknob3Raw;
#X obj 307 25 inlet;
#X msg 376 276 setparam \$1 r-chout-gain-3 \$2;
#X msg 194 225 setparam \$1 r-chout-gain-2 \$2;
#X msg 15 272 setparam \$1 r-chout-gain-1 \$2;
#X obj 576 117 spigot;
#X obj 576 71 / 1023;
#X obj 576 153 symbol \$1;
#X obj 576 181 pack s 2;
#X obj 576 35 i;
#X obj 576 53 change -1;
#X obj 576 135 t b f f, f 31;
#X obj 576 17 r oknob4Raw;
#X msg 578 275 setparam \$1 r-chout-gain-4 \$2;
#X obj 14 93 override;
#X obj 194 93 override;
#X obj 374 93 override;
#X obj 576 92 override;
#X obj 655 74 r loadbang-\$1;
#X obj 465 77 r loadbang-\$1;
#X obj 279 69 r loadbang-\$1;
#X obj 90 74 r loadbang-\$1;
#X connect 1 0 7 0;
#X connect 2 0 38 0;
#X connect 3 0 4 0;
#X connect 4 0 28 0;
#X connect 5 0 6 0;
#X connect 6 0 2 0;
#X connect 7 0 3 0;
#X connect 7 1 4 1;
#X connect 8 0 14 0;
#X connect 9 0 39 0;
#X connect 10 0 11 0;
#X connect 11 0 27 0;
#X connect 12 0 13 0;
#X connect 13 0 9 0;
#X connect 14 0 10 0;
#X connect 14 1 11 1;
#X connect 15 0 21 0;
#X connect 16 0 40 0;
#X connect 17 0 18 0;
#X connect 18 0 26 0;
#X connect 19 0 20 0;
#X connect 20 0 16 0;
#X connect 21 0 17 0;
#X connect 21 1 18 1;
#X connect 22 0 5 0;
#X connect 23 0 12 0;
#X connect 24 0 19 0;
#X connect 25 0 1 1;
#X connect 25 0 15 1;
#X connect 25 0 8 1;
#X connect 25 0 29 1;
#X connect 25 0 38 1;
#X connect 25 0 39 1;
#X connect 25 0 40 1;
#X connect 25 0 41 1;
#X connect 26 0 0 0;
#X connect 27 0 0 0;
#X connect 28 0 0 0;
#X connect 29 0 35 0;
#X connect 30 0 41 0;
#X connect 31 0 32 0;
#X connect 32 0 37 0;
#X connect 33 0 34 0;
#X connect 34 0 30 0;
#X connect 35 0 31 0;
#X connect 35 1 32 1;
#X connect 36 0 33 0;
#X connect 37 0 0 0;
#X connect 38 0 1 0;
#X connect 39 0 8 0;
#X connect 40 0 15 0;
#X connect 41 0 29 0;
#X connect 42 0 41 2;
#X connect 43 0 40 2;
#X connect 44 0 39 2;
#X connect 45 0 38 2;
#X restore 344 144 pd mix-knobs;
#X obj 276 44 sel \$1, f 12;
#X obj 276 26 unpack s s, f 16;
#X obj 276 8 r activePage;
#X obj 276 104 &&;
#X msg 369 62 1;
#X msg 456 62 0;
#X msg 276 62 1;
#X msg 345 62 0;
#X obj 369 44 sel pg_allgains;
#X obj 66 592 i;
#X msg 478 1537 /oled/gFlip 3;
#X obj 641 1050 f;
#X obj 54 474 f;
#X obj 54 456 t b f;
#X obj 66 502 +;
#X obj 519 1052 f;
#X obj 210 622 i;
#X obj 577 1051 f;
#X obj 198 504 f;
#X obj 198 476 t b f;
#X obj 210 532 +;
#X obj 210 550 / 100;
#X obj 54 438 *;
#X obj 54 410 / 10;
#X obj 198 430 / 10;
#X obj 198 458 *;
#X obj 210 568 * 128;
#X obj 210 586 min 128;
#X obj 66 520 / 100;
#X obj 66 538 * 128;
#X obj 66 556 min 128;
#X obj 66 574 max 1;
#X obj 210 604 max 1;
#X obj 791 534 i;
#X obj 806 516 - 100;
#X obj 189 805 sel 0;
#X obj 54 370 spigot 0;
#X obj 198 370 spigot 0;
#X obj 183 1585 s oscOut;
#X msg 189 823 /oled/gFillArea 3 0 50 128 14 0;
#X obj 274 160 sel 1;
#X obj 274 196 delay 500;
#X msg 164 305 1;
#X msg 191 305 0;
#X msg 306 178 stop;
#X obj 274 130 change;
#X obj 848 508 int;
#X obj 791 552 moses -99;
#X obj 842 570 moses -9;
#X obj 887 588 moses 0;
#X obj 740 841 i;
#X obj 755 823 - 100;
#X obj 797 815 int;
#X obj 740 859 moses -99;
#X obj 791 877 moses -9;
#X obj 836 895 moses 0;
#X obj 759 1110 i;
#X obj 774 1092 - 100;
#X obj 816 1084 int;
#X obj 759 1128 moses -99;
#X obj 810 1146 moses -9;
#X obj 855 1164 moses 0;
#X obj 311 623 i;
#X obj 299 505 f;
#X obj 299 477 t b f;
#X obj 311 533 +;
#X obj 311 551 / 100;
#X obj 299 431 / 10;
#X obj 299 459 *;
#X obj 311 569 * 128;
#X obj 311 587 min 128;
#X obj 311 605 max 1;
#X obj 299 371 spigot 0;
#X obj 863 490 r r-chout-gain-1-\$1;
#X obj 812 797 r r-chout-gain-2-\$1;
#X obj 831 1066 r r-chout-gain-3-\$1;
#X obj 54 235 inlet~ VU-1;
#X obj 198 235 inlet~ VU-2;
#X obj 298 235 inlet~ VU-3;
#X obj 161 144 s reset-sel-page;
#X msg 967 404 /oled/gFillArea 3 0 8 132 54 0;
#X obj 54 282 env~ 4410 2205;
#X obj 198 282 env~ 4410 2205;
#X obj 298 282 env~ 4410 2205;
#X msg 848 526 /oled/gPrintln 3 3 15 8 1 A = \$1%;
#X msg 926 606 /oled/gPrintln 3 104 15 8 1 +\$1dB;
#X msg 887 624 /oled/gPrintln 3 104 15 8 1 \$1dB;
#X msg 842 642 /oled/gPrintln 3 98 15 8 1 \$1dB;
#X msg 791 660 /oled/gPrintln 3 92 15 8 1 \$1dB;
#X msg 797 833 /oled/gPrintln 3 3 33 8 1 B = \$1%;
#X msg 875 913 /oled/gPrintln 3 104 33 8 1 +\$1dB;
#X msg 836 931 /oled/gPrintln 3 104 33 8 1 \$1dB;
#X msg 791 949 /oled/gPrintln 3 98 33 8 1 \$1dB;
#X msg 740 968 /oled/gPrintln 3 92 33 8 1 \$1dB;
#X msg 816 1102 /oled/gPrintln 3 3 51 8 1 C = \$1%;
#X msg 894 1182 /oled/gPrintln 3 104 51 8 1 +\$1dB;
#X msg 855 1200 /oled/gPrintln 3 104 51 8 1 \$1dB;
#X msg 810 1218 /oled/gPrintln 3 98 51 8 1 \$1dB;
#X msg 759 1236 /oled/gPrintln 3 92 51 8 1 \$1dB;
#X obj 358 401 t b f;
#X msg 530 1471 /oled/gInvertArea 3 0 47 \$1 15;
#X msg 581 1393 /oled/gInvertArea 3 0 29 \$1 15;
#X msg 631 1305 /oled/gInvertArea 3 0 11 \$1 15;
#X obj 493 383 t b b b b b b b b, f 65;
#X msg 874 449 /oled/gClear 3 1;
#X connect 1 0 7 0;
#X connect 1 1 8 0;
#X connect 2 0 1 0;
#X connect 2 1 9 0;
#X connect 3 0 2 0;
#X connect 4 0 46 0;
#X connect 5 0 4 1;
#X connect 6 0 4 1;
#X connect 7 0 4 0;
#X connect 8 0 4 0;
#X connect 9 0 5 0;
#X connect 9 1 6 0;
#X connect 10 0 12 1;
#X connect 11 0 39 0;
#X connect 12 0 103 0;
#X connect 13 0 15 0;
#X connect 14 0 13 0;
#X connect 14 1 15 1;
#X connect 15 0 29 0;
#X connect 16 0 101 0;
#X connect 17 0 18 1;
#X connect 18 0 102 0;
#X connect 19 0 21 0;
#X connect 20 0 19 0;
#X connect 20 1 21 1;
#X connect 21 0 22 0;
#X connect 22 0 27 0;
#X connect 23 0 14 0;
#X connect 24 0 23 0;
#X connect 24 0 23 1;
#X connect 25 0 26 0;
#X connect 25 0 26 1;
#X connect 26 0 20 0;
#X connect 27 0 28 0;
#X connect 28 0 33 0;
#X connect 29 0 30 0;
#X connect 30 0 31 0;
#X connect 31 0 32 0;
#X connect 32 0 10 0;
#X connect 33 0 17 0;
#X connect 34 0 48 0;
#X connect 35 0 34 1;
#X connect 36 0 40 0;
#X connect 37 0 24 0;
#X connect 37 0 35 0;
#X connect 38 0 25 0;
#X connect 38 0 52 0;
#X connect 40 0 39 0;
#X connect 41 0 42 0;
#X connect 41 1 44 0;
#X connect 41 1 45 0;
#X connect 42 0 43 0;
#X connect 43 0 37 1;
#X connect 43 0 38 1;
#X connect 43 0 73 1;
#X connect 44 0 38 1;
#X connect 44 0 37 1;
#X connect 44 0 73 1;
#X connect 45 0 42 0;
#X connect 46 0 41 0;
#X connect 46 0 36 0;
#X connect 46 0 0 0;
#X connect 46 0 80 0;
#X connect 47 0 85 0;
#X connect 48 0 89 0;
#X connect 48 1 49 0;
#X connect 49 0 88 0;
#X connect 49 1 50 0;
#X connect 50 0 87 0;
#X connect 50 1 86 0;
#X connect 51 0 54 0;
#X connect 52 0 51 1;
#X connect 53 0 90 0;
#X connect 54 0 94 0;
#X connect 54 1 55 0;
#X connect 55 0 93 0;
#X connect 55 1 56 0;
#X connect 56 0 92 0;
#X connect 56 1 91 0;
#X connect 57 0 60 0;
#X connect 58 0 57 1;
#X connect 59 0 95 0;
#X connect 60 0 99 0;
#X connect 60 1 61 0;
#X connect 61 0 98 0;
#X connect 61 1 62 0;
#X connect 62 0 97 0;
#X connect 62 1 96 0;
#X connect 63 0 16 1;
#X connect 64 0 66 0;
#X connect 65 0 64 0;
#X connect 65 1 66 1;
#X connect 66 0 67 0;
#X connect 67 0 70 0;
#X connect 68 0 69 0;
#X connect 68 0 69 1;
#X connect 69 0 65 0;
#X connect 70 0 71 0;
#X connect 71 0 72 0;
#X connect 72 0 63 0;
#X connect 73 0 68 0;
#X connect 73 0 100 0;
#X connect 74 0 47 1;
#X connect 75 0 53 1;
#X connect 76 0 59 1;
#X connect 77 0 82 0;
#X connect 78 0 83 0;
#X connect 79 0 84 0;
#X connect 82 0 37 0;
#X connect 83 0 38 0;
#X connect 84 0 73 0;
#X connect 85 0 39 0;
#X connect 86 0 39 0;
#X connect 87 0 39 0;
#X connect 88 0 39 0;
#X connect 89 0 39 0;
#X connect 90 0 39 0;
#X connect 91 0 39 0;
#X connect 92 0 39 0;
#X connect 93 0 39 0;
#X connect 94 0 39 0;
#X connect 95 0 39 0;
#X connect 96 0 39 0;
#X connect 97 0 39 0;
#X connect 98 0 39 0;
#X connect 99 0 39 0;
#X connect 100 0 104 0;
#X connect 100 1 58 0;
#X connect 101 0 39 0;
#X connect 102 0 39 0;
#X connect 103 0 39 0;
#X connect 104 0 11 0;
#X connect 104 1 16 0;
#X connect 104 2 18 0;
#X connect 104 3 12 0;
#X connect 104 4 57 0;
#X connect 104 4 59 0;
#X connect 104 5 51 0;
#X connect 104 5 53 0;
#X connect 104 6 34 0;
#X connect 104 6 47 0;
#X connect 104 7 105 0;
#X connect 105 0 39 0;
#X restore 549 370 pd mixer;
#X text 841 506 FX SENDS;
#X text 535 10 HYBRID 4 CHANNEL;
#X text 566 389 VU;
#X text 522 604 MASTER EFFECTS;
#X obj 10 66 + 1;
#X obj 191 47 sel 1;
#X obj 191 26 r reset-sel-page;
#X obj 264 291 multicapture \$1 Chain-A;
#X obj 265 322 multicapture \$1 Chain-B;
#X obj 264 353 multicapture \$1 Chain-C;
#X obj 902 494 +~;
#X obj 809 494 +~;
#X obj 515 620 capture \$1 Master;
#X obj 790 526 multicapture \$1 FX-Sends;
#X obj 11 529 midi-greater;
#N canvas 250 553 450 300 a-mute 0;
#X obj 65 28 r a-mute;
#X obj 65 49 f;
#X floatatom 65 70 5 0 0 0 - - -;
#X obj 65 90 sig~;
#X obj 65 197 *~;
#X obj 117 197 *~;
#X obj 169 197 *~;
#X obj 223 197 *~;
#X obj 281 197 *~;
#X obj 335 197 *~;
#X obj 135 29 inlet~;
#X obj 178 29 inlet~;
#X obj 224 29 inlet~;
#X obj 267 29 inlet~;
#X obj 311 29 inlet~;
#X obj 354 29 inlet~;
#X obj 64 270 outlet~;
#X obj 118 270 outlet~;
#X obj 170 270 outlet~;
#X obj 224 270 outlet~;
#X obj 282 270 outlet~;
#X obj 336 270 outlet~;
#X connect 0 0 1 0;
#X connect 1 0 2 0;
#X connect 2 0 3 0;
#X connect 3 0 4 1;
#X connect 3 0 5 1;
#X connect 3 0 6 1;
#X connect 3 0 7 1;
#X connect 3 0 8 1;
#X connect 3 0 9 1;
#X connect 4 0 16 0;
#X connect 5 0 17 0;
#X connect 6 0 18 0;
#X connect 7 0 19 0;
#X connect 8 0 20 0;
#X connect 9 0 21 0;
#X connect 10 0 4 0;
#X connect 11 0 5 0;
#X connect 12 0 6 0;
#X connect 13 0 7 0;
#X connect 14 0 8 0;
#X connect 15 0 9 0;
#X restore 369 206 pd a-mute;
#X f 15;
#N canvas 250 553 450 300 b-mute 0;
#X obj 65 49 f;
#X floatatom 65 70 5 0 0 0 - - -;
#X obj 65 90 sig~;
#X obj 65 197 *~;
#X obj 117 197 *~;
#X obj 169 197 *~;
#X obj 223 197 *~;
#X obj 281 197 *~;
#X obj 335 197 *~;
#X obj 135 29 inlet~;
#X obj 178 29 inlet~;
#X obj 224 29 inlet~;
#X obj 267 29 inlet~;
#X obj 311 29 inlet~;
#X obj 354 29 inlet~;
#X obj 64 270 outlet~;
#X obj 118 270 outlet~;
#X obj 170 270 outlet~;
#X obj 224 270 outlet~;
#X obj 282 270 outlet~;
#X obj 336 270 outlet~;
#X obj 66 28 r b-mute;
#X connect 0 0 1 0;
#X connect 1 0 2 0;
#X connect 2 0 3 1;
#X connect 2 0 4 1;
#X connect 2 0 5 1;
#X connect 2 0 6 1;
#X connect 2 0 7 1;
#X connect 2 0 8 1;
#X connect 3 0 15 0;
#X connect 4 0 16 0;
#X connect 5 0 17 0;
#X connect 6 0 18 0;
#X connect 7 0 19 0;
#X connect 8 0 20 0;
#X connect 9 0 3 0;
#X connect 10 0 4 0;
#X connect 11 0 5 0;
#X connect 12 0 6 0;
#X connect 13 0 7 0;
#X connect 14 0 8 0;
#X connect 21 0 0 0;
#X restore 530 235 pd b-mute;
#X f 15;
#N canvas 250 553 450 300 c-mute 0;
#X obj 65 49 f;
#X floatatom 65 70 5 0 0 0 - - -;
#X obj 65 90 sig~;
#X obj 65 197 *~;
#X obj 117 197 *~;
#X obj 169 197 *~;
#X obj 223 197 *~;
#X obj 281 197 *~;
#X obj 335 197 *~;
#X obj 135 29 inlet~;
#X obj 178 29 inlet~;
#X obj 224 29 inlet~;
#X obj 267 29 inlet~;
#X obj 311 29 inlet~;
#X obj 354 29 inlet~;
#X obj 64 270 outlet~;
#X obj 118 270 outlet~;
#X obj 170 270 outlet~;
#X obj 224 270 outlet~;
#X obj 282 270 outlet~;
#X obj 336 270 outlet~;
#X obj 65 28 r c-mute;
#X connect 0 0 1 0;
#X connect 1 0 2 0;
#X connect 2 0 3 1;
#X connect 2 0 4 1;
#X connect 2 0 5 1;
#X connect 2 0 6 1;
#X connect 2 0 7 1;
#X connect 2 0 8 1;
#X connect 3 0 15 0;
#X connect 4 0 16 0;
#X connect 5 0 17 0;
#X connect 6 0 18 0;
#X connect 7 0 19 0;
#X connect 8 0 20 0;
#X connect 9 0 3 0;
#X connect 10 0 4 0;
#X connect 11 0 5 0;
#X connect 12 0 6 0;
#X connect 13 0 7 0;
#X connect 14 0 8 0;
#X connect 21 0 0 0;
#X restore 648 210 pd c-mute;
#X f 15;
#N canvas 526 186 282 295 mutes 0;
#X obj 40 49 + 1;
#X obj 40 70 f;
#X floatatom 40 91 5 0 0 0 - - -;
#X obj 40 109 sel 1 3 5 6 8;
#X obj 40 135 bng 15 250 50 0 empty empty empty 17 7 0 10 -262144 -1
-1;
#X obj 60 135 bng 15 250 50 0 empty empty empty 17 7 0 10 -262144 -1
-1;
#X obj 79 135 bng 15 250 50 0 empty empty empty 17 7 0 10 -262144 -1
-1;
#X obj 99 135 bng 15 250 50 0 empty empty empty 17 7 0 10 -262144 -1
-1;
#X obj 40 158 tgl 15 0 empty empty empty 17 7 0 10 -262144 -1 -1 1
1;
#X obj 60 158 tgl 15 0 empty empty empty 17 7 0 10 -262144 -1 -1 1
1;
#X obj 79 158 tgl 15 0 empty empty empty 17 7 0 10 -262144 -1 -1 1
1;
#X obj 99 158 tgl 15 0 empty empty empty 17 7 0 10 -262144 -1 -1 1
1;
#X obj 40 181 !=;
#X obj 65 181 !=;
#X obj 90 181 !=;
#X obj 115 181 !=;
#X obj 40 24 inlet;
#X obj 40 202 s a-mute;
#X obj 64 226 s b-mute;
#X obj 96 203 s c-mute;
#X obj 120 226 s d-mute;
#X obj 132 28 r loadbang-\$1;
#X msg 132 49 1;
#X obj 132 110 tgl 15 0 empty empty empty 17 7 0 10 -262144 -1 -1 1
1;
#X connect 0 0 1 0;
#X connect 1 0 2 0;
#X connect 2 0 3 0;
#X connect 3 0 4 0;
#X connect 3 1 5 0;
#X connect 3 2 6 0;
#X connect 3 3 7 0;
#X connect 3 4 23 0;
#X connect 4 0 8 0;
#X connect 5 0 9 0;
#X connect 6 0 10 0;
#X connect 7 0 11 0;
#X connect 8 0 12 0;
#X connect 9 0 13 0;
#X connect 10 0 14 0;
#X connect 11 0 15 0;
#X connect 12 0 17 0;
#X connect 13 0 18 0;
#X connect 14 0 19 0;
#X connect 15 0 20 0;
#X connect 16 0 0 0;
#X connect 21 0 22 0;
#X connect 22 0 23 0;
#X connect 23 0 11 0;
#X connect 23 0 10 0;
#X connect 23 0 9 0;
#X connect 23 0 8 0;
#X restore 205 74 pd mutes;
#X obj 33 413 list store a1 a2 a3 b1 b2 b3 b4 c1 c2 c3;
#X connect 0 0 2 0;
#X connect 0 1 2 1;
#X connect 0 2 2 2;
#X connect 0 3 2 3;
#X connect 1 0 79 0;
#X connect 1 1 79 1;
#X connect 1 2 79 2;
#X connect 1 3 79 3;
#X connect 1 4 79 4;
#X connect 1 5 79 5;
#X connect 2 0 3 0;
#X connect 2 1 3 1;
#X connect 2 2 1 2;
#X connect 2 3 1 3;
#X connect 2 4 1 4;
#X connect 2 5 1 5;
#X connect 2 6 3 2;
#X connect 2 7 3 3;
#X connect 3 0 4 0;
#X connect 3 1 4 1;
#X connect 3 2 1 2;
#X connect 3 3 1 3;
#X connect 3 4 1 4;
#X connect 3 5 1 5;
#X connect 3 6 4 2;
#X connect 3 7 4 3;
#X connect 4 0 1 0;
#X connect 4 1 1 1;
#X connect 4 2 1 2;
#X connect 4 3 1 3;
#X connect 4 4 1 4;
#X connect 4 5 1 5;
#X connect 4 6 1 6;
#X connect 4 7 1 7;
#X connect 10 0 11 0;
#X connect 10 1 11 1;
#X connect 10 2 26 2;
#X connect 10 3 26 3;
#X connect 10 4 26 4;
#X connect 10 5 26 5;
#X connect 10 6 11 2;
#X connect 10 7 11 3;
#X connect 11 0 12 0;
#X connect 11 1 12 1;
#X connect 11 2 26 2;
#X connect 11 3 26 3;
#X connect 11 4 26 4;
#X connect 11 5 26 5;
#X connect 11 6 12 2;
#X connect 11 7 12 3;
#X connect 12 0 13 0;
#X connect 12 1 13 1;
#X connect 12 2 26 2;
#X connect 12 3 26 3;
#X connect 12 4 26 4;
#X connect 12 5 26 5;
#X connect 12 6 13 2;
#X connect 12 7 13 3;
#X connect 13 0 26 0;
#X connect 13 1 26 1;
#X connect 13 2 26 2;
#X connect 13 3 26 3;
#X connect 13 4 26 4;
#X connect 13 5 26 5;
#X connect 13 6 26 6;
#X connect 13 7 26 7;
#X connect 14 0 15 0;
#X connect 14 1 15 1;
#X connect 14 2 25 2;
#X connect 14 3 25 3;
#X connect 14 4 25 4;
#X connect 14 5 25 5;
#X connect 14 6 15 2;
#X connect 14 7 15 3;
#X connect 15 0 16 0;
#X connect 15 1 16 1;
#X connect 15 2 25 2;
#X connect 15 3 25 3;
#X connect 15 4 25 4;
#X connect 15 5 25 5;
#X connect 15 6 16 2;
#X connect 15 7 16 3;
#X connect 16 0 25 0;
#X connect 16 1 25 1;
#X connect 16 2 25 2;
#X connect 16 3 25 3;
#X connect 16 4 25 4;
#X connect 16 5 25 5;
#X connect 16 6 25 6;
#X connect 16 7 25 7;
#X connect 17 0 10 0;
#X connect 17 1 10 1;
#X connect 17 2 10 2;
#X connect 17 3 10 3;
#X connect 18 0 14 0;
#X connect 18 1 14 1;
#X connect 18 2 14 2;
#X connect 18 3 14 3;
#X connect 19 0 57 1;
#X connect 19 0 75 0;
#X connect 19 1 56 1;
#X connect 19 1 74 0;
#X connect 19 2 24 0;
#X connect 19 3 24 1;
#X connect 20 0 22 0;
#X connect 21 0 23 0;
#X connect 22 0 57 0;
#X connect 23 0 56 0;
#X connect 24 0 59 1;
#X connect 24 0 75 1;
#X connect 24 1 58 1;
#X connect 24 1 74 1;
#X connect 25 0 81 0;
#X connect 25 1 81 1;
#X connect 25 2 81 2;
#X connect 25 3 81 3;
#X connect 25 4 81 4;
#X connect 25 5 81 5;
#X connect 26 0 80 0;
#X connect 26 1 80 1;
#X connect 26 2 80 2;
#X connect 26 3 80 3;
#X connect 26 4 80 4;
#X connect 26 5 80 5;
#X connect 27 0 29 0;
#X connect 28 0 29 1;
#X connect 28 0 55 0;
#X connect 29 0 68 0;
#X connect 29 1 82 0;
#X connect 30 0 31 0;
#X connect 35 0 36 0;
#X connect 36 0 40 0;
#X connect 37 0 44 0;
#X connect 37 1 43 0;
#X connect 38 0 83 0;
#X connect 39 0 38 0;
#X connect 40 0 42 0;
#X connect 40 1 42 1;
#X connect 40 2 34 0;
#X connect 41 0 42 0;
#X connect 42 0 37 0;
#X connect 43 0 39 0;
#X connect 44 0 33 0;
#X connect 45 0 0 0;
#X connect 45 0 18 0;
#X connect 45 0 17 0;
#X connect 46 0 17 1;
#X connect 46 0 18 1;
#X connect 46 0 0 1;
#X connect 49 0 50 0;
#X connect 51 0 53 0;
#X connect 52 0 54 0;
#X connect 53 0 52 0;
#X connect 53 1 52 1;
#X connect 54 0 30 0;
#X connect 55 0 51 0;
#X connect 56 0 58 0;
#X connect 57 0 59 0;
#X connect 58 0 60 1;
#X connect 59 0 60 0;
#X connect 60 0 61 0;
#X connect 60 1 61 1;
#X connect 61 0 62 0;
#X connect 61 1 62 1;
#X connect 62 0 47 0;
#X connect 62 0 76 0;
#X connect 62 1 48 0;
#X connect 62 1 76 1;
#X connect 68 0 52 0;
#X connect 69 0 51 0;
#X connect 70 0 69 0;
#X connect 74 0 77 1;
#X connect 75 0 77 0;
#X connect 79 0 71 0;
#X connect 79 0 20 0;
#X connect 79 0 63 0;
#X connect 79 1 71 1;
#X connect 79 1 63 0;
#X connect 79 1 21 1;
#X connect 79 2 19 0;
#X connect 79 3 19 1;
#X connect 79 4 24 0;
#X connect 79 5 24 1;
#X connect 80 0 72 0;
#X connect 80 0 20 1;
#X connect 80 0 63 1;
#X connect 80 1 72 1;
#X connect 80 1 63 1;
#X connect 80 1 21 0;
#X connect 80 2 19 0;
#X connect 80 3 19 1;
#X connect 80 4 24 0;
#X connect 80 5 24 1;
#X connect 81 0 73 0;
#X connect 81 0 22 1;
#X connect 81 0 63 2;
#X connect 81 1 73 1;
#X connect 81 1 63 2;
#X connect 81 1 23 1;
#X connect 81 2 19 0;
#X connect 81 3 19 1;
#X connect 81 4 24 0;
#X connect 81 5 24 1;
#X connect 83 0 33 0;
