#N canvas 172 77 1322 838 10;
#X obj 909 225 tgl 50 0 empty empty empty 17 7 0 100 -262144 -1 -1
0 1;
#X obj 909 79 tgl 50 0 empty empty empty 17 7 0 100 -262144 -1 -1 0
1;
#X msg 909 197 1;
#X obj 909 131 sel 1 0;
#X msg 937 197 0;
#X obj 909 159 t b b;
#X msg 146 732 start;
#X msg 860 643 stop;
#X obj 936 305 t b b, f 12;
#X obj 1005 595 *~;
#X obj 898 689 *~, f 9;
#X obj 119 390 t b b;
#X obj 119 598 delay 5;
#X obj 119 616 t b b;
#X obj 955 743 *~, f 9;
#X obj 898 761 writesf~ 2;
#X obj 191 674 i 1, f 7;
#X obj 1005 559 lop~ 1;
#X obj 936 573 delay 1000;
#X obj 909 287 sel 1;
#X obj 898 653 inlet~;
#X obj 955 707 inlet~;
#X text 310 486 .wav (current capture);
#X text 1045 559 second fade-in + fade-out + stop-delay;
#X text 962 761 channels (stereo);
#X msg 119 634 1;
#X msg 1005 531 0;
#X obj 945 159 t b b;
#X obj 263 525 r loadbang-\$1;
#X obj 1043 523 r arm-record;
#X obj 1043 541 * 10000;
#X obj 1038 487 delay 1000;
#X msg 1038 505 1;
#X obj 891 53 r record-capture;
#X obj 263 549 symbol \$2;
#X obj 230 487 r captureNUM;
#X text 598 713 24 bit;
#X obj 284 637 r bpm;
#X floatatom 284 658 5 0 0 0 - - -;
#X obj 191 693 pack f s f;
#X obj 269 679 f;
#X obj 146 654 t b b b, f 16;
#X msg 191 712 open -bytes 3 /tmp/media/orhack/recordings/\$1-\$2_\$3.wav
, f 63;
#X connect 0 0 19 0;
#X connect 1 0 3 0;
#X connect 2 0 0 0;
#X connect 3 0 5 0;
#X connect 3 1 27 0;
#X connect 4 0 0 0;
#X connect 5 0 2 0;
#X connect 6 0 15 0;
#X connect 7 0 15 0;
#X connect 8 0 18 0;
#X connect 8 1 26 0;
#X connect 9 0 10 1;
#X connect 9 0 14 1;
#X connect 10 0 15 0;
#X connect 11 0 12 0;
#X connect 11 1 26 0;
#X connect 12 0 13 0;
#X connect 13 0 25 0;
#X connect 13 1 41 0;
#X connect 14 0 15 1;
#X connect 16 0 39 0;
#X connect 17 0 9 0;
#X connect 17 0 9 1;
#X connect 18 0 7 0;
#X connect 19 0 11 0;
#X connect 19 0 31 0;
#X connect 19 1 8 0;
#X connect 20 0 10 0;
#X connect 21 0 14 0;
#X connect 25 0 17 0;
#X connect 26 0 17 0;
#X connect 27 1 4 0;
#X connect 28 0 34 0;
#X connect 29 0 30 0;
#X connect 30 0 17 1;
#X connect 31 0 32 0;
#X connect 32 0 17 1;
#X connect 33 0 1 0;
#X connect 34 0 39 1;
#X connect 35 0 16 1;
#X connect 37 0 38 0;
#X connect 38 0 40 1;
#X connect 39 0 42 0;
#X connect 40 0 39 2;
#X connect 41 0 6 0;
#X connect 41 1 16 0;
#X connect 41 2 40 0;
#X connect 42 0 15 0;
