#N canvas 4 50 1912 998 10;
#X text 23 17 ARG 1: Page Number/Loop Number;
#X obj 623 1160 hip~ 5;
#X obj 622 1253 outlet~;
#X obj 736 1098 pow 2;
#X obj 293 382 t b;
#X obj 293 403 f 0;
#X obj 26 851 f \$1;
#X obj 126 849 f \$1;
#X obj 956 1217 outlet;
#X msg 28 986 1;
#X msg 121 988 0;
#X obj 623 1136 lop~ 22500;
#X obj 1057 937 hsl 128 15 -1 1 0 0 empty empty empty -2 -8 0 10 -262144
-1 -1 0 1;
#X obj 1004 1056 nbx 5 14 -1e+37 1e+37 0 0 empty empty empty 0 -8 0
10 -262144 -1 -1 0 256;
#X obj 1073 1059 nbx 5 14 -1e+37 1e+37 0 0 empty empty empty 0 -8 0
10 -262144 -1 -1 0 256;
#X obj 1012 1010 - 1;
#X obj 1011 1031 abs;
#X obj 1075 1036 + 1;
#X obj 900 1142 lop~ 20;
#X obj 994 1144 lop~ 20;
#X obj 991 1115 / 2;
#X obj 1074 1133 / 2;
#X obj 702 1253 outlet~;
#X obj 830 1083 / 100;
#X obj 622 1218 *~;
#X obj 702 1218 *~;
#X obj 825 1107 pow 5;
#X obj 825 1129 * 30000;
#X floatatom 1004 82 5 0 0 0 - - -;
#X obj 1004 138 / 100;
#X obj 1004 176 t f f;
#X obj 1028 198 i;
#X obj 1005 218 -;
#X obj 1005 240 / 0.25;
#X obj 1005 262 i;
#X obj 1005 284 * 0.25;
#X obj 1005 306 +;
#X floatatom 1006 387 5 0 0 0 - - -;
#X obj 1004 157 + 0.125;
#X obj 1122 142 clip -1 1;
#X obj 1005 328 *;
#X obj 1004 100 t f f;
#X obj 1004 119 abs;
#X obj 1212 150 hsl 128 15 1 100 0 0 empty empty empty -2 -8 0 10 -262144
-1 -1 0 1;
#X floatatom 1265 235 5 0 0 0 - - -;
#X obj 1265 263 / 100;
#X obj 1265 292 / 2;
#X obj 1265 206 i;
#X floatatom 892 116 5 0 0 0 - - -;
#X obj 899 199 mtof;
#X obj 943 197 mtof;
#X msg 943 175 0;
#X obj 923 231 /;
#X floatatom 947 256 5 0 0 0 - - -;
#X obj 892 137 t f b;
#X obj 997 458 * 1;
#X obj 947 351 t b f;
#X obj 293 424 t b b f;
#X obj 136 645 soundfile_info;
#X obj 136 665 unpack f s f f f f s f;
#X obj 169 691 s \$0-samplesize;
#X floatatom 689 648 10 0 0 0 - - -;
#X msg 43 665 1;
#X msg 75 665 0;
#X obj 660 567 r \$0-slen;
#X obj 681 920 r \$0-offset;
#X obj -15 647 delay 100;
#X obj 24 690 readsf~;
#X obj 1128 457 r \$0-samplesize;
#X msg 1128 484 resize \$1;
#X msg 78 731 stop;
#X obj 25 766 tabwrite~ \$0-sample;
#N canvas 0 50 450 250 (subpatch) 0;
#X array \$0-sample 1 float 3;
#A 0 0;
#X coords 0 1 1 -1 200 140 1 0 0;
#X restore 1045 570 graph;
#X obj 1127 517 s \$0-sample;
#X obj 623 1021 tabread4~ \$0-sample;
#X obj 23 619 t a b b;
#X obj 624 844 phasor~;
#X floatatom 336 556 10 0 0 0 - - -;
#X obj 625 714 expr 1 / $f1;
#X obj 625 740 f 1;
#X obj 914 623 bng 15 250 50 0 empty empty empty 17 7 0 10 -262144
-1 -1;
#X floatatom 681 946 10 0 0 0 - - -;
#X obj 662 624 max 100;
#X obj 694 677 / 44100;
#X obj 970 796 * 1000;
#X obj 623 903 *~ 1;
#X obj 625 762 * 1;
#X obj 712 783 t b f;
#X obj 623 991 +~;
#X obj 684 844 r \$0-dir;
#X obj 690 869 == -1;
#X obj 623 932 +~ 0;
#X obj 623 961 *~;
#X obj 585 687 del 3;
#X msg 585 706 0;
#X obj 623 1071 *~ 0.75;
#X obj 160 471 t b b, f 17;
#N canvas 1104 220 578 824 env 0;
#X obj 72 127 inlet;
#X obj 180 85 inlet;
#X obj 295 107 inlet;
#X obj 438 108 inlet;
#X obj 72 189 bng 15 250 50 0 empty empty empty 17 7 0 10 -262144 -1
-1;
#X obj 180 144 bng 15 250 50 0 empty empty empty 17 7 0 10 -262144
-1 -1;
#X obj 438 173 * 1;
#X obj 180 175 v \$0-env;
#X msg 180 196 0 \$1;
#X obj 180 217 spigot 1;
#X obj 187 484 vline~;
#X obj 72 251 f 1000;
#X obj 72 272 / 1;
#X obj 72 293 - 25;
#X obj 104 389 spigot 1;
#X obj 226 384 t b f, f 18;
#X obj 226 405 v \$0-env;
#X obj 226 426 list;
#X msg 226 447 0 2 \, 1 \$1 2 \, 0 \$1 \$2;
#X obj 149 336 != 1;
#X obj 226 336 spigot 0;
#X obj 271 302 r \$0-loop;
#X obj 251 237 abs;
#X floatatom 295 268 5 0 0 0 - - -;
#X obj 392 221 r \$0-env;
#X obj 185 575 outlet~;
#X obj 247 179 r \$0-gate;
#X floatatom 134 197 5 0 0 0 - - -;
#X floatatom 254 205 5 0 0 0 - - -;
#X obj 274 532 snapshot~;
#X floatatom 274 553 5 0 0 0 - - -;
#X floatatom 421 246 5 0 0 0 - - -;
#X text 25 159 start;
#X text 144 127 stop;
#X floatatom 310 338 5 0 0 0 - - -;
#X msg 226 273 1e+20;
#X obj 310 501 metro 50;
#X obj 310 467 tgl 15 0 empty empty empty 17 7 0 10 -262144 -1 -1 0
1;
#X floatatom 484 214 5 0 0 0 - - -;
#X connect 0 0 4 0;
#X connect 1 0 5 0;
#X connect 2 0 11 1;
#X connect 3 0 6 0;
#X connect 4 0 35 0;
#X connect 4 0 11 0;
#X connect 5 0 7 0;
#X connect 6 0 22 0;
#X connect 6 0 38 0;
#X connect 7 0 8 0;
#X connect 7 0 27 0;
#X connect 8 0 9 0;
#X connect 9 0 10 0;
#X connect 10 0 25 0;
#X connect 10 0 29 0;
#X connect 11 0 12 0;
#X connect 12 0 13 0;
#X connect 13 0 14 0;
#X connect 14 0 15 0;
#X connect 15 0 16 0;
#X connect 15 1 17 1;
#X connect 16 0 17 0;
#X connect 17 0 18 0;
#X connect 18 0 10 0;
#X connect 19 0 14 1;
#X connect 20 0 15 0;
#X connect 21 0 20 1;
#X connect 21 0 19 0;
#X connect 21 0 34 0;
#X connect 22 0 12 1;
#X connect 22 0 23 0;
#X connect 24 0 31 0;
#X connect 24 0 13 1;
#X connect 26 0 9 1;
#X connect 26 0 28 0;
#X connect 29 0 30 0;
#X connect 35 0 20 0;
#X connect 36 0 29 0;
#X connect 37 0 36 0;
#X restore 950 964 pd env;
#X obj 750 86 / 100;
#X obj 750 107 * 1.4;
#X obj 750 128 t f f;
#X obj 750 149 *;
#X floatatom 750 170 5 0 0 0 - - -;
#X obj 750 190 * 3000;
#X obj 720 230 s \$0-env;
#X obj 807 248 v \$0-env;
#X floatatom 869 225 5 0 0 0 - - -;
#X floatatom 823 98 5 0 0 0 - - -;
#X text 1205 934 pan;
#X floatatom 807 269 5 0 0 0 - - -;
#X obj 623 874 *~ 1;
#X obj 623 1046 *~, f 6;
#X obj 793 226 bng 15 250 50 0 empty empty empty 17 7 0 10 -262144
-1 -1;
#X text 904 72 pitch;
#X text 1074 85 speed;
#N canvas 184 215 782 696 sample_bounds 0;
#X obj 72 196 / 100;
#X obj 203 166 / 100;
#X floatatom 203 187 5 0 0 0 - - -;
#X floatatom 72 221 5 0 0 0 - - -;
#X obj 148 187 t b f;
#X obj 76 253 -;
#X obj 76 274 abs;
#X obj 76 295 f 1;
#X floatatom 76 316 5 0 0 0 - - -;
#X obj 76 336 * 44100;
#X floatatom 59 363 10 0 0 0 - - -;
#X obj 126 266 min 0;
#X obj 292 246 <;
#X obj 292 267 * 2;
#X obj 292 288 - 1;
#X floatatom 292 309 5 0 0 0 - - -;
#X floatatom 190 300 10 0 0 0 - - -;
#X obj 190 320 t b f;
#X obj 155 328 f 0;
#X obj 155 349 * 44100;
#X floatatom 155 370 10 0 0 0 - - -;
#X obj 155 390 s \$0-offset;
#X obj 59 383 s \$0-slen;
#X obj 292 329 s \$0-dir;
#X obj 187 252 r \$0-samplesize;
#X msg 57 75 resize 1;
#X obj 57 96 s \$0-sample;
#X obj 293 56 bng 15 250 50 0 empty empty empty 17 7 0 10 -262144 -1
-1;
#X obj 57 32 loadbang;
#X obj 72 156 r start-\$1;
#X obj 203 126 r end-\$1;
#X floatatom 203 146 5 0 0 0 - - -;
#X floatatom 72 177 5 0 0 0 - - -;
#X obj 463 112 bng 15 250 50 0 empty empty empty 17 7 0 10 -262144
-1 -1;
#X obj 463 87 r reload-\$1;
#X msg 286 181 100;
#X msg 37 143 0;
#X obj 187 273 - 1;
#X connect 0 0 3 0;
#X connect 1 0 2 0;
#X connect 2 0 4 0;
#X connect 3 0 5 0;
#X connect 3 0 11 0;
#X connect 3 0 12 0;
#X connect 4 0 3 0;
#X connect 4 1 5 1;
#X connect 4 1 11 1;
#X connect 4 1 12 1;
#X connect 5 0 6 0;
#X connect 6 0 7 0;
#X connect 7 0 8 0;
#X connect 8 0 9 0;
#X connect 9 0 10 0;
#X connect 10 0 22 0;
#X connect 11 0 18 0;
#X connect 12 0 13 0;
#X connect 13 0 14 0;
#X connect 14 0 15 0;
#X connect 15 0 23 0;
#X connect 16 0 17 0;
#X connect 17 0 18 0;
#X connect 17 1 19 1;
#X connect 17 1 9 1;
#X connect 18 0 19 0;
#X connect 19 0 20 0;
#X connect 20 0 21 0;
#X connect 24 0 37 0;
#X connect 25 0 26 0;
#X connect 27 0 35 0;
#X connect 27 0 36 0;
#X connect 28 0 25 0;
#X connect 28 0 27 0;
#X connect 29 0 32 0;
#X connect 30 0 31 0;
#X connect 31 0 1 0;
#X connect 32 0 0 0;
#X connect 33 0 32 0;
#X connect 33 0 31 0;
#X connect 34 0 33 0;
#X connect 35 0 31 0;
#X connect 36 0 32 0;
#X connect 37 0 16 0;
#X restore 34 1126 pd sample_bounds;
#N canvas 4 50 768 998 loopstyle 0;
#X obj 182 83 - 1;
#X obj 182 168 f;
#X obj 198 111 delay 500;
#X obj 198 141 spigot;
#X obj 290 46 sel 1 0;
#X msg 307 92 1;
#X msg 343 93 0;
#X msg 250 84 stop;
#X obj 304 122 tgl 15 0 empty empty empty 17 7 0 10 -262144 -1 -1 0
1;
#X msg 271 225 Trigger;
#X floatatom 183 199 5 0 0 0 - - -;
#X msg 347 225 Loop;
#X obj 48 538 s \$0-gate;
#X obj 311 587 s \$0-loop;
#X obj 595 475 s \$0-pp;
#X obj 54 295 list;
#X msg 53 316 \$1 mode;
#X msg 401 225 Pingpong;
#X msg 301 557 1;
#X msg 352 557 0;
#X msg 579 445 1;
#X msg 637 445 0;
#X msg 29 511 1;
#X msg 73 511 0;
#X obj 336 190 sel 0 1 2;
#X obj 181 41 r mode-\$1;
#X obj 20 345 stdout;
#X obj 282 12 inlet;
#X floatatom 181 62 5 0 0 0 - - -;
#X connect 0 0 1 0;
#X connect 1 0 10 0;
#X connect 1 0 24 0;
#X connect 2 0 3 0;
#X connect 3 0 1 0;
#X connect 4 0 5 0;
#X connect 4 1 6 0;
#X connect 4 1 7 0;
#X connect 5 0 8 0;
#X connect 6 0 8 0;
#X connect 7 0 2 0;
#X connect 8 0 3 1;
#X connect 9 0 15 0;
#X connect 9 0 23 0;
#X connect 9 0 19 0;
#X connect 9 0 21 0;
#X connect 11 0 15 0;
#X connect 11 0 22 0;
#X connect 11 0 18 0;
#X connect 11 0 21 0;
#X connect 15 0 16 0;
#X connect 16 0 26 0;
#X connect 17 0 22 0;
#X connect 17 0 18 0;
#X connect 17 0 20 0;
#X connect 17 0 15 0;
#X connect 18 0 13 0;
#X connect 19 0 13 0;
#X connect 20 0 14 0;
#X connect 21 0 14 0;
#X connect 22 0 12 0;
#X connect 23 0 12 0;
#X connect 24 0 9 0;
#X connect 24 1 11 0;
#X connect 24 2 17 0;
#X connect 25 0 28 0;
#X connect 27 0 4 0;
#X connect 28 0 0 0;
#X restore 139 1126 pd loopstyle;
#X floatatom 626 793 5 -1e+37 1e+37 2 freq - -;
#X obj 469 746 / 2;
#X obj 469 788 phasor~;
#X obj 469 809 *~ 2;
#X obj 469 830 -~ 1;
#X obj 469 851 abs~;
#X obj 469 893 abs~;
#X obj 469 914 *~ 0;
#X obj 537 800 r \$0-pp;
#X obj 537 821 != 1;
#X text 519 864 ping pong;
#X text 805 165 envelope control;
#X text 760 943 the synth;
#X text 752 1039 volume;
#X text 883 1035 filter;
#X text 133 722 open file and write to table;
#X text 1086 400 resize table to sample length;
#X obj 947 612 bng 15 250 50 0 empty empty empty 17 7 0 10 -262144
-1 -1;
#X text 889 638 on bang;
#X text 931 593 off bang;
#X obj 469 872 -~ 1;
#X floatatom 602 655 5 0 0 0 - - -;
#X obj 469 767 siglop~ 0.5 \$1;
#X obj 679 894 siglop~ 44100 \$1;
#X obj 681 971 siglop~ 0 \$1;
#X obj 625 818 siglop~ 1 \$1;
#X floatatom 697 597 5 0 0 0 - - -;
#X obj 76 96 r samp-\$1;
#X obj 748 42 r attack-\$1;
#X obj 939 45 r speed-\$1;
#X obj 1222 97 r speedinc;
#X obj 1036 436 loadbang;
#X obj 150 386 r global-start;
#X obj 164 408 r loop-\$1-start;
#X obj 263 340 r loop-\$1-stop;
#X obj 306 361 r global-stop;
#X obj 1055 893 r pan-\$1;
#X obj 821 1036 r filt-\$1;
#X obj 736 1054 r vol-\$1;
#X obj 402 416 bng 15 250 50 0 empty empty empty 17 7 0 10 -262144
-1 -1;
#X obj 892 94 r trans-\$1;
#X obj 1200 1026 loadbang;
#X obj 1199 1055 f 1;
#X obj 1128 68 f 100;
#X obj 996 492 spigot;
#X obj 139 1095 r pagemodes;
#X obj 251 63 r samp-src;
#X floatatom 251 84 5 0 0 0 - - -;
#X obj 76 138 ../soundshare/soundshare_select;
#X obj 32 35 loadbang;
#X floatatom 87 117 5 0 0 0 - - -;
#X obj 76 159 t b a;
#X obj 49 180 del 1000;
#X obj 82 200 list;
#X obj 32 244 f \$0;
#X obj 11 277 list;
#X msg 23 599 open \$1;
#X msg 136 624 read \$1;
#X obj 260 158 list;
#X obj 332 80 r active;
#X obj 332 118 sel 1;
#X obj 332 160 delay 500;
#X msg 359 140 stop;
#X obj 332 212 symbol;
#X msg 332 233 \$1;
#X obj 191 298 spigot 1;
#X obj 191 338 stdout;
#X obj 252 299 r active;
#X msg 191 173 bang;
#X obj 191 194 del 900;
#X obj 191 215 symbol;
#X msg 191 236 \$1 ...;
#X msg 262 238 \$1 !;
#X msg 268 109 -1;
#X obj 92 691 s reload-\$1;
#X symbolatom 361 266 30 0 0 0 - - -;
#X obj 361 338 text insert samples;
#X obj 361 286 symbol \$1;
#X obj 515 431 f \$1;
#X floatatom 515 452 5 0 0 0 - - -;
#X obj 515 472 - 1;
#X floatatom 515 493 5 0 0 0 - - -;
#X obj 515 513 text get samples;
#X symbolatom 515 534 30 0 0 0 - - -;
#X obj 415 -16 inlet;
#X obj 415 5 t b b b;
#X obj 361 307 spigot;
#X msg 454 58 1;
#X msg 415 58 0;
#X obj 363 26 bng 15 250 50 0 empty empty empty 17 7 0 10 -262144 -1
-1;
#X obj 462 398 bng 15 250 50 0 empty empty empty 17 7 0 10 -262144
-1 -1;
#X obj 516 385 loadbang;
#X msg 867 557 0;
#X obj 60 1042 t 1 1;
#X obj 1662 387 outlet;
#X symbolatom 517 233 30 0 0 0 - - -;
#X obj 499 153 bng 15 250 50 0 empty empty empty 17 7 0 10 -262144
-1 -1;
#X floatatom 1055 914 5 0 0 0 - - -;
#X floatatom 736 1075 5 0 0 0 - - -;
#X floatatom 821 1057 5 0 0 0 - - -;
#X floatatom 1222 118 5 0 0 0 - - -;
#X floatatom 748 63 5 0 0 0 - - -;
#X obj 485 287 symbol \$1;
#X obj 485 308 spigot;
#X obj 485 339 text insert shortsamp;
#X obj 595 65 f \$1;
#X floatatom 595 86 5 0 0 0 - - -;
#X obj 595 106 - 1;
#X floatatom 595 127 5 0 0 0 - - -;
#X obj 649 48 bng 15 250 50 0 empty empty empty 17 7 0 10 -262144 -1
-1;
#X obj 596 19 loadbang;
#X obj 596 40 del 20;
#X obj 595 147 text get shortsamp;
#X symbolatom 547 200 30 0 0 0 - - -;
#X obj 838 491 bng 15 250 50 0 empty empty empty 17 7 0 10 -262144
-1 -1;
#X obj 802 421 bng 15 250 50 0 empty empty empty 17 7 0 10 -262144
-1 -1;
#X obj 1114 779 bng 15 250 50 0 empty empty empty 17 7 0 10 -262144
-1 -1;
#X obj 1114 799 f \$0;
#X msg 1114 820 \; \$1-sample normalize;
#X obj 1114 754 r stopped-\$1;
#X obj 151 765 s stopped-\$1;
#X obj 499 130 del 30;
#X obj 499 109 r filesActive;
#X floatatom 1330 773 15 0 0 0 - - -;
#X obj 1302 718 r \$0-gate;
#X obj 1303 763 tgl 15 0 empty empty empty 17 7 0 10 -262144 -1 -1
0 1;
#X obj 1302 739 ==;
#X obj 1270 835 spigot;
#X obj 1290 912 s \$0-timerstop;
#X obj 178 907 r \$0-timerstop;
#X obj 1223 899 bng 15 250 50 0 empty empty empty 17 7 0 10 -262144
-1 -1;
#X obj 1290 891 delay;
#X obj 1330 793 / 44100;
#X obj 1330 814 * 1000;
#X floatatom 1327 861 15 0 0 0 - - -;
#X obj 1270 856 t b b;
#X obj 1330 753 r \$0-slen;
#X obj 495 25 s opensave-\$1;
#X obj 495 49 s save-\$1;
#X obj 451 88 s closesave-\$1;
#X obj 623 1092 *~;
#X obj 858 708 f 1;
#X obj 890 711 f 0;
#X floatatom 1135 353 5 0 0 0 - - -;
#X obj 1134 370 s time-factor-\$1;
#X obj 1393 697 r time-factor-\$1;
#X obj 1393 718 t b f;
#X obj 1330 835 /;
#N canvas 4 50 450 300 mode-load 0;
#X obj 109 82 f \$1;
#X floatatom 109 103 5 0 0 0 - - -;
#X obj 109 123 - 1;
#X floatatom 109 144 5 0 0 0 - - -;
#X obj 110 36 loadbang;
#X obj 110 57 del 20;
#X obj 110 165 text get mode;
#X floatatom 110 186 5 0 0 0 - - -;
#X obj 113 225 spigot;
#X obj 112 245 text insert mode;
#X obj 200 203 r save-\$1;
#X obj 197 180 r opensave-\$1;
#X obj 199 222 r closesave-\$1;
#X obj 42 157 r mode-\$1;
#X floatatom 8 178 5 0 0 0 - - -;
#X obj 6 199 s mode-init-\$1;
#X connect 0 0 1 0;
#X connect 1 0 2 0;
#X connect 2 0 3 0;
#X connect 3 0 6 0;
#X connect 4 0 5 0;
#X connect 5 0 0 0;
#X connect 6 0 7 0;
#X connect 6 0 14 0;
#X connect 7 0 8 0;
#X connect 8 0 9 0;
#X connect 10 0 7 0;
#X connect 11 0 8 1;
#X connect 12 0 8 1;
#X connect 13 0 7 0;
#X connect 14 0 15 0;
#X restore 1442 257 pd mode-load;
#N canvas 4 50 450 300 speed-load 0;
#X obj 151 79 f \$1;
#X floatatom 151 100 5 0 0 0 - - -;
#X obj 151 120 - 1;
#X floatatom 151 141 5 0 0 0 - - -;
#X obj 152 33 loadbang;
#X obj 152 54 del 20;
#X obj 151 162 text get speed;
#X floatatom 151 183 5 0 0 0 - - -;
#X obj 151 221 spigot;
#X obj 151 242 text insert speed;
#X obj 219 204 r save-\$1;
#X obj 216 181 r opensave-\$1;
#X obj 218 223 r closesave-\$1;
#X obj 76 156 r speed-\$1;
#X floatatom 33 189 5 0 0 0 - - -;
#X obj 31 210 s speed-init-\$1;
#X connect 0 0 1 0;
#X connect 1 0 2 0;
#X connect 2 0 3 0;
#X connect 3 0 6 0;
#X connect 4 0 5 0;
#X connect 5 0 0 0;
#X connect 6 0 7 0;
#X connect 6 0 14 0;
#X connect 7 0 8 0;
#X connect 8 0 9 0;
#X connect 10 0 7 0;
#X connect 11 0 8 1;
#X connect 12 0 8 1;
#X connect 13 0 7 0;
#X connect 14 0 15 0;
#X restore 1442 231 pd speed-load;
#N canvas 4 50 450 300 attack-load 0;
#X obj 119 68 f \$1;
#X floatatom 119 89 5 0 0 0 - - -;
#X obj 119 109 - 1;
#X floatatom 119 130 5 0 0 0 - - -;
#X obj 120 22 loadbang;
#X obj 120 43 del 20;
#X obj 119 151 text get attack;
#X floatatom 119 172 5 0 0 0 - - -;
#X obj 119 214 spigot;
#X obj 119 235 text insert attack;
#X obj 187 193 r save-\$1;
#X obj 184 170 r opensave-\$1;
#X obj 186 212 r closesave-\$1;
#X obj 46 148 r attack-\$1;
#X floatatom 321 90 5 0 0 0 - - -;
#X obj 321 110 s attack-init-\$1;
#X connect 0 0 1 0;
#X connect 1 0 2 0;
#X connect 2 0 3 0;
#X connect 3 0 6 0;
#X connect 4 0 5 0;
#X connect 5 0 0 0;
#X connect 6 0 7 0;
#X connect 6 0 14 0;
#X connect 7 0 8 0;
#X connect 8 0 9 0;
#X connect 10 0 7 0;
#X connect 11 0 8 1;
#X connect 12 0 8 1;
#X connect 13 0 7 0;
#X connect 14 0 15 0;
#X restore 1442 208 pd attack-load;
#N canvas 4 50 450 300 start-load 0;
#X obj 178 66 f \$1;
#X floatatom 178 87 5 0 0 0 - - -;
#X obj 178 107 - 1;
#X floatatom 178 128 5 0 0 0 - - -;
#X obj 179 20 loadbang;
#X obj 179 41 del 20;
#X obj 178 149 text get start;
#X floatatom 178 173 5 0 0 0 - - -;
#X obj 178 211 spigot;
#X obj 178 232 text insert start;
#X obj 235 189 r save-\$1;
#X obj 232 166 r opensave-\$1;
#X obj 234 208 r closesave-\$1;
#X obj 76 91 r start-\$1;
#X floatatom 76 221 5 0 0 0 - - -;
#X obj 74 242 s start-init-\$1;
#X connect 0 0 1 0;
#X connect 1 0 2 0;
#X connect 2 0 3 0;
#X connect 3 0 6 0;
#X connect 4 0 5 0;
#X connect 5 0 0 0;
#X connect 6 0 7 0;
#X connect 6 0 14 0;
#X connect 7 0 8 0;
#X connect 8 0 9 0;
#X connect 10 0 7 0;
#X connect 11 0 8 1;
#X connect 12 0 8 1;
#X connect 13 0 7 0;
#X connect 14 0 15 0;
#X restore 1442 162 pd start-load;
#N canvas 4 50 450 300 end-load 0;
#X obj 95 64 f \$1;
#X floatatom 95 85 5 0 0 0 - - -;
#X obj 95 105 - 1;
#X floatatom 95 126 5 0 0 0 - - -;
#X obj 96 18 loadbang;
#X obj 96 39 del 20;
#X obj 95 147 text get end;
#X floatatom 95 168 5 0 0 0 - - -;
#X obj 96 211 spigot;
#X obj 96 232 text insert end;
#X obj 151 189 r save-\$1;
#X obj 148 166 r opensave-\$1;
#X obj 150 208 r closesave-\$1;
#X obj 26 117 r end-\$1;
#X floatatom 45 265 5 0 0 0 - - -;
#X obj 43 286 s end-init-\$1;
#X connect 0 0 1 0;
#X connect 1 0 2 0;
#X connect 2 0 3 0;
#X connect 3 0 6 0;
#X connect 4 0 5 0;
#X connect 5 0 0 0;
#X connect 6 0 7 0;
#X connect 6 0 14 0;
#X connect 7 0 8 0;
#X connect 8 0 9 0;
#X connect 10 0 7 0;
#X connect 11 0 8 1;
#X connect 12 0 8 1;
#X connect 13 0 7 0;
#X connect 14 0 15 0;
#X restore 1442 185 pd end-load;
#N canvas 4 50 449 300 pan-load 0;
#X obj 93 81 f \$1;
#X floatatom 93 102 5 0 0 0 - - -;
#X obj 93 122 - 1;
#X floatatom 93 143 5 0 0 0 - - -;
#X obj 94 35 loadbang;
#X obj 94 56 del 20;
#X obj 93 164 text get pan;
#X floatatom 93 185 5 0 0 0 - - -;
#X obj 95 225 spigot;
#X obj 95 246 text insert pan;
#X obj 149 204 r save-\$1;
#X obj 146 181 r opensave-\$1;
#X obj 148 223 r closesave-\$1;
#X obj 29 164 r pan-\$1;
#X floatatom 158 103 5 0 0 0 - - -;
#X obj 156 124 s pan-init-\$1;
#X connect 0 0 1 0;
#X connect 1 0 2 0;
#X connect 2 0 3 0;
#X connect 3 0 6 0;
#X connect 4 0 5 0;
#X connect 5 0 0 0;
#X connect 6 0 7 0;
#X connect 6 0 14 0;
#X connect 7 0 8 0;
#X connect 8 0 9 0;
#X connect 10 0 7 0;
#X connect 11 0 8 1;
#X connect 12 0 8 1;
#X connect 13 0 7 0;
#X connect 14 0 15 0;
#X restore 1442 283 pd pan-load;
#N canvas 4 50 450 300 trans-load 0;
#X obj 55 98 f \$1;
#X floatatom 55 119 5 0 0 0 - - -;
#X obj 55 139 - 1;
#X floatatom 55 160 5 0 0 0 - - -;
#X obj 56 52 loadbang;
#X obj 56 73 del 20;
#X obj 55 181 text get trans;
#X floatatom 55 202 5 0 0 0 - - -;
#X obj 59 245 spigot;
#X obj 59 266 text insert trans;
#X obj 161 222 r save-\$1;
#X obj 158 199 r opensave-\$1;
#X obj 160 241 r closesave-\$1;
#X obj 37 24 r trans-\$1;
#X floatatom 174 145 5 0 0 0 - - -;
#X obj 172 166 s trans-init-\$1;
#X connect 0 0 1 0;
#X connect 1 0 2 0;
#X connect 2 0 3 0;
#X connect 3 0 6 0;
#X connect 4 0 5 0;
#X connect 5 0 0 0;
#X connect 6 0 7 0;
#X connect 6 0 14 0;
#X connect 7 0 8 0;
#X connect 8 0 9 0;
#X connect 10 0 7 0;
#X connect 11 0 8 1;
#X connect 12 0 8 1;
#X connect 13 0 7 0;
#X connect 14 0 15 0;
#X restore 1442 309 pd trans-load;
#N canvas 4 50 450 300 filt-load 0;
#X obj 133 95 f \$1;
#X floatatom 133 116 5 0 0 0 - - -;
#X obj 133 136 - 1;
#X floatatom 133 157 5 0 0 0 - - -;
#X obj 134 49 loadbang;
#X obj 134 70 del 20;
#X obj 133 178 text get filt;
#X floatatom 133 199 5 0 0 0 - - -;
#X obj 133 256 spigot;
#X obj 133 277 text insert filt;
#X obj 207 228 r save-\$1;
#X obj 204 205 r opensave-\$1;
#X obj 206 247 r closesave-\$1;
#X obj 51 184 r filt-\$1;
#X floatatom 95 296 5 0 0 0 - - -;
#X obj 93 317 s filt-init-\$1;
#X connect 0 0 1 0;
#X connect 1 0 2 0;
#X connect 2 0 3 0;
#X connect 3 0 6 0;
#X connect 4 0 5 0;
#X connect 5 0 0 0;
#X connect 6 0 7 0;
#X connect 6 0 14 0;
#X connect 7 0 8 0;
#X connect 8 0 9 0;
#X connect 10 0 7 0;
#X connect 11 0 8 1;
#X connect 12 0 8 1;
#X connect 13 0 7 0;
#X connect 14 0 15 0;
#X restore 1442 335 pd filt-load;
#N canvas 448 525 450 300 quant-load 0;
#X obj 106 67 f \$1;
#X floatatom 106 88 5 0 0 0 - - -;
#X obj 106 108 - 1;
#X floatatom 106 129 5 0 0 0 - - -;
#X obj 107 21 loadbang;
#X obj 107 42 del 20;
#X floatatom 106 171 5 0 0 0 - - -;
#X obj 108 213 spigot;
#X obj 209 185 r save-\$1;
#X obj 206 162 r opensave-\$1;
#X obj 208 204 r closesave-\$1;
#X floatatom 145 286 5 0 0 0 - - -;
#X obj 24 151 r quant-\$1;
#X obj 106 150 text get quant;
#X obj 143 307 s quant-init-\$1;
#X obj 108 232 text insert quant;
#X connect 0 0 1 0;
#X connect 1 0 2 0;
#X connect 2 0 3 0;
#X connect 3 0 13 0;
#X connect 4 0 5 0;
#X connect 5 0 0 0;
#X connect 6 0 7 0;
#X connect 7 0 15 0;
#X connect 8 0 6 0;
#X connect 9 0 7 1;
#X connect 10 0 7 1;
#X connect 11 0 14 0;
#X connect 12 0 6 0;
#X connect 13 0 6 0;
#X connect 13 0 11 0;
#X restore 1441 115 pd quant-load;
#X obj 516 406 del 10;
#X obj 397 446 r quant-\$1;
#X obj 397 467 ==;
#X obj 397 493 tgl 15 0 empty empty empty 17 7 0 10 -262144 -1 -1 0
1;
#X obj 158 436 spigot;
#X obj 75 413 spigot;
#X obj 344 465 tgl 15 0 empty empty empty 17 7 0 10 -262144 -1 -1 0
1;
#X obj 74 435 tgl 15 0 empty empty empty 17 7 0 10 -262144 -1 -1 0
1;
#X obj 73 478 s qs-\$1;
#X obj 657 311 r bar;
#X floatatom 657 332 5 0 0 0 - - -;
#X obj 657 352 t f f;
#X obj 657 373 spigot;
#X obj 657 394 change;
#X obj 657 415 == 4;
#X obj 657 436 spigot 0;
#X obj 657 457 t b b;
#X msg 657 478 0;
#X obj 657 499 s qo-\$1;
#X obj 104 360 r qo-\$1;
#X obj 708 342 r qs-\$1;
#X obj 704 474 s qss-\$1;
#X obj 98 452 r qss-\$1;
#N canvas 4 50 450 300 vol-load 0;
#X obj 178 66 f \$1;
#X floatatom 178 87 5 0 0 0 - - -;
#X obj 178 107 - 1;
#X floatatom 178 128 5 0 0 0 - - -;
#X obj 179 20 loadbang;
#X obj 179 41 del 20;
#X floatatom 178 173 5 0 0 0 - - -;
#X obj 178 211 spigot;
#X obj 235 189 r save-\$1;
#X obj 232 166 r opensave-\$1;
#X obj 234 208 r closesave-\$1;
#X floatatom 76 221 5 0 0 0 - - -;
#X obj 76 91 r vol-\$1;
#X obj 178 149 text get vol;
#X obj 178 232 text insert vol;
#X obj 74 242 s vol-init-\$1;
#X connect 0 0 1 0;
#X connect 1 0 2 0;
#X connect 2 0 3 0;
#X connect 3 0 13 0;
#X connect 4 0 5 0;
#X connect 5 0 0 0;
#X connect 6 0 7 0;
#X connect 7 0 14 0;
#X connect 8 0 6 0;
#X connect 9 0 7 1;
#X connect 10 0 7 1;
#X connect 11 0 15 0;
#X connect 12 0 6 0;
#X connect 13 0 6 0;
#X connect 13 0 11 0;
#X restore 1442 140 pd vol-load;
#X obj 439 223 symbol;
#X obj 443 200 bng 15 250 50 0 empty empty empty 17 7 0 10 -262144
-1 -1;
#X connect 1 0 24 0;
#X connect 1 0 25 0;
#X connect 3 0 95 1;
#X connect 4 0 5 0;
#X connect 5 0 57 0;
#X connect 6 0 9 0;
#X connect 7 0 10 0;
#X connect 9 0 8 0;
#X connect 9 0 210 0;
#X connect 9 0 232 0;
#X connect 10 0 8 0;
#X connect 10 0 161 1;
#X connect 11 0 1 0;
#X connect 12 0 15 0;
#X connect 12 0 17 0;
#X connect 13 0 20 0;
#X connect 14 0 21 0;
#X connect 15 0 16 0;
#X connect 16 0 13 0;
#X connect 17 0 14 0;
#X connect 18 0 24 1;
#X connect 19 0 25 1;
#X connect 20 0 18 0;
#X connect 21 0 19 0;
#X connect 23 0 26 0;
#X connect 24 0 2 0;
#X connect 25 0 22 0;
#X connect 26 0 27 0;
#X connect 27 0 11 1;
#X connect 28 0 41 0;
#X connect 29 0 38 0;
#X connect 30 0 32 0;
#X connect 30 1 31 0;
#X connect 31 0 32 1;
#X connect 31 0 36 1;
#X connect 32 0 33 0;
#X connect 33 0 34 0;
#X connect 34 0 35 0;
#X connect 35 0 36 0;
#X connect 36 0 40 0;
#X connect 37 0 55 0;
#X connect 38 0 30 0;
#X connect 39 0 40 1;
#X connect 40 0 37 0;
#X connect 41 0 42 0;
#X connect 41 1 39 0;
#X connect 42 0 29 0;
#X connect 43 0 47 0;
#X connect 44 0 45 0;
#X connect 45 0 35 1;
#X connect 45 0 33 1;
#X connect 45 0 46 0;
#X connect 46 0 38 1;
#X connect 47 0 44 0;
#X connect 48 0 54 0;
#X connect 49 0 52 0;
#X connect 50 0 52 1;
#X connect 51 0 50 0;
#X connect 52 0 53 0;
#X connect 53 0 56 0;
#X connect 54 0 49 0;
#X connect 54 1 51 0;
#X connect 55 0 161 0;
#X connect 55 0 260 0;
#X connect 56 0 37 0;
#X connect 56 1 55 1;
#X connect 57 0 7 0;
#X connect 57 1 134 0;
#X connect 57 2 77 0;
#X connect 58 0 59 0;
#X connect 59 2 60 0;
#X connect 59 2 191 0;
#X connect 61 0 83 0;
#X connect 62 0 67 0;
#X connect 63 0 67 0;
#X connect 64 0 82 0;
#X connect 64 0 143 0;
#X connect 65 0 81 0;
#X connect 66 0 62 0;
#X connect 66 0 71 0;
#X connect 67 0 71 0;
#X connect 67 1 70 0;
#X connect 67 1 180 0;
#X connect 68 0 69 0;
#X connect 69 0 73 0;
#X connect 70 0 71 0;
#X connect 70 0 237 0;
#X connect 74 0 111 0;
#X connect 75 0 67 0;
#X connect 75 1 66 0;
#X connect 75 2 63 0;
#X connect 76 0 110 0;
#X connect 77 0 142 0;
#X connect 78 0 79 0;
#X connect 79 0 86 0;
#X connect 80 0 93 0;
#X connect 80 0 97 0;
#X connect 80 0 61 0;
#X connect 80 0 244 0;
#X connect 80 0 258 0;
#X connect 81 0 141 0;
#X connect 82 0 61 0;
#X connect 82 0 138 0;
#X connect 82 0 140 0;
#X connect 83 0 78 0;
#X connect 83 0 84 0;
#X connect 84 0 97 2;
#X connect 85 0 91 0;
#X connect 86 0 117 0;
#X connect 87 0 79 0;
#X connect 87 1 86 1;
#X connect 88 0 74 0;
#X connect 89 0 90 0;
#X connect 89 0 85 1;
#X connect 90 0 91 1;
#X connect 91 0 92 0;
#X connect 92 0 88 0;
#X connect 93 0 94 0;
#X connect 94 0 76 1;
#X connect 94 0 119 1;
#X connect 95 0 257 0;
#X connect 96 0 6 0;
#X connect 96 1 80 0;
#X connect 97 0 111 1;
#X connect 98 0 99 0;
#X connect 99 0 100 0;
#X connect 100 0 101 0;
#X connect 100 1 101 1;
#X connect 101 0 102 0;
#X connect 102 0 103 0;
#X connect 103 0 104 0;
#X connect 103 0 106 0;
#X connect 103 0 112 0;
#X connect 105 0 109 0;
#X connect 110 0 85 0;
#X connect 111 0 95 0;
#X connect 112 0 105 0;
#X connect 117 0 118 0;
#X connect 117 0 142 0;
#X connect 118 0 139 0;
#X connect 119 0 120 0;
#X connect 120 0 121 0;
#X connect 121 0 122 0;
#X connect 122 0 137 0;
#X connect 123 0 124 0;
#X connect 124 0 85 0;
#X connect 125 0 126 0;
#X connect 125 0 124 1;
#X connect 126 0 110 1;
#X connect 134 0 97 1;
#X connect 134 0 259 0;
#X connect 137 0 123 0;
#X connect 139 0 119 0;
#X connect 140 0 92 1;
#X connect 141 0 88 1;
#X connect 142 0 76 0;
#X connect 144 0 165 0;
#X connect 144 0 167 0;
#X connect 145 0 107 0;
#X connect 145 0 218 0;
#X connect 146 0 28 0;
#X connect 147 0 217 0;
#X connect 148 0 69 0;
#X connect 148 0 160 0;
#X connect 148 0 209 0;
#X connect 149 0 278 0;
#X connect 149 0 279 0;
#X connect 150 0 278 0;
#X connect 150 0 279 0;
#X connect 151 0 4 0;
#X connect 152 0 4 0;
#X connect 153 0 214 0;
#X connect 154 0 216 0;
#X connect 155 0 215 0;
#X connect 156 0 57 0;
#X connect 157 0 48 0;
#X connect 158 0 159 0;
#X connect 159 0 20 0;
#X connect 159 0 21 0;
#X connect 160 0 28 0;
#X connect 161 0 97 3;
#X connect 161 0 87 0;
#X connect 162 0 116 0;
#X connect 163 0 164 0;
#X connect 164 0 165 2;
#X connect 164 0 165 1;
#X connect 165 0 168 0;
#X connect 165 1 175 0;
#X connect 166 0 165 1;
#X connect 166 0 171 0;
#X connect 166 0 190 0;
#X connect 168 0 169 0;
#X connect 168 1 170 1;
#X connect 169 0 170 0;
#X connect 170 0 172 0;
#X connect 171 0 172 1;
#X connect 172 0 173 0;
#X connect 172 0 174 0;
#X connect 172 0 192 0;
#X connect 173 0 75 0;
#X connect 174 0 58 0;
#X connect 175 0 180 1;
#X connect 175 0 185 0;
#X connect 175 0 189 0;
#X connect 175 0 187 1;
#X connect 175 0 230 0;
#X connect 176 0 177 0;
#X connect 177 0 178 0;
#X connect 177 1 179 0;
#X connect 178 0 180 0;
#X connect 179 0 178 0;
#X connect 180 0 181 0;
#X connect 181 0 182 0;
#X connect 182 0 183 0;
#X connect 184 0 182 1;
#X connect 185 0 186 0;
#X connect 186 0 187 0;
#X connect 187 0 188 0;
#X connect 188 0 182 0;
#X connect 189 0 182 0;
#X connect 190 0 165 2;
#X connect 190 0 165 1;
#X connect 192 0 194 0;
#X connect 194 0 203 0;
#X connect 195 0 196 0;
#X connect 196 0 197 0;
#X connect 197 0 198 0;
#X connect 198 0 199 0;
#X connect 199 0 200 0;
#X connect 200 0 172 0;
#X connect 201 0 202 0;
#X connect 202 0 205 0;
#X connect 202 0 220 1;
#X connect 202 1 192 0;
#X connect 202 1 230 0;
#X connect 202 1 255 0;
#X connect 202 2 204 0;
#X connect 203 0 193 0;
#X connect 204 0 203 1;
#X connect 204 0 220 1;
#X connect 204 0 254 0;
#X connect 205 0 203 1;
#X connect 205 0 256 0;
#X connect 206 0 202 0;
#X connect 207 0 195 0;
#X connect 208 0 274 0;
#X connect 209 0 87 0;
#X connect 210 0 231 0;
#X connect 210 1 161 1;
#X connect 212 0 211 0;
#X connect 212 0 219 0;
#X connect 213 0 212 0;
#X connect 214 0 12 0;
#X connect 215 0 3 0;
#X connect 216 0 23 0;
#X connect 217 0 47 0;
#X connect 218 0 98 0;
#X connect 219 0 220 0;
#X connect 220 0 221 0;
#X connect 222 0 223 0;
#X connect 223 0 224 0;
#X connect 224 0 225 0;
#X connect 225 0 229 0;
#X connect 226 0 222 0;
#X connect 227 0 228 0;
#X connect 228 0 222 0;
#X connect 229 0 230 0;
#X connect 230 0 212 0;
#X connect 231 0 37 0;
#X connect 232 0 28 0;
#X connect 233 0 234 0;
#X connect 234 0 235 0;
#X connect 236 0 233 0;
#X connect 238 0 213 0;
#X connect 239 0 238 0;
#X connect 240 0 249 0;
#X connect 241 0 243 0;
#X connect 242 0 244 1;
#X connect 243 0 242 0;
#X connect 244 0 252 0;
#X connect 246 0 10 0;
#X connect 248 0 245 0;
#X connect 248 0 247 0;
#X connect 249 0 250 0;
#X connect 250 0 264 0;
#X connect 251 0 248 1;
#X connect 252 0 248 0;
#X connect 252 1 251 0;
#X connect 253 0 240 0;
#X connect 257 0 11 0;
#X connect 258 0 257 1;
#X connect 259 0 257 1;
#X connect 260 0 261 0;
#X connect 262 0 263 0;
#X connect 263 0 240 0;
#X connect 263 1 264 1;
#X connect 264 0 251 0;
#X connect 274 0 195 0;
#X connect 275 0 276 0;
#X connect 275 0 280 0;
#X connect 276 0 277 0;
#X connect 277 0 278 1;
#X connect 278 0 96 0;
#X connect 279 0 281 0;
#X connect 280 0 279 1;
#X connect 281 0 282 0;
#X connect 283 0 284 0;
#X connect 284 0 285 0;
#X connect 285 0 286 0;
#X connect 286 0 287 0;
#X connect 287 0 288 0;
#X connect 288 0 289 0;
#X connect 288 0 289 1;
#X connect 289 0 290 0;
#X connect 290 0 291 0;
#X connect 290 1 295 0;
#X connect 291 0 292 0;
#X connect 293 0 281 0;
#X connect 294 0 286 1;
#X connect 296 0 96 0;
#X connect 298 0 192 0;
#X connect 298 0 212 0;
#X connect 299 0 298 0;
