#N canvas 501 137 1912 998 10;
#X obj 424 309 r notesIn-\$1;
#X obj 626 15 s notesOut-\$1;
#X obj 48 279 inlet~ inL-\$1;
#X obj 47 299 inlet~ inR-\$1;
#X obj 94 760 outlet~ outL-\$1;
#X obj 164 737 outlet~ outR-\$1;
#X obj 508 282 r auxIn-\$1;
#X obj 715 6 r expIn-\$1;
#X obj 439 444 r fsIn-\$1;
#X obj 24 715 pd~ -ninsig 2 -noutsig 2;
#X obj 32 52 r activePage;
#X obj 32 73 unpack s s;
#X obj 32 94 sel \$1;
#X msg 32 115 1;
#X msg 63 114 0;
#X obj 14 187 &&;
#X msg 411 222 1;
#X obj 21 9 r loadbang-\$1;
#X msg 14 242 active \$1;
#X obj 14 217 change;
#X obj 109 334 r bounce-\$1;
#X msg 109 355 bounce \$1;
#X obj 190 334 r rec_in-\$1;
#X msg 191 356 rec_in \$1;
#X obj 269 334 r speedinc-\$1;
#X msg 269 355 speedinc \$1;
#X obj 701 244 &&;
#X obj 734 278 change;
#X obj 18 817 spigot;
#X obj 18 887 s screenLine5;
#X msg 696 183 1;
#X msg 508 340 auxIn \$1;
#X obj 424 330 unpack 0 0;
#X msg 363 376 notes \$1;
#X msg 621 201 0, f 4;
#X msg 144 235 0;
#X msg 758 140 0;
#X obj 733 306 bng 15 250 50 0 empty empty empty 17 7 0 10 -262144
-1 -1;
#X msg 733 325 /oled/gFillArea 3 0 50 128 14 0;
#X obj 733 346 s oscOut;
#X msg 458 378 velocity \$1;
#X text 91 75 samp;
#X text 132 77 start;
#X text 188 77 end;
#X text 233 77 speed;
#X text 290 76 vol;
#X text 339 76 mode;
#X text 384 75 attack;
#X text 436 75 filt;
#X text 491 76 pan;
#X text 540 76 trans;
#X text 591 76 setup;
#X obj 526 320 tgl 15 0 empty empty empty 17 7 0 10 -262144 -1 -1 0
1;
#X obj 578 312 sel 1;
#X msg 578 333 1;
#X obj 578 354 s aux-led-\$1;
#X msg 609 334 0;
#X obj 716 465 ctlin;
#X msg 647 497 valuem \$1;
#X msg 811 497 channelm \$1;
#X msg 716 497 controllerm \$1;
#X msg 439 465 fsIn \$1;
#X msg 900 396 samp-src \$1;
#X obj 900 375 r samp-src-\$1;
#X obj 998 46 t b b b;
#X obj 1143 87 bng 15 250 50 0 empty empty empty 17 7 0 10 -262144
-1 -1;
#X obj 808 87 bng 15 250 50 0 empty empty empty 17 7 0 10 -262144 -1
-1;
#X obj 1143 111 symbol \$1;
#X msg 1143 132 getsetting dataDir ./data rackDataDir-\$1;
#X obj 1143 153 s rackMsgs;
#X obj 1025 232 symbol \$1;
#X obj 808 112 symbol \$1;
#X obj 808 154 s rackMsgs;
#X obj 781 175 r rackCurrentPreset;
#X obj 806 201 symbol \$1;
#X obj 912 177 r rackCurrentPreset-\$1;
#X obj 1146 175 r rackDataDir;
#X obj 1146 213 symbol \$1;
#X obj 1230 183 r rackDataDir-\$1;
#X symbolatom 1025 253 10 0 0 0 - - -;
#X symbolatom 1146 234 20 0 0 0 - - -;
#X symbolatom 806 222 10 0 0 0 - - -;
#X msg 1146 254 dir \$1;
#X msg 1025 273 slot \$1;
#X msg 806 242 preset \$1;
#X msg 808 133 getsetting currentPreset Default rackCurrentPreset-\$1
;
#X msg 649 414 savePreset \$1;
#X obj 1329 572 sel 0 1;
#X msg 1206 771 /oled/aux/clear 1;
#X symbolatom 980 575 20 0 0 0 - - -;
#X obj 980 552 symbol \$1;
#X symbolatom 1056 599 20 0 0 0 - - -;
#X obj 1056 552 symbol \$1;
#X symbolatom 1132 577 20 0 0 0 - - -;
#X obj 1132 552 symbol \$1;
#X symbolatom 1208 600 20 0 0 0 - - -;
#X obj 1208 552 symbol \$1;
#X obj 1131 739 t b b b b b b;
#X msg 1182 809 /oled/setscreen 1;
#X obj 1207 943 s oscOutRaw;
#X msg 1432 855 stop;
#X msg 1372 881 /oled/setscreen 3;
#X msg 1257 862 /oled/aux/clear 1;
#X obj 1318 549 tgl 15 0 empty empty empty 17 7 0 10 -262144 -1 -1
0 1;
#X obj 1343 712 metro 1000;
#N canvas 4 50 1912 998 subparams 1;
#X msg 127 123 samp-1 \$1;
#X obj 127 96 r samp-1-\$1;
#X obj 200 96 r samp-2-\$1;
#X msg 200 123 samp-2 \$1;
#X obj 277 96 r samp-3-\$1;
#X msg 277 123 samp-3 \$1;
#X obj 350 96 r samp-4-\$1;
#X msg 350 123 samp-4 \$1;
#X obj 432 82 r start-1-\$1;
#X obj 512 82 r start-2-\$1;
#X obj 592 82 r start-3-\$1;
#X obj 671 82 r start-4-\$1;
#X msg 512 122 start-2 \$1;
#X msg 432 122 start-1 \$1;
#X msg 592 122 start-3 \$1;
#X msg 671 122 start-4 \$1;
#X obj 129 150 r end-1-\$1;
#X msg 129 192 end-1 \$1;
#X obj 202 150 r end-2-\$1;
#X msg 202 192 end-2 \$1;
#X obj 279 150 r end-3-\$1;
#X msg 279 192 end-3 \$1;
#X obj 352 150 r end-4-\$1;
#X msg 352 192 end-4 \$1;
#X obj 437 149 r speed-1-\$1;
#X msg 437 192 speed-1 \$1;
#X obj 517 149 r speed-2-\$1;
#X msg 517 192 speed-2 \$1;
#X obj 597 149 r speed-3-\$1;
#X msg 597 192 speed-3 \$1;
#X obj 676 149 r speed-4-\$1;
#X msg 676 192 speed-4 \$1;
#X obj 135 223 r vol-1-\$1;
#X msg 135 266 vol-1 \$1;
#X obj 208 223 r vol-2-\$1;
#X msg 208 266 vol-2 \$1;
#X msg 285 266 vol-3 \$1;
#X msg 358 266 vol-4 \$1;
#X obj 285 223 r vol-3-\$1;
#X obj 358 223 r vol-4-\$1;
#X obj 445 219 r mode-1-\$1;
#X msg 446 262 mode-1 \$1;
#X obj 525 219 r mode-2-\$1;
#X msg 525 262 mode-2 \$1;
#X obj 605 219 r mode-3-\$1;
#X msg 605 262 mode-3 \$1;
#X obj 684 219 r mode-4-\$1;
#X msg 684 262 mode-4 \$1;
#X obj 104 295 r attack-1-\$1;
#X msg 104 343 attack-1 \$1;
#X obj 191 295 r attack-2-\$1;
#X msg 191 343 attack-2 \$1;
#X obj 277 295 r attack-3-\$1;
#X msg 277 343 attack-3 \$1;
#X obj 363 295 r attack-4-\$1;
#X msg 363 343 attack-4 \$1;
#X obj 462 295 r filt-1-\$1;
#X msg 462 343 filt-1 \$1;
#X obj 542 295 r filt-2-\$1;
#X msg 542 343 filt-2 \$1;
#X obj 622 295 r filt-3-\$1;
#X msg 622 343 filt-3 \$1;
#X obj 701 295 r filt-4-\$1;
#X msg 701 343 filt-4 \$1;
#X obj 133 366 r pan-1-\$1;
#X msg 133 409 pan-1 \$1;
#X obj 201 365 r pan-2-\$1;
#X msg 201 409 pan-2 \$1;
#X obj 273 364 r pan-3-\$1;
#X msg 273 409 pan-3 \$1;
#X obj 345 365 r pan-4-\$1;
#X msg 345 409 pan-4 \$1;
#X obj 443 367 r trans-1-\$1;
#X obj 523 367 r trans-2-\$1;
#X obj 603 367 r trans-3-\$1;
#X obj 682 367 r trans-4-\$1;
#X msg 443 409 trans-1 \$1;
#X msg 523 409 trans-2 \$1;
#X msg 603 409 trans-3 \$1;
#X msg 682 409 trans-4 \$1;
#X floatatom 133 387 5 0 0 0 - - -;
#X floatatom 201 386 5 0 0 0 - - -;
#X floatatom 273 383 5 0 0 0 - - -;
#X floatatom 345 384 5 0 0 0 - - -;
#X floatatom 443 386 5 0 0 0 - - -;
#X floatatom 523 386 5 0 0 0 - - -;
#X floatatom 603 386 5 0 0 0 - - -;
#X floatatom 682 386 5 0 0 0 - - -;
#X floatatom 104 314 5 0 0 0 - - -;
#X floatatom 191 315 5 0 0 0 - - -;
#X floatatom 277 314 5 0 0 0 - - -;
#X floatatom 363 314 5 0 0 0 - - -;
#X floatatom 462 314 5 0 0 0 - - -;
#X floatatom 542 314 5 0 0 0 - - -;
#X floatatom 622 314 5 0 0 0 - - -;
#X floatatom 701 314 5 0 0 0 - - -;
#X floatatom 432 101 5 0 0 0 - - -;
#X floatatom 512 101 5 0 0 0 - - -;
#X floatatom 592 101 5 0 0 0 - - -;
#X floatatom 671 101 5 0 0 0 - - -;
#X floatatom 135 242 5 0 0 0 - - -;
#X floatatom 208 242 5 0 0 0 - - -;
#X floatatom 285 242 5 0 0 0 - - -;
#X floatatom 358 242 5 0 0 0 - - -;
#X floatatom 445 238 5 0 0 0 - - -;
#X floatatom 525 238 5 0 0 0 - - -;
#X floatatom 605 238 5 0 0 0 - - -;
#X floatatom 684 238 5 0 0 0 - - -;
#X floatatom 129 169 5 0 0 0 - - -;
#X floatatom 202 169 5 0 0 0 - - -;
#X floatatom 279 169 5 0 0 0 - - -;
#X floatatom 352 169 5 0 0 0 - - -;
#X floatatom 437 168 5 0 0 0 - - -;
#X floatatom 517 168 5 0 0 0 - - -;
#X floatatom 597 168 5 0 0 0 - - -;
#X floatatom 676 168 5 0 0 0 - - -;
#X obj 182 713 outlet;
#X floatatom 866 378 5 0 0 0 - - -;
#X floatatom 934 377 5 0 0 0 - - -;
#X floatatom 1006 374 5 0 0 0 - - -;
#X floatatom 1078 375 5 0 0 0 - - -;
#X floatatom 1176 377 5 0 0 0 - - -;
#X floatatom 1256 377 5 0 0 0 - - -;
#X floatatom 1336 377 5 0 0 0 - - -;
#X floatatom 1415 377 5 0 0 0 - - -;
#X floatatom 837 305 5 0 0 0 - - -;
#X floatatom 924 306 5 0 0 0 - - -;
#X floatatom 1010 305 5 0 0 0 - - -;
#X floatatom 1096 305 5 0 0 0 - - -;
#X floatatom 1195 305 5 0 0 0 - - -;
#X floatatom 1275 305 5 0 0 0 - - -;
#X floatatom 1355 305 5 0 0 0 - - -;
#X floatatom 1434 305 5 0 0 0 - - -;
#X floatatom 1165 92 5 0 0 0 - - -;
#X floatatom 1245 92 5 0 0 0 - - -;
#X floatatom 1325 92 5 0 0 0 - - -;
#X floatatom 1404 92 5 0 0 0 - - -;
#X floatatom 868 233 5 0 0 0 - - -;
#X floatatom 941 233 5 0 0 0 - - -;
#X floatatom 1018 233 5 0 0 0 - - -;
#X floatatom 1091 233 5 0 0 0 - - -;
#X floatatom 1178 229 5 0 0 0 - - -;
#X floatatom 1258 229 5 0 0 0 - - -;
#X floatatom 1338 229 5 0 0 0 - - -;
#X floatatom 1417 229 5 0 0 0 - - -;
#X floatatom 862 160 5 0 0 0 - - -;
#X floatatom 935 160 5 0 0 0 - - -;
#X floatatom 1012 160 5 0 0 0 - - -;
#X floatatom 1085 160 5 0 0 0 - - -;
#X floatatom 1170 159 5 0 0 0 - - -;
#X floatatom 1250 159 5 0 0 0 - - -;
#X floatatom 1330 159 5 0 0 0 - - -;
#X floatatom 1409 159 5 0 0 0 - - -;
#X obj 860 87 r samp-5-\$1;
#X obj 933 87 r samp-6-\$1;
#X obj 1010 87 r samp-7-\$1;
#X obj 1083 87 r samp-8-\$1;
#X msg 860 114 samp-5 \$1;
#X msg 933 114 samp-6 \$1;
#X msg 1010 114 samp-7 \$1;
#X msg 1083 114 samp-8 \$1;
#X msg 1165 113 start-5 \$1;
#X msg 1245 113 start-6 \$1;
#X msg 1325 113 start-7 \$1;
#X msg 1404 113 start-8 \$1;
#X obj 862 141 r end-5-\$1;
#X obj 935 141 r end-6-\$1;
#X obj 1012 141 r end-7-\$1;
#X obj 1086 141 r end-8-\$1;
#X msg 862 183 end-5 \$1;
#X msg 935 183 end-6 \$1;
#X msg 1012 183 end-7 \$1;
#X msg 1085 183 end-8 \$1;
#X obj 1165 73 r start-5-\$1;
#X obj 1245 73 r start-6-\$1;
#X obj 1325 73 r start-7-\$1;
#X obj 1404 73 r start-8-\$1;
#X obj 1170 140 r speed-5-\$1;
#X obj 1250 140 r speed-6-\$1;
#X obj 1330 140 r speed-7-\$1;
#X obj 1410 140 r speed-8-\$1;
#X msg 1170 183 speed-5 \$1;
#X msg 1250 183 speed-6 \$1;
#X msg 1330 183 speed-7 \$1;
#X msg 1409 183 speed-8 \$1;
#X obj 868 214 r vol-5-\$1;
#X obj 941 214 r vol-6-\$1;
#X obj 1018 214 r vol-7-\$1;
#X obj 1091 214 r vol-8-\$1;
#X obj 1178 210 r mode-5-\$1;
#X obj 1257 210 r mode-6-\$1;
#X obj 1338 210 r mode-7-\$1;
#X obj 1417 210 r mode-8-\$1;
#X msg 868 257 vol-5 \$1;
#X msg 941 257 vol-6 \$1;
#X msg 1018 257 vol-7 \$1;
#X msg 1091 257 vol-8 \$1;
#X msg 1179 253 mode-5 \$1;
#X msg 1258 253 mode-6 \$1;
#X msg 1338 253 mode-7 \$1;
#X msg 1417 253 mode-8 \$1;
#X obj 837 286 r attack-5-\$1;
#X obj 924 286 r attack-6-\$1;
#X obj 1010 286 r attack-7-\$1;
#X obj 1096 286 r attack-8-\$1;
#X obj 1195 286 r filt-5-\$1;
#X obj 1275 286 r filt-6-\$1;
#X obj 1355 286 r filt-7-\$1;
#X obj 1435 286 r filt-8-\$1;
#X msg 837 334 attack-5 \$1;
#X msg 924 333 attack-6 \$1;
#X msg 1010 334 attack-7 \$1;
#X msg 1096 334 attack-8 \$1;
#X msg 1195 334 filt-5 \$1;
#X msg 1275 334 filt-6 \$1;
#X msg 1355 334 filt-7 \$1;
#X msg 1434 334 filt-8 \$1;
#X obj 866 357 r pan-5-\$1;
#X obj 933 356 r pan-6-\$1;
#X obj 1006 355 r pan-7-\$1;
#X obj 1078 356 r pan-8-\$1;
#X obj 1176 358 r trans-5-\$1;
#X obj 1256 358 r trans-6-\$1;
#X obj 1336 358 r trans-7-\$1;
#X obj 1415 358 r trans-8-\$1;
#X msg 866 400 pan-5 \$1;
#X msg 934 400 pan-6 \$1;
#X msg 1006 400 pan-7 \$1;
#X msg 1078 400 pan-8 \$1;
#X msg 1176 400 trans-5 \$1;
#X msg 1257 400 trans-6 \$1;
#X msg 1336 400 trans-7 \$1;
#X msg 1415 400 trans-8 \$1;
#X obj 35 153 r load-\$1;
#X obj 40 226 r load-\$1;
#X obj 25 299 r load-\$1;
#X obj 37 374 r load-\$1;
#X obj 729 103 r load-\$1;
#X obj 715 169 r load-\$1;
#X obj 721 240 r load-\$1;
#X obj 739 320 r load-\$1;
#X obj 725 388 r load-\$1;
#X obj 789 362 r load-\$1;
#X obj 777 286 r load-\$1;
#X obj 792 213 r load-\$1;
#X obj 798 143 r load-\$1;
#X obj 1462 94 r load-\$1;
#X obj 1448 160 r load-\$1;
#X obj 1455 231 r load-\$1;
#X obj 1473 311 r load-\$1;
#X obj 1458 379 r load-\$1;
#X obj 1524 404 r bar;
#X floatatom 1524 425 5 0 0 0 - - -;
#X msg 1524 445 bar \$1;
#X obj 1567 63 r quant-1-\$1;
#X floatatom 1567 84 5 0 0 0 - - -;
#X msg 1567 104 quant-1 \$1;
#X floatatom 1653 83 5 0 0 0 - - -;
#X floatatom 1737 83 5 0 0 0 - - -;
#X floatatom 1819 85 5 0 0 0 - - -;
#X floatatom 1565 157 5 0 0 0 - - -;
#X floatatom 1651 156 5 0 0 0 - - -;
#X floatatom 1735 156 5 0 0 0 - - -;
#X floatatom 1817 158 5 0 0 0 - - -;
#X msg 1565 177 quant-5 \$1;
#X obj 1565 136 r quant-5-\$1;
#X obj 1651 135 r quant-6-\$1;
#X msg 1651 176 quant-6 \$1;
#X obj 1735 135 r quant-7-\$1;
#X msg 1735 176 quant-7 \$1;
#X obj 1817 137 r quant-8-\$1;
#X msg 1817 178 quant-8 \$1;
#X obj 1653 62 r quant-2-\$1;
#X msg 1653 103 quant-2 \$1;
#X obj 1737 62 r quant-3-\$1;
#X msg 1737 103 quant-3 \$1;
#X obj 1819 64 r quant-4-\$1;
#X msg 1819 105 quant-4 \$1;
#X obj 1792 243 r load-\$1;
#X connect 0 0 116 0;
#X connect 1 0 0 0;
#X connect 2 0 3 0;
#X connect 3 0 116 0;
#X connect 4 0 5 0;
#X connect 5 0 116 0;
#X connect 6 0 7 0;
#X connect 7 0 116 0;
#X connect 8 0 96 0;
#X connect 9 0 97 0;
#X connect 10 0 98 0;
#X connect 11 0 99 0;
#X connect 12 0 116 0;
#X connect 13 0 116 0;
#X connect 14 0 116 0;
#X connect 15 0 116 0;
#X connect 16 0 108 0;
#X connect 17 0 116 0;
#X connect 18 0 109 0;
#X connect 19 0 116 0;
#X connect 20 0 110 0;
#X connect 21 0 116 0;
#X connect 22 0 111 0;
#X connect 23 0 116 0;
#X connect 24 0 112 0;
#X connect 25 0 116 0;
#X connect 26 0 113 0;
#X connect 27 0 116 0;
#X connect 28 0 114 0;
#X connect 29 0 116 0;
#X connect 30 0 115 0;
#X connect 31 0 116 0;
#X connect 32 0 100 0;
#X connect 33 0 116 0;
#X connect 34 0 101 0;
#X connect 35 0 116 0;
#X connect 36 0 116 0;
#X connect 37 0 116 0;
#X connect 38 0 102 0;
#X connect 39 0 103 0;
#X connect 40 0 104 0;
#X connect 41 0 116 0;
#X connect 42 0 105 0;
#X connect 43 0 116 0;
#X connect 44 0 106 0;
#X connect 45 0 116 0;
#X connect 46 0 107 0;
#X connect 47 0 116 0;
#X connect 48 0 88 0;
#X connect 49 0 116 0;
#X connect 50 0 89 0;
#X connect 51 0 116 0;
#X connect 52 0 90 0;
#X connect 53 0 116 0;
#X connect 54 0 91 0;
#X connect 55 0 116 0;
#X connect 56 0 92 0;
#X connect 57 0 116 0;
#X connect 58 0 93 0;
#X connect 59 0 116 0;
#X connect 60 0 94 0;
#X connect 61 0 116 0;
#X connect 62 0 95 0;
#X connect 63 0 116 0;
#X connect 64 0 80 0;
#X connect 65 0 116 0;
#X connect 66 0 81 0;
#X connect 67 0 116 0;
#X connect 68 0 82 0;
#X connect 69 0 116 0;
#X connect 70 0 83 0;
#X connect 71 0 116 0;
#X connect 72 0 84 0;
#X connect 73 0 85 0;
#X connect 74 0 86 0;
#X connect 75 0 87 0;
#X connect 76 0 116 0;
#X connect 77 0 116 0;
#X connect 78 0 116 0;
#X connect 79 0 116 0;
#X connect 80 0 65 0;
#X connect 81 0 67 0;
#X connect 82 0 69 0;
#X connect 83 0 71 0;
#X connect 84 0 76 0;
#X connect 85 0 77 0;
#X connect 86 0 78 0;
#X connect 87 0 79 0;
#X connect 88 0 49 0;
#X connect 89 0 51 0;
#X connect 90 0 53 0;
#X connect 91 0 55 0;
#X connect 92 0 57 0;
#X connect 93 0 59 0;
#X connect 94 0 61 0;
#X connect 95 0 63 0;
#X connect 96 0 13 0;
#X connect 97 0 12 0;
#X connect 98 0 14 0;
#X connect 99 0 15 0;
#X connect 100 0 33 0;
#X connect 101 0 35 0;
#X connect 102 0 36 0;
#X connect 103 0 37 0;
#X connect 104 0 41 0;
#X connect 105 0 43 0;
#X connect 106 0 45 0;
#X connect 107 0 47 0;
#X connect 108 0 17 0;
#X connect 109 0 19 0;
#X connect 110 0 21 0;
#X connect 111 0 23 0;
#X connect 112 0 25 0;
#X connect 113 0 27 0;
#X connect 114 0 29 0;
#X connect 115 0 31 0;
#X connect 117 0 225 0;
#X connect 118 0 226 0;
#X connect 119 0 227 0;
#X connect 120 0 228 0;
#X connect 121 0 229 0;
#X connect 122 0 230 0;
#X connect 123 0 231 0;
#X connect 124 0 232 0;
#X connect 125 0 209 0;
#X connect 126 0 210 0;
#X connect 127 0 211 0;
#X connect 128 0 212 0;
#X connect 129 0 213 0;
#X connect 130 0 214 0;
#X connect 131 0 215 0;
#X connect 132 0 216 0;
#X connect 133 0 161 0;
#X connect 134 0 162 0;
#X connect 135 0 163 0;
#X connect 136 0 164 0;
#X connect 137 0 193 0;
#X connect 138 0 194 0;
#X connect 139 0 195 0;
#X connect 140 0 196 0;
#X connect 141 0 197 0;
#X connect 142 0 198 0;
#X connect 143 0 199 0;
#X connect 144 0 200 0;
#X connect 145 0 169 0;
#X connect 146 0 170 0;
#X connect 147 0 171 0;
#X connect 148 0 172 0;
#X connect 149 0 181 0;
#X connect 150 0 182 0;
#X connect 151 0 183 0;
#X connect 152 0 184 0;
#X connect 153 0 157 0;
#X connect 154 0 158 0;
#X connect 155 0 159 0;
#X connect 156 0 160 0;
#X connect 157 0 116 0;
#X connect 158 0 116 0;
#X connect 159 0 116 0;
#X connect 160 0 116 0;
#X connect 161 0 116 0;
#X connect 162 0 116 0;
#X connect 163 0 116 0;
#X connect 164 0 116 0;
#X connect 165 0 145 0;
#X connect 166 0 146 0;
#X connect 167 0 147 0;
#X connect 168 0 148 0;
#X connect 169 0 116 0;
#X connect 170 0 116 0;
#X connect 171 0 116 0;
#X connect 172 0 116 0;
#X connect 173 0 133 0;
#X connect 174 0 134 0;
#X connect 175 0 135 0;
#X connect 176 0 136 0;
#X connect 177 0 149 0;
#X connect 178 0 150 0;
#X connect 179 0 151 0;
#X connect 180 0 152 0;
#X connect 181 0 116 0;
#X connect 182 0 116 0;
#X connect 183 0 116 0;
#X connect 184 0 116 0;
#X connect 185 0 137 0;
#X connect 186 0 138 0;
#X connect 187 0 139 0;
#X connect 188 0 140 0;
#X connect 189 0 141 0;
#X connect 190 0 142 0;
#X connect 191 0 143 0;
#X connect 192 0 144 0;
#X connect 193 0 116 0;
#X connect 194 0 116 0;
#X connect 195 0 116 0;
#X connect 196 0 116 0;
#X connect 197 0 116 0;
#X connect 198 0 116 0;
#X connect 199 0 116 0;
#X connect 200 0 116 0;
#X connect 201 0 125 0;
#X connect 202 0 126 0;
#X connect 203 0 127 0;
#X connect 204 0 128 0;
#X connect 205 0 129 0;
#X connect 206 0 130 0;
#X connect 207 0 131 0;
#X connect 208 0 132 0;
#X connect 209 0 116 0;
#X connect 210 0 116 0;
#X connect 211 0 116 0;
#X connect 212 0 116 0;
#X connect 213 0 116 0;
#X connect 214 0 116 0;
#X connect 215 0 116 0;
#X connect 216 0 116 0;
#X connect 217 0 117 0;
#X connect 218 0 118 0;
#X connect 219 0 119 0;
#X connect 220 0 120 0;
#X connect 221 0 121 0;
#X connect 222 0 122 0;
#X connect 223 0 123 0;
#X connect 224 0 124 0;
#X connect 225 0 116 0;
#X connect 226 0 116 0;
#X connect 227 0 116 0;
#X connect 228 0 116 0;
#X connect 229 0 116 0;
#X connect 230 0 116 0;
#X connect 231 0 116 0;
#X connect 232 0 116 0;
#X connect 233 0 108 0;
#X connect 233 0 111 0;
#X connect 233 0 110 0;
#X connect 233 0 109 0;
#X connect 234 0 100 0;
#X connect 234 0 103 0;
#X connect 234 0 102 0;
#X connect 234 0 101 0;
#X connect 235 0 88 0;
#X connect 235 0 91 0;
#X connect 235 0 90 0;
#X connect 235 0 89 0;
#X connect 236 0 80 0;
#X connect 236 0 83 0;
#X connect 236 0 81 0;
#X connect 236 0 82 0;
#X connect 237 0 99 0;
#X connect 237 0 98 0;
#X connect 237 0 97 0;
#X connect 237 0 96 0;
#X connect 238 0 115 0;
#X connect 238 0 114 0;
#X connect 238 0 113 0;
#X connect 238 0 112 0;
#X connect 239 0 107 0;
#X connect 239 0 106 0;
#X connect 239 0 105 0;
#X connect 239 0 104 0;
#X connect 240 0 95 0;
#X connect 240 0 94 0;
#X connect 240 0 93 0;
#X connect 240 0 92 0;
#X connect 241 0 87 0;
#X connect 241 0 86 0;
#X connect 241 0 85 0;
#X connect 241 0 84 0;
#X connect 242 0 117 0;
#X connect 242 0 120 0;
#X connect 242 0 118 0;
#X connect 242 0 119 0;
#X connect 243 0 125 0;
#X connect 243 0 128 0;
#X connect 243 0 127 0;
#X connect 243 0 126 0;
#X connect 244 0 137 0;
#X connect 244 0 140 0;
#X connect 244 0 139 0;
#X connect 244 0 138 0;
#X connect 245 0 145 0;
#X connect 245 0 148 0;
#X connect 245 0 147 0;
#X connect 245 0 146 0;
#X connect 246 0 136 0;
#X connect 246 0 135 0;
#X connect 246 0 134 0;
#X connect 246 0 133 0;
#X connect 247 0 152 0;
#X connect 247 0 151 0;
#X connect 247 0 150 0;
#X connect 247 0 149 0;
#X connect 248 0 144 0;
#X connect 248 0 143 0;
#X connect 248 0 142 0;
#X connect 248 0 141 0;
#X connect 249 0 132 0;
#X connect 249 0 131 0;
#X connect 249 0 130 0;
#X connect 249 0 129 0;
#X connect 250 0 124 0;
#X connect 250 0 123 0;
#X connect 250 0 122 0;
#X connect 250 0 121 0;
#X connect 251 0 252 0;
#X connect 252 0 253 0;
#X connect 253 0 116 0;
#X connect 254 0 255 0;
#X connect 255 0 256 0;
#X connect 256 0 116 0;
#X connect 257 0 273 0;
#X connect 258 0 275 0;
#X connect 259 0 277 0;
#X connect 260 0 264 0;
#X connect 261 0 267 0;
#X connect 262 0 269 0;
#X connect 263 0 271 0;
#X connect 264 0 116 0;
#X connect 265 0 260 0;
#X connect 266 0 261 0;
#X connect 267 0 116 0;
#X connect 268 0 262 0;
#X connect 269 0 116 0;
#X connect 270 0 263 0;
#X connect 271 0 116 0;
#X connect 272 0 257 0;
#X connect 273 0 116 0;
#X connect 274 0 258 0;
#X connect 275 0 116 0;
#X connect 276 0 259 0;
#X connect 277 0 116 0;
#X connect 278 0 259 0;
#X connect 278 0 258 0;
#X connect 278 0 257 0;
#X connect 278 0 255 0;
#X connect 278 0 260 0;
#X connect 278 0 261 0;
#X connect 278 0 262 0;
#X connect 278 0 263 0;
#X restore 129 388 pd subparams;
#N canvas 343 388 1238 603 states 0;
#N canvas 30 65 450 300 sampstate 0;
#X obj 118 100 inlet;
#X obj 194 101 inlet;
#X obj 160 168 tgl 15 0 empty empty empty 17 7 0 10 -262144 -1 -1 0
1;
#X msg 118 121 1;
#X msg 194 122 0;
#X obj 160 188 outlet;
#X obj 223 198 s sampActive-\$1;
#X obj 222 169 sel 1;
#X obj 361 196 bng 15 250 50 0 empty empty empty 17 7 0 10 -262144
-1 -1;
#X connect 0 0 3 0;
#X connect 1 0 4 0;
#X connect 2 0 5 0;
#X connect 2 0 7 0;
#X connect 3 0 2 0;
#X connect 4 0 2 0;
#X connect 7 0 6 0;
#X connect 7 0 8 0;
#X restore 57 468 pd sampstate;
#N canvas 488 73 450 300 startstate 0;
#X obj 118 100 inlet;
#X obj 194 101 inlet;
#X obj 160 168 tgl 15 0 empty empty empty 17 7 0 10 -262144 -1 -1 0
1;
#X msg 118 121 1;
#X msg 194 122 0;
#X obj 160 188 outlet;
#X obj 281 211 s startActive-\$1;
#X obj 275 187 sel 1;
#X obj 225 211 bng 15 250 50 0 empty empty empty 17 7 0 10 -262144
-1 -1;
#X connect 0 0 3 0;
#X connect 1 0 4 0;
#X connect 2 0 5 0;
#X connect 2 0 7 0;
#X connect 3 0 2 0;
#X connect 4 0 2 0;
#X connect 7 0 6 0;
#X connect 7 0 8 0;
#X restore 162 468 pd startstate;
#N canvas 935 78 450 300 endstate 0;
#X obj 118 100 inlet;
#X obj 194 101 inlet;
#X obj 160 168 tgl 15 0 empty empty empty 17 7 0 10 -262144 -1 -1 0
1;
#X msg 118 121 1;
#X msg 194 122 0;
#X obj 160 188 outlet;
#X obj 222 187 s endActive-\$1;
#X obj 227 159 sel 1;
#X connect 0 0 3 0;
#X connect 1 0 4 0;
#X connect 2 0 5 0;
#X connect 2 0 7 0;
#X connect 3 0 2 0;
#X connect 4 0 2 0;
#X connect 7 0 6 0;
#X restore 269 468 pd endstate;
#N canvas 1466 415 450 300 speedstate 0;
#X obj 118 100 inlet;
#X obj 194 101 inlet;
#X obj 160 168 tgl 15 0 empty empty empty 17 7 0 10 -262144 -1 -1 0
1;
#X msg 118 121 1;
#X msg 194 122 0;
#X obj 160 188 outlet;
#X obj 220 190 s speedActive-\$1;
#X obj 216 164 sel 1;
#X connect 0 0 3 0;
#X connect 1 0 4 0;
#X connect 2 0 5 0;
#X connect 2 0 7 0;
#X connect 3 0 2 0;
#X connect 4 0 2 0;
#X connect 7 0 6 0;
#X restore 359 468 pd speedstate;
#N canvas 1393 77 450 300 volstate 0;
#X obj 118 100 inlet;
#X obj 194 101 inlet;
#X obj 160 168 tgl 15 0 empty empty empty 17 7 0 10 -262144 -1 -1 0
1;
#X msg 118 121 1;
#X msg 194 122 0;
#X obj 160 188 outlet;
#X obj 239 189 s volActive-\$1;
#X obj 241 162 sel 1;
#X connect 0 0 3 0;
#X connect 1 0 4 0;
#X connect 2 0 5 0;
#X connect 2 0 7 0;
#X connect 3 0 2 0;
#X connect 4 0 2 0;
#X connect 7 0 6 0;
#X restore 469 468 pd volstate;
#N canvas 36 723 450 300 modestate 0;
#X obj 118 100 inlet;
#X obj 194 101 inlet;
#X obj 160 168 tgl 15 0 empty empty empty 17 7 0 10 -262144 -1 -1 0
1;
#X msg 118 121 1;
#X msg 194 122 0;
#X obj 160 188 outlet;
#X obj 227 192 s modeActive-\$1;
#X obj 229 165 sel 1;
#X connect 0 0 3 0;
#X connect 1 0 4 0;
#X connect 2 0 5 0;
#X connect 2 0 7 0;
#X connect 3 0 2 0;
#X connect 4 0 2 0;
#X connect 7 0 6 0;
#X restore 562 468 pd modestate;
#N canvas 335 722 450 300 attackstate 0;
#X obj 118 100 inlet;
#X obj 194 101 inlet;
#X obj 160 168 tgl 15 0 empty empty empty 17 7 0 10 -262144 -1 -1 0
1;
#X msg 118 121 1;
#X msg 194 122 0;
#X obj 160 188 outlet;
#X obj 247 188 s attackActive-\$1;
#X obj 248 155 sel 1;
#X connect 0 0 3 0;
#X connect 1 0 4 0;
#X connect 2 0 5 0;
#X connect 2 0 7 0;
#X connect 3 0 2 0;
#X connect 4 0 2 0;
#X connect 7 0 6 0;
#X restore 660 468 pd attackstate;
#N canvas 425 717 450 300 filtstate 0;
#X obj 118 100 inlet;
#X obj 194 101 inlet;
#X obj 160 168 tgl 15 0 empty empty empty 17 7 0 10 -262144 -1 -1 0
1;
#X msg 118 121 1;
#X msg 194 122 0;
#X obj 160 188 outlet;
#X obj 240 193 s filtActive-\$1;
#X obj 245 164 sel 1;
#X connect 0 0 3 0;
#X connect 1 0 4 0;
#X connect 2 0 5 0;
#X connect 2 0 7 0;
#X connect 3 0 2 0;
#X connect 4 0 2 0;
#X connect 7 0 6 0;
#X restore 768 468 pd filtstate;
#N canvas 1250 247 450 300 panstate 0;
#X obj 118 100 inlet;
#X obj 194 101 inlet;
#X obj 160 168 tgl 15 0 empty empty empty 17 7 0 10 -262144 -1 -1 0
1;
#X msg 118 121 1;
#X msg 194 122 0;
#X obj 160 188 outlet;
#X obj 227 187 s panActive-\$1;
#X obj 233 158 sel 1;
#X connect 0 0 3 0;
#X connect 1 0 4 0;
#X connect 2 0 5 0;
#X connect 2 0 7 0;
#X connect 3 0 2 0;
#X connect 4 0 2 0;
#X connect 7 0 6 0;
#X restore 860 468 pd panstate;
#N canvas 1378 715 450 300 transstate 0;
#X obj 118 100 inlet;
#X obj 194 101 inlet;
#X obj 160 168 tgl 15 0 empty empty empty 17 7 0 10 -262144 -1 -1 0
1;
#X msg 118 121 1;
#X msg 194 122 0;
#X obj 160 188 outlet;
#X obj 224 187 s transActive-\$1;
#X obj 223 159 sel 1;
#X connect 0 0 3 0;
#X connect 1 0 4 0;
#X connect 2 0 5 0;
#X connect 2 0 7 0;
#X connect 3 0 2 0;
#X connect 4 0 2 0;
#X connect 7 0 6 0;
#X restore 947 468 pd transstate;
#X obj 141 36 inlet start;
#X obj 235 36 inlet end;
#X obj 333 36 inlet speed;
#X obj 456 36 inlet vol;
#X obj 547 36 inlet mode;
#X obj 652 36 inlet attack;
#X obj 759 36 inlet filt;
#X obj 854 36 inlet pan;
#X obj 943 36 inlet trans;
#X msg 57 489 sampActive \$1;
#X msg 162 489 startActive \$1;
#X msg 269 489 endActive \$1;
#X msg 359 489 speedActive \$1;
#X msg 469 489 volActive \$1;
#X msg 562 489 modeActive \$1;
#X msg 660 489 attackActive \$1;
#X msg 768 489 filtActive \$1;
#X msg 860 489 panActive \$1;
#X msg 947 489 transActive \$1;
#X obj 527 559 outlet;
#X obj 44 36 inlet samps;
#X obj 1047 35 inlet quant;
#N canvas 883 733 450 300 quantstate 0;
#X obj 118 100 inlet;
#X obj 194 101 inlet;
#X obj 160 168 tgl 15 0 empty empty empty 17 7 0 10 -262144 -1 -1 0
1;
#X msg 118 121 1;
#X msg 194 122 0;
#X obj 160 188 outlet;
#X obj 223 159 sel 1;
#X obj 224 187 s quantActive-\$1;
#X connect 0 0 3 0;
#X connect 1 0 4 0;
#X connect 2 0 5 0;
#X connect 2 0 6 0;
#X connect 3 0 2 0;
#X connect 4 0 2 0;
#X connect 6 0 7 0;
#X restore 1051 467 pd quantstate;
#X msg 1051 488 quantActive \$1;
#X obj 1157 37 inlet;
#X connect 0 0 19 0;
#X connect 1 0 20 0;
#X connect 2 0 21 0;
#X connect 3 0 22 0;
#X connect 4 0 23 0;
#X connect 5 0 24 0;
#X connect 6 0 25 0;
#X connect 7 0 26 0;
#X connect 8 0 27 0;
#X connect 9 0 28 0;
#X connect 10 0 1 0;
#X connect 10 0 2 1;
#X connect 10 0 3 1;
#X connect 10 0 4 1;
#X connect 10 0 5 1;
#X connect 10 0 6 1;
#X connect 10 0 7 1;
#X connect 10 0 8 1;
#X connect 10 0 9 1;
#X connect 10 0 0 1;
#X connect 10 0 32 1;
#X connect 11 0 1 1;
#X connect 11 0 2 0;
#X connect 11 0 3 1;
#X connect 11 0 4 1;
#X connect 11 0 5 1;
#X connect 11 0 6 1;
#X connect 11 0 7 1;
#X connect 11 0 8 1;
#X connect 11 0 9 1;
#X connect 11 0 0 1;
#X connect 11 0 32 1;
#X connect 12 0 1 1;
#X connect 12 0 2 1;
#X connect 12 0 3 0;
#X connect 12 0 4 1;
#X connect 12 0 5 1;
#X connect 12 0 6 1;
#X connect 12 0 7 1;
#X connect 12 0 8 1;
#X connect 12 0 9 1;
#X connect 12 0 0 1;
#X connect 12 0 32 1;
#X connect 13 0 1 1;
#X connect 13 0 2 1;
#X connect 13 0 3 1;
#X connect 13 0 4 0;
#X connect 13 0 5 1;
#X connect 13 0 6 1;
#X connect 13 0 7 1;
#X connect 13 0 8 1;
#X connect 13 0 9 1;
#X connect 13 0 0 1;
#X connect 13 0 32 1;
#X connect 14 0 1 1;
#X connect 14 0 2 1;
#X connect 14 0 3 1;
#X connect 14 0 4 1;
#X connect 14 0 5 0;
#X connect 14 0 6 1;
#X connect 14 0 7 1;
#X connect 14 0 8 1;
#X connect 14 0 9 1;
#X connect 14 0 0 1;
#X connect 14 0 32 1;
#X connect 15 0 1 1;
#X connect 15 0 2 1;
#X connect 15 0 3 1;
#X connect 15 0 4 1;
#X connect 15 0 5 1;
#X connect 15 0 6 0;
#X connect 15 0 7 1;
#X connect 15 0 8 1;
#X connect 15 0 9 1;
#X connect 15 0 0 1;
#X connect 15 0 32 1;
#X connect 16 0 1 1;
#X connect 16 0 2 1;
#X connect 16 0 3 1;
#X connect 16 0 4 1;
#X connect 16 0 5 1;
#X connect 16 0 6 1;
#X connect 16 0 7 0;
#X connect 16 0 8 1;
#X connect 16 0 9 1;
#X connect 16 0 0 1;
#X connect 16 0 32 1;
#X connect 17 0 1 1;
#X connect 17 0 2 1;
#X connect 17 0 3 1;
#X connect 17 0 4 1;
#X connect 17 0 5 1;
#X connect 17 0 6 1;
#X connect 17 0 7 1;
#X connect 17 0 8 0;
#X connect 17 0 9 1;
#X connect 17 0 0 1;
#X connect 17 0 32 1;
#X connect 18 0 1 1;
#X connect 18 0 2 1;
#X connect 18 0 3 1;
#X connect 18 0 4 1;
#X connect 18 0 5 1;
#X connect 18 0 6 1;
#X connect 18 0 7 1;
#X connect 18 0 8 1;
#X connect 18 0 9 0;
#X connect 18 0 0 1;
#X connect 18 0 32 1;
#X connect 19 0 29 0;
#X connect 20 0 29 0;
#X connect 21 0 29 0;
#X connect 22 0 29 0;
#X connect 23 0 29 0;
#X connect 24 0 29 0;
#X connect 25 0 29 0;
#X connect 26 0 29 0;
#X connect 27 0 29 0;
#X connect 28 0 29 0;
#X connect 30 0 1 1;
#X connect 30 0 2 1;
#X connect 30 0 3 1;
#X connect 30 0 4 1;
#X connect 30 0 5 1;
#X connect 30 0 6 1;
#X connect 30 0 7 1;
#X connect 30 0 8 1;
#X connect 30 0 9 1;
#X connect 30 0 0 0;
#X connect 30 0 32 1;
#X connect 31 0 32 0;
#X connect 31 0 9 1;
#X connect 31 0 0 1;
#X connect 31 0 1 1;
#X connect 31 0 2 1;
#X connect 31 0 3 1;
#X connect 31 0 8 1;
#X connect 31 0 7 1;
#X connect 31 0 6 1;
#X connect 31 0 5 1;
#X connect 32 0 33 0;
#X connect 33 0 29 0;
#X connect 34 0 32 1;
#X connect 34 0 9 1;
#X connect 34 0 8 1;
#X connect 34 0 7 1;
#X connect 34 0 6 1;
#X connect 34 0 5 1;
#X connect 34 0 4 1;
#X connect 34 0 3 1;
#X connect 34 0 2 1;
#X connect 34 0 1 1;
#X connect 34 0 0 1;
#X restore 177 255 pd states;
#X f 85;
#X msg 980 651 /oled/aux/line/1 \$1;
#X msg 1056 627 /oled/aux/line/2 \$1;
#X msg 1208 628 /oled/aux/line/4 \$1;
#X msg 1132 651 /oled/aux/line/3 \$1;
#X obj 1328 815 t b b b b;
#X msg 1083 877 /oled/aux/line/5 \$1;
#X obj 374 699 r oknob1;
#X obj 466 698 r oknob2;
#X obj 380 771 r oknob3;
#X obj 462 766 r oknob4;
#X msg 374 720 oknob1 \$1;
#X msg 466 719 oknob2 \$1;
#X msg 380 792 oknob3 \$1;
#X msg 462 787 oknob4 \$1;
#N canvas 132 237 1016 735 startDisp 0;
#X obj 36 10 inlet;
#X msg 13 467 \; screenLine1 Start 1: \$1 \;;
#X msg 82 505 \; screenLine2 Start 2: \$1 \;;
#X msg 229 472 \; screenLine3 Start 3: \$1 \;;
#X msg 298 510 \; screenLine4 Start 4: \$1 \;;
#X floatatom 36 76 5 0 0 0 - - -;
#X floatatom 107 79 5 0 0 0 - - -;
#X floatatom 180 79 5 0 0 0 - - -;
#X floatatom 258 81 5 0 0 0 - - -;
#X obj 513 18 bng 15 250 50 0 empty empty empty 17 7 0 10 -262144 -1
-1;
#X obj 513 38 delay 500;
#X obj 513 -6 r startActive-\$1;
#X floatatom 407 84 5 0 0 0 - - -;
#X msg 468 467 \; screenLine1 Start 5: \$1 \;;
#X msg 537 505 \; screenLine2 Start 6: \$1 \;;
#X msg 684 472 \; screenLine3 Start 7: \$1 \;;
#X msg 753 510 \; screenLine4 Start 8: \$1 \;;
#X obj 407 104 sel 0 1;
#X obj 17 436 spigot;
#X obj 81 436 spigot;
#X obj 160 436 spigot;
#X obj 224 436 spigot;
#X obj 490 435 spigot;
#X obj 554 435 spigot;
#X obj 633 435 spigot;
#X obj 697 435 spigot;
#X obj 370 229 tgl 15 0 empty empty empty 17 7 0 10 -262144 -1 -1 0
1;
#X obj 486 220 tgl 15 0 empty empty empty 17 7 0 10 -262144 -1 -1 0
1;
#X msg 364 126 1;
#X msg 385 149 0;
#X msg 428 130 1;
#X msg 458 142 0;
#X obj 36 31 route startLine1 startLine2 startLine3 startLine4 activeBank
, f 74;
#X connect 0 0 32 0;
#X connect 5 0 18 0;
#X connect 5 0 22 0;
#X connect 6 0 19 0;
#X connect 6 0 23 0;
#X connect 7 0 20 0;
#X connect 7 0 24 0;
#X connect 8 0 21 0;
#X connect 8 0 25 0;
#X connect 9 0 10 0;
#X connect 10 0 5 0;
#X connect 10 0 6 0;
#X connect 10 0 7 0;
#X connect 10 0 8 0;
#X connect 11 0 9 0;
#X connect 12 0 17 0;
#X connect 17 0 28 0;
#X connect 17 0 29 0;
#X connect 17 1 30 0;
#X connect 17 1 31 0;
#X connect 18 0 1 0;
#X connect 19 0 2 0;
#X connect 20 0 3 0;
#X connect 21 0 4 0;
#X connect 22 0 13 0;
#X connect 23 0 14 0;
#X connect 24 0 15 0;
#X connect 25 0 16 0;
#X connect 26 0 21 1;
#X connect 26 0 20 1;
#X connect 26 0 19 1;
#X connect 26 0 18 1;
#X connect 27 0 22 1;
#X connect 27 0 23 1;
#X connect 27 0 24 1;
#X connect 27 0 25 1;
#X connect 28 0 26 0;
#X connect 29 0 27 0;
#X connect 30 0 27 0;
#X connect 31 0 26 0;
#X connect 32 0 5 0;
#X connect 32 1 6 0;
#X connect 32 2 7 0;
#X connect 32 3 8 0;
#X connect 32 4 12 0;
#X restore 124 845 pd startDisp;
#X obj 912 499 route loaded screenLine1 screenLine2 screenLine3 screenLine4
fileView, f 83;
#N canvas 48 99 1695 595 routefilter 0;
#X obj 38 51 inlet;
#X obj 1568 143 outlet;
#X obj 40 78 route startLine1 startLine2 startLine3 startLine4 fileView
activeBank sampLine1 sampLine2 sampLine3 sampLine4 screenLine1 screenLine2
screenLine3 screenLine4 endLine1 endLine2 endLine3 endLine4 speedLine1
speedLine2 speedLine3 speedLine4 volLine1 volLine2 volLine3 volLine4
modeLine1 modeLine2 modeLine3 modeLine4 attackLine1 attackLine2 attackLine3
attackLine4 filtLine1 filtLine2 filtLine3 filtLine4 panLine1 panLine2
panLine3 panLine4 transLine1 transLine2 transLine3 transLine4 quantLine1
quantLine2 quantLine3 quantLine4, f 256;
#X connect 0 0 2 0;
#X connect 2 50 1 0;
#X restore 18 852 pd routefilter;
#N canvas 41 289 1016 672 sampDisp 0;
#X obj 36 10 inlet;
#X floatatom 36 76 5 0 0 0 - - -;
#X floatatom 107 79 5 0 0 0 - - -;
#X floatatom 180 79 5 0 0 0 - - -;
#X floatatom 258 81 5 0 0 0 - - -;
#X obj 509 5 bng 15 250 50 0 empty empty empty 17 7 0 10 -262144 -1
-1;
#X obj 509 25 delay 500;
#X floatatom 407 84 5 0 0 0 - - -;
#X obj 407 104 sel 0 1;
#X obj 17 436 spigot;
#X obj 81 436 spigot;
#X obj 160 436 spigot;
#X obj 224 436 spigot;
#X obj 490 435 spigot;
#X obj 554 435 spigot;
#X obj 633 435 spigot;
#X obj 697 435 spigot;
#X obj 370 229 tgl 15 0 empty empty empty 17 7 0 10 -262144 -1 -1 0
1;
#X obj 486 220 tgl 15 0 empty empty empty 17 7 0 10 -262144 -1 -1 0
1;
#X msg 364 126 1;
#X msg 385 149 0;
#X msg 428 130 1;
#X msg 458 142 0;
#X msg 13 467 \; screenLine1 Sample 1: \$1 \;;
#X msg 82 505 \; screenLine2 Sample 2: \$1 \;;
#X msg 229 472 \; screenLine3 Sample 3: \$1 \;;
#X msg 298 510 \; screenLine4 Sample 4: \$1 \;;
#X msg 468 467 \; screenLine1 Sample 5: \$1 \;;
#X msg 537 505 \; screenLine2 Sample 6: \$1 \;;
#X msg 684 472 \; screenLine3 Sample 7: \$1 \;;
#X msg 753 510 \; screenLine4 Sample 8: \$1 \;;
#X obj 469 -36 r sampActive-\$1;
#X obj 36 31 route sampLine1 sampLine2 sampLine3 sampLine4 activeBank
, f 74;
#X obj 359 104 bng 15 250 50 0 empty empty empty 17 7 0 10 -262144
-1 -1;
#X connect 0 0 32 0;
#X connect 1 0 9 0;
#X connect 1 0 13 0;
#X connect 2 0 10 0;
#X connect 2 0 14 0;
#X connect 3 0 11 0;
#X connect 3 0 15 0;
#X connect 4 0 12 0;
#X connect 4 0 16 0;
#X connect 5 0 6 0;
#X connect 6 0 1 0;
#X connect 6 0 2 0;
#X connect 6 0 3 0;
#X connect 6 0 4 0;
#X connect 7 0 8 0;
#X connect 8 0 19 0;
#X connect 8 0 20 0;
#X connect 8 1 21 0;
#X connect 8 1 22 0;
#X connect 9 0 23 0;
#X connect 10 0 24 0;
#X connect 11 0 25 0;
#X connect 12 0 26 0;
#X connect 13 0 27 0;
#X connect 14 0 28 0;
#X connect 15 0 29 0;
#X connect 16 0 30 0;
#X connect 17 0 12 1;
#X connect 17 0 11 1;
#X connect 17 0 10 1;
#X connect 17 0 9 1;
#X connect 18 0 13 1;
#X connect 18 0 14 1;
#X connect 18 0 15 1;
#X connect 18 0 16 1;
#X connect 19 0 17 0;
#X connect 20 0 18 0;
#X connect 21 0 18 0;
#X connect 22 0 17 0;
#X connect 31 0 5 0;
#X connect 32 0 1 0;
#X connect 32 1 2 0;
#X connect 32 2 3 0;
#X connect 32 3 4 0;
#X connect 32 4 7 0;
#X connect 32 4 33 0;
#X restore 224 845 pd sampDisp;
#N canvas 900 256 1016 672 endDisp 0;
#X obj 36 10 inlet;
#X floatatom 36 76 5 0 0 0 - - -;
#X floatatom 107 79 5 0 0 0 - - -;
#X floatatom 180 79 5 0 0 0 - - -;
#X floatatom 258 81 5 0 0 0 - - -;
#X obj 553 35 bng 15 250 50 0 empty empty empty 17 7 0 10 -262144 -1
-1;
#X floatatom 407 84 5 0 0 0 - - -;
#X obj 407 104 sel 0 1;
#X obj 17 436 spigot;
#X obj 81 436 spigot;
#X obj 160 436 spigot;
#X obj 224 436 spigot;
#X obj 490 435 spigot;
#X obj 554 435 spigot;
#X obj 633 435 spigot;
#X obj 697 435 spigot;
#X obj 370 229 tgl 15 0 empty empty empty 17 7 0 10 -262144 -1 -1 0
1;
#X obj 486 220 tgl 15 0 empty empty empty 17 7 0 10 -262144 -1 -1 0
1;
#X msg 364 126 1;
#X msg 385 149 0;
#X msg 428 130 1;
#X msg 458 142 0;
#X msg 13 467 \; screenLine1 End 1: \$1 \;;
#X msg 82 505 \; screenLine2 End 2: \$1 \;;
#X msg 229 472 \; screenLine3 End 3: \$1 \;;
#X msg 298 510 \; screenLine4 End 4: \$1 \;;
#X msg 468 467 \; screenLine1 End 5: \$1 \;;
#X msg 537 505 \; screenLine2 End 6: \$1 \;;
#X msg 684 472 \; screenLine3 End 7: \$1 \;;
#X msg 753 510 \; screenLine4 End 8: \$1 \;;
#X obj 513 -6 r endActive-\$1;
#X obj 36 31 route endLine1 endLine2 endLine3 endLine4 activeBank,
f 74;
#X obj 507 54 delay 550;
#X connect 0 0 31 0;
#X connect 1 0 8 0;
#X connect 1 0 12 0;
#X connect 2 0 9 0;
#X connect 2 0 13 0;
#X connect 3 0 10 0;
#X connect 3 0 14 0;
#X connect 4 0 11 0;
#X connect 4 0 15 0;
#X connect 5 0 32 0;
#X connect 6 0 7 0;
#X connect 7 0 18 0;
#X connect 7 0 19 0;
#X connect 7 1 20 0;
#X connect 7 1 21 0;
#X connect 8 0 22 0;
#X connect 9 0 23 0;
#X connect 10 0 24 0;
#X connect 11 0 25 0;
#X connect 12 0 26 0;
#X connect 13 0 27 0;
#X connect 14 0 28 0;
#X connect 15 0 29 0;
#X connect 16 0 11 1;
#X connect 16 0 10 1;
#X connect 16 0 9 1;
#X connect 16 0 8 1;
#X connect 17 0 12 1;
#X connect 17 0 13 1;
#X connect 17 0 14 1;
#X connect 17 0 15 1;
#X connect 18 0 16 0;
#X connect 19 0 17 0;
#X connect 20 0 17 0;
#X connect 21 0 16 0;
#X connect 30 0 5 0;
#X connect 31 0 1 0;
#X connect 31 1 2 0;
#X connect 31 2 3 0;
#X connect 31 3 4 0;
#X connect 31 4 6 0;
#X connect 32 0 1 0;
#X connect 32 0 2 0;
#X connect 32 0 3 0;
#X connect 32 0 4 0;
#X restore 191 874 pd endDisp;
#N canvas 132 237 1016 735 speedDisp 0;
#X obj 36 10 inlet;
#X floatatom 36 76 5 0 0 0 - - -;
#X floatatom 107 79 5 0 0 0 - - -;
#X floatatom 180 79 5 0 0 0 - - -;
#X floatatom 258 81 5 0 0 0 - - -;
#X obj 513 18 bng 15 250 50 0 empty empty empty 17 7 0 10 -262144 -1
-1;
#X obj 513 38 delay 500;
#X floatatom 407 84 5 0 0 0 - - -;
#X obj 407 104 sel 0 1;
#X obj 17 436 spigot;
#X obj 81 436 spigot;
#X obj 160 436 spigot;
#X obj 224 436 spigot;
#X obj 490 435 spigot;
#X obj 554 435 spigot;
#X obj 633 435 spigot;
#X obj 697 435 spigot;
#X obj 370 229 tgl 15 0 empty empty empty 17 7 0 10 -262144 -1 -1 0
1;
#X obj 486 220 tgl 15 0 empty empty empty 17 7 0 10 -262144 -1 -1 0
1;
#X msg 364 126 1;
#X msg 385 149 0;
#X msg 428 130 1;
#X msg 458 142 0;
#X obj 36 32 route speedLine1 speedLine2 speedLine3 speedLine4 activeBank
, f 74;
#X obj 513 -6 r speedActive-\$1;
#X msg 13 467 \; screenLine1 Speed 1: \$1 \;;
#X msg 82 505 \; screenLine2 Speed 2: \$1 \;;
#X msg 229 472 \; screenLine3 Speed 3: \$1 \;;
#X msg 298 510 \; screenLine4 Speed 4: \$1 \;;
#X msg 468 467 \; screenLine1 Speed 5: \$1 \;;
#X msg 537 505 \; screenLine2 Speed 6: \$1 \;;
#X msg 684 472 \; screenLine3 Speed 7: \$1 \;;
#X msg 753 510 \; screenLine4 Speed 8: \$1 \;;
#X connect 0 0 23 0;
#X connect 1 0 9 0;
#X connect 1 0 13 0;
#X connect 2 0 10 0;
#X connect 2 0 14 0;
#X connect 3 0 11 0;
#X connect 3 0 15 0;
#X connect 4 0 12 0;
#X connect 4 0 16 0;
#X connect 5 0 6 0;
#X connect 6 0 1 0;
#X connect 6 0 2 0;
#X connect 6 0 3 0;
#X connect 6 0 4 0;
#X connect 7 0 8 0;
#X connect 8 0 19 0;
#X connect 8 0 20 0;
#X connect 8 1 21 0;
#X connect 8 1 22 0;
#X connect 9 0 25 0;
#X connect 10 0 26 0;
#X connect 11 0 27 0;
#X connect 12 0 28 0;
#X connect 13 0 29 0;
#X connect 14 0 30 0;
#X connect 15 0 31 0;
#X connect 16 0 32 0;
#X connect 17 0 12 1;
#X connect 17 0 11 1;
#X connect 17 0 10 1;
#X connect 17 0 9 1;
#X connect 18 0 13 1;
#X connect 18 0 14 1;
#X connect 18 0 15 1;
#X connect 18 0 16 1;
#X connect 19 0 17 0;
#X connect 20 0 18 0;
#X connect 21 0 18 0;
#X connect 22 0 17 0;
#X connect 23 0 1 0;
#X connect 23 1 2 0;
#X connect 23 2 3 0;
#X connect 23 3 4 0;
#X connect 23 4 7 0;
#X connect 24 0 5 0;
#X restore 305 845 pd speedDisp;
#N canvas 900 256 1016 672 volDisp 0;
#X obj 36 10 inlet;
#X floatatom 36 76 5 0 0 0 - - -;
#X floatatom 107 79 5 0 0 0 - - -;
#X floatatom 180 79 5 0 0 0 - - -;
#X floatatom 258 81 5 0 0 0 - - -;
#X obj 553 35 bng 15 250 50 0 empty empty empty 17 7 0 10 -262144 -1
-1;
#X floatatom 407 84 5 0 0 0 - - -;
#X obj 407 104 sel 0 1;
#X obj 17 436 spigot;
#X obj 81 436 spigot;
#X obj 160 436 spigot;
#X obj 224 436 spigot;
#X obj 490 435 spigot;
#X obj 554 435 spigot;
#X obj 633 435 spigot;
#X obj 697 435 spigot;
#X obj 370 229 tgl 15 0 empty empty empty 17 7 0 10 -262144 -1 -1 0
1;
#X obj 486 220 tgl 15 0 empty empty empty 17 7 0 10 -262144 -1 -1 0
1;
#X msg 364 126 1;
#X msg 385 149 0;
#X msg 428 130 1;
#X msg 458 142 0;
#X obj 507 54 delay 550;
#X msg 13 467 \; screenLine1 Vol 1: \$1 \;;
#X msg 82 505 \; screenLine2 Vol 2: \$1 \;;
#X msg 229 472 \; screenLine3 Vol 3: \$1 \;;
#X msg 298 510 \; screenLine4 Vol 4: \$1 \;;
#X msg 468 467 \; screenLine1 Vol 5: \$1 \;;
#X msg 537 505 \; screenLine2 Vol 6: \$1 \;;
#X msg 684 472 \; screenLine3 Vol 7: \$1 \;;
#X msg 753 510 \; screenLine4 Vol 8: \$1 \;;
#X obj 37 31 route volLine1 volLine2 volLine3 volLine4 activeBank,
f 74;
#X obj 513 -6 r volActive-\$1;
#X connect 0 0 31 0;
#X connect 1 0 8 0;
#X connect 1 0 12 0;
#X connect 2 0 9 0;
#X connect 2 0 13 0;
#X connect 3 0 10 0;
#X connect 3 0 14 0;
#X connect 4 0 11 0;
#X connect 4 0 15 0;
#X connect 5 0 22 0;
#X connect 6 0 7 0;
#X connect 7 0 18 0;
#X connect 7 0 19 0;
#X connect 7 1 20 0;
#X connect 7 1 21 0;
#X connect 8 0 23 0;
#X connect 9 0 24 0;
#X connect 10 0 25 0;
#X connect 11 0 26 0;
#X connect 12 0 27 0;
#X connect 13 0 28 0;
#X connect 14 0 29 0;
#X connect 15 0 30 0;
#X connect 16 0 11 1;
#X connect 16 0 10 1;
#X connect 16 0 9 1;
#X connect 16 0 8 1;
#X connect 17 0 12 1;
#X connect 17 0 13 1;
#X connect 17 0 14 1;
#X connect 17 0 15 1;
#X connect 18 0 16 0;
#X connect 19 0 17 0;
#X connect 20 0 17 0;
#X connect 21 0 16 0;
#X connect 22 0 1 0;
#X connect 22 0 2 0;
#X connect 22 0 3 0;
#X connect 22 0 4 0;
#X connect 31 0 1 0;
#X connect 31 1 2 0;
#X connect 31 2 3 0;
#X connect 31 3 4 0;
#X connect 31 4 6 0;
#X connect 32 0 5 0;
#X restore 283 874 pd volDisp;
#N canvas 41 289 1016 672 modeDisp 0;
#X obj 36 10 inlet;
#X floatatom 36 76 5 0 0 0 - - -;
#X floatatom 107 79 5 0 0 0 - - -;
#X floatatom 180 79 5 0 0 0 - - -;
#X floatatom 258 81 5 0 0 0 - - -;
#X obj 509 5 bng 15 250 50 0 empty empty empty 17 7 0 10 -262144 -1
-1;
#X obj 509 25 delay 500;
#X floatatom 407 84 5 0 0 0 - - -;
#X obj 407 104 sel 0 1;
#X obj 17 436 spigot;
#X obj 81 436 spigot;
#X obj 160 436 spigot;
#X obj 224 436 spigot;
#X obj 490 435 spigot;
#X obj 554 435 spigot;
#X obj 633 435 spigot;
#X obj 697 435 spigot;
#X obj 370 229 tgl 15 0 empty empty empty 17 7 0 10 -262144 -1 -1 0
1;
#X obj 486 220 tgl 15 0 empty empty empty 17 7 0 10 -262144 -1 -1 0
1;
#X msg 364 126 1;
#X msg 385 149 0;
#X msg 428 130 1;
#X msg 458 142 0;
#X obj 359 104 bng 15 250 50 0 empty empty empty 17 7 0 10 -262144
-1 -1;
#X obj 469 -36 r modeActive-\$1;
#X obj 36 31 route modeLine1 modeLine2 modeLine3 modeLine4 activeBank
, f 74;
#X msg 13 467 \; screenLine1 Mode 1: \$1 \;;
#X msg 82 505 \; screenLine2 Mode 2: \$1 \;;
#X msg 229 472 \; screenLine3 Mode 3: \$1 \;;
#X msg 298 510 \; screenLine4 Mode 4: \$1 \;;
#X msg 468 467 \; screenLine1 Mode 5: \$1 \;;
#X msg 537 505 \; screenLine2 Mode 6: \$1 \;;
#X msg 684 472 \; screenLine3 Mode 7: \$1 \;;
#X msg 753 510 \; screenLine4 Mode 8: \$1 \;;
#X connect 0 0 25 0;
#X connect 1 0 9 0;
#X connect 1 0 13 0;
#X connect 2 0 10 0;
#X connect 2 0 14 0;
#X connect 3 0 11 0;
#X connect 3 0 15 0;
#X connect 4 0 12 0;
#X connect 4 0 16 0;
#X connect 5 0 6 0;
#X connect 6 0 1 0;
#X connect 6 0 2 0;
#X connect 6 0 3 0;
#X connect 6 0 4 0;
#X connect 7 0 8 0;
#X connect 8 0 19 0;
#X connect 8 0 20 0;
#X connect 8 1 21 0;
#X connect 8 1 22 0;
#X connect 9 0 26 0;
#X connect 10 0 27 0;
#X connect 11 0 28 0;
#X connect 12 0 29 0;
#X connect 13 0 30 0;
#X connect 14 0 31 0;
#X connect 15 0 32 0;
#X connect 16 0 33 0;
#X connect 17 0 12 1;
#X connect 17 0 11 1;
#X connect 17 0 10 1;
#X connect 17 0 9 1;
#X connect 18 0 13 1;
#X connect 18 0 14 1;
#X connect 18 0 15 1;
#X connect 18 0 16 1;
#X connect 19 0 17 0;
#X connect 20 0 18 0;
#X connect 21 0 18 0;
#X connect 22 0 17 0;
#X connect 24 0 5 0;
#X connect 25 0 1 0;
#X connect 25 1 2 0;
#X connect 25 2 3 0;
#X connect 25 3 4 0;
#X connect 25 4 7 0;
#X connect 25 4 23 0;
#X restore 371 874 pd modeDisp;
#N canvas 132 237 1016 735 attackDisp 0;
#X obj 36 10 inlet;
#X floatatom 36 76 5 0 0 0 - - -;
#X floatatom 107 79 5 0 0 0 - - -;
#X floatatom 180 79 5 0 0 0 - - -;
#X floatatom 258 81 5 0 0 0 - - -;
#X obj 513 18 bng 15 250 50 0 empty empty empty 17 7 0 10 -262144 -1
-1;
#X obj 513 38 delay 500;
#X floatatom 407 84 5 0 0 0 - - -;
#X obj 407 104 sel 0 1;
#X obj 17 436 spigot;
#X obj 81 436 spigot;
#X obj 160 436 spigot;
#X obj 224 436 spigot;
#X obj 490 435 spigot;
#X obj 554 435 spigot;
#X obj 633 435 spigot;
#X obj 697 435 spigot;
#X obj 370 229 tgl 15 0 empty empty empty 17 7 0 10 -262144 -1 -1 0
1;
#X obj 486 220 tgl 15 0 empty empty empty 17 7 0 10 -262144 -1 -1 0
1;
#X msg 364 126 1;
#X msg 385 149 0;
#X msg 428 130 1;
#X msg 458 142 0;
#X obj 36 31 route attackLine1 attackLine2 attackLine3 attackLine4
activeBank, f 74;
#X obj 513 -6 r attackActive-\$1;
#X msg 13 467 \; screenLine1 Attack 1: \$1 \;;
#X msg 82 505 \; screenLine2 Attack 2: \$1 \;;
#X msg 229 472 \; screenLine3 Attack 3: \$1 \;;
#X msg 298 510 \; screenLine4 Attack 4: \$1 \;;
#X msg 468 467 \; screenLine1 Attack 5: \$1 \;;
#X msg 537 505 \; screenLine2 Attack 6: \$1 \;;
#X msg 684 472 \; screenLine3 Attack 7: \$1 \;;
#X msg 753 510 \; screenLine4 Attack 8: \$1 \;;
#X connect 0 0 23 0;
#X connect 1 0 9 0;
#X connect 1 0 13 0;
#X connect 2 0 10 0;
#X connect 2 0 14 0;
#X connect 3 0 11 0;
#X connect 3 0 15 0;
#X connect 4 0 12 0;
#X connect 4 0 16 0;
#X connect 5 0 6 0;
#X connect 6 0 1 0;
#X connect 6 0 2 0;
#X connect 6 0 3 0;
#X connect 6 0 4 0;
#X connect 7 0 8 0;
#X connect 8 0 19 0;
#X connect 8 0 20 0;
#X connect 8 1 21 0;
#X connect 8 1 22 0;
#X connect 9 0 25 0;
#X connect 10 0 26 0;
#X connect 11 0 27 0;
#X connect 12 0 28 0;
#X connect 13 0 29 0;
#X connect 14 0 30 0;
#X connect 15 0 31 0;
#X connect 16 0 32 0;
#X connect 17 0 12 1;
#X connect 17 0 11 1;
#X connect 17 0 10 1;
#X connect 17 0 9 1;
#X connect 18 0 13 1;
#X connect 18 0 14 1;
#X connect 18 0 15 1;
#X connect 18 0 16 1;
#X connect 19 0 17 0;
#X connect 20 0 18 0;
#X connect 21 0 18 0;
#X connect 22 0 17 0;
#X connect 23 0 1 0;
#X connect 23 1 2 0;
#X connect 23 2 3 0;
#X connect 23 3 4 0;
#X connect 23 4 7 0;
#X connect 24 0 5 0;
#X restore 389 845 pd attackDisp;
#N canvas 67 167 1016 672 panDisp 0;
#X obj 36 10 inlet;
#X floatatom 36 76 5 0 0 0 - - -;
#X floatatom 107 79 5 0 0 0 - - -;
#X floatatom 180 79 5 0 0 0 - - -;
#X floatatom 258 81 5 0 0 0 - - -;
#X obj 509 5 bng 15 250 50 0 empty empty empty 17 7 0 10 -262144 -1
-1;
#X obj 509 25 delay 500;
#X floatatom 407 84 5 0 0 0 - - -;
#X obj 407 104 sel 0 1;
#X obj 17 436 spigot;
#X obj 81 436 spigot;
#X obj 160 436 spigot;
#X obj 224 436 spigot;
#X obj 490 435 spigot;
#X obj 554 435 spigot;
#X obj 633 435 spigot;
#X obj 697 435 spigot;
#X obj 370 229 tgl 15 0 empty empty empty 17 7 0 10 -262144 -1 -1 0
1;
#X obj 486 220 tgl 15 0 empty empty empty 17 7 0 10 -262144 -1 -1 0
1;
#X msg 364 126 1;
#X msg 385 149 0;
#X msg 428 130 1;
#X msg 458 142 0;
#X obj 359 104 bng 15 250 50 0 empty empty empty 17 7 0 10 -262144
-1 -1;
#X obj 36 31 route panLine1 panLine2 panLine3 panLine4 activeBank,
f 74;
#X obj 469 -36 r panActive-\$1;
#X msg 13 467 \; screenLine1 Pan 1: \$1 \;;
#X msg 82 505 \; screenLine2 Pan 2: \$1 \;;
#X msg 229 472 \; screenLine3 Pan 3: \$1 \;;
#X msg 298 510 \; screenLine4 Pan 4: \$1 \;;
#X msg 468 467 \; screenLine1 Pan 5: \$1 \;;
#X msg 537 505 \; screenLine2 Pan 6: \$1 \;;
#X msg 684 472 \; screenLine3 Pan 7: \$1 \;;
#X msg 753 510 \; screenLine4 Pan 8: \$1 \;;
#X connect 0 0 24 0;
#X connect 1 0 9 0;
#X connect 1 0 13 0;
#X connect 2 0 10 0;
#X connect 2 0 14 0;
#X connect 3 0 11 0;
#X connect 3 0 15 0;
#X connect 4 0 12 0;
#X connect 4 0 16 0;
#X connect 5 0 6 0;
#X connect 6 0 1 0;
#X connect 6 0 2 0;
#X connect 6 0 3 0;
#X connect 6 0 4 0;
#X connect 7 0 8 0;
#X connect 8 0 19 0;
#X connect 8 0 20 0;
#X connect 8 1 21 0;
#X connect 8 1 22 0;
#X connect 9 0 26 0;
#X connect 10 0 27 0;
#X connect 11 0 28 0;
#X connect 12 0 29 0;
#X connect 13 0 30 0;
#X connect 14 0 31 0;
#X connect 15 0 32 0;
#X connect 16 0 33 0;
#X connect 17 0 12 1;
#X connect 17 0 11 1;
#X connect 17 0 10 1;
#X connect 17 0 9 1;
#X connect 18 0 13 1;
#X connect 18 0 14 1;
#X connect 18 0 15 1;
#X connect 18 0 16 1;
#X connect 19 0 17 0;
#X connect 20 0 18 0;
#X connect 21 0 18 0;
#X connect 22 0 17 0;
#X connect 24 0 1 0;
#X connect 24 1 2 0;
#X connect 24 2 3 0;
#X connect 24 3 4 0;
#X connect 24 4 7 0;
#X connect 24 4 23 0;
#X connect 25 0 5 0;
#X restore 489 845 pd panDisp;
#N canvas 900 256 1016 672 filtDisp 0;
#X obj 36 10 inlet;
#X floatatom 36 76 5 0 0 0 - - -;
#X floatatom 107 79 5 0 0 0 - - -;
#X floatatom 180 79 5 0 0 0 - - -;
#X floatatom 258 81 5 0 0 0 - - -;
#X obj 553 35 bng 15 250 50 0 empty empty empty 17 7 0 10 -262144 -1
-1;
#X floatatom 407 84 5 0 0 0 - - -;
#X obj 407 104 sel 0 1;
#X obj 17 436 spigot;
#X obj 81 436 spigot;
#X obj 160 436 spigot;
#X obj 224 436 spigot;
#X obj 490 435 spigot;
#X obj 554 435 spigot;
#X obj 633 435 spigot;
#X obj 697 435 spigot;
#X obj 370 229 tgl 15 0 empty empty empty 17 7 0 10 -262144 -1 -1 0
1;
#X obj 486 220 tgl 15 0 empty empty empty 17 7 0 10 -262144 -1 -1 0
1;
#X msg 364 126 1;
#X msg 385 149 0;
#X msg 428 130 1;
#X msg 458 142 0;
#X obj 507 54 delay 550;
#X obj 37 31 route filtLine1 filtLine2 filtLine3 filtLine4 activeBank
, f 74;
#X obj 513 -6 r filtActive-\$1;
#X msg 13 467 \; screenLine1 Filt 1: \$1 \;;
#X msg 82 505 \; screenLine2 Filt 2: \$1 \;;
#X msg 229 472 \; screenLine3 Filt 3: \$1 \;;
#X msg 298 510 \; screenLine4 Filt 4: \$1 \;;
#X msg 468 467 \; screenLine1 Filt 5: \$1 \;;
#X msg 537 505 \; screenLine2 Filt 6: \$1 \;;
#X msg 684 472 \; screenLine3 Filt 7: \$1 \;;
#X msg 753 510 \; screenLine4 Filt 8: \$1 \;;
#X connect 0 0 23 0;
#X connect 1 0 8 0;
#X connect 1 0 12 0;
#X connect 2 0 9 0;
#X connect 2 0 13 0;
#X connect 3 0 10 0;
#X connect 3 0 14 0;
#X connect 4 0 11 0;
#X connect 4 0 15 0;
#X connect 5 0 22 0;
#X connect 6 0 7 0;
#X connect 7 0 18 0;
#X connect 7 0 19 0;
#X connect 7 1 20 0;
#X connect 7 1 21 0;
#X connect 8 0 25 0;
#X connect 9 0 26 0;
#X connect 10 0 27 0;
#X connect 11 0 28 0;
#X connect 12 0 29 0;
#X connect 13 0 30 0;
#X connect 14 0 31 0;
#X connect 15 0 32 0;
#X connect 16 0 11 1;
#X connect 16 0 10 1;
#X connect 16 0 9 1;
#X connect 16 0 8 1;
#X connect 17 0 12 1;
#X connect 17 0 13 1;
#X connect 17 0 14 1;
#X connect 17 0 15 1;
#X connect 18 0 16 0;
#X connect 19 0 17 0;
#X connect 20 0 17 0;
#X connect 21 0 16 0;
#X connect 22 0 1 0;
#X connect 22 0 2 0;
#X connect 22 0 3 0;
#X connect 22 0 4 0;
#X connect 23 0 1 0;
#X connect 23 1 2 0;
#X connect 23 2 3 0;
#X connect 23 3 4 0;
#X connect 23 4 6 0;
#X connect 24 0 5 0;
#X restore 456 874 pd filtDisp;
#N canvas 822 265 1016 672 transDisp 0;
#X obj 36 10 inlet;
#X floatatom 36 76 5 0 0 0 - - -;
#X floatatom 107 79 5 0 0 0 - - -;
#X floatatom 180 79 5 0 0 0 - - -;
#X floatatom 258 81 5 0 0 0 - - -;
#X obj 553 35 bng 15 250 50 0 empty empty empty 17 7 0 10 -262144 -1
-1;
#X floatatom 407 84 5 0 0 0 - - -;
#X obj 407 104 sel 0 1;
#X obj 17 436 spigot;
#X obj 81 436 spigot;
#X obj 160 436 spigot;
#X obj 224 436 spigot;
#X obj 490 435 spigot;
#X obj 554 435 spigot;
#X obj 633 435 spigot;
#X obj 697 435 spigot;
#X obj 370 229 tgl 15 0 empty empty empty 17 7 0 10 -262144 -1 -1 0
1;
#X obj 486 220 tgl 15 0 empty empty empty 17 7 0 10 -262144 -1 -1 0
1;
#X msg 364 126 1;
#X msg 385 149 0;
#X msg 428 130 1;
#X msg 458 142 0;
#X obj 36 31 route transLine1 transLine2 transLine3 transLine4 activeBank
, f 74;
#X obj 513 -6 r transActive-\$1;
#X msg 13 467 \; screenLine1 Trans 1: \$1 \;;
#X msg 82 505 \; screenLine2 Trans 2: \$1 \;;
#X msg 229 472 \; screenLine3 Trans 3: \$1 \;;
#X msg 298 510 \; screenLine4 Trans 4: \$1 \;;
#X msg 468 467 \; screenLine1 Trans 5: \$1 \;;
#X msg 537 505 \; screenLine2 Trans 6: \$1 \;;
#X msg 683 472 \; screenLine3 Trans 7: \$1 \;;
#X msg 753 510 \; screenLine4 Trans 8: \$1 \;;
#X obj 507 54 delay 500;
#X connect 0 0 22 0;
#X connect 1 0 8 0;
#X connect 1 0 12 0;
#X connect 2 0 9 0;
#X connect 2 0 13 0;
#X connect 3 0 10 0;
#X connect 3 0 14 0;
#X connect 4 0 11 0;
#X connect 4 0 15 0;
#X connect 5 0 32 0;
#X connect 6 0 7 0;
#X connect 7 0 18 0;
#X connect 7 0 19 0;
#X connect 7 1 20 0;
#X connect 7 1 21 0;
#X connect 8 0 24 0;
#X connect 9 0 25 0;
#X connect 10 0 26 0;
#X connect 11 0 27 0;
#X connect 12 0 28 0;
#X connect 13 0 29 0;
#X connect 14 0 30 0;
#X connect 15 0 31 0;
#X connect 16 0 11 1;
#X connect 16 0 10 1;
#X connect 16 0 9 1;
#X connect 16 0 8 1;
#X connect 17 0 12 1;
#X connect 17 0 13 1;
#X connect 17 0 14 1;
#X connect 17 0 15 1;
#X connect 18 0 16 0;
#X connect 19 0 17 0;
#X connect 20 0 17 0;
#X connect 21 0 16 0;
#X connect 22 0 1 0;
#X connect 22 1 2 0;
#X connect 22 2 3 0;
#X connect 22 3 4 0;
#X connect 22 4 6 0;
#X connect 23 0 5 0;
#X connect 32 0 4 0;
#X connect 32 0 3 0;
#X connect 32 0 2 0;
#X connect 32 0 1 0;
#X restore 541 874 pd transDisp;
#X obj 88 194 &&;
#X obj 88 215 change;
#X msg 88 236 act \$1;
#X msg 328 29 1;
#X obj 649 393 r rackSavePreset;
#X obj 904 565 s load-\$1;
#X obj 998 25 r load-\$1;
#X obj 95 97 sel pg_samps pg_start pg_end pg_speed pg_vol pg_mode pg_attack
pg_filt pg_pan pg_trans pg_setup pg_quant, f 109;
#N canvas 822 265 1016 672 quantDisp 0;
#X obj 36 10 inlet;
#X floatatom 36 76 5 0 0 0 - - -;
#X floatatom 107 79 5 0 0 0 - - -;
#X floatatom 180 79 5 0 0 0 - - -;
#X floatatom 258 81 5 0 0 0 - - -;
#X obj 553 35 bng 15 250 50 0 empty empty empty 17 7 0 10 -262144 -1
-1;
#X floatatom 407 84 5 0 0 0 - - -;
#X obj 407 104 sel 0 1;
#X obj 17 436 spigot;
#X obj 81 436 spigot;
#X obj 160 436 spigot;
#X obj 224 436 spigot;
#X obj 490 435 spigot;
#X obj 554 435 spigot;
#X obj 633 435 spigot;
#X obj 697 435 spigot;
#X obj 370 229 tgl 15 0 empty empty empty 17 7 0 10 -262144 -1 -1 0
1;
#X obj 486 220 tgl 15 0 empty empty empty 17 7 0 10 -262144 -1 -1 0
1;
#X msg 364 126 1;
#X msg 385 149 0;
#X msg 428 130 1;
#X msg 458 142 0;
#X obj 507 54 delay 500;
#X obj 36 31 route quantLine1 quantLine2 quantLine3 quantLine4 activeBank
, f 74;
#X obj 513 -6 r quantActive-\$1;
#X msg 10 467 \; screenLine1 Quant 1: \$1 \;;
#X msg 82 505 \; screenLine2 Quant 2: \$1 \;;
#X msg 229 472 \; screenLine3 Quant 3: \$1 \;;
#X msg 298 509 \; screenLine4 Quant 4: \$1 \;;
#X msg 468 467 \; screenLine1 Quant 5: \$1 \;;
#X msg 537 505 \; screenLine2 Quant 6: \$1 \;;
#X msg 683 472 \; screenLine3 Quant 7: \$1 \;;
#X msg 750 510 \; screenLine4 Quant 8: \$1 \;;
#X connect 0 0 23 0;
#X connect 1 0 8 0;
#X connect 1 0 12 0;
#X connect 2 0 9 0;
#X connect 2 0 13 0;
#X connect 3 0 10 0;
#X connect 3 0 14 0;
#X connect 4 0 11 0;
#X connect 4 0 15 0;
#X connect 5 0 22 0;
#X connect 6 0 7 0;
#X connect 7 0 18 0;
#X connect 7 0 19 0;
#X connect 7 1 20 0;
#X connect 7 1 21 0;
#X connect 8 0 25 0;
#X connect 9 0 26 0;
#X connect 10 0 27 0;
#X connect 11 0 28 0;
#X connect 12 0 29 0;
#X connect 13 0 30 0;
#X connect 14 0 31 0;
#X connect 15 0 32 0;
#X connect 16 0 11 1;
#X connect 16 0 10 1;
#X connect 16 0 9 1;
#X connect 16 0 8 1;
#X connect 17 0 12 1;
#X connect 17 0 13 1;
#X connect 17 0 14 1;
#X connect 17 0 15 1;
#X connect 18 0 16 0;
#X connect 19 0 17 0;
#X connect 20 0 17 0;
#X connect 21 0 16 0;
#X connect 22 0 4 0;
#X connect 22 0 3 0;
#X connect 22 0 2 0;
#X connect 22 0 1 0;
#X connect 23 0 1 0;
#X connect 23 1 2 0;
#X connect 23 2 3 0;
#X connect 23 3 4 0;
#X connect 23 4 6 0;
#X connect 24 0 5 0;
#X restore 575 847 pd quantDisp;
#X msg 22 30 pd~ start -nogui pd~-octaloops.pd;
#X connect 0 0 32 0;
#X connect 2 0 9 0;
#X connect 3 0 9 1;
#X connect 6 0 31 0;
#X connect 6 0 52 0;
#X connect 8 0 61 0;
#X connect 9 0 28 0;
#X connect 9 0 121 0;
#X connect 9 0 122 0;
#X connect 9 0 124 0;
#X connect 9 0 125 0;
#X connect 9 0 127 0;
#X connect 9 0 126 0;
#X connect 9 0 128 0;
#X connect 9 0 129 0;
#X connect 9 0 131 0;
#X connect 9 0 130 0;
#X connect 9 0 132 0;
#X connect 9 0 141 0;
#X connect 9 1 4 0;
#X connect 9 2 5 0;
#X connect 10 0 11 0;
#X connect 11 0 12 0;
#X connect 11 1 140 0;
#X connect 12 0 13 0;
#X connect 12 1 14 0;
#X connect 13 0 15 0;
#X connect 13 0 26 0;
#X connect 13 0 133 0;
#X connect 14 0 15 0;
#X connect 14 0 26 0;
#X connect 14 0 133 0;
#X connect 15 0 19 0;
#X connect 16 0 15 1;
#X connect 16 0 26 1;
#X connect 17 0 142 0;
#X connect 18 0 9 0;
#X connect 19 0 18 0;
#X connect 20 0 21 0;
#X connect 21 0 9 0;
#X connect 22 0 23 0;
#X connect 23 0 9 0;
#X connect 24 0 25 0;
#X connect 25 0 9 0;
#X connect 26 0 27 0;
#X connect 27 0 28 1;
#X connect 27 0 37 0;
#X connect 28 0 123 0;
#X connect 30 0 26 1;
#X connect 31 0 9 0;
#X connect 32 0 33 0;
#X connect 32 1 40 0;
#X connect 33 0 9 0;
#X connect 35 0 15 1;
#X connect 36 0 15 1;
#X connect 36 0 26 1;
#X connect 36 0 133 1;
#X connect 37 0 38 0;
#X connect 38 0 39 0;
#X connect 40 0 9 0;
#X connect 52 0 53 0;
#X connect 53 0 54 0;
#X connect 53 1 56 0;
#X connect 54 0 55 0;
#X connect 56 0 55 0;
#X connect 57 0 58 0;
#X connect 57 1 60 0;
#X connect 57 2 59 0;
#X connect 58 0 9 0;
#X connect 59 0 9 0;
#X connect 60 0 9 0;
#X connect 61 0 9 0;
#X connect 62 0 9 0;
#X connect 63 0 62 0;
#X connect 64 0 71 0;
#X connect 64 1 70 0;
#X connect 64 2 67 0;
#X connect 65 0 67 0;
#X connect 66 0 71 0;
#X connect 67 0 68 0;
#X connect 68 0 69 0;
#X connect 70 0 79 0;
#X connect 71 0 85 0;
#X connect 73 0 74 0;
#X connect 74 0 81 0;
#X connect 75 0 74 0;
#X connect 76 0 77 0;
#X connect 77 0 80 0;
#X connect 78 0 77 0;
#X connect 79 0 83 0;
#X connect 80 0 82 0;
#X connect 81 0 84 0;
#X connect 82 0 9 0;
#X connect 83 0 9 0;
#X connect 84 0 9 0;
#X connect 85 0 72 0;
#X connect 86 0 9 0;
#X connect 87 0 111 0;
#X connect 87 1 104 0;
#X connect 88 0 99 0;
#X connect 89 0 107 0;
#X connect 90 0 89 0;
#X connect 91 0 108 0;
#X connect 92 0 91 0;
#X connect 93 0 110 0;
#X connect 94 0 93 0;
#X connect 95 0 109 0;
#X connect 96 0 95 0;
#X connect 97 0 98 0;
#X connect 97 1 89 0;
#X connect 97 2 91 0;
#X connect 97 3 93 0;
#X connect 97 4 95 0;
#X connect 97 5 88 0;
#X connect 98 0 99 0;
#X connect 100 0 104 0;
#X connect 101 0 99 0;
#X connect 102 0 99 0;
#X connect 103 0 87 0;
#X connect 104 0 97 0;
#X connect 105 0 9 0;
#X connect 106 0 9 0;
#X connect 107 0 99 0;
#X connect 108 0 99 0;
#X connect 109 0 99 0;
#X connect 110 0 99 0;
#X connect 111 0 112 0;
#X connect 111 1 102 0;
#X connect 111 2 101 0;
#X connect 111 3 100 0;
#X connect 112 0 99 0;
#X connect 113 0 117 0;
#X connect 114 0 118 0;
#X connect 115 0 119 0;
#X connect 116 0 120 0;
#X connect 117 0 9 0;
#X connect 118 0 9 0;
#X connect 119 0 9 0;
#X connect 120 0 9 0;
#X connect 122 0 138 0;
#X connect 122 1 90 0;
#X connect 122 2 92 0;
#X connect 122 3 94 0;
#X connect 122 4 96 0;
#X connect 122 5 103 0;
#X connect 123 0 29 0;
#X connect 133 0 134 0;
#X connect 134 0 135 0;
#X connect 135 0 9 0;
#X connect 136 0 133 1;
#X connect 137 0 86 0;
#X connect 139 0 64 0;
#X connect 140 0 16 0;
#X connect 140 0 34 0;
#X connect 140 0 136 0;
#X connect 140 0 106 0;
#X connect 140 1 35 0;
#X connect 140 1 30 0;
#X connect 140 1 106 1;
#X connect 140 1 136 0;
#X connect 140 2 30 0;
#X connect 140 2 35 0;
#X connect 140 2 106 2;
#X connect 140 2 136 0;
#X connect 140 3 35 0;
#X connect 140 3 30 0;
#X connect 140 3 106 3;
#X connect 140 3 136 0;
#X connect 140 4 35 0;
#X connect 140 4 30 0;
#X connect 140 4 106 4;
#X connect 140 4 136 0;
#X connect 140 5 30 0;
#X connect 140 5 35 0;
#X connect 140 5 106 5;
#X connect 140 5 136 0;
#X connect 140 6 35 0;
#X connect 140 6 30 0;
#X connect 140 6 106 6;
#X connect 140 6 136 0;
#X connect 140 7 35 0;
#X connect 140 7 30 0;
#X connect 140 7 106 7;
#X connect 140 7 136 0;
#X connect 140 8 35 0;
#X connect 140 8 30 0;
#X connect 140 8 106 8;
#X connect 140 8 136 0;
#X connect 140 9 35 0;
#X connect 140 9 30 0;
#X connect 140 9 106 9;
#X connect 140 9 136 0;
#X connect 140 10 16 0;
#X connect 140 10 34 0;
#X connect 140 10 136 0;
#X connect 140 10 106 11;
#X connect 140 11 106 10;
#X connect 140 11 136 0;
#X connect 140 11 35 0;
#X connect 140 11 30 0;
#X connect 140 12 36 0;
#X connect 142 0 9 0;
