#N canvas 1010 177 861 613 10;
#X obj 145 223 spigot;
#X obj 293 130 spigot;
#X obj 339 94 tgl 15 0 empty empty empty 17 7 0 10 -262144 -1 -1 1
1;
#X obj 212 129 t f f;
#X text 414 135 if the knob is locked \, route to check for unlock
;
#X text 440 248 snapshot of knob1 before it was locked;
#X obj 212 62 inlet;
#X obj 298 391 sel 1;
#X msg 343 411 0;
#X obj 161 427 outlet;
#X text 391 317 if it changes more than 20 it has been moved \, so
disable lock;
#X obj 367 -102 inlet;
#X obj 343 436 s \$0-lock;
#X obj 221 274 v \$0-snapshot;
#X obj 507 -25 loadbang;
#X msg 428 44 0;
#X obj 364 276 v \$0-snapshot;
#X floatatom 343 373 5 0 0 0 - - -;
#X obj 474 102 tgl 15 0 empty empty empty 17 7 0 10 -262144 -1 -1 0
1;
#X obj 558 43 r \$0-lock;
#X obj 426 -30 sel 1;
#X msg 426 81 1;
#X floatatom 302 338 5 0 0 0 - - -;
#X floatatom 251 335 5 0 0 0 - - -;
#X obj 371 246 bng 15 250 50 0 empty empty empty 17 7 0 10 -262144
-1 -1;
#X obj 367 -80 t f f b;
#X obj 343 351 ==;
#X floatatom 235 95 5 0 0 0 - - -;
#X obj 210 246 int;
#X obj 293 174 int;
#X msg 558 65 1;
#X obj 293 152 * 10;
#X obj 210 224 * 10;
#X floatatom 427 389 5 0 0 0 - - -;
#X floatatom 293 195 5 0 0 0 - - -;
#X obj 509 190 inlet;
#X obj 650 178 inlet;
#X msg 650 199 0;
#X text 513 167 current bank;
#X text 713 164 opposite bank;
#X connect 0 0 9 0;
#X connect 0 0 32 0;
#X connect 1 0 31 0;
#X connect 2 0 1 1;
#X connect 3 0 0 0;
#X connect 3 1 1 0;
#X connect 6 0 3 0;
#X connect 6 0 27 0;
#X connect 7 0 8 0;
#X connect 8 0 12 0;
#X connect 11 0 25 0;
#X connect 14 0 21 0;
#X connect 15 0 18 0;
#X connect 16 0 22 0;
#X connect 16 0 26 1;
#X connect 16 0 33 0;
#X connect 18 0 0 1;
#X connect 19 0 30 0;
#X connect 20 0 15 0;
#X connect 21 0 18 0;
#X connect 21 0 2 0;
#X connect 24 0 16 0;
#X connect 25 0 20 0;
#X connect 25 1 2 0;
#X connect 25 2 24 0;
#X connect 26 0 7 0;
#X connect 26 0 17 0;
#X connect 28 0 13 0;
#X connect 28 0 23 0;
#X connect 29 0 26 0;
#X connect 29 0 34 0;
#X connect 30 0 18 0;
#X connect 31 0 29 0;
#X connect 32 0 28 0;
#X connect 35 0 24 0;
#X connect 36 0 37 0;
#X connect 37 0 18 0;
