#N canvas 560 129 798 653 12;
#X obj 314 365 fsynth~, f 20;
#X obj 156 82 unpack;
#X obj 91 154 mtof;
#X msg 91 182 freq \$1;
#X obj 305 251 / 127;
#X msg 301 293 gain \$1, f 8;
#X msg 234 249 gate \$1;
#X obj 209 113 t a a;
#X obj 209 144 > 0;
#X obj 387 464 outlet~;
#X obj 448 465 outlet~;
#X obj 493 41 r synthparams;
#X obj 140 40 inlet;
#X obj 288 209 f;
#X obj 234 176 sel 1;
#N canvas 15 100 691 429 notespacer 0;
#X obj 173 305 delay 5;
#X msg 191 342 1;
#X msg 123 177 0;
#X obj 200 77 sel 0 1;
#X obj 182 172 timer;
#X obj 207 119 loadbang;
#X obj 183 203 > 3;
#X obj 174 237 sel 0 1;
#X obj 152 383 outlet;
#X obj 193 42 inlet;
#X text 310 176 so make sure there is a little time between gate;
#X text 347 148 gate cant turn off and then on in same block;
#X msg 282 238 stop;
#X obj 146 116 t b b b;
#X text 341 224 in case note turns on/off/on/off... in same block \, this prevents that middle on from triggering, f 30;
#X connect 0 0 1 0;
#X connect 1 0 8 0;
#X connect 2 0 8 0;
#X connect 3 0 13 0;
#X connect 3 1 4 1;
#X connect 4 0 6 0;
#X connect 5 0 4 0;
#X connect 6 0 7 0;
#X connect 7 0 0 0;
#X connect 7 1 1 0;
#X connect 9 0 3 0;
#X connect 12 0 0 0;
#X connect 13 0 2 0;
#X connect 13 1 4 0;
#X connect 13 2 12 0;
#X restore 173 214 pd notespacer;
#X connect 0 1 9 0;
#X connect 0 2 10 0;
#X connect 1 0 2 0;
#X connect 1 1 7 0;
#X connect 2 0 3 0;
#X connect 3 0 0 0;
#X connect 4 0 5 0;
#X connect 5 0 0 0;
#X connect 6 0 0 0;
#X connect 7 0 8 0;
#X connect 7 1 13 1;
#X connect 8 0 14 0;
#X connect 8 0 15 0;
#X connect 11 0 0 0;
#X connect 12 0 1 0;
#X connect 13 0 4 0;
#X connect 14 0 13 0;
#X connect 15 0 6 0;
