#N canvas 334 53 1440 847 10;
#X declare -path externals;
#X obj 103 277 textfile;
#X msg 316 139 clear;
#X obj 106 76 bng 15 250 50 0 empty empty empty 17 7 0 10 #fcfcfc #000000 #000000;
#X obj 106 96 t b b, f 36;
#X msg 104 217 rewind \, bang;
#X floatatom 146 303 5 0 0 0 - - - 0;
#X obj 103 842 throw~ outL;
#X obj 209 839 throw~ outR;
#X obj 322 331 r notes;
#X obj 322 354 unpack 0 0;
#X obj 322 377 stripnote;
#X floatatom 322 400 5 0 0 0 - - - 0;
#X obj 322 422 sel 61 63;
#X msg 152 403 set \$1;
#X msg 242 399 set \$1;
#X obj 103 348 t a a a;
#X floatatom 152 426 5 0 0 0 - - - 0;
#X floatatom 242 422 5 0 0 0 - - - 0;
#X obj 152 467 - 1;
#X obj 276 462 + 1, f 7;
#X obj 102 799 *~ 1;
#X obj 148 799 *~ 1;
#X msg 99 593 1;
#X obj 109 22 loadbang;
#X obj 55 30 r aux;
#X obj 55 53 sel 1;
#X obj 103 300 - 1;
#X obj 843 672 s screenLine5;
#X obj 421 78 loadbang;
#X obj 420 170 s screenLine1;
#X msg 420 147 Recording checker \;;
#X msg 548 148 for Snowgrains;
#X obj 548 171 s screenLine2;
#X obj 650 170 s screenLine3;
#X obj 773 170 s screenLine4;
#X msg 774 147 C#: Prev | D# = Next;
#X msg 648 147 Aux: Newest rec \;;
#X obj 568 739 s led;
#X msg 567 703 0;
#X obj 234 623 s led;
#X msg 234 599 3;
#X obj 104 194 t b a, f 38;
#X obj 99 569 t b a b, f 23;
#X obj 619 753 s screenLine5;
#X msg 610 709 Stopped: Rec 6 of 6;
#X obj 1074 357 textfile;
#X msg 1075 297 rewind \, bang;
#X obj 1075 274 t b a, f 38;
#X floatatom 1074 380 5 0 0 0 - - - 0;
#X msg 1061 189 read /usbdrive/rec.txt;
#X msg 104 138 read /usbdrive/rec.txt;
#X msg 843 636 Playing: Rec \$1 of \$2 \;;
#X obj 966 574 pack 0 0;
#X obj 1098 113 loadbang;
#X obj 109 45 del 10;
#X obj 606 616 sprintf set Stopped: Rec %s of %s;
#X obj 1074 402 - 1;
#X obj 152 490 clip 1 999999;
#X obj 258 496 clip 1 999999;
#X obj 102 649 readsf~ 2, f 78;
#X obj 99 516 sprintf open /usbdrive/organelle_rec%s_snowgrains_stereo.wav;
#X obj 214 37 declare -path externals;
#X connect 0 0 26 0;
#X connect 1 0 0 0;
#X connect 2 0 3 0;
#X connect 3 0 50 0;
#X connect 3 1 1 0;
#X connect 4 0 0 0;
#X connect 5 0 15 0;
#X connect 5 0 52 0;
#X connect 8 0 9 0;
#X connect 9 0 10 0;
#X connect 9 1 10 1;
#X connect 10 0 11 0;
#X connect 11 0 12 0;
#X connect 12 0 16 0;
#X connect 12 1 17 0;
#X connect 13 0 16 0;
#X connect 14 0 17 0;
#X connect 15 0 60 0;
#X connect 15 1 13 0;
#X connect 15 2 14 0;
#X connect 16 0 18 0;
#X connect 17 0 19 0;
#X connect 18 0 57 0;
#X connect 19 0 58 0;
#X connect 20 0 6 0;
#X connect 21 0 7 0;
#X connect 22 0 59 0;
#X connect 23 0 54 0;
#X connect 24 0 25 0;
#X connect 25 0 2 0;
#X connect 26 0 5 0;
#X connect 28 0 30 0;
#X connect 28 0 36 0;
#X connect 28 0 35 0;
#X connect 28 0 31 0;
#X connect 30 0 29 0;
#X connect 31 0 32 0;
#X connect 35 0 34 0;
#X connect 36 0 33 0;
#X connect 38 0 37 0;
#X connect 40 0 39 0;
#X connect 41 0 4 0;
#X connect 41 1 0 0;
#X connect 42 0 22 0;
#X connect 42 1 59 0;
#X connect 42 2 40 0;
#X connect 44 0 43 0;
#X connect 45 0 48 0;
#X connect 46 0 45 0;
#X connect 47 0 46 0;
#X connect 47 1 45 0;
#X connect 48 0 56 0;
#X connect 49 0 47 0;
#X connect 50 0 41 0;
#X connect 51 0 27 0;
#X connect 52 0 51 0;
#X connect 52 0 55 0;
#X connect 53 0 49 0;
#X connect 54 0 2 0;
#X connect 55 0 44 0;
#X connect 56 0 52 1;
#X connect 56 0 57 2;
#X connect 56 0 58 2;
#X connect 57 0 5 0;
#X connect 58 0 5 0;
#X connect 59 0 20 0;
#X connect 59 1 21 0;
#X connect 59 2 38 0;
#X connect 59 2 44 0;
#X connect 60 0 42 0;
