#N canvas 319 301 892 516 12;
#X obj 42 22 r aux;
#X obj 145 110 bng 15 250 50 0 empty empty empty 17 7 0 10 #fcfcfc #000000 #000000;
#X obj 121 111 bng 15 250 50 0 empty empty empty 17 7 0 10 #fcfcfc #000000 #000000;
#X msg 42 113 0;
#X msg 74 113 1;
#X obj 121 211 s auxOff;
#X obj 42 211 s auxState;
#X obj 186 211 s auxOn;
#X obj 121 87 sel 0 1;
#X obj 42 87 sel 0 1;
#X obj 42 46 t f f;
#X obj 244 212 expr if ($f2 == 1 \, 0 \, 1);
#X obj 395 138 loadbang;
#X msg 395 163 0;
#X text 253 178 aux on/off switch;
#X obj 244 236 s auxSwitch;
#X obj 409 188 r auxSwitch;
#X connect 0 0 10 0;
#X connect 1 0 7 0;
#X connect 1 0 11 0;
#X connect 2 0 5 0;
#X connect 3 0 6 0;
#X connect 4 0 6 0;
#X connect 8 0 2 0;
#X connect 8 1 1 0;
#X connect 9 0 3 0;
#X connect 9 1 4 0;
#X connect 10 0 9 0;
#X connect 10 1 8 0;
#X connect 11 0 15 0;
#X connect 12 0 13 0;
#X connect 13 0 11 1;
#X connect 16 0 11 1;
