#N canvas 1364 255 948 724 12;
#X obj 21 23 loadbang;
#X obj 21 369 t b b b b b;
#X obj 402 538 s loadbang1;
#X obj 61 538 s loadbang5;
#X obj 146 538 s loadbang4;
#X obj 232 538 s loadbang3;
#X obj 317 538 s loadbang2;
#X obj 21 171 f \$1;
#X obj 35 103 r bangPatch;
#X obj 21 223 version-check;
#X obj 325 65 print patch init;
#X text 126 15 Supports a coordinated initialization of the application;
#X obj 341 357 print bang 1-5;
#X obj 297 144 print internal reset;
#X obj 95 393 t b b;
#X obj 395 410 print bang 1;
#X obj 76 418 t b b;
#X obj 395 435 print bang 2;
#X obj 58 443 t b b;
#X obj 395 460 print bang 3;
#X obj 39 468 t b b;
#X obj 395 485 print bang 4;
#X obj 395 510 print bang 5;
#X obj 21 48 t b b;
#X obj 305 213 print version check;
#X obj 21 340 t b b;
#X obj 21 312 t b b;
#X obj 291 329 print version checked;
#X obj 21 196 t f f;
#X obj 21 288 spigot 1;
#X msg 119 251 0;
#X msg 154 251 1;
#X obj 35 127 t b b b;
#X text 205 260 don't know why \, but there will be a bang from version check;
#X text 205 276 first time a note on the organelle is hit;
#X obj 21 493 t b b b b;
#X obj 21 592 print patch initialized;
#X obj 41 564 s patchInitialized;
#X obj 21 74 delay 500;
#X connect 0 0 23 0;
#X connect 1 0 35 0;
#X connect 1 1 20 0;
#X connect 1 2 18 0;
#X connect 1 3 16 0;
#X connect 1 4 14 0;
#X connect 7 0 28 0;
#X connect 8 0 32 0;
#X connect 9 0 29 0;
#X connect 14 0 2 0;
#X connect 14 1 15 0;
#X connect 16 0 6 0;
#X connect 16 1 17 0;
#X connect 18 0 5 0;
#X connect 18 1 19 0;
#X connect 20 0 4 0;
#X connect 20 1 21 0;
#X connect 23 0 38 0;
#X connect 23 1 10 0;
#X connect 25 0 1 0;
#X connect 25 1 12 0;
#X connect 26 0 25 0;
#X connect 26 1 27 0;
#X connect 28 0 9 0;
#X connect 28 1 24 0;
#X connect 29 0 30 0;
#X connect 29 0 26 0;
#X connect 30 0 29 1;
#X connect 31 0 29 1;
#X connect 32 0 7 0;
#X connect 32 1 31 0;
#X connect 32 2 13 0;
#X connect 35 0 36 0;
#X connect 35 1 22 0;
#X connect 35 1 37 0;
#X connect 35 2 3 0;
#X connect 38 0 7 0;
#X coords 0 724 1 723 96 19 0;
