#N canvas 45 89 727 701 12;
#X obj 25 32 inlet knobValue;
#X obj 213 34 inlet currentvalue;
#X obj 26 405 spigot;
#X obj 26 545 outlet;
#X obj 213 209 -;
#X obj 256 209 +;
#X msg 65 380 0;
#X obj 177 333 spigot;
#X msg 254 349 0;
#X obj 290 63 loadbang;
#X msg 216 307 1;
#X obj 245 96 s \$0-reset;
#X obj 216 281 r \$0-reset;
#X obj 65 355 r \$0-reset;
#X obj 177 360 t b b;
#X msg 177 388 1;
#X obj 177 310 bng 15 250 50 0 empty empty empty 17 7 0 10 -262144
-1 -1;
#X obj 131 281 moses 1;
#X obj 213 63 t f b;
#X obj 131 250 expr $f1>=$f2 && $f1<=$f3;
#X obj 502 64 f \$1;
#X obj 502 35 loadbang;
#X floatatom 502 88 5 0 0 0 - - -;
#X floatatom 69 295 5 0 0 0 - - -;
#X floatatom 152 213 7 0 0 0 - - -;
#X floatatom 317 208 7 0 0 0 - - -;
#X floatatom 166 92 5 0 0 0 - - -;
#X floatatom 66 64 5 0 0 0 - - -;
#X obj 392 35 inlet thres;
#X floatatom 392 59 5 0 0 0 - - -;
#X connect 0 0 2 0;
#X connect 0 0 19 0;
#X connect 0 0 27 0;
#X connect 1 0 18 0;
#X connect 2 0 3 0;
#X connect 4 0 19 1;
#X connect 4 0 24 0;
#X connect 5 0 19 2;
#X connect 5 0 25 0;
#X connect 6 0 2 1;
#X connect 7 0 14 0;
#X connect 8 0 7 1;
#X connect 9 0 11 0;
#X connect 10 0 7 1;
#X connect 12 0 10 0;
#X connect 13 0 6 0;
#X connect 14 0 15 0;
#X connect 14 1 8 0;
#X connect 15 0 2 1;
#X connect 16 0 7 0;
#X connect 17 1 16 0;
#X connect 18 0 4 0;
#X connect 18 0 5 0;
#X connect 18 0 26 0;
#X connect 18 1 11 0;
#X connect 19 0 17 0;
#X connect 19 0 23 0;
#X connect 20 0 5 1;
#X connect 20 0 4 1;
#X connect 20 0 22 0;
#X connect 21 0 20 0;
#X connect 28 0 4 1;
#X connect 28 0 5 1;
#X connect 28 0 29 0;
