#N canvas 1395 519 959 824 12;
#X obj 31 102 i;
#X obj 31 130 outlet;
#X obj 31 11 inlet;
#X obj 31 35 bng 19 250 50 0 empty empty empty 0 -10 0 12 #fcfcfc #000000 #000000;
#X obj 247 11 loadbang;
#X obj 161 63 f \$1;
#X obj 161 11 inlet reset;
#X obj 161 35 bng 19 250 50 0 empty empty empty 0 -10 0 12 #fcfcfc #000000 #000000;
#X obj 75 11 inlet value;
#X obj 75 102 - 1;
#X connect 0 0 1 0;
#X connect 0 0 9 0;
#X connect 2 0 3 0;
#X connect 3 0 0 0;
#X connect 4 0 5 0;
#X connect 5 0 0 1;
#X connect 6 0 7 0;
#X connect 7 0 5 0;
#X connect 8 0 0 1;
#X connect 9 0 0 1;
