#N canvas 444 256 957 438 12;
#X obj 45 51 loadbang;
#X obj 45 77 s enableSubMenu;
#X obj 207 46 r encbut;
#X obj 207 173 s goHome;
#X obj 207 149 spigot;
#X obj 246 122 r encbut;
#X obj 207 70 sel 1;
#X obj 207 96 delay 1000;
#X obj 530 38 r enc;
#X obj 530 114 sel 0 1;
#X obj 808 103 r maxPages;
#X obj 530 212 spigot;
#X obj 569 157 r currentPageNumber;
#X obj 569 185 > 1;
#X obj 546 239 r currentPageNumber;
#X obj 751 156 spigot;
#X obj 790 77 r currentPageNumber;
#X obj 790 129 <;
#X obj 767 180 r currentPageNumber;
#X obj 644 345 s switchPage;
#X text 526 4 turn encoder to switch screens;
#X obj 530 81 spigot;
#X obj 530 290 dec 1;
#X obj 751 235 inc 1;
#X obj 546 263 - 1;
#X obj 767 208 + 1;
#X obj 607 62 == 1;
#X msg 39 280 1;
#X obj 39 255 loadbang;
#X text 34 232 to disable encoder for page switch send 0;
#X obj 607 37 r encUsagePageSwitch;
#X obj 39 303 s encUsagePageSwitch;
#X obj 257 304 r encbut;
#X obj 257 328 sel 1;
#X obj 257 353 expr if ($f2 == 1 \, 0 \, 1);
#X text 248 280 encoder on/off switch;
#X obj 408 279 loadbang;
#X msg 408 304 0;
#X obj 257 377 s encSwitch;
#X obj 422 329 r encSwitch;
#X text 12 4 press encoder button for at least one second to call Organelles
main menu;
#X connect 0 0 1 0;
#X connect 2 0 6 0;
#X connect 4 0 3 0;
#X connect 5 0 4 1;
#X connect 6 0 7 0;
#X connect 7 0 4 0;
#X connect 8 0 21 0;
#X connect 9 0 11 0;
#X connect 9 1 15 0;
#X connect 10 0 17 1;
#X connect 11 0 22 0;
#X connect 12 0 13 0;
#X connect 13 0 11 1;
#X connect 14 0 24 0;
#X connect 15 0 23 0;
#X connect 16 0 17 0;
#X connect 17 0 15 1;
#X connect 18 0 25 0;
#X connect 21 0 9 0;
#X connect 22 0 19 0;
#X connect 23 0 19 0;
#X connect 24 0 22 1;
#X connect 25 0 23 1;
#X connect 26 0 21 1;
#X connect 27 0 31 0;
#X connect 28 0 27 0;
#X connect 30 0 26 0;
#X connect 32 0 33 0;
#X connect 33 0 34 0;
#X connect 34 0 38 0;
#X connect 36 0 37 0;
#X connect 37 0 34 1;
#X connect 39 0 34 1;
