#N canvas 861 433 749 631 12;
#X obj 31 110 i;
#X obj 31 138 outlet;
#X obj 31 11 inlet;
#X obj 31 35 bng 19 250 50 0 empty empty empty 0 -10 0 12 #fcfcfc #000000 #000000;
#X obj 75 110 + 1;
#X obj 246 11 loadbang;
#X obj 160 65 f \$1;
#X obj 160 11 inlet reset;
#X obj 160 35 bng 19 250 50 0 empty empty empty 0 -10 0 12 #fcfcfc #000000 #000000;
#X obj 75 11 inlet value;
#X obj 207 65 f \$2;
#X obj 207 91 expr if ($f1 > 0 \, $f1 \, 1);
#X connect 0 0 1 0;
#X connect 0 0 4 0;
#X connect 2 0 3 0;
#X connect 3 0 0 0;
#X connect 4 0 0 1;
#X connect 5 0 6 0;
#X connect 5 0 10 0;
#X connect 6 0 0 1;
#X connect 7 0 8 0;
#X connect 8 0 6 0;
#X connect 9 0 6 0;
#X connect 10 0 11 0;
#X connect 11 0 4 1;
