#N canvas 573 733 1073 667 12;
#X obj 319 72 r pageNumber;
#X obj 8 9 r knob1;
#X obj 89 366 s;
#X obj 40 91 pack 1 1;
#X obj 8 36 t f b;
#X obj 107 91 pack 2 1;
#X obj 174 91 pack 3 1;
#X obj 241 91 pack 4 1;
#X obj 75 36 t f b;
#X obj 75 9 r knob2;
#X obj 142 36 t f b;
#X obj 209 36 t f b;
#X obj 8 62 s \$0kv;
#X obj 89 177 r \$0kv;
#X obj 75 62 s \$0kv;
#X obj 142 62 s \$0kv;
#X obj 209 62 s \$0kv;
#X obj 142 9 r knob3;
#X obj 209 9 r knob4;
#X msg 145 177 symbol p\$2k\$1;
#X text 248 134 sends the knob value to pXkY;
#X text 248 149 X is the page number;
#X text 249 165 Y is the knob number;
#X obj 230 206 r auxOff;
#X obj 145 330 spigot;
#X obj 296 206 r auxOn;
#X msg 230 231 0;
#X msg 296 231 1;
#X obj 89 330 spigot;
#X obj 160 212 loadbang;
#X obj 296 264 r usePageKnob;
#X obj 230 311 expr $f1 == 0;
#X obj 230 283 spigot;
#X obj 412 250 loadbang;
#X msg 412 275 0;
#X connect 0 0 7 1;
#X connect 0 0 6 1;
#X connect 0 0 5 1;
#X connect 0 0 3 1;
#X connect 1 0 4 0;
#X connect 3 0 19 0;
#X connect 4 0 12 0;
#X connect 4 1 3 0;
#X connect 5 0 19 0;
#X connect 6 0 19 0;
#X connect 7 0 19 0;
#X connect 8 0 14 0;
#X connect 8 1 5 0;
#X connect 9 0 8 0;
#X connect 10 0 15 0;
#X connect 10 1 6 0;
#X connect 11 0 16 0;
#X connect 11 1 7 0;
#X connect 13 0 28 0;
#X connect 17 0 10 0;
#X connect 18 0 11 0;
#X connect 19 0 24 0;
#X connect 23 0 26 0;
#X connect 24 0 2 1;
#X connect 25 0 27 0;
#X connect 26 0 32 0;
#X connect 27 0 32 0;
#X connect 28 0 2 0;
#X connect 29 0 26 0;
#X connect 30 0 32 1;
#X connect 31 0 24 1;
#X connect 31 0 28 1;
#X connect 32 0 31 0;
#X connect 33 0 34 0;
#X connect 34 0 31 0;
