#N canvas 552 110 612 234 12;
#X obj 11 10 r notes;
#X obj 11 34 unpack;
#X obj 49 103 s midiNote;
#X obj 177 103 s midiVelocity;
#X obj 410 79 bng 15 250 50 0 empty empty empty 17 7 0 10 #fcfcfc #000000 #000000;
#X obj 283 52 moses 1;
#X obj 283 79 bng 15 250 50 0 empty empty empty 17 7 0 10 #fcfcfc #000000 #000000;
#X obj 127 103 spigot;
#X obj 166 78 > 0;
#X obj 127 127 s midiTrigNote;
#X obj 410 103 s midiTrigNoteOn;
#X obj 283 103 s midiTrigNoteOff;
#X obj 11 127 s midiFreq;
#X obj 11 103 mtof;
#X connect 0 0 1 0;
#X connect 1 0 2 0;
#X connect 1 0 7 0;
#X connect 1 0 13 0;
#X connect 1 1 3 0;
#X connect 1 1 5 0;
#X connect 1 1 8 0;
#X connect 4 0 10 0;
#X connect 5 0 6 0;
#X connect 5 1 4 0;
#X connect 6 0 11 0;
#X connect 7 0 9 0;
#X connect 8 0 7 1;
#X connect 13 0 12 0;
