#N canvas 991 146 1361 715 12;
#X obj 734 38 r knob1;
#X obj 734 116 spigot;
#X floatatom 487 362 5 0 0 0 - - - 0;
#X obj 440 587 s pageNumber;
#X obj 773 63 r auxState;
#X obj 1097 43 v currentPageNumber;
#X obj 860 193 expr currentPageNumber;
#X obj 860 217 s pageNumber;
#X obj 860 171 bng 15 250 50 0 empty empty empty 17 7 0 10 #fcfcfc #000000 #000000;
#X obj 954 169 s pageNumber;
#X msg 954 144 0;
#X obj 860 125 moses 1;
#X text 17 12 Init;
#X obj 20 237 r midiNote;
#X obj 20 323 spigot;
#X obj 1098 102 r \$0-clear;
#X obj 1130 156 s screenLine1;
#X obj 1130 248 s screenLine5;
#X obj 1130 225 s screenLine4;
#X obj 1130 202 s screenLine3;
#X obj 1130 179 s screenLine2;
#X text 1096 80 Clear screen;
#X obj 407 640 s pageSwitched;
#X obj 20 32 r loadbang4;
#N canvas 232 85 515 426 display-page-number 0;
#X obj 130 216 s oscOut;
#X msg 130 182 /oled/gFlip 3;
#X msg 130 97 /oled/gShowInfoBar 3 0;
#X msg 88 330 /oled/gFlip 3;
#X obj 56 277 t b b;
#X obj 88 362 s oscOut;
#X msg 88 303 /oled/gShowInfoBar 3 1;
#X msg 130 126 /oled/gFillArea 3 90 0 20 10 0;
#X obj 56 14 inlet;
#X obj 56 250 delay 2000;
#X obj 56 54 t b f f b b;
#X msg 130 154 /oled/gPrintln 3 90 0 8 1 \$1;
#X connect 1 0 0 0;
#X connect 2 0 0 0;
#X connect 3 0 5 0;
#X connect 4 0 3 0;
#X connect 4 1 6 0;
#X connect 6 0 5 0;
#X connect 7 0 0 0;
#X connect 8 0 10 0;
#X connect 9 0 4 0;
#X connect 10 0 9 0;
#X connect 10 1 1 0;
#X connect 10 2 11 0;
#X connect 10 3 7 0;
#X connect 10 4 2 0;
#X connect 11 0 0 0;
#X restore 487 386 pd display-page-number;
#X obj 456 561 s;
#X obj 20 349 - 59;
#X msg 473 530 symbol switchPage\$1;
#X obj 423 614 s currentPageNumber;
#X obj 489 503 s \$0-clear;
#X obj 734 190 + 1;
#X obj 407 319 change;
#X obj 407 292 r \$0-switch-page;
#X obj 20 376 s \$0-switch-page;
#X obj 734 217 s \$0-switch-page;
#X text 19 217 Page selection by AUX + key (24 pages max);
#X msg 20 163 1;
#X obj 20 189 s \$0-switch-page;
#X obj 314 59 f \$1;
#X obj 314 34 loadbang;
#X text 731 18 Page selection with AUX + knob 1 (24 pages max);
#X obj 734 141 * 24;
#X obj 314 88 clip 1 24;
#X obj 734 167 i;
#X text 235 12 Parameter 24 max pages;
#X text 410 270 Page switcher;
#X text 1096 20 Global variables;
#X obj 1239 43 v nextPageNumber;
#X obj 506 477 s nextPageNumber;
#X text 630 276 send page numer to switch;
#X obj 631 325 s \$0-switch-page;
#X obj 631 298 r switchPage;
#X obj 20 138 delay 200;
#X obj 407 343 clip 1 24;
#X obj 1098 132 t b b;
#X obj 1098 272 s screenCleared;
#X obj 407 408 t b f f b f b f f;
#X obj 523 450 s preparePageSwitch;
#X obj 702 427 print prepare screen;
#X obj 849 427 print sending next page number;
#X obj 1066 427 print clear screen;
#X obj 702 449 print screen switched;
#X obj 702 549 print sending page switch;
#X obj 32 59 print initializing screen;
#X obj 314 117 s maxPages;
#X obj 467 319 r maxPages;
#X msg 325 290 set 0;
#X obj 20 86 t b b;
#X obj 52 111 s \$0-reset;
#X obj 325 264 r \$0-reset;
#X obj 236 34 r \$0-reset;
#X obj 839 307 r clearScreen;
#X obj 839 331 s \$0-clear;
#X text 838 286 Clears the screen;
#X obj 45 499 t b b;
#X msg 45 543 \; currentPageNumber 0 \; nextPageNumber 0 \;;
#X obj 105 518 print init pageSvc;
#X obj 45 472 r \$0-reset;
#X obj 443 58 f \$2;
#X text 416 21 1: use knob \; 0: don't use knob;
#X obj 443 82 clip 0 1;
#X obj 773 89 expr $f1 == 1 && $f2 == 1;
#X obj 443 106 s usePageKnob;
#X obj 857 63 r usePageKnob;
#X obj 575 83 clip 0 1;
#X text 548 22 1: use AUX + key \; 0: don't use AUX + key;
#X obj 575 59 f \$3;
#X obj 193 157 s usePageAux;
#X obj 59 270 r auxState;
#X obj 59 296 expr $f1 == 1 && $f2 == 1;
#X obj 575 107 s usePageKey;
#X obj 143 270 r usePageKey;
#X connect 0 0 1 0;
#X connect 1 0 41 0;
#X connect 2 0 24 0;
#X connect 4 0 81 0;
#X connect 6 0 7 0;
#X connect 8 0 6 0;
#X connect 10 0 9 0;
#X connect 11 0 8 0;
#X connect 11 1 10 0;
#X connect 13 0 14 0;
#X connect 14 0 26 0;
#X connect 15 0 54 0;
#X connect 23 0 63 0;
#X connect 23 0 67 0;
#X connect 26 0 33 0;
#X connect 27 0 25 1;
#X connect 27 0 62 0;
#X connect 30 0 34 0;
#X connect 31 0 53 0;
#X connect 32 0 31 0;
#X connect 36 0 37 0;
#X connect 38 0 42 0;
#X connect 39 0 38 0;
#X connect 39 0 78 0;
#X connect 39 0 86 0;
#X connect 41 0 43 0;
#X connect 42 0 64 0;
#X connect 43 0 30 0;
#X connect 51 0 50 0;
#X connect 52 0 36 0;
#X connect 53 0 2 0;
#X connect 53 0 56 0;
#X connect 54 0 55 0;
#X connect 54 1 16 0;
#X connect 54 1 20 0;
#X connect 54 1 19 0;
#X connect 54 1 18 0;
#X connect 54 1 17 0;
#X connect 56 0 22 0;
#X connect 56 0 61 0;
#X connect 56 1 28 0;
#X connect 56 2 3 0;
#X connect 56 3 25 0;
#X connect 56 4 27 0;
#X connect 56 5 29 0;
#X connect 56 5 60 0;
#X connect 56 6 48 0;
#X connect 56 6 59 0;
#X connect 56 7 57 0;
#X connect 56 7 58 0;
#X connect 65 0 53 2;
#X connect 66 0 31 0;
#X connect 67 0 52 0;
#X connect 67 1 68 0;
#X connect 69 0 66 0;
#X connect 70 0 38 0;
#X connect 71 0 72 0;
#X connect 74 0 75 0;
#X connect 74 1 76 0;
#X connect 77 0 74 0;
#X connect 78 0 80 0;
#X connect 80 0 82 0;
#X connect 81 0 11 0;
#X connect 81 0 1 1;
#X connect 83 0 81 1;
#X connect 84 0 90 0;
#X connect 86 0 84 0;
#X connect 88 0 89 0;
#X connect 89 0 14 1;
#X connect 91 0 89 1;
