#N canvas 651 307 1184 343 12;
#X obj 19 12 inlet msg;
#X obj 77 69 r nextPageNumber;
#X obj 19 116 spigot;
#X obj 19 210 s;
#X msg 37 185 symbol screenLine\$1;
#X obj 224 42 f \$1;
#X obj 224 15 loadbang;
#X obj 77 99 expr if ($f1 == $f2 \, 1 \, 0);
#X obj 224 69 t b f;
#X obj 277 66 s \$0-lineno;
#X obj 37 160 r \$0-lineno;
#X obj 277 42 f \$2;
#X text 393 27 $f1: page number;
#X text 393 47 $f2: line number;
#X text 392 67 inlet: message;
#X obj 77 45 expr nextPageNumber;
#X connect 0 0 2 0;
#X connect 1 0 7 0;
#X connect 2 0 3 0;
#X connect 4 0 3 1;
#X connect 5 0 8 0;
#X connect 6 0 5 0;
#X connect 6 0 11 0;
#X connect 6 0 15 0;
#X connect 7 0 2 1;
#X connect 8 0 7 0;
#X connect 8 1 7 1;
#X connect 10 0 4 0;
#X connect 11 0 9 0;
#X connect 15 0 7 0;
