#N canvas 896 129 860 795 12;
#X obj 61 15 inlet;
#X obj 93 210 t b b b b b;
#X msg 130 247 rewind;
#X msg 185 247 read /root/version;
#X msg 324 247 0;
#X obj 111 280 textfile;
#X obj 93 314 f;
#X obj 61 730 outlet;
#X obj 84 694 bng 15 250 50 0 empty empty empty 17 7 0 10 -262144 -1
-1;
#X obj 161 570 r notes;
#X msg 125 623 0;
#X obj 161 596 t b b;
#X obj 93 424 t b b;
#X obj 93 341 t f f;
#X obj 61 42 f \$1;
#X obj 93 183 t b f, f 60;
#X obj 93 369 >=;
#X obj 93 397 sel 1 0, f 20;
#X obj 61 95 sel 0;
#X obj 106 95 s \$0-ver-disp;
#X obj 228 423 r \$0-ver-disp;
#X obj 161 450 pack f f f;
#X msg 161 476 \; screenLine1 Version \$3 required! \; screenLine2
Current version is \$2 \; screenLine3 !! MAY NOT COMPUTE !! \; screenLine4
Hit key to continue \; screenLine5 or quit patch \;;
#X obj 210 358 print current Organelle version;
#X obj 532 138 print checking for Oganelle version;
#X obj 93 121 t f f;
#X obj 61 148 t b f;
#X obj 533 166 print not checking for Oganelle version;
#X obj 161 677 spigot 1;
#X obj 61 66 t f f;
#X connect 0 0 14 0;
#X connect 1 0 6 0;
#X connect 1 1 5 0;
#X connect 1 2 2 0;
#X connect 1 3 3 0;
#X connect 1 4 4 0;
#X connect 2 0 5 0;
#X connect 3 0 5 0;
#X connect 4 0 6 1;
#X connect 5 0 6 1;
#X connect 6 0 13 0;
#X connect 8 0 7 0;
#X connect 9 0 11 0;
#X connect 10 0 28 1;
#X connect 11 0 10 0;
#X connect 11 1 28 0;
#X connect 12 0 7 0;
#X connect 12 1 10 0;
#X connect 13 0 16 0;
#X connect 13 1 21 1;
#X connect 13 1 23 0;
#X connect 14 0 29 0;
#X connect 15 0 1 0;
#X connect 15 1 16 1;
#X connect 16 0 17 0;
#X connect 17 0 12 0;
#X connect 17 1 21 0;
#X connect 18 0 26 0;
#X connect 18 1 25 0;
#X connect 20 0 21 2;
#X connect 21 0 22 0;
#X connect 25 1 24 0;
#X connect 26 0 7 0;
#X connect 26 1 27 0;
#X connect 28 0 8 0;
#X connect 29 0 18 0;
#X connect 29 1 19 0;
