#N canvas 437 127 493 271 10;
#X obj 33 30 r loadbang-\$1;
#X obj 117 217 outlet~ outL-\$1;
#X obj 219 217 outlet~ outR-\$1;
#X obj 301 30 r expIn-\$1;
#X obj 395 56 r fsIn-\$1;
#X obj 301 55 s notesOut-\$1;
#X obj 377 30 s ctrlOut-\$1;
#X text 194 173 Pd~ subprocess;
#N canvas 4 50 924 676 subparams 0;
#X obj 443 636 outlet;
#X obj 127 474 r notesIn-\$1;
#X obj 127 495 unpack 0 0;
#X msg 110 527 notes \$1;
#X msg 180 527 velocity \$1;
#X obj 640 458 r ctrlIn-\$1;
#X obj 640 479 unpack 0 0 0;
#X floatatom 639 501 5 0 0 0 - - -;
#X floatatom 707 503 5 0 0 0 - - -;
#X floatatom 809 503 5 0 0 0 - - -;
#X msg 639 527 valuem \$1;
#X msg 809 527 channelm \$1;
#X msg 707 527 controllerm \$1;
#X obj 252 23 r clds_freeze-\$1;
#X obj 395 23 r clds_trig-\$1;
#X obj 519 23 r clds_position-\$1;
#X obj 118 23 r clds_mix-\$1;
#X obj 796 21 r clds_size-\$1;
#X obj 39 153 r clds_density-\$1;
#X obj 238 151 r clds_texture-\$1;
#X obj 430 151 r clds_pitch-\$1;
#X obj 157 77 r clds_spread-\$1;
#X obj 288 77 r clds_feedback-\$1;
#X obj 536 76 r clds_reverb-\$1;
#X obj 425 77 r clds_mode-\$1;
#X obj 661 22 r clds_lofi-\$1;
#X obj 666 75 r clds_mono-\$1;
#X obj 790 76 r clds_silence-\$1;
#X obj 23 78 r clds_bypass-\$1;
#X obj 23 23 r auxIn-\$1;
#X msg 23 44 auxIn \$1;
#X msg 118 44 clds_mix \$1;
#X msg 252 44 clds_freeze \$1;
#X msg 395 44 clds_trig \$1;
#X msg 519 44 clds_position \$1;
#X msg 661 43 clds_lofi \$1;
#X msg 796 42 clds_size \$1;
#X msg 23 99 clds_bypass \$1;
#X msg 157 98 clds_spread \$1;
#X msg 288 98 clds_feedback \$1;
#X msg 425 98 clds_mode \$1;
#X msg 536 97 clds_reverb \$1;
#X msg 666 96 clds_mono \$1;
#X msg 790 97 clds_silence \$1;
#X msg 39 174 clds_density \$1;
#X msg 238 172 clds_texture \$1;
#X msg 430 172 clds_pitch \$1;
#X connect 1 0 2 0;
#X connect 2 0 3 0;
#X connect 2 1 4 0;
#X connect 3 0 0 0;
#X connect 4 0 0 0;
#X connect 5 0 6 0;
#X connect 6 0 7 0;
#X connect 6 1 8 0;
#X connect 6 2 9 0;
#X connect 7 0 10 0;
#X connect 8 0 12 0;
#X connect 9 0 11 0;
#X connect 10 0 0 0;
#X connect 11 0 0 0;
#X connect 12 0 0 0;
#X connect 13 0 32 0;
#X connect 14 0 33 0;
#X connect 15 0 34 0;
#X connect 16 0 31 0;
#X connect 17 0 36 0;
#X connect 18 0 44 0;
#X connect 19 0 45 0;
#X connect 20 0 46 0;
#X connect 21 0 38 0;
#X connect 22 0 39 0;
#X connect 23 0 41 0;
#X connect 24 0 40 0;
#X connect 25 0 35 0;
#X connect 26 0 42 0;
#X connect 27 0 43 0;
#X connect 28 0 37 0;
#X connect 29 0 30 0;
#X connect 30 0 0 0;
#X connect 31 0 0 0;
#X connect 32 0 0 0;
#X connect 33 0 0 0;
#X connect 34 0 0 0;
#X connect 35 0 0 0;
#X connect 36 0 0 0;
#X connect 37 0 0 0;
#X connect 38 0 0 0;
#X connect 39 0 0 0;
#X connect 40 0 0 0;
#X connect 41 0 0 0;
#X connect 42 0 0 0;
#X connect 43 0 0 0;
#X connect 44 0 0 0;
#X connect 45 0 0 0;
#X connect 46 0 0 0;
#X restore 166 123 pd subparams;
#X text 252 123 subprocess parameters;
#X obj 33 175 pd~ -ninsig 2 -noutsig 2;
#X obj 33 152 inlet~ inL-\$1;
#X obj 173 152 inlet~ inR-\$1;
#X msg 33 51 pd~ start -nogui pd~-clouds.pd;
#X connect 0 0 13 0;
#X connect 8 0 10 0;
#X connect 10 1 1 0;
#X connect 10 2 2 0;
#X connect 11 0 10 0;
#X connect 12 0 10 1;
#X connect 13 0 10 0;
