#N canvas 390 137 754 557 12;
#X obj 70 95 env~;
#X obj 276 159 r \$0-thres;
#X obj 70 172 line;
#X obj 70 362 pack \$1 \$2;
#X obj 70 120 / 100;
#X obj 276 183 / 100;
#X obj 70 200 expr if ($f1 > $f2 \, 1 \, 0);
#X obj 70 251 sel 0 1, f 14;
#X obj 70 224 change 0;
#X msg 117 276 1;
#X msg 70 276 0;
#X obj 70 388 vline~;
#X obj 70 300 t f b;
#X obj 117 300 t f b;
#X obj 70 145 pack \$1 20;
#X obj 225 300 r \$0-rel;
#X floatatom 182 337 5 0 0 0 - - -;
#X floatatom 137 337 5 0 0 0 - - -;
#X obj 17 17 inlet~;
#X obj 69 17 inlet~ for thres;
#X obj 308 41 clip 0 20000;
#X msg 320 69 15000;
#X obj 192 17 inlet threshold;
#X obj 192 41 clip 0 100;
#X msg 204 69 50;
#X obj 192 98 s \$0-thres;
#X obj 18 523 outlet~;
#X obj 686 52 loadbang;
#X obj 403 17 inlet attack;
#X obj 403 98 s \$0-atk;
#X obj 160 300 r \$0-atk;
#X msg 415 69 5;
#X obj 498 98 s \$0-rel;
#X obj 308 17 inlet cutoff;
#X obj 308 98 s \$0-co;
#X obj 188 422 r \$0-co;
#X obj 498 17 inlet release;
#X msg 510 69 3000;
#X obj 18 493 bob~;
#X obj 70 415 pow~ 2;
#X obj 70 439 *~;
#X obj 187 475 sig~;
#X msg 609 69 0;
#X obj 597 17 inlet q;
#X obj 597 98 s \$0-q;
#X obj 187 450 r \$0-q;
#X obj 403 41 clip 1 10000;
#X obj 498 41 clip 1 10000;
#X obj 597 41 clip 0 3.7;
#X connect 0 0 4 0;
#X connect 1 0 5 0;
#X connect 2 0 6 0;
#X connect 3 0 11 0;
#X connect 4 0 14 0;
#X connect 5 0 6 1;
#X connect 6 0 8 0;
#X connect 7 0 10 0;
#X connect 7 1 9 0;
#X connect 8 0 7 0;
#X connect 9 0 13 0;
#X connect 10 0 12 0;
#X connect 11 0 39 0;
#X connect 12 0 3 0;
#X connect 12 1 16 0;
#X connect 13 0 3 0;
#X connect 13 1 17 0;
#X connect 14 0 2 0;
#X connect 15 0 16 0;
#X connect 16 0 3 1;
#X connect 17 0 3 1;
#X connect 18 0 38 0;
#X connect 19 0 0 0;
#X connect 20 0 34 0;
#X connect 21 0 34 0;
#X connect 22 0 23 0;
#X connect 23 0 25 0;
#X connect 24 0 25 0;
#X connect 27 0 21 0;
#X connect 27 0 24 0;
#X connect 27 0 37 0;
#X connect 27 0 31 0;
#X connect 28 0 46 0;
#X connect 30 0 17 0;
#X connect 31 0 29 0;
#X connect 33 0 20 0;
#X connect 35 0 40 1;
#X connect 36 0 47 0;
#X connect 37 0 32 0;
#X connect 38 0 26 0;
#X connect 39 0 40 0;
#X connect 40 0 38 1;
#X connect 41 0 38 2;
#X connect 42 0 44 0;
#X connect 43 0 48 0;
#X connect 45 0 41 0;
#X connect 46 0 29 0;
#X connect 47 0 32 0;
#X connect 48 0 44 0;
