#N canvas 695 271 1144 773 12;
#X obj 34 275 expr~ tanh($v1 - $f2/$f3 * pow($v1 \, $f3));
#X obj 34 22 inlet~;
#X obj 34 310 outlet~;
#X obj 207 23 inlet strength;
#X obj 207 49 clip 1 500;
#X obj 207 111 s \$0-str;
#X msg 221 79 1;
#X obj 176 246 r \$0-str;
#X msg 337 79 1;
#X obj 323 23 inlet type;
#X obj 323 49 clip 1 6;
#X obj 323 111 s \$0-ty;
#X obj 318 155 r \$0-ty;
#X obj 318 187 sel 0 1 2 3 4 5, f 38;
#X msg 318 216 1;
#X msg 361 216 3;
#X msg 405 216 5;
#X msg 449 216 7;
#X msg 493 216 9;
#X msg 537 216 11;
#X obj 34 246 *~;
#X obj 605 60 loadbang;
#X obj 101 49 clip 1 500;
#X msg 115 79 1;
#X obj 101 23 inlet amount;
#X obj 101 111 s \$0-amo;
#X obj 52 220 r \$0-amo;
#X connect 0 0 2 0;
#X connect 1 0 20 0;
#X connect 3 0 4 0;
#X connect 4 0 5 0;
#X connect 6 0 5 0;
#X connect 7 0 0 1;
#X connect 8 0 11 0;
#X connect 9 0 10 0;
#X connect 10 0 11 0;
#X connect 12 0 13 0;
#X connect 13 0 14 0;
#X connect 13 1 15 0;
#X connect 13 2 16 0;
#X connect 13 3 17 0;
#X connect 13 4 18 0;
#X connect 13 5 19 0;
#X connect 14 0 0 2;
#X connect 15 0 0 2;
#X connect 16 0 0 2;
#X connect 17 0 0 2;
#X connect 18 0 0 2;
#X connect 19 0 0 2;
#X connect 20 0 0 0;
#X connect 21 0 8 0;
#X connect 21 0 6 0;
#X connect 21 0 23 0;
#X connect 22 0 25 0;
#X connect 23 0 25 0;
#X connect 24 0 22 0;
#X connect 26 0 20 1;
