#N canvas 108 77 1573 788 12;
#X obj 63 302 expr~ (tanh($f2 * sin($v1)) / $f2) * $f2;
#X obj 63 751 outlet~;
#X obj 9 9 inlet~;
#X obj 1053 8 inlet saturation;
#X msg 1067 63 1;
#X obj 1492 46 loadbang;
#X obj 63 109 hip~;
#X msg 125 63 0;
#X obj 104 33 clip 0 10000;
#X obj 216 8 inlet lp;
#X obj 104 9 inlet hp;
#X obj 216 93 s \$0-lp;
#X obj 310 8 inlet thres;
#X obj 310 93 s \$0-thres;
#X obj 310 34 clip 0 100;
#X obj 216 34 clip 0 15000;
#X obj 1053 32 clip 1 5000;
#X msg 228 63 10000;
#X msg 323 63 50;
#X msg 508 63 100;
#X obj 1053 93 s \$0-sat;
#X obj 340 276 r \$0-sat;
#X msg 413 63 100;
#X obj 400 9 inlet attack;
#X obj 495 8 inlet release;
#X obj 384 94 s \$0-att;
#X obj 495 93 s \$0-rel;
#X obj 594 8 inlet amount character;
#X obj 578 94 s \$0-achar;
#X obj 756 8 inlet character;
#X msg 774 63 1;
#X obj 756 93 s \$0-char;
#X obj 64 277 xfade~;
#X obj 947 8 inlet tube mix;
#X obj 947 32 clip 0 1;
#X msg 962 63 0;
#X msg 609 63 1;
#X obj 594 32 clip 1 100;
#X obj 947 93 s \$0-tmix;
#X obj 117 260 r \$0-tmix;
#X msg 882 63 1;
#X obj 869 8 inlet type;
#X obj 869 93 s \$0-type;
#X obj 158 211 r \$0-type;
#X obj 869 32 clip 1 6;
#X obj 123 187 r \$0-char;
#X obj 64 706 filter-gate~;
#X obj 91 582 r \$0-thres;
#X obj 104 609 r \$0-lp;
#X obj 118 636 r \$0-att;
#X obj 131 662 r \$0-rel;
#X obj 103 162 r \$0-achar;
#X obj 756 32 clip 1 500;
#X obj 83 228 struggle~;
#X obj 87 137 s~ \$0-gtin;
#X obj 78 555 r~ \$0-gtin;
#X obj 144 482 osc~;
#X obj 83 500 *~;
#X obj 144 356 sigmund~;
#X obj 144 431 line;
#X obj 144 381 moses 25;
#X obj 144 456 +;
#X msg 144 407 \$1 100;
#X obj 64 527 xfade~;
#X obj 9 33 s~ \$0-siggi;
#X obj 143 332 r~ \$0-siggi;
#X msg 1188 63 0;
#X obj 1174 8 inlet stab;
#X msg 1275 63 0;
#X obj 1174 93 s \$0-stab;
#X obj 1261 93 s \$0-staba;
#X obj 1261 32 clip 0 1;
#X obj 143 510 r \$0-staba;
#X obj 1174 32 clip -10 10;
#X obj 192 437 r \$0-stab;
#X obj 1261 8 inlet stab-amount;
#X msg 1402 63 0;
#X obj 1388 8 inlet q;
#X obj 1388 93 s \$0-q;
#X obj 162 689 r \$0-q;
#X obj 400 35 clip 1 10000;
#X obj 495 34 clip 1 10000;
#X obj 1388 32 clip 0 3.7;
#X connect 0 0 57 0;
#X connect 0 0 63 0;
#X connect 2 0 6 0;
#X connect 2 0 64 0;
#X connect 3 0 16 0;
#X connect 4 0 20 0;
#X connect 5 0 4 0;
#X connect 5 0 17 0;
#X connect 5 0 18 0;
#X connect 5 0 19 0;
#X connect 5 0 36 0;
#X connect 5 0 30 0;
#X connect 5 0 35 0;
#X connect 5 0 40 0;
#X connect 5 0 22 0;
#X connect 5 0 7 0;
#X connect 5 0 66 0;
#X connect 5 0 68 0;
#X connect 5 0 76 0;
#X connect 6 0 32 0;
#X connect 6 0 53 0;
#X connect 6 0 54 0;
#X connect 7 0 6 1;
#X connect 8 0 6 1;
#X connect 9 0 15 0;
#X connect 10 0 8 0;
#X connect 12 0 14 0;
#X connect 14 0 13 0;
#X connect 15 0 11 0;
#X connect 16 0 20 0;
#X connect 17 0 11 0;
#X connect 18 0 13 0;
#X connect 19 0 26 0;
#X connect 21 0 0 1;
#X connect 22 0 25 0;
#X connect 23 0 80 0;
#X connect 24 0 81 0;
#X connect 27 0 37 0;
#X connect 29 0 52 0;
#X connect 30 0 31 0;
#X connect 32 0 0 0;
#X connect 33 0 34 0;
#X connect 34 0 38 0;
#X connect 35 0 38 0;
#X connect 36 0 28 0;
#X connect 37 0 28 0;
#X connect 39 0 32 2;
#X connect 40 0 42 0;
#X connect 41 0 44 0;
#X connect 43 0 53 3;
#X connect 44 0 42 0;
#X connect 45 0 53 2;
#X connect 46 0 1 0;
#X connect 47 0 46 2;
#X connect 48 0 46 3;
#X connect 49 0 46 4;
#X connect 50 0 46 5;
#X connect 51 0 53 1;
#X connect 52 0 31 0;
#X connect 53 0 32 1;
#X connect 55 0 46 1;
#X connect 56 0 57 1;
#X connect 57 0 63 1;
#X connect 58 0 60 0;
#X connect 59 0 61 0;
#X connect 60 1 62 0;
#X connect 61 0 56 0;
#X connect 62 0 59 0;
#X connect 63 0 46 0;
#X connect 65 0 58 0;
#X connect 66 0 69 0;
#X connect 67 0 73 0;
#X connect 68 0 70 0;
#X connect 71 0 70 0;
#X connect 72 0 63 2;
#X connect 73 0 69 0;
#X connect 74 0 61 1;
#X connect 75 0 71 0;
#X connect 76 0 78 0;
#X connect 77 0 82 0;
#X connect 79 0 46 6;
#X connect 80 0 25 0;
#X connect 81 0 26 0;
#X connect 82 0 78 0;
