#N canvas 967 254 990 652 12;
#X obj 54 32 inlet~ in1;
#X obj 168 32 inlet~ in2;
#X obj 247 59 clip 0 1;
#X obj 387 33 loadbang;
#X obj 54 275 *~;
#X msg 247 113 \$1 10;
#X obj 247 138 line 30;
#X obj 168 272 *~;
#X obj 55 351 outlet~;
#X obj 247 32 inlet fade;
#X obj 247 162 pow 1;
#X text 459 30 1: linear \; 2: exponential;
#X obj 72 249 expr 1 - $f1;
#X msg 262 88 0;
#X obj 387 59 f \$1;
#X obj 387 83 i;
#X obj 387 107 clip 1 2;
#X connect 0 0 4 0;
#X connect 1 0 7 0;
#X connect 2 0 5 0;
#X connect 3 0 13 0;
#X connect 3 0 14 0;
#X connect 4 0 8 0;
#X connect 5 0 6 0;
#X connect 6 0 10 0;
#X connect 7 0 8 0;
#X connect 9 0 2 0;
#X connect 10 0 7 1;
#X connect 10 0 12 0;
#X connect 12 0 4 1;
#X connect 13 0 5 0;
#X connect 14 0 15 0;
#X connect 15 0 16 0;
#X connect 16 0 10 1;
