#N canvas 644 92 585 478 10;
#X obj 478 49 r hpf_sc-\$1;
#X obj 279 430 outlet~ OutL-\$1;
#X obj 442 430 outlet~ OutR-\$1;
#X obj 440 157 inlet~ inR-\$1;
#X obj 328 207 hip~ 15;
#X obj 278 157 inlet~ inL-\$1;
#X obj 439 207 hip~ 15;
#X obj 478 74 pack 0 100;
#X obj 478 100 line;
#X obj 83 79 t f f;
#X obj 328 183 *~;
#X obj 439 183 *~;
#X obj 383 145 sig~;
#X obj 383 167 lop~ 5;
#X msg 369 117 1;
#X msg 400 117 0;
#X obj 210 241 sig~;
#X obj 210 260 lop~ 5;
#X obj 177 276 *~;
#N canvas 4 50 450 300 sidechain 0;
#X obj 100 20 inlet~ inLsc;
#X obj 188 20 inlet~ inRsc;
#X obj 99 85 +~;
#X obj 188 85 -~;
#X obj 142 134 +~;
#X obj 141 183 outlet~ SCsum;
#X obj 99 49 *~ 0.6;
#X obj 187 107 *~ -1;
#X obj 188 48 *~ 0.6;
#X connect 0 0 6 0;
#X connect 1 0 8 0;
#X connect 2 0 4 0;
#X connect 3 0 7 0;
#X connect 4 0 5 0;
#X connect 6 0 2 0;
#X connect 6 0 3 0;
#X connect 7 0 4 1;
#X connect 8 0 2 1;
#X connect 8 0 3 1;
#X restore 328 233 pd sidechain matrix;
#X obj 126 179 pack 0 100;
#X obj 126 205 line;
#X obj 224 346 pack 0 100;
#X obj 224 372 line;
#X obj 176 221 bp~ 200 1;
#X obj 224 321 r bandwidth_sc-\$1;
#X obj 126 154 r bpf_sc-\$1;
#X obj 176 252 *~;
#X obj 38 210 pack 0 100;
#X obj 38 236 line;
#X obj 38 185 r boost_sc-\$1;
#X obj 369 96 select 0 1;
#X obj 83 30 r sidechannel-\$1;
#N canvas 720 516 469 460 sidechain_channel 0;
#X obj 139 162 inlet;
#X obj 118 375 outlet;
#X msg 127 266 a1;
#X msg 128 287 a2;
#X msg 129 308 a3;
#X msg 168 267 b1;
#X msg 168 291 b2;
#X msg 168 315 b3;
#X msg 168 339 b4;
#X msg 210 266 c1;
#X msg 210 291 c2;
#X msg 210 316 c3;
#X msg 252 266 d1;
#X msg 252 290 d2;
#X msg 252 314 d3;
#X msg 252 338 d4;
#X obj 139 228 select 0 1 2 3 4 5 6 7 8 9 10 11 12 13 14;
#X obj 56 279 outlet;
#X obj 57 228 select 0;
#X msg 73 254 1;
#X obj 335 348 list prepend;
#X obj 336 281 r loadbang-\$1;
#X obj 335 407 s aux-label-\$1;
#X obj 204 375 symbol \$1;
#X obj 335 386 list append;
#X obj 39 34 r activePage;
#X obj 39 57 unpack s s;
#X obj 39 78 sel \$1;
#X obj 96 79 sel pg_sidechain;
#X msg 38 103 1, f 2;
#X msg 68 103 0, f 2;
#X msg 96 102 1, f 2;
#X msg 189 102 0, f 2;
#X obj 56 129 &&;
#X obj 56 151 change;
#X obj 56 173 sel 1;
#X obj 139 194 int;
#X obj 56 195 delay 500;
#X msg 299 392 ∆;
#X msg 336 325 <<<<<<<<<;
#X msg 204 398 \$1 |||||||||;
#X msg 335 367 <<<<<<<<<<;
#X obj 336 303 t b;
#X connect 0 0 18 0;
#X connect 0 0 36 0;
#X connect 2 0 1 0;
#X connect 2 0 20 0;
#X connect 3 0 1 0;
#X connect 3 0 20 0;
#X connect 4 0 1 0;
#X connect 4 0 20 0;
#X connect 5 0 1 0;
#X connect 5 0 20 0;
#X connect 6 0 1 0;
#X connect 6 0 20 0;
#X connect 7 0 1 0;
#X connect 7 0 20 0;
#X connect 8 0 1 0;
#X connect 8 0 20 0;
#X connect 9 0 1 0;
#X connect 9 0 20 0;
#X connect 10 0 1 0;
#X connect 10 0 20 0;
#X connect 11 0 1 0;
#X connect 11 0 20 0;
#X connect 12 0 1 0;
#X connect 12 0 20 0;
#X connect 13 0 1 0;
#X connect 13 0 20 0;
#X connect 14 0 1 0;
#X connect 14 0 20 0;
#X connect 15 0 1 0;
#X connect 15 0 20 0;
#X connect 16 0 23 0;
#X connect 16 1 2 0;
#X connect 16 2 3 0;
#X connect 16 3 4 0;
#X connect 16 4 5 0;
#X connect 16 5 6 0;
#X connect 16 6 7 0;
#X connect 16 7 8 0;
#X connect 16 8 9 0;
#X connect 16 9 10 0;
#X connect 16 10 11 0;
#X connect 16 11 12 0;
#X connect 16 12 13 0;
#X connect 16 13 14 0;
#X connect 16 14 15 0;
#X connect 18 0 17 0;
#X connect 18 1 19 0;
#X connect 19 0 17 0;
#X connect 20 0 24 0;
#X connect 21 0 42 0;
#X connect 23 0 40 0;
#X connect 24 0 22 0;
#X connect 25 0 26 0;
#X connect 26 0 27 0;
#X connect 26 1 28 0;
#X connect 27 0 29 0;
#X connect 27 1 30 0;
#X connect 28 0 31 0;
#X connect 28 1 32 0;
#X connect 29 0 33 0;
#X connect 30 0 33 0;
#X connect 31 0 33 1;
#X connect 32 0 33 1;
#X connect 33 0 34 0;
#X connect 34 0 35 0;
#X connect 35 0 37 0;
#X connect 35 1 38 0;
#X connect 36 0 16 0;
#X connect 37 0 36 0;
#X connect 38 0 22 0;
#X connect 39 0 20 1;
#X connect 40 0 20 0;
#X connect 41 0 24 1;
#X connect 42 0 39 0;
#X connect 42 0 41 0;
#X restore 83 55 pd sidechain_channel;
#X obj 200 86 symbol \$1;
#N canvas 563 50 577 823 oled 0;
#X obj 205 547 i;
#X msg 208 770 /oled/gFlip 3;
#X obj 239 696 f;
#X obj 205 565 + 2;
#X obj 205 493 / 100;
#X obj 205 475 -;
#X obj 198 454 f;
#X obj 205 511 + 1;
#X obj 205 529 * 600;
#X obj 205 583 +;
#X obj 205 601 int;
#X obj 198 418 snapshot~;
#X obj 149 187 sel \$1;
#X msg 269 311 stop;
#X obj 149 169 unpack s s;
#X obj 149 151 r activePage;
#X obj 149 233 &&;
#X msg 206 205 1;
#X msg 287 205 0;
#X msg 149 205 1;
#X msg 182 205 0;
#X obj 205 619 min 125;
#X obj 149 325 delay 500;
#X obj 149 269 t f f;
#X obj 23 789 s oscOutRaw;
#X obj 149 297 sel 1;
#X msg 249 339 /oled/gFillArea 3 0 50 128 14 0;
#X obj 149 251 change;
#X obj 206 187 sel pg_main;
#X obj 205 637 t b f f b;
#X obj 197 436 t b f;
#X msg 239 714 /oled/gFillArea 3 2 32 \$1 9 0;
#X msg 222 742 /oled/gFillArea 3 2 32 \$1 9 1;
#X obj 144 49 sel \$1;
#X obj 144 31 unpack s s;
#X obj 144 13 r activePage;
#X obj 156 95 &&;
#X obj 359 255 spigot;
#X obj 359 318 s screenLine4;
#X obj 422 25 metro 1000;
#X obj 422 43 delay 500;
#X obj 422 61 spigot 1, f 10;
#X obj 498 47 - 1;
#X obj 201 49 sel pg_main;
#X obj 422 112 spigot;
#X obj 422 147 s screenLine5;
#X msg 282 67 0;
#X msg 144 67 1;
#X msg 177 67 0;
#X msg 201 67 1;
#X msg 423 244 || |▔| ▔| ▔ GR;
#X msg 422 92 O2 4▔8 ▔12▔ db;
#X obj 198 387 inlet~;
#X obj 149 355 metro 58.0498;
#X obj 368 603 r bypassmeter;
#X obj 222 670 spigot 1;
#X msg 267 637 1, f 2;
#X msg 395 656 0, f 2;
#X obj 343 656 t b b b;
#X obj 368 628 sel 0 100;
#X obj 34 74 sel f3;
#X obj 16 118 r start-timer;
#X obj 104 118 r stop-timer;
#X obj 16 141 spigot 0;
#X msg 33 95 1;
#X msg 65 95 0;
#X obj 79 142 spigot 0;
#X msg 16 169 0;
#X msg 80 171 1;
#X connect 0 0 3 0;
#X connect 1 0 24 0;
#X connect 2 0 31 0;
#X connect 3 0 9 0;
#X connect 4 0 7 0;
#X connect 5 0 4 0;
#X connect 6 0 5 0;
#X connect 7 0 8 0;
#X connect 8 0 0 0;
#X connect 9 0 10 0;
#X connect 10 0 21 0;
#X connect 11 0 30 0;
#X connect 12 0 19 0;
#X connect 12 1 20 0;
#X connect 13 0 22 0;
#X connect 13 0 53 0;
#X connect 14 0 12 0;
#X connect 14 1 28 0;
#X connect 15 0 14 0;
#X connect 16 0 27 0;
#X connect 17 0 16 1;
#X connect 18 0 16 1;
#X connect 19 0 16 0;
#X connect 20 0 16 0;
#X connect 21 0 29 0;
#X connect 22 0 53 0;
#X connect 23 0 25 0;
#X connect 25 0 22 0;
#X connect 25 1 13 0;
#X connect 25 1 26 0;
#X connect 26 0 24 0;
#X connect 27 0 23 0;
#X connect 28 0 17 0;
#X connect 28 1 18 0;
#X connect 29 0 1 0;
#X connect 29 1 55 0;
#X connect 29 2 2 1;
#X connect 29 3 2 0;
#X connect 30 0 6 0;
#X connect 30 1 5 1;
#X connect 31 0 24 0;
#X connect 32 0 24 0;
#X connect 33 0 47 0;
#X connect 33 1 48 0;
#X connect 34 0 33 0;
#X connect 34 0 60 0;
#X connect 34 1 43 0;
#X connect 35 0 34 0;
#X connect 36 0 37 1;
#X connect 36 0 39 0;
#X connect 36 0 44 1;
#X connect 37 0 38 0;
#X connect 39 0 40 0;
#X connect 40 0 41 0;
#X connect 41 0 51 0;
#X connect 41 0 50 0;
#X connect 42 0 41 1;
#X connect 43 0 49 0;
#X connect 43 1 46 0;
#X connect 44 0 45 0;
#X connect 46 0 36 1;
#X connect 47 0 36 0;
#X connect 48 0 36 0;
#X connect 49 0 36 1;
#X connect 50 0 37 0;
#X connect 51 0 44 0;
#X connect 52 0 11 0;
#X connect 53 0 11 0;
#X connect 54 0 59 0;
#X connect 55 0 32 0;
#X connect 56 0 55 1;
#X connect 57 0 55 1;
#X connect 58 0 1 0;
#X connect 58 2 56 0;
#X connect 59 0 58 0;
#X connect 59 1 57 0;
#X connect 60 0 64 0;
#X connect 60 1 65 0;
#X connect 61 0 63 0;
#X connect 62 0 66 0;
#X connect 63 0 67 0;
#X connect 64 0 63 1;
#X connect 64 0 66 1;
#X connect 65 0 63 1;
#X connect 65 0 66 1;
#X connect 66 0 68 0;
#X connect 67 0 41 1;
#X connect 68 0 41 1;
#X restore 422 321 pd oled;
#X msg 200 105 set outL-\$1;
#X msg 200 125 set outR-\$1;
#X obj 201 179 r~ outR-\$1;
#X obj 201 153 r~ outL-\$1;
#X obj 176 201 +~;
#X text 260 29 Master Bus Compressor;
#X text 30 116 Selectable sidechain input;
#X text 434 293 Subprocess;
#X obj 279 271 /~ 10;
#X obj 373 271 /~ 10;
#X obj 280 378 *~;
#X obj 442 378 *~;
#X obj 280 401 *~;
#X obj 442 401 *~;
#N canvas 174 401 321 411 bypass 0;
#X obj 58 264 outlet~;
#X obj 239 264 outlet~;
#X obj 239 220 lop~ 5;
#X obj 59 220 lop~ 5;
#X msg 52 143 1;
#X msg 85 143 0;
#X msg 257 143 1;
#X msg 227 143 0;
#X obj 134 359 s aux-led-\$1;
#X msg 168 320 3, f 2;
#X msg 134 320 0, f 2;
#X obj 134 89 s bypassmeter;
#X obj 60 196 sig~ 1;
#X obj 240 196 sig~ 0;
#X obj 77 31 r notesIn-\$1;
#X obj 77 52 unpack 0 0;
#X obj 134 127 select 0 100;
#X connect 2 0 1 0;
#X connect 3 0 0 0;
#X connect 4 0 12 0;
#X connect 5 0 12 0;
#X connect 6 0 13 0;
#X connect 7 0 13 0;
#X connect 9 0 8 0;
#X connect 10 0 8 0;
#X connect 12 0 3 0;
#X connect 13 0 2 0;
#X connect 14 0 15 0;
#X connect 15 1 16 0;
#X connect 15 1 11 0;
#X connect 16 0 4 0;
#X connect 16 0 7 0;
#X connect 16 0 10 0;
#X connect 16 1 5 0;
#X connect 16 1 6 0;
#X connect 16 1 9 0;
#X restore 341 321 pd bypass;
#X f 10;
#N canvas 171 142 493 512 bus-comp 0;
#X obj 36 297 tb_peakcomp~;
#X obj 180 297 tb_peakcomp~;
#X obj 99 48 delay 100;
#X msg 99 226 knee 1;
#X obj 192 362 +;
#X obj 192 380 / 2;
#X obj 105 328 env~;
#X obj 249 329 env~;
#X obj 249 345 + 0.01;
#X obj 105 345 + 0.01;
#X obj 192 398 sig~;
#X msg 99 169 release \$1;
#X obj 200 213 pack 0 100;
#X obj 200 231 line;
#X obj 391 230 pack 0 100;
#X obj 391 248 line;
#X obj 244 58 pack 0 100;
#X obj 244 79 line;
#X obj 281 103 pack 0 100;
#X obj 281 123 line;
#X msg 99 95 threshold \$1;
#X msg 99 123 ratio \$1;
#X msg 100 145 attack \$1;
#X obj 305 213 pack 0 100;
#X obj 305 233 line;
#X msg 101 197 makeup \$1;
#X obj 36 345 *~ 10;
#X obj 180 345 *~ 10;
#X obj 57 258 inlet~;
#X obj 109 258 inlet~;
#X obj 160 258 inlet~;
#X obj 211 258 inlet~;
#X obj 181 452 outlet~;
#X obj 36 452 outlet~;
#X obj 283 452 outlet~ GR;
#X obj 99 20 r loadbang-\$1;
#X obj 245 39 r threshold-\$1;
#X obj 281 83 r ratio-\$1;
#X obj 317 127 r attack-\$1;
#X obj 353 170 r release-\$1;
#X obj 391 212 r makeup-\$1;
#N canvas 258 234 355 638 settings-labels 0;
#X obj 207 208 s aux-label-\$1;
#X obj 36 234 inlet attack;
#X obj 150 233 inlet release;
#X obj 39 34 r activePage;
#X obj 39 57 unpack s s;
#X obj 39 78 sel \$1;
#X msg 38 103 1, f 2;
#X msg 68 103 0, f 2;
#X msg 96 102 1, f 2;
#X msg 189 102 0, f 2;
#X obj 87 136 &&;
#X obj 87 158 change;
#X obj 87 180 sel 1;
#X obj 36 255 int;
#X obj 150 254 int;
#X obj 96 79 sel pg_settings;
#X obj 140 288 select 1 2 3 4 5;
#X obj 25 577 outlet attack;
#X obj 155 577 outlet release;
#X msg 146 341 50;
#X msg 165 371 100;
#X msg 184 404 300;
#X msg 209 439 600;
#X msg 235 477 1200;
#X msg 25 341 0.1;
#X msg 44 371 0.3;
#X msg 63 404 0.6;
#X msg 88 439 3;
#X obj 21 288 select 1 2 3 4 5 6;
#X obj 147 159 pack f f;
#X obj 148 137 t b;
#X msg 114 477 10;
#X msg 134 510 30;
#X msg 207 174 A: \$1mS . R: \$2mS . .;
#X obj 87 201 delay 500;
#X msg 168 194 ∆;
#X connect 1 0 13 0;
#X connect 2 0 14 0;
#X connect 3 0 4 0;
#X connect 4 0 5 0;
#X connect 4 1 15 0;
#X connect 5 0 6 0;
#X connect 5 1 7 0;
#X connect 6 0 10 0;
#X connect 7 0 10 0;
#X connect 8 0 10 1;
#X connect 9 0 10 1;
#X connect 10 0 11 0;
#X connect 11 0 12 0;
#X connect 12 0 34 0;
#X connect 12 1 35 0;
#X connect 13 0 28 0;
#X connect 14 0 16 0;
#X connect 15 0 8 0;
#X connect 15 1 9 0;
#X connect 16 0 19 0;
#X connect 16 1 20 0;
#X connect 16 2 21 0;
#X connect 16 3 22 0;
#X connect 16 4 23 0;
#X connect 19 0 18 0;
#X connect 19 0 29 1;
#X connect 19 0 30 0;
#X connect 20 0 18 0;
#X connect 20 0 29 1;
#X connect 20 0 30 0;
#X connect 21 0 18 0;
#X connect 21 0 29 1;
#X connect 21 0 30 0;
#X connect 22 0 18 0;
#X connect 22 0 29 1;
#X connect 22 0 30 0;
#X connect 23 0 18 0;
#X connect 23 0 29 1;
#X connect 23 0 30 0;
#X connect 24 0 17 0;
#X connect 24 0 29 0;
#X connect 25 0 17 0;
#X connect 25 0 29 0;
#X connect 26 0 17 0;
#X connect 26 0 29 0;
#X connect 27 0 17 0;
#X connect 27 0 29 0;
#X connect 28 0 24 0;
#X connect 28 1 25 0;
#X connect 28 2 26 0;
#X connect 28 3 27 0;
#X connect 28 4 31 0;
#X connect 28 5 32 0;
#X connect 29 0 33 0;
#X connect 30 0 29 0;
#X connect 31 0 17 0;
#X connect 31 0 29 0;
#X connect 32 0 17 0;
#X connect 32 0 29 0;
#X connect 33 0 0 0;
#X connect 34 0 13 0;
#X connect 34 0 14 0;
#X connect 35 0 0 0;
#X restore 200 184 pd settings-labels;
#X connect 0 0 26 0;
#X connect 0 2 6 0;
#X connect 1 0 27 0;
#X connect 1 2 7 0;
#X connect 2 0 20 0;
#X connect 2 0 21 0;
#X connect 2 0 3 0;
#X connect 3 0 1 0;
#X connect 3 0 0 0;
#X connect 4 0 5 0;
#X connect 5 0 10 0;
#X connect 6 0 9 0;
#X connect 7 0 8 0;
#X connect 8 0 4 1;
#X connect 9 0 4 0;
#X connect 10 0 34 0;
#X connect 11 0 1 0;
#X connect 11 0 0 0;
#X connect 12 0 13 0;
#X connect 13 0 22 0;
#X connect 14 0 15 0;
#X connect 15 0 25 0;
#X connect 16 0 17 0;
#X connect 17 0 20 0;
#X connect 18 0 19 0;
#X connect 19 0 21 0;
#X connect 20 0 1 0;
#X connect 20 0 0 0;
#X connect 21 0 1 0;
#X connect 21 0 0 0;
#X connect 22 0 1 0;
#X connect 22 0 0 0;
#X connect 23 0 24 0;
#X connect 24 0 11 0;
#X connect 25 0 1 0;
#X connect 25 0 0 0;
#X connect 26 0 33 0;
#X connect 27 0 32 0;
#X connect 28 0 0 0;
#X connect 29 0 0 1;
#X connect 30 0 1 0;
#X connect 31 0 1 1;
#X connect 35 0 2 0;
#X connect 36 0 16 0;
#X connect 37 0 18 0;
#X connect 38 0 41 0;
#X connect 39 0 41 1;
#X connect 40 0 14 0;
#X connect 41 0 12 0;
#X connect 41 1 23 0;
#X restore 281 292 pd bus-comp;
#X f 24;
#X connect 0 0 7 0;
#X connect 3 0 11 0;
#X connect 3 0 45 0;
#X connect 3 0 49 0;
#X connect 4 0 19 0;
#X connect 5 0 10 0;
#X connect 5 0 44 0;
#X connect 5 0 48 0;
#X connect 6 0 19 1;
#X connect 7 0 8 0;
#X connect 8 0 4 1;
#X connect 8 0 6 1;
#X connect 9 0 31 0;
#X connect 9 1 16 0;
#X connect 10 0 4 0;
#X connect 11 0 6 0;
#X connect 12 0 13 0;
#X connect 13 0 10 1;
#X connect 13 0 11 1;
#X connect 14 0 12 0;
#X connect 15 0 12 0;
#X connect 16 0 17 0;
#X connect 17 0 18 1;
#X connect 18 0 51 1;
#X connect 18 0 51 3;
#X connect 19 0 51 1;
#X connect 19 0 51 3;
#X connect 20 0 21 0;
#X connect 21 0 24 1;
#X connect 22 0 23 0;
#X connect 23 0 24 2;
#X connect 24 0 27 0;
#X connect 25 0 22 0;
#X connect 26 0 20 0;
#X connect 27 0 18 0;
#X connect 28 0 29 0;
#X connect 29 0 27 1;
#X connect 30 0 28 0;
#X connect 31 0 14 0;
#X connect 31 1 15 0;
#X connect 32 0 33 0;
#X connect 33 0 9 0;
#X connect 33 1 34 0;
#X connect 34 0 37 0;
#X connect 34 0 36 0;
#X connect 36 0 39 0;
#X connect 37 0 38 0;
#X connect 38 0 40 1;
#X connect 39 0 40 0;
#X connect 40 0 24 0;
#X connect 44 0 51 0;
#X connect 45 0 51 2;
#X connect 46 0 1 0;
#X connect 47 0 2 0;
#X connect 48 0 1 0;
#X connect 49 0 2 0;
#X connect 50 0 46 1;
#X connect 50 0 47 1;
#X connect 50 1 48 1;
#X connect 50 1 49 1;
#X connect 51 0 46 0;
#X connect 51 1 47 0;
#X connect 51 2 35 0;
