#N canvas 4 50 541 408 10;
#X obj 244 313 s notesOut-\$1;
#X obj 129 144 inlet~ inL;
#X obj 304 144 inlet~ inR;
#X obj 304 269 outlet~ outR;
#X obj 215 269 outlet~ outL;
#X obj 263 55 r auxIn-\$1;
#X obj 262 78 r expIn-\$1;
#X obj 262 103 r fsIn-\$1;
#X obj 341 313 s ctrlOut-\$1;
#N canvas 4 50 1912 998 subparams 0;
#X msg 166 175 contour \$1;
#X obj 166 104 / 100;
#X obj 166 66 r l_contour-\$1;
#X msg 271 175 bow_level \$1;
#X msg 377 175 bow_timbre \$1;
#X obj 271 104 / 100;
#X obj 377 104 / 100;
#X obj 271 66 r l_bow_level-\$1;
#X obj 377 66 r l_bow_timbre-\$1;
#X msg 495 175 blow_level \$1;
#X msg 738 175 blow_flow \$1;
#X msg 613 175 blow_timbre \$1;
#X obj 495 104 / 100;
#X obj 613 104 / 100;
#X obj 738 104 / 100;
#X obj 495 65 r l_blow_level-\$1;
#X obj 613 65 r l_blow_timbre-\$1;
#X obj 738 65 r l_blow_flow-\$1;
#X obj 231 389 r notesIn-\$1;
#X msg 231 721 pitch \$1;
#X obj 231 650 +;
#X obj 231 511 spigot 0;
#X msg 294 676 gate \$1;
#X obj 231 458 - 60;
#X obj 294 608 tgl 15 0 empty empty empty 17 7 0 10 -262144 -1 -1 0
1;
#X obj 294 510 > 0;
#X msg 853 175 strike_level \$1;
#X msg 1123 175 strike_mallet \$1;
#X msg 981 175 strike_timbre \$1;
#X obj 853 104 / 100;
#X obj 981 104 / 100;
#X obj 1123 104 / 100;
#X obj 853 58 r l_strike_level-\$1;
#X obj 981 58 r l_strike_timbre-\$1;
#X obj 1123 58 r l_strike_mallet-\$1;
#X msg 1270 175 space \$1;
#X msg 1357 175 geometry \$1;
#X msg 1475 175 brightness \$1;
#X msg 1604 175 damping \$1;
#X obj 1270 104 / 100;
#X obj 1357 104 / 100;
#X obj 1475 85 / 100;
#X obj 1604 85 / 100;
#X obj 1270 57 r l_space-\$1;
#X obj 1357 57 r l_geometry-\$1;
#X obj 1475 57 r l_brightness-\$1;
#X obj 1604 57 r l_damping-\$1;
#X obj 68 572 - 0.5;
#X obj 68 625 t b f;
#X obj 231 559 + 0;
#X obj 25 395 unpack 0 0 0;
#X obj 25 371 r ctrlIn-\$1;
#X obj 1475 110 +;
#X obj 93 531 t b f;
#X obj 344 352 r l_tune-\$1;
#X obj 358 454 + 0;
#X obj 423 392 / 100;
#X obj 423 354 r l_finetune-\$1;
#X obj 423 413 t b f;
#X obj 357 501 t b f;
#X obj 231 671 / 64;
#X obj 152 500 r pb_range-\$1;
#X obj 152 521 * 2;
#X obj 68 593 * 2;
#X obj 25 418 route 0 2 123;
#X msg 391 561 gate 0;
#X obj 231 430 poly 1 1;
#X obj 99 464 t b;
#X msg 99 485 stop;
#X msg 1237 313 bypass \$1;
#X msg 990 313 easter_egg \$1;
#X msg 1127 313 seed \$1;
#X obj 990 222 r l_easter_egg-\$1;
#X obj 1127 222 r l_seed-\$1;
#X obj 1237 222 r l_bypass-\$1;
#X msg 858 313 mod_depth \$1;
#X msg 640 313 position \$1;
#X obj 750 252 / 64;
#X msg 750 313 mod_pitch \$1;
#X obj 640 252 / 100;
#X obj 858 252 / 100;
#X obj 640 222 r l_position-\$1;
#X obj 750 222 r l_modpitch-\$1;
#X obj 858 222 r l_moddepth-\$1;
#X obj 690 765 outlet;
#X floatatom 166 125 5 0 0 0 - - -;
#X floatatom 271 125 5 0 0 0 - - -;
#X floatatom 377 125 5 0 0 0 - - -;
#X floatatom 495 125 5 0 0 0 - - -;
#X floatatom 613 125 5 0 0 0 - - -;
#X floatatom 738 125 5 0 0 0 - - -;
#X floatatom 853 125 5 0 0 0 - - -;
#X floatatom 981 125 5 0 0 0 - - -;
#X floatatom 1123 125 5 0 0 0 - - -;
#X floatatom 1270 125 5 0 0 0 - - -;
#X floatatom 1357 125 5 0 0 0 - - -;
#X floatatom 1475 131 5 0 0 0 - - -;
#X floatatom 1604 131 5 0 0 0 - - -;
#X obj 1038 114 r loaded-\$1;
#X floatatom 640 273 5 0 0 0 - - -;
#X floatatom 750 273 5 0 0 0 - - -;
#X floatatom 858 273 5 0 0 0 - - -;
#X floatatom 990 272 5 0 0 0 - - -;
#X floatatom 1127 272 5 0 0 0 - - -;
#X floatatom 1237 272 5 0 0 0 - - -;
#X connect 0 0 84 0;
#X connect 1 0 85 0;
#X connect 2 0 1 0;
#X connect 3 0 84 0;
#X connect 4 0 84 0;
#X connect 5 0 86 0;
#X connect 6 0 87 0;
#X connect 7 0 5 0;
#X connect 8 0 6 0;
#X connect 9 0 84 0;
#X connect 10 0 84 0;
#X connect 11 0 84 0;
#X connect 12 0 88 0;
#X connect 13 0 89 0;
#X connect 14 0 90 0;
#X connect 15 0 12 0;
#X connect 16 0 13 0;
#X connect 17 0 14 0;
#X connect 18 0 66 0;
#X connect 19 0 84 0;
#X connect 20 0 60 0;
#X connect 21 0 49 0;
#X connect 22 0 84 0;
#X connect 23 0 21 0;
#X connect 24 0 22 0;
#X connect 25 0 24 0;
#X connect 26 0 84 0;
#X connect 27 0 84 0;
#X connect 28 0 84 0;
#X connect 29 0 91 0;
#X connect 30 0 92 0;
#X connect 31 0 93 0;
#X connect 32 0 29 0;
#X connect 33 0 30 0;
#X connect 34 0 31 0;
#X connect 35 0 84 0;
#X connect 36 0 84 0;
#X connect 37 0 84 0;
#X connect 38 0 84 0;
#X connect 39 0 94 0;
#X connect 40 0 95 0;
#X connect 41 0 52 0;
#X connect 42 0 97 0;
#X connect 43 0 39 0;
#X connect 44 0 40 0;
#X connect 45 0 41 0;
#X connect 46 0 42 0;
#X connect 47 0 63 0;
#X connect 48 0 49 0;
#X connect 48 1 49 1;
#X connect 49 0 20 0;
#X connect 50 0 64 0;
#X connect 51 0 50 0;
#X connect 52 0 84 0;
#X connect 52 0 96 0;
#X connect 53 0 52 0;
#X connect 53 1 52 1;
#X connect 54 0 55 0;
#X connect 55 0 59 0;
#X connect 56 0 58 0;
#X connect 57 0 56 0;
#X connect 58 0 55 0;
#X connect 58 1 55 1;
#X connect 59 0 20 0;
#X connect 59 1 20 1;
#X connect 60 0 19 0;
#X connect 61 0 62 0;
#X connect 62 0 63 1;
#X connect 63 0 48 0;
#X connect 64 0 47 0;
#X connect 64 1 53 0;
#X connect 64 2 65 0;
#X connect 64 2 67 0;
#X connect 65 0 84 0;
#X connect 66 1 23 0;
#X connect 66 2 25 0;
#X connect 66 2 21 1;
#X connect 67 0 68 0;
#X connect 68 0 66 0;
#X connect 69 0 84 0;
#X connect 70 0 84 0;
#X connect 71 0 84 0;
#X connect 72 0 102 0;
#X connect 73 0 103 0;
#X connect 74 0 104 0;
#X connect 75 0 84 0;
#X connect 76 0 84 0;
#X connect 77 0 100 0;
#X connect 78 0 84 0;
#X connect 79 0 99 0;
#X connect 80 0 101 0;
#X connect 81 0 79 0;
#X connect 82 0 77 0;
#X connect 83 0 80 0;
#X connect 85 0 0 0;
#X connect 86 0 3 0;
#X connect 87 0 4 0;
#X connect 88 0 9 0;
#X connect 89 0 11 0;
#X connect 90 0 10 0;
#X connect 91 0 26 0;
#X connect 92 0 28 0;
#X connect 93 0 27 0;
#X connect 94 0 35 0;
#X connect 95 0 36 0;
#X connect 96 0 37 0;
#X connect 97 0 38 0;
#X connect 98 0 92 0;
#X connect 98 0 97 0;
#X connect 98 0 96 0;
#X connect 98 0 95 0;
#X connect 98 0 94 0;
#X connect 98 0 93 0;
#X connect 98 0 91 0;
#X connect 98 0 90 0;
#X connect 98 0 89 0;
#X connect 98 0 88 0;
#X connect 98 0 87 0;
#X connect 98 0 86 0;
#X connect 98 0 85 0;
#X connect 98 0 102 0;
#X connect 98 0 104 0;
#X connect 98 0 103 0;
#X connect 98 0 101 0;
#X connect 98 0 100 0;
#X connect 98 0 99 0;
#X connect 99 0 76 0;
#X connect 100 0 78 0;
#X connect 101 0 75 0;
#X connect 102 0 70 0;
#X connect 103 0 71 0;
#X connect 104 0 69 0;
#X restore 153 215 pd subparams;
#X obj 128 240 pd~ -ningsig 2 -noutsig 2, f 30;
#X obj 128 166 r loadbang-\$1;
#X obj 128 269 route loaded;
#X obj 128 290 bang;
#X obj 128 312 s loaded-\$1;
#X obj 90 312 print;
#X msg 128 191 pd~ start -nogui pd~-lmnts.pd;
#X connect 1 0 10 0;
#X connect 2 0 10 1;
#X connect 9 0 10 0;
#X connect 10 0 12 0;
#X connect 10 1 4 0;
#X connect 10 2 3 0;
#X connect 11 0 16 0;
#X connect 12 0 13 0;
#X connect 13 0 14 0;
#X connect 13 0 15 0;
#X connect 16 0 10 0;
