#N canvas 4 50 1102 729 10;
#X msg 928 605 bypass \$1;
#X msg 681 605 easter_egg \$1;
#X msg 818 605 seed \$1;
#X obj 68 316 lmnts~;
#X obj 440 669 s lmnts_param-\$1;
#X msg 375 100 contour \$1;
#X msg 222 101 pitch \$1;
#X msg 305 99 gate \$1;
#X msg 482 100 bow_level \$1;
#X msg 587 100 bow_timbre \$1;
#X msg 704 100 blow_level \$1;
#X msg 947 100 blow_flow \$1;
#X msg 822 100 blow_timbre \$1;
#X msg 230 396 strike_level \$1;
#X msg 500 396 strike_mallet \$1;
#X msg 358 396 strike_timbre \$1;
#X msg 647 396 space \$1;
#X msg 734 396 geometry \$1;
#X msg 852 396 brightness \$1;
#X msg 981 396 damping \$1;
#X msg 549 605 mod_depth \$1;
#X msg 331 605 position \$1;
#X msg 441 605 mod_pitch \$1;
#X obj 822 25 r blow_timbre;
#X obj 704 25 r blow_level;
#X obj 587 25 r bow_timbre;
#X obj 482 25 r bow_level;
#X obj 375 25 r contour;
#X obj 482 255 s lmnts_param;
#X obj 99 251 r lmnts_param;
#X obj 222 25 r pitch;
#X obj 305 25 r gate;
#X obj 18 130 adc~;
#X obj 18 495 dac~;
#X obj 50 23 loadbang;
#X obj 50 44 t b b;
#X msg 50 65 loaded;
#X obj 50 86 stdout;
#X msg 111 63 \; pd dsp 1;
#X obj 981 315 r damping;
#X obj 852 315 r brightness;
#X obj 947 25 r blow_flow;
#X obj 734 315 r geometry;
#X obj 647 315 r space;
#X obj 500 316 r strike_mallet;
#X obj 358 316 r strike_timbre;
#X obj 230 316 r strike_level;
#X obj 501 466 s lmnts_param;
#X obj 928 537 r bypass;
#X obj 818 537 r seed;
#X obj 681 537 r easter_egg;
#X obj 549 537 r mod_depth;
#X obj 441 537 r modpitch;
#X obj 331 537 r position;
#X connect 0 0 4 0;
#X connect 1 0 4 0;
#X connect 2 0 4 0;
#X connect 3 0 33 0;
#X connect 3 1 33 1;
#X connect 5 0 28 0;
#X connect 6 0 28 0;
#X connect 7 0 28 0;
#X connect 8 0 28 0;
#X connect 9 0 28 0;
#X connect 10 0 28 0;
#X connect 11 0 28 0;
#X connect 12 0 28 0;
#X connect 13 0 47 0;
#X connect 14 0 47 0;
#X connect 15 0 47 0;
#X connect 16 0 47 0;
#X connect 17 0 47 0;
#X connect 18 0 47 0;
#X connect 19 0 47 0;
#X connect 20 0 4 0;
#X connect 21 0 4 0;
#X connect 22 0 4 0;
#X connect 23 0 12 0;
#X connect 24 0 10 0;
#X connect 25 0 9 0;
#X connect 26 0 8 0;
#X connect 27 0 5 0;
#X connect 29 0 3 0;
#X connect 30 0 6 0;
#X connect 31 0 7 0;
#X connect 32 0 3 0;
#X connect 32 1 3 1;
#X connect 34 0 35 0;
#X connect 35 0 36 0;
#X connect 35 1 38 0;
#X connect 36 0 37 0;
#X connect 39 0 19 0;
#X connect 40 0 18 0;
#X connect 41 0 11 0;
#X connect 42 0 17 0;
#X connect 43 0 16 0;
#X connect 44 0 14 0;
#X connect 45 0 15 0;
#X connect 46 0 13 0;
#X connect 48 0 0 0;
#X connect 49 0 2 0;
#X connect 50 0 1 0;
#X connect 51 0 20 0;
#X connect 52 0 22 0;
#X connect 53 0 21 0;
