#N canvas 4 50 1912 998 10;
#X obj 24 15 inlet;
#X text 61 14 knob raw knob and set;
#X obj 24 36 route set;
#X obj 121 488 v \$0-last-num;
#X obj 75 130 t a a, f 22;
#X obj 75 604 outlet;
#X obj 24 99 v \$0-last-num;
#X text 413 8 if current number is = or crossed the threshold;
#N canvas 1039 158 655 551 was-it-crossed 1;
#X obj 137 22 inlet;
#X obj 437 12 inlet;
#X text 475 33 start;
#N canvas 4 50 450 300 over-under 0;
#X obj 40 33 inlet;
#X text 84 35 check;
#X obj 242 37 inlet;
#X text 283 34 number to compare;
#X obj 40 140 <;
#X obj 99 141 >;
#X obj 242 58 t a a;
#X obj 40 54 t a a;
#X obj 40 161 sel 1;
#X obj 99 162 sel 1;
#X obj 40 230 outlet;
#X obj 40 182 1;
#X obj 99 183 2;
#X connect 0 0 7 0;
#X connect 2 0 6 0;
#X connect 4 0 8 0;
#X connect 5 0 9 0;
#X connect 6 0 4 1;
#X connect 6 1 5 1;
#X connect 7 0 4 0;
#X connect 7 1 5 0;
#X connect 8 0 11 0;
#X connect 9 0 12 0;
#X connect 11 0 10 0;
#X connect 12 0 10 0;
#X restore 78 362 pd over-under;
#N canvas 4 50 450 300 over-under 0;
#X obj 40 33 inlet;
#X text 84 35 check;
#X obj 242 37 inlet;
#X text 283 34 number to compare;
#X obj 40 140 <;
#X obj 99 141 >;
#X obj 242 58 t a a;
#X obj 40 54 t a a;
#X obj 40 161 sel 1;
#X obj 99 162 sel 1;
#X obj 40 230 outlet;
#X obj 40 182 1;
#X obj 99 183 2;
#X connect 0 0 7 0;
#X connect 2 0 6 0;
#X connect 4 0 8 0;
#X connect 5 0 9 0;
#X connect 6 0 4 1;
#X connect 6 1 5 1;
#X connect 7 0 4 0;
#X connect 7 1 5 0;
#X connect 8 0 11 0;
#X connect 9 0 12 0;
#X connect 11 0 10 0;
#X connect 12 0 10 0;
#X restore 224 361 pd over-under;
#X obj 51 267 t a a;
#X obj 51 200 spigot 0, f 12;
#X obj 224 256 spigot 0;
#X obj 224 277 t f b;
#X obj 294 254 0;
#X obj 51 221 t a a;
#X obj 78 399 !=;
#X obj 151 112 t a b;
#X obj 354 247 v \$0-last-num;
#X obj 354 268 t a a;
#X obj 78 440 outlet;
#X floatatom 78 420 5 0 0 0 - - -;
#X floatatom 137 43 5 0 0 0 - - -;
#X floatatom 437 33 5 0 0 0 - - -;
#X obj 437 54 t a a a;
#X connect 0 0 17 0;
#X connect 1 0 18 0;
#X connect 3 0 11 0;
#X connect 4 0 11 1;
#X connect 5 0 4 0;
#X connect 5 1 3 0;
#X connect 6 0 10 0;
#X connect 7 0 8 0;
#X connect 8 0 4 0;
#X connect 8 1 9 0;
#X connect 9 0 7 1;
#X connect 10 0 5 0;
#X connect 10 1 7 0;
#X connect 11 0 16 0;
#X connect 12 0 6 0;
#X connect 12 1 13 0;
#X connect 13 0 14 0;
#X connect 14 0 3 1;
#X connect 14 1 4 1;
#X connect 16 0 15 0;
#X connect 17 0 12 0;
#X connect 18 0 19 0;
#X connect 19 0 6 1;
#X connect 19 1 7 1;
#X restore 231 235 pd was-it-crossed;
#N canvas 4 50 1912 998 is-it-in-range 1;
#X obj 117 141 v \$0-last-num;
#X obj 60 117 t a b, f 10;
#X obj 60 168 -, f 8;
#X obj 60 189 abs;
#X obj 62 47 inlet;
#X obj 60 261 outlet;
#X obj 60 210 <= 0.1;
#X connect 0 0 2 1;
#X connect 1 0 2 0;
#X connect 1 1 0 0;
#X connect 2 0 3 0;
#X connect 3 0 6 0;
#X connect 4 0 1 0;
#X connect 6 0 5 0;
#X restore 204 268 pd is-it-in-range;
#X obj 204 207 t a a;
#X obj 75 446 t a a, f 8;
#X floatatom 75 67 5 0 0 0 - - -;
#X obj 421 65 inlet;
#X obj 420 265 s \$0-act;
#X obj 449 240 s \$0-knob-in;
#X obj 75 208 spigot 0;
#X obj 121 161 r \$0-knob-in;
#X obj 204 289 sel 1, f 16;
#X obj 204 310 t b b;
#X obj 204 331 1;
#X obj 204 415 s \$0-knob-in;
#X obj 230 357 0;
#X obj 230 378 s -\$0-act;
#X obj 330 179 r \$0-act;
#X floatatom 330 200 5 0 0 0 - - -;
#X floatatom 451 150 5 0 0 0 - - -;
#X floatatom 452 194 5 0 0 0 - - -;
#X floatatom 121 182 5 0 0 0 - - -;
#X obj 452 173 sel 0;
#X obj 301 336 s \$0-knob-in;
#X floatatom 301 317 5 0 0 0 - - -;
#X obj 420 89 t a a;
#X floatatom 413 135 5 0 0 0 - - -;
#X floatatom 24 120 5 0 0 0 - - -;
#X obj 162 52 r load-init;
#X msg 162 72 1;
#X connect 0 0 2 0;
#X connect 2 0 6 0;
#X connect 2 1 12 0;
#X connect 4 0 16 0;
#X connect 4 1 10 0;
#X connect 6 0 34 0;
#X connect 8 0 18 0;
#X connect 9 0 18 0;
#X connect 10 0 9 0;
#X connect 10 1 8 0;
#X connect 11 0 5 0;
#X connect 11 1 3 0;
#X connect 12 0 4 0;
#X connect 13 0 32 0;
#X connect 16 0 11 0;
#X connect 17 0 28 0;
#X connect 18 0 19 0;
#X connect 18 1 31 0;
#X connect 19 0 20 0;
#X connect 19 1 22 0;
#X connect 20 0 21 0;
#X connect 22 0 23 0;
#X connect 24 0 25 0;
#X connect 25 0 8 1;
#X connect 26 0 29 0;
#X connect 27 0 15 0;
#X connect 28 0 16 1;
#X connect 29 0 27 0;
#X connect 31 0 30 0;
#X connect 32 0 33 0;
#X connect 32 1 26 0;
#X connect 33 0 14 0;
#X connect 35 0 36 0;
#X connect 36 0 6 0;
