#N canvas 299 203 450 300 10;
#X msg 60 68 const 0;
#X obj 60 89 s \$1-\$2;
#X obj 40 117 s clear\$1-\$2;
#X obj 21 11 inlet;
#X obj 21 41 t b b b;
#X obj 21 143 symbol \$1;
#X symbolatom 21 164 10 0 0 0 - - -;
#X msg 21 184 \$1 Cleared;
#X obj 21 205 outlet;
#X obj 94 18 r clearcc\$1-\$2;
#X connect 0 0 1 0;
#X connect 3 0 4 0;
#X connect 4 0 5 0;
#X connect 4 1 2 0;
#X connect 4 2 0 0;
#X connect 5 0 6 0;
#X connect 6 0 7 0;
#X connect 7 0 8 0;
#X connect 9 0 4 0;
