#N canvas 1073 428 722 379 10;
#X obj 432 63 inlet;
#X obj 224 43 r notesIn-\$2;
#X obj 224 64 list split 2;
#X obj 224 86 sel 66 68 70 78 80 82;
#X obj 55 196 spigot;
#X obj 145 196 spigot;
#X obj 226 196 spigot;
#X obj 307 196 spigot;
#X obj 404 196 spigot;
#X obj 497 196 spigot;
#X obj 55 256 s repw-\$1-\$2;
#X obj 145 256 s repq-\$1-\$2;
#X obj 226 256 s repe-\$1-\$2;
#X obj 307 256 s reptri-\$1-\$2;
#X obj 404 256 s repsix-\$1-\$2;
#X obj 497 256 s rep24-\$1-\$2;
#X obj 585 195 sel 0;
#X msg 585 216 0;
#X connect 0 0 4 1;
#X connect 0 0 5 1;
#X connect 0 0 6 1;
#X connect 0 0 7 1;
#X connect 0 0 8 1;
#X connect 0 0 9 1;
#X connect 0 0 16 0;
#X connect 1 0 2 0;
#X connect 2 0 3 0;
#X connect 3 0 4 0;
#X connect 3 1 5 0;
#X connect 3 2 6 0;
#X connect 3 3 7 0;
#X connect 3 4 8 0;
#X connect 3 5 9 0;
#X connect 4 0 10 0;
#X connect 5 0 11 0;
#X connect 6 0 12 0;
#X connect 7 0 13 0;
#X connect 8 0 14 0;
#X connect 9 0 15 0;
#X connect 16 0 17 0;
#X connect 17 0 10 0;
#X connect 17 0 11 0;
#X connect 17 0 12 0;
#X connect 17 0 13 0;
#X connect 17 0 14 0;
#X connect 17 0 15 0;
