#N canvas 117 353 932 527 10;
#X obj 306 204 i 60000;
#X obj 343 243 /;
#X floatatom 343 279 6 0 0 0 - - -;
#X obj 343 182 t b f;
#X obj 343 302 *;
#X floatatom 392 201 5 1 64 0 - - -;
#X floatatom 343 326 10 0 0 0 - - -;
#X obj 392 222 t b b f;
#X msg 371 376 \$1;
#X obj 371 398 delay;
#X obj 146 249 * 44.1;
#X floatatom 121 318 10 0 0 0 - - -;
#X msg 146 379 resize \$1;
#X obj 146 121 bng 15 250 50 0 empty empty empty 17 7 0 10 -262144
-1 -1;
#X obj 146 349 spigot;
#X msg 201 193 1;
#X obj 146 220 delay 1;
#X obj 237 157 delay 10;
#X msg 237 178 0;
#X floatatom 263 343 5 0 0 0 - - -;
#X obj 343 349 t f f;
#X obj 263 407 outlet;
#X text 393 249 length for a in ms for delay and phasor;
#X text 66 288 length for a in samples for resize of array;
#X obj 343 112 r loopy-bpm;
#X obj 146 73 delay 20;
#X obj 163 98 r load-\$2;
#X obj 392 173 r \$1_length-\$2;
#X obj 371 440 s rec-off-\$1-\$2;
#X obj 398 277 r rec-\$1-\$2;
#X obj 398 301 r play-\$1-\$2;
#X obj 540 328 bng 15 250 50 0 empty empty empty 17 7 0 10 -262144
-1 -1;
#X floatatom 343 153 5 0 0 0 - - -;
#X obj 46 417 s \$1-\$2;
#X obj 165 439 s \$1-undo-\$2;
#X obj 146 51 inlet;
#X obj 326 416 bng 15 250 50 0 empty empty empty 17 7 0 10 -262144
-1 -1;
#X obj 453 344 bng 15 250 50 0 empty empty empty 17 7 0 10 -262144
-1 -1;
#X obj 343 133 change;
#X obj 277 109 delay 10;
#X obj 108 484 s \$1-redo-\$2;
#X obj 260 316 inlet;
#X obj 51 170 bng 15 250 50 0 empty empty empty 17 7 0 10 -262144 -1
-1;
#X obj 277 88 r loadbang-\$2;
#X msg 52 237 1.2544e+06;
#X obj 495 418 array size \$1-\$2;
#X floatatom 495 439 30 0 0 0 - - -;
#X obj 498 383 bng 15 250 50 0 empty empty empty 17 7 0 10 -262144
-1 -1;
#X obj 653 173 vsl 15 128 0 63 0 0 empty empty empty 0 -9 0 10 -262144
-1 -1 0 1;
#X floatatom 651 358 5 0 0 0 - - -;
#X floatatom 495 480 30 0 0 0 - - -;
#X obj 651 378 t b f;
#X obj 653 309 int;
#X obj 653 330 / 64;
#X obj 495 459 *;
#X obj 495 500 s \$1-offset-\$2;
#X obj 643 141 r \$1_offset-\$2;
#X obj 241 251 *;
#X connect 0 0 1 0;
#X connect 1 0 2 0;
#X connect 2 0 4 0;
#X connect 2 0 57 0;
#X connect 3 0 1 0;
#X connect 3 1 1 1;
#X connect 4 0 6 0;
#X connect 5 0 7 0;
#X connect 5 0 57 1;
#X connect 6 0 20 0;
#X connect 7 0 0 0;
#X connect 7 1 2 0;
#X connect 7 2 4 1;
#X connect 8 0 9 0;
#X connect 9 0 28 0;
#X connect 9 0 36 0;
#X connect 10 0 11 0;
#X connect 11 0 14 0;
#X connect 12 0 33 0;
#X connect 12 0 34 0;
#X connect 12 0 40 0;
#X connect 13 0 15 0;
#X connect 13 0 16 0;
#X connect 13 0 17 0;
#X connect 14 0 12 0;
#X connect 15 0 14 1;
#X connect 16 0 10 0;
#X connect 17 0 18 0;
#X connect 18 0 14 1;
#X connect 19 0 21 0;
#X connect 20 0 19 0;
#X connect 20 1 8 0;
#X connect 24 0 38 0;
#X connect 25 0 13 0;
#X connect 26 0 13 0;
#X connect 27 0 5 0;
#X connect 29 0 6 0;
#X connect 29 0 31 0;
#X connect 30 0 6 0;
#X connect 30 0 37 0;
#X connect 32 0 3 0;
#X connect 35 0 25 0;
#X connect 38 0 32 0;
#X connect 39 0 32 0;
#X connect 41 0 19 0;
#X connect 42 0 44 0;
#X connect 43 0 39 0;
#X connect 44 0 12 0;
#X connect 45 0 46 0;
#X connect 46 0 54 0;
#X connect 47 0 45 0;
#X connect 48 0 52 0;
#X connect 49 0 51 0;
#X connect 50 0 55 0;
#X connect 51 0 47 0;
#X connect 51 1 54 1;
#X connect 52 0 53 0;
#X connect 53 0 49 0;
#X connect 54 0 50 0;
#X connect 56 0 48 0;
#X connect 57 0 10 0;
