#N canvas 4 50 794 710 10;
#X obj 217 264 == 1;
#X obj 269 264 == 2;
#X obj 317 264 == 3;
#X obj 367 264 == 4;
#X obj 400 15 ctlin;
#X floatatom 413 67 5 0 0 0 - - -;
#X obj 217 308 tgl 15 0 empty empty empty 17 7 0 10 -262144 -1 -1 0
1;
#X obj 413 87 spigot;
#X obj 452 67 == 2;
#X obj 269 308 tgl 15 0 empty empty empty 17 7 0 10 -262144 -1 -1 0
1;
#X obj 317 308 tgl 15 0 empty empty empty 17 7 0 10 -262144 -1 -1 0
1;
#X obj 367 308 tgl 15 0 empty empty empty 17 7 0 10 -262144 -1 -1 0
1;
#X obj 18 243 sel 127;
#X obj 184 308 bng 15 250 50 0 empty empty empty 17 7 0 10 -262144
-1 -1;
#X obj 184 351 spigot;
#X obj 236 351 spigot;
#X obj 284 351 spigot;
#X obj 334 351 spigot;
#X obj 488 375 bng 15 250 50 0 empty empty empty 17 7 0 10 -262144
-1 -1;
#X obj 236 375 bng 15 250 50 0 empty empty empty 17 7 0 10 -262144
-1 -1;
#X obj 284 375 bng 15 250 50 0 empty empty empty 17 7 0 10 -262144
-1 -1;
#X obj 334 375 bng 15 250 50 0 empty empty empty 17 7 0 10 -262144
-1 -1;
#X obj 284 424 s toggle-arm-\$1;
#X obj 334 398 s ccqs-\$1;
#X obj 18 264 bng 15 250 50 0 empty empty empty 17 7 0 10 -262144 -1
-1;
#X obj 18 284 t b b;
#X floatatom 18 329 10 0 0 0 - - -;
#X obj 18 306 timer;
#X obj 18 375 tgl 15 0 empty empty empty 17 7 0 10 -262144 -1 -1 0
1;
#X obj 18 398 sel 1 0;
#X obj 18 478 s greater-\$1;
#X obj 104 478 s lesser-\$1;
#X obj 122 450 bng 15 250 50 0 empty empty empty 17 7 0 10 -262144
-1 -1;
#X obj 34 450 bng 15 250 50 0 empty empty empty 17 7 0 10 -262144 -1
-1;
#X obj 184 198 r greater-\$1;
#X obj 521 264 == 1;
#X obj 584 264 == 2;
#X obj 632 264 == 3;
#X obj 682 264 == 4;
#X obj 521 308 tgl 15 0 empty empty empty 17 7 0 10 -262144 -1 -1 0
1;
#X obj 584 308 tgl 15 0 empty empty empty 17 7 0 10 -262144 -1 -1 0
1;
#X obj 632 308 tgl 15 0 empty empty empty 17 7 0 10 -262144 -1 -1 0
1;
#X obj 682 308 tgl 15 0 empty empty empty 17 7 0 10 -262144 -1 -1 0
1;
#X obj 488 308 bng 15 250 50 0 empty empty empty 17 7 0 10 -262144
-1 -1;
#X obj 488 351 spigot;
#X obj 551 351 spigot;
#X obj 599 351 spigot;
#X obj 649 351 spigot;
#X obj 184 375 bng 15 250 50 0 empty empty empty 17 7 0 10 -262144
-1 -1;
#X obj 551 375 bng 15 250 50 0 empty empty empty 17 7 0 10 -262144
-1 -1;
#X obj 599 375 bng 15 250 50 0 empty empty empty 17 7 0 10 -262144
-1 -1;
#X obj 649 375 bng 15 250 50 0 empty empty empty 17 7 0 10 -262144
-1 -1;
#X obj 599 483 s toggle-ab-arm-\$1;
#X obj 488 216 r lesser-\$1;
#X obj 649 452 s ccqe-\$1;
#X obj 584 596 tgl 15 0 empty empty empty 17 7 0 10 -262144 -1 -1 0
1;
#X obj 672 596 tgl 15 0 empty empty empty 17 7 0 10 -262144 -1 -1 0
1;
#X obj 236 450 s undocc-\$1;
#X obj 551 622 spigot;
#X obj 639 622 spigot;
#X obj 551 596 bng 15 250 50 0 empty empty empty 17 7 0 10 -262144
-1 -1;
#X obj 551 653 s clearcca-\$1;
#X obj 639 653 s clearccb-\$1;
#X obj 584 569 r aspig-\$1;
#X obj 672 569 r bspig-\$1;
#X obj 551 478 t b b;
#X obj 578 538 s undocc-\$1;
#X obj 18 351 >= 900;
#X obj 649 402 t b b;
#X obj 676 428 s ccqs-\$1;
#X obj 488 511 s revcc-\$1;
#X obj 184 481 s toggle-ab-arm-\$1;
#X obj 488 428 t b b;
#X obj 515 452 s toggle-ab-arm-\$1;
#X floatatom 169 95 5 0 0 0 - - -;
#X obj 521 97 tgl 15 0 empty empty empty 17 7 0 10 -262144 -1 -1 0
1;
#X floatatom 451 43 5 0 0 0 - - -;
#X obj 184 219 spigot;
#X obj 488 237 spigot;
#X connect 0 0 6 0;
#X connect 1 0 9 0;
#X connect 2 0 10 0;
#X connect 3 0 11 0;
#X connect 4 0 12 0;
#X connect 4 0 74 0;
#X connect 4 1 5 0;
#X connect 4 2 76 0;
#X connect 5 0 7 0;
#X connect 6 0 14 1;
#X connect 7 0 0 0;
#X connect 7 0 1 0;
#X connect 7 0 2 0;
#X connect 7 0 3 0;
#X connect 7 0 35 0;
#X connect 7 0 36 0;
#X connect 7 0 37 0;
#X connect 7 0 38 0;
#X connect 8 0 7 1;
#X connect 8 0 75 0;
#X connect 9 0 15 1;
#X connect 10 0 16 1;
#X connect 11 0 17 1;
#X connect 12 0 24 0;
#X connect 13 0 14 0;
#X connect 13 0 15 0;
#X connect 13 0 16 0;
#X connect 13 0 17 0;
#X connect 14 0 48 0;
#X connect 15 0 19 0;
#X connect 16 0 20 0;
#X connect 17 0 21 0;
#X connect 18 0 72 0;
#X connect 19 0 57 0;
#X connect 20 0 22 0;
#X connect 21 0 23 0;
#X connect 24 0 25 0;
#X connect 25 0 27 0;
#X connect 25 1 27 1;
#X connect 26 0 67 0;
#X connect 27 0 26 0;
#X connect 28 0 29 0;
#X connect 29 0 30 0;
#X connect 29 0 33 0;
#X connect 29 1 31 0;
#X connect 29 1 32 0;
#X connect 34 0 77 0;
#X connect 35 0 39 0;
#X connect 36 0 40 0;
#X connect 37 0 41 0;
#X connect 38 0 42 0;
#X connect 39 0 44 1;
#X connect 40 0 45 1;
#X connect 41 0 46 1;
#X connect 42 0 47 1;
#X connect 43 0 44 0;
#X connect 43 0 45 0;
#X connect 43 0 46 0;
#X connect 43 0 47 0;
#X connect 44 0 18 0;
#X connect 45 0 49 0;
#X connect 46 0 50 0;
#X connect 47 0 51 0;
#X connect 48 0 71 0;
#X connect 49 0 65 0;
#X connect 50 0 52 0;
#X connect 51 0 68 0;
#X connect 53 0 78 0;
#X connect 55 0 58 1;
#X connect 56 0 59 1;
#X connect 58 0 61 0;
#X connect 59 0 62 0;
#X connect 60 0 58 0;
#X connect 60 0 59 0;
#X connect 63 0 55 0;
#X connect 64 0 56 0;
#X connect 65 0 60 0;
#X connect 65 1 66 0;
#X connect 67 0 28 0;
#X connect 68 0 54 0;
#X connect 68 1 69 0;
#X connect 72 0 70 0;
#X connect 72 1 73 0;
#X connect 75 0 77 1;
#X connect 75 0 78 1;
#X connect 76 0 8 0;
#X connect 77 0 13 0;
#X connect 78 0 43 0;
