#N canvas 939 98 778 785 10;
#X obj 400 15 ctlin;
#X floatatom 413 67 5 0 0 0 - - -;
#X obj 217 308 tgl 15 0 empty empty empty 17 7 0 10 -262144 -1 -1 0
1;
#X obj 413 87 spigot;
#X obj 269 308 tgl 15 0 empty empty empty 17 7 0 10 -262144 -1 -1 0
1;
#X obj 317 308 tgl 15 0 empty empty empty 17 7 0 10 -262144 -1 -1 0
1;
#X obj 367 308 tgl 15 0 empty empty empty 17 7 0 10 -262144 -1 -1 0
1;
#X obj 184 308 bng 15 250 50 0 empty empty empty 17 7 0 10 -262144
-1 -1;
#X obj 184 351 spigot;
#X obj 236 351 spigot;
#X obj 284 351 spigot;
#X obj 334 351 spigot;
#X obj 488 375 bng 15 250 50 0 empty empty empty 17 7 0 10 -262144
-1 -1;
#X obj 236 375 bng 15 250 50 0 empty empty empty 17 7 0 10 -262144
-1 -1;
#X obj 284 375 bng 15 250 50 0 empty empty empty 17 7 0 10 -262144
-1 -1;
#X obj 334 375 bng 15 250 50 0 empty empty empty 17 7 0 10 -262144
-1 -1;
#X obj 18 264 bng 15 250 50 0 empty empty empty 17 7 0 10 -262144 -1
-1;
#X obj 18 284 t b b;
#X floatatom 18 329 10 0 0 0 - - -;
#X obj 18 306 timer;
#X obj 18 375 tgl 15 0 empty empty empty 17 7 0 10 -262144 -1 -1 0
1;
#X obj 18 398 sel 1 0;
#X obj 18 478 s greater-\$1;
#X obj 104 478 s lesser-\$1;
#X obj 122 450 bng 15 250 50 0 empty empty empty 17 7 0 10 -262144
-1 -1;
#X obj 34 450 bng 15 250 50 0 empty empty empty 17 7 0 10 -262144 -1
-1;
#X obj 184 198 r greater-\$1;
#X obj 521 308 tgl 15 0 empty empty empty 17 7 0 10 -262144 -1 -1 0
1;
#X obj 584 308 tgl 15 0 empty empty empty 17 7 0 10 -262144 -1 -1 0
1;
#X obj 632 308 tgl 15 0 empty empty empty 17 7 0 10 -262144 -1 -1 0
1;
#X obj 682 308 tgl 15 0 empty empty empty 17 7 0 10 -262144 -1 -1 0
1;
#X obj 488 308 bng 15 250 50 0 empty empty empty 17 7 0 10 -262144
-1 -1;
#X obj 488 351 spigot;
#X obj 551 351 spigot;
#X obj 599 351 spigot;
#X obj 649 351 spigot;
#X obj 184 375 bng 15 250 50 0 empty empty empty 17 7 0 10 -262144
-1 -1;
#X obj 551 375 bng 15 250 50 0 empty empty empty 17 7 0 10 -262144
-1 -1;
#X obj 599 375 bng 15 250 50 0 empty empty empty 17 7 0 10 -262144
-1 -1;
#X obj 649 375 bng 15 250 50 0 empty empty empty 17 7 0 10 -262144
-1 -1;
#X obj 488 216 r lesser-\$1;
#X obj 551 399 t b b;
#X obj 649 399 t b b;
#X obj 488 399 t b b;
#X floatatom 169 95 5 0 0 0 - - -;
#X obj 521 97 tgl 15 0 empty empty empty 17 7 0 10 -262144 -1 -1 0
1;
#X floatatom 451 43 5 0 0 0 - - -;
#X obj 184 219 spigot;
#X obj 488 237 spigot;
#X obj 217 264 == 20;
#X obj 269 264 == 22;
#X obj 317 264 == 23;
#X obj 367 264 == 25;
#X obj 452 67 == 4;
#X obj 521 264 == 20;
#X obj 584 264 == 22;
#X obj 632 264 == 23;
#X obj 682 264 == 25;
#X obj 599 399 t b b;
#X obj 18 351 >= 500;
#X obj 184 401 s A_midirec-\$1;
#X obj 236 429 s B_midirec-\$1;
#X obj 284 401 s C_midirec-\$1;
#X obj 334 428 s D_midirec-\$1;
#X obj 485 434 s A_midirec-\$1;
#X obj 537 462 s B_midirec-\$1;
#X obj 585 434 s C_midirec-\$1;
#X obj 635 461 s D_midirec-\$1;
#X obj 505 503 s A_midis-\$1;
#X obj 521 528 s B_midis-\$1;
#X obj 600 502 s C_midis-\$1;
#X obj 616 527 s D_midis-\$1;
#X obj 41 209 sel 127;
#X connect 0 0 44 0;
#X connect 0 0 72 0;
#X connect 0 1 1 0;
#X connect 0 2 46 0;
#X connect 1 0 3 0;
#X connect 2 0 8 1;
#X connect 3 0 49 0;
#X connect 3 0 50 0;
#X connect 3 0 51 0;
#X connect 3 0 52 0;
#X connect 3 0 54 0;
#X connect 3 0 55 0;
#X connect 3 0 56 0;
#X connect 3 0 57 0;
#X connect 4 0 9 1;
#X connect 5 0 10 1;
#X connect 6 0 11 1;
#X connect 7 0 8 0;
#X connect 7 0 9 0;
#X connect 7 0 10 0;
#X connect 7 0 11 0;
#X connect 8 0 36 0;
#X connect 9 0 13 0;
#X connect 10 0 14 0;
#X connect 11 0 15 0;
#X connect 12 0 43 0;
#X connect 13 0 61 0;
#X connect 14 0 62 0;
#X connect 15 0 63 0;
#X connect 16 0 17 0;
#X connect 17 0 19 0;
#X connect 17 1 19 1;
#X connect 18 0 59 0;
#X connect 19 0 18 0;
#X connect 20 0 21 0;
#X connect 21 0 22 0;
#X connect 21 0 25 0;
#X connect 21 1 23 0;
#X connect 21 1 24 0;
#X connect 26 0 47 0;
#X connect 27 0 32 1;
#X connect 28 0 33 1;
#X connect 29 0 34 1;
#X connect 30 0 35 1;
#X connect 31 0 32 0;
#X connect 31 0 33 0;
#X connect 31 0 34 0;
#X connect 31 0 35 0;
#X connect 32 0 12 0;
#X connect 33 0 37 0;
#X connect 34 0 38 0;
#X connect 35 0 39 0;
#X connect 36 0 60 0;
#X connect 37 0 41 0;
#X connect 38 0 58 0;
#X connect 39 0 42 0;
#X connect 40 0 48 0;
#X connect 41 0 65 0;
#X connect 41 1 69 0;
#X connect 42 0 67 0;
#X connect 42 1 71 0;
#X connect 43 0 64 0;
#X connect 43 1 68 0;
#X connect 45 0 47 1;
#X connect 45 0 48 1;
#X connect 46 0 53 0;
#X connect 47 0 7 0;
#X connect 48 0 31 0;
#X connect 49 0 2 0;
#X connect 50 0 4 0;
#X connect 51 0 5 0;
#X connect 52 0 6 0;
#X connect 53 0 3 1;
#X connect 53 0 45 0;
#X connect 54 0 27 0;
#X connect 55 0 28 0;
#X connect 56 0 29 0;
#X connect 57 0 30 0;
#X connect 58 0 66 0;
#X connect 58 1 70 0;
#X connect 59 0 20 0;
#X connect 72 0 16 0;
