#N canvas 984 439 816 555 10;
#X obj 187 287 s rackMsgs;
#X obj 14 78 spigot;
#X obj 14 21 / 1023;
#X obj 14 128 symbol \$1;
#X obj 14 156 pack s 2;
#X obj 14 -15 i;
#X obj 14 3 change -1;
#X obj 14 110 t b f f, f 29;
#X obj 194 78 spigot;
#X obj 194 21 / 1023;
#X obj 194 128 symbol \$1;
#X obj 194 156 pack s 2;
#X obj 194 -15 i;
#X obj 194 3 change -1;
#X obj 194 110 t b f f, f 29;
#X obj 374 78 spigot;
#X obj 374 21 / 1023;
#X obj 374 128 symbol \$1;
#X obj 374 156 pack s 2;
#X obj 374 -15 i;
#X obj 374 3 change -1;
#X obj 374 110 t b f f, f 31;
#X obj 14 -33 r oknob1Raw;
#X obj 194 -33 r oknob2Raw;
#X obj 374 -33 r oknob3Raw;
#X obj 220 -118 inlet;
#X obj 576 77 spigot;
#X obj 576 20 / 1023;
#X obj 576 127 symbol \$1;
#X obj 576 155 pack s 2;
#X obj 576 -16 i;
#X obj 576 2 change -1;
#X obj 576 109 t b f f, f 31;
#X obj 576 -34 r oknob4Raw;
#X msg 14 181 setparam \$1 A_volume \$2;
#X msg 194 181 setparam \$1 B_volume \$2;
#X msg 374 181 setparam \$1 C_volume \$2;
#X msg 576 181 setparam \$1 D_volume \$2;
#X obj 14 59 override;
#X obj 94 25 r loadbang-\$1;
#X obj 194 52 override;
#X obj 271 18 r loadbang-\$1;
#X obj 374 53 override;
#X obj 454 19 r loadbang-\$1;
#X obj 576 52 override;
#X obj 656 18 r loadbang-\$1;
#X connect 1 0 7 0;
#X connect 2 0 38 0;
#X connect 3 0 4 0;
#X connect 4 0 34 0;
#X connect 5 0 6 0;
#X connect 6 0 2 0;
#X connect 7 0 3 0;
#X connect 7 1 4 1;
#X connect 8 0 14 0;
#X connect 9 0 40 0;
#X connect 10 0 11 0;
#X connect 11 0 35 0;
#X connect 12 0 13 0;
#X connect 13 0 9 0;
#X connect 14 0 10 0;
#X connect 14 1 11 1;
#X connect 15 0 21 0;
#X connect 16 0 42 0;
#X connect 17 0 18 0;
#X connect 18 0 36 0;
#X connect 19 0 20 0;
#X connect 20 0 16 0;
#X connect 21 0 17 0;
#X connect 21 1 18 1;
#X connect 22 0 5 0;
#X connect 23 0 12 0;
#X connect 24 0 19 0;
#X connect 25 0 1 1;
#X connect 25 0 15 1;
#X connect 25 0 8 1;
#X connect 25 0 26 1;
#X connect 25 0 38 1;
#X connect 25 0 40 1;
#X connect 25 0 42 1;
#X connect 25 0 44 1;
#X connect 26 0 32 0;
#X connect 27 0 44 0;
#X connect 28 0 29 0;
#X connect 29 0 37 0;
#X connect 30 0 31 0;
#X connect 31 0 27 0;
#X connect 32 0 28 0;
#X connect 32 1 29 1;
#X connect 33 0 30 0;
#X connect 34 0 0 0;
#X connect 35 0 0 0;
#X connect 36 0 0 0;
#X connect 37 0 0 0;
#X connect 38 0 1 0;
#X connect 39 0 38 2;
#X connect 40 0 8 0;
#X connect 41 0 40 2;
#X connect 42 0 15 0;
#X connect 43 0 42 2;
#X connect 44 0 26 0;
#X connect 45 0 44 2;
