#N canvas 725 354 620 690 10;
#X declare -path soundshare;
#X declare -path cg-pd-library-local/sampling;
#X declare -path cg-pd-library-local/sequencer;
#X declare -path cg-pd-library-local/externals;
#X declare -path cg-pd-library-local/metronome;
#X obj 166 79 r notesIn-\$1;
#X obj 165 104 s notesOut-\$1;
#X obj 388 90 r loadbang-\$1;
#X obj 25 186 inlet~ inL-\$1;
#X obj 124 186 inlet~ inR-\$1;
#X obj 27 491 outlet~ outL-\$1;
#X obj 124 491 outlet~ outR-\$1;
#X obj 286 78 r auxIn-\$1;
#X obj 285 101 r expIn-\$1;
#X obj 285 126 r fsIn-\$1;
#X obj 388 157 s aux-label-\$1;
#X obj 483 126 int 0;
#X obj 483 157 s aux-led-\$1;
#X obj 388 126 symbol;
#X obj 278 192 r ctrlIn-\$1;
#X obj 278 218 s ctrlOut-\$1;
#X obj 196 313 declare -path soundshare;
#N canvas 4 50 450 300 cg-pd-library-local 0;
#X obj 94 64 declare -path cg-pd-library-local/sampling;
#X obj 94 87 declare -path cg-pd-library-local/sequencer;
#X obj 94 113 declare -path cg-pd-library-local/externals;
#X obj 94 136 declare -path cg-pd-library-local/metronome;
#X restore 199 340 pd cg-pd-library-local;
#N canvas 4 50 1912 998 4track 1;
#X obj 145 184 sig~;
#X obj 145 226 *~;
#X obj 130 255 *~;
#X obj 145 205 lop~ 20;
#X obj 101 110 inlet~ inR;
#X obj 21 85 inlet~ inL;
#X obj 19 590 outlet~ outL;
#X obj 103 590 outlet~ outR;
#X obj 145 163 / 100;
#X obj 145 142 r ol_ilevel-\$1;
#X obj 1003 288 s aux-label-\$1;
#X obj 1072 265 s aux-led-\$1;
#X obj 130 293 s~ recorderin-\$1;
#X obj 20 351 *~;
#X obj 160 251 env~ 4410 2205;
#X obj 362 405 r mastervol-\$1;
#X obj 362 426 / 100;
#X obj 362 445 sig~;
#X obj 269 503 *~;
#N canvas 544 139 1361 790 leveldisplay 0;
#X obj 245 507 i;
#X obj 233 389 f;
#X obj 233 371 t b f;
#X obj 245 417 +;
#X obj 233 353 *;
#X obj 233 325 / 10;
#X obj 245 435 / 100;
#X obj 245 453 * 128;
#X obj 245 471 min 128;
#X obj 245 489 max 1;
#X obj 246 531 f;
#X msg 246 549 /oled/gInvertArea 3 0 11 \$1 15;
#X obj 246 596 s oscOut;
#X obj 179 26 r activePage;
#X obj 179 47 unpack s s;
#X obj 179 68 sel \$1;
#X obj 244 68 sel pg_levels;
#X msg 179 89 1;
#X msg 244 89 1;
#X msg 319 88 0;
#X msg 212 89 0;
#X obj 179 125 &&;
#X obj 179 146 change;
#X obj 179 167 sel 1;
#X obj 63 237 sel 0;
#X msg 63 260 /oled/gFillArea 3 0 50 128 14 0;
#X obj 179 194 delay 500;
#X msg 189 218 1;
#X msg 255 228 0;
#X msg 220 166 stop;
#X obj 233 299 spigot 0;
#X obj 313 481 f;
#X msg 313 499 /oled/gInvertArea 3 0 29 \$1 15;
#X obj 313 459 i;
#X obj 301 341 f;
#X obj 301 323 t b f;
#X obj 313 369 +;
#X obj 301 305 *;
#X obj 301 283 / 10;
#X obj 313 387 / 100;
#X obj 313 405 * 128;
#X obj 313 423 min 128;
#X obj 313 441 max 1;
#X obj 311 248 spigot 0;
#X msg 462 343 /oled/gClear 3 1;
#X msg 81 375 /oled/gFlip 3;
#X obj 561 503 i;
#X obj 576 485 - 100;
#X msg 612 611 /oled/gPrintln 3 98 15 8 1 \$1dB;
#X obj 561 521 moses -99;
#X msg 561 629 /oled/gPrintln 3 92 15 8 1 \$1dB;
#X obj 612 539 moses -9;
#X msg 657 593 /oled/gPrintln 3 104 15 8 1 \$1dB;
#X obj 657 557 moses 0;
#X msg 696 575 /oled/gPrintln 3 104 15 8 1 +\$1dB;
#X obj 467 242 t b b b b b b;
#X obj 563 317 i;
#X obj 578 299 - 100;
#X obj 563 335 moses -99;
#X obj 659 371 moses 0;
#X msg 659 407 /oled/gPrintln 3 104 33 8 1 \$1dB;
#X msg 614 425 /oled/gPrintln 3 98 33 8 1 \$1dB;
#X msg 563 443 /oled/gPrintln 3 92 33 8 1 \$1dB;
#X msg 698 389 /oled/gPrintln 3 104 33 8 1 +\$1dB;
#X text 738 525 input db count;
#X obj 614 353 moses -9;
#X text 435 193 recycle level;
#X text 38 176 input level;
#X obj 211 278 r inputlevel;
#X connect 0 0 10 1;
#X connect 1 0 3 0;
#X connect 2 0 1 0;
#X connect 2 1 3 1;
#X connect 3 0 6 0;
#X connect 4 0 2 0;
#X connect 5 0 4 0;
#X connect 5 0 4 1;
#X connect 6 0 7 0;
#X connect 7 0 8 0;
#X connect 8 0 9 0;
#X connect 9 0 0 0;
#X connect 10 0 11 0;
#X connect 11 0 12 0;
#X connect 13 0 14 0;
#X connect 14 0 15 0;
#X connect 14 1 16 0;
#X connect 15 0 17 0;
#X connect 15 1 20 0;
#X connect 16 0 18 0;
#X connect 16 1 19 0;
#X connect 17 0 21 0;
#X connect 18 0 21 1;
#X connect 19 0 21 1;
#X connect 20 0 21 0;
#X connect 21 0 22 0;
#X connect 22 0 23 0;
#X connect 22 0 24 0;
#X connect 23 0 26 0;
#X connect 23 1 28 0;
#X connect 23 1 29 0;
#X connect 24 0 25 0;
#X connect 25 0 12 0;
#X connect 26 0 27 0;
#X connect 27 0 30 1;
#X connect 27 0 43 1;
#X connect 28 0 30 1;
#X connect 28 0 43 1;
#X connect 29 0 26 0;
#X connect 30 0 5 0;
#X connect 30 0 47 0;
#X connect 31 0 32 0;
#X connect 32 0 12 0;
#X connect 33 0 31 1;
#X connect 34 0 36 0;
#X connect 35 0 34 0;
#X connect 35 1 36 1;
#X connect 36 0 39 0;
#X connect 37 0 35 0;
#X connect 38 0 37 0;
#X connect 38 0 37 1;
#X connect 39 0 40 0;
#X connect 40 0 41 0;
#X connect 41 0 42 0;
#X connect 42 0 33 0;
#X connect 43 0 38 0;
#X connect 43 0 55 0;
#X connect 43 0 57 0;
#X connect 44 0 12 0;
#X connect 45 0 12 0;
#X connect 46 0 49 0;
#X connect 47 0 46 1;
#X connect 48 0 12 0;
#X connect 49 0 50 0;
#X connect 49 1 51 0;
#X connect 50 0 12 0;
#X connect 51 0 48 0;
#X connect 51 1 53 0;
#X connect 52 0 12 0;
#X connect 53 0 52 0;
#X connect 53 1 54 0;
#X connect 54 0 12 0;
#X connect 55 0 45 0;
#X connect 55 1 10 0;
#X connect 55 2 31 0;
#X connect 55 3 46 0;
#X connect 55 4 56 0;
#X connect 55 5 44 0;
#X connect 56 0 58 0;
#X connect 57 0 56 1;
#X connect 58 0 62 0;
#X connect 58 1 65 0;
#X connect 59 0 60 0;
#X connect 59 1 63 0;
#X connect 60 0 12 0;
#X connect 61 0 12 0;
#X connect 62 0 12 0;
#X connect 63 0 12 0;
#X connect 65 0 61 0;
#X connect 65 1 59 0;
#X connect 68 0 30 0;
#X restore 737 266 pd leveldisplay;
#N canvas 1197 154 719 480 temposync 0;
#X obj 19 180 /;
#X obj 19 203 nbx 5 14 -1e+37 1e+37 0 0 empty empty empty 0 -8 0 10
-262144 -1 -1 0.119048 256;
#X obj 19 224 * 1000;
#X obj 19 250 nbx 5 14 -1e+37 1e+37 0 0 empty empty empty 0 -8 0 10
-262144 -1 -1 119.048 256;
#X floatatom 88 143 5 0 0 0 - - -;
#X obj 126 105 hsl 128 15 0 5000 0 0 empty empty empty -2 -8 0 10 -262144
-1 -1 0 1;
#X obj 89 226 / 1;
#X obj 89 250 int;
#X obj 89 310 * 1;
#X obj 89 338 nbx 5 14 -1e+37 1e+37 0 0 empty empty empty 0 -8 0 10
-262144 -1 -1 300 256;
#X obj 89 275 max 1;
#X obj 178 228 spigot 1;
#X obj 89 202 spigot 0;
#X obj 209 187 == 0;
#X obj 153 310 nbx 5 14 -1e+37 1e+37 0 0 empty empty empty 0 -8 0 10
-262144 -1 -1 0 256;
#X obj 153 410 s aux-label-\$1;
#X obj 88 410 s len-\$1;
#X msg 153 334 1/4 notes: \$1;
#X obj 106 80 / 1;
#X obj 106 55 nbx 5 14 -1e+37 1e+37 0 0 empty empty empty 0 -8 0 10
-262144 -1 -1 300 256;
#X obj 89 359 / 1;
#X obj 89 382 nbx 5 14 -1e+37 1e+37 0 0 empty empty empty 0 -8 0 10
-262144 -1 -1 300 256;
#X obj 153 155 t b f;
#X msg 19 157 15;
#X obj 106 29 r ol_delay-\$1;
#X obj 19 111 t b a;
#X obj 19 134 t b a;
#X text 195 63 tempo sync;
#X obj 19 65 r loopy-bpm;
#X obj 153 359 spigot;
#X obj 292 137 r activePage;
#X obj 292 158 unpack s s, f 13;
#X obj 292 179 sel \$1;
#X msg 292 200 1;
#X msg 325 200 0;
#X msg 367 200 1;
#X msg 430 200 0;
#X obj 349 252 &&;
#X floatatom 349 273 5 0 0 0 - - -;
#X obj 349 293 change;
#X obj 349 314 == 0;
#X msg 349 335 /oled/gClear 3 1;
#X obj 349 356 s oscOutRaw;
#X obj 276 73 r temposync-\$1;
#X obj 276 103 tgl 15 0 empty empty empty 17 7 0 10 -262144 -1 -1 0
1;
#X floatatom 19 86 5 0 0 0 - - -;
#X obj 367 179 sel pg_delayset;
#X connect 0 0 1 0;
#X connect 1 0 2 0;
#X connect 2 0 3 0;
#X connect 3 0 6 1;
#X connect 3 0 8 1;
#X connect 4 0 12 0;
#X connect 4 0 11 0;
#X connect 5 0 4 0;
#X connect 6 0 7 0;
#X connect 7 0 10 0;
#X connect 8 0 9 0;
#X connect 9 0 20 0;
#X connect 10 0 8 0;
#X connect 10 0 14 0;
#X connect 11 0 9 0;
#X connect 12 0 6 0;
#X connect 13 0 11 1;
#X connect 14 0 17 0;
#X connect 17 0 29 0;
#X connect 18 0 4 0;
#X connect 19 0 18 0;
#X connect 20 0 21 0;
#X connect 21 0 16 0;
#X connect 22 0 4 0;
#X connect 22 1 13 0;
#X connect 22 1 12 1;
#X connect 23 0 0 0;
#X connect 24 0 19 0;
#X connect 25 0 4 0;
#X connect 25 1 26 0;
#X connect 26 0 23 0;
#X connect 26 1 0 1;
#X connect 28 0 45 0;
#X connect 29 0 15 0;
#X connect 30 0 31 0;
#X connect 31 0 32 0;
#X connect 31 1 46 0;
#X connect 32 0 33 0;
#X connect 32 1 34 0;
#X connect 33 0 37 0;
#X connect 34 0 37 0;
#X connect 35 0 37 1;
#X connect 36 0 37 1;
#X connect 37 0 29 1;
#X connect 37 0 38 0;
#X connect 38 0 39 0;
#X connect 39 0 40 0;
#X connect 40 0 41 0;
#X connect 41 0 42 0;
#X connect 43 0 44 0;
#X connect 44 0 22 0;
#X connect 45 0 25 0;
#X connect 46 0 35 0;
#X connect 46 1 36 0;
#X restore 861 295 pd temposync;
#N canvas 563 285 628 462 countdown 0;
#X obj 38 52 r activePage;
#X obj 40 71 unpack s s;
#X obj 40 93 sel \$1;
#X msg 28 120 1;
#X msg 61 121 0;
#X msg 206 122 0;
#X obj 115 164 &&;
#X msg 156 121 1;
#X msg 105 121 0;
#X floatatom 133 189 5 0 0 0 - - -;
#X obj 133 234 == 0;
#X obj 133 209 change;
#X obj 133 276 s oscOutRaw;
#X msg 133 255 /oled/gClear 3 1;
#X text 23 14 beat counter page handling;
#X obj 99 94 sel pg_main pg_aux;
#X obj 114 301 s active-\$1;
#X obj 311 61 r activePage;
#X obj 311 82 unpack s s;
#X obj 311 103 sel \$1;
#X msg 311 124 1;
#X msg 383 124 1;
#X msg 449 124 0;
#X msg 344 124 0;
#X obj 367 163 &&;
#X floatatom 390 192 5 0 0 0 - - -;
#X obj 390 212 change;
#X obj 390 233 == 0;
#X msg 390 254 /oled/gClear 3 1;
#X obj 390 275 s oscOutRaw;
#X obj 334 298 spigot;
#X obj 299 264 r loopy-bpm;
#X floatatom 334 342 5 0 0 0 - - -;
#X obj 334 363 s aux-label-\$1;
#X obj 334 319 t f b;
#X obj 383 103 sel pg_xtra;
#X connect 0 0 1 0;
#X connect 1 0 2 0;
#X connect 1 1 15 0;
#X connect 2 0 3 0;
#X connect 2 1 4 0;
#X connect 3 0 6 0;
#X connect 4 0 6 0;
#X connect 5 0 6 1;
#X connect 6 0 9 0;
#X connect 6 0 16 0;
#X connect 7 0 6 1;
#X connect 8 0 6 1;
#X connect 9 0 11 0;
#X connect 10 0 13 0;
#X connect 11 0 10 0;
#X connect 13 0 12 0;
#X connect 15 0 8 0;
#X connect 15 1 7 0;
#X connect 15 2 5 0;
#X connect 17 0 18 0;
#X connect 18 0 19 0;
#X connect 18 1 35 0;
#X connect 19 0 20 0;
#X connect 19 1 23 0;
#X connect 20 0 24 0;
#X connect 21 0 24 1;
#X connect 22 0 24 1;
#X connect 23 0 24 0;
#X connect 24 0 25 0;
#X connect 24 0 30 1;
#X connect 25 0 26 0;
#X connect 26 0 27 0;
#X connect 27 0 28 0;
#X connect 28 0 29 0;
#X connect 30 0 34 0;
#X connect 31 0 30 0;
#X connect 32 0 33 0;
#X connect 34 0 32 0;
#X connect 34 1 32 0;
#X connect 35 0 21 0;
#X connect 35 1 22 0;
#X restore 737 296 pd countdown;
#N canvas 941 128 975 916 midicontrol 1;
#X obj 67 619 r A_lpf-\$1;
#X floatatom 67 640 5 0 0 0 - - -;
#X obj 67 660 ctlout 32 1;
#X floatatom 145 638 5 0 0 0 - - -;
#X floatatom 223 641 5 0 0 0 - - -;
#X floatatom 301 639 5 0 0 0 - - -;
#X obj 145 619 r B_lpf-\$1;
#X obj 223 619 r C_lpf-\$1;
#X obj 301 619 r D_lpf-\$1;
#X obj 145 658 ctlout 33 1;
#X obj 223 661 ctlout 34 1;
#X obj 301 659 ctlout 35 1;
#X floatatom 71 706 5 0 0 0 - - -;
#X obj 71 685 r A_speed-\$1;
#X obj 71 790 ctlout 36 1;
#X obj 71 726 + 200;
#X obj 71 747 / 400;
#X obj 71 768 * 127;
#X floatatom 161 707 5 0 0 0 - - -;
#X obj 161 727 + 200;
#X obj 161 748 / 400;
#X obj 161 769 * 127;
#X floatatom 261 708 5 0 0 0 - - -;
#X obj 261 728 + 200;
#X obj 261 749 / 400;
#X obj 261 770 * 127;
#X floatatom 351 709 5 0 0 0 - - -;
#X obj 351 729 + 200;
#X obj 351 750 / 400;
#X obj 351 771 * 127;
#X obj 351 688 r D_speed-\$1;
#X obj 261 687 r C_speed-\$1;
#X obj 161 686 r B_speed-\$1;
#X obj 161 791 ctlout 37 1;
#X obj 261 792 ctlout 38 1;
#X obj 351 793 ctlout 39 1;
#X obj 69 818 r A_delayvol-\$1;
#X obj 69 839 / 100;
#X obj 69 879 ctlout 40 1;
#X obj 69 860 * 127;
#X obj 179 840 / 100;
#X obj 179 861 * 127;
#X obj 279 840 / 100;
#X obj 279 861 * 127;
#X obj 389 841 / 100;
#X obj 389 862 * 127;
#X obj 389 820 r D_delayvol-\$1;
#X obj 279 819 r C_delayvol-\$1;
#X obj 179 819 r B_delayvol-\$1;
#X obj 179 880 ctlout 41 1;
#X obj 279 880 ctlout 42 1;
#X obj 389 881 ctlout 43 1;
#X obj 281 274 == 1;
#X obj 333 274 == 2;
#X obj 381 274 == 3;
#X obj 431 274 == 4;
#X obj 464 25 ctlin;
#X floatatom 477 77 5 0 0 0 - - -;
#X obj 281 318 tgl 15 0 empty empty empty 17 7 0 10 -262144 -1 -1 0
1;
#X obj 477 97 spigot;
#X obj 516 77 == 2;
#X obj 333 318 tgl 15 0 empty empty empty 17 7 0 10 -262144 -1 -1 0
1;
#X obj 381 318 tgl 15 0 empty empty empty 17 7 0 10 -262144 -1 -1 1
1;
#X obj 431 318 tgl 15 0 empty empty empty 17 7 0 10 -262144 -1 -1 0
1;
#X obj 248 318 bng 15 250 50 0 empty empty empty 17 7 0 10 -262144
-1 -1;
#X obj 248 361 spigot;
#X obj 300 361 spigot;
#X obj 348 361 spigot;
#X obj 398 361 spigot;
#X obj 552 385 bng 15 250 50 0 empty empty empty 17 7 0 10 -262144
-1 -1;
#X obj 300 385 bng 15 250 50 0 empty empty empty 17 7 0 10 -262144
-1 -1;
#X obj 348 385 bng 15 250 50 0 empty empty empty 17 7 0 10 -262144
-1 -1;
#X obj 398 385 bng 15 250 50 0 empty empty empty 17 7 0 10 -262144
-1 -1;
#X obj 348 434 s toggle-arm-\$1;
#X obj 398 408 s ccqs-\$1;
#X floatatom 82 328 10 0 0 0 - - -;
#X obj 82 305 timer;
#X obj 82 442 sel 1 0;
#X obj 80 531 s greater-\$1;
#X obj 158 531 s lesser-\$1;
#X obj 80 505 bng 15 250 50 0 empty empty empty 17 7 0 10 -262144 -1
-1;
#X obj 158 503 bng 15 250 50 0 empty empty empty 17 7 0 10 -262144
-1 -1;
#X obj 249 185 r greater-\$1;
#X obj 585 274 == 1;
#X obj 648 274 == 2;
#X obj 696 274 == 3;
#X obj 746 274 == 4;
#X obj 585 318 tgl 15 0 empty empty empty 17 7 0 10 -262144 -1 -1 0
1;
#X obj 648 318 tgl 15 0 empty empty empty 17 7 0 10 -262144 -1 -1 0
1;
#X obj 696 318 tgl 15 0 empty empty empty 17 7 0 10 -262144 -1 -1 1
1;
#X obj 746 318 tgl 15 0 empty empty empty 17 7 0 10 -262144 -1 -1 0
1;
#X obj 552 318 bng 15 250 50 0 empty empty empty 17 7 0 10 -262144
-1 -1;
#X obj 552 361 spigot;
#X obj 615 361 spigot;
#X obj 663 361 spigot;
#X obj 713 361 spigot;
#X obj 248 385 bng 15 250 50 0 empty empty empty 17 7 0 10 -262144
-1 -1;
#X obj 615 385 bng 15 250 50 0 empty empty empty 17 7 0 10 -262144
-1 -1;
#X obj 663 385 bng 15 250 50 0 empty empty empty 17 7 0 10 -262144
-1 -1;
#X obj 713 385 bng 15 250 50 0 empty empty empty 17 7 0 10 -262144
-1 -1;
#X obj 552 226 r lesser-\$1;
#X obj 713 462 s ccqe-\$1;
#X obj 648 606 tgl 15 0 empty empty empty 17 7 0 10 -262144 -1 -1 0
1;
#X obj 736 606 tgl 15 0 empty empty empty 17 7 0 10 -262144 -1 -1 1
1;
#X obj 300 460 s undocc-\$1;
#X obj 615 632 spigot;
#X obj 703 632 spigot;
#X obj 615 606 bng 15 250 50 0 empty empty empty 17 7 0 10 -262144
-1 -1;
#X obj 648 579 r aspig-\$1;
#X obj 736 579 r bspig-\$1;
#X obj 615 490 t b b;
#X obj 642 548 s undocc-\$1;
#X obj 713 412 t b b;
#X obj 740 438 s ccqs-\$1;
#X obj 552 521 s revcc-\$1;
#X obj 552 438 t b b;
#X floatatom 233 105 5 0 0 0 - - -;
#X obj 585 107 tgl 15 0 empty empty empty 17 7 0 10 -262144 -1 -1 1
1;
#X floatatom 515 53 5 0 0 0 - - -;
#X obj 248 229 spigot;
#X obj 552 247 spigot;
#X obj 615 663 s clearccA-\$1;
#X obj 703 663 s clearccB-\$1;
#N canvas 92 420 852 539 extra 0;
#X obj 96 23 r toggle-arm-\$1;
#X obj 99 139 spigot;
#X obj 151 139 spigot;
#X obj 129 48 r aspig-\$1;
#X obj 200 48 r bspig-\$1;
#X obj 99 230 s A_midirec-\$1;
#X obj 151 207 s B_midirec-\$1;
#X obj 129 84 tgl 15 0 empty empty empty 17 7 0 10 -262144 -1 -1 0
1;
#X obj 200 84 tgl 15 0 empty empty empty 17 7 0 10 -262144 -1 -1 1
1;
#X obj 272 47 bng 15 250 50 0 empty empty empty 17 7 0 10 -262144 -1
-1;
#X obj 354 280 spigot;
#X obj 406 280 spigot;
#X obj 387 218 r aspig-\$1;
#X obj 458 218 r bspig-\$1;
#X obj 387 254 tgl 15 0 empty empty empty 17 7 0 10 -262144 -1 -1 0
1;
#X obj 458 254 tgl 15 0 empty empty empty 17 7 0 10 -262144 -1 -1 1
1;
#X obj 354 186 r ccqs-\$1;
#X obj 354 326 s A_midis-\$1;
#X obj 406 303 s B_midis-\$1;
#X obj 473 130 spigot;
#X obj 563 156 spigot;
#X obj 506 68 r aspig-\$1;
#X obj 577 68 r bspig-\$1;
#X obj 506 104 tgl 15 0 empty empty empty 17 7 0 10 -262144 -1 -1 0
1;
#X obj 577 104 tgl 15 0 empty empty empty 17 7 0 10 -262144 -1 -1 1
1;
#X obj 473 36 r ccqe-\$1;
#X obj 563 179 s B_midie-\$1;
#X obj 473 176 s A_midie-\$1;
#X obj 110 310 r undocc-\$1;
#X obj 110 409 spigot;
#X obj 162 409 spigot;
#X obj 143 347 r aspig-\$1;
#X obj 214 347 r bspig-\$1;
#X obj 143 383 tgl 15 0 empty empty empty 17 7 0 10 -262144 -1 -1 0
1;
#X obj 214 383 tgl 15 0 empty empty empty 17 7 0 10 -262144 -1 -1 1
1;
#X obj 110 455 s A_undocc-\$1;
#X obj 162 432 s B_undocc-\$1;
#X obj 294 72 r toggle-ab-rec-\$1;
#X obj 596 223 r toggle-ab-switch-\$1;
#X obj 545 275 t b b b;
#X obj 434 161 bng 15 250 50 0 empty empty empty 17 7 0 10 -262144
-1 -1;
#X obj 523 148 bng 15 250 50 0 empty empty empty 17 7 0 10 -262144
-1 -1;
#X obj 400 375 bng 15 250 50 0 empty empty empty 17 7 0 10 -262144
-1 -1;
#X obj 331 372 bng 15 250 50 0 empty empty empty 17 7 0 10 -262144
-1 -1;
#X msg 99 160 1;
#X msg 151 160 1;
#X msg 118 185 0;
#X msg 190 184 0;
#X obj 567 331 s send-switch-\$1;
#X obj 313 139 s send-switch-\$1;
#X obj 519 311 delay 1;
#X obj 294 165 del 1;
#X obj 600 298 bng 15 250 50 0 empty empty empty 17 7 0 10 -262144
-1 -1;
#X obj 294 93 t b b b;
#X obj 333 117 s ccqe-\$1;
#X connect 0 0 1 0;
#X connect 0 0 2 0;
#X connect 1 0 44 0;
#X connect 1 0 46 0;
#X connect 2 0 45 0;
#X connect 2 0 47 0;
#X connect 3 0 7 0;
#X connect 4 0 8 0;
#X connect 7 0 1 1;
#X connect 8 0 2 1;
#X connect 9 0 53 0;
#X connect 10 0 17 0;
#X connect 10 0 43 0;
#X connect 11 0 18 0;
#X connect 11 0 42 0;
#X connect 12 0 14 0;
#X connect 13 0 15 0;
#X connect 14 0 10 1;
#X connect 15 0 11 1;
#X connect 16 0 10 0;
#X connect 16 0 11 0;
#X connect 19 0 27 0;
#X connect 19 0 40 0;
#X connect 20 0 26 0;
#X connect 20 0 41 0;
#X connect 21 0 23 0;
#X connect 22 0 24 0;
#X connect 23 0 19 1;
#X connect 24 0 20 1;
#X connect 25 0 19 0;
#X connect 25 0 20 0;
#X connect 28 0 29 0;
#X connect 28 0 30 0;
#X connect 29 0 35 0;
#X connect 30 0 36 0;
#X connect 31 0 33 0;
#X connect 32 0 34 0;
#X connect 33 0 29 1;
#X connect 34 0 30 1;
#X connect 37 0 53 0;
#X connect 38 0 39 0;
#X connect 39 0 50 0;
#X connect 39 1 52 0;
#X connect 39 2 20 0;
#X connect 39 2 19 0;
#X connect 44 0 5 0;
#X connect 45 0 6 0;
#X connect 46 0 6 0;
#X connect 47 0 5 0;
#X connect 50 0 11 0;
#X connect 50 0 10 0;
#X connect 51 0 1 0;
#X connect 51 0 2 0;
#X connect 52 0 48 0;
#X connect 53 0 51 0;
#X connect 53 1 49 0;
#X connect 53 2 54 0;
#X restore 367 550 pd extra;
#X obj 248 491 s toggle-ab-switch-\$1;
#X obj 579 462 s toggle-ab-switch-\$1;
#X obj 663 438 t b b;
#X obj 663 521 s toggle-ab-rec-\$1;
#X obj 694 714 tgl 15 0 empty empty empty 17 7 0 10 -262144 -1 -1 1
1;
#X obj 694 755 sel 0 1;
#X obj 662 847 tgl 15 0 empty empty empty 17 7 0 10 -262144 -1 -1 0
1;
#X obj 740 830 tgl 15 0 empty empty empty 17 7 0 10 -262144 -1 -1 1
1;
#X msg 694 776 1;
#X msg 711 795 0;
#X msg 740 773 1;
#X msg 757 792 0;
#X obj 584 708 r loadbang-\$1;
#X msg 583 735 0;
#X obj 662 867 s aspig-\$1;
#X obj 740 867 s bspig-\$1;
#X obj 690 494 s toggle-arm-\$1;
#X obj 738 703 r send-switch-\$1;
#X obj 84 231 sel 127 0;
#X obj 82 376 spigot;
#X obj 87 265 t b b b;
#X msg 159 344 0;
#X obj 172 295 t b b b;
#X msg 197 348 1;
#X obj 248 250 change;
#X obj 158 479 change;
#X obj 166 457 bng 15 250 50 0 empty empty empty 17 7 0 10 -262144
-1 -1;
#X obj 82 397 i;
#X obj 82 356 change;
#X msg 485 229 0;
#X obj 249 206 t b b;
#X msg 479 347 0;
#X obj 582 23 r channel-\$1;
#X floatatom 582 44 5 0 0 0 - - -;
#X obj 82 417 >= 750;
#X connect 0 0 1 0;
#X connect 1 0 2 0;
#X connect 3 0 9 0;
#X connect 4 0 10 0;
#X connect 5 0 11 0;
#X connect 6 0 3 0;
#X connect 7 0 4 0;
#X connect 8 0 5 0;
#X connect 12 0 15 0;
#X connect 13 0 12 0;
#X connect 15 0 16 0;
#X connect 16 0 17 0;
#X connect 17 0 14 0;
#X connect 18 0 19 0;
#X connect 19 0 20 0;
#X connect 20 0 21 0;
#X connect 21 0 33 0;
#X connect 22 0 23 0;
#X connect 23 0 24 0;
#X connect 24 0 25 0;
#X connect 25 0 34 0;
#X connect 26 0 27 0;
#X connect 27 0 28 0;
#X connect 28 0 29 0;
#X connect 29 0 35 0;
#X connect 30 0 26 0;
#X connect 31 0 22 0;
#X connect 32 0 18 0;
#X connect 36 0 37 0;
#X connect 37 0 39 0;
#X connect 39 0 38 0;
#X connect 40 0 41 0;
#X connect 41 0 49 0;
#X connect 42 0 43 0;
#X connect 43 0 50 0;
#X connect 44 0 45 0;
#X connect 45 0 51 0;
#X connect 46 0 44 0;
#X connect 47 0 42 0;
#X connect 48 0 40 0;
#X connect 52 0 58 0;
#X connect 53 0 61 0;
#X connect 54 0 62 0;
#X connect 55 0 63 0;
#X connect 56 0 116 0;
#X connect 56 0 142 0;
#X connect 56 1 57 0;
#X connect 56 2 118 0;
#X connect 57 0 59 0;
#X connect 58 0 65 1;
#X connect 59 0 52 0;
#X connect 59 0 53 0;
#X connect 59 0 54 0;
#X connect 59 0 55 0;
#X connect 59 0 83 0;
#X connect 59 0 84 0;
#X connect 59 0 85 0;
#X connect 59 0 86 0;
#X connect 60 0 59 1;
#X connect 60 0 117 0;
#X connect 61 0 66 1;
#X connect 62 0 67 1;
#X connect 63 0 68 1;
#X connect 64 0 65 0;
#X connect 64 0 66 0;
#X connect 64 0 67 0;
#X connect 64 0 68 0;
#X connect 65 0 96 0;
#X connect 66 0 70 0;
#X connect 67 0 71 0;
#X connect 68 0 72 0;
#X connect 69 0 115 0;
#X connect 69 0 155 0;
#X connect 70 0 104 0;
#X connect 71 0 73 0;
#X connect 72 0 74 0;
#X connect 75 0 152 0;
#X connect 76 0 75 0;
#X connect 77 0 149 0;
#X connect 77 1 80 0;
#X connect 80 0 78 0;
#X connect 81 0 79 0;
#X connect 82 0 154 0;
#X connect 83 0 87 0;
#X connect 84 0 88 0;
#X connect 85 0 89 0;
#X connect 86 0 90 0;
#X connect 87 0 92 1;
#X connect 88 0 93 1;
#X connect 89 0 94 1;
#X connect 90 0 95 1;
#X connect 91 0 92 0;
#X connect 91 0 93 0;
#X connect 91 0 94 0;
#X connect 91 0 95 0;
#X connect 92 0 69 0;
#X connect 93 0 97 0;
#X connect 94 0 98 0;
#X connect 95 0 99 0;
#X connect 96 0 124 0;
#X connect 97 0 110 0;
#X connect 97 0 155 0;
#X connect 98 0 126 0;
#X connect 98 0 155 0;
#X connect 99 0 112 0;
#X connect 99 0 155 0;
#X connect 100 0 120 0;
#X connect 102 0 105 1;
#X connect 103 0 106 1;
#X connect 105 0 121 0;
#X connect 106 0 122 0;
#X connect 107 0 105 0;
#X connect 107 0 106 0;
#X connect 108 0 102 0;
#X connect 109 0 103 0;
#X connect 110 0 107 0;
#X connect 110 1 111 0;
#X connect 112 0 101 0;
#X connect 112 1 113 0;
#X connect 115 0 114 0;
#X connect 115 1 125 0;
#X connect 117 0 119 1;
#X connect 117 0 120 1;
#X connect 118 0 60 0;
#X connect 119 0 148 0;
#X connect 120 0 91 0;
#X connect 126 0 127 0;
#X connect 126 1 140 0;
#X connect 128 0 129 0;
#X connect 129 0 132 0;
#X connect 129 0 133 0;
#X connect 129 1 134 0;
#X connect 129 1 135 0;
#X connect 130 0 138 0;
#X connect 131 0 139 0;
#X connect 132 0 130 0;
#X connect 133 0 131 0;
#X connect 134 0 131 0;
#X connect 135 0 130 0;
#X connect 136 0 137 0;
#X connect 137 0 128 0;
#X connect 141 0 128 0;
#X connect 142 0 144 0;
#X connect 142 1 146 0;
#X connect 143 0 151 0;
#X connect 144 1 76 0;
#X connect 144 2 145 0;
#X connect 145 0 143 1;
#X connect 146 0 76 0;
#X connect 146 1 76 1;
#X connect 146 2 147 0;
#X connect 147 0 143 1;
#X connect 148 0 64 0;
#X connect 149 0 81 0;
#X connect 151 0 158 0;
#X connect 152 0 143 0;
#X connect 153 0 117 0;
#X connect 154 0 153 0;
#X connect 154 1 119 0;
#X connect 155 0 58 0;
#X connect 155 0 61 0;
#X connect 155 0 62 0;
#X connect 155 0 63 0;
#X connect 156 0 157 0;
#X connect 157 0 60 1;
#X connect 158 0 77 0;
#X connect 158 0 150 0;
#X restore 861 325 pd midicontrol;
#N canvas 754 50 1162 751 quantclock 0;
#X obj 384 314 t f f;
#X text 191 523 record arming;
#X text 297 522 start arming;
#X text 410 522 stop arming;
#X obj 474 245 s beatnum-\$1;
#X obj 239 124 t b f;
#X obj 35 26 r downbeat-\$1;
#X obj 428 243 r bar;
#X floatatom 428 268 5 0 0 0 - - -;
#X floatatom 145 83 5 0 0 0 - - -;
#X obj 145 62 r signature_monitor-s2;
#X obj 184 83 r signature-s2;
#X floatatom 184 127 5 0 0 0 - - -;
#X obj 445 27 r loadbang-\$1;
#X obj 445 54 bng 15 250 50 0 empty empty empty 17 7 0 10 -262144 -1
-1;
#X obj 445 177 s rackMsgs;
#X obj 445 97 symbol s2;
#X obj 445 74 t b b;
#X obj 507 97 symbol \$1;
#X obj 445 118 pack s s;
#X msg 445 156 getparam \$2 signature 4 signature-\$1;
#X obj 804 459 spigot 0;
#X obj 804 431 == 4;
#X obj 804 388 spigot;
#X obj 804 478 t b b;
#X obj 804 409 change;
#X msg 740 505 0;
#X obj 837 359 r write-arm-\$1;
#X obj 740 532 s write-off-\$1;
#X text 801 567 write arming;
#X text 460 299 clocking for quanitzation from Transport;
#X obj 145 41 r signature_set;
#X obj 831 532 s writetofile-\$1;
#X text 33 180 not moving count of current time signature set to 4/4
by default;
#X obj 733 29 r master-bpm;
#X floatatom 733 58 5 0 0 0 - - -;
#X obj 755 113 bng 15 250 50 0 empty empty empty 17 7 0 10 -262144
-1 -1;
#X floatatom 806 136 5 0 0 0 - - -;
#X obj 806 113 i;
#X obj 806 71 + 0.5;
#X obj 820 29 r midi-clock-present;
#X obj 778 91 ==;
#X obj 778 113 tgl 15 0 empty empty empty 17 7 0 10 -262144 -1 -1 1
1;
#X obj 851 91 tgl 15 0 empty empty empty 17 7 0 10 -262144 -1 -1 0
1;
#X floatatom 733 161 5 0 0 0 - - -;
#X obj 733 136 spigot 1;
#X obj 806 161 spigot 0;
#X obj 890 155 tgl 50 0 empty empty empty 17 7 0 10 -262144 -1 -1 1
1;
#X obj 890 105 r rec-\$1;
#X msg 890 126 0;
#X obj 954 106 r rec-off-\$1;
#X msg 954 127 1;
#X obj 936 53 r loadbang-\$1;
#X obj 796 222 spigot;
#X obj 836 243 bng 15 250 50 0 empty empty empty 17 7 0 10 -262144
-1 -1;
#X floatatom 796 287 5 0 0 0 - - -;
#X obj 796 307 s loopy-bpm;
#X obj 806 91 mavg 6;
#X obj 863 243 r refresh-\$1;
#X obj 733 78 change;
#X obj 936 74 t b b;
#X obj 673 131 bng 15 250 50 0 empty empty empty 17 7 0 10 -262144
-1 -1;
#X obj 185 402 recordarm A \$1;
#X obj 185 429 recordarm B \$1;
#X obj 185 456 recordarm C \$1;
#X obj 185 483 recordarm D \$1;
#X obj 297 402 startarm A \$1;
#X obj 297 429 startarm B \$1;
#X obj 297 456 startarm C \$1;
#X obj 297 483 startarm D \$1;
#X obj 405 402 stoparm A \$1;
#X obj 405 429 stoparm B \$1;
#X obj 405 456 stoparm C \$1;
#X obj 405 483 stoparm D \$1;
#X obj 508 402 undoarm A \$1;
#X obj 508 429 undoarm B \$1;
#X obj 508 456 undoarm C \$1;
#X obj 508 483 undoarm D \$1;
#X text 518 521 undo system;
#X obj 716 233 r c_bpm-s2;
#X obj 35 93 s start;
#X obj 608 399 revarm A \$1;
#X obj 608 426 revarm B \$1;
#X obj 608 453 revarm C \$1;
#X obj 608 480 revarm D \$1;
#X obj 1011 456 spigot 0;
#X obj 1011 428 == 4;
#X obj 1011 385 spigot;
#X obj 1011 475 t b b;
#X obj 1011 406 change;
#X msg 947 502 0;
#X text 1008 564 write arming;
#X obj 1044 356 r resamp-arm-\$1;
#X obj 1039 504 s rec-resample-\$1;
#X obj 947 529 s resamp-arm-off-\$1;
#X obj 1086 454 tgl 15 0 empty empty empty 17 7 0 10 -262144 -1 -1
0 1;
#X obj 1100 486 bng 15 250 50 0 empty empty empty 17 7 0 10 -262144
-1 -1;
#X obj 85 92 s reset;
#X obj 35 47 t b b;
#X connect 0 0 62 0;
#X connect 0 0 63 0;
#X connect 0 0 64 0;
#X connect 0 0 65 0;
#X connect 0 0 66 0;
#X connect 0 0 67 0;
#X connect 0 0 68 0;
#X connect 0 0 69 0;
#X connect 0 0 70 0;
#X connect 0 0 71 0;
#X connect 0 0 72 0;
#X connect 0 0 73 0;
#X connect 0 0 74 0;
#X connect 0 0 75 0;
#X connect 0 0 76 0;
#X connect 0 0 77 0;
#X connect 0 0 81 0;
#X connect 0 0 82 0;
#X connect 0 0 83 0;
#X connect 0 0 84 0;
#X connect 0 0 87 0;
#X connect 0 1 23 0;
#X connect 5 1 22 1;
#X connect 5 1 62 1;
#X connect 5 1 63 1;
#X connect 5 1 64 1;
#X connect 5 1 65 1;
#X connect 5 1 66 1;
#X connect 5 1 67 1;
#X connect 5 1 68 1;
#X connect 5 1 69 1;
#X connect 5 1 70 1;
#X connect 5 1 71 1;
#X connect 5 1 72 1;
#X connect 5 1 73 1;
#X connect 5 1 74 1;
#X connect 5 1 75 1;
#X connect 5 1 76 1;
#X connect 5 1 77 1;
#X connect 5 1 81 1;
#X connect 5 1 82 1;
#X connect 5 1 83 1;
#X connect 5 1 84 1;
#X connect 5 1 86 1;
#X connect 6 0 98 0;
#X connect 7 0 8 0;
#X connect 8 0 4 0;
#X connect 8 0 0 0;
#X connect 9 0 5 0;
#X connect 10 0 9 0;
#X connect 11 0 5 0;
#X connect 11 0 12 0;
#X connect 13 0 14 0;
#X connect 14 0 17 0;
#X connect 16 0 19 0;
#X connect 17 0 16 0;
#X connect 17 1 18 0;
#X connect 18 0 19 1;
#X connect 19 0 20 0;
#X connect 20 0 15 0;
#X connect 21 0 24 0;
#X connect 22 0 21 0;
#X connect 22 0 21 1;
#X connect 23 0 25 0;
#X connect 24 0 26 0;
#X connect 24 1 32 0;
#X connect 25 0 22 0;
#X connect 26 0 28 0;
#X connect 27 0 23 1;
#X connect 31 0 5 0;
#X connect 34 0 35 0;
#X connect 35 0 39 0;
#X connect 35 0 59 0;
#X connect 37 0 46 0;
#X connect 37 0 44 0;
#X connect 38 0 37 0;
#X connect 39 0 57 0;
#X connect 40 0 41 0;
#X connect 40 0 43 0;
#X connect 41 0 42 0;
#X connect 42 0 45 1;
#X connect 43 0 46 1;
#X connect 44 0 53 0;
#X connect 47 0 53 1;
#X connect 48 0 49 0;
#X connect 49 0 47 0;
#X connect 50 0 51 0;
#X connect 51 0 47 0;
#X connect 51 0 42 0;
#X connect 52 0 60 0;
#X connect 53 0 54 0;
#X connect 53 0 55 0;
#X connect 55 0 56 0;
#X connect 57 0 38 0;
#X connect 58 0 54 0;
#X connect 59 0 36 0;
#X connect 59 0 45 0;
#X connect 60 0 44 0;
#X connect 60 1 51 0;
#X connect 61 0 44 0;
#X connect 85 0 88 0;
#X connect 86 0 85 0;
#X connect 86 0 85 1;
#X connect 87 0 89 0;
#X connect 88 0 90 0;
#X connect 88 1 93 0;
#X connect 88 1 96 0;
#X connect 89 0 86 0;
#X connect 90 0 94 0;
#X connect 92 0 87 1;
#X connect 92 0 95 0;
#X connect 98 0 80 0;
#X connect 98 1 97 0;
#X restore 737 236 pd quantclock;
#N canvas 1072 182 783 750 sample-loading 0;
#X obj 143 125 soundshare_select;
#X obj 192 18 r loadbang-\$1;
#X floatatom 280 50 5 0 0 0 - - -;
#X floatatom 145 87 5 0 0 0 - - -;
#X msg 274 100 -1;
#X obj 143 146 t b a;
#X obj 119 167 del 1000;
#X obj 149 190 list;
#X obj 205 173 f \$0;
#X obj 171 214 list;
#X msg 171 339 open \$1;
#X obj 171 360 t a b b;
#X msg 210 404 0;
#X obj 171 430 readsf~;
#X msg 179 404 1;
#X obj 143 382 delay 100;
#X obj 172 565 tabwrite~;
#X msg 210 478 stop;
#X obj 242 147 list;
#X obj 386 363 r loadbang-\$1;
#X msg 242 172 bang;
#X obj 242 214 symbol;
#X obj 242 277 s aux-label-\$1;
#X obj 280 27 r samp_src-\$1;
#X obj 72 63 r samp_select-\$1;
#X obj 251 361 r samp_array-\$1;
#X msg 242 235 \$1;
#X obj 313 131 s aux-label-\$1;
#X obj 313 534 bng 15 250 50 0 empty empty empty 17 7 0 10 -262144
-1 -1;
#X msg 313 554 Sample Array : B;
#X obj 251 557 bng 15 250 50 0 empty empty empty 17 7 0 10 -262144
-1 -1;
#X msg 251 577 Sample Array : A;
#X obj 251 616 s aux-label-\$1;
#X symbolatom 320 173 45 0 0 0 - - -;
#X msg 319 212 \$1 !;
#X floatatom 72 135 5 0 0 0 - - -;
#X obj 280 70 t f f;
#X obj 52 470 / 100;
#X obj 52 491 sig~;
#X obj 171 477 *~;
#X obj 52 449 r samp_vol-\$1;
#X obj 251 418 sel 1 2 3 4;
#X obj 376 443 symbol \$1;
#X obj 251 443 symbol \$1;
#X obj 313 443 symbol \$1;
#X obj 438 443 symbol \$1;
#X obj 438 490 bng 15 250 50 0 empty empty empty 17 7 0 10 -262144
-1 -1;
#X obj 376 511 bng 15 250 50 0 empty empty empty 17 7 0 10 -262144
-1 -1;
#X msg 438 510 Sample Array : D;
#X msg 376 531 Sample Array : C;
#X obj 72 84 t f b b b b;
#X msg 386 387 1;
#X msg 251 466 set A-\$1;
#X msg 313 466 set B-\$1;
#X msg 376 466 set C-\$1;
#X msg 438 466 set D-\$1;
#X obj 388 283 line~;
#X obj 438 286 vline~;
#X symbolatom 33 261 10 0 0 0 - - -;
#X connect 0 0 5 0;
#X connect 0 1 18 0;
#X connect 0 2 27 0;
#X connect 1 0 0 1;
#X connect 1 0 8 0;
#X connect 1 0 4 0;
#X connect 2 0 36 0;
#X connect 4 0 0 2;
#X connect 5 0 6 0;
#X connect 5 1 7 1;
#X connect 6 0 7 0;
#X connect 7 0 9 0;
#X connect 8 0 9 1;
#X connect 9 0 10 0;
#X connect 9 0 58 0;
#X connect 10 0 11 0;
#X connect 11 0 13 0;
#X connect 11 1 15 0;
#X connect 11 2 12 0;
#X connect 12 0 13 0;
#X connect 13 0 39 0;
#X connect 13 1 17 0;
#X connect 14 0 13 0;
#X connect 15 0 14 0;
#X connect 15 0 16 0;
#X connect 17 0 16 0;
#X connect 18 0 20 0;
#X connect 18 0 21 1;
#X connect 18 0 33 0;
#X connect 18 0 34 0;
#X connect 19 0 51 0;
#X connect 20 0 21 0;
#X connect 21 0 26 0;
#X connect 23 0 2 0;
#X connect 24 0 3 0;
#X connect 24 0 50 0;
#X connect 25 0 41 0;
#X connect 26 0 22 0;
#X connect 28 0 29 0;
#X connect 29 0 32 0;
#X connect 30 0 31 0;
#X connect 31 0 32 0;
#X connect 34 0 22 0;
#X connect 36 0 0 1;
#X connect 36 1 0 2;
#X connect 37 0 38 0;
#X connect 38 0 39 1;
#X connect 39 0 16 0;
#X connect 40 0 37 0;
#X connect 41 0 43 0;
#X connect 41 1 44 0;
#X connect 41 2 42 0;
#X connect 41 3 45 0;
#X connect 42 0 54 0;
#X connect 43 0 52 0;
#X connect 44 0 53 0;
#X connect 45 0 55 0;
#X connect 46 0 48 0;
#X connect 47 0 49 0;
#X connect 48 0 32 0;
#X connect 49 0 32 0;
#X connect 50 0 35 0;
#X connect 50 0 0 0;
#X connect 51 0 41 0;
#X connect 52 0 30 0;
#X connect 52 0 16 0;
#X connect 53 0 28 0;
#X connect 53 0 16 0;
#X connect 54 0 47 0;
#X connect 54 0 16 0;
#X connect 55 0 46 0;
#X connect 55 0 16 0;
#X connect 58 0 10 0;
#X restore 861 235 pd sample-loading;
#N canvas 839 257 1077 655 leds-text 0;
#X obj 568 291 r loadbang-\$1;
#X msg 514 341 3;
#X msg 482 341 0;
#X msg 547 341 1;
#X obj -1 374 list;
#X obj -1 395 spigot 0;
#X text 348 367 text and leds;
#X msg 331 341 \$1 Playing;
#X msg 408 341 \$1 Stopped;
#X obj 44 374 r arm-\$1;
#X obj 57 395 r active-\$1;
#X obj -1 353 r beatnum-\$1;
#X obj 579 260 r led-off;
#X obj 170 476 outlet;
#X obj 629 481 outlet;
#X obj 381 107 delay 100;
#X msg 271 39 stop;
#X obj 390 -48 r looped-\$1;
#X obj 70 177 i 127;
#X obj 773 116 i 0;
#X text 676 72 recording indication for MFT;
#X obj 509 -48 r recind_cc-\$1;
#X obj 773 144 ctlout;
#X obj 70 202 ctlout;
#X obj 107 -48 inlet;
#X obj 171 -48 inlet;
#X obj 621 -48 inlet;
#X obj 683 -48 inlet;
#X obj 413 409 r cleara-\$1;
#X obj 411 436 r clearb-\$1;
#X msg 339 409 A Cleared;
#X msg 339 436 B Cleared;
#X msg 583 340 6;
#X obj 658 287 r on-\$1;
#X obj 658 308 sel 0 1;
#X obj 414 464 r clearc-\$1;
#X obj 412 491 r cleard-\$1;
#X msg 340 464 C Cleared;
#X msg 340 491 D Cleared;
#X msg 112 291 A Recording;
#X msg 128 316 B Recording;
#X msg 140 340 C Recording;
#X msg 156 365 D Recording;
#X connect 0 0 2 0;
#X connect 1 0 14 0;
#X connect 2 0 14 0;
#X connect 3 0 14 0;
#X connect 4 0 5 0;
#X connect 5 0 13 0;
#X connect 7 0 13 0;
#X connect 8 0 13 0;
#X connect 9 0 5 1;
#X connect 10 0 5 1;
#X connect 11 0 4 0;
#X connect 12 0 2 0;
#X connect 15 0 2 0;
#X connect 16 0 15 0;
#X connect 18 0 23 0;
#X connect 19 0 22 0;
#X connect 21 0 22 1;
#X connect 21 0 23 1;
#X connect 24 0 18 0;
#X connect 24 0 3 0;
#X connect 24 0 16 0;
#X connect 25 0 19 0;
#X connect 26 0 19 0;
#X connect 26 0 2 0;
#X connect 27 0 19 0;
#X connect 27 0 1 0;
#X connect 28 0 30 0;
#X connect 28 0 2 0;
#X connect 29 0 31 0;
#X connect 29 0 2 0;
#X connect 30 0 13 0;
#X connect 31 0 13 0;
#X connect 32 0 14 0;
#X connect 33 0 34 0;
#X connect 34 0 32 0;
#X connect 34 1 1 0;
#X connect 35 0 37 0;
#X connect 36 0 38 0;
#X connect 37 0 13 0;
#X connect 38 0 13 0;
#X connect 39 0 13 0;
#X restore 1003 242 pd leds-text;
#N canvas 4 50 1912 998 controls+arming 0;
#X obj 358 44 stripnote;
#X obj 358 -6 r notesIn-\$1;
#X obj 358 18 list split 2;
#X obj 145 563 tgl 15 0 empty empty empty 17 7 0 10 -262144 -1 -1 1
1;
#X obj 75 469 r loadbang-\$1;
#X msg 75 488 1;
#X obj 309 600 tgl 15 0 empty empty empty 17 7 0 10 -262144 -1 -1 1
1;
#X obj 145 587 s hq-\$1;
#X obj 309 650 s on-\$1;
#X obj 431 391 s aux-label-\$1;
#X msg 431 362 Lengths Loaded;
#X obj 431 332 r load-\$1;
#X obj 201 622 sel 0 1;
#X msg 242 652 Unmute;
#X msg 201 652 Mute;
#X obj 201 683 s aux-label-\$1;
#X obj 168 540 tgl 15 0 empty empty empty 17 7 0 10 -262144 -1 -1 0
1;
#X obj 168 562 s rev-arm-\$1;
#X obj 189 521 r revo-\$1;
#X obj 762 187 sel 78 80;
#X obj 762 210 s load-\$1;
#X obj 827 210 s downbeat-\$1;
#X text 319 497 stutter controls;
#X text 975 -4 load lengths and reset downbeat;
#X obj 122 501 sel 60 62 64;
#X text 438 1 arm start \, stop \, ab switch \, and ab record;
#X obj 94 614 sel 0 1;
#X msg 94 635 Quarter;
#X msg 114 659 Half;
#X obj 94 683 s aux-label-\$1;
#X obj 41 314 bng 15 250 50 0 empty empty empty 17 7 0 10 -262144 -1
-1;
#X obj 75 344 tgl 45 0 empty empty empty 17 7 0 10 -262144 -1 -1 0
1;
#X obj 75 397 s write-arm-\$1;
#X obj 75 320 r write-off-\$1;
#X floatatom 319 41 5 0 0 0 - - -;
#X obj 29 195 bng 15 250 50 0 empty empty empty 17 7 0 10 -262144 -1
-1;
#X obj 50 195 bng 15 250 50 0 empty empty empty 17 7 0 10 -262144 -1
-1;
#X obj 72 195 bng 15 250 50 0 empty empty empty 17 7 0 10 -262144 -1
-1;
#X obj 94 195 bng 15 250 50 0 empty empty empty 17 7 0 10 -262144 -1
-1;
#X obj 29 216 tgl 15 0 empty empty empty 17 7 0 10 -262144 -1 -1 0
1;
#X obj 50 216 tgl 15 0 empty empty empty 17 7 0 10 -262144 -1 -1 0
1;
#X obj 72 216 tgl 15 0 empty empty empty 17 7 0 10 -262144 -1 -1 0
1;
#X obj 94 216 tgl 15 0 empty empty empty 17 7 0 10 -262144 -1 -1 0
1;
#X obj 334 226 bng 15 250 50 0 empty empty empty 17 7 0 10 -262144
-1 -1;
#X obj 355 226 bng 15 250 50 0 empty empty empty 17 7 0 10 -262144
-1 -1;
#X obj 377 226 bng 15 250 50 0 empty empty empty 17 7 0 10 -262144
-1 -1;
#X obj 399 225 bng 15 250 50 0 empty empty empty 17 7 0 10 -262144
-1 -1;
#X obj 334 247 tgl 15 0 empty empty empty 17 7 0 10 -262144 -1 -1 0
1;
#X obj 355 247 tgl 15 0 empty empty empty 17 7 0 10 -262144 -1 -1 0
1;
#X obj 377 247 tgl 15 0 empty empty empty 17 7 0 10 -262144 -1 -1 0
1;
#X obj 399 247 tgl 15 0 empty empty empty 17 7 0 10 -262144 -1 -1 0
1;
#X obj 922 163 bng 15 250 50 0 empty empty empty 17 7 0 10 -262144
-1 -1;
#X obj 943 163 bng 15 250 50 0 empty empty empty 17 7 0 10 -262144
-1 -1;
#X obj 965 163 bng 15 250 50 0 empty empty empty 17 7 0 10 -262144
-1 -1;
#X obj 987 163 bng 15 250 50 0 empty empty empty 17 7 0 10 -262144
-1 -1;
#X obj 922 184 tgl 15 0 empty empty empty 17 7 0 10 -262144 -1 -1 0
1;
#X obj 943 184 tgl 15 0 empty empty empty 17 7 0 10 -262144 -1 -1 0
1;
#X obj 965 184 tgl 15 0 empty empty empty 17 7 0 10 -262144 -1 -1 0
1;
#X obj 987 184 tgl 15 0 empty empty empty 17 7 0 10 -262144 -1 -1 0
1;
#X obj 226 257 r auxIn-\$1;
#X obj 226 283 tgl 15 0 empty empty empty 17 7 0 10 -262144 -1 -1 0
1;
#X obj 193 308 spigot;
#X obj 661 148 r auxIn-\$1;
#X obj 661 190 tgl 15 0 empty empty empty 17 7 0 10 -262144 -1 -1 0
1;
#X obj 897 106 spigot;
#X obj 628 212 spigot;
#X obj 334 160 spigot;
#X obj 367 93 r auxIn-\$1;
#X obj 367 135 tgl 15 0 empty empty empty 17 7 0 10 -262144 -1 -1 1
1;
#X obj 367 114 ==;
#X obj 29 147 spigot;
#X obj 62 80 r auxIn-\$1;
#X obj 62 122 tgl 15 0 empty empty empty 17 7 0 10 -262144 -1 -1 1
1;
#X obj 62 101 ==;
#X text 162 202 arm recording;
#X obj 930 42 r auxIn-\$1;
#X obj 930 84 tgl 15 0 empty empty empty 17 7 0 10 -262144 -1 -1 1
1;
#X obj 930 63 ==;
#X obj 795 106 r auxIn-\$1;
#X obj 795 148 tgl 15 0 empty empty empty 17 7 0 10 -262144 -1 -1 1
1;
#X obj 795 127 ==;
#X obj 762 166 spigot;
#X obj 564 17 r loadbang-\$1;
#X msg 564 38 1;
#X obj 119 140 r arm-off-A-\$1;
#X obj 134 166 r arm-off-B-\$1;
#X obj 220 141 r arm-off-C-\$1;
#X obj 235 167 r arm-off-D-\$1;
#X obj 473 154 r qso-A-\$1;
#X obj 540 153 r qso-B-\$1;
#X obj 483 181 r qso-C-\$1;
#X obj 550 180 r qso-D-\$1;
#X obj 334 272 s qs-A-\$1;
#X obj 356 295 s qs-B-\$1;
#X obj 395 271 s qs-C-\$1;
#X obj 416 294 s qs-D-\$1;
#X obj 29 236 s arm-A-\$1;
#X obj 50 260 s arm-B-\$1;
#X obj 103 235 s arm-C-\$1;
#X obj 122 259 s arm-D-\$1;
#X obj 628 260 cleararray A \$1;
#X obj 663 285 cleararray B \$1;
#X obj 729 260 cleararray C \$1;
#X obj 772 285 cleararray D \$1;
#X obj 1005 115 r qeo-A-\$1;
#X obj 1072 114 r qeo-B-\$1;
#X obj 1015 142 r qeo-C-\$1;
#X obj 1082 141 r qeo-D-\$1;
#X obj 922 209 s qe-A-\$1;
#X obj 944 232 s qe-B-\$1;
#X obj 983 208 s qe-C-\$1;
#X obj 1004 231 s qe-D-\$1;
#X obj 821 320 r auxIn-\$1;
#X obj 821 364 tgl 15 0 empty empty empty 17 7 0 10 -262144 -1 -1 1
1;
#X obj 789 448 bng 15 250 50 0 empty empty empty 17 7 0 10 -262144
-1 -1;
#X obj 811 448 bng 15 250 50 0 empty empty empty 17 7 0 10 -262144
-1 -1;
#X obj 833 448 bng 15 250 50 0 empty empty empty 17 7 0 10 -262144
-1 -1;
#X obj 855 448 bng 15 250 50 0 empty empty empty 17 7 0 10 -262144
-1 -1;
#X obj 788 386 spigot;
#X obj 789 487 s qu-A-\$1;
#X obj 810 510 s qu-B-\$1;
#X obj 853 488 s qu-C-\$1;
#X obj 874 510 s qu-D-\$1;
#X obj 789 467 tgl 15 0 empty empty empty 17 7 0 10 -262144 -1 -1 0
1;
#X obj 811 467 tgl 15 0 empty empty empty 17 7 0 10 -262144 -1 -1 0
1;
#X obj 834 467 tgl 15 0 empty empty empty 17 7 0 10 -262144 -1 -1 0
1;
#X obj 858 467 tgl 15 0 empty empty empty 17 7 0 10 -262144 -1 -1 0
1;
#X obj 879 433 r quo-A-\$1;
#X obj 952 432 r quo-B-\$1;
#X obj 889 460 r quo-C-\$1;
#X obj 962 459 r quo-D-\$1;
#X obj 217 362 bng 15 250 50 0 empty empty empty 17 7 0 10 -262144
-1 -1;
#X obj 238 362 bng 15 250 50 0 empty empty empty 17 7 0 10 -262144
-1 -1;
#X obj 259 362 bng 15 250 50 0 empty empty empty 17 7 0 10 -262144
-1 -1;
#X obj 280 362 bng 15 250 50 0 empty empty empty 17 7 0 10 -262144
-1 -1;
#X obj 217 385 tgl 15 0 empty empty empty 17 7 0 10 -262144 -1 -1 1
1;
#X obj 238 385 tgl 15 0 empty empty empty 17 7 0 10 -262144 -1 -1 1
1;
#X obj 259 385 tgl 15 0 empty empty empty 17 7 0 10 -262144 -1 -1 1
1;
#X obj 281 385 tgl 15 0 empty empty empty 17 7 0 10 -262144 -1 -1 1
1;
#X obj 217 405 s mute-A-\$1;
#X obj 235 429 s mute-B-\$1;
#X obj 292 406 s mute-C-\$1;
#X obj 310 430 s mute-D-\$1;
#X obj 320 332 r loadbang-\$1;
#X msg 320 353 1;
#X obj 29 171 sel 65 67 69 71;
#X obj 334 186 sel 60 61 62 63 64;
#X obj 897 133 sel 72 73 74 75 76;
#X obj 791 410 sel 77 79 81 83;
#X obj 821 341 ==;
#X obj 189 367 tgl 15 0 empty empty empty 17 7 0 10 -262144 -1 -1 1
1;
#X obj 628 236 sel 65 67 69 71, f 25;
#X obj 417 766 queplay A \$1;
#X obj 572 781 queplay B \$1;
#X obj 706 795 queplay C \$1;
#X obj 822 785 queplay D \$1;
#X obj 968 652 r start;
#X obj 1041 655 r stop;
#X obj 1113 496 r auxIn-\$1;
#X obj 1113 517 sel 1 0;
#X msg 1113 538 7;
#X obj 1113 559 s aux-led-\$1;
#X msg 1142 538 0;
#X obj 1079 335 sel 77 79 81 83;
#X obj 1112 261 r auxIn-\$1;
#X obj 1112 287 tgl 15 0 empty empty empty 17 7 0 10 -262144 -1 -1
0 1;
#X obj 1079 312 spigot;
#X obj 1079 368 tgl 15 0 empty empty empty 17 7 0 10 -262144 -1 -1
0 1;
#X obj 1100 368 tgl 15 0 empty empty empty 17 7 0 10 -262144 -1 -1
0 1;
#X obj 1122 368 tgl 15 0 empty empty empty 17 7 0 10 -262144 -1 -1
0 1;
#X obj 1144 368 tgl 15 0 empty empty empty 17 7 0 10 -262144 -1 -1
0 1;
#X obj 1079 388 s rev-arm-A-\$1;
#X obj 1144 454 s rev-arm-D-\$1;
#X obj 1122 432 s rev-arm-C-\$1;
#X obj 1101 410 s rev-arm-B-\$1;
#X obj 1175 311 r revo-A-\$1;
#X obj 1208 336 r revo-B-\$1;
#X obj 1251 311 r revo-C-\$1;
#X obj 1284 336 r revo-D-\$1;
#X obj 1176 120 spigot;
#X obj 1209 56 r auxIn-\$1;
#X obj 1209 98 tgl 15 0 empty empty empty 17 7 0 10 -262144 -1 -1 1
1;
#X obj 1209 77 ==;
#X obj 1176 141 sel 82;
#X obj 1178 172 tgl 15 0 empty empty empty 17 7 0 10 -262144 -1 -1
0 1;
#X obj 1178 192 s resamp-arm-\$1;
#X obj 1231 150 r resamp-arm-off-\$1;
#X obj 1389 127 spigot;
#X obj 1422 59 r auxIn-\$1;
#X obj 1422 105 tgl 15 0 empty empty empty 17 7 0 10 -262144 -1 -1
1 1;
#X obj 1391 179 tgl 15 0 empty empty empty 17 7 0 10 -262144 -1 -1
0 1;
#X obj 1391 199 s write-arm-\$1;
#X obj 1444 157 r write-off-\$1;
#X obj 101 15 r A_midirec-\$1;
#X obj 117 40 r B_midirec-\$1;
#X obj 196 14 r C_midirec-\$1;
#X obj 212 39 r D_midirec-\$1;
#X obj 710 0 r A_midis-\$1;
#X obj 805 -1 r C_midis-\$1;
#X obj 726 25 r B_midis-\$1;
#X obj 821 24 r D_midis-\$1;
#X obj 196 332 sel 72 73 74 75 76;
#X obj 1410 405 tgl 15 0 empty empty empty 17 7 0 10 -262144 -1 -1
0 1;
#X obj 1431 405 tgl 15 0 empty empty empty 17 7 0 10 -262144 -1 -1
0 1;
#X obj 1452 405 tgl 15 0 empty empty empty 17 7 0 10 -262144 -1 -1
0 1;
#X obj 1473 405 tgl 15 0 empty empty empty 17 7 0 10 -262144 -1 -1
0 1;
#X obj 1410 329 spigot;
#X obj 1443 277 r auxIn-\$1;
#X obj 1443 304 tgl 15 0 empty empty empty 17 7 0 10 -262144 -1 -1
0 1;
#X obj 1410 355 sel 60 61 62 63 64;
#X obj 1410 254 r notesIn-\$1;
#X obj 1389 148 sel 70;
#X obj 1422 80 ==;
#X obj 1440 546 controltrig A \$1;
#X obj 1461 517 controltrig B \$1;
#X obj 1548 546 controltrig C \$1;
#X obj 1569 517 controltrig D \$1;
#X obj 1554 319 tgl 15 0 empty empty empty 17 7 0 10 -262144 -1 -1
0 1;
#X obj 1554 339 sel 0;
#X msg 1554 360 0;
#X msg 1584 362 1;
#X obj 1600 274 sel 0;
#X obj 1619 329 s mute-trigs-\$1;
#X msg 1600 295 0;
#X obj 1310 456 s A-repon-\$1;
#X obj 1351 538 s D-repon-\$1;
#X obj 1337 511 s C-repon-\$1;
#X obj 1324 483 s B-repon-\$1;
#X obj 994 24 r A_midie-\$1;
#X obj 1010 49 r B_midie-\$1;
#X obj 1089 23 r C_midie-\$1;
#X obj 1105 48 r D_midie-\$1;
#X obj 881 290 r A_undocc-\$1;
#X obj 897 315 r B_undocc-\$1;
#X obj 976 289 r C_undocc-\$1;
#X obj 992 314 r D_undocc-\$1;
#X connect 0 0 61 0;
#X connect 0 0 66 0;
#X connect 0 0 70 0;
#X connect 0 0 81 0;
#X connect 0 0 118 0;
#X connect 0 0 64 0;
#X connect 0 0 65 0;
#X connect 0 0 166 0;
#X connect 0 0 179 0;
#X connect 0 0 187 0;
#X connect 1 0 2 0;
#X connect 2 0 0 0;
#X connect 2 0 34 0;
#X connect 3 0 7 0;
#X connect 3 0 26 0;
#X connect 4 0 5 0;
#X connect 5 0 3 0;
#X connect 5 0 6 0;
#X connect 6 0 8 0;
#X connect 6 0 12 0;
#X connect 10 0 9 0;
#X connect 11 0 10 0;
#X connect 12 0 14 0;
#X connect 12 1 13 0;
#X connect 13 0 15 0;
#X connect 14 0 15 0;
#X connect 16 0 17 0;
#X connect 18 0 16 0;
#X connect 19 0 20 0;
#X connect 19 1 21 0;
#X connect 24 1 3 0;
#X connect 24 2 16 0;
#X connect 26 0 27 0;
#X connect 26 1 28 0;
#X connect 27 0 29 0;
#X connect 28 0 29 0;
#X connect 30 0 31 0;
#X connect 31 0 32 0;
#X connect 33 0 31 0;
#X connect 35 0 39 0;
#X connect 36 0 40 0;
#X connect 37 0 41 0;
#X connect 38 0 42 0;
#X connect 39 0 96 0;
#X connect 40 0 97 0;
#X connect 41 0 98 0;
#X connect 42 0 99 0;
#X connect 43 0 47 0;
#X connect 44 0 48 0;
#X connect 45 0 49 0;
#X connect 46 0 50 0;
#X connect 47 0 92 0;
#X connect 48 0 93 0;
#X connect 49 0 94 0;
#X connect 50 0 95 0;
#X connect 51 0 55 0;
#X connect 52 0 56 0;
#X connect 53 0 57 0;
#X connect 54 0 58 0;
#X connect 55 0 108 0;
#X connect 56 0 109 0;
#X connect 57 0 110 0;
#X connect 58 0 111 0;
#X connect 59 0 60 0;
#X connect 60 0 61 1;
#X connect 61 0 201 0;
#X connect 62 0 63 0;
#X connect 63 0 65 1;
#X connect 64 0 147 0;
#X connect 65 0 151 0;
#X connect 66 0 146 0;
#X connect 67 0 69 0;
#X connect 68 0 66 1;
#X connect 69 0 68 0;
#X connect 70 0 145 0;
#X connect 71 0 73 0;
#X connect 72 0 70 1;
#X connect 73 0 72 0;
#X connect 75 0 77 0;
#X connect 76 0 64 1;
#X connect 77 0 76 0;
#X connect 78 0 80 0;
#X connect 79 0 81 1;
#X connect 80 0 79 0;
#X connect 81 0 19 0;
#X connect 82 0 83 0;
#X connect 83 0 72 0;
#X connect 83 0 68 0;
#X connect 83 0 79 0;
#X connect 83 0 76 0;
#X connect 83 0 113 0;
#X connect 83 0 181 0;
#X connect 84 0 39 0;
#X connect 84 0 152 0;
#X connect 84 0 152 1;
#X connect 85 0 40 0;
#X connect 85 0 153 0;
#X connect 85 0 153 1;
#X connect 86 0 41 0;
#X connect 86 0 154 0;
#X connect 86 0 154 1;
#X connect 87 0 42 0;
#X connect 87 0 155 0;
#X connect 88 0 47 0;
#X connect 88 0 152 0;
#X connect 88 0 152 1;
#X connect 89 0 48 0;
#X connect 89 0 153 0;
#X connect 89 0 153 1;
#X connect 90 0 49 0;
#X connect 90 0 154 0;
#X connect 90 0 154 1;
#X connect 91 0 50 0;
#X connect 91 0 155 1;
#X connect 91 0 155 0;
#X connect 104 0 55 0;
#X connect 104 0 152 2;
#X connect 105 0 56 0;
#X connect 105 0 153 2;
#X connect 106 0 57 0;
#X connect 106 0 154 2;
#X connect 107 0 58 0;
#X connect 107 0 155 2;
#X connect 112 0 149 0;
#X connect 113 0 118 1;
#X connect 114 0 123 0;
#X connect 115 0 124 0;
#X connect 116 0 125 0;
#X connect 117 0 126 0;
#X connect 118 0 148 0;
#X connect 123 0 119 0;
#X connect 124 0 120 0;
#X connect 125 0 121 0;
#X connect 126 0 122 0;
#X connect 127 0 123 0;
#X connect 127 0 152 0;
#X connect 127 0 152 1;
#X connect 128 0 124 0;
#X connect 128 0 153 0;
#X connect 128 0 153 1;
#X connect 129 0 125 0;
#X connect 129 0 154 0;
#X connect 129 0 154 1;
#X connect 130 0 126 0;
#X connect 130 0 155 0;
#X connect 130 0 155 1;
#X connect 131 0 135 0;
#X connect 132 0 136 0;
#X connect 133 0 137 0;
#X connect 134 0 138 0;
#X connect 135 0 139 0;
#X connect 136 0 140 0;
#X connect 137 0 141 0;
#X connect 138 0 142 0;
#X connect 143 0 144 0;
#X connect 144 0 135 0;
#X connect 144 0 136 0;
#X connect 144 0 137 0;
#X connect 144 0 138 0;
#X connect 144 0 150 0;
#X connect 145 0 35 0;
#X connect 145 1 36 0;
#X connect 145 2 37 0;
#X connect 145 3 38 0;
#X connect 146 0 43 0;
#X connect 146 1 44 0;
#X connect 146 2 45 0;
#X connect 146 3 46 0;
#X connect 146 4 43 0;
#X connect 146 4 44 0;
#X connect 146 4 45 0;
#X connect 146 4 46 0;
#X connect 147 0 51 0;
#X connect 147 1 52 0;
#X connect 147 2 53 0;
#X connect 147 3 54 0;
#X connect 147 4 51 0;
#X connect 147 4 52 0;
#X connect 147 4 53 0;
#X connect 147 4 54 0;
#X connect 148 0 114 0;
#X connect 148 1 115 0;
#X connect 148 2 116 0;
#X connect 148 3 117 0;
#X connect 149 0 113 0;
#X connect 150 0 138 0;
#X connect 150 0 137 0;
#X connect 150 0 136 0;
#X connect 150 0 135 0;
#X connect 151 0 100 0;
#X connect 151 0 152 2;
#X connect 151 0 152 0;
#X connect 151 1 101 0;
#X connect 151 1 153 2;
#X connect 151 1 153 0;
#X connect 151 2 102 0;
#X connect 151 2 154 2;
#X connect 151 2 154 0;
#X connect 151 3 103 0;
#X connect 151 3 155 2;
#X connect 151 3 155 0;
#X connect 152 0 47 0;
#X connect 153 0 48 0;
#X connect 154 0 49 0;
#X connect 155 0 50 0;
#X connect 156 0 152 0;
#X connect 156 0 152 1;
#X connect 156 0 153 0;
#X connect 156 0 153 1;
#X connect 156 0 154 0;
#X connect 156 0 154 1;
#X connect 156 0 155 0;
#X connect 156 0 155 1;
#X connect 157 0 152 2;
#X connect 157 0 153 2;
#X connect 157 0 154 2;
#X connect 157 0 155 2;
#X connect 158 0 159 0;
#X connect 159 0 160 0;
#X connect 159 1 162 0;
#X connect 160 0 161 0;
#X connect 162 0 161 0;
#X connect 163 0 167 0;
#X connect 163 1 168 0;
#X connect 163 2 169 0;
#X connect 163 3 170 0;
#X connect 164 0 165 0;
#X connect 165 0 166 1;
#X connect 166 0 163 0;
#X connect 167 0 171 0;
#X connect 168 0 174 0;
#X connect 169 0 173 0;
#X connect 170 0 172 0;
#X connect 175 0 167 0;
#X connect 176 0 168 0;
#X connect 177 0 169 0;
#X connect 178 0 170 0;
#X connect 179 0 183 0;
#X connect 180 0 182 0;
#X connect 181 0 179 1;
#X connect 182 0 181 0;
#X connect 183 0 184 0;
#X connect 184 0 185 0;
#X connect 186 0 184 0;
#X connect 187 0 211 0;
#X connect 188 0 212 0;
#X connect 189 0 187 1;
#X connect 190 0 191 0;
#X connect 192 0 190 0;
#X connect 193 0 39 0;
#X connect 194 0 40 0;
#X connect 195 0 37 0;
#X connect 196 0 38 0;
#X connect 197 0 43 0;
#X connect 198 0 45 0;
#X connect 199 0 44 0;
#X connect 200 0 46 0;
#X connect 201 0 131 0;
#X connect 201 1 132 0;
#X connect 201 2 133 0;
#X connect 201 3 134 0;
#X connect 201 4 150 0;
#X connect 202 0 213 0;
#X connect 202 0 224 0;
#X connect 203 0 214 0;
#X connect 203 0 227 0;
#X connect 204 0 215 0;
#X connect 204 0 226 0;
#X connect 205 0 216 0;
#X connect 205 0 225 0;
#X connect 206 0 209 0;
#X connect 207 0 208 0;
#X connect 208 0 206 1;
#X connect 208 0 221 0;
#X connect 209 0 202 0;
#X connect 209 1 203 0;
#X connect 209 2 204 0;
#X connect 209 3 205 0;
#X connect 209 4 217 0;
#X connect 210 0 206 0;
#X connect 211 0 190 0;
#X connect 212 0 189 0;
#X connect 217 0 218 0;
#X connect 218 0 219 0;
#X connect 218 1 220 0;
#X connect 219 0 202 0;
#X connect 219 0 203 0;
#X connect 219 0 204 0;
#X connect 219 0 205 0;
#X connect 220 0 202 0;
#X connect 220 0 203 0;
#X connect 220 0 204 0;
#X connect 220 0 205 0;
#X connect 221 0 223 0;
#X connect 223 0 222 0;
#X connect 223 0 202 0;
#X connect 223 0 203 0;
#X connect 223 0 204 0;
#X connect 223 0 205 0;
#X connect 228 0 51 0;
#X connect 229 0 52 0;
#X connect 230 0 53 0;
#X connect 231 0 54 0;
#X connect 232 0 114 0;
#X connect 233 0 115 0;
#X connect 234 0 116 0;
#X connect 235 0 117 0;
#X restore 850 76 pd controls+arming;
#N canvas 106 313 199 326 monitor 0;
#X obj 24 233 line~;
#X msg 74 124 0 1, f 4;
#X obj 25 73 sel 1 0;
#X obj 25 52 tgl 15 0 empty empty empty 17 7 0 10 -262144 -1 -1 1 1
;
#X obj 43 179 f 0;
#X obj 80 152 f 100;
#X msg 25 145 1 1;
#X obj 80 173 s thru_gain-\$1;
#X obj 43 200 s thru_gain-\$1;
#X obj 74 95 t b b;
#X obj 25 95 t b b;
#X text 62 53 monitoring;
#X obj 24 277 outlet~;
#X obj 25 9 r loadbang-\$1;
#X msg 25 30 1;
#X connect 0 0 12 0;
#X connect 1 0 0 0;
#X connect 2 0 10 0;
#X connect 2 1 9 0;
#X connect 3 0 2 0;
#X connect 4 0 8 0;
#X connect 5 0 7 0;
#X connect 6 0 0 0;
#X connect 9 0 1 0;
#X connect 9 1 5 0;
#X connect 10 0 6 0;
#X connect 10 1 4 0;
#X connect 13 0 14 0;
#X connect 14 0 3 0;
#X restore 116 319 pd monitor;
#X text 285 521 mute + volume controls;
#N canvas 4 79 1178 708 record 0;
#X obj 167 94 inlet~;
#X obj 168 304 cg-writeSf~ /tmp/media/captures;
#X obj 168 325 unpack 0 0;
#X obj 168 346 t a a a;
#X obj 72 403 s aux-led-\$1;
#X obj 168 401 cg-time-count;
#X obj 168 422 unpack;
#X obj 168 443 pack 0 0 0;
#X msg 168 464 Record \$3.wav \$1:\$2;
#X obj 168 485 s aux-label-\$1;
#X obj 287 392 sel 1, f 15;
#X obj 287 413 t b b;
#X obj 287 434 f 1;
#X obj 374 413 t b b;
#X obj 374 434 f 0;
#X obj 359 472 f;
#X obj 477 68 tgl 75 0 empty empty empty 17 7 0 10 -262144 -1 -1 0
1;
#X obj 477 152 sel 0 1, f 27;
#X obj 556 173 t b b b, f 12;
#X obj 556 224 f 1;
#X obj 556 245 v global-rec-status;
#X obj 625 299 + 1;
#X msg 625 320 num \$1;
#X msg 578 278 start;
#X obj 431 224 f 0;
#X obj 431 245 v global-rec-status;
#X msg 516 224 stop;
#X obj 354 132 r loadbang-\$1;
#X obj 278 166 r init-sample-ct;
#X obj 352 197 bng 15 250 50 0 empty empty empty 17 7 0 10 -262144
-1 -1;
#X obj 477 173 t b b b b;
#X obj 400 197 s soundshare_refresh;
#X obj 477 41 r writetofile-\$1;
#X obj 414 366 v global-sample-count;
#X floatatom 414 387 5 0 0 0 - - -;
#X obj 414 345 cg-count-sf /tmp/media/captures;
#X obj 625 278 v global-sample-count;
#X connect 0 0 1 0;
#X connect 1 0 2 0;
#X connect 2 0 3 0;
#X connect 2 1 7 2;
#X connect 3 0 4 0;
#X connect 3 1 5 0;
#X connect 3 2 10 0;
#X connect 5 0 6 0;
#X connect 6 0 7 0;
#X connect 6 1 7 1;
#X connect 7 0 8 0;
#X connect 8 0 9 0;
#X connect 10 0 11 0;
#X connect 10 1 13 0;
#X connect 11 0 12 0;
#X connect 12 0 15 0;
#X connect 13 0 14 0;
#X connect 14 0 15 0;
#X connect 16 0 17 0;
#X connect 17 0 30 0;
#X connect 17 1 18 0;
#X connect 18 0 19 0;
#X connect 18 1 23 0;
#X connect 18 2 36 0;
#X connect 19 0 20 0;
#X connect 21 0 22 0;
#X connect 22 0 1 1;
#X connect 23 0 1 1;
#X connect 24 0 25 0;
#X connect 26 0 1 1;
#X connect 27 0 35 0;
#X connect 28 0 35 0;
#X connect 29 0 35 0;
#X connect 30 0 31 0;
#X connect 30 1 24 0;
#X connect 30 2 35 0;
#X connect 30 3 26 0;
#X connect 32 0 16 0;
#X connect 33 0 34 0;
#X connect 35 0 33 0;
#X connect 36 0 21 0;
#X restore 199 590 pd record;
#X text 178 26 input receive and send to recorder;
#X obj 270 355 *~ 1;
#X obj 270 376 clip~ -1 1;
#X obj 669 82 r loadbang-\$1;
#X text 436 47 4track for Orac Created by Tate Storey/T8R 2022;
#N canvas 604 253 926 658 states 0;
#X obj 20 169 sel \$1, f 12;
#X obj 20 151 unpack s s, f 16;
#X obj 20 133 r activePage;
#X msg 113 187 1;
#X msg 200 187 0;
#X msg 20 187 1;
#X msg 89 187 0;
#X obj 89 211 &&;
#X obj 89 232 change;
#X obj 89 260 tgl 15 0 empty empty empty 17 7 0 10 -262144 -1 -1 1
1;
#X obj 113 169 sel pg_state;
#X obj 128 108 snapshot~;
#X floatatom 128 133 5 0 0 0 - - -;
#X obj 278 49 bng 15 250 50 0 empty empty empty 17 7 0 10 -262144 -1
-1;
#X obj 218 108 snapshot~;
#X floatatom 218 133 5 0 0 0 - - -;
#X obj 306 108 snapshot~;
#X floatatom 306 133 5 0 0 0 - - -;
#X obj 396 108 snapshot~;
#X floatatom 396 133 5 0 0 0 - - -;
#X obj 127 86 r~ A-state-\$1;
#X obj 217 86 r~ B-state-\$1;
#X obj 305 86 r~ C-state-\$1;
#X obj 395 86 r~ D-state-\$1;
#X obj 246 164 r A_volume-\$1;
#X floatatom 246 185 5 0 0 0 - - -;
#X floatatom 332 186 5 0 0 0 - - -;
#X obj 332 165 r B_volume-\$1;
#X floatatom 421 186 5 0 0 0 - - -;
#X floatatom 507 187 5 0 0 0 - - -;
#X obj 421 165 r C_volume-\$1;
#X obj 507 166 r D_volume-\$1;
#X obj 278 20 metro 50;
#X obj 7 288 mixknobs \$1;
#X obj 89 289 state \$1, f 27;
#X obj 664 61 r loadbang-\$1;
#X obj 664 82 t b b b b b;
#X msg 612 118 1;
#X obj 528 121 s load-init;
#X msg 768 118 1;
#X msg 575 228 1;
#X msg 748 229 1;
#X obj 631 61 bng 15 250 50 0 empty empty empty 17 7 0 10 -262144 -1
-1;
#X obj 293 222 r~ sampout-A-\$1;
#X obj 401 221 r~ sampout-B-\$1;
#X obj 403 245 r~ sampout-D-\$1;
#X obj 295 246 r~ sampout-C-\$1;
#X obj 768 160 tabread c-volkob-\$1;
#X obj 768 139 array define c-volkob-\$1;
#X obj 612 160 tabread d-volkob-\$1;
#X obj 612 139 array define d-volkob-\$1;
#X obj 575 249 array define b-volkob-\$1;
#X obj 748 250 array define a-volkob-\$1;
#X obj 575 270 tabread b-volkob-\$1;
#X obj 748 271 tabread a-volkob-\$1;
#X msg 612 181 \; d-volkob-recall;
#X msg 768 181 \; c-volkob-recall;
#X msg 575 291 \; b-volkob-recall;
#X msg 748 292 \; a-volkob-recall;
#X obj 39 260 tgl 15 0 empty empty empty 17 7 0 10 -262144 -1 -1 1
1;
#X obj 193 437 snapshot~;
#X floatatom 193 462 5 0 0 0 - - -;
#X obj 283 437 snapshot~;
#X floatatom 283 462 5 0 0 0 - - -;
#X obj 371 437 snapshot~;
#X floatatom 371 462 5 0 0 0 - - -;
#X obj 461 437 snapshot~;
#X floatatom 461 462 5 0 0 0 - - -;
#X obj 192 415 r~ A-state-\$1;
#X obj 282 415 r~ B-state-\$1;
#X obj 370 415 r~ C-state-\$1;
#X obj 460 415 r~ D-state-\$1;
#X obj 656 410 ctlin;
#X floatatom 636 443 5 0 0 0 - - -;
#X floatatom 680 449 5 0 0 0 - - -;
#X floatatom 752 446 5 0 0 0 - - -;
#X obj 318 301 r loadbang-\$1;
#X obj 323 326 bng 15 250 50 0 empty empty empty 17 7 0 10 -262144
-1 -1;
#X obj 327 348 tgl 15 0 empty empty empty 17 7 0 10 -262144 -1 -1 1
1;
#X obj 327 368 metro 50;
#X obj 324 392 bng 15 250 50 0 empty empty empty 17 7 0 10 -262144
-1 -1;
#X obj 193 482 * 127;
#X obj 193 503 int;
#X floatatom 193 524 5 0 0 0 - - -;
#X obj 208 585 ctlout 44 1;
#X obj 288 588 ctlout 45 1;
#X obj 362 587 ctlout 46 1;
#X obj 442 590 ctlout 47 1;
#X obj 285 483 * 127;
#X obj 285 504 int;
#X floatatom 285 525 5 0 0 0 - - -;
#X obj 372 485 * 127;
#X obj 372 506 int;
#X floatatom 372 527 5 0 0 0 - - -;
#X obj 459 482 * 127;
#X obj 459 503 int;
#X floatatom 459 524 5 0 0 0 - - -;
#X connect 0 0 5 0;
#X connect 0 1 6 0;
#X connect 1 0 0 0;
#X connect 1 1 10 0;
#X connect 2 0 1 0;
#X connect 3 0 7 1;
#X connect 4 0 7 1;
#X connect 5 0 7 0;
#X connect 6 0 7 0;
#X connect 7 0 8 0;
#X connect 7 0 59 0;
#X connect 8 0 9 0;
#X connect 9 0 32 0;
#X connect 9 0 34 0;
#X connect 10 0 3 0;
#X connect 10 1 4 0;
#X connect 11 0 12 0;
#X connect 12 0 34 1;
#X connect 13 0 11 0;
#X connect 13 0 14 0;
#X connect 13 0 16 0;
#X connect 13 0 18 0;
#X connect 14 0 15 0;
#X connect 15 0 34 2;
#X connect 16 0 17 0;
#X connect 17 0 34 3;
#X connect 18 0 19 0;
#X connect 19 0 34 4;
#X connect 20 0 11 0;
#X connect 21 0 14 0;
#X connect 22 0 16 0;
#X connect 23 0 18 0;
#X connect 24 0 25 0;
#X connect 25 0 34 5;
#X connect 26 0 34 6;
#X connect 27 0 26 0;
#X connect 28 0 34 7;
#X connect 29 0 34 8;
#X connect 30 0 28 0;
#X connect 31 0 29 0;
#X connect 32 0 13 0;
#X connect 35 0 36 0;
#X connect 36 0 38 0;
#X connect 36 1 37 0;
#X connect 36 2 39 0;
#X connect 36 3 40 0;
#X connect 36 4 41 0;
#X connect 37 0 50 0;
#X connect 39 0 48 0;
#X connect 40 0 51 0;
#X connect 41 0 52 0;
#X connect 42 0 36 0;
#X connect 43 0 34 9;
#X connect 44 0 34 10;
#X connect 45 0 34 12;
#X connect 46 0 34 11;
#X connect 47 0 56 0;
#X connect 48 0 47 0;
#X connect 49 0 55 0;
#X connect 50 0 49 0;
#X connect 51 0 53 0;
#X connect 52 0 54 0;
#X connect 53 0 57 0;
#X connect 54 0 58 0;
#X connect 59 0 33 0;
#X connect 60 0 61 0;
#X connect 61 0 81 0;
#X connect 62 0 63 0;
#X connect 63 0 88 0;
#X connect 64 0 65 0;
#X connect 65 0 91 0;
#X connect 66 0 67 0;
#X connect 67 0 94 0;
#X connect 68 0 60 0;
#X connect 69 0 62 0;
#X connect 70 0 64 0;
#X connect 71 0 66 0;
#X connect 72 0 73 0;
#X connect 72 1 74 0;
#X connect 72 2 75 0;
#X connect 76 0 77 0;
#X connect 77 0 78 0;
#X connect 78 0 79 0;
#X connect 79 0 80 0;
#X connect 80 0 60 0;
#X connect 80 0 62 0;
#X connect 80 0 64 0;
#X connect 80 0 66 0;
#X connect 81 0 82 0;
#X connect 82 0 83 0;
#X connect 83 0 84 0;
#X connect 88 0 89 0;
#X connect 89 0 90 0;
#X connect 90 0 85 0;
#X connect 91 0 92 0;
#X connect 92 0 93 0;
#X connect 93 0 86 0;
#X connect 94 0 95 0;
#X connect 95 0 96 0;
#X connect 96 0 87 0;
#X restore 861 266 pd states;
#X obj 737 357 array define A-\$1;
#X obj 737 387 array define B-\$1;
#X obj 737 417 array define C-\$1;
#X obj 737 447 array define D-\$1;
#X obj 862 356 array define A-undo-\$1;
#X obj 862 386 array define B-undo-\$1;
#X obj 862 416 array define C-undo-\$1;
#X obj 862 446 array define D-undo-\$1;
#X obj 829 130 player A \$1;
#X obj 829 152 player B \$1;
#X obj 829 174 player C \$1;
#X obj 829 196 player D \$1;
#X obj 905 130 player-voice A \$1;
#X obj 906 152 player-voice B \$1;
#X obj 906 175 player-voice C \$1;
#X obj 906 196 player-voice D \$1;
#X obj 494 355 *~ 1;
#X obj 494 376 clip~ -1 1;
#X obj 146 8 catch~ sampoutL-A-\$1;
#X obj 230 108 catch~ sampoutL-B-\$1;
#X obj 289 168 catch~ sampoutL-C-\$1;
#X obj 304 248 catch~ sampoutL-D-\$1;
#X obj 373 14 catch~ sampoutR-A-\$1;
#X obj 454 105 catch~ sampoutR-B-\$1;
#X obj 513 168 catch~ sampoutR-C-\$1;
#X obj 532 246 catch~ sampoutR-D-\$1;
#X obj 493 503 *~;
#X obj 373 307 s~ sampout-D-\$1;
#X obj 349 215 s~ sampout-C-\$1;
#X obj 302 136 s~ sampout-B-\$1;
#X obj 271 80 s~ sampout-A-\$1;
#X obj 850 48 crown-window \$1;
#N canvas 4 50 972 786 write 0;
#X obj 568 20 r loopy-bpm;
#X floatatom 567 67 5 0 0 0 - - -;
#X obj 567 87 t b f;
#X obj 567 135 /;
#X floatatom 567 164 5 0 0 0 - - -;
#X obj 567 184 *;
#X floatatom 567 205 5 0 0 0 - - -;
#X obj 567 225 t f f;
#X msg 594 246 \$1;
#X obj 594 267 delay;
#X floatatom 657 50 5 0 0 0 - - -;
#X obj 646 104 t b b f;
#X obj 515 104 i 60000;
#X obj 183 57 r rec-resample-\$1;
#X msg 183 78 1;
#X obj 183 101 tgl 60 0 empty empty empty 17 7 0 10 -262144 -1 -1 0
1;
#X msg 256 125 0;
#X obj 183 166 sel 1 0;
#X obj 183 187 t b b b b;
#X msg 86 226 1;
#X msg 255 247 1;
#X obj 86 247 s looped-\$1-\$2;
#X obj 188 247 t b b;
#X obj 188 300 delay 4;
#X msg 188 324 start;
#X msg 215 272 1 4;
#X obj 255 158 r~ sampout-A-\$1;
#X obj 297 186 r~ sampout-B-\$1;
#X obj 334 222 r~ sampout-C-\$1;
#X obj 368 254 r~ sampout-D-\$1;
#X obj 256 83 r rec-off-resample-\$1;
#X obj 594 288 s rec-off-resample-\$1;
#X obj 744 60 inlet;
#X obj 744 121 delay 20;
#X obj 744 142 bng 15 250 50 0 empty empty empty 17 7 0 10 -262144
-1 -1;
#X obj 744 177 delay 1;
#X obj 744 198 * 44.1;
#X floatatom 744 219 10 0 0 0 - - -;
#X obj 744 239 spigot;
#X msg 744 260 resize \$1;
#X obj 744 281 s resample-\$1;
#X obj 850 155 delay 10;
#X msg 850 177 0;
#X msg 810 177 1;
#X obj 326 323 *~;
#X obj 324 451 tabwrite~;
#X msg 628 352 set resample-\$1;
#X obj 325 348 clip~ -1 1;
#X obj 385 293 line~;
#X obj 640 241 symbol \$1;
#X obj 658 25 r A_length-\$1;
#X msg 528 240 0 1;
#X msg 506 312 stop;
#X obj 634 162 r rec-resample-\$1;
#X obj 325 129 bng 15 250 50 0 empty empty empty 17 7 0 10 -262144
-1 -1;
#X obj 568 41 change;
#X obj 522 458 arraycopy A-\$1;
#X obj 524 395 symbol \$1;
#X msg 524 416 copy resample-\$1;
#X msg 459 543 const 0;
#X obj 438 581 s B-\$1;
#X obj 533 581 s D-\$1;
#X obj 485 581 s C-\$1;
#X obj 441 610 s clearB-\$1;
#X obj 520 609 s clearC-\$1;
#X obj 598 610 s clearD-\$1;
#X obj 471 182 t b b b b b b;
#X obj 622 488 s playstart-A-\$1;
#X obj 222 672 s qend-B-\$1;
#X obj 393 669 s qend-D-\$1;
#X obj 304 671 s qend-C-\$1;
#X obj 657 70 spigot;
#X obj 634 183 t b b b;
#X msg 674 207 1;
#X msg 631 209 0;
#X obj 833 84 r load-\$1;
#X obj 633 456 t b b;
#X msg 777 465 1;
#X obj 777 486 s looped-A-\$1;
#X obj 814 324 r loadbang-\$1;
#X obj 814 345 delay 60;
#X floatatom 817 390 80 0 0 0 - - -;
#X obj 775 351 bng 15 250 50 0 empty empty empty 17 7 0 10 -262144
-1 -1;
#X obj 817 369 array size A-\$1;
#X msg 817 410 resize \$1;
#X obj 817 431 s resample-\$1;
#X connect 0 0 55 0;
#X connect 1 0 2 0;
#X connect 2 0 3 0;
#X connect 2 1 3 1;
#X connect 3 0 4 0;
#X connect 4 0 5 0;
#X connect 5 0 6 0;
#X connect 5 0 36 0;
#X connect 6 0 7 0;
#X connect 7 1 8 0;
#X connect 8 0 9 0;
#X connect 9 0 31 0;
#X connect 10 0 71 0;
#X connect 11 0 12 0;
#X connect 11 1 4 0;
#X connect 11 2 5 1;
#X connect 12 0 3 0;
#X connect 13 0 14 0;
#X connect 14 0 15 0;
#X connect 15 0 17 0;
#X connect 16 0 15 0;
#X connect 17 0 18 0;
#X connect 17 1 66 0;
#X connect 18 0 19 0;
#X connect 18 1 20 0;
#X connect 18 2 22 0;
#X connect 19 0 21 0;
#X connect 22 0 23 0;
#X connect 22 1 25 0;
#X connect 23 0 24 0;
#X connect 24 0 45 0;
#X connect 25 0 48 0;
#X connect 26 0 44 0;
#X connect 27 0 44 0;
#X connect 28 0 44 0;
#X connect 29 0 44 0;
#X connect 30 0 16 0;
#X connect 30 0 54 0;
#X connect 32 0 33 0;
#X connect 32 0 49 0;
#X connect 33 0 34 0;
#X connect 34 0 35 0;
#X connect 34 0 41 0;
#X connect 34 0 43 0;
#X connect 35 0 36 0;
#X connect 36 0 37 0;
#X connect 37 0 38 0;
#X connect 38 0 39 0;
#X connect 39 0 40 0;
#X connect 41 0 42 0;
#X connect 42 0 38 1;
#X connect 43 0 38 1;
#X connect 44 0 47 0;
#X connect 46 0 45 0;
#X connect 47 0 45 0;
#X connect 48 0 44 1;
#X connect 49 0 46 0;
#X connect 50 0 10 0;
#X connect 51 0 48 0;
#X connect 52 0 45 0;
#X connect 53 0 72 0;
#X connect 55 0 1 0;
#X connect 57 0 58 0;
#X connect 58 0 56 0;
#X connect 59 0 60 0;
#X connect 59 0 62 0;
#X connect 59 0 61 0;
#X connect 66 0 76 0;
#X connect 66 1 68 0;
#X connect 66 1 70 0;
#X connect 66 1 69 0;
#X connect 66 3 57 0;
#X connect 66 4 52 0;
#X connect 66 5 51 0;
#X connect 71 0 11 0;
#X connect 72 0 74 0;
#X connect 72 1 10 0;
#X connect 72 2 73 0;
#X connect 73 0 71 1;
#X connect 74 0 71 1;
#X connect 75 0 34 0;
#X connect 76 0 67 0;
#X connect 76 1 77 0;
#X connect 77 0 78 0;
#X connect 79 0 80 0;
#X connect 80 0 83 0;
#X connect 81 0 84 0;
#X connect 82 0 80 0;
#X connect 83 0 81 0;
#X connect 84 0 85 0;
#X restore 669 196 pd write;
#X obj 737 477 array define resample-\$1;
#X obj 160 272 s inputlevel-\$1;
#X obj 1007 356 array define A-redo-\$1;
#X obj 1007 386 array define B-redo-\$1;
#X obj 1007 416 array define C-redo-\$1;
#X obj 1007 446 array define D-redo-\$1;
#X obj 728 130 recorder A \$1 1;
#X obj 728 152 recorder B \$1 2;
#X obj 728 174 recorder C \$1 3;
#X obj 728 196 recorder D \$1 4;
#N canvas 4 50 450 300 mftcounter 0;
#X obj 168 53 r signature-s2;
#X floatatom 168 74 5 0 0 0 - - -;
#X obj 168 94 t b f;
#X obj 168 115 i 127;
#X obj 168 136 /;
#X floatatom 168 157 5 0 0 0 - - -;
#X floatatom 168 224 5 0 0 0 - - -;
#X obj 168 244 i;
#X floatatom 168 265 5 0 0 0 - - -;
#X obj 168 285 ctlout 28 1;
#X obj 168 203 *;
#X obj 79 152 r beatnum-\$1;
#X connect 0 0 1 0;
#X connect 1 0 2 0;
#X connect 2 0 3 0;
#X connect 2 1 4 1;
#X connect 3 0 4 0;
#X connect 4 0 5 0;
#X connect 5 0 10 1;
#X connect 6 0 7 0;
#X connect 7 0 8 0;
#X connect 8 0 9 0;
#X connect 10 0 6 0;
#X connect 11 0 10 0;
#X restore 735 329 pd mftcounter;
#X obj 1005 324 midi \$1;
#X obj 20 506 delay5sec;
#X obj 37 382 r len-\$1;
#X obj 137 389 r ol_feedback-\$1;
#X obj 137 410 / 100;
#X obj 154 463 / 100;
#X obj 575 293 r loadbang-\$1;
#X obj 575 314 delay 30;
#X msg 575 335 0;
#X obj 575 356 s thru_gain-\$1;
#X obj 102 352 *~;
#X obj 103 505 delay5sec;
#X obj 154 441 r monitor_delay-\$1;
#X connect 0 0 3 0;
#X connect 1 0 2 1;
#X connect 2 0 12 0;
#X connect 2 0 14 0;
#X connect 3 0 1 0;
#X connect 3 0 1 1;
#X connect 4 0 2 0;
#X connect 4 0 90 0;
#X connect 5 0 2 0;
#X connect 5 0 13 0;
#X connect 8 0 0 0;
#X connect 9 0 8 0;
#X connect 13 0 81 0;
#X connect 14 0 70 0;
#X connect 15 0 16 0;
#X connect 16 0 17 0;
#X connect 17 0 18 1;
#X connect 17 0 62 1;
#X connect 18 0 29 0;
#X connect 18 0 6 0;
#X connect 25 0 10 0;
#X connect 25 1 11 0;
#X connect 27 0 13 1;
#X connect 27 0 90 1;
#X connect 31 0 32 0;
#X connect 32 0 18 0;
#X connect 33 0 44 0;
#X connect 33 0 48 0;
#X connect 33 0 68 0;
#X connect 33 0 45 0;
#X connect 33 0 46 0;
#X connect 33 0 47 0;
#X connect 33 0 75 0;
#X connect 33 0 49 0;
#X connect 33 0 50 0;
#X connect 33 0 51 0;
#X connect 33 0 76 0;
#X connect 33 0 77 0;
#X connect 33 0 78 0;
#X connect 52 0 53 0;
#X connect 53 0 62 0;
#X connect 54 0 66 0;
#X connect 54 0 31 0;
#X connect 55 0 31 0;
#X connect 55 0 65 0;
#X connect 56 0 31 0;
#X connect 56 0 64 0;
#X connect 57 0 31 0;
#X connect 57 0 63 0;
#X connect 58 0 66 0;
#X connect 58 0 52 0;
#X connect 59 0 52 0;
#X connect 59 0 65 0;
#X connect 60 0 52 0;
#X connect 60 0 64 0;
#X connect 61 0 52 0;
#X connect 61 0 63 0;
#X connect 62 0 29 0;
#X connect 62 0 7 0;
#X connect 81 0 6 0;
#X connect 82 0 81 1;
#X connect 82 0 91 1;
#X connect 83 0 84 0;
#X connect 84 0 81 2;
#X connect 84 0 91 2;
#X connect 85 0 81 3;
#X connect 85 0 91 3;
#X connect 86 0 87 0;
#X connect 87 0 88 0;
#X connect 88 0 89 0;
#X connect 90 0 91 0;
#X connect 91 0 7 0;
#X connect 92 0 85 0;
#X restore 26 335 pd 4track;
#X f 17;
#X connect 2 0 11 0;
#X connect 2 0 13 0;
#X connect 3 0 18 0;
#X connect 4 0 18 1;
#X connect 11 0 12 0;
#X connect 13 0 10 0;
#X connect 18 0 5 0;
#X connect 18 1 6 0;
