#N canvas 945 72 967 972 10;
#X obj 206 322 phasor~;
#X obj 206 352 *~;
#X obj 206 228 expr 1000 / $f1;
#X obj 206 146 t f f;
#X obj 235 352 * 44.1;
#X msg 311 286 0;
#X obj 221 542 *~;
#X obj 235 519 sig~;
#X obj 235 498 / 100;
#X obj 206 436 tabread4~;
#X obj 261 118 t b b b;
#X text 271 432 player circuit;
#X obj 222 594 env~ 4410 2205;
#X obj 206 170 spigot;
#X obj 206 282 *;
#X obj 129 32 bng 15 250 50 0 empty empty empty 17 7 0 10 -262144 -1
-1;
#X text 325 604 send to recorded volume meter;
#X text 264 538 volume of previous layer in loop;
#X text 165 3 send play command and reset start position to 0;
#X obj 206 64 length \$1 \$2;
#X obj 492 57 t b b;
#X obj 492 159 symbol \$1;
#X msg 492 204 set \$1-\$2;
#X obj 311 199 r reset-\$1-\$2;
#X obj 537 85 symbol \$2;
#X obj 311 169 r looped-\$1-\$2;
#X obj 311 140 s play-\$1-\$2;
#X obj 261 89 r playerplay-\$1-\$2;
#X obj 17 194 bng 15 250 50 0 empty empty empty 17 7 0 10 -262144 -1
-1;
#X obj 492 12 inlet;
#X obj 492 180 pack s s;
#X obj 49 214 r playerstop-\$1-\$2;
#X obj 229 567 s~ recycle-\$1-\$2;
#X obj 222 622 s recyclelevel-\$1-\$2;
#X obj 235 476 r ol_rlevel-\$2;
#X obj 250 678 r \$1_volume-\$2;
#X obj 250 719 sig~;
#X obj 205 725 *~;
#X obj 250 699 / 100;
#X obj 76 436 s~ \$1-state-\$2;
#X obj 125 241 r clear\$1-\$2;
#X msg 125 262 0;
#X msg 80 285 0;
#X obj 49 265 t b b;
#X msg 49 286 0;
#X obj 49 343 tgl 15 0 empty empty empty 17 7 0 10 -262144 -1 -1 1
1;
#X msg 17 214 1;
#X obj 88 336 bng 15 250 50 0 empty empty empty 17 7 0 10 -262144 -1
-1;
#X obj 50 363 sig~;
#X obj 76 406 *~;
#X obj 17 131 r rec-\$1-\$2;
#X obj 206 758 hip~;
#X obj 297 705 r \$1_hpf-\$2;
#X floatatom 297 745 10 0 0 0 - - -;
#X floatatom 235 373 15 0 0 0 - - -;
#X obj 206 871 *~;
#X obj 364 776 r mute-\$1-\$2;
#X obj 364 797 tgl 15 0 empty empty empty 17 7 0 10 -262144 -1 -1 1
1;
#X obj 364 817 sig~;
#N canvas 4 50 450 300 panner 0;
#X obj 85 31 inlet~;
#X obj 84 175 *~;
#X obj 84 196 outlet~;
#X obj 199 28 inlet;
#X obj 199 49 / 4;
#X floatatom 199 70 5 0 0 0 - - -;
#X obj 199 90 + 0.75;
#X msg 199 111 \$1 10;
#X obj 199 132 line~;
#X obj 199 153 cos~;
#X msg 100 113 \$1 10;
#X obj 100 134 line~;
#X obj 100 155 cos~;
#X obj 183 177 *~;
#X obj 183 198 outlet~;
#X connect 0 0 1 0;
#X connect 0 0 13 0;
#X connect 1 0 2 0;
#X connect 3 0 4 0;
#X connect 4 0 5 0;
#X connect 5 0 6 0;
#X connect 5 0 10 0;
#X connect 6 0 7 0;
#X connect 7 0 8 0;
#X connect 8 0 9 0;
#X connect 9 0 13 1;
#X connect 10 0 11 0;
#X connect 11 0 12 0;
#X connect 12 0 1 1;
#X connect 13 0 14 0;
#X restore 206 908 pd panner;
#X floatatom 257 879 5 0 1 0 - - -;
#X obj 205 942 throw~ sampoutL-\$1-\$2;
#X obj 345 941 throw~ sampoutR-\$1-\$2;
#X obj 311 887 r \$1_pan-\$2;
#X obj 382 416 tabread4~ \$2-crown;
#X obj 382 442 *~;
#X obj 206 466 *~;
#X obj 676 432 tgl 15 0 empty empty empty 17 7 0 10 -262144 -1 -1 1
1;
#X obj 676 455 sig~;
#X obj 382 371 *~ 22050;
#X obj 676 357 r declick-\$2;
#X obj 676 381 tgl 15 0 empty empty empty 17 7 0 10 -262144 -1 -1 0
1;
#X obj 676 405 ==;
#X obj 382 392 *~;
#X obj 411 392 sig~;
#X obj 205 809 lop~;
#X obj 282 768 r \$1_lpf-\$2;
#X obj 297 726 mtof;
#X obj 282 789 mtof;
#X floatatom 282 831 10 0 0 0 - - -;
#X obj 404 127 bng 15 250 50 0 empty empty empty 17 7 0 10 -262144
-1 -1;
#N canvas 4 50 501 487 offset 1;
#X obj 187 11 inlet;
#X obj 133 80 r \$1_offset-\$2;
#X obj 51 134 vsl 15 128 0 1 0 0 empty empty empty 0 -9 0 10 -262144
-1 -1 0 1;
#X obj 133 164 *;
#X floatatom 51 270 5 0 0 0 - - -;
#X obj 240 140 r \$1_length-\$2;
#X obj 133 185 int;
#X floatatom 133 206 5 0 0 0 - - -;
#X obj 133 226 /;
#X floatatom 133 247 5 0 0 0 - - -;
#X obj 200 55 t b b b;
#X msg 133 352 \$1;
#X obj 133 373 outlet;
#X obj 133 267 change;
#X floatatom 132 299 5 0 0 0 - - -;
#X obj 133 119 / 100;
#X floatatom 133 140 5 0 0 0 - - -;
#X obj 292 361 s aux-label-\$2;
#X obj 329 266 symbol \$1;
#X obj 292 243 t f b;
#X symbolatom 329 287 10 0 0 0 - - -;
#X floatatom 292 284 5 0 0 0 - - -;
#X obj 292 317 pack 0 s;
#X msg 292 338 \$2 Offset : \$1;
#X connect 0 0 10 0;
#X connect 1 0 15 0;
#X connect 2 0 3 0;
#X connect 2 0 4 0;
#X connect 3 0 6 0;
#X connect 5 0 3 1;
#X connect 5 0 8 1;
#X connect 6 0 7 0;
#X connect 7 0 8 0;
#X connect 7 0 19 0;
#X connect 8 0 9 0;
#X connect 9 0 13 0;
#X connect 10 2 14 0;
#X connect 11 0 12 0;
#X connect 13 0 14 0;
#X connect 14 0 11 0;
#X connect 15 0 16 0;
#X connect 16 0 3 0;
#X connect 18 0 20 0;
#X connect 19 0 21 0;
#X connect 19 1 18 0;
#X connect 20 0 22 1;
#X connect 21 0 22 0;
#X connect 22 0 23 0;
#X connect 23 0 17 0;
#X restore 348 252 pd offset;
#X obj 282 810 * 2;
#X obj 368 227 bng 15 250 50 0 empty empty empty 17 7 0 10 -262144
-1 -1;
#X obj 49 14 r rev-\$1-\$2;
#X obj 50 59 sel 1 0;
#X msg 50 88 -1;
#X msg 82 87 1;
#X obj 51 35 tgl 15 0 empty empty empty 17 7 0 10 -262144 -1 -1 0 1
;
#X obj 95 180 speed \$1 \$2;
#X obj 13 496 s aux-label-\$2;
#X obj 13 454 * 100;
#X msg 13 475 \$1% Speed;
#X obj 204 652 delay5sec;
#X obj 536 580 r len-\$2;
#X obj 603 603 / 100;
#X obj 631 627 r \$1_delayvol-\$2;
#X obj 631 648 / 100;
#X obj 603 582 r ol_feedback-\$2;
#X obj 678 152 s trig-\$1-\$2;
#X obj 275 38 r trig-\$1-\$2;
#X obj 481 277 bng 15 250 50 0 empty empty empty 17 7 0 10 -262144
-1 -1;
#X obj 592 277 bng 15 250 50 0 empty empty empty 17 7 0 10 -262144
-1 -1;
#X obj 481 300 snapshot~;
#X floatatom 481 325 5 0 0 0 - - -;
#X msg 481 345 \$1;
#X obj 411 213 phasor~;
#X obj 411 234 snapshot~;
#X floatatom 411 255 5 0 0 0 - - -;
#X msg 411 275 \$1;
#X msg 545 300 0;
#X msg 578 300 1;
#X obj 545 325 s trig_gate-\$1-\$2;
#X obj 481 253 retriggeropen \$1 \$2;
#X obj 568 20 retrigger-gates \$1 \$2;
#X obj 588 128 retrigger \$1 \$2;
#X obj 206 392 +~;
#X floatatom 81 553 20 0 0 0 - - -;
#X obj 81 573 sig~;
#X obj 81 532 r \$1-offset-\$2;
#X obj 446 761 * 2;
#X connect 0 0 1 0;
#X connect 0 0 49 0;
#X connect 0 0 69 0;
#X connect 0 0 103 0;
#X connect 1 0 116 0;
#X connect 2 0 14 0;
#X connect 3 0 13 0;
#X connect 3 1 4 0;
#X connect 4 0 1 1;
#X connect 4 0 54 0;
#X connect 5 0 0 1;
#X connect 6 0 12 0;
#X connect 6 0 32 0;
#X connect 7 0 6 1;
#X connect 8 0 7 0;
#X connect 9 0 66 0;
#X connect 10 0 2 0;
#X connect 10 1 81 0;
#X connect 10 1 5 0;
#X connect 10 2 26 0;
#X connect 12 0 33 0;
#X connect 13 0 2 0;
#X connect 14 0 0 0;
#X connect 14 0 106 0;
#X connect 15 0 87 0;
#X connect 19 0 3 0;
#X connect 20 0 21 0;
#X connect 20 1 24 0;
#X connect 21 0 30 0;
#X connect 22 0 9 0;
#X connect 23 0 5 0;
#X connect 23 0 83 0;
#X connect 24 0 30 1;
#X connect 25 0 13 1;
#X connect 27 0 10 0;
#X connect 27 0 28 0;
#X connect 27 0 80 0;
#X connect 28 0 46 0;
#X connect 29 0 20 0;
#X connect 29 0 15 0;
#X connect 29 0 19 0;
#X connect 30 0 22 0;
#X connect 31 0 43 0;
#X connect 34 0 8 0;
#X connect 35 0 38 0;
#X connect 36 0 37 1;
#X connect 37 0 51 0;
#X connect 38 0 36 0;
#X connect 40 0 41 0;
#X connect 40 0 5 0;
#X connect 41 0 0 0;
#X connect 42 0 0 0;
#X connect 42 0 5 0;
#X connect 43 0 44 0;
#X connect 43 1 42 0;
#X connect 44 0 45 0;
#X connect 44 0 47 0;
#X connect 45 0 48 0;
#X connect 46 0 45 0;
#X connect 48 0 49 1;
#X connect 49 0 39 0;
#X connect 50 0 28 0;
#X connect 51 0 75 0;
#X connect 52 0 77 0;
#X connect 53 0 51 1;
#X connect 55 0 59 0;
#X connect 56 0 57 0;
#X connect 57 0 58 0;
#X connect 58 0 55 1;
#X connect 59 0 61 0;
#X connect 59 1 62 0;
#X connect 60 0 59 1;
#X connect 63 0 59 1;
#X connect 64 0 65 0;
#X connect 64 0 65 1;
#X connect 65 0 66 1;
#X connect 66 0 6 0;
#X connect 66 0 93 0;
#X connect 67 0 68 0;
#X connect 68 0 66 1;
#X connect 69 0 73 0;
#X connect 70 0 71 0;
#X connect 71 0 72 0;
#X connect 71 0 74 0;
#X connect 72 0 67 0;
#X connect 73 0 64 0;
#X connect 74 0 73 1;
#X connect 75 0 55 0;
#X connect 76 0 78 0;
#X connect 77 0 53 0;
#X connect 78 0 82 0;
#X connect 79 0 75 1;
#X connect 81 0 106 1;
#X connect 82 0 79 0;
#X connect 84 0 88 0;
#X connect 85 0 86 0;
#X connect 85 1 87 0;
#X connect 86 0 89 0;
#X connect 87 0 89 0;
#X connect 88 0 85 0;
#X connect 89 0 2 0;
#X connect 89 1 14 1;
#X connect 89 1 91 0;
#X connect 91 0 92 0;
#X connect 92 0 90 0;
#X connect 93 0 37 0;
#X connect 94 0 93 1;
#X connect 95 0 93 3;
#X connect 96 0 97 0;
#X connect 97 0 93 2;
#X connect 98 0 95 0;
#X connect 100 0 19 1;
#X connect 101 0 103 0;
#X connect 101 0 110 0;
#X connect 102 0 111 0;
#X connect 102 0 107 0;
#X connect 103 0 104 0;
#X connect 104 0 105 0;
#X connect 105 0 0 1;
#X connect 106 0 107 0;
#X connect 107 0 108 0;
#X connect 108 0 109 0;
#X connect 109 0 0 1;
#X connect 110 0 112 0;
#X connect 111 0 112 0;
#X connect 113 0 101 0;
#X connect 113 1 102 0;
#X connect 115 0 13 0;
#X connect 115 1 104 0;
#X connect 115 2 99 0;
#X connect 116 0 9 0;
#X connect 117 0 118 0;
#X connect 118 0 116 1;
#X connect 119 0 117 0;
