#N canvas 50 50 546 566 10;
#X obj 107 352 tgl 50 0 empty empty empty 17 7 0 100 -262144 -1 -1
1 1;
#X msg 155 263 0;
#X msg 107 263 1;
#X obj 107 411 sel 0 1;
#X msg 52 437 0, f 4;
#X obj 107 318 spigot;
#X msg 134 205 1;
#X msg 223 132 0, f 6;
#X text 102 27 stop;
#X floatatom 154 321 5 0 0 0 - - -;
#X obj 107 177 t b b;
#X text 191 370 play on off;
#X obj 128 103 t b b;
#X text 104 128 start;
#X obj 128 73 r stop;
#X obj 162 134 r start;
#X obj 44 73 r qend-\$1-\$2;
#X obj 223 156 s looped-\$1-\$2;
#X obj 154 300 r looped-\$1-\$2;
#X obj 25 227 r playstart-\$1-\$2;
#X obj 25 256 bng 15 250 50 0 empty empty empty 17 7 0 10 -262144 -1
-1;
#X obj 107 156 r qstart-\$1-\$2;
#X obj 52 459 s aux-led-\$1;
#X obj 180 437 bng 15 250 50 0 empty empty empty 17 7 0 10 -262144
-1 -1;
#X obj 180 457 s playerplay-\$1-\$2;
#X obj 236 227 inlet;
#X obj 134 227 s looped-\$1-\$2;
#X obj 93 488 s playerstop-\$1-\$2;
#X obj 277 122 bng 15 250 50 0 empty empty empty 17 7 0 10 -262144
-1 -1;
#X obj 223 91 r clear\$1-\$2;
#X connect 0 0 3 0;
#X connect 1 0 5 0;
#X connect 2 0 5 0;
#X connect 3 0 4 0;
#X connect 3 1 23 0;
#X connect 4 0 22 0;
#X connect 4 0 27 0;
#X connect 5 0 0 0;
#X connect 6 0 26 0;
#X connect 7 0 17 0;
#X connect 7 0 0 0;
#X connect 10 0 2 0;
#X connect 10 1 6 0;
#X connect 12 0 7 0;
#X connect 12 1 1 0;
#X connect 14 0 12 0;
#X connect 15 0 10 0;
#X connect 16 0 12 0;
#X connect 18 0 5 1;
#X connect 18 0 9 0;
#X connect 19 0 2 0;
#X connect 19 0 20 0;
#X connect 21 0 10 0;
#X connect 23 0 24 0;
#X connect 25 0 1 0;
#X connect 29 0 7 0;
#X connect 29 0 28 0;
