#N canvas 4 50 399 323 10;
#X obj 50 24 r quarters;
#X obj 54 75 bng 15 250 50 0 empty empty empty 17 7 0 10 -262144 -1
-1;
#X obj 54 95 f;
#X obj 93 99 + 1;
#X floatatom 54 116 5 0 0 0 - - -;
#X msg 151 60 0;
#X obj 54 136 % 16;
#X floatatom 54 157 5 0 0 0 - - -;
#X obj 54 177 sel 15;
#X obj 54 220 bng 15 250 50 0 empty empty empty 17 7 0 10 -262144 -1
-1;
#X obj 151 29 inlet;
#X obj 243 30 inlet;
#X obj 313 28 inlet;
#X msg 243 51 1;
#X msg 313 49 0;
#X obj 191 141 r \$1_length-\$2;
#X floatatom 208 205 5 0 0 0 - - -;
#X obj 208 225 - 1;
#X floatatom 208 246 5 0 0 0 - - -;
#X obj 54 240 outlet;
#X obj 50 45 spigot;
#X obj 103 138 r \$1_trig-\$2;
#X obj 54 198 spigot;
#X connect 0 0 20 0;
#X connect 1 0 2 0;
#X connect 2 0 3 0;
#X connect 2 0 4 0;
#X connect 3 0 2 1;
#X connect 4 0 6 0;
#X connect 5 0 2 0;
#X connect 6 0 7 0;
#X connect 7 0 8 0;
#X connect 8 0 22 0;
#X connect 9 0 19 0;
#X connect 10 0 5 0;
#X connect 11 0 13 0;
#X connect 12 0 14 0;
#X connect 13 0 20 1;
#X connect 14 0 20 1;
#X connect 15 0 16 0;
#X connect 16 0 6 1;
#X connect 16 0 17 0;
#X connect 17 0 18 0;
#X connect 18 0 8 1;
#X connect 20 0 1 0;
#X connect 21 0 22 1;
#X connect 22 0 9 0;
