#N canvas 1011 138 905 814 10;
#X obj 241 96 tgl 50 0 empty empty empty 17 7 0 100 -262144 -1 -1 0
1;
#X obj 241 181 sel 1 0;
#X obj 258 572 sel 1;
#X msg 472 322 stop;
#X obj 297 394 *~;
#X msg 189 60 1;
#X obj 258 507 tgl 50 0 empty empty empty 17 7 0 10 -262144 -1 -1 0
1;
#X msg 258 257 1, f 4;
#X msg 453 444 0;
#X obj 324 375 line~;
#X obj 196 259 t b b;
#X obj 297 420 clip~ -1 1;
#X obj 196 332 delay 4;
#X obj 297 466 tabwrite~;
#X msg 241 73 0;
#X obj 479 193 t b b b;
#X msg 97 261 1;
#X text 338 519 rec on off;
#X text 295 63 recorder circuit;
#X msg 147 165 0;
#N canvas 975 126 596 410 undo 0;
#X obj 236 348 arraycopy;
#X obj 152 226 symbol;
#X obj 23 63 inlet;
#X text 84 50 saving current array to undo;
#X text 291 40 bringing previous array back to undo;
#X obj 23 120 t b b b b;
#X msg 152 205 \$1-undo-\$2;
#X obj 152 163 symbol \$1;
#X obj 23 91 bng 15 250 50 0 empty empty empty 17 7 0 10 -262144 -1
-1;
#X msg 49 215 copy \$1-\$2;
#X obj 23 163 symbol \$1;
#X obj 199 99 symbol \$2;
#X obj 152 185 pack s s;
#X obj 86 163 symbol \$2;
#X obj 23 184 pack s s;
#X obj 302 85 r undo-\$1-\$2;
#X obj 429 209 symbol;
#X obj 302 145 t b b b b;
#X obj 429 146 symbol \$1;
#X obj 302 116 bng 15 250 50 0 empty empty empty 17 7 0 10 -262144
-1 -1;
#X obj 302 188 symbol \$1;
#X obj 475 117 symbol \$2;
#X obj 429 168 pack s s;
#X obj 365 188 symbol \$2;
#X obj 302 209 pack s s;
#X msg 302 236 copy \$1-undo-\$2;
#X msg 429 188 \$1-\$2;
#X connect 1 0 0 1;
#X connect 2 0 8 0;
#X connect 5 0 10 0;
#X connect 5 1 13 0;
#X connect 5 2 7 0;
#X connect 5 3 11 0;
#X connect 6 0 1 0;
#X connect 7 0 12 0;
#X connect 8 0 5 0;
#X connect 9 0 0 0;
#X connect 10 0 14 0;
#X connect 11 0 12 1;
#X connect 12 0 6 0;
#X connect 13 0 14 1;
#X connect 14 0 9 0;
#X connect 15 0 19 0;
#X connect 16 0 0 1;
#X connect 17 0 20 0;
#X connect 17 1 23 0;
#X connect 17 2 18 0;
#X connect 17 3 21 0;
#X connect 18 0 22 0;
#X connect 19 0 17 0;
#X connect 20 0 24 0;
#X connect 21 0 22 1;
#X connect 22 0 26 0;
#X connect 23 0 24 1;
#X connect 24 0 25 0;
#X connect 25 0 0 0;
#X connect 26 0 16 0;
#X restore 318 161 pd undo;
#X obj 241 206 t b b b b b;
#X msg 391 43 0;
#X obj 166 14 r rec-\$1-\$2;
#X obj 297 279 r~ recorderin-\$2;
#X obj 389 147 t b b;
#X obj 351 211 symbol \$1;
#X msg 368 372 set \$1-\$2;
#X obj 67 120 r clear\$1-\$2;
#X obj 241 0 r rec-off-\$1-\$2;
#X obj 258 593 t b b;
#X obj 249 630 symbol \$1;
#X msg 232 659 \$1 Recording;
#X obj 364 674 s aux-led-\$2;
#X obj 233 684 s aux-label-\$2;
#X symbolatom 336 654 10 0 0 0 - - -;
#X obj 114 209 s rec-state-\$1-\$2;
#X msg 406 623 0;
#X obj 489 355 bng 15 250 50 0 empty empty empty 17 7 0 10 -262144
-1 -1;
#X obj 491 387 s playstart-\$1-\$2;
#X obj 97 282 s looped-\$1-\$2;
#X obj 417 212 symbol \$2;
#X obj 372 236 pack s s;
#X obj 391 22 r undo-\$1-\$2;
#X obj 391 125 inlet;
#X obj 335 310 r~ recycle-\$1-\$2;
#X obj 241 43 spigot;
#X msg 223 294 1 4;
#X msg 530 248 0 1;
#X obj 495 278 delay 1;
#X obj 274 234 s reset-\$1-\$2;
#X obj 166 35 t b b;
#X msg 157 62 1;
#X obj 376 570 f \$3;
#X floatatom 376 591 5 0 0 0 - - -;
#X msg 376 611 \$1;
#X obj 598 70 ==;
#X obj 597 90 tgl 15 0 empty empty empty 17 7 0 10 -262144 -1 -1 1
1;
#X obj 597 110 s recordingstate-\$1-\$2;
#X obj 664 22 r loadbang-\$2;
#X msg 664 43 1;
#X msg 759 68 0;
#X obj 759 89 s undone-\$1-\$2;
#X obj 601 143 change;
#X obj 601 164 sel 0;
#X msg 601 185 0;
#X obj 601 206 s undone-\$1-\$2;
#N canvas 520 648 676 300 redo 0;
#X obj 45 24 r undo-\$1-\$2;
#X obj 45 45 t b b b b;
#X obj 47 86 symbol \$1;
#X obj 47 107 pack s s;
#X obj 109 86 symbol \$2;
#X msg 47 128 copy \$1-\$2;
#X obj 171 85 symbol \$1;
#X obj 171 106 pack s s;
#X obj 233 85 symbol \$2;
#X msg 171 126 \$1-redo-\$2;
#X obj 171 147 symbol;
#X obj 193 220 arraycopy;
#X obj 307 49 t b b b b;
#X obj 309 90 symbol \$1;
#X obj 309 111 pack s s;
#X obj 371 90 symbol \$2;
#X obj 433 89 symbol \$1;
#X obj 433 110 pack s s;
#X obj 498 90 symbol \$2;
#X obj 433 151 symbol;
#X msg 309 132 copy \$1-redo-\$2;
#X msg 433 130 \$1-\$2;
#X obj 307 28 r redo-\$1-\$2;
#X connect 0 0 1 0;
#X connect 1 0 2 0;
#X connect 1 1 4 0;
#X connect 1 2 6 0;
#X connect 1 3 8 0;
#X connect 2 0 3 0;
#X connect 3 0 5 0;
#X connect 4 0 3 1;
#X connect 5 0 11 0;
#X connect 6 0 7 0;
#X connect 7 0 9 0;
#X connect 8 0 7 1;
#X connect 9 0 10 0;
#X connect 10 0 11 1;
#X connect 12 0 13 0;
#X connect 12 1 15 0;
#X connect 12 2 16 0;
#X connect 12 3 18 0;
#X connect 13 0 14 0;
#X connect 14 0 20 0;
#X connect 15 0 14 1;
#X connect 16 0 17 0;
#X connect 17 0 21 0;
#X connect 18 0 17 1;
#X connect 19 0 11 1;
#X connect 20 0 11 0;
#X connect 21 0 19 0;
#X connect 22 0 12 0;
#X restore 40 597 pd redo;
#X obj 488 24 r redo-\$1-\$2;
#X msg 488 45 0;
#X obj 81 306 r \$1-offset-\$2;
#X msg 196 419 start \$1;
#X obj 81 349 spigot;
#X floatatom 196 398 5 0 0 0 - - -;
#X obj 196 362 bng 15 250 50 0 empty empty empty 17 7 0 10 -262144
-1 -1;
#X floatatom 81 327 5 0 0 0 - - -;
#X connect 0 0 36 0;
#X connect 0 0 1 0;
#X connect 0 0 56 0;
#X connect 0 0 63 0;
#X connect 1 0 21 0;
#X connect 1 1 15 0;
#X connect 2 0 30 0;
#X connect 2 1 37 0;
#X connect 3 0 13 0;
#X connect 3 0 38 0;
#X connect 4 0 11 0;
#X connect 5 0 46 1;
#X connect 6 0 2 0;
#X connect 7 0 6 0;
#X connect 7 0 72 1;
#X connect 8 0 6 0;
#X connect 8 0 72 1;
#X connect 9 0 4 1;
#X connect 10 0 12 0;
#X connect 10 1 47 0;
#X connect 11 0 13 0;
#X connect 12 0 74 0;
#X connect 14 0 0 0;
#X connect 15 0 8 0;
#X connect 15 1 49 0;
#X connect 15 2 48 0;
#X connect 16 0 40 0;
#X connect 19 0 6 0;
#X connect 19 0 46 1;
#X connect 21 0 16 0;
#X connect 21 1 10 0;
#X connect 21 2 7 0;
#X connect 21 3 50 0;
#X connect 21 4 20 0;
#X connect 22 0 0 0;
#X connect 23 0 51 0;
#X connect 24 0 4 0;
#X connect 25 0 26 0;
#X connect 25 1 41 0;
#X connect 26 0 42 0;
#X connect 27 0 13 0;
#X connect 28 0 19 0;
#X connect 29 0 46 0;
#X connect 30 1 31 0;
#X connect 30 1 53 0;
#X connect 31 0 32 0;
#X connect 31 0 35 0;
#X connect 32 0 34 0;
#X connect 37 0 33 0;
#X connect 38 0 39 0;
#X connect 41 0 42 1;
#X connect 42 0 27 0;
#X connect 43 0 22 0;
#X connect 44 0 25 0;
#X connect 45 0 4 0;
#X connect 46 0 14 0;
#X connect 47 0 9 0;
#X connect 48 0 9 0;
#X connect 49 0 3 0;
#X connect 51 0 52 0;
#X connect 51 1 5 0;
#X connect 52 0 0 0;
#X connect 53 0 54 0;
#X connect 54 0 55 0;
#X connect 55 0 33 0;
#X connect 56 0 57 0;
#X connect 57 0 58 0;
#X connect 59 0 60 0;
#X connect 59 0 61 0;
#X connect 60 0 57 0;
#X connect 61 0 62 0;
#X connect 63 0 64 0;
#X connect 64 0 65 0;
#X connect 65 0 66 0;
#X connect 68 0 69 0;
#X connect 69 0 0 0;
#X connect 70 0 75 0;
#X connect 70 0 72 0;
#X connect 71 0 13 0;
#X connect 72 0 73 0;
#X connect 73 0 71 0;
#X connect 74 0 75 0;
#X connect 75 0 72 0;
