#N canvas 330 485 687 428 10;
#X obj 149 360 sel 1 0;
#X obj 33 84 tgl 15 0 empty empty empty 17 7 0 10 -262144 -1 -1 0 1
;
#X obj 138 83 tgl 15 0 empty empty empty 17 7 0 10 -262144 -1 -1 0
1;
#X obj 234 83 tgl 15 0 empty empty empty 17 7 0 10 -262144 -1 -1 0
1;
#X obj 336 83 tgl 15 0 empty empty empty 17 7 0 10 -262144 -1 -1 0
1;
#X obj 428 82 tgl 15 0 empty empty empty 17 7 0 10 -262144 -1 -1 0
1;
#X obj 35 127 sel 1 0;
#X obj 140 126 sel 1 0;
#X msg 178 147 -1;
#X msg 140 147 1;
#X msg 35 148 1;
#X msg 69 148 -1;
#X obj 193 233 +;
#X obj 221 234 i;
#X floatatom 193 254 5 0 0 0 - - -;
#X obj 224 126 sel 1 0;
#X obj 324 126 sel 1 0;
#X msg 362 147 -1;
#X msg 324 147 1;
#X msg 224 147 1;
#X msg 258 147 -1;
#X obj 428 126 sel 1 0;
#X msg 466 147 -1;
#X msg 428 147 1;
#X obj 193 274 != 0;
#X obj 193 295 change;
#X obj 193 321 tgl 15 0 empty empty empty 17 7 0 10 -262144 -1 -1 1
1;
#X obj 222 323 bng 15 250 50 0 empty empty empty 17 7 0 10 -262144
-1 -1;
#X text 251 253 retrigger snapshot point activation;
#X obj 516 83 tgl 15 0 empty empty empty 17 7 0 10 -262144 -1 -1 0
1;
#X obj 516 127 sel 1 0;
#X msg 554 148 -1;
#X msg 516 148 1;
#X obj 101 427 outlet;
#X obj 180 425 outlet;
#X obj 32 51 r rep24-\$1-\$2;
#X obj 131 50 r repsix-\$1-\$2;
#X obj 234 50 r reptri-\$1-\$2;
#X obj 334 53 r repe-\$1-\$2;
#X obj 425 53 r repq-\$1-\$2;
#X obj 513 54 r repw-\$1-\$2;
#X obj 546 212 r \$1-repon-\$2;
#X obj 194 209 spigot;
#X obj 33 104 change;
#X obj 138 103 change;
#X obj 234 103 change;
#X obj 336 103 change;
#X obj 428 102 change;
#X obj 516 103 change;
#X connect 0 0 33 0;
#X connect 0 1 34 0;
#X connect 1 0 43 0;
#X connect 2 0 44 0;
#X connect 3 0 45 0;
#X connect 4 0 46 0;
#X connect 5 0 47 0;
#X connect 6 0 10 0;
#X connect 6 1 11 0;
#X connect 7 0 9 0;
#X connect 7 1 8 0;
#X connect 8 0 42 0;
#X connect 9 0 42 0;
#X connect 10 0 42 0;
#X connect 11 0 42 0;
#X connect 12 0 13 0;
#X connect 12 0 14 0;
#X connect 13 0 12 1;
#X connect 14 0 24 0;
#X connect 15 0 19 0;
#X connect 15 1 20 0;
#X connect 16 0 18 0;
#X connect 16 1 17 0;
#X connect 17 0 42 0;
#X connect 18 0 42 0;
#X connect 19 0 42 0;
#X connect 20 0 42 0;
#X connect 21 0 23 0;
#X connect 21 1 22 0;
#X connect 22 0 42 0;
#X connect 23 0 42 0;
#X connect 24 0 25 0;
#X connect 25 0 26 0;
#X connect 25 0 27 0;
#X connect 26 0 0 0;
#X connect 29 0 48 0;
#X connect 30 0 32 0;
#X connect 30 1 31 0;
#X connect 31 0 42 0;
#X connect 32 0 42 0;
#X connect 35 0 1 0;
#X connect 36 0 2 0;
#X connect 37 0 3 0;
#X connect 38 0 4 0;
#X connect 39 0 5 0;
#X connect 40 0 29 0;
#X connect 41 0 42 1;
#X connect 42 0 12 0;
#X connect 43 0 6 0;
#X connect 44 0 7 0;
#X connect 45 0 15 0;
#X connect 46 0 16 0;
#X connect 47 0 21 0;
#X connect 48 0 30 0;
