#N canvas 4 50 450 300 10;
#X obj 10 252 spigot;
#X text 62 265 retrigger;
#X obj 10 332 outlet;
#X obj 62 332 outlet;
#X obj 114 332 outlet;
#X obj 10 298 t b b b;
#X obj 43 230 r looped-\$1-\$2;
#X obj 10 27 r repws-\$1-\$2;
#X obj 98 27 r repes-\$1-\$2;
#X obj 22 56 r repqs-\$1-\$2;
#X obj 110 56 r reptris-\$1-\$2;
#X obj 31 86 r rep24s-\$1-\$2;
#X obj 126 86 r repsixs-\$1-\$2;
#X connect 0 0 5 0;
#X connect 5 0 2 0;
#X connect 5 1 3 0;
#X connect 5 2 4 0;
#X connect 6 0 0 1;
#X connect 7 0 0 0;
#X connect 8 0 0 0;
#X connect 9 0 0 0;
#X connect 10 0 0 0;
#X connect 11 0 0 0;
#X connect 12 0 0 0;
