#N canvas 4 50 413 488 10;
#X floatatom 119 66 5 0 0 0 - - -;
#X obj 119 122 / 100;
#X obj 119 160 t f f;
#X obj 143 182 i;
#X obj 120 202 -;
#X obj 120 224 / 0.25;
#X obj 120 246 i;
#X obj 120 268 * 0.25;
#X obj 120 290 +;
#X floatatom 121 363 5 0 0 0 - - -;
#X obj 119 141 + 0.125;
#X obj 199 140 clip -1 1;
#X obj 120 312 *;
#X obj 119 84 t f f;
#X obj 119 103 abs;
#X text 151 83 speed;
#X obj 205 66 f 100;
#X obj 205 35 r loadbang-\$2;
#X obj 115 37 r \$1_speed-\$2;
#X obj 44 268 inlet;
#X obj 121 415 t b f;
#X obj 155 439 outlet;
#X obj 112 445 outlet;
#X obj 289 114 r speedinc-\$2;
#X floatatom 289 135 5 0 0 0 - - -;
#X obj 289 155 i;
#X floatatom 289 176 5 0 0 0 - - -;
#X obj 289 196 / 100;
#X obj 289 217 / 2;
#X obj 44 289 t b f;
#X obj 120 333 *;
#X connect 0 0 13 0;
#X connect 1 0 10 0;
#X connect 2 0 4 0;
#X connect 2 1 3 0;
#X connect 3 0 4 1;
#X connect 3 0 8 1;
#X connect 4 0 5 0;
#X connect 5 0 6 0;
#X connect 6 0 7 0;
#X connect 7 0 8 0;
#X connect 8 0 12 0;
#X connect 9 0 20 0;
#X connect 10 0 2 0;
#X connect 11 0 12 1;
#X connect 12 0 30 0;
#X connect 13 0 14 0;
#X connect 13 1 11 0;
#X connect 14 0 1 0;
#X connect 16 0 0 0;
#X connect 17 0 16 0;
#X connect 18 0 0 0;
#X connect 19 0 29 0;
#X connect 20 0 22 0;
#X connect 20 1 21 0;
#X connect 23 0 24 0;
#X connect 24 0 25 0;
#X connect 25 0 26 0;
#X connect 26 0 27 0;
#X connect 27 0 28 0;
#X connect 27 0 5 1;
#X connect 27 0 7 1;
#X connect 28 0 10 1;
#X connect 29 0 0 0;
#X connect 29 1 30 1;
#X connect 30 0 9 0;
