#N canvas 0 50 1920 998 10;
#X obj 129 457 i;
#X msg 376 554 /oled/gFlip 3;
#X obj 670 546 f;
#X obj 117 339 f;
#X obj 117 321 t b f;
#X obj 129 367 +;
#X obj 449 457 i;
#X obj 548 548 f;
#X obj 437 339 f;
#X obj 437 321 t b f;
#X obj 449 367 +;
#X obj 449 385 / 100;
#X obj 239 467 i;
#X obj 606 547 f;
#X obj 227 349 f;
#X obj 227 321 t b f;
#X obj 239 377 +;
#X obj 239 395 / 100;
#X obj 239 413 * 128;
#X obj 239 431 min 128;
#X obj 449 421 min 128;
#X obj 449 403 * 128;
#X obj 129 385 / 100;
#X obj 129 403 * 128;
#X obj 129 421 min 128;
#X obj 129 439 max 1;
#X obj 239 449 max 1;
#X obj 449 439 max 1;
#X obj 476 278 t b f;
#X obj 218 500 sel 0;
#X obj 117 257 spigot 0;
#X obj 227 257 spigot 0;
#X obj 437 257 spigot 0;
#X obj 222 871 s oscOut;
#X msg 218 518 /oled/gFillArea 3 0 50 128 14 0;
#X obj 341 71 sel 1;
#X msg 341 151 1;
#X msg 368 151 0;
#X msg 373 89 stop;
#X obj 340 468 i;
#X obj 328 350 f;
#X obj 328 322 t b f;
#X obj 340 378 +;
#X obj 340 396 / 100;
#X obj 340 414 * 128;
#X obj 340 432 min 128;
#X obj 340 450 max 1;
#X obj 328 258 spigot 0;
#X obj 487 552 f;
#X obj 514 67 t b b b b b b b b b b, f 65;
#X msg 670 591 /oled/gInvertArea 3 0 10 \$1 11;
#X msg 606 679 /oled/gInvertArea 3 0 23 \$1 11;
#X msg 548 751 /oled/gInvertArea 3 0 36 \$1 11;
#X msg 487 813 /oled/gInvertArea 3 0 49 \$1 11;
#X msg 901 526 /oled/gFillArea 3 0 8 132 54 0;
#X obj 34 33 inlet;
#X obj 117 230 inlet;
#X obj 227 230 inlet;
#X obj 328 230 inlet;
#X obj 437 230 inlet;
#X floatatom 117 279 5 0 0 0 - - -;
#X obj 117 299 * 100;
#X floatatom 227 278 5 0 0 0 - - -;
#X floatatom 328 279 5 0 0 0 - - -;
#X obj 328 299 * 100;
#X obj 227 298 * 100;
#X floatatom 437 278 5 0 0 0 - - -;
#X obj 437 298 * 100;
#X obj 960 236 i;
#X obj 1017 218 int;
#X obj 998 339 i;
#X obj 1055 320 int;
#X obj 1037 442 i;
#X obj 1094 423 int;
#X msg 1017 236 /oled/gPrintln 3 3 25 8 1 B = \$1%;
#X msg 1055 338 /oled/gPrintln 3 3 38 8 1 C = \$1%;
#X msg 1096 442 /oled/gPrintln 3 3 51 8 1 D = \$1%;
#X obj 927 119 i;
#X obj 980 111 int;
#X msg 980 129 /oled/gPrintln 3 3 12 8 1 A = \$1%;
#X floatatom 927 140 5 0 0 0 - - -;
#X obj 995 90 inlet;
#X obj 1032 197 inlet;
#X obj 1070 297 inlet;
#X obj 1109 400 inlet;
#X obj 341 107 delay 50;
#X floatatom 50 399 5 0 0 0 - - -;
#X floatatom 192 398 5 0 0 0 - - -;
#X floatatom 297 399 5 0 0 0 - - -;
#X floatatom 400 399 5 0 0 0 - - -;
#X msg 1037 463 /oled/gPrintln 3 110 51 8 1 \$1;
#X msg 998 359 /oled/gPrintln 3 110 38 8 1 \$1;
#X msg 960 256 /oled/gPrintln 3 110 25 8 1 \$1;
#X msg 972 155 /oled/gPrintln 3 110 12 8 1 \$1;
#X obj 503 297 * 100;
#X obj 1159 79 tgl 15 0 empty empty empty 17 7 0 10 -262144 -1 -1 0
1;
#X obj 1156 50 r mute-A-\$1;
#X obj 944 89 spigot;
#X obj 979 198 spigot;
#X obj 1180 193 tgl 15 0 empty empty empty 17 7 0 10 -262144 -1 -1
1 1;
#X obj 1238 300 tgl 15 0 empty empty empty 17 7 0 10 -262144 -1 -1
1 1;
#X obj 1271 405 tgl 15 0 empty empty empty 17 7 0 10 -262144 -1 -1
1 1;
#X obj 1268 376 r mute-D-\$1;
#X obj 1235 271 r mute-C-\$1;
#X obj 1177 164 r mute-B-\$1;
#X obj 1016 296 spigot;
#X obj 1057 399 spigot;
#X obj 1320 66 inlet~;
#X obj 1320 87 env~ 4410 2205;
#X obj 1320 108 spigot 0;
#X obj 1320 129 / 10;
#X obj 1320 150 *;
#X obj 1320 171 t b f;
#X obj 1320 192 f;
#X obj 1332 213 +;
#X obj 1332 234 / 100;
#X obj 1332 255 * 128;
#X obj 1332 276 min 128;
#X obj 1332 297 max 1;
#X obj 1332 318 i;
#X obj 1419 67 inlet~;
#X obj 1419 88 env~ 4410 2205;
#X obj 1419 109 spigot 0;
#X obj 1419 130 / 10;
#X obj 1419 151 *;
#X obj 1419 172 t b f;
#X obj 1419 193 f;
#X obj 1431 214 +;
#X obj 1431 235 / 100;
#X obj 1431 256 * 128;
#X obj 1431 277 min 128;
#X obj 1431 298 max 1;
#X obj 1431 319 i;
#X obj 1515 66 inlet~;
#X obj 1515 87 env~ 4410 2205;
#X obj 1515 108 spigot 0;
#X obj 1515 129 / 10;
#X obj 1515 150 *;
#X obj 1515 171 t b f;
#X obj 1515 192 f;
#X obj 1527 213 +;
#X obj 1527 234 / 100;
#X obj 1527 255 * 128;
#X obj 1527 276 min 128;
#X obj 1527 297 max 1;
#X obj 1527 318 i;
#X obj 1614 67 inlet~;
#X obj 1614 88 env~ 4410 2205;
#X obj 1614 109 spigot 0;
#X obj 1614 130 / 10;
#X obj 1614 151 *;
#X obj 1614 172 t b f;
#X obj 1614 193 f;
#X obj 1626 214 +;
#X obj 1626 235 / 100;
#X obj 1626 256 * 128;
#X obj 1626 277 min 128;
#X obj 1626 298 max 1;
#X obj 1626 319 i;
#X obj 417 181 s state-on-\$1;
#X obj 1481 1 r state-on-\$1;
#X floatatom 1263 114 5 0 0 0 - - -;
#X obj 1655 132 t b f;
#X obj 1481 32 tgl 15 0 empty empty empty 17 7 0 10 -262144 -1 -1 1
1;
#X connect 1 0 33 0;
#X connect 2 0 50 0;
#X connect 3 0 5 0;
#X connect 4 0 3 0;
#X connect 4 1 5 1;
#X connect 5 0 22 0;
#X connect 7 0 52 0;
#X connect 8 0 10 0;
#X connect 9 0 8 0;
#X connect 9 1 10 1;
#X connect 10 0 11 0;
#X connect 11 0 21 0;
#X connect 11 0 89 0;
#X connect 13 0 51 0;
#X connect 14 0 16 0;
#X connect 15 0 14 0;
#X connect 15 1 16 1;
#X connect 16 0 17 0;
#X connect 17 0 18 0;
#X connect 17 0 87 0;
#X connect 18 0 19 0;
#X connect 19 0 26 0;
#X connect 20 0 27 0;
#X connect 21 0 20 0;
#X connect 22 0 23 0;
#X connect 22 0 86 0;
#X connect 23 0 24 0;
#X connect 24 0 25 0;
#X connect 25 0 0 0;
#X connect 26 0 12 0;
#X connect 27 0 6 0;
#X connect 28 0 49 0;
#X connect 28 1 94 0;
#X connect 29 0 34 0;
#X connect 30 0 60 0;
#X connect 31 0 62 0;
#X connect 32 0 28 0;
#X connect 32 0 66 0;
#X connect 34 0 33 0;
#X connect 35 0 85 0;
#X connect 35 1 37 0;
#X connect 35 1 38 0;
#X connect 36 0 30 1;
#X connect 36 0 32 1;
#X connect 36 0 31 1;
#X connect 36 0 47 1;
#X connect 36 0 159 0;
#X connect 37 0 31 1;
#X connect 37 0 32 1;
#X connect 37 0 30 1;
#X connect 37 0 47 1;
#X connect 37 0 159 0;
#X connect 38 0 85 0;
#X connect 40 0 42 0;
#X connect 41 0 40 0;
#X connect 41 1 42 1;
#X connect 42 0 43 0;
#X connect 43 0 44 0;
#X connect 43 0 88 0;
#X connect 44 0 45 0;
#X connect 45 0 46 0;
#X connect 46 0 39 0;
#X connect 47 0 63 0;
#X connect 48 0 53 0;
#X connect 49 0 1 0;
#X connect 49 1 48 0;
#X connect 49 2 7 0;
#X connect 49 3 13 0;
#X connect 49 4 2 0;
#X connect 49 5 72 0;
#X connect 49 5 106 0;
#X connect 49 6 70 0;
#X connect 49 6 105 0;
#X connect 49 7 68 0;
#X connect 49 7 98 0;
#X connect 49 8 77 0;
#X connect 49 8 97 0;
#X connect 49 9 54 0;
#X connect 50 0 33 0;
#X connect 51 0 33 0;
#X connect 52 0 33 0;
#X connect 53 0 33 0;
#X connect 54 0 33 0;
#X connect 55 0 35 0;
#X connect 55 0 29 0;
#X connect 56 0 30 0;
#X connect 57 0 31 0;
#X connect 58 0 47 0;
#X connect 59 0 32 0;
#X connect 60 0 61 0;
#X connect 61 0 4 0;
#X connect 61 0 77 1;
#X connect 62 0 65 0;
#X connect 63 0 64 0;
#X connect 64 0 41 0;
#X connect 64 0 70 1;
#X connect 65 0 15 0;
#X connect 65 0 68 1;
#X connect 66 0 67 0;
#X connect 67 0 9 0;
#X connect 68 0 92 0;
#X connect 69 0 74 0;
#X connect 70 0 91 0;
#X connect 71 0 75 0;
#X connect 72 0 90 0;
#X connect 73 0 76 0;
#X connect 74 0 33 0;
#X connect 75 0 33 0;
#X connect 76 0 33 0;
#X connect 77 0 93 0;
#X connect 77 0 80 0;
#X connect 78 0 79 0;
#X connect 79 0 33 0;
#X connect 81 0 78 1;
#X connect 82 0 69 1;
#X connect 83 0 71 1;
#X connect 84 0 73 1;
#X connect 85 0 36 0;
#X connect 90 0 33 0;
#X connect 91 0 33 0;
#X connect 92 0 33 0;
#X connect 93 0 33 0;
#X connect 94 0 72 1;
#X connect 95 0 97 1;
#X connect 96 0 95 0;
#X connect 97 0 78 0;
#X connect 98 0 69 0;
#X connect 99 0 98 1;
#X connect 100 0 105 1;
#X connect 101 0 106 1;
#X connect 102 0 101 0;
#X connect 103 0 100 0;
#X connect 104 0 99 0;
#X connect 105 0 71 0;
#X connect 106 0 73 0;
#X connect 107 0 108 0;
#X connect 108 0 109 0;
#X connect 108 0 161 0;
#X connect 109 0 110 0;
#X connect 110 0 111 0;
#X connect 110 0 111 1;
#X connect 111 0 112 0;
#X connect 112 0 113 0;
#X connect 112 1 114 1;
#X connect 113 0 114 0;
#X connect 114 0 115 0;
#X connect 115 0 116 0;
#X connect 116 0 117 0;
#X connect 117 0 118 0;
#X connect 118 0 119 0;
#X connect 119 0 2 1;
#X connect 120 0 121 0;
#X connect 121 0 122 0;
#X connect 122 0 123 0;
#X connect 123 0 124 0;
#X connect 123 0 124 1;
#X connect 124 0 125 0;
#X connect 125 0 126 0;
#X connect 125 1 127 1;
#X connect 126 0 127 0;
#X connect 127 0 128 0;
#X connect 128 0 129 0;
#X connect 129 0 130 0;
#X connect 130 0 131 0;
#X connect 131 0 132 0;
#X connect 132 0 13 1;
#X connect 133 0 134 0;
#X connect 134 0 135 0;
#X connect 135 0 136 0;
#X connect 136 0 137 0;
#X connect 136 0 137 1;
#X connect 137 0 138 0;
#X connect 138 0 139 0;
#X connect 138 1 140 1;
#X connect 139 0 140 0;
#X connect 140 0 141 0;
#X connect 141 0 142 0;
#X connect 142 0 143 0;
#X connect 143 0 144 0;
#X connect 144 0 145 0;
#X connect 145 0 7 1;
#X connect 146 0 147 0;
#X connect 147 0 148 0;
#X connect 148 0 149 0;
#X connect 148 0 162 0;
#X connect 149 0 150 0;
#X connect 149 0 150 1;
#X connect 150 0 151 0;
#X connect 151 0 152 0;
#X connect 151 1 153 1;
#X connect 152 0 153 0;
#X connect 153 0 154 0;
#X connect 154 0 155 0;
#X connect 155 0 156 0;
#X connect 156 0 157 0;
#X connect 157 0 158 0;
#X connect 158 0 48 1;
#X connect 160 0 163 0;
#X connect 163 0 109 1;
#X connect 163 0 122 1;
#X connect 163 0 135 1;
#X connect 163 0 148 1;
