#N canvas 203 134 949 697 10;
#X obj 80 128 spigot 0;
#X obj 80 100 == 4;
#X obj 80 57 spigot;
#X obj 80 78 change;
#X obj 80 149 t b b;
#X msg 30 176 0;
#X text 69 238 stop arming;
#X obj 50 16 inlet;
#X obj 30 203 s qeo-\$1-\$2;
#X obj 107 203 s qend-\$1-\$2;
#X obj 188 20 inlet;
#X obj 113 32 r qe-\$1-\$2;
#X connect 0 0 4 0;
#X connect 1 0 0 0;
#X connect 1 0 0 1;
#X connect 2 0 3 0;
#X connect 3 0 1 0;
#X connect 4 0 5 0;
#X connect 4 1 9 0;
#X connect 5 0 8 0;
#X connect 7 0 2 0;
#X connect 10 0 1 1;
#X connect 11 0 2 1;
