#N canvas 580 413 1278 698 10;
#X obj 19 180 /;
#X obj 19 203 nbx 5 14 -1e+37 1e+37 0 0 empty empty empty 0 -8 0 10
-262144 -1 -1 0.111111 256;
#X obj 19 224 * 1000;
#X obj 19 250 nbx 5 14 -1e+37 1e+37 0 0 empty empty empty 0 -8 0 10
-262144 -1 -1 111.111 256;
#X floatatom 88 143 5 0 0 0 - - -;
#X obj 126 105 hsl 128 15 0 5000 0 0 empty empty empty -2 -8 0 10 -262144
-1 -1 0 1;
#X obj 89 226 / 1;
#X obj 89 250 int;
#X obj 89 310 * 1;
#X obj 89 338 nbx 5 14 -1e+37 1e+37 0 0 empty empty empty 0 -8 0 10
-262144 -1 -1 0 256;
#X obj 89 275 max 1;
#X obj 178 228 spigot 1;
#X obj 89 202 spigot 0;
#X obj 209 187 == 0;
#X obj 153 310 nbx 5 14 -1e+37 1e+37 0 0 empty empty empty 0 -8 0 10
-262144 -1 -1 0 256;
#X obj 153 410 s aux-label-\$1;
#X obj 88 410 s len-\$1;
#X msg 153 334 1/4 notes: \$1;
#X obj 106 80 / 1;
#X obj 106 55 nbx 5 14 -1e+37 1e+37 0 0 empty empty empty 0 -8 0 10
-262144 -1 -1 0 256;
#X obj 89 359 / 1;
#X obj 89 382 nbx 5 14 -1e+37 1e+37 0 0 empty empty empty 0 -8 0 10
-262144 -1 -1 0 256;
#X obj 153 155 t b f;
#X msg 19 157 15;
#X obj 106 29 r ol_delay-\$1;
#X obj 19 111 t b a;
#X obj 19 134 t b a;
#X text 195 63 tempo sync;
#X obj 26 42 inlet;
#X obj 151 129 inlet;
#X obj 19 86 r loopy-bpm;
#X obj 153 359 spigot;
#X obj 292 137 r activePage;
#X obj 292 158 unpack s s, f 13;
#X obj 292 179 sel \$1;
#X msg 292 200 1;
#X msg 325 200 0;
#X msg 367 200 1;
#X msg 430 200 0;
#X obj 349 252 &&;
#X floatatom 349 273 5 0 0 0 - - -;
#X obj 349 293 change;
#X obj 349 314 == 0;
#X msg 349 335 /oled/gClear 3 1;
#X obj 349 356 s oscOutRaw;
#X obj 367 179 sel pg_delayset;
#X connect 0 0 1 0;
#X connect 1 0 2 0;
#X connect 2 0 3 0;
#X connect 3 0 6 1;
#X connect 3 0 8 1;
#X connect 4 0 12 0;
#X connect 4 0 11 0;
#X connect 5 0 4 0;
#X connect 6 0 7 0;
#X connect 7 0 10 0;
#X connect 8 0 9 0;
#X connect 9 0 20 0;
#X connect 10 0 8 0;
#X connect 10 0 14 0;
#X connect 11 0 9 0;
#X connect 12 0 6 0;
#X connect 13 0 11 1;
#X connect 14 0 17 0;
#X connect 17 0 31 0;
#X connect 18 0 4 0;
#X connect 19 0 18 0;
#X connect 20 0 21 0;
#X connect 21 0 16 0;
#X connect 22 0 4 0;
#X connect 22 1 13 0;
#X connect 22 1 12 1;
#X connect 23 0 0 0;
#X connect 24 0 19 0;
#X connect 25 0 4 0;
#X connect 25 1 26 0;
#X connect 26 0 23 0;
#X connect 26 1 0 1;
#X connect 28 0 25 0;
#X connect 29 0 22 0;
#X connect 30 0 25 0;
#X connect 31 0 15 0;
#X connect 32 0 33 0;
#X connect 33 0 34 0;
#X connect 33 1 45 0;
#X connect 34 0 35 0;
#X connect 34 1 36 0;
#X connect 35 0 39 0;
#X connect 36 0 39 0;
#X connect 37 0 39 1;
#X connect 38 0 39 1;
#X connect 39 0 31 1;
#X connect 39 0 40 0;
#X connect 40 0 41 0;
#X connect 41 0 42 0;
#X connect 42 0 43 0;
#X connect 43 0 44 0;
#X connect 45 0 37 0;
#X connect 45 1 38 0;
