#N canvas 1395 452 332 543 10;
#X obj 80 128 spigot 0;
#X obj 80 100 == 4;
#X obj 80 57 spigot;
#X obj 80 78 change;
#X obj 80 149 t b b;
#X msg 30 176 0;
#X text 179 153 stop arming;
#X obj 50 16 inlet;
#X obj 188 20 inlet;
#X obj 113 32 r qu-\$1-\$2;
#X obj 30 203 s quo-\$1-\$2;
#X obj 38 321 spigot;
#X obj 38 342 t b b;
#X obj 38 363 del 1;
#X msg 38 384 1;
#X obj 38 405 s undone-\$1-\$2;
#X obj 76 363 s undo-\$1-\$2;
#X obj 69 260 r undone-\$1-\$2;
#X obj 69 281 ==;
#X obj 69 302 tgl 15 0 empty empty empty 17 7 0 10 -262144 -1 -1 0
1;
#X obj 183 294 spigot;
#X obj 183 315 t b b;
#X obj 185 396 s undone-\$1-\$2;
#X obj 214 254 r undone-\$1-\$2;
#X obj 214 275 tgl 15 0 empty empty empty 17 7 0 10 -262144 -1 -1 1
1;
#X msg 185 375 0;
#X obj 163 192 bng 15 250 50 0 empty empty empty 17 7 0 10 -262144
-1 -1;
#X obj 183 336 del 1;
#X obj 221 336 s redo-\$1-\$2;
#X connect 0 0 4 0;
#X connect 1 0 0 0;
#X connect 1 0 0 1;
#X connect 2 0 3 0;
#X connect 3 0 1 0;
#X connect 4 0 5 0;
#X connect 4 1 20 0;
#X connect 4 1 11 0;
#X connect 4 1 26 0;
#X connect 5 0 10 0;
#X connect 7 0 2 0;
#X connect 8 0 1 1;
#X connect 9 0 2 1;
#X connect 11 0 12 0;
#X connect 12 0 13 0;
#X connect 12 1 16 0;
#X connect 13 0 14 0;
#X connect 14 0 15 0;
#X connect 17 0 18 0;
#X connect 18 0 19 0;
#X connect 19 0 11 1;
#X connect 20 0 21 0;
#X connect 21 0 27 0;
#X connect 21 1 28 0;
#X connect 23 0 24 0;
#X connect 24 0 20 1;
#X connect 25 0 22 0;
#X connect 27 0 25 0;
