#N canvas 11 50 493 643 10;
#X obj 87 75 t b b;
#X obj 116 178 + 1;
#X obj 116 160 f 0;
#X obj 89 142 t a b;
#X msg 417 103 0;
#X obj 116 196 nbx 5 14 -1e+37 1e+37 0 0 empty empty empty 0 -8 0 10
#fcfcfc #000000 #000000 0 256;
#X obj 89 285 list append;
#X obj 89 303 list;
#X obj 68 321 list;
#X obj 13 240 * 1;
#X obj 13 212 inlet;
#X obj 13 258 int;
#X obj 13 276 change;
#X obj 13 294 t b f;
#X obj 102 447 list split 1;
#X obj 68 429 list split 0;
#X msg 102 475 \$1;
#X obj 102 493 outlet;
#X obj 154 475 s2l /;
#X obj 181 511 list length;
#X obj 154 493 t a a;
#X obj 181 529 - 1;
#X obj 154 557 list split;
#X msg 182 575 \$1;
#X obj 182 593 outlet;
#X obj 89 124 folder_list;
#X obj 191 47 r soundshare_refresh;
#X obj 116 212 - 0.05;
#X obj 87 47 inlet;
#N canvas 0 161 1280 422 source 0;
#X obj 16 10 inlet;
#X obj 690 387 outlet;
#X obj 1128 274 spigot;
#X obj 1162 257 tgl 15 0 empty empty empty 17 7 0 10 #fcfcfc #000000
#000000 0 1;
#X msg 1162 189 1;
#X msg 1189 189 0;
#X obj 516 10 inlet;
#X floatatom 1128 257 5 0 0 0 - - - 0;
#X obj 456 274 spigot;
#X obj 489 257 tgl 15 0 empty empty empty 17 7 0 10 #fcfcfc #000000
#000000 0 1;
#X msg 489 229 1;
#X msg 516 229 0;
#X obj 690 274 spigot;
#X obj 723 257 tgl 15 0 empty empty empty 17 7 0 10 #fcfcfc #000000
#000000 0 1;
#X msg 723 199 1;
#X msg 750 199 0;
#X obj 930 274 spigot;
#X obj 963 257 tgl 15 0 empty empty empty 17 7 0 10 #fcfcfc #000000
#000000 0 1;
#X msg 963 169 1;
#X msg 990 169 0;
#X obj 695 320 stdout;
#X obj 16 28 t b b b b b b;
#X obj 516 68 sel -1 0 25 26 27, f 18;
#X msg 1128 338 symbol /tmp/media/orhack/kits/kit-\$1/*.wav;
#X msg 930 338 symbol /tmp/media/orhack/samples/*.wav;
#X msg 935 292 /media/orhack/samples;
#X msg 1133 292 /media/orhack/kits/kit-\$1;
#X msg 456 338 symbol /tmp/media/orhack/samples/loops/*.wav;
#X msg 690 338 symbol /tmp/media/orhack/samples/synths/*.wav;
#X msg 695 292 /media/orhack/samples/synths;
#X msg 461 292 /media/orhack/samples/loops;
#X connect 0 0 21 0;
#X connect 2 0 23 0;
#X connect 2 0 26 0;
#X connect 3 0 2 1;
#X connect 4 0 3 0;
#X connect 5 0 3 0;
#X connect 6 0 7 0;
#X connect 6 0 22 0;
#X connect 7 0 2 0;
#X connect 8 0 27 0;
#X connect 8 0 30 0;
#X connect 9 0 8 1;
#X connect 10 0 9 0;
#X connect 11 0 9 0;
#X connect 12 0 28 0;
#X connect 12 0 29 0;
#X connect 13 0 12 1;
#X connect 14 0 13 0;
#X connect 15 0 13 0;
#X connect 16 0 24 0;
#X connect 16 0 25 0;
#X connect 17 0 16 1;
#X connect 18 0 17 0;
#X connect 19 0 17 0;
#X connect 21 2 8 0;
#X connect 21 3 12 0;
#X connect 21 4 16 0;
#X connect 21 5 7 0;
#X connect 22 0 5 0;
#X connect 22 0 19 0;
#X connect 22 0 15 0;
#X connect 22 0 11 0;
#X connect 22 1 11 0;
#X connect 22 1 5 0;
#X connect 22 1 19 0;
#X connect 22 1 15 0;
#X connect 22 2 10 0;
#X connect 22 2 15 0;
#X connect 22 2 5 0;
#X connect 22 2 19 0;
#X connect 22 3 14 0;
#X connect 22 3 11 0;
#X connect 22 3 5 0;
#X connect 22 3 19 0;
#X connect 22 4 18 0;
#X connect 22 4 11 0;
#X connect 22 4 5 0;
#X connect 22 4 15 0;
#X connect 22 5 4 0;
#X connect 22 5 11 0;
#X connect 22 5 15 0;
#X connect 22 5 19 0;
#X connect 23 0 1 0;
#X connect 24 0 1 0;
#X connect 25 0 20 0;
#X connect 26 0 20 0;
#X connect 27 0 1 0;
#X connect 28 0 1 0;
#X connect 29 0 20 0;
#X connect 30 0 20 0;
#X restore 140 100 pd source;
#X obj 191 72 inlet;
#X connect 0 0 29 0;
#X connect 0 1 4 0;
#X connect 1 0 2 1;
#X connect 1 0 5 0;
#X connect 2 0 1 0;
#X connect 3 0 6 0;
#X connect 3 1 2 0;
#X connect 4 0 2 1;
#X connect 5 0 27 0;
#X connect 6 0 7 0;
#X connect 7 0 6 1;
#X connect 7 0 8 1;
#X connect 8 0 15 0;
#X connect 9 0 11 0;
#X connect 10 0 9 0;
#X connect 11 0 12 0;
#X connect 12 0 13 0;
#X connect 13 0 8 0;
#X connect 13 1 15 1;
#X connect 14 0 16 0;
#X connect 14 0 18 0;
#X connect 15 1 14 0;
#X connect 16 0 17 0;
#X connect 18 0 20 0;
#X connect 19 0 21 0;
#X connect 20 0 22 0;
#X connect 20 1 19 0;
#X connect 21 0 22 1;
#X connect 22 1 23 0;
#X connect 23 0 24 0;
#X connect 25 0 3 0;
#X connect 26 0 0 0;
#X connect 27 0 9 1;
#X connect 28 0 0 0;
#X connect 29 0 25 0;
#X connect 30 0 29 1;
