#N canvas 120 50 1280 667 10;
#X obj 304 186 r notesIn-\$1;
#X obj 304 601 s notesOut-\$1;
#X obj 25 186 inlet~ inL-\$1;
#X obj 135 186 inlet~ inR-\$1;
#X obj 27 601 outlet~ outL-\$1;
#X obj 136 601 outlet~ outR-\$1;
#X obj 424 185 r auxIn-\$1;
#X obj 423 208 r expIn-\$1;
#X obj 423 233 r fsIn-\$1;
#X obj 504 185 r ctrlIn-\$1;
#X obj 504 600 s ctrlOut-\$1;
#X obj 670 600 s rackMsgs;
#X obj 704 64 r master-ticks;
#X obj 438 441 lfo 1 \$1;
#X obj 552 441 lfo 2 \$1;
#X obj 665 441 lfo 3 \$1;
#X obj 780 441 lfo 4 \$1;
#X obj 704 85 sel 0;
#X msg 704 106 0;
#X connect 12 0 17 0;
#X connect 13 0 10 0;
#X connect 13 1 11 0;
#X connect 14 0 10 0;
#X connect 14 1 11 0;
#X connect 15 0 10 0;
#X connect 15 1 11 0;
#X connect 16 0 10 0;
#X connect 16 1 11 0;
#X connect 17 0 18 0;
#X connect 18 0 13 0;
#X connect 18 0 16 0;
#X connect 18 0 15 0;
#X connect 18 0 14 0;
