#N canvas 55 240 1861 804 10;
#X text 57 76 Fender Rhodes style voice using rjdj rhodey abstraction
\, which is itself based on the STK Rhodey code;
#N canvas 49 195 1360 849 synth 1;
#X obj 57 246 pack 0 0 0, f 11;
#X obj 54 479 route 1 2 3 4 5 6 7 8, f 91;
#X obj 54 617 *~ 0.3;
#X obj 57 213 poly 8 1, f 11;
#X obj 54 712 outlet~;
#X obj 57 84 inlet;
#X obj 54 525 rhodey-voice \$1;
#X obj 54 682 hip~ 5;
#X obj 217 526 rhodey-voice \$1;
#X obj 133 551 rhodey-voice \$1;
#X obj 289 549 rhodey-voice \$1;
#X obj 377 521 rhodey-voice \$1;
#X obj 452 555 rhodey-voice \$1;
#X obj 538 522 rhodey-voice \$1;
#X obj 600 549 rhodey-voice \$1;
#X obj 328 91 inlet ctrl;
#N canvas 324 629 450 300 route 0;
#X obj 69 97 unpack 0 0 0;
#X obj 68 68 t l l;
#X obj 68 197 list;
#X obj 139 144 t b;
#X obj 139 123 route 1 0;
#X obj 226 163 unpack 0 0 0;
#X obj 226 194 pack 0 0 0;
#X obj 68 19 inlet msg;
#X obj 68 218 outlet global;
#X obj 226 215 outlet voice;
#X obj 187 162 - 1;
#X connect 0 2 4 0;
#X connect 1 0 0 0;
#X connect 1 1 2 1;
#X connect 1 1 5 0;
#X connect 2 0 8 0;
#X connect 3 0 2 0;
#X connect 4 0 3 0;
#X connect 4 1 3 0;
#X connect 4 2 10 0;
#X connect 5 0 6 1;
#X connect 5 1 6 2;
#X connect 6 0 9 0;
#X connect 7 0 1 0;
#X connect 10 0 6 0;
#X restore 93 143 pd route;
#N canvas 324 629 450 300 route 0;
#X obj 69 97 unpack 0 0 0;
#X obj 68 68 t l l;
#X obj 68 197 list;
#X obj 139 144 t b;
#X obj 139 123 route 1 0;
#X obj 234 171 unpack 0 0 0;
#X obj 234 202 pack 0 0 0;
#X obj 68 19 inlet msg;
#X obj 68 218 outlet global;
#X obj 234 223 outlet voice;
#X obj 190 158 - 1;
#X connect 0 2 4 0;
#X connect 1 0 0 0;
#X connect 1 1 2 1;
#X connect 1 1 5 0;
#X connect 2 0 8 0;
#X connect 3 0 2 0;
#X connect 4 0 3 0;
#X connect 4 1 3 0;
#X connect 4 2 10 0;
#X connect 5 0 6 1;
#X connect 5 1 6 2;
#X connect 6 0 9 0;
#X connect 7 0 1 0;
#X connect 10 0 6 0;
#X restore 328 145 pd route;
#X obj 473 355 route 1 2 3 4 5 6 7 8, f 91;
#X obj 442 119 unpack 0 0 0;
#X obj 442 140 sel 123;
#X msg 442 161 stop;
#X obj 54 638 *~ 1;
#X obj 261 663 r volume-\$1;
#X obj 200 93 r auxIn-\$1;
#X obj 200 114 sel 1;
#X msg 200 135 stop;
#X obj 54 659 clip~ -1 1;
#X connect 0 0 1 0;
#X connect 1 0 6 0;
#X connect 1 1 9 0;
#X connect 1 2 8 0;
#X connect 1 3 10 0;
#X connect 1 4 11 0;
#X connect 1 5 12 0;
#X connect 1 6 13 0;
#X connect 1 7 14 0;
#X connect 2 0 22 0;
#X connect 3 0 0 0;
#X connect 3 1 0 1;
#X connect 3 2 0 2;
#X connect 5 0 3 0;
#X connect 6 0 2 0;
#X connect 7 0 4 0;
#X connect 8 0 2 0;
#X connect 9 0 2 0;
#X connect 10 0 2 0;
#X connect 11 0 2 0;
#X connect 12 0 2 0;
#X connect 13 0 2 0;
#X connect 14 0 2 0;
#X connect 15 0 17 0;
#X connect 15 0 19 0;
#X connect 16 0 3 0;
#X connect 16 1 1 0;
#X connect 17 0 14 1;
#X connect 17 0 13 1;
#X connect 17 0 12 1;
#X connect 17 0 11 1;
#X connect 17 0 10 1;
#X connect 17 0 9 1;
#X connect 17 0 8 1;
#X connect 17 1 18 0;
#X connect 18 0 6 1;
#X connect 18 1 9 1;
#X connect 18 2 8 1;
#X connect 18 3 10 1;
#X connect 18 4 11 1;
#X connect 18 5 12 1;
#X connect 18 6 13 1;
#X connect 18 7 14 1;
#X connect 19 0 20 0;
#X connect 20 0 21 0;
#X connect 21 0 3 0;
#X connect 22 0 27 0;
#X connect 23 0 22 1;
#X connect 24 0 25 0;
#X connect 25 0 26 0;
#X connect 26 0 3 0;
#X connect 27 0 7 0;
#X restore 62 315 pd synth;
#X text 68 37 C&G Rhodey synth;
#X obj 405 186 r ctrlIn-\$1;
#X obj 120 190 r notes;
#X obj 27 491 dac~;
#X obj 120 211 pack 0 0;
#X obj 173 191 r velocity;
#X obj 333 344 loadbang;
#X obj 333 365 t b b;
#X msg 333 386 loaded \$1;
#X obj 333 407 stdout;
#X msg 444 377 \; pd dsp 1;
#X connect 1 0 5 0;
#X connect 1 0 5 1;
#X connect 3 0 1 1;
#X connect 4 0 6 0;
#X connect 6 0 1 0;
#X connect 7 0 6 1;
#X connect 8 0 9 0;
#X connect 9 0 10 0;
#X connect 9 1 12 0;
#X connect 10 0 11 0;
