#N canvas 0 25 1034 552 12;
#X obj 280 268 outlet;
#X obj 109 22 r transpose-\$1;
#X obj 109 42 float;
#X msg 109 62 transpose-pd \$1;
#X obj 109 82 r pw-\$1;
#X obj 109 102 float;
#X msg 109 122 pw-pd \$1;
#X obj 109 142 r filtamt-\$1;
#X obj 109 162 float;
#X msg 109 182 filtamt-pd \$1;
#X obj 109 202 r syncamt-\$1;
#X obj 109 222 float;
#X msg 109 242 syncamt-pd \$1;
#X obj 109 262 r czz_attack-\$1;
#X obj 109 282 float;
#X msg 109 302 czz_attack-pd \$1;
#X obj 109 322 r czz_decay-\$1;
#X obj 109 342 float;
#X msg 109 362 czz_decay-pd \$1;
#X obj 109 382 r czz_sustain-\$1;
#X obj 109 402 float;
#X msg 109 422 czz_sustain-pd \$1;
#X obj 109 442 r czz_release-\$1;
#X obj 109 462 float;
#X msg 109 482 czz_release-pd \$1;
#X obj 109 502 r wid_attack-\$1;
#X obj 109 522 float;
#X msg 109 542 wid_attack-pd \$1;
#X obj 109 562 r wid_decay-\$1;
#X obj 109 582 float;
#X msg 109 602 wid_decay-pd \$1;
#X obj 109 622 r wid_sustain-\$1;
#X obj 109 642 float;
#X msg 109 662 wid_sustain-pd \$1;
#X obj 109 682 r wid_release-\$1;
#X obj 109 702 float;
#X msg 109 722 wid_release-pd \$1;
#X obj 109 742 r ton_attack-\$1;
#X obj 109 762 float;
#X msg 109 782 ton_attack-pd \$1;
#X obj 109 802 r ton_decay-\$1;
#X obj 109 822 float;
#X msg 109 842 ton_decay-pd \$1;
#X obj 109 862 r ton_sustain-\$1;
#X obj 109 882 float;
#X msg 109 902 ton_sustain-pd \$1;
#X obj 109 922 r ton_release-\$1;
#X obj 109 942 float;
#X msg 109 962 ton_release-pd \$1;
#X obj 109 982 r volume-\$1;
#X obj 109 1002 float;
#X msg 109 1022 volume-pd \$1;
#X obj 240 240 inlet;
#X connect 1 0 2 0;
#X connect 2 0 3 0;
#X connect 3 0 0 0;
#X connect 52 0 2 0;
#X connect 4 0 5 0;
#X connect 5 0 6 0;
#X connect 6 0 0 0;
#X connect 52 0 5 0;
#X connect 7 0 8 0;
#X connect 8 0 9 0;
#X connect 9 0 0 0;
#X connect 52 0 8 0;
#X connect 10 0 11 0;
#X connect 11 0 12 0;
#X connect 12 0 0 0;
#X connect 52 0 11 0;
#X connect 13 0 14 0;
#X connect 14 0 15 0;
#X connect 15 0 0 0;
#X connect 52 0 14 0;
#X connect 16 0 17 0;
#X connect 17 0 18 0;
#X connect 18 0 0 0;
#X connect 52 0 17 0;
#X connect 19 0 20 0;
#X connect 20 0 21 0;
#X connect 21 0 0 0;
#X connect 52 0 20 0;
#X connect 22 0 23 0;
#X connect 23 0 24 0;
#X connect 24 0 0 0;
#X connect 52 0 23 0;
#X connect 25 0 26 0;
#X connect 26 0 27 0;
#X connect 27 0 0 0;
#X connect 52 0 26 0;
#X connect 28 0 29 0;
#X connect 29 0 30 0;
#X connect 30 0 0 0;
#X connect 52 0 29 0;
#X connect 31 0 32 0;
#X connect 32 0 33 0;
#X connect 33 0 0 0;
#X connect 52 0 32 0;
#X connect 34 0 35 0;
#X connect 35 0 36 0;
#X connect 36 0 0 0;
#X connect 52 0 35 0;
#X connect 37 0 38 0;
#X connect 38 0 39 0;
#X connect 39 0 0 0;
#X connect 52 0 38 0;
#X connect 40 0 41 0;
#X connect 41 0 42 0;
#X connect 42 0 0 0;
#X connect 52 0 41 0;
#X connect 43 0 44 0;
#X connect 44 0 45 0;
#X connect 45 0 0 0;
#X connect 52 0 44 0;
#X connect 46 0 47 0;
#X connect 47 0 48 0;
#X connect 48 0 0 0;
#X connect 52 0 47 0;
#X connect 49 0 50 0;
#X connect 50 0 51 0;
#X connect 51 0 0 0;
#X connect 52 0 50 0;
