#N canvas 429 371 733 584 10;
#X msg 333 149 \; pd dsp 1;
#X obj 334 124 loadbang;
#X obj 180 219 adc~;
#X obj 222 442 dac~;
#X obj 351 274 r note-pd;
#X obj 417 276 r vel-pd;
#X obj 480 278 r chan-pd;
#X obj 375 309 pack 0 0 0;
#X obj 396 434 stdout;
#X obj 191 324 module/module pd;
#X obj 374 346 s notesIn-pd;
#X obj 525 118 pack 0 0 0;
#X obj 506 65 r valuem;
#X obj 582 62 r controllerm;
#X obj 634 98 r channelm;
#X obj 524 145 s ctrlIn-pd;
#X obj 402 399 r aux-label-pd;
#X obj 189 4 r auxIn-pd;
#X obj 189 25 s auxIn;
#X connect 1 0 0 0;
#X connect 2 0 9 0;
#X connect 2 1 9 1;
#X connect 4 0 7 0;
#X connect 5 0 7 1;
#X connect 6 0 7 2;
#X connect 7 0 10 0;
#X connect 9 0 3 0;
#X connect 9 1 3 1;
#X connect 11 0 15 0;
#X connect 12 0 11 0;
#X connect 13 0 11 1;
#X connect 14 0 11 2;
#X connect 16 0 8 0;
#X connect 17 0 18 0;
