#N canvas 0 0 772 561 12;
#X obj 105 71 inlet;
#X obj 103 204 outlet;
#X obj 179 66 sel \$1;
#X obj 179 39 unpack s s;
#X obj 179 10 r activePage;
#X msg 179 97 1;
#X obj 137 158 spigot;
#X floatatom 203 130 5 0 0 0 - - - 0;
#X msg 218 97 0;
#X connect 0 0 6 0;
#X connect 2 0 5 0;
#X connect 2 1 8 0;
#X connect 3 0 2 0;
#X connect 4 0 3 0;
#X connect 5 0 7 0;
#X connect 6 0 1 0;
#X connect 7 0 6 1;
#X connect 8 0 7 0;
