#N canvas 333 108 1081 740 10;
#X msg 330 306 notein \$1 \$2;
#X obj 279 379 septavox~, f 18;
#X floatatom 232 218 5 0 0 0 - - - 0;
#X msg 234 306 mode \$1;
#X obj 177 136 sel 1;
#X obj 177 204 t f f;
#X obj 234 191 + 1;
#X obj 330 210 unpack;
#X obj 330 244 - 24;
#X obj 330 278 pack;
#X obj 211 241 % 7;
#X obj 177 170 i 0;
#X obj 211 275 t a a;
#X msg 19 179 0;
#X obj 19 139 delay 200;
#X obj 179 419 inlet~ inL-\$1;
#X obj 359 419 inlet~ inR-\$1;
#X obj 219 499 outlet~ outL-\$1;
#X obj 328 499 outlet~ outR-\$1;
#X obj 258 453 +~;
#X obj 315 453 +~;
#X obj 329 180 r notesIn-\$1;
#X obj 177 102 r auxIn-\$1;
#X obj 153 306 s mode-\$1;
#X obj 36 242 s mode-\$1;
#X obj 19 99 r loadbang-\$1;
#X obj 19 59 v mode-\$1;
#N canvas 58 108 1017 705 display 1;
#X obj 257 388 s screenLine2;
#X obj 19 49 + 1;
#X msg 241 639 2: Tune \$1%;
#X obj 241 609 i;
#X obj 242 708 s screenLine3;
#X obj 687 147 * 100;
#X obj 687 177 i;
#X obj 241 549 + 1;
#X obj 241 579 * 100;
#X msg 256 313 1: Wave \$1;
#X obj 246 73 sel 0 1 2 3 4 5 6;
#X obj 246 103 symbol DirtySine;
#X obj 266 133 symbol Sine;
#X obj 306 193 symbol Square;
#X obj 326 223 symbol Sawtooth;
#X obj 346 253 symbol DirtySquare;
#X obj 366 283 symbol Computer;
#X obj 286 163 symbol ElecOrgan;
#X obj 20 139 sel 0 1 2 3 4 5 6;
#X msg 40 398 Mode \$1;
#X obj 39 465 s screenLine1;
#X obj 20 168 symbol Vibrato;
#X obj 40 198 symbol Slide;
#X obj 60 228 symbol Arp;
#X obj 80 258 symbol Swell;
#X obj 100 288 symbol OctCascade;
#X obj 120 318 symbol Slicer;
#X obj 140 348 symbol PipeGlide;
#X obj 755 177 sel 0 1 2 3 4 5 6;
#X obj 777 417 pack f s;
#X obj 717 107 t f b;
#X obj 757 207 symbol Rate;
#X obj 797 267 symbol Rate;
#X obj 817 297 symbol Attack;
#X obj 837 327 symbol Rate;
#X obj 857 357 symbol Rate;
#X obj 877 387 symbol GlideTime;
#X obj 707 77 f;
#X obj 727 47 t b f;
#X obj 777 237 symbol GlideTime;
#X msg 777 447 4: \$2 \$1%;
#X obj 769 512 s screenLine5;
#X obj 445 149 * 100;
#X obj 445 178 i;
#X obj 505 178 sel 0 1 2 3 4 5 6;
#X obj 515 408 pack f s;
#X obj 485 108 t f b;
#X obj 485 78 f;
#X obj 505 48 t b f;
#X msg 515 438 3: \$2 \$1%;
#X obj 512 507 s screenLine4;
#X obj 505 208 symbol Depth;
#X obj 525 238 symbol Amount;
#X obj 545 268 symbol Envelope;
#X obj 565 298 symbol Decay;
#X obj 585 328 symbol Envelope;
#X obj 605 358 symbol Pattern;
#X obj 625 388 symbol Modulation;
#X obj 19 19 r mode-\$1;
#X obj 19 79 s aux-led-\$1;
#X obj 20 118 r mode-\$1;
#X obj 246 21 r waveform-\$1;
#X obj 727 17 r mode-\$1;
#X obj 757 147 v mode-\$1;
#X obj 505 18 r mode-\$1;
#X obj 505 148 v mode-\$1;
#X floatatom 243 522 5 0 0 0 - - - 0;
#X floatatom 245 43 5 0 0 0 - - - 0;
#X floatatom 446 49 5 0 0 0 - - - 0;
#X floatatom 664 49 5 0 0 0 - - - 0;
#X obj 39 432 activePage \$1;
#X obj 258 350 activePage \$1;
#X obj 242 676 activePage \$1;
#X obj 513 470 activePage \$1;
#X obj 773 479 activePage \$1;
#X obj 425 18 r oknob3;
#X obj 647 17 r oknob4;
#X obj 243 492 r oknob2;
#X obj 303 461 delay 200;
#X obj 303 433 r loadbang-\$1;
#X msg 305 492 0;
#X connect 1 0 59 0;
#X connect 2 0 72 0;
#X connect 3 0 2 0;
#X connect 5 0 6 0;
#X connect 6 0 29 0;
#X connect 7 0 8 0;
#X connect 8 0 3 0;
#X connect 9 0 71 0;
#X connect 10 0 11 0;
#X connect 10 1 12 0;
#X connect 10 2 17 0;
#X connect 10 3 13 0;
#X connect 10 4 14 0;
#X connect 10 5 15 0;
#X connect 10 6 16 0;
#X connect 11 0 9 0;
#X connect 12 0 9 0;
#X connect 13 0 9 0;
#X connect 14 0 9 0;
#X connect 15 0 9 0;
#X connect 16 0 9 0;
#X connect 17 0 9 0;
#X connect 18 0 21 0;
#X connect 18 1 22 0;
#X connect 18 2 23 0;
#X connect 18 3 24 0;
#X connect 18 4 25 0;
#X connect 18 5 26 0;
#X connect 18 6 27 0;
#X connect 19 0 70 0;
#X connect 21 0 19 0;
#X connect 22 0 19 0;
#X connect 23 0 19 0;
#X connect 24 0 19 0;
#X connect 25 0 19 0;
#X connect 26 0 19 0;
#X connect 27 0 19 0;
#X connect 28 0 31 0;
#X connect 28 1 39 0;
#X connect 28 2 32 0;
#X connect 28 3 33 0;
#X connect 28 4 34 0;
#X connect 28 5 35 0;
#X connect 28 6 36 0;
#X connect 29 0 40 0;
#X connect 30 0 5 0;
#X connect 30 1 63 0;
#X connect 31 0 29 1;
#X connect 32 0 29 1;
#X connect 33 0 29 1;
#X connect 34 0 29 1;
#X connect 35 0 29 1;
#X connect 36 0 29 1;
#X connect 37 0 30 0;
#X connect 38 0 37 0;
#X connect 38 1 63 0;
#X connect 39 0 29 1;
#X connect 40 0 74 0;
#X connect 42 0 43 0;
#X connect 43 0 45 0;
#X connect 44 0 51 0;
#X connect 44 1 52 0;
#X connect 44 2 53 0;
#X connect 44 3 54 0;
#X connect 44 4 55 0;
#X connect 44 5 56 0;
#X connect 44 6 57 0;
#X connect 45 0 49 0;
#X connect 46 0 42 0;
#X connect 46 1 65 0;
#X connect 47 0 46 0;
#X connect 48 0 47 0;
#X connect 48 1 65 0;
#X connect 49 0 73 0;
#X connect 51 0 45 1;
#X connect 52 0 45 1;
#X connect 53 0 45 1;
#X connect 54 0 45 1;
#X connect 55 0 45 1;
#X connect 56 0 45 1;
#X connect 57 0 45 1;
#X connect 58 0 1 0;
#X connect 60 0 18 0;
#X connect 61 0 67 0;
#X connect 62 0 38 0;
#X connect 63 0 28 0;
#X connect 64 0 48 0;
#X connect 65 0 44 0;
#X connect 66 0 7 0;
#X connect 67 0 10 0;
#X connect 68 0 47 0;
#X connect 69 0 37 0;
#X connect 70 0 20 0;
#X connect 71 0 0 0;
#X connect 72 0 4 0;
#X connect 73 0 50 0;
#X connect 74 0 41 0;
#X connect 75 0 68 0;
#X connect 76 0 69 0;
#X connect 77 0 66 0;
#X connect 78 0 80 0;
#X connect 79 0 78 0;
#X connect 80 0 66 0;
#X restore 139 19 pd display;
#X obj 19 268 s waveform-\$1;
#X obj 558 146 vsl 15 128 0 1 0 0 empty empty empty 0 -9 0 10 #fcfcfc #000000 #000000 0 1;
#X msg 547 292 knob1 \$1;
#X obj 664 142 vsl 15 128 0 1 0 0 empty empty empty 0 -9 0 10 #fcfcfc #000000 #000000 0 1;
#X obj 758 144 vsl 15 128 0 1 0 0 empty empty empty 0 -9 0 10 #fcfcfc #000000 #000000 0 1;
#X msg 665 285 knob2 \$1;
#X msg 760 286 knob3 \$1;
#X msg 558 87 \$1 25;
#X obj 556 113 line 0 4;
#X msg 664 86 \$1 25;
#X obj 662 112 line 0 4;
#X msg 760 88 \$1 25;
#X obj 758 114 line 0 4;
#X obj 19 209 t f f;
#X obj 18 32 v waveform-\$1;
#X obj 557 58 activePage \$1;
#X obj 661 59 activePage \$1;
#X obj 758 65 activePage \$1;
#X floatatom 426 151 5 0 0 0 - - - 0;
#X msg 456 239 waveform \$1;
#X obj 427 176 % 7;
#X obj 424 93 * 6;
#X obj 424 123 i;
#X obj 427 205 t a a;
#X obj 425 64 activePage \$1;
#X obj 430 267 s waveform-\$1;
#X obj 426 35 r oknob1;
#X obj 558 33 r oknob2;
#X obj 660 31 r oknob3;
#X obj 758 37 r oknob4;
#X connect 0 0 1 0;
#X connect 1 0 19 1;
#X connect 1 0 20 1;
#X connect 2 0 10 0;
#X connect 3 0 1 0;
#X connect 4 0 11 0;
#X connect 5 0 10 0;
#X connect 5 1 6 0;
#X connect 6 0 11 1;
#X connect 7 0 8 0;
#X connect 7 1 9 1;
#X connect 8 0 9 0;
#X connect 9 0 0 0;
#X connect 10 0 12 0;
#X connect 11 0 5 0;
#X connect 12 0 23 0;
#X connect 12 1 3 0;
#X connect 13 0 41 0;
#X connect 14 0 13 0;
#X connect 15 0 19 0;
#X connect 16 0 20 0;
#X connect 19 0 17 0;
#X connect 20 0 18 0;
#X connect 21 0 7 0;
#X connect 22 0 4 0;
#X connect 25 0 14 0;
#X connect 29 0 30 0;
#X connect 30 0 1 0;
#X connect 31 0 33 0;
#X connect 32 0 34 0;
#X connect 33 0 1 0;
#X connect 34 0 1 0;
#X connect 35 0 36 0;
#X connect 36 0 29 0;
#X connect 37 0 38 0;
#X connect 38 0 31 0;
#X connect 39 0 40 0;
#X connect 40 0 32 0;
#X connect 41 0 28 0;
#X connect 41 1 24 0;
#X connect 43 0 35 0;
#X connect 44 0 37 0;
#X connect 45 0 39 0;
#X connect 46 0 48 0;
#X connect 47 0 1 0;
#X connect 48 0 51 0;
#X connect 49 0 50 0;
#X connect 50 0 46 0;
#X connect 51 0 53 0;
#X connect 51 1 47 0;
#X connect 52 0 49 0;
#X connect 54 0 52 0;
#X connect 55 0 43 0;
#X connect 56 0 44 0;
#X connect 57 0 45 0;
