#N canvas 618 91 1081 740 10;
#X msg 471 115 waveform \$1;
#X msg 330 306 notein \$1 \$2;
#X obj 279 379 septavox~, f 18;
#X floatatom 234 225 5 0 0 0 - - - 0;
#X msg 234 306 mode \$1;
#X obj 177 136 sel 1;
#X obj 177 204 t f f;
#X obj 234 191 + 1;
#X obj 330 165 unpack;
#X obj 330 199 - 24;
#X obj 330 233 pack;
#X obj 211 241 % 7;
#X obj 177 170 i 0;
#X obj 211 275 t a a;
#X msg 19 179 0;
#X obj 19 139 delay 200;
#X obj 179 419 inlet~ inL-\$1;
#X obj 359 419 inlet~ inR-\$1;
#X obj 219 499 outlet~ outL-\$1;
#X obj 328 499 outlet~ outR-\$1;
#X obj 258 453 +~;
#X obj 315 453 +~;
#X msg 475 203 knob2 \$1;
#X msg 573 116 knob3 \$1;
#X msg 568 203 knob4 \$1;
#X obj 330 102 r notesIn-\$1;
#X obj 177 102 r auxIn-\$1;
#X obj 153 306 s mode-\$1;
#X obj 36 273 s mode-\$1;
#X obj 19 99 r loadbang-\$1;
#X obj 19 59 v mode-\$1;
#X obj 567 149 r param4-\$1;
#N canvas 84 68 1802 1006 display 0;
#X obj 295 471 s screenLine2;
#X obj 19 49 + 1;
#X msg 226 641 2: Tune \$1%;
#X obj 226 611 i;
#X obj 296 711 s screenLine3;
#X obj 687 147 * 100;
#X obj 687 177 i;
#X obj 226 551 + 1;
#X obj 226 581 * 100;
#X msg 236 312 1: Wave \$1;
#X obj 226 72 sel 0 1 2 3 4 5 6;
#X obj 226 102 symbol DirtySine;
#X obj 246 132 symbol Sine;
#X obj 286 192 symbol Square;
#X obj 306 222 symbol Sawtooth;
#X obj 326 252 symbol DirtySquare;
#X obj 346 282 symbol Computer;
#X obj 266 162 symbol ElecOrgan;
#X obj 20 139 sel 0 1 2 3 4 5 6;
#X msg 40 398 Mode \$1;
#X obj 87 520 s screenLine1;
#X obj 20 168 symbol Vibrato;
#X obj 40 198 symbol Slide;
#X obj 60 228 symbol Arp;
#X obj 80 258 symbol Swell;
#X obj 100 288 symbol OctCascade;
#X obj 120 318 symbol Slicer;
#X obj 140 348 symbol PipeGlide;
#X obj 755 177 sel 0 1 2 3 4 5 6;
#X obj 777 417 pack f s;
#X obj 717 107 t f b;
#X obj 757 207 symbol Rate;
#X obj 797 267 symbol Rate;
#X obj 817 297 symbol Attack;
#X obj 837 327 symbol Rate;
#X obj 857 357 symbol Rate;
#X obj 877 387 symbol GlideTime;
#X obj 707 77 f;
#X obj 727 47 t b f;
#X obj 777 237 symbol GlideTime;
#X msg 777 447 4: \$2 \$1%;
#X obj 837 577 s screenLine5;
#X obj 445 149 * 100;
#X obj 445 178 i;
#X obj 505 178 sel 0 1 2 3 4 5 6;
#X obj 515 408 pack f s;
#X obj 485 108 t f b;
#X obj 485 78 f;
#X obj 505 48 t b f;
#X msg 515 438 3: \$2 \$1%;
#X obj 575 598 s screenLine4;
#X obj 505 208 symbol Depth;
#X obj 525 238 symbol Amount;
#X obj 545 268 symbol Envelope;
#X obj 565 298 symbol Decay;
#X obj 585 328 symbol Envelope;
#X obj 605 358 symbol Pattern;
#X obj 625 388 symbol Modulation;
#X obj 120 420 sel \$1;
#X obj 120 399 unpack s s;
#X obj 120 378 r activePage;
#X msg 120 441 1;
#X obj 90 467 spigot;
#X obj 19 19 r mode-\$1;
#X obj 19 79 s aux-led-\$1;
#X obj 20 118 r mode-\$1;
#X obj 226 20 r waveform-\$1;
#X obj 326 372 sel \$1;
#X obj 326 342 unpack s s;
#X obj 326 312 r activePage;
#X msg 326 402 1;
#X obj 296 442 spigot;
#X obj 326 611 sel \$1;
#X obj 326 581 unpack s s;
#X obj 326 551 r activePage;
#X msg 326 641 1;
#X obj 296 681 spigot;
#X obj 727 17 r mode-\$1;
#X obj 757 147 v mode-\$1;
#X obj 867 487 sel \$1;
#X obj 867 457 unpack s s;
#X obj 867 427 r activePage;
#X msg 867 517 1;
#X obj 837 547 spigot;
#X obj 605 498 sel \$1;
#X obj 605 468 unpack s s;
#X obj 605 438 r activePage;
#X msg 605 528 1;
#X obj 575 568 spigot;
#X obj 505 18 r mode-\$1;
#X obj 505 148 v mode-\$1;
#X obj 227 493 r tune-\$1;
#X obj 647 17 r param4-\$1;
#X obj 425 18 r param3-\$1;
#X floatatom 228 524 5 0 0 0 - - - 0;
#X floatatom 225 42 5 0 0 0 - - - 0;
#X floatatom 446 49 5 0 0 0 - - - 0;
#X floatatom 664 49 5 0 0 0 - - - 0;
#X connect 1 0 64 0;
#X connect 2 0 76 0;
#X connect 3 0 2 0;
#X connect 5 0 6 0;
#X connect 6 0 29 0;
#X connect 7 0 8 0;
#X connect 8 0 3 0;
#X connect 9 0 71 0;
#X connect 10 0 11 0;
#X connect 10 1 12 0;
#X connect 10 2 17 0;
#X connect 10 3 13 0;
#X connect 10 4 14 0;
#X connect 10 5 15 0;
#X connect 10 6 16 0;
#X connect 11 0 9 0;
#X connect 12 0 9 0;
#X connect 13 0 9 0;
#X connect 14 0 9 0;
#X connect 15 0 9 0;
#X connect 16 0 9 0;
#X connect 17 0 9 0;
#X connect 18 0 21 0;
#X connect 18 1 22 0;
#X connect 18 2 23 0;
#X connect 18 3 24 0;
#X connect 18 4 25 0;
#X connect 18 5 26 0;
#X connect 18 6 27 0;
#X connect 19 0 62 0;
#X connect 21 0 19 0;
#X connect 22 0 19 0;
#X connect 23 0 19 0;
#X connect 24 0 19 0;
#X connect 25 0 19 0;
#X connect 26 0 19 0;
#X connect 27 0 19 0;
#X connect 28 0 31 0;
#X connect 28 1 39 0;
#X connect 28 2 32 0;
#X connect 28 3 33 0;
#X connect 28 4 34 0;
#X connect 28 5 35 0;
#X connect 28 6 36 0;
#X connect 29 0 40 0;
#X connect 30 0 5 0;
#X connect 30 1 78 0;
#X connect 31 0 29 1;
#X connect 32 0 29 1;
#X connect 33 0 29 1;
#X connect 34 0 29 1;
#X connect 35 0 29 1;
#X connect 36 0 29 1;
#X connect 37 0 30 0;
#X connect 38 0 37 0;
#X connect 38 1 78 0;
#X connect 39 0 29 1;
#X connect 40 0 83 0;
#X connect 42 0 43 0;
#X connect 43 0 45 0;
#X connect 44 0 51 0;
#X connect 44 1 52 0;
#X connect 44 2 53 0;
#X connect 44 3 54 0;
#X connect 44 4 55 0;
#X connect 44 5 56 0;
#X connect 44 6 57 0;
#X connect 45 0 49 0;
#X connect 46 0 42 0;
#X connect 46 1 90 0;
#X connect 47 0 46 0;
#X connect 48 0 47 0;
#X connect 48 1 90 0;
#X connect 49 0 88 0;
#X connect 51 0 45 1;
#X connect 52 0 45 1;
#X connect 53 0 45 1;
#X connect 54 0 45 1;
#X connect 55 0 45 1;
#X connect 56 0 45 1;
#X connect 57 0 45 1;
#X connect 58 0 61 0;
#X connect 59 0 58 0;
#X connect 60 0 59 0;
#X connect 61 0 62 1;
#X connect 62 0 20 0;
#X connect 63 0 1 0;
#X connect 65 0 18 0;
#X connect 66 0 95 0;
#X connect 67 0 70 0;
#X connect 68 0 67 0;
#X connect 69 0 68 0;
#X connect 70 0 71 1;
#X connect 71 0 0 0;
#X connect 72 0 75 0;
#X connect 73 0 72 0;
#X connect 74 0 73 0;
#X connect 75 0 76 1;
#X connect 76 0 4 0;
#X connect 77 0 38 0;
#X connect 78 0 28 0;
#X connect 79 0 82 0;
#X connect 80 0 79 0;
#X connect 81 0 80 0;
#X connect 82 0 83 1;
#X connect 83 0 41 0;
#X connect 84 0 87 0;
#X connect 85 0 84 0;
#X connect 86 0 85 0;
#X connect 87 0 88 1;
#X connect 88 0 50 0;
#X connect 89 0 48 0;
#X connect 90 0 44 0;
#X connect 91 0 94 0;
#X connect 92 0 97 0;
#X connect 93 0 96 0;
#X connect 94 0 7 0;
#X connect 95 0 10 0;
#X connect 96 0 47 0;
#X connect 97 0 37 0;
#X restore 139 19 pd display;
#X obj 573 53 r param3-\$1;
#X obj 472 146 r tune-\$1;
#X obj 469 54 r waveform-\$1;
#X obj 19 299 s waveform-\$1;
#X floatatom 470 87 5 0 0 0 - - - 0;
#X floatatom 475 176 5 0 0 0 - - - 0;
#X floatatom 569 178 5 0 0 0 - - - 0;
#X floatatom 572 83 5 0 0 0 - - - 0;
#X obj 19 209 t f f f;
#X obj 53 244 s tune-$;
#X connect 0 0 2 0;
#X connect 1 0 2 0;
#X connect 2 0 20 1;
#X connect 2 0 21 1;
#X connect 3 0 11 0;
#X connect 4 0 2 0;
#X connect 5 0 12 0;
#X connect 6 0 11 0;
#X connect 6 1 7 0;
#X connect 7 0 12 1;
#X connect 8 0 9 0;
#X connect 8 1 10 1;
#X connect 9 0 10 0;
#X connect 10 0 1 0;
#X connect 11 0 13 0;
#X connect 12 0 6 0;
#X connect 13 0 27 0;
#X connect 13 1 4 0;
#X connect 14 0 41 0;
#X connect 15 0 14 0;
#X connect 16 0 20 0;
#X connect 17 0 21 0;
#X connect 20 0 18 0;
#X connect 21 0 19 0;
#X connect 22 0 2 0;
#X connect 23 0 2 0;
#X connect 24 0 2 0;
#X connect 25 0 8 0;
#X connect 26 0 5 0;
#X connect 29 0 15 0;
#X connect 31 0 39 0;
#X connect 33 0 40 0;
#X connect 34 0 38 0;
#X connect 35 0 37 0;
#X connect 37 0 0 0;
#X connect 38 0 22 0;
#X connect 39 0 24 0;
#X connect 40 0 23 0;
#X connect 41 0 36 0;
#X connect 41 1 28 0;
#X connect 41 2 42 0;
