#N canvas 362 351 748 493 10;
#X obj 36 297 tb_peakcomp~;
#X obj 180 297 tb_peakcomp~;
#X obj 99 48 delay 100;
#X msg 99 226 knee 1;
#X obj 192 362 +;
#X obj 192 380 / 2;
#X obj 105 328 env~;
#X obj 249 329 env~;
#X obj 249 345 + 0.01;
#X obj 105 345 + 0.01;
#X obj 192 398 sig~;
#X msg 99 169 release \$1;
#X obj 200 213 pack 0 100;
#X obj 200 231 line;
#X obj 391 230 pack 0 100;
#X obj 391 248 line;
#X obj 244 58 pack 0 100;
#X obj 244 79 line;
#X obj 281 103 pack 0 100;
#X obj 281 123 line;
#X msg 99 95 threshold \$1;
#X msg 99 123 ratio \$1;
#X msg 100 145 attack \$1;
#X obj 305 213 pack 0 100;
#X obj 305 233 line;
#X msg 101 197 makeup \$1;
#X obj 36 345 *~ 10;
#X obj 180 345 *~ 10;
#X obj 57 258 inlet~;
#X obj 160 258 inlet~;
#X obj 181 452 outlet~;
#X obj 36 452 outlet~;
#X obj 283 452 outlet~ GR;
#N canvas 1145 267 675 638 settings-labels 1;
#X obj 36 234 inlet attack;
#X obj 150 233 inlet release;
#X obj 39 34 r activePage;
#X obj 39 57 unpack s s;
#X obj 39 78 sel \$1;
#X msg 38 103 1, f 2;
#X msg 68 103 0, f 2;
#X msg 96 102 1, f 2;
#X msg 189 102 0, f 2;
#X obj 87 136 &&;
#X obj 87 158 change;
#X obj 87 180 sel 1;
#X obj 36 255 int;
#X obj 150 254 int;
#X obj 140 288 select 1 2 3 4 5;
#X obj 25 577 outlet attack;
#X obj 155 577 outlet release;
#X msg 146 341 50;
#X msg 165 371 100;
#X msg 184 404 300;
#X msg 209 439 600;
#X msg 235 477 1200;
#X msg 25 341 0.1;
#X msg 44 371 0.3;
#X msg 63 404 0.6;
#X msg 88 439 3;
#X obj 21 288 select 1 2 3 4 5 6;
#X obj 147 159 pack f f;
#X obj 148 137 t b;
#X msg 114 477 10;
#X msg 134 510 30;
#X obj 87 201 delay 500;
#X obj 96 79 sel pg_comp;
#X connect 0 0 12 0;
#X connect 1 0 13 0;
#X connect 2 0 3 0;
#X connect 3 0 4 0;
#X connect 3 1 32 0;
#X connect 4 0 5 0;
#X connect 4 1 6 0;
#X connect 5 0 9 0;
#X connect 6 0 9 0;
#X connect 7 0 9 1;
#X connect 8 0 9 1;
#X connect 9 0 10 0;
#X connect 10 0 11 0;
#X connect 11 0 31 0;
#X connect 12 0 26 0;
#X connect 13 0 14 0;
#X connect 14 0 17 0;
#X connect 14 1 18 0;
#X connect 14 2 19 0;
#X connect 14 3 20 0;
#X connect 14 4 21 0;
#X connect 17 0 16 0;
#X connect 17 0 27 1;
#X connect 17 0 28 0;
#X connect 18 0 16 0;
#X connect 18 0 27 1;
#X connect 18 0 28 0;
#X connect 19 0 16 0;
#X connect 19 0 27 1;
#X connect 19 0 28 0;
#X connect 20 0 16 0;
#X connect 20 0 27 1;
#X connect 20 0 28 0;
#X connect 21 0 16 0;
#X connect 21 0 27 1;
#X connect 21 0 28 0;
#X connect 22 0 15 0;
#X connect 22 0 27 0;
#X connect 23 0 15 0;
#X connect 23 0 27 0;
#X connect 24 0 15 0;
#X connect 24 0 27 0;
#X connect 25 0 15 0;
#X connect 25 0 27 0;
#X connect 26 0 22 0;
#X connect 26 1 23 0;
#X connect 26 2 24 0;
#X connect 26 3 25 0;
#X connect 26 4 29 0;
#X connect 26 5 30 0;
#X connect 28 0 27 0;
#X connect 29 0 15 0;
#X connect 29 0 27 0;
#X connect 30 0 15 0;
#X connect 30 0 27 0;
#X connect 31 0 12 0;
#X connect 31 0 13 0;
#X connect 32 0 7 0;
#X connect 32 1 8 0;
#X restore 197 172 pd settings-labels;
#X obj 99 20 loadbang;
#X obj 245 39 r threshold;
#X obj 281 83 r ratio;
#X obj 317 127 r attack;
#X obj 354 168 r release;
#X obj 391 212 r makeup;
#X obj 370 324 stdout;
#X msg 277 273 Attack \$1;
#X msg 377 279 Release \$1;
#X connect 0 0 26 0;
#X connect 0 2 6 0;
#X connect 1 0 27 0;
#X connect 1 2 7 0;
#X connect 2 0 20 0;
#X connect 2 0 21 0;
#X connect 2 0 3 0;
#X connect 3 0 1 0;
#X connect 3 0 0 0;
#X connect 4 0 5 0;
#X connect 5 0 10 0;
#X connect 6 0 9 0;
#X connect 7 0 8 0;
#X connect 8 0 4 1;
#X connect 9 0 4 0;
#X connect 10 0 32 0;
#X connect 11 0 1 0;
#X connect 11 0 0 0;
#X connect 12 0 13 0;
#X connect 13 0 22 0;
#X connect 14 0 15 0;
#X connect 15 0 25 0;
#X connect 16 0 17 0;
#X connect 17 0 20 0;
#X connect 18 0 19 0;
#X connect 19 0 21 0;
#X connect 20 0 1 0;
#X connect 20 0 0 0;
#X connect 21 0 1 0;
#X connect 21 0 0 0;
#X connect 22 0 1 0;
#X connect 22 0 0 0;
#X connect 23 0 24 0;
#X connect 24 0 11 0;
#X connect 25 0 1 0;
#X connect 25 0 0 0;
#X connect 26 0 31 0;
#X connect 27 0 30 0;
#X connect 28 0 0 0;
#X connect 28 0 0 1;
#X connect 29 0 1 0;
#X connect 29 0 1 1;
#X connect 33 0 12 0;
#X connect 33 0 41 0;
#X connect 33 1 23 0;
#X connect 33 1 42 0;
#X connect 34 0 2 0;
#X connect 35 0 16 0;
#X connect 36 0 18 0;
#X connect 37 0 33 0;
#X connect 38 0 33 1;
#X connect 39 0 14 0;
#X connect 41 0 40 0;
#X connect 42 0 40 0;
