#N canvas 288 50 1284 998 10;
#X obj 142 366 s notesOut-\$1;
#X obj 18 143 inlet~ inL-\$1;
#X obj 128 143 inlet~ inR-\$1;
#X obj 117 328 outlet~ outL-\$1;
#X obj 226 328 outlet~ outR-\$1;
#X obj 317 182 r auxIn-\$1;
#X obj 316 205 r expIn-\$1;
#X obj 316 230 r fsIn-\$1;
#X text 200 63 C&G basic polyphonic patch with 8 voices;
#X obj 243 366 s ctrlOut-\$1;
#N canvas 530 187 1198 561 subparams 0;
#X obj 216 104 r notesIn-\$1;
#X obj 317 104 r ctrlIn-\$1;
#X obj 216 125 unpack 0 0;
#X msg 216 146 notes \$1;
#X msg 273 147 velocity \$1;
#X floatatom 298 205 5 0 0 0 - - -;
#X floatatom 578 205 5 0 0 0 - - -;
#X floatatom 385 205 5 0 0 0 - - -;
#X floatatom 479 205 5 0 0 0 - - -;
#X obj 231 375 outlet;
#X obj 539 106 r loaded-\$1;
#X obj 298 180 r rate-\$1;
#X obj 385 180 r mode-\$1;
#X obj 578 180 r length-\$1;
#X obj 479 180 r delay-\$1;
#X msg 578 229 length \$1;
#X msg 479 229 delay \$1;
#X msg 385 229 mode \$1;
#X msg 298 229 rate \$1;
#X obj 106 113 r auxIn-\$1;
#X msg 106 134 aux \$1;
#X obj 766 120 r oknob1;
#X obj 978 120 r oknob4;
#X obj 906 120 r oknob3;
#X obj 838 120 r oknob2;
#X msg 766 141 oknob1 \$1;
#X msg 838 141 oknob2 \$1;
#X msg 906 141 oknob3 \$1;
#X msg 979 141 oknob4 \$1;
#X obj 708 201 r time-\$1;
#X floatatom 708 222 5 0 0 0 - - -;
#X obj 795 203 r feedback-\$1;
#X floatatom 795 224 5 0 0 0 - - -;
#X msg 795 244 feedback \$1;
#X msg 708 242 time \$1;
#X obj 918 205 r temposync-\$1;
#X floatatom 918 226 5 0 0 0 - - -;
#X msg 918 246 temposync \$1;
#X obj 1031 252 r master-bpm;
#X floatatom 1031 273 5 0 0 0 - - -;
#X msg 1031 293 bpm \$1;
#X obj 114 263 r kit-\$1;
#X floatatom 114 284 5 0 0 0 - - -;
#X msg 114 304 kit \$1;
#X obj 647 27 r loaded-\$1;
#X obj 647 48 delay 50;
#X obj 698 363 r volume-\$1;
#X floatatom 698 384 5 0 0 0 - - -;
#X msg 698 404 volume \$1;
#X obj 860 375 r threshold-\$1;
#X floatatom 860 396 5 0 0 0 - - -;
#X msg 860 416 threshold \$1;
#X obj 991 376 r ratio-\$1;
#X floatatom 991 397 5 0 0 0 - - -;
#X msg 991 417 ratio \$1;
#X obj 1075 380 r make-up-\$1;
#X floatatom 1075 401 5 0 0 0 - - -;
#X msg 1075 421 make-up \$1;
#X obj 848 482 r attack-\$1;
#X floatatom 848 503 5 0 0 0 - - -;
#X msg 848 523 attack \$1;
#X obj 958 475 r release-\$1;
#X floatatom 958 496 5 0 0 0 - - -;
#X msg 958 516 release \$1;
#X connect 0 0 2 0;
#X connect 2 0 3 0;
#X connect 2 1 4 0;
#X connect 3 0 9 0;
#X connect 4 0 9 0;
#X connect 5 0 18 0;
#X connect 6 0 15 0;
#X connect 7 0 17 0;
#X connect 8 0 16 0;
#X connect 10 0 5 0;
#X connect 10 0 7 0;
#X connect 10 0 8 0;
#X connect 10 0 6 0;
#X connect 10 0 30 0;
#X connect 10 0 32 0;
#X connect 10 0 36 0;
#X connect 10 0 47 0;
#X connect 10 0 50 0;
#X connect 10 0 53 0;
#X connect 10 0 56 0;
#X connect 10 0 59 0;
#X connect 10 0 62 0;
#X connect 11 0 5 0;
#X connect 12 0 7 0;
#X connect 13 0 6 0;
#X connect 14 0 8 0;
#X connect 15 0 9 0;
#X connect 16 0 9 0;
#X connect 17 0 9 0;
#X connect 18 0 9 0;
#X connect 19 0 20 0;
#X connect 20 0 9 0;
#X connect 21 0 25 0;
#X connect 22 0 28 0;
#X connect 23 0 27 0;
#X connect 24 0 26 0;
#X connect 25 0 9 0;
#X connect 26 0 9 0;
#X connect 27 0 9 0;
#X connect 28 0 9 0;
#X connect 29 0 30 0;
#X connect 30 0 34 0;
#X connect 31 0 32 0;
#X connect 32 0 33 0;
#X connect 33 0 9 0;
#X connect 34 0 9 0;
#X connect 35 0 36 0;
#X connect 36 0 37 0;
#X connect 37 0 9 0;
#X connect 38 0 39 0;
#X connect 39 0 40 0;
#X connect 40 0 9 0;
#X connect 41 0 42 0;
#X connect 42 0 43 0;
#X connect 43 0 9 0;
#X connect 44 0 45 0;
#X connect 45 0 9 0;
#X connect 46 0 47 0;
#X connect 47 0 48 0;
#X connect 48 0 9 0;
#X connect 49 0 50 0;
#X connect 50 0 51 0;
#X connect 51 0 9 0;
#X connect 52 0 53 0;
#X connect 53 0 54 0;
#X connect 54 0 9 0;
#X connect 55 0 56 0;
#X connect 56 0 57 0;
#X connect 57 0 9 0;
#X connect 58 0 59 0;
#X connect 59 0 60 0;
#X connect 60 0 9 0;
#X connect 61 0 62 0;
#X connect 62 0 63 0;
#X connect 63 0 9 0;
#X restore 47 180 pd subparams;
#X obj 9 376 bang;
#X obj 9 397 s loaded-\$1;
#X obj 291 125 r loadbang-\$1;
#X obj 9 355 route loaded;
#X msg 578 674 Loop;
#X msg 534 676 Jam;
#X obj 501 706 symbol;
#X obj 483 817 symbol;
#X obj 501 737 t b a a b;
#X obj 501 651 sel 0 1 2;
#X msg 501 678 Rec;
#X floatatom 417 504 5 0 0 0 - - -;
#X symbolatom 565 725 10 0 0 0 - - -;
#X obj 501 764 delay 5;
#X obj 403 427 cg-print-kb 36 \$1;
#X obj 403 280 route print-voices print-voices-velocity print-voices-bang
;
#X obj 403 310 pack 0 0;
#X obj 789 776 pack 0 0;
#X obj 571 551 t b f;
#X obj 136 435 s screenLine5;
#N canvas 653 176 832 326 routefilter 0;
#X obj 175 20 inlet;
#X obj 507 161 outlet;
#X obj 164 86 route print-voices print-voices-velocity print-voices-bang
rate mode length loaded feed len;
#X connect 0 0 2 0;
#X connect 2 9 1 0;
#X restore 136 405 pd routefilter;
#X floatatom 618 507 5 0 0 0 - - -;
#X obj 913 611 s aux-led-\$1;
#X floatatom 831 584 5 0 0 0 - - -;
#N canvas 1285 442 240 201 activepage 0;
#X obj 30 15 r activePage;
#X obj 30 36 unpack s s;
#X obj 30 57 sel \$1;
#X msg 30 78 1;
#X obj 30 106 &&;
#X obj 30 127 change;
#X msg 30 148 active \$1;
#X msg 63 78 0;
#X obj 88 56 sel pg_main pg_delay;
#X obj 30 169 outlet;
#X msg 93 78 1;
#X msg 147 79 0;
#X obj 121 130 sel 1;
#X obj 121 151 outlet;
#X obj 194 145 outlet;
#X obj 160 10 r loaded-\$1;
#X connect 0 0 1 0;
#X connect 1 0 2 0;
#X connect 1 1 8 0;
#X connect 2 0 3 0;
#X connect 2 1 7 0;
#X connect 3 0 4 0;
#X connect 4 0 5 0;
#X connect 4 0 12 0;
#X connect 5 0 6 0;
#X connect 5 0 14 0;
#X connect 6 0 9 0;
#X connect 7 0 4 0;
#X connect 8 0 10 0;
#X connect 8 1 11 0;
#X connect 8 2 11 0;
#X connect 10 0 4 1;
#X connect 11 0 4 1;
#X connect 12 0 13 0;
#X connect 15 0 3 0;
#X connect 15 0 10 0;
#X restore 785 304 pd activepage;
#X obj 804 403 bng 15 250 50 0 empty empty empty 17 7 0 10 -262144
-1 -1;
#X obj 804 423 delay 500;
#X obj 403 331 spigot;
#X obj 898 398 tgl 15 0 empty empty empty 17 7 0 10 -262144 -1 -1 0
1;
#X msg 349 858 \; screenLine1 Rate: \$1 Leng: \$2;
#X obj 350 807 pack 0 0;
#X msg 771 827 \; screenLine2 Feed: \$1 Time: \$2;
#X obj 417 472 route rate mode length feed led len;
#X obj 717 516 t b f;
#X obj 789 797 spigot;
#X floatatom 784 535 5 0 0 0 - - -;
#X obj 886 33 r loaded-\$1;
#X obj 886 54 t b b b;
#X obj 654 82 symbol \$1;
#X msg 654 103 getsetting currentPreset Default rackCurrentPreset-\$1
;
#X obj 654 124 s rackMsgs;
#X obj 923 193 symbol \$1;
#X symbolatom 923 214 10 0 0 0 - - -;
#X msg 923 234 slot \$1;
#X obj 1007 81 symbol \$1;
#X msg 1007 102 getsetting dataDir ./data rackDataDir-\$1;
#X obj 1007 123 s rackMsgs;
#X obj 1026 167 r rackDataDir;
#X obj 1026 188 symbol \$1;
#X symbolatom 1026 209 10 0 0 0 - - -;
#X msg 1026 229 dir \$1;
#X obj 1117 168 r rackDataDir-\$1;
#X obj 723 164 r rackCurrentPreset;
#X obj 723 185 symbol \$1;
#X symbolatom 723 206 10 0 0 0 - - -;
#X msg 723 226 preset \$1;
#X obj 747 136 r rackCurrentPreset-\$1;
#X obj 38 285 pd~ -ninsig 2 -noutsig 3;
#X obj 334 322 oled \$1;
#X msg 291 146 pd~ start -nogui pd~-loopjam.pd;
#X connect 1 0 68 0;
#X connect 2 0 68 1;
#X connect 10 0 68 0;
#X connect 11 0 12 0;
#X connect 13 0 70 0;
#X connect 14 0 11 0;
#X connect 15 0 17 0;
#X connect 16 0 17 0;
#X connect 17 0 19 0;
#X connect 17 0 23 0;
#X connect 19 0 24 0;
#X connect 19 0 18 0;
#X connect 19 2 18 1;
#X connect 19 3 18 0;
#X connect 20 0 21 0;
#X connect 20 1 16 0;
#X connect 20 2 15 0;
#X connect 21 0 17 0;
#X connect 22 0 41 0;
#X connect 26 0 27 0;
#X connect 26 1 27 1;
#X connect 26 2 25 1;
#X connect 27 0 38 0;
#X connect 28 0 45 0;
#X connect 29 0 41 0;
#X connect 29 1 41 1;
#X connect 31 0 30 0;
#X connect 32 0 28 0;
#X connect 34 0 33 0;
#X connect 35 0 68 0;
#X connect 35 1 36 0;
#X connect 35 2 39 0;
#X connect 36 0 37 0;
#X connect 37 0 25 1;
#X connect 38 0 25 0;
#X connect 39 0 38 1;
#X connect 39 0 45 1;
#X connect 41 0 40 0;
#X connect 43 0 22 0;
#X connect 43 1 20 0;
#X connect 43 2 29 0;
#X connect 43 3 32 0;
#X connect 43 4 34 0;
#X connect 43 5 44 0;
#X connect 44 0 28 0;
#X connect 44 1 28 1;
#X connect 44 1 46 0;
#X connect 45 0 42 0;
#X connect 47 0 48 0;
#X connect 48 0 49 0;
#X connect 48 1 52 0;
#X connect 48 2 55 0;
#X connect 49 0 50 0;
#X connect 50 0 51 0;
#X connect 52 0 53 0;
#X connect 53 0 54 0;
#X connect 54 0 68 0;
#X connect 55 0 56 0;
#X connect 56 0 57 0;
#X connect 58 0 59 0;
#X connect 59 0 60 0;
#X connect 60 0 61 0;
#X connect 61 0 68 0;
#X connect 62 0 59 0;
#X connect 63 0 64 0;
#X connect 64 0 65 0;
#X connect 65 0 66 0;
#X connect 66 0 68 0;
#X connect 67 0 64 0;
#X connect 68 0 14 0;
#X connect 68 0 26 0;
#X connect 68 0 31 0;
#X connect 68 0 43 0;
#X connect 68 1 3 0;
#X connect 68 2 4 0;
#X connect 68 3 69 0;
#X connect 70 0 68 0;
