#N canvas 57 88 1468 956 10;
#X declare -path soundshare;
#N canvas 532 50 794 402 the-synth 1;
#X obj 37 256 catch~ jam-loop-bus;
#X obj 37 278 outlet~;
#X obj 294 197 jam-loop-voice jam-loop 16;
#X obj 567 195 jam-loop-voice jam-loop 24;
#X obj 24 52 jam-loop-voice jam-loop 1;
#X obj 25 96 jam-loop-voice jam-loop 3;
#X obj 560 54 jam-loop-voice jam-loop 17;
#X obj 561 134 jam-loop-voice jam-loop 21;
#X obj 24 198 jam-loop-voice jam-loop 8;
#X obj 293 52 jam-loop-voice jam-loop 9;
#X obj 28 138 jam-loop-voice jam-loop 5;
#X obj 293 154 jam-loop-voice jam-loop 14;
#X obj 25 74 jam-loop-voice jam-loop 2;
#X obj 23 118 jam-loop-voice jam-loop 4;
#X obj 23 158 jam-loop-voice jam-loop 6;
#X obj 25 178 jam-loop-voice jam-loop 7;
#X obj 295 72 jam-loop-voice jam-loop 10;
#X obj 295 94 jam-loop-voice jam-loop 11;
#X obj 295 113 jam-loop-voice jam-loop 12;
#X obj 295 135 jam-loop-voice jam-loop 13;
#X obj 294 174 jam-loop-voice jam-loop 15;
#X obj 560 74 jam-loop-voice jam-loop 18;
#X obj 559 93 jam-loop-voice jam-loop 19;
#X obj 562 114 jam-loop-voice jam-loop 20;
#X obj 563 155 jam-loop-voice jam-loop 22;
#X obj 563 174 jam-loop-voice jam-loop 23;
#X connect 0 0 1 0;
#X restore 1137 677 pd the-synth;
#X obj 536 118 r aux;
#X obj 586 118 r fs;
#N canvas 614 265 1302 779 states 1;
#X text 284 64 Controls State With Aux Button;
#X obj 226 67 inlet;
#X obj 226 158 sel 1, f 12;
#X obj 226 190 v jam-loop-v;
#X obj 226 227 sel 0 1 2 3, f 16;
#X obj 226 491 t b b b b;
#X obj 226 698 v jam-loop-v;
#X msg 226 675 1;
#X obj 286 535 s jam-loop-rec-enabled;
#X msg 266 560 5;
#X obj 266 582 s led;
#X text 246 469 enable record;
#X obj 254 446 v jam-loop-v;
#X msg 254 421 0;
#X text 434 165 states: 0: off 1: record ready 2: slot seleceted 3:
recording;
#X obj 254 268 t b b b b;
#X obj 314 311 s jam-loop-rec-enabled;
#X msg 314 290 0;
#X obj 294 354 s led;
#X msg 294 331 0;
#X msg 286 513 1;
#X msg 564 77 1;
#X obj 523 318 loadbang;
#X obj 564 55 r jam-loop-done-recording;
#X obj 602 399 t b b b b;
#X obj 602 570 v jam-loop-v;
#X obj 662 443 s jam-loop-rec-enabled;
#X obj 642 490 s led;
#X msg 662 421 0;
#X msg 642 468 0;
#X msg 602 546 0;
#X obj 871 109 b;
#X msg 871 131 1;
#X obj 758 112 del 2;
#X obj 758 90 inlet;
#X obj 871 86 inlet;
#X obj 422 687 stdout;
#X msg 246 606 Press Key to Record;
#X floatatom 758 133 5 0 0 0 - - -;
#X obj 821 181 bng 15 250 50 0 empty empty empty 17 7 0 10 -262144
-1 -1;
#X msg 270 379 Press Aux Start Rec;
#X obj 270 400 stdout;
#X msg 622 514 Aux: Record Off;
#X obj 635 546 stdout;
#X obj 468 441 r active;
#X obj 468 462 sel 1;
#X obj 474 495 bng 15 250 50 0 empty empty empty 17 7 0 10 -262144
-1 -1;
#X connect 1 0 2 0;
#X connect 2 0 3 0;
#X connect 3 0 4 0;
#X connect 4 0 5 0;
#X connect 4 1 15 0;
#X connect 4 2 15 0;
#X connect 4 3 24 0;
#X connect 5 0 7 0;
#X connect 5 1 37 0;
#X connect 5 2 9 0;
#X connect 5 3 20 0;
#X connect 7 0 6 0;
#X connect 9 0 10 0;
#X connect 13 0 12 0;
#X connect 15 0 13 0;
#X connect 15 1 40 0;
#X connect 15 2 19 0;
#X connect 15 3 17 0;
#X connect 17 0 16 0;
#X connect 19 0 18 0;
#X connect 20 0 8 0;
#X connect 21 0 2 0;
#X connect 22 0 40 0;
#X connect 23 0 21 0;
#X connect 24 0 30 0;
#X connect 24 1 42 0;
#X connect 24 2 29 0;
#X connect 24 3 28 0;
#X connect 28 0 26 0;
#X connect 29 0 27 0;
#X connect 30 0 25 0;
#X connect 31 0 32 0;
#X connect 32 0 4 0;
#X connect 33 0 40 0;
#X connect 33 0 38 0;
#X connect 33 0 39 0;
#X connect 34 0 33 0;
#X connect 35 0 31 0;
#X connect 37 0 36 0;
#X connect 40 0 41 0;
#X connect 42 0 43 0;
#X connect 44 0 45 0;
#X connect 45 0 46 0;
#X connect 46 0 40 0;
#X restore 641 218 pd states;
#X obj 300 222 r jam-loop-rec-enabled;
#X obj 137 314 ==;
#X obj 247 330 stripnote;
#X msg 472 385 2;
#X obj 427 468 s jam-loop-rec-enabled;
#X msg 427 445 0;
#X obj 383 462 s led;
#X msg 383 441 6, f 2;
#N canvas 461 71 560 583 bag 0;
#X obj 69 20 inlet;
#X obj 69 414 outlet;
#X obj 123 297 bag;
#X obj 123 319 pack 0 0;
#X obj 150 187 r \$0-kill-notes;
#X msg 150 257 flush;
#X obj 69 147 spigot 1;
#X connect 0 0 6 0;
#X connect 2 0 3 0;
#X connect 3 0 1 0;
#X connect 4 0 5 0;
#X connect 5 0 2 0;
#X connect 6 0 2 0;
#X connect 6 0 1 0;
#X restore 84 367 pd bag;
#X msg 333 647 3;
#X obj 303 694 s jam-loop-rec-enabled;
#X msg 303 671 0;
#X obj 245 624 t f b b b, f 13;
#X obj 245 594 f;
#X obj 333 669 v jam-loop-v;
#X obj 472 407 v jam-loop-v;
#X obj 1019 554 loadbang;
#X obj 84 338 spigot 1;
#X obj 247 308 spigot 0;
#X obj 84 444 s jam-loop-2-voices;
#X obj 84 210 % 24;
#X obj 84 189 abs;
#X obj 84 168 expr if ($f1 > 59 \, $f1 - 60 \, $f1 - 12);
#X obj 84 146 unpack 0 0;
#X obj 84 263 pack 0 0;
#X obj 84 232 + 1;
#X obj 796 480 r jam-loop-print-the-voices;
#X obj 897 553 r print-keyboard;
#X obj 929 619 s jam-loop-print-the-voices-bang;
#X obj 897 585 t b b;
#X obj 517 437 s jam-loop-point-record;
#X obj 245 572 r jam-loop-thresh-passed;
#N canvas 955 66 961 919 knobs 0;
#X obj 75 171 s jam-loop-global-speed;
#X obj 365 358 i;
#X obj 365 337 * 100;
#X obj 325 463 s jam-loop-global-length;
#X obj 498 102 i;
#X obj 498 148 t f f;
#X obj 525 170 s jam-loop-state;
#X obj 325 440 max 0.01;
#X obj 140 352 * 100;
#X obj 140 386 i;
#X obj 498 124 change -1;
#N canvas 6 130 1251 730 detent-200 0;
#X obj 685 350 bang;
#X obj 734 348 i;
#X obj 638 369 i;
#X obj 638 397 abs;
#X obj 422 187 moses 0.5;
#X obj 639 197 - 0.5;
#X obj 639 219 * 2;
#X obj 456 377 bang;
#X obj 512 390 - 0.5;
#X obj 512 460 i;
#X obj 421 457 i;
#X obj 421 485 abs;
#X obj 422 218 - 0.5;
#X obj 422 240 * 2;
#X obj 422 262 abs;
#X obj 734 278 - 0.5;
#X obj 734 300 * 200;
#X obj 734 322 + 100;
#X obj 638 341 * 200;
#X obj 576 329 * 2;
#X obj 525 331 * -2;
#X msg 685 377 100;
#X obj 681 471 f;
#X obj 681 606 f;
#X msg 456 403 100;
#X obj 422 297 detent 0.075;
#X obj 639 244 detent 0.075, f 14;
#X obj 525 356 outlet data;
#X obj 681 628 outlet printing;
#X obj 422 56 inlet;
#X obj 571 557 * -1;
#X obj 512 412 * 200;
#X obj 512 434 + 100;
#X obj 421 429 * 200;
#X connect 0 0 21 0;
#X connect 1 0 22 0;
#X connect 2 0 3 0;
#X connect 3 0 22 0;
#X connect 4 0 12 0;
#X connect 4 1 5 0;
#X connect 5 0 6 0;
#X connect 6 0 26 0;
#X connect 7 0 24 0;
#X connect 8 0 31 0;
#X connect 9 0 30 0;
#X connect 10 0 11 0;
#X connect 11 0 30 0;
#X connect 12 0 13 0;
#X connect 13 0 14 0;
#X connect 14 0 25 0;
#X connect 15 0 16 0;
#X connect 16 0 17 0;
#X connect 17 0 1 0;
#X connect 18 0 2 0;
#X connect 19 0 27 0;
#X connect 20 0 27 0;
#X connect 21 0 22 0;
#X connect 22 0 23 0;
#X connect 23 0 28 0;
#X connect 24 0 30 0;
#X connect 25 0 20 0;
#X connect 25 0 33 0;
#X connect 25 1 7 0;
#X connect 25 1 20 0;
#X connect 25 2 8 0;
#X connect 25 2 20 0;
#X connect 26 0 18 0;
#X connect 26 0 19 0;
#X connect 26 1 0 0;
#X connect 26 1 19 0;
#X connect 26 2 15 0;
#X connect 26 2 19 0;
#X connect 29 0 4 0;
#X connect 30 0 23 0;
#X connect 31 0 32 0;
#X connect 32 0 9 0;
#X connect 33 0 10 0;
#X restore 75 140 pd detent-200;
#X obj 498 80 * 3;
#X obj 75 69 r oknob1;
#X obj 140 278 r oknob3;
#X msg 365 398 length \$1;
#X msg 498 208 mode \$1;
#X obj 498 229 stdout;
#X obj 365 419 stdout;
#X msg 150 220 rate \$1;
#X obj 150 241 stdout;
#X floatatom 71 346 5 0 0 0 - - -;
#X obj 140 475 stdout;
#X msg 140 452 feed \$1;
#X floatatom 140 418 5 0 0 0 - - -;
#X obj 27 403 s feed;
#X obj 319 92 r active;
#X obj 327 129 tgl 15 0 empty empty empty 17 7 0 10 -262144 -1 -1 0
1;
#X obj 75 113 spigot;
#X obj 498 60 spigot;
#X obj 140 324 spigot;
#X obj 325 314 spigot;
#X floatatom 75 90 5 0 0 0 - - -;
#X floatatom 498 39 5 0 0 0 - - -;
#X floatatom 325 291 5 0 0 0 - - -;
#X floatatom 140 299 5 0 0 0 - - -;
#X floatatom 150 198 5 0 0 0 - - -;
#X floatatom 365 379 5 0 0 0 - - -;
#X floatatom 498 189 5 0 0 0 - - -;
#X obj 384 129 sel 1;
#X obj 384 150 delay 500;
#X obj 419 270 r length;
#X floatatom 419 291 5 0 0 0 - - -;
#X obj 419 310 / 100;
#X obj 325 270 r oknob2;
#X obj 619 378 r oknob4;
#X floatatom 619 399 5 0 0 0 - - -;
#X obj 619 419 spigot;
#X obj 619 440 * 5000;
#X floatatom 619 461 5 0 0 0 - - -;
#X obj 619 505 s time-ms;
#X obj 619 481 int;
#X obj 42 258 r feedback;
#X floatatom 42 279 5 0 0 0 - - -;
#X floatatom 287 368 5 0 0 0 - - -;
#X obj 573 276 loadbang;
#X obj 573 297 delay 750;
#X msg 573 318 0.75;
#X floatatom 278 465 5 0 0 0 - - -;
#X connect 1 0 37 0;
#X connect 2 0 1 0;
#X connect 4 0 10 0;
#X connect 5 0 38 0;
#X connect 5 1 6 0;
#X connect 7 0 3 0;
#X connect 7 0 58 0;
#X connect 8 0 9 0;
#X connect 9 0 24 0;
#X connect 10 0 5 0;
#X connect 11 0 0 0;
#X connect 11 1 36 0;
#X connect 12 0 4 0;
#X connect 13 0 32 0;
#X connect 14 0 35 0;
#X connect 15 0 18 0;
#X connect 16 0 17 0;
#X connect 19 0 20 0;
#X connect 21 0 25 0;
#X connect 23 0 22 0;
#X connect 24 0 23 0;
#X connect 26 0 27 0;
#X connect 26 0 39 0;
#X connect 27 0 28 1;
#X connect 27 0 29 1;
#X connect 27 0 30 1;
#X connect 27 0 31 1;
#X connect 27 0 47 1;
#X connect 28 0 11 0;
#X connect 29 0 12 0;
#X connect 30 0 8 0;
#X connect 30 0 21 0;
#X connect 31 0 2 0;
#X connect 31 0 7 0;
#X connect 31 0 54 0;
#X connect 32 0 28 0;
#X connect 33 0 29 0;
#X connect 34 0 31 0;
#X connect 35 0 30 0;
#X connect 36 0 19 0;
#X connect 37 0 15 0;
#X connect 38 0 16 0;
#X connect 39 0 40 0;
#X connect 40 0 36 0;
#X connect 40 0 24 0;
#X connect 40 0 37 0;
#X connect 41 0 42 0;
#X connect 42 0 43 0;
#X connect 43 0 7 0;
#X connect 44 0 34 0;
#X connect 45 0 46 0;
#X connect 46 0 47 0;
#X connect 47 0 48 0;
#X connect 48 0 49 0;
#X connect 49 0 51 0;
#X connect 51 0 50 0;
#X connect 52 0 53 0;
#X connect 55 0 56 0;
#X connect 56 0 7 0;
#X connect 56 0 57 0;
#X connect 57 0 11 0;
#X restore 602 804 pd knobs and audio out;
#X obj 337 496 s jam-loop-kill;
#X obj 247 357 t f f b b b b f, f 39;
#X text 731 207 merged foot and aux state control;
#X obj 641 194 spigot 0;
#X obj 84 102 r notes;
#X obj 686 36 r jam-loop-state;
#X obj 686 58 sel 0 1 2;
#X msg 686 87 1;
#X msg 721 86 0;
#X obj 762 113 r jam-loop-state;
#X obj 762 135 sel 0 1 2;
#X obj 762 159 b;
#X obj 813 322 r seq2-1-aux-label;
#X obj 997 319 r seq2-1-led;
#X obj 997 341 s led;
#X obj 804 166 b;
#X obj 1021 200 array define jam-loop-lengths;
#X obj 1021 96 loadbang;
#X msg 1021 118 read lengths.txt;
#X obj 1073 145 r saveState;
#X msg 1073 167 write lengths.txt;
#X obj 653 652 + 1;
#X obj 621 652 f 0;
#X obj 621 579 sel 0;
#X obj 582 554 unpack;
#X obj 621 601 t b b;
#X msg 664 626 -1;
#X obj 671 602 t b b;
#X msg 701 625 1;
#X obj 621 674 max 0;
#X obj 621 718 + 1;
#X obj 621 696 min 24;
#X obj 621 742 s jam-loop-voice-sum;
#X text 1189 733 sound through;
#X obj 1177 381 loadbang;
#X obj 1177 402 t b b;
#X msg 1177 423 loaded;
#X obj 1177 444 stdout;
#X msg 1239 429 \; pd dsp 1;
#X obj 147 106 r velocity;
#X obj 84 123 pack 0 0;
#X obj 813 364 stdout;
#X msg 901 692 print-voices-bang \$1;
#X obj 799 862 stdout;
#X msg 799 790 print-voices \$1;
#X obj 1012 594 bng 15 250 50 0 empty empty empty 17 7 0 10 -262144
-1 -1;
#X obj 796 501 unpack;
#X floatatom 796 522 5 0 0 0 - - -;
#X floatatom 837 520 5 0 0 0 - - -;
#X msg 887 829 print-voices-velocity \$1;
#X obj 1138 720 delay5sec;
#X floatatom 1164 550 5 0 0 0 - - -;
#X obj 245 818 stdout;
#X msg 245 786 Recording \$1;
#X msg 247 523 Enabled Recording \$1;
#X obj 247 544 stdout;
#X obj 1214 603 r feed;
#X floatatom 1214 645 5 0 0 0 - - -;
#X obj 270 757 stdout;
#X obj 1279 510 temposync;
#X obj 1164 529 r len;
#X obj 326 81 declare -path soundshare;
#X msg 813 343 \$1;
#X msg 270 731 led 1, f 6;
#X obj 1345 567 r len;
#X msg 1345 588 len \$1;
#X obj 1345 609 stdout;
#X obj 587 42 loadbang;
#X obj 1137 698 *~ 0.707;
#X obj 626 118 r active;
#X obj 626 148 tgl 15 0 empty empty empty 17 7 0 10 -262144 -1 -1 0
1;
#X obj 593 173 spigot;
#X obj 1139 775 *~;
#X obj 1315 680 r volume;
#X obj 1315 701 / 100;
#X obj 1138 741 comp, f 13;
#X obj 1139 796 clip~ -1 1;
#X obj 1139 821 dac~ 1 2 3;
#X connect 0 0 105 0;
#X connect 1 0 108 0;
#X connect 2 0 108 0;
#X connect 4 0 5 0;
#X connect 4 0 22 1;
#X connect 5 0 21 1;
#X connect 6 0 38 0;
#X connect 7 0 19 0;
#X connect 9 0 8 0;
#X connect 11 0 10 0;
#X connect 12 0 23 0;
#X connect 13 0 18 0;
#X connect 15 0 14 0;
#X connect 16 0 90 0;
#X connect 16 1 100 0;
#X connect 16 2 15 0;
#X connect 16 3 13 0;
#X connect 17 0 16 0;
#X connect 20 0 33 0;
#X connect 21 0 12 0;
#X connect 22 0 6 0;
#X connect 24 0 29 0;
#X connect 25 0 24 0;
#X connect 26 0 25 0;
#X connect 27 0 26 0;
#X connect 27 1 28 1;
#X connect 28 0 21 0;
#X connect 28 0 22 0;
#X connect 29 0 28 0;
#X connect 30 0 61 0;
#X connect 30 0 83 0;
#X connect 31 0 33 0;
#X connect 31 0 82 0;
#X connect 33 0 32 0;
#X connect 33 1 79 0;
#X connect 35 0 17 0;
#X connect 38 0 91 0;
#X connect 38 1 17 1;
#X connect 38 2 37 0;
#X connect 38 3 11 0;
#X connect 38 4 9 0;
#X connect 38 5 7 0;
#X connect 38 6 34 0;
#X connect 40 0 3 0;
#X connect 41 0 77 0;
#X connect 42 0 43 0;
#X connect 43 0 44 0;
#X connect 43 1 45 0;
#X connect 43 2 45 0;
#X connect 44 0 40 1;
#X connect 45 0 40 1;
#X connect 46 0 47 0;
#X connect 47 0 48 0;
#X connect 47 1 52 0;
#X connect 47 2 52 0;
#X connect 49 0 99 0;
#X connect 50 0 51 0;
#X connect 54 0 55 0;
#X connect 55 0 53 0;
#X connect 56 0 57 0;
#X connect 57 0 53 0;
#X connect 58 0 59 1;
#X connect 59 0 66 0;
#X connect 60 0 62 0;
#X connect 60 1 64 0;
#X connect 61 1 60 0;
#X connect 62 0 59 0;
#X connect 62 1 63 0;
#X connect 63 0 58 0;
#X connect 64 0 59 0;
#X connect 64 1 65 0;
#X connect 65 0 58 1;
#X connect 66 0 68 0;
#X connect 67 0 69 0;
#X connect 68 0 58 0;
#X connect 68 0 67 0;
#X connect 71 0 72 0;
#X connect 72 0 73 0;
#X connect 72 1 75 0;
#X connect 73 0 74 0;
#X connect 76 0 77 1;
#X connect 77 0 27 0;
#X connect 79 0 80 0;
#X connect 81 0 80 0;
#X connect 83 0 84 0;
#X connect 83 1 85 0;
#X connect 84 0 81 0;
#X connect 85 0 86 0;
#X connect 86 0 80 0;
#X connect 87 0 112 0;
#X connect 88 0 87 1;
#X connect 90 0 89 0;
#X connect 91 0 92 0;
#X connect 93 0 87 2;
#X connect 93 0 94 0;
#X connect 97 0 88 0;
#X connect 99 0 78 0;
#X connect 100 0 95 0;
#X connect 101 0 102 0;
#X connect 102 0 103 0;
#X connect 104 0 44 0;
#X connect 105 0 87 0;
#X connect 106 0 107 0;
#X connect 107 0 108 1;
#X connect 108 0 40 0;
#X connect 109 0 113 0;
#X connect 110 0 111 0;
#X connect 111 0 109 1;
#X connect 112 0 109 0;
#X connect 112 2 114 2;
#X connect 113 0 114 0;
#X connect 113 0 114 1;
