#N canvas 638 346 1278 698 10;
#X obj 19 180 /;
#X obj 19 203 nbx 5 14 -1e+37 1e+37 0 0 empty empty empty 0 -8 0 10
-262144 -1 -1 0.125 256;
#X obj 19 224 * 1000;
#X obj 19 250 nbx 5 14 -1e+37 1e+37 0 0 empty empty empty 0 -8 0 10
-262144 -1 -1 125 256;
#X floatatom 88 143 5 0 0 0 - - -;
#X obj 126 105 hsl 128 15 0 5000 0 0 empty empty empty -2 -8 0 10 -262144
-1 -1 0 1;
#X obj 89 226 / 1;
#X obj 89 250 int;
#X obj 89 310 * 1;
#X obj 89 338 nbx 5 14 -1e+37 1e+37 0 0 empty empty empty 0 -8 0 10
-262144 -1 -1 0 256;
#X obj 89 275 max 1;
#X obj 178 228 spigot 1;
#X obj 89 202 spigot 0;
#X obj 209 187 == 0;
#X obj 153 310 nbx 5 14 -1e+37 1e+37 0 0 empty empty empty 0 -8 0 10
-262144 -1 -1 0 256;
#X msg 153 362 1/4 notes: \$1;
#X obj 106 80 / 1;
#X obj 106 55 nbx 5 14 -1e+37 1e+37 0 0 empty empty empty 0 -8 0 10
-262144 -1 -1 0 256;
#X obj 89 359 / 1;
#X obj 89 382 nbx 5 14 -1e+37 1e+37 0 0 empty empty empty 0 -8 0 10
-262144 -1 -1 0 256;
#X obj 153 155 t b f;
#X msg 19 157 15;
#X obj 19 111 t b a;
#X obj 19 134 t b a;
#X text 195 63 tempo sync;
#X obj 153 410 stdout;
#X obj 88 410 s len;
#X obj 151 129 r temposync;
#X obj 19 58 r bpm;
#X floatatom 52 32 5 0 0 0 - - -;
#X obj 153 329 change;
#X obj 19 79 change;
#X obj 106 29 r time-ms;
#X connect 0 0 1 0;
#X connect 1 0 2 0;
#X connect 2 0 3 0;
#X connect 3 0 6 1;
#X connect 3 0 8 1;
#X connect 4 0 12 0;
#X connect 4 0 11 0;
#X connect 5 0 4 0;
#X connect 6 0 7 0;
#X connect 7 0 10 0;
#X connect 8 0 9 0;
#X connect 9 0 18 0;
#X connect 10 0 8 0;
#X connect 10 0 14 0;
#X connect 11 0 9 0;
#X connect 12 0 6 0;
#X connect 13 0 11 1;
#X connect 14 0 30 0;
#X connect 15 0 25 0;
#X connect 16 0 4 0;
#X connect 17 0 16 0;
#X connect 18 0 19 0;
#X connect 19 0 26 0;
#X connect 20 0 4 0;
#X connect 20 1 13 0;
#X connect 20 1 12 1;
#X connect 21 0 0 0;
#X connect 22 0 4 0;
#X connect 22 1 23 0;
#X connect 23 0 21 0;
#X connect 23 1 0 1;
#X connect 27 0 20 0;
#X connect 28 0 29 0;
#X connect 28 0 31 0;
#X connect 30 0 15 0;
#X connect 31 0 22 0;
#X connect 32 0 17 0;
