#N canvas 601 290 547 669 10;
#X text 74 206 EQ;
#X obj 59 343 +~;
#X obj 141 342 +~;
#X msg 388 283 0;
#X obj 295 339 line 0 100;
#X obj 295 318 + 1;
#N canvas 66 50 584 502 m/s 0;
#X obj 69 442 outlet~;
#X obj 177 444 outlet~;
#X obj 68 202 +~;
#X obj 190 201 -~;
#X obj 69 347 +~;
#X obj 177 349 -~;
#X msg 412 74 \$1 100;
#X obj 412 95 line~;
#X obj 67 49 inlet~ left;
#X obj 206 46 inlet~ right;
#X obj 67 225 *~ 0.707107;
#X obj 191 224 *~ 0.707107;
#X obj 68 267 *~;
#X obj 142 164 sig~ 1;
#X obj 142 187 -~;
#X obj 192 272 *~;
#X obj 328 233 clip~ 0 1;
#X obj 219 170 clip~ 0 1;
#X obj 327 204 +~ 1;
#X obj 70 369 *~ 0.353554;
#X obj 178 372 *~ 0.353554;
#X obj 412 50 inlet width;
#X obj 192 293 hip~ 5;
#X obj 454 279 line 0 100;
#X msg 421 234 5;
#X msg 453 234 60;
#X msg 485 234 120;
#X msg 517 234 240;
#X obj 453 200 select 0 1 2 3;
#X obj 143 272 *~ 2;
#X floatatom 331 108 5 0 0 0 - - -;
#X obj 328 264 *~ 2;
#X floatatom 323 354 5 0 0 0 - - -;
#X obj 323 311 + 1;
#X obj 70 390 *~;
#X obj 178 393 *~;
#X obj 421 146 r loadbang-\$1;
#X obj 454 171 r l_hpf-\$1;
#X connect 2 0 10 0;
#X connect 3 0 11 0;
#X connect 4 0 19 0;
#X connect 5 0 20 0;
#X connect 6 0 7 0;
#X connect 6 0 30 0;
#X connect 7 0 18 0;
#X connect 7 0 17 0;
#X connect 8 0 2 0;
#X connect 8 0 3 0;
#X connect 9 0 2 1;
#X connect 9 0 3 1;
#X connect 10 0 12 0;
#X connect 11 0 15 0;
#X connect 12 0 4 0;
#X connect 12 0 5 0;
#X connect 13 0 14 0;
#X connect 14 0 29 0;
#X connect 15 0 4 1;
#X connect 15 0 22 0;
#X connect 16 0 31 0;
#X connect 17 0 14 1;
#X connect 18 0 16 0;
#X connect 19 0 34 0;
#X connect 20 0 35 0;
#X connect 21 0 6 0;
#X connect 22 0 5 1;
#X connect 23 0 22 1;
#X connect 24 0 23 0;
#X connect 25 0 23 0;
#X connect 26 0 23 0;
#X connect 27 0 23 0;
#X connect 28 0 24 0;
#X connect 28 1 25 0;
#X connect 28 2 26 0;
#X connect 28 3 27 0;
#X connect 29 0 12 1;
#X connect 30 0 33 0;
#X connect 31 0 15 1;
#X connect 32 0 35 1;
#X connect 32 0 34 1;
#X connect 33 0 32 0;
#X connect 34 0 0 0;
#X connect 35 0 1 0;
#X connect 36 0 24 0;
#X connect 37 0 28 0;
#X restore 59 311 pd m/s matrix;
#X f 14;
#X msg 386 249 20000;
#X text 92 20 MASTER EQ - PULTEC CURVES;
#X obj 295 297 / 300;
#X obj 388 221 r loadbang-\$1;
#X obj 295 276 r width-\$1;
#X obj 29 59 inlet~ inL-\$1;
#X obj 181 59 inlet~ inR-\$1;
#X obj 26 596 outlet~ outL-\$1;
#X obj 181 595 outlet~ outR-\$1;
#X obj 349 85 s aux-label-\$1;
#N canvas 4 50 717 373 EQP 0;
#X obj 45 207 filterortho~;
#X obj 46 138 filterortho~;
#X obj 45 172 filterortho~;
#X obj 47 50 inlet~ L;
#X obj 149 50 inlet~ R;
#X obj 46 312 outlet~ L;
#X obj 148 312 outlet~ R;
#X obj 147 207 filterortho~;
#X obj 148 138 filterortho~;
#X obj 147 172 filterortho~;
#X obj 493 47 r loadbang-\$1;
#X obj 257 64 r lf_boost-\$1;
#X obj 394 87 r lf_cut-\$1;
#X obj 482 127 r hf_boost-\$1;
#X obj 257 104 + 1;
#X obj 379 137 -;
#X msg 352 122 1;
#X obj 482 171 + 1;
#X obj 257 83 * 0.1;
#X msg 380 158 setEQ 180 2 \$1;
#X msg 256 124 setEQ 60 1 \$1;
#X msg 482 193 setEQ 10000 1 \$1;
#X obj 394 108 * 0.05;
#X obj 482 150 * 0.1;
#X obj 603 104 line 0 100;
#X obj 603 186 -;
#X msg 603 165 20000 \$1;
#X obj 603 144 pipe 60;
#X obj 603 207 i;
#X obj 603 83 r hf_cut-\$1;
#X obj 45 242 filterortho~;
#X obj 147 242 filterortho~;
#X msg 603 228 setLP \$1 1;
#X obj 603 123 * 1000;
#X msg 493 68 0;
#X connect 0 0 30 0;
#X connect 1 0 2 0;
#X connect 2 0 0 0;
#X connect 3 0 1 0;
#X connect 4 0 8 0;
#X connect 7 0 31 0;
#X connect 8 0 9 0;
#X connect 9 0 7 0;
#X connect 10 0 34 0;
#X connect 11 0 18 0;
#X connect 12 0 22 0;
#X connect 13 0 23 0;
#X connect 14 0 20 0;
#X connect 15 0 19 0;
#X connect 16 0 15 0;
#X connect 17 0 21 0;
#X connect 18 0 14 0;
#X connect 19 0 2 0;
#X connect 19 0 9 0;
#X connect 20 0 8 0;
#X connect 20 0 1 0;
#X connect 21 0 0 0;
#X connect 21 0 7 0;
#X connect 22 0 15 1;
#X connect 22 0 16 0;
#X connect 23 0 17 0;
#X connect 24 0 33 0;
#X connect 25 0 28 0;
#X connect 26 0 25 0;
#X connect 27 0 26 0;
#X connect 28 0 32 0;
#X connect 29 0 24 0;
#X connect 30 0 5 0;
#X connect 31 0 6 0;
#X connect 32 0 30 0;
#X connect 32 0 31 0;
#X connect 33 0 27 0;
#X connect 34 0 18 0;
#X connect 34 0 22 0;
#X connect 34 0 23 0;
#X connect 34 0 24 0;
#X restore 61 178 pd EQP;
#X f 7;
#X obj 416 441 r notesIn-\$1;
#X obj 416 462 unpack 0 0;
#X obj 470 487 tgl 15 0 empty empty empty 17 7 0 10 -262144 -1 -1 0
1;
#X obj 197 522 sig~;
#X obj 197 543 lop~ 5;
#X obj 389 544 - 1;
#X obj 42 521 sig~;
#X obj 42 542 lop~ 5;
#X obj 28 563 *~;
#X obj 182 562 *~;
#X obj 469 507 / 100;
#X msg 388 523 1 \$1;
#X obj 155 405 sig~;
#X obj 155 426 lop~ 5;
#X obj 73 405 sig~;
#X obj 73 426 lop~ 5;
#X obj 59 447 *~;
#X obj 140 446 *~;
#X obj 416 622 s aux-led-\$1;
#X obj 389 574 sel 1;
#X msg 389 608 7;
#X msg 420 598 3;
#N canvas 92 117 1267 706 Labels 0;
#X obj 69 225 outlet;
#X obj 395 137 r l_hpf-\$1;
#X msg 395 200 60;
#X msg 427 200 120;
#X msg 459 200 240;
#X obj 395 166 select 0 1 2 3;
#X obj 242 26 r activePage;
#X obj 242 49 unpack s s;
#X obj 242 70 sel \$1;
#X msg 241 95 1, f 2;
#X msg 271 95 0, f 2;
#X msg 299 94 1, f 2;
#X msg 354 93 0, f 2;
#X obj 290 128 &&;
#X obj 290 150 change;
#X obj 290 172 sel 1;
#X msg 187 186 ∆;
#X obj 365 233 int;
#X obj 299 71 sel pg_exp;
#X obj 290 199 delay 500;
#X msg 363 200 0;
#X obj 69 198 spigot 0;
#X obj 199 143 r loadbang-\$1;
#X obj 199 164 delay 1000;
#X msg 114 178 1;
#X obj 585 245 int;
#X obj 585 225 / 10;
#X obj 100 259 select 0 1 2 3 4 5 6 7 8 9 10;
#X obj 99 284 t b;
#X obj 131 284 t b;
#X obj 165 284 t b;
#X obj 199 284 t b;
#X obj 230 284 t b;
#X msg 365 256 \$1 Hz;
#X obj 34 177 list append;
#X obj 407 231 t b;
#X obj 260 284 t b;
#X msg 87 319 . . .<|>. . .;
#X msg 71 345 . . <<|>> . .;
#X msg 60 369 . .<<<|>>>. .;
#X msg 48 391 . <<<<|>>>> .;
#X msg 37 413 .<<<<<|>>>>>.;
#X msg 22 435 <<<<<<|>>>>>>;
#X msg 577 628 /oled/gFlip 3;
#X obj 156 380 r lf_boost-\$1;
#X obj 137 492 f;
#X obj 156 404 i;
#X obj 527 556 t b b b b b;
#X obj 361 485 f;
#X obj 375 372 r hf_boost-\$1;
#X msg 633 379 1, f 2;
#X msg 688 378 0, f 2;
#X obj 624 413 &&;
#X obj 624 435 change;
#X obj 624 457 sel 1;
#X obj 624 484 delay 500;
#X obj 633 356 sel pg_eqp;
#X msg 680 617 /oled/gFillArea 3 64 54 64 10 0;
#X msg 678 588 /oled/gFillArea 3 0 54 64 10 0;
#X obj 152 447 -;
#X msg 152 425 10 \$1;
#X obj 136 515 + 54;
#X msg 280 569 /oled/gInvertArea 3 0 \$1 63 10;
#X obj 360 514 + 54;
#X obj 375 395 i;
#X obj 371 438 -;
#X msg 371 416 10 \$1;
#X obj 371 459 min 8;
#X msg 316 612 /oled/gInvertArea 3 65 \$1 62 10;
#X obj 674 513 t b b b;
#X obj 527 482 t b;
#X obj 245 460 f;
#X obj 262 412 i;
#X obj 262 363 r lf_cut-\$1;
#X obj 184 515 pack 0 0;
#X obj 152 468 min 8;
#X msg 251 540 /oled/gInvertArea 3 33 \$1 30 \$2;
#X obj 468 473 f;
#X obj 485 408 i;
#X obj 407 511 pack 0 0;
#X obj 485 360 r hf_cut-\$1;
#X msg 280 650 /oled/gInvertArea 3 96 \$1 31 \$2;
#X obj 485 381 / 2;
#X obj 262 384 / 2;
#X obj 527 530 speedlim 60;
#X obj 527 506 pipe 60;
#X obj 585 195 r width-\$1;
#X obj 513 684 s oscOut;
#X obj 513 664 spigot 0;
#X msg 541 85 0;
#X msg 572 85 1;
#X obj 557 109 &&;
#X obj 557 131 change;
#X connect 1 0 5 0;
#X connect 2 0 17 0;
#X connect 3 0 17 0;
#X connect 4 0 17 0;
#X connect 5 0 20 0;
#X connect 5 1 2 0;
#X connect 5 2 3 0;
#X connect 5 3 4 0;
#X connect 6 0 7 0;
#X connect 7 0 8 0;
#X connect 7 1 18 0;
#X connect 7 1 56 0;
#X connect 8 0 9 0;
#X connect 8 1 10 0;
#X connect 9 0 13 0;
#X connect 9 0 52 0;
#X connect 9 0 91 0;
#X connect 10 0 13 0;
#X connect 10 0 52 0;
#X connect 10 0 91 0;
#X connect 11 0 13 1;
#X connect 12 0 13 1;
#X connect 13 0 14 0;
#X connect 14 0 15 0;
#X connect 15 0 19 0;
#X connect 15 1 16 0;
#X connect 16 0 0 0;
#X connect 17 0 33 0;
#X connect 17 0 35 0;
#X connect 18 0 11 0;
#X connect 18 0 89 0;
#X connect 18 1 12 0;
#X connect 18 1 90 0;
#X connect 19 0 17 0;
#X connect 20 0 17 0;
#X connect 21 0 0 0;
#X connect 22 0 23 0;
#X connect 22 0 16 0;
#X connect 23 0 24 0;
#X connect 24 0 21 1;
#X connect 25 0 27 0;
#X connect 26 0 25 0;
#X connect 27 0 28 0;
#X connect 27 1 29 0;
#X connect 27 2 29 0;
#X connect 27 3 30 0;
#X connect 27 4 30 0;
#X connect 27 5 31 0;
#X connect 27 6 31 0;
#X connect 27 7 32 0;
#X connect 27 8 32 0;
#X connect 27 9 36 0;
#X connect 27 10 36 0;
#X connect 28 0 37 0;
#X connect 29 0 38 0;
#X connect 30 0 39 0;
#X connect 31 0 40 0;
#X connect 32 0 41 0;
#X connect 33 0 34 1;
#X connect 34 0 21 0;
#X connect 35 0 25 0;
#X connect 36 0 42 0;
#X connect 37 0 34 0;
#X connect 38 0 34 0;
#X connect 39 0 34 0;
#X connect 40 0 34 0;
#X connect 41 0 34 0;
#X connect 42 0 34 0;
#X connect 43 0 88 0;
#X connect 44 0 46 0;
#X connect 45 0 61 0;
#X connect 46 0 60 0;
#X connect 46 0 70 0;
#X connect 47 2 43 0;
#X connect 47 3 45 0;
#X connect 47 3 48 0;
#X connect 47 3 71 0;
#X connect 47 3 77 0;
#X connect 47 4 58 0;
#X connect 47 4 57 0;
#X connect 48 0 63 0;
#X connect 49 0 64 0;
#X connect 50 0 52 1;
#X connect 51 0 52 1;
#X connect 52 0 53 0;
#X connect 53 0 54 0;
#X connect 54 0 55 0;
#X connect 54 1 69 0;
#X connect 55 0 47 0;
#X connect 56 0 50 0;
#X connect 56 1 51 0;
#X connect 57 0 88 0;
#X connect 58 0 88 0;
#X connect 59 0 75 0;
#X connect 60 0 59 0;
#X connect 61 0 62 0;
#X connect 61 0 74 0;
#X connect 62 0 88 0;
#X connect 63 0 68 0;
#X connect 63 0 79 0;
#X connect 64 0 66 0;
#X connect 64 0 70 0;
#X connect 65 0 67 0;
#X connect 66 0 65 0;
#X connect 67 0 48 1;
#X connect 68 0 88 0;
#X connect 69 0 43 0;
#X connect 69 1 57 0;
#X connect 69 2 58 0;
#X connect 70 0 85 0;
#X connect 71 0 74 1;
#X connect 72 0 70 0;
#X connect 72 0 71 1;
#X connect 73 0 83 0;
#X connect 74 0 76 0;
#X connect 75 0 45 1;
#X connect 76 0 88 0;
#X connect 77 0 79 1;
#X connect 78 0 70 0;
#X connect 78 0 77 1;
#X connect 79 0 81 0;
#X connect 80 0 82 0;
#X connect 81 0 88 0;
#X connect 82 0 78 0;
#X connect 83 0 72 0;
#X connect 84 0 47 0;
#X connect 85 0 84 0;
#X connect 86 0 26 0;
#X connect 88 0 87 0;
#X connect 89 0 91 1;
#X connect 90 0 91 1;
#X connect 91 0 92 0;
#X connect 92 0 88 1;
#X restore 349 54 pd Labels;
#X connect 1 0 34 0;
#X connect 2 0 35 0;
#X connect 3 0 9 0;
#X connect 3 0 29 0;
#X connect 5 0 4 0;
#X connect 6 0 1 0;
#X connect 6 1 2 0;
#X connect 9 0 5 0;
#X connect 9 0 6 2;
#X connect 10 0 3 0;
#X connect 10 0 7 0;
#X connect 11 0 9 0;
#X connect 12 0 17 0;
#X connect 12 0 26 0;
#X connect 13 0 17 1;
#X connect 13 0 27 0;
#X connect 17 0 6 0;
#X connect 17 1 6 1;
#X connect 18 0 19 0;
#X connect 19 1 20 0;
#X connect 20 0 28 0;
#X connect 21 0 22 0;
#X connect 22 0 27 1;
#X connect 23 0 30 0;
#X connect 23 0 32 0;
#X connect 23 0 37 0;
#X connect 24 0 25 0;
#X connect 25 0 26 1;
#X connect 26 0 14 0;
#X connect 27 0 15 0;
#X connect 28 0 29 0;
#X connect 28 0 21 0;
#X connect 28 0 24 0;
#X connect 29 0 23 0;
#X connect 30 0 31 0;
#X connect 31 0 35 1;
#X connect 32 0 33 0;
#X connect 33 0 34 1;
#X connect 34 0 14 0;
#X connect 35 0 15 0;
#X connect 37 0 38 0;
#X connect 37 1 39 0;
#X connect 38 0 36 0;
#X connect 39 0 36 0;
#X connect 40 0 16 0;
