#N canvas 812 328 364 330 10;
#X text 155 28 resonance;
#X obj 205 186 *~;
#X obj 94 186 *~;
#X obj 95 223 +~;
#X obj 222 57 /~ 127;
#X obj 112 140 *~ -1;
#X obj 112 163 +~ 1;
#X obj 93 28 inlet~;
#X obj 222 28 inlet~;
#X obj 94 262 outlet~;
#X text 26 28 Enveloppe;
#X obj 107 80 *~ 2.27;
#X obj 107 57 lop~ 3.48;
#X connect 1 0 3 1;
#X connect 2 0 3 0;
#X connect 3 0 9 0;
#X connect 4 0 1 1;
#X connect 4 0 5 0;
#X connect 5 0 6 0;
#X connect 6 0 2 1;
#X connect 7 0 2 0;
#X connect 7 0 12 0;
#X connect 8 0 4 0;
#X connect 11 0 1 0;
#X connect 12 0 11 0;
