#N canvas 489 135 624 734 10;
#X obj 212 67 inlet;
#X obj 212 132 unpack f f;
#X obj 140 279 sig~;
#X obj 140 306 lop~ 7.23;
#X obj 139 376 *~;
#X obj 279 344 == 0;
#X obj 244 279 sig~;
#X obj 244 376 *~;
#X text 170 533 Freq. (Hz);
#X text 54 67 MIDI pitch \, legato 1/0;
#X obj 180 344 == 1;
#X obj 244 533 outlet~;
#X obj 244 461 mtof~;
#X obj 534 67 inlet;
#X text 488 67 tuning;
#X obj 212 198 +;
#X obj 212 226 t f f;
#X obj 245 424 +~;
#X obj 534 89 sig~;
#X obj 534 111 lop~ 10;
#X floatatom 336 213 5 0 0 0 - - -;
#X floatatom 164 177 5 0 0 0 - - -;
#X obj 315 504 snapshot~;
#X floatatom 315 525 5 0 0 0 - - -;
#X msg 325 446 bang;
#X connect 0 0 1 0;
#X connect 1 0 15 0;
#X connect 1 0 21 0;
#X connect 1 1 5 0;
#X connect 1 1 10 0;
#X connect 1 1 20 0;
#X connect 2 0 3 0;
#X connect 3 0 4 0;
#X connect 4 0 17 0;
#X connect 5 0 7 1;
#X connect 6 0 7 0;
#X connect 7 0 17 0;
#X connect 10 0 4 1;
#X connect 12 0 11 0;
#X connect 12 0 22 0;
#X connect 13 0 18 0;
#X connect 15 0 16 0;
#X connect 16 0 2 0;
#X connect 16 1 6 0;
#X connect 17 0 12 0;
#X connect 18 0 19 0;
#X connect 19 0 17 1;
#X connect 22 0 23 0;
#X connect 24 0 22 0;
#X coords 0 734 1 733 120 180 0;
