#N canvas 264 121 1383 764 10;
#X obj 163 425 vline~;
#X obj 163 44 inlet~;
#X obj 163 699 outlet~;
#X obj 163 69 threshold~ 0.5 1 0.5 1;
#X obj 163 483 *~;
#X obj 163 453 *~;
#X text 131 44 Gate;
#X obj 684 44 inlet~;
#X obj 384 44 inlet;
#X obj 384 69 / 127;
#X text 345 44 decay;
#X msg 314 381 0 2 150;
#X obj 684 69 threshold~ 0.5 1 0.5 1;
#X msg 684 95 1;
#X msg 835 95 0;
#X msg 251 173 set \$1;
#X msg 163 300 340;
#X obj 164 520 *~;
#X text 868 44 env.mod.;
#X obj 666 699 outlet~;
#X obj 1087 44 inlet~;
#X obj 1087 69 /~ 127;
#X obj 928 44 inlet~;
#X obj 928 69 /~ 127;
#X obj 384 95 * 10200;
#X obj 928 120 +~ 12;
#X obj 928 95 *~ 54;
#X obj 666 674 *~;
#X obj 684 200 * 12;
#X obj 666 558 *~;
#X obj 1221 699 outlet~;
#X obj 1238 44 inlet~;
#X obj 1238 69 /~ 127;
#X obj 1221 638 *~;
#X text 589 44 accent signal;
#X text 564 699 Envelope (ASC);
#X text 1120 699 Envelope (VCA);
#X text 61 699 Envelope (VCF);
#X text 1013 44 accent-vcf;
#X text 1164 44 accent-vca;
#X msg 229 323 1 2 0;
#X msg 163 323 0 \$1 2;
#X obj 251 150 float;
#X obj 241 242 select 1;
#X obj 163 95 t b b b b;
#X obj 241 219 float;
#X obj 384 120 + 340;
#X msg 241 265 set 340;
#X msg 230 381 0 340 2;
#X obj 76 218 snapshot~;
#X floatatom 76 239 5 0 0 0 - - -;
#X msg 58 183 bang;
#X connect 0 0 5 0;
#X connect 0 0 5 1;
#X connect 1 0 3 0;
#X connect 3 0 44 0;
#X connect 3 0 49 0;
#X connect 3 1 11 0;
#X connect 4 0 17 0;
#X connect 4 0 29 0;
#X connect 5 0 4 1;
#X connect 5 0 4 0;
#X connect 7 0 12 0;
#X connect 8 0 9 0;
#X connect 9 0 24 0;
#X connect 11 0 0 0;
#X connect 12 0 13 0;
#X connect 12 1 14 0;
#X connect 13 0 28 0;
#X connect 13 0 48 0;
#X connect 13 0 45 1;
#X connect 14 0 28 0;
#X connect 14 0 45 1;
#X connect 15 0 16 0;
#X connect 16 0 41 0;
#X connect 17 0 2 0;
#X connect 20 0 21 0;
#X connect 21 0 27 1;
#X connect 22 0 23 0;
#X connect 23 0 26 0;
#X connect 24 0 46 0;
#X connect 25 0 17 1;
#X connect 26 0 25 0;
#X connect 27 0 19 0;
#X connect 28 0 29 1;
#X connect 29 0 33 0;
#X connect 29 0 27 0;
#X connect 31 0 32 0;
#X connect 32 0 33 1;
#X connect 33 0 30 0;
#X connect 40 0 0 0;
#X connect 41 0 0 0;
#X connect 42 0 15 0;
#X connect 43 0 47 0;
#X connect 44 0 16 0;
#X connect 44 1 40 0;
#X connect 44 2 45 0;
#X connect 44 3 42 0;
#X connect 45 0 43 0;
#X connect 46 0 42 1;
#X connect 47 0 16 0;
#X connect 48 0 0 0;
#X connect 49 0 50 0;
#X connect 51 0 49 0;
