#N canvas -8 -8 1920 998 10;
#X obj 405 44 poly 2;
#X obj 618 699 float;
#X obj 426 816 pack f f;
#X msg 479 768 0;
#X obj 500 212 bag;
#X msg 500 234 \$1 1;
#X msg 401 189 flush;
#X obj 452 281 poly 2;
#X obj 405 67 pack f f f;
#X obj 437 114 list split 1;
#X obj 383 281 bag;
#X msg 383 212 flush;
#X obj 452 304 pack f f;
#X msg 383 304 \$1 1;
#X msg 364 234 clear;
#X obj 541 163 unpack f f;
#X obj 405 90 t b l;
#X obj 452 327 route 1 2;
#X obj 413 508 ==;
#X obj 450 414 float;
#X obj 388 414 float;
#X obj 450 470 select -1;
#X obj 353 470 select -1;
#X obj 510 508 ==;
#X msg 353 508 2;
#X msg 450 508 2;
#X obj 450 536 * 4;
#X obj 353 558 +;
#X obj 543 728 float;
#X msg 420 379 -1;
#X msg 452 379 -1;
#X obj 420 353 t b b;
#X obj 477 139 t b l l;
#X obj 541 470 t f f f;
#X obj 346 379 t b b;
#X obj 252 536 float;
#X obj 353 681 t b b;
#X msg 411 627 0;
#X obj 346 163 t b b b b b;
#X obj 252 508 spigot;
#X obj 318 470 !=;
#X obj 353 441 t f f f;
#X obj 252 625 t f f;
#X obj 405 7 inlet;
#X obj 555 699 t b b;
#X obj 441 607 t b b;
#X msg 433 768 1;
#X obj 576 866 legato;
#X text 338 7 MIDI note;
#X text 261 816 MIDI pitch + legato 1/0;
#X text 474 915 Frequency (Hz);
#X obj 1018 812 moses 100;
#X msg 1018 839 0;
#X msg 1078 839 1;
#X obj 353 581 select 8 9 10;
#X obj 382 654 t b b b;
#X msg 522 768 1;
#X text 930 915 accent (0/1);
#X text 720 915 Gate (0/1);
#X obj 576 915 outlet~;
#X obj 794 865 sig~;
#X obj 794 915 outlet~;
#X obj 1018 869 sig~;
#X obj 1018 915 outlet~;
#X obj 940 7 inlet;
#X obj 1069 7 inlet;
#X obj 940 173 +;
#X obj 1069 88 t b f;
#X obj 940 137 float;
#X text 873 7 Semitones;
#X text 1030 7 cents;
#X obj 1069 29 / 100;
#X obj 940 29 int;
#X connect 0 0 8 0;
#X connect 0 1 8 1;
#X connect 0 2 8 2;
#X connect 1 0 51 0;
#X connect 2 0 47 0;
#X connect 3 0 2 1;
#X connect 4 0 5 0;
#X connect 5 0 7 0;
#X connect 5 0 10 0;
#X connect 6 0 4 0;
#X connect 7 0 12 0;
#X connect 7 1 12 1;
#X connect 8 0 16 0;
#X connect 9 1 32 0;
#X connect 10 0 13 0;
#X connect 11 0 10 0;
#X connect 12 0 17 0;
#X connect 13 0 4 0;
#X connect 14 0 7 0;
#X connect 15 0 33 0;
#X connect 15 1 1 1;
#X connect 16 1 9 0;
#X connect 17 0 20 1;
#X connect 17 1 19 1;
#X connect 18 0 27 0;
#X connect 19 0 21 0;
#X connect 20 0 41 0;
#X connect 21 0 25 0;
#X connect 21 1 23 0;
#X connect 22 0 24 0;
#X connect 22 1 18 0;
#X connect 23 0 26 0;
#X connect 24 0 27 0;
#X connect 25 0 26 0;
#X connect 26 0 27 1;
#X connect 27 0 54 0;
#X connect 28 0 42 0;
#X connect 29 0 20 1;
#X connect 30 0 19 1;
#X connect 31 0 29 0;
#X connect 31 1 30 0;
#X connect 32 0 38 0;
#X connect 32 1 4 0;
#X connect 32 2 15 0;
#X connect 33 0 18 1;
#X connect 33 1 23 1;
#X connect 33 2 28 1;
#X connect 34 0 20 0;
#X connect 34 1 19 0;
#X connect 35 0 42 0;
#X connect 36 0 39 0;
#X connect 36 1 46 0;
#X connect 37 0 1 0;
#X connect 37 0 60 0;
#X connect 38 0 34 0;
#X connect 38 1 14 0;
#X connect 38 2 11 0;
#X connect 38 3 6 0;
#X connect 38 4 31 0;
#X connect 39 0 35 0;
#X connect 40 0 39 1;
#X connect 41 0 22 0;
#X connect 41 1 40 0;
#X connect 41 2 35 1;
#X connect 42 0 40 1;
#X connect 42 1 2 0;
#X connect 43 0 0 0;
#X connect 44 0 28 0;
#X connect 44 1 1 0;
#X connect 45 0 44 0;
#X connect 45 1 46 0;
#X connect 46 0 2 1;
#X connect 47 0 59 0;
#X connect 51 0 52 0;
#X connect 51 1 53 0;
#X connect 52 0 62 0;
#X connect 53 0 62 0;
#X connect 54 0 36 0;
#X connect 54 1 55 0;
#X connect 54 2 37 0;
#X connect 54 3 45 0;
#X connect 55 0 44 0;
#X connect 55 1 3 0;
#X connect 55 2 56 0;
#X connect 56 0 60 0;
#X connect 60 0 61 0;
#X connect 62 0 63 0;
#X connect 64 0 72 0;
#X connect 65 0 71 0;
#X connect 66 0 47 1;
#X connect 67 0 68 0;
#X connect 67 1 66 1;
#X connect 68 0 66 0;
#X connect 71 0 67 0;
#X connect 72 0 68 0;
#X coords 0 998 1 997 120 180 0;
