#N canvas 437 127 493 271 10;
#X obj 33 30 r loadbang-\$1;
#X obj 117 217 outlet~ outL-\$1;
#X obj 219 217 outlet~ outR-\$1;
#X obj 301 80 inlet~ inL;
#X obj 385 80 inlet~ inR;
#X obj 301 30 r expIn-\$1;
#X obj 395 56 r fsIn-\$1;
#X obj 301 55 s notesOut-\$1;
#X obj 377 30 s ctrlOut-\$1;
#X text 194 173 Pd~ subprocess;
#X obj 33 175 pd~ -ninsig 0 -noutsig 2;
#N canvas 4 50 1007 676 subparams 0;
#X obj 443 444 outlet;
#X obj 127 282 r notesIn-\$1;
#X obj 127 303 unpack 0 0;
#X msg 110 335 notes \$1;
#X msg 180 335 velocity \$1;
#X obj 640 266 r ctrlIn-\$1;
#X obj 640 287 unpack 0 0 0;
#X floatatom 639 309 5 0 0 0 - - -;
#X floatatom 707 311 5 0 0 0 - - -;
#X floatatom 809 311 5 0 0 0 - - -;
#X msg 639 335 valuem \$1;
#X msg 809 335 channelm \$1;
#X msg 707 335 controllerm \$1;
#X obj 68 88 r amount-\$1;
#X msg 68 109 amount \$1;
#X obj 224 88 r mix-\$1;
#X msg 224 109 mix \$1;
#X obj 366 88 r cents-\$1;
#X msg 366 109 cents \$1;
#X obj 524 88 r semi-\$1;
#X msg 524 109 semi \$1;
#X obj 677 88 r pw-\$1;
#X msg 677 109 pw \$1;
#X obj 831 88 r boost-\$1;
#X msg 831 109 boost \$1;
#X obj 69 138 r dcoffset-\$1;
#X msg 69 159 dcoffset \$1;
#X obj 221 138 r mute-\$1;
#X msg 221 159 mute \$1;
#X obj 366 138 r sat-\$1;
#X msg 366 159 sat \$1;
#X obj 520 138 r accent-\$1;
#X msg 520 159 accent \$1;
#X obj 679 138 r decay-\$1;
#X msg 679 159 decay \$1;
#X obj 830 138 r env-\$1;
#X msg 830 159 env \$1;
#X obj 68 195 r res-\$1;
#X msg 68 216 res \$1;
#X obj 222 195 r cutoff-\$1;
#X msg 222 216 cutoff \$1;
#X obj 366 195 r waveform-\$1;
#X msg 366 216 waveform \$1;
#X obj 520 195 r oversample-\$1;
#X msg 520 216 oversample \$1;
#X obj 679 195 r vol-\$1;
#X msg 679 216 vol \$1;
#X connect 1 0 2 0;
#X connect 2 0 3 0;
#X connect 2 1 4 0;
#X connect 3 0 0 0;
#X connect 4 0 0 0;
#X connect 5 0 6 0;
#X connect 6 0 7 0;
#X connect 6 1 8 0;
#X connect 6 2 9 0;
#X connect 7 0 10 0;
#X connect 8 0 12 0;
#X connect 9 0 11 0;
#X connect 10 0 0 0;
#X connect 11 0 0 0;
#X connect 12 0 0 0;
#X connect 13 0 14 0;
#X connect 14 0 0 0;
#X connect 15 0 16 0;
#X connect 16 0 0 0;
#X connect 17 0 18 0;
#X connect 18 0 0 0;
#X connect 19 0 20 0;
#X connect 20 0 0 0;
#X connect 21 0 22 0;
#X connect 22 0 0 0;
#X connect 23 0 24 0;
#X connect 24 0 0 0;
#X connect 25 0 26 0;
#X connect 26 0 0 0;
#X connect 27 0 28 0;
#X connect 28 0 0 0;
#X connect 29 0 30 0;
#X connect 30 0 0 0;
#X connect 31 0 32 0;
#X connect 32 0 0 0;
#X connect 33 0 34 0;
#X connect 34 0 0 0;
#X connect 35 0 36 0;
#X connect 36 0 0 0;
#X connect 37 0 38 0;
#X connect 38 0 0 0;
#X connect 39 0 40 0;
#X connect 40 0 0 0;
#X connect 41 0 42 0;
#X connect 42 0 0 0;
#X connect 43 0 44 0;
#X connect 44 0 0 0;
#X connect 45 0 46 0;
#X connect 46 0 0 0;
#X restore 166 123 pd subparams;
#X text 252 123 subprocess parameters;
#N canvas 121 50 949 829 oled 0;
#X obj 330 306 sel \$1;
#X obj 330 288 unpack s s;
#X msg 330 324 1;
#X msg 363 324 0;
#X obj 330 352 change;
#N canvas 951 297 511 678 waveformReader 0;
#X obj 56 16 inlet;
#X obj 221 529 list prepend;
#X obj 71 319 until;
#X obj 71 347 f 0;
#X obj 329 529 t l;
#X obj 71 365 i;
#X obj 71 401 * 0.5;
#X obj 71 419 + 0.5;
#X obj 71 491 i;
#X msg 19 529 sendtyped /oled/gWaveform ib 3;
#X obj 19 657 list append;
#X obj 19 675 list trim;
#X obj 19 693 outlet;
#X msg 107 319 0;
#N canvas 4 50 450 250 (subpatch) 0;
#X array scope-\$1 8320 float 2;
#X coords 0 1 8320 -1 128 64 1 0 0;
#X restore 271 94 graph;
#X obj 56 34 t b b b b b b;
#X obj 140 34 inlet~;
#X obj 131 90 tabwrite~ scope-\$1;
#X obj 71 383 tabread scope-\$1;
#X msg 71 297 128;
#X obj 197 208 + 1;
#X floatatom 197 236 5 0 0 0 - - -;
#X obj 197 154 * -1;
#X obj 197 172 + 1;
#X obj 197 190 * 12;
#X obj 286 180 inlet;
#X obj 115 347 + 13;
#X obj 197 136 spigot;
#X msg 307 208 13;
#X obj 257 170 tgl 15 0 empty empty empty 17 7 0 10 -262144 -1 -1 0
1;
#X obj 197 108 r oknob3;
#X obj 71 437 * 14;
#X obj 71 455 + 50;
#X obj 71 473 clip 50 64;
#X connect 0 0 15 0;
#X connect 1 0 4 0;
#X connect 1 0 10 1;
#X connect 2 0 3 0;
#X connect 3 0 5 0;
#X connect 3 0 26 0;
#X connect 4 0 1 1;
#X connect 5 0 18 0;
#X connect 6 0 7 0;
#X connect 7 0 31 0;
#X connect 8 0 1 0;
#X connect 9 0 10 0;
#X connect 10 0 11 0;
#X connect 11 0 12 0;
#X connect 13 0 3 1;
#X connect 15 0 9 0;
#X connect 15 1 19 0;
#X connect 15 2 13 0;
#X connect 15 3 1 0;
#X connect 15 4 1 1;
#X connect 15 5 17 0;
#X connect 16 0 17 0;
#X connect 18 0 6 0;
#X connect 19 0 2 0;
#X connect 20 0 21 0;
#X connect 21 0 26 1;
#X connect 22 0 23 0;
#X connect 23 0 24 0;
#X connect 24 0 20 0;
#X connect 25 0 29 0;
#X connect 25 0 28 0;
#X connect 26 0 3 1;
#X connect 27 0 22 0;
#X connect 28 0 21 0;
#X connect 29 0 27 1;
#X connect 30 0 27 0;
#X connect 31 0 32 0;
#X connect 32 0 33 0;
#X connect 33 0 8 0;
#X restore 349 573 pd waveformReader;
#X msg 257 573 /oled/gFlip 3;
#X text 526 395 page and module is active;
#X obj 330 447 metro 40;
#X obj 514 522 clip~ -0.99 0.99;
#X obj 514 486 +~;
#X obj 514 504 /~ 2;
#X obj 330 370 sel 1, f 20;
#X obj 330 412 delay 500;
#X msg 447 398 stop;
#X msg 57 573 /oled/gFillArea 3 0 50 128 14 0;
#X obj 330 465 t b b b;
#X msg 467 573 /oled/gFillArea 3 0 50 128 14 0;
#X msg 756 644 /oled/aux/clear 1;
#X msg 696 756 /oled/setscreen 1;
#X msg 701 830 /oled/setscreen 3;
#X msg 662 886 /oled/aux/clear 1;
#X obj 662 608 sel 0 1;
#X msg 681 784 6;
#X obj 538 879 s aux-led-\$1;
#X obj 662 812 t b b b;
#X msg 681 858 0;
#X obj 667 508 cputime;
#X obj 667 472 metro 1000;
#X obj 667 490 t b b, f 7;
#X obj 667 544 * 0.1;
#X obj 667 526 int;
#X msg 667 580 /oled/aux/line/4 CPU = \$1 %;
#X obj 667 562 min 100;
#X obj 681 626 t b b b b b b;
#X msg 726 700 /oled/aux/line/2 Mutable Instruments;
#X msg 711 728 /oled/aux/line/3 Plaits x 6;
#X msg 345 224 selectpage \$1;
#X obj 345 242 s rackMsgs;
#X obj 345 150 % 6;
#X obj 345 168 + 2;
#X obj 345 196 change;
#X msg 402 182 0;
#X obj 345 132 spigot 0;
#X obj 255 54 stripnote;
#X msg 673 426 1;
#X msg 433 210 0;
#X obj 255 72 moses 77;
#X obj 300 90 moses 78;
#X obj 345 108 moses 85, f 10;
#X msg 543 210 8;
#X obj 255 36 spigot 0;
#X msg 741 672 /oled/aux/line/1 Fusion (1.5);
#X obj 484 454 inlet~;
#X obj 534 454 inlet~;
#X obj 349 900 s oscOutRaw;
#X obj 330 270 r activePage;
#X obj 662 455 r auxIn-\$1;
#X obj 255 18 r onotes;
#X connect 0 0 2 0;
#X connect 0 1 3 0;
#X connect 1 0 0 0;
#X connect 2 0 4 0;
#X connect 3 0 4 0;
#X connect 3 0 43 1;
#X connect 4 0 12 0;
#X connect 4 0 51 1;
#X connect 5 0 55 0;
#X connect 6 0 55 0;
#X connect 8 0 16 0;
#X connect 9 0 5 1;
#X connect 10 0 11 0;
#X connect 11 0 9 0;
#X connect 12 0 13 0;
#X connect 12 1 14 0;
#X connect 12 1 15 0;
#X connect 13 0 8 0;
#X connect 13 0 45 0;
#X connect 14 0 13 0;
#X connect 14 0 8 0;
#X connect 15 0 55 0;
#X connect 16 0 6 0;
#X connect 16 1 5 0;
#X connect 16 2 17 0;
#X connect 17 0 55 0;
#X connect 18 0 55 0;
#X connect 19 0 55 0;
#X connect 20 0 55 0;
#X connect 21 0 55 0;
#X connect 22 0 25 0;
#X connect 22 1 34 0;
#X connect 23 0 24 0;
#X connect 25 0 21 0;
#X connect 25 1 26 0;
#X connect 25 2 20 0;
#X connect 26 0 24 0;
#X connect 27 0 31 0;
#X connect 28 0 29 0;
#X connect 29 0 27 0;
#X connect 29 1 27 1;
#X connect 30 0 33 0;
#X connect 31 0 30 0;
#X connect 32 0 55 0;
#X connect 33 0 32 0;
#X connect 34 0 23 0;
#X connect 34 1 19 0;
#X connect 34 2 36 0;
#X connect 34 3 35 0;
#X connect 34 4 52 0;
#X connect 34 5 18 0;
#X connect 35 0 55 0;
#X connect 36 0 55 0;
#X connect 37 0 38 0;
#X connect 39 0 40 0;
#X connect 40 0 41 0;
#X connect 41 0 37 0;
#X connect 42 0 41 0;
#X connect 43 0 39 0;
#X connect 44 0 47 0;
#X connect 45 0 43 1;
#X connect 46 0 37 0;
#X connect 47 1 48 0;
#X connect 48 0 50 0;
#X connect 48 1 49 0;
#X connect 49 0 43 0;
#X connect 49 1 42 0;
#X connect 50 0 37 0;
#X connect 51 0 44 0;
#X connect 52 0 55 0;
#X connect 53 0 10 0;
#X connect 54 0 10 1;
#X connect 56 0 1 0;
#X connect 57 0 22 0;
#X connect 57 0 28 0;
#X connect 57 0 46 0;
#X connect 58 0 51 0;
#X restore 33 217 pd oled;
#X msg 33 51 pd~ start -nogui pd~-ylb303.pd;
#X connect 0 0 14 0;
#X connect 10 1 1 0;
#X connect 10 1 13 0;
#X connect 10 2 2 0;
#X connect 10 2 13 1;
#X connect 11 0 10 0;
#X connect 14 0 10 0;
