#N canvas 701 283 723 341 10;
#X obj 317 46 inlet~;
#X obj 108 252 outlet~;
#X obj 108 46 inlet~;
#X obj 109 214 *~;
#X obj 199 46 inlet~;
#X obj 300 184 +~;
#X text 69 252 audio;
#X text 292 46 VEG;
#X text 69 46 audio;
#X obj 486 46 inlet~;
#X text 174 46 MEG;
#X obj 198 83 lop~ 102.614;
#X obj 197 159 *~;
#X obj 486 134 vline~;
#X obj 486 83 threshold~ 0.5 1 0.5 1;
#X msg 637 108 0 2;
#X msg 486 108 1 2;
#X obj 198 108 *~ 0.68;
#X text 391 46 accent signal;
#X connect 0 0 5 1;
#X connect 2 0 3 0;
#X connect 3 0 1 0;
#X connect 4 0 11 0;
#X connect 5 0 3 1;
#X connect 9 0 14 0;
#X connect 11 0 17 0;
#X connect 12 0 5 0;
#X connect 13 0 12 1;
#X connect 14 0 16 0;
#X connect 14 1 15 0;
#X connect 15 0 13 0;
#X connect 16 0 13 0;
#X connect 17 0 12 0;
