#N canvas 833 349 1048 578 10;
#X obj 388 360 bob~, f 8;
#X obj 290 34 inlet~;
#X obj 485 538 outlet~;
#X obj 79 34 inlet~;
#X obj 430 34 inlet~;
#X text 446 538 audio;
#X text 151 34 cutoff;
#X text 509 34 res.;
#X obj 272 132 +~;
#X text 265 34 MEG;
#X text 40 34 audio;
#X msg 742 237 saturation \$1;
#X msg 875 261 oversample \$1;
#X text 604 34 saturation;
#X obj 486 415 bob~, f 8;
#X obj 486 458 *~;
#X obj 197 58 /~ 127;
#X obj 197 81 *~ 39;
#X obj 197 103 +~ 60;
#X obj 413 255 mtof~;
#X obj 197 34 inlet~;
#X obj 541 34 inlet~;
#X obj 541 58 /~ 16129;
#X obj 540 255 *~ 304;
#X obj 678 34 inlet~;
#X obj 678 58 *~ -1;
#X obj 678 81 +~ 127;
#X obj 678 103 /~ 127;
#X obj 678 178 +~ 0.05;
#X obj 678 415 pow~ -1;
#X obj 742 178 metro 1;
#X obj 742 214 snapshot~;
#X msg 742 153 1;
#X msg 953 294 clear;
#X obj 413 178 +~;
#X obj 430 103 ASC;
#X text 356 34 MEG to ASC;
#X obj 875 34 inlet;
#X text 787 34 oversampling;
#X obj 413 206 clip~ 1 127;
#X obj 678 153 *~ 0.95;
#X obj 486 490 hip~ 72;
#X obj 742 126 loadbang;
#X connect 0 0 14 0;
#X connect 1 0 8 1;
#X connect 3 0 0 0;
#X connect 4 0 35 0;
#X connect 8 0 34 0;
#X connect 11 0 0 0;
#X connect 11 0 14 0;
#X connect 12 0 0 0;
#X connect 12 0 14 0;
#X connect 14 0 15 0;
#X connect 15 0 41 0;
#X connect 16 0 17 0;
#X connect 17 0 18 0;
#X connect 18 0 8 0;
#X connect 19 0 0 1;
#X connect 19 0 14 1;
#X connect 20 0 16 0;
#X connect 21 0 22 0;
#X connect 21 0 35 1;
#X connect 22 0 23 0;
#X connect 23 0 0 2;
#X connect 23 0 14 2;
#X connect 24 0 25 0;
#X connect 25 0 26 0;
#X connect 26 0 27 0;
#X connect 27 0 40 0;
#X connect 28 0 29 0;
#X connect 28 0 31 0;
#X connect 29 0 15 1;
#X connect 30 0 31 0;
#X connect 31 0 11 0;
#X connect 32 0 30 0;
#X connect 33 0 0 0;
#X connect 33 0 14 0;
#X connect 34 0 39 0;
#X connect 35 0 34 1;
#X connect 37 0 12 0;
#X connect 39 0 19 0;
#X connect 40 0 28 0;
#X connect 41 0 2 0;
#X connect 42 0 32 0;
