#N canvas 621 231 479 377 10;
#X obj 111 122 bl-saw.mmb~;
#X obj 255 122 bl-pulse.mmb~;
#X obj 110 17 inlet~;
#X obj 255 305 outlet~;
#X obj 240 17 inlet;
#X text 71 17 freq.;
#X text 180 17 waveform;
#X obj 254 201 *~;
#X obj 189 178 + 1;
#X obj 189 156 * -1;
#X obj 110 201 *~;
#X text 216 305 audio;
#X obj 240 39 t f f;
#X obj 343 17 inlet~;
#X text 325 17 PW;
#X obj 343 88 /~ 256;
#X obj 343 39 *~ -1;
#X obj 343 60 +~ 127;
#X connect 0 0 10 0;
#X connect 1 0 7 0;
#X connect 2 0 0 0;
#X connect 2 0 1 0;
#X connect 4 0 12 0;
#X connect 7 0 3 0;
#X connect 8 0 10 1;
#X connect 9 0 8 0;
#X connect 10 0 3 0;
#X connect 12 0 9 0;
#X connect 12 1 7 1;
#X connect 13 0 16 0;
#X connect 15 0 1 1;
#X connect 16 0 17 0;
#X connect 17 0 15 0;
