#N canvas 781 136 445 340 10;
#X obj 163 164 vline~;
#X obj 163 42 inlet~;
#X obj 162 278 outlet~;
#X obj 163 95 threshold~ 0.5 1 0.5 1;
#X obj 163 223 *~;
#X obj 163 192 *~;
#X msg 163 123 1 2 0 \, 0.88 200 2;
#X text 131 42 Gate;
#X text 102 278 Envelope;
#X msg 314 123 0 150;
#X connect 0 0 5 0;
#X connect 0 0 5 1;
#X connect 1 0 3 0;
#X connect 3 0 6 0;
#X connect 3 1 9 0;
#X connect 4 0 2 0;
#X connect 5 0 4 1;
#X connect 5 0 4 0;
#X connect 6 0 0 0;
#X connect 9 0 0 0;
