#N canvas 1009 65 578 609 10;
#X obj 149 110 env~;
#X obj 232 110 abs~;
#X obj 149 140 - 100;
#X obj 334 194 snapshot~;
#X obj 170 286 - 100;
#X obj 149 338 pack f f;
#X obj 148 53 inlet~;
#X obj 149 480 outlet;
#X obj 233 166 max~;
#X obj 334 166 metro 1;
#X obj 170 308 t b f;
#X obj 170 262 rmstodb;
#X obj 272 140 *~;
#X obj 234 194 s~ max;
#X obj 273 110 r~ max;
#X obj 422 262 float;
#X obj 404 286 >;
#X obj 357 338 float;
#X obj 404 308 select 1;
#X msg 424 385 stop;
#X msg 390 385 1;
#X obj 357 361 t b b b, f 10;
#X obj 334 216 t f f f f b;
#X msg 357 440 0.99;
#X obj 357 418 del 1 1 sec;
#X text 109 53 audio;
#X text 89 480 RMS/Peak;
#X obj 334 140 r loadbang-\$1;
#X connect 0 0 2 0;
#X connect 1 0 8 0;
#X connect 2 0 5 0;
#X connect 3 0 22 0;
#X connect 4 0 10 0;
#X connect 5 0 7 0;
#X connect 6 0 0 0;
#X connect 6 0 1 0;
#X connect 8 0 3 0;
#X connect 8 0 13 0;
#X connect 9 0 3 0;
#X connect 10 0 5 0;
#X connect 10 1 5 1;
#X connect 11 0 4 0;
#X connect 12 0 8 1;
#X connect 14 0 12 0;
#X connect 15 0 16 1;
#X connect 16 0 18 0;
#X connect 17 0 21 0;
#X connect 18 0 17 0;
#X connect 19 0 24 0;
#X connect 20 0 12 1;
#X connect 21 0 24 0;
#X connect 21 1 20 0;
#X connect 21 2 19 0;
#X connect 22 0 11 0;
#X connect 22 1 15 1;
#X connect 22 2 16 0;
#X connect 22 3 17 1;
#X connect 22 4 15 0;
#X connect 23 0 12 1;
#X connect 24 0 23 0;
#X connect 27 0 9 0;
