#N canvas 618 298 889 545 10;
#X obj 127 50 inlet~;
#X obj 125 407 outlet~;
#X obj 466 142 *~;
#X obj 466 165 *~ -2;
#X obj 466 187 exp~;
#X obj 420 212 *~ -1;
#X obj 466 212 +~ 1;
#X obj 421 235 +~ 1;
#X obj 447 259 /~;
#X obj 351 345 *~;
#X obj 126 345 *~;
#X obj 126 381 +~;
#X obj 145 298 *~ -1;
#X obj 145 320 +~ 1;
#X obj 446 282 hip~ 1;
#X obj 485 50 inlet~;
#X obj 485 74 /~ 127;
#X text 439 50 amount;
#X obj 370 50 inlet~;
#X obj 370 142 /~ 127;
#X text 345 50 mix;
#X text 87 50 audio;
#X text 86 408 audio;
#X obj 485 118 +~ 1;
#X text 191 50 DC offset;
#X obj 258 50 inlet~;
#X obj 259 72 /~ 127;
#X obj 242 94 +~;
#X obj 485 96 *~ 39;
#X connect 0 0 10 0;
#X connect 0 0 27 0;
#X connect 2 0 3 0;
#X connect 3 0 4 0;
#X connect 4 0 5 0;
#X connect 4 0 6 0;
#X connect 5 0 7 0;
#X connect 6 0 8 1;
#X connect 7 0 8 0;
#X connect 8 0 14 0;
#X connect 9 0 11 1;
#X connect 10 0 11 0;
#X connect 11 0 1 0;
#X connect 12 0 13 0;
#X connect 13 0 10 1;
#X connect 14 0 9 0;
#X connect 15 0 16 0;
#X connect 16 0 28 0;
#X connect 18 0 19 0;
#X connect 19 0 12 0;
#X connect 19 0 9 1;
#X connect 23 0 2 1;
#X connect 25 0 26 0;
#X connect 26 0 27 1;
#X connect 27 0 2 0;
#X connect 28 0 23 0;
