#N canvas 0 50 1920 998 10;
#X obj 774 25 r notesIn-\$1;
#X obj 1221 650 s notesOut-\$1;
#X obj 283 124 r auxIn-\$1;
#X obj 893 56 r expIn-\$1;
#X obj 365 124 r fsIn-\$1;
#X obj 886 124 r ctrlIn-\$1;
#X obj 886 161 s ctrlOut-\$1;
#X obj 72 86 inlet~ inL;
#X obj 168 85 inlet~ inR;
#X obj 690 876 outlet~ outR;
#X obj 538 876 outlet~ outL;
#N canvas 704 383 299 314 cuepoints 0;
#X obj 147 110 +;
#X msg 147 85 1;
#X obj 23 19 inlet;
#X obj 147 133 & 7;
#X obj 123 185 f;
#X obj 123 207 + 1;
#X obj 57 185 f;
#X obj 23 68 t f b b b;
#X obj 147 158 * 2;
#X obj 90 19 inlet;
#X text 22 258 write pairs of start- and stop points;
#X floatatom 169 200 5 0 0 0 - - -;
#X floatatom 169 224 5 0 0 0 - - -;
#X obj 23 42 change;
#X obj 24 233 tabwrite \$1_cuepoints;
#X connect 0 0 3 0;
#X connect 1 0 0 0;
#X connect 2 0 13 0;
#X connect 3 0 0 1;
#X connect 3 0 8 0;
#X connect 4 0 5 0;
#X connect 5 0 12 0;
#X connect 5 0 14 1;
#X connect 6 0 14 0;
#X connect 7 0 6 1;
#X connect 7 0 14 0;
#X connect 7 1 4 0;
#X connect 7 2 6 0;
#X connect 7 3 1 0;
#X connect 8 0 4 1;
#X connect 8 0 11 0;
#X connect 8 0 14 1;
#X connect 9 0 13 0;
#X connect 13 0 7 0;
#X restore 157 893 pd cuepoints;
#X obj 98 199 hip~ 40;
#X obj 618 553 +~;
#X obj 618 612 +~;
#X obj 619 675 +~;
#X obj 522 29 r master-ticks;
#X msg 12 586 attackstep \$1;
#X msg 17 647 attackthresh \$1;
#X msg 190 616 silencethresh \$1;
#X msg 192 667 timeconstant \$1;
#X obj 11 556 r attackstep-\$1;
#X obj 16 625 r attackthresh-\$1;
#X obj 190 587 r silencethresh-\$1;
#X obj 192 642 r timeconstant-\$1;
#X obj 357 231 table \$1_cuepoints 16;
#X obj 356 263 table \$1_audio 262147;
#X obj 522 365 sliceplay \$1 1;
#X obj 176 772 slicerec~ \$1_audio;
#X obj 819 365 sliceplay \$1 4;
#X obj 721 365 sliceplay \$1 3;
#X obj 621 365 sliceplay \$1 2;
#X obj 774 62 unpack 0 0 0;
#X obj 774 124 spigot 0;
#X obj 819 92 > 0;
#X obj 774 151 t f f;
#X obj 823 181 / 12;
#X obj 823 206 int;
#X obj 759 252 pack 0 0;
#X obj 759 289 route 5 6 7 8;
#X obj 774 198 % 12;
#X obj 238 241 sel 1;
#X obj 216 301 tgl 15 0 empty empty empty 17 7 0 10 -262144 -1 -1 0
1;
#X obj 148 347 sig~;
#X obj 148 368 lop~ 5;
#X obj 99 447 *~;
#X obj 196 368 s aux-led-\$1;
#X obj 163 189 r loadbang-\$1;
#X msg 163 210 1;
#X obj 324 416 s aux-label-\$1;
#X msg 285 368 Aux / FS: Live, f 16;
#X msg 407 367 Aux / FS: Frozen;
#X obj 314 338 sel 1 0;
#X obj 998 452 ctlin;
#X obj 947 477 sel 127;
#X obj 1011 502 spigot;
#X floatatom 1011 477 5 0 0 0 - - -;
#X obj 947 502 bng 15 250 50 0 empty empty empty 17 7 0 10 -262144
-1 -1;
#X obj 1011 527 == 1;
#X obj 1011 554 tgl 15 0 empty empty empty 17 7 0 10 -262144 -1 -1
0 1;
#X obj 1056 477 == 5;
#X obj 947 577 spigot;
#X obj 947 605 bng 15 250 50 0 empty empty empty 17 7 0 10 -262144
-1 -1;
#X obj 947 630 tgl 15 0 empty empty empty 17 7 0 10 -262144 -1 -1 1
1;
#X obj 947 657 sel 0 1;
#X obj 619 808 *~;
#X obj 947 709 s bypass-off-\$1;
#X obj 966 684 s bypass-on-\$1;
#X obj 714 583 r bypass-off-\$1;
#X obj 814 583 r bypass-on-\$1;
#X msg 814 616 0;
#X obj 714 664 sig~;
#X msg 714 616 1;
#X connect 0 0 32 0;
#X connect 2 0 41 0;
#X connect 4 0 41 0;
#X connect 7 0 12 0;
#X connect 8 0 12 0;
#X connect 12 0 45 0;
#X connect 13 0 14 0;
#X connect 14 0 15 0;
#X connect 15 0 65 0;
#X connect 16 0 27 0;
#X connect 16 0 29 0;
#X connect 16 0 30 0;
#X connect 16 0 31 0;
#X connect 17 0 28 0;
#X connect 18 0 28 0;
#X connect 19 0 28 0;
#X connect 20 0 28 0;
#X connect 21 0 17 0;
#X connect 22 0 18 0;
#X connect 23 0 19 0;
#X connect 24 0 20 0;
#X connect 27 0 13 0;
#X connect 28 0 11 0;
#X connect 28 1 11 1;
#X connect 29 0 15 1;
#X connect 30 0 14 1;
#X connect 31 0 13 1;
#X connect 32 0 33 0;
#X connect 32 1 34 0;
#X connect 33 0 35 0;
#X connect 34 0 33 1;
#X connect 35 0 36 0;
#X connect 35 1 40 0;
#X connect 36 0 37 0;
#X connect 37 0 38 0;
#X connect 38 0 39 0;
#X connect 39 0 27 1;
#X connect 39 1 31 1;
#X connect 39 2 30 1;
#X connect 39 3 29 1;
#X connect 40 0 38 1;
#X connect 41 0 42 0;
#X connect 42 0 43 0;
#X connect 42 0 46 0;
#X connect 42 0 52 0;
#X connect 43 0 44 0;
#X connect 44 0 45 1;
#X connect 45 0 28 0;
#X connect 47 0 48 0;
#X connect 48 0 42 0;
#X connect 50 0 49 0;
#X connect 51 0 49 0;
#X connect 52 0 50 0;
#X connect 52 1 51 0;
#X connect 53 0 54 0;
#X connect 53 1 56 0;
#X connect 53 2 60 0;
#X connect 54 0 57 0;
#X connect 55 0 58 0;
#X connect 56 0 55 0;
#X connect 57 0 61 0;
#X connect 58 0 59 0;
#X connect 59 0 61 1;
#X connect 60 0 55 1;
#X connect 61 0 62 0;
#X connect 62 0 63 0;
#X connect 63 0 64 0;
#X connect 64 0 66 0;
#X connect 64 1 67 0;
#X connect 65 0 9 0;
#X connect 65 0 10 0;
#X connect 68 0 72 0;
#X connect 69 0 70 0;
#X connect 70 0 71 0;
#X connect 71 0 65 1;
#X connect 72 0 71 0;
