#N canvas 16 50 1424 847 10;
#X obj 126 225 s agClear;
#X obj 126 244 r agClear;
#X obj 226 225 s agClear;
#X obj 226 244 r agClear;
#X obj 326 225 s agClear;
#X obj 326 244 r agClear;
#X obj 426 225 s agClear;
#X obj 426 244 r agClear;
#X obj 536 225 s agClear;
#X obj 536 244 r agClear;
#X obj 127 425 s agClear;
#X obj 127 444 r agClear;
#X obj 227 425 s agClear;
#X obj 227 444 r agClear;
#X obj 327 425 s agClear;
#X obj 327 444 r agClear;
#X obj 427 425 s agClear;
#X obj 427 444 r agClear;
#X obj 537 425 s agClear;
#X obj 537 444 r agClear;
#X obj 261 38 inlet module;
#X obj 87 192 t b b 0;
#X obj 187 192 t b b 0;
#X obj 287 192 t b b 0;
#X obj 387 192 t b b 0;
#X obj 497 192 t b b 0;
#X obj 88 392 t b b 0;
#X obj 188 392 t b b 0;
#X obj 288 392 t b b 0;
#X obj 388 392 t b b 0;
#X obj 498 392 t b b 0;
#X obj 87 344 auxgate a1;
#X obj 187 344 auxgate a2;
#X obj 287 344 auxgate a3;
#X obj 387 344 auxgate b1;
#X obj 497 344 auxgate b2;
#X obj 88 544 auxgate b3;
#X obj 188 544 auxgate b4;
#X obj 288 544 auxgate c1;
#X obj 388 543 auxgate c2;
#X obj 498 544 auxgate c3;
#X obj 141 606 s agClear;
#X obj 141 625 r agClear;
#X obj 241 606 s agClear;
#X obj 241 625 r agClear;
#X obj 473 606 s agClear;
#X obj 473 625 r agClear;
#X obj 573 606 s agClear;
#X obj 573 625 r agClear;
#X obj 102 573 t b b 0;
#X obj 202 573 t b b 0;
#X obj 434 573 t b b 0;
#X obj 534 573 t b b 0;
#X obj 434 725 auxgate s1;
#X obj 202 725 auxgate p2;
#X obj 102 725 auxgate p1;
#X obj 534 724 auxgate s2;
#X obj 714 607 s agClear;
#X obj 714 626 r agClear;
#X obj 814 607 s agClear;
#X obj 814 626 r agClear;
#X obj 675 574 t b b 0;
#X obj 775 574 t b b 0;
#X obj 933 610 s agClear;
#X obj 933 629 r agClear;
#X obj 894 577 t b b 0;
#X obj 675 726 auxgate f1;
#X obj 775 726 auxgate f2;
#X obj 894 729 auxgate f3;
#X obj 710 225 s agClear;
#X obj 710 244 r agClear;
#X obj 820 225 s agClear;
#X obj 820 244 r agClear;
#X obj 933 225 s agClear;
#X obj 933 244 r agClear;
#X obj 1033 225 s agClear;
#X obj 1033 244 r agClear;
#X obj 671 192 t b b 0;
#X obj 781 192 t b b 0;
#X obj 894 192 t b b 0;
#X obj 994 192 t b b 0;
#X obj 671 344 auxgate d1;
#X obj 781 344 auxgate d2;
#X obj 894 344 auxgate d3;
#X obj 994 344 auxgate d4;
#X obj 240 122 select a1 a2 a3 b1 b2 b3 b4 c1 c2 c3 d1 d2 d3 d4 p1
p2 f1 f2 f3 s1 s2 m1 m2 m3, f 94;
#X obj 1011 433 s agClear;
#X obj 1011 452 r agClear;
#X obj 1124 433 s agClear;
#X obj 1124 452 r agClear;
#X obj 1224 433 s agClear;
#X obj 1224 452 r agClear;
#X obj 972 400 t b b 0;
#X obj 1085 400 t b b 0;
#X obj 1185 400 t b b 0;
#X obj 972 552 auxgate m1;
#X obj 1085 552 auxgate m2;
#X obj 1185 552 auxgate m3;
#X connect 1 0 31 1;
#X connect 3 0 32 1;
#X connect 5 0 33 1;
#X connect 7 0 34 1;
#X connect 9 0 35 1;
#X connect 11 0 36 1;
#X connect 13 0 37 1;
#X connect 15 0 38 1;
#X connect 17 0 39 1;
#X connect 19 0 40 1;
#X connect 20 0 85 0;
#X connect 21 0 31 0;
#X connect 21 1 31 1;
#X connect 21 2 0 0;
#X connect 22 0 32 0;
#X connect 22 1 32 1;
#X connect 22 2 2 0;
#X connect 23 0 33 0;
#X connect 23 1 33 1;
#X connect 23 2 4 0;
#X connect 24 0 34 0;
#X connect 24 1 34 1;
#X connect 24 2 6 0;
#X connect 25 0 35 0;
#X connect 25 1 35 1;
#X connect 25 2 8 0;
#X connect 26 0 36 0;
#X connect 26 1 36 1;
#X connect 26 2 10 0;
#X connect 27 0 37 0;
#X connect 27 1 37 1;
#X connect 27 2 12 0;
#X connect 28 0 38 0;
#X connect 28 1 38 1;
#X connect 28 2 14 0;
#X connect 29 0 39 0;
#X connect 29 1 39 1;
#X connect 29 2 16 0;
#X connect 30 0 40 0;
#X connect 30 1 40 1;
#X connect 30 2 18 0;
#X connect 42 0 55 1;
#X connect 44 0 54 1;
#X connect 46 0 53 1;
#X connect 48 0 56 1;
#X connect 49 0 55 0;
#X connect 49 1 55 1;
#X connect 49 2 41 0;
#X connect 50 0 54 0;
#X connect 50 1 54 1;
#X connect 50 2 43 0;
#X connect 51 0 53 0;
#X connect 51 1 53 1;
#X connect 51 2 45 0;
#X connect 52 0 56 0;
#X connect 52 1 56 1;
#X connect 52 2 47 0;
#X connect 58 0 66 1;
#X connect 60 0 67 1;
#X connect 61 0 66 0;
#X connect 61 1 66 1;
#X connect 61 2 57 0;
#X connect 62 0 67 0;
#X connect 62 1 67 1;
#X connect 62 2 59 0;
#X connect 64 0 68 1;
#X connect 65 0 68 0;
#X connect 65 1 68 1;
#X connect 65 2 63 0;
#X connect 70 0 81 1;
#X connect 72 0 82 1;
#X connect 74 0 83 1;
#X connect 76 0 84 1;
#X connect 77 0 81 0;
#X connect 77 1 81 1;
#X connect 77 2 69 0;
#X connect 78 0 82 0;
#X connect 78 1 82 1;
#X connect 78 2 71 0;
#X connect 79 0 83 0;
#X connect 79 1 83 1;
#X connect 79 2 73 0;
#X connect 80 0 84 0;
#X connect 80 1 84 1;
#X connect 80 2 75 0;
#X connect 85 0 21 0;
#X connect 85 1 22 0;
#X connect 85 2 23 0;
#X connect 85 3 24 0;
#X connect 85 4 25 0;
#X connect 85 5 26 0;
#X connect 85 6 27 0;
#X connect 85 7 28 0;
#X connect 85 8 29 0;
#X connect 85 9 30 0;
#X connect 85 10 77 0;
#X connect 85 11 78 0;
#X connect 85 12 79 0;
#X connect 85 13 80 0;
#X connect 85 14 49 0;
#X connect 85 15 50 0;
#X connect 85 16 61 0;
#X connect 85 17 62 0;
#X connect 85 18 65 0;
#X connect 85 19 51 0;
#X connect 85 20 52 0;
#X connect 85 21 92 0;
#X connect 85 22 93 0;
#X connect 85 23 94 0;
#X connect 87 0 95 1;
#X connect 89 0 96 1;
#X connect 91 0 97 1;
#X connect 92 0 95 0;
#X connect 92 1 95 1;
#X connect 92 2 86 0;
#X connect 93 0 96 0;
#X connect 93 1 96 1;
#X connect 93 2 88 0;
#X connect 94 0 97 0;
#X connect 94 1 97 1;
#X connect 94 2 90 0;
