#N canvas 115 91 1216 774 10;
#X obj 14 51 / 100;
#X obj 221 237 *~;
#X obj 310 237 *~;
#X obj 13 115 *;
#X obj 13 88 t f f;
#X obj 13 143 sig~;
#X obj 13 168 lop~ 5;
#X obj 221 36 inlet~ inL;
#X obj 310 36 inlet~ inR;
#X obj 343 450 outlet~ outR;
#X obj 221 450 outlet~ outL;
#X obj 14 22 r r-chout-gain-\$1-\$2;
#X obj 859 305 noteout 1;
#X obj 859 265 unpack 0 0;
#X obj 859 227 spigot 0;
#X obj 904 198 > 0;
#X obj 897 106 t f f;
#X obj 857 40 inlet notes;
#X obj 957 15 r r-chout-midich-\$1-\$2;
#X obj 9 268 sig~;
#X obj 9 293 lop~ 5;
#X obj 9 233 r r-chout-l-pan-\$1-\$2;
#X obj 374 270 sig~;
#X obj 374 295 lop~ 5;
#X obj 374 235 r r-chout-r-pan-\$1-\$2;
#X obj 310 352 o_2pan;
#X obj 221 351 o_2pan;
#X obj 1041 264 unpack 0 0;
#X obj 1041 226 spigot 0;
#X obj 1086 197 > 0;
#X obj 1079 105 t f f;
#X obj 1039 39 inlet ctrl;
#X obj 1041 304 ctlout 1;
#X obj 476 367 inlet~ Ch_send-L_P1;
#X obj 531 393 inlet~ Ch_send-R_P1;
#X obj 726 387 inlet~ Ch_send-R_P2;
#X obj 671 361 inlet~ Ch_send-L_P2;
#X obj 478 474 *~;
#X obj 533 469 *~;
#X obj 675 478 *~;
#X obj 729 478 *~;
#X obj 478 561 outlet~ send-L_P1;
#X obj 536 589 outlet~ send-R_P1;
#X obj 678 560 outlet~ send-L_P2;
#X obj 731 588 outlet~ send-R_P2;
#X obj 20 390 r thru_gain-\$1;
#X connect 0 0 4 0;
#X connect 1 0 26 0;
#X connect 2 0 25 0;
#X connect 3 0 5 0;
#X connect 4 0 3 0;
#X connect 4 1 3 1;
#X connect 5 0 6 0;
#X connect 6 0 1 1;
#X connect 6 0 2 1;
#X connect 6 0 37 1;
#X connect 6 0 38 1;
#X connect 6 0 39 1;
#X connect 6 0 40 1;
#X connect 7 0 1 0;
#X connect 8 0 2 0;
#X connect 11 0 0 0;
#X connect 13 0 12 0;
#X connect 13 1 12 1;
#X connect 14 0 13 0;
#X connect 15 0 14 1;
#X connect 16 0 15 0;
#X connect 16 1 12 2;
#X connect 17 0 14 0;
#X connect 18 0 16 0;
#X connect 18 0 30 0;
#X connect 19 0 20 0;
#X connect 20 0 26 1;
#X connect 21 0 19 0;
#X connect 22 0 23 0;
#X connect 23 0 25 1;
#X connect 24 0 22 0;
#X connect 25 0 10 0;
#X connect 25 1 9 0;
#X connect 26 0 10 0;
#X connect 26 1 9 0;
#X connect 27 0 32 0;
#X connect 27 1 32 1;
#X connect 28 0 27 0;
#X connect 29 0 28 1;
#X connect 30 0 29 0;
#X connect 30 1 32 2;
#X connect 31 0 28 0;
#X connect 33 0 37 0;
#X connect 34 0 38 0;
#X connect 35 0 40 0;
#X connect 36 0 39 0;
#X connect 37 0 41 0;
#X connect 38 0 42 0;
#X connect 39 0 43 0;
#X connect 40 0 44 0;
