#N canvas 212 177 1358 847 10;
#X obj 904 259 spigot 1;
#X obj 529 129 / 100;
#X obj 265 479 +~;
#X obj 344 476 +~;
#X obj 904 26 inlet notes;
#X obj 904 471 outlet notes;
#X obj 529 102 r r-gain-\$1-\$2;
#X obj 710 53 r r-notethru-\$1-\$2;
#X obj 1020 231 s notesIn-\$1, f 13;
#X obj 1020 258 r notesOut-\$1;
#X obj 100 412 *~;
#X obj 190 412 *~;
#X obj 13 382 lop~ 5;
#X obj 529 194 *;
#X obj 529 167 t f f;
#X obj 529 221 sig~;
#X obj 529 248 lop~ 5;
#X obj 336 415 *~;
#X obj 426 415 *~;
#X obj 336 200 s~ inL-\$1, f 10;
#X obj 426 200 s~ inR-\$1;
#X obj 222 36 inlet~ inL;
#X obj 312 36 inlet~ inR;
#X obj 344 601 outlet~ outR;
#X obj 265 601 outlet~ outL;
#X obj 13 298 r thru_gain-\$1;
#X obj 35 800 s rackMsgs;
#X obj 35 687 r loadbang-\$2;
#X msg 35 760 getparam \$1 thru_gain 100 thru_gain-\$1;
#X obj 35 721 symbol \$1;
#X obj 126 687 r loadbang-\$1;
#X text 31 665 if module or router is loaded check thru gain;
#X obj 1119 257 spigot 1;
#X obj 1119 26 inlet ctrl;
#X obj 1234 229 s ctrlIn-\$1, f 13;
#X obj 1234 256 r ctrlOut-\$1;
#X obj 1119 471 outlet ctrl;
#X text 28 625 bypass prevent audio/notes going to module turn on audio/note
thru;
#X obj 948 65 r actnote-\$1-\$2;
#X obj 1161 64 r actctrl-\$1-\$2;
#X obj 767 381 / 100;
#X obj 767 446 *;
#X obj 767 419 t f f;
#X obj 767 473 sig~;
#X obj 767 500 lop~ 5;
#X obj 724 628 *~;
#X obj 826 627 *~;
#X obj 549 382 / 100;
#X obj 549 447 *;
#X obj 549 420 t f f;
#X obj 549 474 sig~;
#X obj 549 501 lop~ 5;
#X obj 506 629 *~;
#X obj 608 628 *~;
#X obj 549 356 r r-sendP1-\$1-\$2;
#X obj 767 355 r r-sendP2-\$1-\$2;
#X obj 711 24 r r-bypass-\$1-\$2;
#X text 650 430 Send FX;
#X obj 507 720 outlet~ M_send-L_P1;
#X obj 610 748 outlet~ M_send-R_P1;
#X obj 725 716 outlet~ M_send-L_P2;
#X obj 828 744 outlet~ M_send-R_P2;
#X obj 904 109 t l l;
#X obj 1119 109 t l l;
#N canvas 873 365 617 305 delComp 0;
#X obj 25 19 inlet;
#X obj 25 253 outlet;
#X obj 178 140 bng 15 250 50 0 empty empty empty 17 7 0 10 -262144
-1 -1;
#X obj 178 114 r bar;
#X obj 253 219 i;
#X obj 317 90 r mcActive-\$1;
#X obj 240 89 r mcActive;
#X obj 240 114 spigot 1;
#X msg 317 135 0;
#X obj 240 137 sel 0, f 8;
#X msg 240 161 0, f 2;
#X obj 317 117 sel 1;
#X obj 285 17 r playing;
#X obj 285 38 sel 0;
#X msg 285 59 1;
#X floatatom 235 243 5 0 0 0 - - -;
#X obj 130 207 pipe 0, f 10;
#X obj 25 40 unpack 0 0, f 18;
#X obj 25 208 pipe 0, f 10;
#X obj 25 230 pack 0 0;
#X obj 318 155 t f f;
#X obj 417 89 r mcActiveFx;
#X obj 417 115 spigot 1;
#X obj 417 138 sel 0, f 8;
#X msg 417 162 0, f 2;
#X obj 345 213 i;
#X floatatom 380 228 5 0 0 0 - - -;
#X obj 345 246 outlet;
#X msg 462 162 1;
#X msg 505 135 0;
#X obj 505 117 sel 1;
#X obj 506 155 t f f;
#X obj 505 90 r mcActiveFx-\$1;
#X msg 285 161 7.70975, f 2;
#X obj 178 41 r loadbang-\$1;
#X obj 178 62 delay 500;
#X connect 0 0 17 0;
#X connect 2 0 4 0;
#X connect 2 0 25 0;
#X connect 3 0 2 0;
#X connect 4 0 16 1;
#X connect 4 0 18 1;
#X connect 4 0 15 0;
#X connect 5 0 11 0;
#X connect 6 0 7 0;
#X connect 7 0 9 0;
#X connect 8 0 20 0;
#X connect 9 0 10 0;
#X connect 9 1 33 0;
#X connect 10 0 4 1;
#X connect 11 0 8 0;
#X connect 12 0 13 0;
#X connect 13 0 14 0;
#X connect 14 0 7 1;
#X connect 14 0 22 1;
#X connect 16 0 19 1;
#X connect 17 0 18 0;
#X connect 17 1 16 0;
#X connect 18 0 19 0;
#X connect 19 0 1 0;
#X connect 20 0 4 1;
#X connect 20 1 7 1;
#X connect 21 0 22 0;
#X connect 22 0 23 0;
#X connect 23 0 24 0;
#X connect 23 1 28 0;
#X connect 24 0 25 1;
#X connect 25 0 26 0;
#X connect 25 0 27 0;
#X connect 28 0 25 1;
#X connect 29 0 31 0;
#X connect 30 0 29 0;
#X connect 31 0 25 1;
#X connect 31 1 22 1;
#X connect 32 0 30 0;
#X connect 33 0 4 1;
#X connect 34 0 35 0;
#X connect 35 0 2 0;
#X restore 1020 154 pd delComp;
#X obj 336 234 r~ outL-\$1;
#X obj 426 234 r~ outR-\$1;
#X obj 451 114 sig~, f 7;
#X obj 451 135 lop~ 5;
#X obj 395 67 sig~;
#X obj 395 94 lop~ 5;
#X obj 399 313 *~;
#X obj 494 248 *~;
#X obj 292 314 *~;
#X obj 291 247 *~;
#X obj 451 75 sel 1 0;
#X msg 451 93 0, f 2;
#X msg 478 93 1, f 2;
#X floatatom 1079 173 5 0 0 0 - - -;
#X obj 336 261 delay~ 340;
#X obj 432 268 delay~ 340;
#X obj 13 357 sig~;
#X obj 13 317 sel 0;
#X msg 39 338 1, f 1;
#X msg 13 338 0, f 1;
#X connect 0 0 5 0;
#X connect 1 0 14 0;
#X connect 2 0 24 0;
#X connect 3 0 23 0;
#X connect 4 0 62 0;
#X connect 6 0 1 0;
#X connect 7 0 0 1;
#X connect 7 0 32 1;
#X connect 9 0 5 0;
#X connect 10 0 2 0;
#X connect 11 0 3 0;
#X connect 12 0 10 1;
#X connect 12 0 11 1;
#X connect 13 0 15 0;
#X connect 14 0 13 0;
#X connect 14 1 13 1;
#X connect 15 0 16 0;
#X connect 16 0 17 1;
#X connect 16 0 18 1;
#X connect 17 0 2 1;
#X connect 18 0 3 1;
#X connect 21 0 10 0;
#X connect 21 0 19 0;
#X connect 22 0 11 0;
#X connect 22 0 20 0;
#X connect 25 0 82 0;
#X connect 27 0 29 0;
#X connect 28 0 26 0;
#X connect 29 0 28 0;
#X connect 30 0 29 0;
#X connect 32 0 36 0;
#X connect 33 0 63 0;
#X connect 35 0 36 0;
#X connect 38 0 62 0;
#X connect 39 0 63 0;
#X connect 40 0 42 0;
#X connect 41 0 43 0;
#X connect 42 0 41 0;
#X connect 42 1 41 1;
#X connect 43 0 44 0;
#X connect 44 0 45 1;
#X connect 44 0 46 1;
#X connect 45 0 60 0;
#X connect 46 0 61 0;
#X connect 47 0 49 0;
#X connect 48 0 50 0;
#X connect 49 0 48 0;
#X connect 49 1 48 1;
#X connect 50 0 51 0;
#X connect 51 0 52 1;
#X connect 51 0 53 1;
#X connect 52 0 58 0;
#X connect 53 0 59 0;
#X connect 54 0 47 0;
#X connect 55 0 40 0;
#X connect 62 0 0 0;
#X connect 62 1 64 0;
#X connect 63 0 32 0;
#X connect 63 1 34 0;
#X connect 64 0 8 0;
#X connect 64 1 69 0;
#X connect 64 1 75 0;
#X connect 64 1 78 0;
#X connect 65 0 73 0;
#X connect 65 0 74 0;
#X connect 66 0 71 0;
#X connect 66 0 72 0;
#X connect 67 0 68 0;
#X connect 68 0 71 1;
#X connect 68 0 73 1;
#X connect 69 0 70 0;
#X connect 70 0 72 1;
#X connect 70 0 74 1;
#X connect 71 0 18 0;
#X connect 71 0 46 0;
#X connect 71 0 53 0;
#X connect 72 0 80 0;
#X connect 73 0 17 0;
#X connect 73 0 45 0;
#X connect 73 0 52 0;
#X connect 74 0 79 0;
#X connect 75 0 76 0;
#X connect 75 1 77 0;
#X connect 76 0 67 0;
#X connect 77 0 67 0;
#X connect 79 0 17 0;
#X connect 79 0 52 0;
#X connect 79 0 45 0;
#X connect 80 0 18 0;
#X connect 80 0 53 0;
#X connect 80 0 46 0;
#X connect 81 0 12 0;
#X connect 82 0 84 0;
#X connect 82 1 83 0;
#X connect 83 0 81 0;
#X connect 84 0 81 0;
