#N canvas 35 50 1216 667 10;
#X obj 894 179 r notesOut-\$1;
#X obj 1001 178 r ctrlOut-\$1;
#X obj 529 129 / 100;
#X obj 265 479 +~;
#X obj 344 476 +~;
#X obj 529 102 r r-gain-\$1-\$2;
#X obj 336 232 r~ outL-\$1;
#X obj 100 412 *~;
#X obj 190 412 *~;
#X obj 13 382 lop~ 5;
#X obj 529 194 *;
#X obj 529 167 t f f;
#X obj 529 221 sig~;
#X obj 529 248 lop~ 5;
#X obj 336 415 *~;
#X obj 426 415 *~;
#X obj 336 200 s~ inL-\$1, f 10;
#X obj 426 200 s~ inR-\$1;
#X obj 426 232 r~ outR-\$1;
#X obj 346 601 outlet~ outR;
#X obj 265 601 outlet~ outL;
#X obj 13 296 r thru_gain-\$1;
#X obj 35 800 s rackMsgs;
#X obj 35 687 r loadbang-\$2;
#X msg 35 760 getparam \$1 thru_gain 100 thru_gain-\$1;
#X obj 35 721 symbol \$1;
#X obj 126 687 r loadbang-\$1;
#X text 31 665 if module or router is loaded check thru gain;
#X text 28 625 bypass prevent audio/notes going to module turn on audio/note
thru;
#X obj 894 140 s notesIn-\$1, f 13;
#X obj 1001 140 s ctrlIn-\$1, f 13;
#X obj 894 76 r actnote-\$1-\$2;
#X obj 1001 76 r actctrl-\$1-\$2;
#X obj 222 36 inlet~ inL;
#X obj 329 36 inlet~ inR;
#X obj 711 24 r r-bypass-\$1-\$2;
#X obj 13 357 sig~;
#X obj 13 317 sel 0;
#X msg 13 338 0, f 2;
#X msg 40 337 1, f 2;
#X connect 2 0 11 0;
#X connect 3 0 20 0;
#X connect 4 0 19 0;
#X connect 5 0 2 0;
#X connect 6 0 14 0;
#X connect 7 0 3 0;
#X connect 8 0 4 0;
#X connect 9 0 7 1;
#X connect 9 0 8 1;
#X connect 10 0 12 0;
#X connect 11 0 10 0;
#X connect 11 1 10 1;
#X connect 12 0 13 0;
#X connect 13 0 14 1;
#X connect 13 0 15 1;
#X connect 14 0 3 1;
#X connect 15 0 4 1;
#X connect 18 0 15 0;
#X connect 21 0 37 0;
#X connect 23 0 25 0;
#X connect 24 0 22 0;
#X connect 25 0 24 0;
#X connect 26 0 25 0;
#X connect 31 0 29 0;
#X connect 32 0 30 0;
#X connect 33 0 16 0;
#X connect 33 0 7 0;
#X connect 34 0 17 0;
#X connect 34 0 8 0;
#X connect 36 0 9 0;
#X connect 37 0 38 0;
#X connect 37 1 39 0;
#X connect 38 0 36 0;
#X connect 39 0 36 0;
