#N canvas 55 25 526 535 10;
#X obj 63 269 spigot 1;
#X obj 63 36 inlet notes;
#X obj 63 481 outlet notes;
#X obj 179 241 s notesIn-\$1, f 13;
#X obj 179 268 r notesOut-\$1;
#X obj 278 267 spigot 1;
#X obj 278 36 inlet ctrl;
#X obj 393 239 s ctrlIn-\$1, f 13;
#X obj 393 266 r ctrlOut-\$1;
#X obj 278 481 outlet ctrl;
#X obj 107 75 r actnote-\$1-\$2;
#X obj 320 74 r actctrl-\$1-\$2;
#X obj 63 119 t l l;
#X obj 278 119 t l l;
#X connect 0 0 2 0;
#X connect 1 0 12 0;
#X connect 4 0 2 0;
#X connect 5 0 9 0;
#X connect 6 0 13 0;
#X connect 8 0 9 0;
#X connect 10 0 12 0;
#X connect 11 0 13 0;
#X connect 12 0 0 0;
#X connect 12 1 3 0;
#X connect 13 0 5 0;
#X connect 13 1 7 0;
