#N canvas 385 161 1216 774 10;
#X obj 529 129 / 100;
#X obj 265 479 +~;
#X obj 344 476 +~;
#X obj 529 102 r r-gain-\$1-\$2;
#X obj 336 232 r~ outL-\$1;
#X obj 100 412 *~;
#X obj 190 412 *~;
#X obj 13 382 lop~ 5;
#X obj 529 194 *;
#X obj 529 167 t f f;
#X obj 529 221 sig~;
#X obj 529 248 lop~ 5;
#X obj 336 415 *~;
#X obj 426 415 *~;
#X obj 336 200 s~ inL-\$1, f 10;
#X obj 426 200 s~ inR-\$1;
#X obj 426 232 r~ outR-\$1;
#X obj 344 601 outlet~ outR;
#X obj 265 601 outlet~ outL;
#X obj 13 295 r thru_gain-\$1;
#X obj 35 800 s rackMsgs;
#X obj 35 687 r loadbang-\$2;
#X msg 35 760 getparam \$1 thru_gain 100 thru_gain-\$1;
#X obj 35 721 symbol \$1;
#X obj 126 687 r loadbang-\$1;
#X text 31 665 if module or router is loaded check thru gain;
#X text 28 625 bypass prevent audio/notes going to module turn on audio/note
thru;
#X obj 894 179 r notesOut-\$1;
#X obj 1001 178 r ctrlOut-\$1;
#X obj 894 140 s notesIn-\$1, f 13;
#X obj 1001 140 s ctrlIn-\$1, f 13;
#X obj 894 76 r actnote-\$1-\$2;
#X obj 1001 76 r actctrl-\$1-\$2;
#X obj 522 599 *~;
#X obj 621 598 *~;
#X obj 711 24 r r-bypass-\$1-\$2;
#X obj 634 298 sig~;
#X obj 634 323 lop~ 5;
#X obj 511 496 sig~;
#X obj 511 521 lop~ 5;
#X obj 344 537 *~;
#X obj 265 537 *~;
#X obj 722 424 route 1 0;
#X msg 488 440 0;
#X msg 529 440 1;
#X obj 871 372 / 100;
#X obj 871 437 *;
#X obj 871 410 t f f;
#X obj 871 464 sig~;
#X obj 871 491 lop~ 5;
#X obj 828 619 *~;
#X obj 930 618 *~;
#X obj 871 346 r r-sendP2-\$1-\$2;
#X obj 828 654 *~;
#X obj 930 653 *~;
#X obj 711 43 t f;
#X obj 222 36 inlet~ send-L_P1;
#X obj 328 36 inlet~ send-R_P1;
#X obj 817 714 outlet~ send-L_P2;
#X obj 930 714 outlet~ send-R_P2;
#X obj 425 145 hip~;
#X obj 332 143 hip~;
#X obj 427 172 *~ 1;
#X obj 467 158 + 1;
#X obj 335 172 *~ 1;
#X obj 467 99 * 0.0025;
#X obj 397 85 max 5;
#X obj 397 66 r r-hpf-\$1-\$2;
#N canvas 853 264 617 305 delComp 0;
#X obj 178 140 bng 15 250 50 0 empty empty empty 17 7 0 10 -262144
-1 -1;
#X obj 178 114 r bar;
#X obj 285 17 r playing;
#X obj 285 38 sel 0;
#X msg 285 59 1;
#X obj 417 89 r mcActiveFx;
#X obj 417 115 spigot 1;
#X msg 498 135 0;
#X obj 417 138 sel 0, f 8;
#X msg 417 162 0, f 2;
#X obj 498 117 sel 1;
#X obj 500 161 t f f;
#X obj 389 175 i;
#X floatatom 424 190 5 0 0 0 - - -;
#X obj 389 208 outlet;
#X msg 462 162 1;
#X obj 498 89 r mcActiveFx-\$1;
#X obj 139 42 r loadbang-\$1;
#X obj 139 63 delay 500;
#X connect 0 0 12 0;
#X connect 1 0 0 0;
#X connect 2 0 3 0;
#X connect 3 0 4 0;
#X connect 4 0 6 1;
#X connect 5 0 6 0;
#X connect 6 0 8 0;
#X connect 7 0 11 0;
#X connect 8 0 9 0;
#X connect 8 1 15 0;
#X connect 9 0 12 1;
#X connect 10 0 7 0;
#X connect 11 0 12 1;
#X connect 11 1 6 1;
#X connect 12 0 13 0;
#X connect 12 0 14 0;
#X connect 15 0 12 1;
#X connect 16 0 10 0;
#X connect 17 0 18 0;
#X connect 18 0 0 0;
#X restore 728 137 pd delComp;
#X obj 775 224 sig~, f 7;
#X obj 775 245 lop~ 5;
#X obj 702 186 sig~;
#X obj 702 213 lop~ 5;
#X obj 453 341 *~;
#X obj 496 249 *~;
#X obj 300 348 *~;
#X obj 295 247 *~;
#X obj 775 185 sel 1 0;
#X msg 775 203 0, f 2;
#X msg 802 203 1, f 2;
#X floatatom 725 164 5 0 0 0 - - -;
#X obj 336 261 delay~ 340;
#X obj 427 264 delay~ 340;
#X obj 13 357 sig~;
#X obj 13 316 sel 0;
#X msg 13 337 0, f 2;
#X msg 40 337 1, f 2;
#X connect 0 0 9 0;
#X connect 1 0 33 0;
#X connect 1 0 41 0;
#X connect 1 0 50 0;
#X connect 2 0 34 0;
#X connect 2 0 40 0;
#X connect 2 0 51 0;
#X connect 3 0 0 0;
#X connect 4 0 76 0;
#X connect 4 0 75 0;
#X connect 5 0 1 0;
#X connect 6 0 2 0;
#X connect 7 0 5 1;
#X connect 7 0 6 1;
#X connect 8 0 10 0;
#X connect 9 0 8 0;
#X connect 9 1 8 1;
#X connect 10 0 11 0;
#X connect 11 0 12 1;
#X connect 11 0 13 1;
#X connect 12 0 1 1;
#X connect 13 0 2 1;
#X connect 16 0 74 0;
#X connect 16 0 73 0;
#X connect 19 0 84 0;
#X connect 21 0 23 0;
#X connect 22 0 20 0;
#X connect 23 0 22 0;
#X connect 24 0 23 0;
#X connect 31 0 29 0;
#X connect 32 0 30 0;
#X connect 33 0 58 0;
#X connect 34 0 59 0;
#X connect 35 0 55 0;
#X connect 36 0 37 0;
#X connect 37 0 33 1;
#X connect 37 0 34 1;
#X connect 38 0 39 0;
#X connect 39 0 41 1;
#X connect 39 0 40 1;
#X connect 39 0 53 1;
#X connect 39 0 54 1;
#X connect 40 0 17 0;
#X connect 41 0 18 0;
#X connect 42 0 43 0;
#X connect 42 1 44 0;
#X connect 43 0 38 0;
#X connect 44 0 38 0;
#X connect 45 0 47 0;
#X connect 46 0 48 0;
#X connect 47 0 46 0;
#X connect 47 1 46 1;
#X connect 48 0 49 0;
#X connect 49 0 50 1;
#X connect 49 0 51 1;
#X connect 50 0 53 0;
#X connect 51 0 54 0;
#X connect 52 0 45 0;
#X connect 53 0 58 0;
#X connect 54 0 59 0;
#X connect 55 0 36 0;
#X connect 55 0 42 0;
#X connect 56 0 5 0;
#X connect 56 0 61 0;
#X connect 57 0 6 0;
#X connect 57 0 60 0;
#X connect 60 0 62 0;
#X connect 61 0 64 0;
#X connect 62 0 15 0;
#X connect 63 0 62 1;
#X connect 63 0 64 1;
#X connect 64 0 14 0;
#X connect 65 0 63 0;
#X connect 66 0 61 1;
#X connect 66 0 60 1;
#X connect 66 0 65 0;
#X connect 67 0 66 0;
#X connect 68 0 77 0;
#X connect 68 0 71 0;
#X connect 68 0 80 0;
#X connect 69 0 70 0;
#X connect 70 0 73 1;
#X connect 70 0 75 1;
#X connect 71 0 72 0;
#X connect 72 0 74 1;
#X connect 72 0 76 1;
#X connect 73 0 13 0;
#X connect 74 0 82 0;
#X connect 75 0 12 0;
#X connect 76 0 81 0;
#X connect 77 0 78 0;
#X connect 77 1 79 0;
#X connect 78 0 69 0;
#X connect 79 0 69 0;
#X connect 81 0 12 0;
#X connect 82 0 13 0;
#X connect 83 0 7 0;
#X connect 84 0 85 0;
#X connect 84 1 86 0;
#X connect 85 0 83 0;
#X connect 86 0 83 0;
