#N canvas 4 50 1912 998 10;
#X obj 12 280 r notesIn-\$1;
#X obj 252 210 s notesOut-\$1;
#X obj 25 186 inlet~ inL-\$1;
#X obj 135 186 inlet~ inR-\$1;
#X obj 27 601 outlet~ outL-\$1;
#X obj 136 601 outlet~ outR-\$1;
#X obj 252 240 r expIn-\$1;
#X obj 252 265 r fsIn-\$1;
#X obj 251 153 r ctrlIn-\$1;
#X obj 252 182 s ctrlOut-\$1;
#X obj 503 203 r p1-\$1;
#N canvas 0 22 450 278 (subpatch) 0;
#X array wavef_1-\$1 1027 float 2;
#X coords 0 1 1027 -1 200 140 1 0 0;
#X restore 1227 505 graph;
#X obj 1266 116 symbol \$1;
#X obj 1502 110 symbol \$1;
#X obj 1450 194 symbol \$1;
#X obj 1341 40 route 0 1 2 3;
#X obj 1452 275 symbol \$1;
#X obj 1362 71 t b b;
#X obj 1427 71 t b b;
#X obj 1454 351 symbol \$1;
#X obj 1473 69 t b b;
#X text 1531 193 ramp;
#X text 1535 273 triangle;
#X text 1540 350 square;
#X text 1334 112 sine;
#X obj 1341 19 r shape_1-\$1;
#X obj 12 321 stripnote;
#X obj 97 404 bng 15 250 50 0 empty empty empty 17 7 0 10 -262144 -1
-1;
#X floatatom 552 580 5 0 0 0 - - -;
#X obj 528 635 i 60000;
#X obj 588 670 /;
#X floatatom 588 693 6 0 0 0 - - -;
#X obj 552 600 t b f;
#X obj 588 713 *;
#X floatatom 610 615 5 1 64 0 - - -;
#X floatatom 588 745 10 0 0 0 - - -;
#X obj 610 636 t b b f;
#X obj 428 38 phasor~;
#X msg 491 24 0;
#X obj 610 594 r speed_1-\$1;
#X obj 427 267 snapshot~;
#X obj 476 181 r master-ticks;
#X obj 476 206 bng 15 250 50 0 empty empty empty 17 7 0 10 -262144
-1 -1;
#X obj 588 765 s wavespeed_1-\$1;
#X obj 428 -44 r wavespeed_1-\$1;
#X floatatom 427 288 15 0 0 0 - - -;
#X obj 428 72 *~ 1024;
#X obj 427 176 *~;
#X obj 429 105 +~ 1;
#X obj 429 126 /~ 2;
#X obj 503 229 / 100;
#X obj 427 214 +~;
#X obj 498 51 r offset_1-\$1;
#X floatatom 381 36 5 0 0 0 - - -;
#X obj 428 -1 expr 1000 / $f1;
#X obj 442 -23 sel 0;
#X obj 427 398 ctlout 21 16;
#X floatatom 427 377 10 0 0 0 - - -;
#X obj 427 155 tabread4~ wavef_1-\$1;
#X obj 658 44 phasor~;
#X msg 721 30 0;
#X obj 699 267 snapshot~;
#X obj 732 191 r master-ticks;
#X obj 732 216 bng 15 250 50 0 empty empty empty 17 7 0 10 -262144
-1 -1;
#X floatatom 699 288 15 0 0 0 - - -;
#X obj 658 78 *~ 1024;
#X obj 657 182 *~;
#X obj 659 111 +~ 1;
#X obj 659 132 /~ 2;
#X obj 759 234 / 100;
#X obj 657 209 +~;
#X floatatom 611 42 5 0 0 0 - - -;
#X obj 658 5 expr 1000 / $f1;
#X obj 672 -17 sel 0;
#X floatatom 699 372 5 0 0 0 - - -;
#X obj 658 -38 r wavespeed_2-\$1;
#X obj 751 43 r offset_2-\$1;
#X obj 657 161 tabread4~ wavef_2-\$1;
#X obj 759 213 r p2-\$1;
#X obj 699 392 ctlout 22 16;
#X floatatom 702 580 5 0 0 0 - - -;
#X obj 678 636 i 60000;
#X obj 738 671 /;
#X floatatom 738 694 6 0 0 0 - - -;
#X obj 702 601 t b f;
#X obj 738 714 *;
#X floatatom 760 616 5 1 64 0 - - -;
#X floatatom 738 746 10 0 0 0 - - -;
#X obj 760 637 t b b f;
#X obj 760 595 r speed_2-\$1;
#X obj 738 766 s wavespeed_2-\$1;
#X floatatom 850 580 5 0 0 0 - - -;
#X obj 826 632 i 60000;
#X obj 886 667 /;
#X floatatom 886 690 6 0 0 0 - - -;
#X obj 850 597 t b f;
#X obj 886 710 *;
#X floatatom 908 612 5 1 64 0 - - -;
#X floatatom 886 742 10 0 0 0 - - -;
#X obj 908 633 t b b f;
#X floatatom 1000 580 5 0 0 0 - - -;
#X obj 976 633 i 60000;
#X obj 1036 668 /;
#X floatatom 1036 691 6 0 0 0 - - -;
#X obj 1000 598 t b f;
#X obj 1036 711 *;
#X floatatom 1058 613 5 1 64 0 - - -;
#X floatatom 1036 743 10 0 0 0 - - -;
#X obj 1058 634 t b b f;
#X obj 908 591 r speed_3-\$1;
#X obj 1058 592 r speed_4-\$1;
#X obj 886 762 s wavespeed_3-\$1;
#X obj 1036 763 s wavespeed_4-\$1;
#X obj 893 47 phasor~;
#X msg 956 33 0;
#X obj 892 276 snapshot~;
#X obj 973 208 r master-ticks;
#X obj 973 233 bng 15 250 50 0 empty empty empty 17 7 0 10 -262144
-1 -1;
#X floatatom 892 297 15 0 0 0 - - -;
#X obj 893 81 *~ 1024;
#X obj 892 185 *~;
#X obj 894 114 +~ 1;
#X obj 894 135 /~ 2;
#X obj 1000 251 / 100;
#X obj 892 212 +~;
#X floatatom 846 45 5 0 0 0 - - -;
#X obj 893 8 expr 1000 / $f1;
#X obj 907 -14 sel 0;
#X floatatom 892 374 5 0 0 0 - - -;
#X obj 1123 43 phasor~;
#X msg 1186 29 0;
#X obj 1122 272 snapshot~;
#X obj 1203 204 r master-ticks;
#X obj 1203 229 bng 15 250 50 0 empty empty empty 17 7 0 10 -262144
-1 -1;
#X floatatom 1122 293 15 0 0 0 - - -;
#X obj 1123 77 *~ 1024;
#X obj 1122 181 *~;
#X obj 1124 110 +~ 1;
#X obj 1124 131 /~ 2;
#X obj 1230 247 / 100;
#X obj 1122 208 +~;
#X floatatom 1076 41 5 0 0 0 - - -;
#X obj 1123 4 expr 1000 / $f1;
#X obj 1137 -18 sel 0;
#X floatatom 1122 375 5 0 0 0 - - -;
#X obj 892 394 ctlout 23 16;
#X obj 1122 395 ctlout 24 16;
#X obj 892 164 tabread4~ wavef_3-\$1;
#X obj 986 46 r offset_3-\$1;
#X obj 893 -35 r wavespeed_3-\$1;
#X obj 1123 -39 r wavespeed_4-\$1;
#X obj 1216 42 r offset_4-\$1;
#X obj 1122 160 tabread4~ wavef_4-\$1;
#N canvas 0 22 450 278 (subpatch) 0;
#X array wavef_2-\$1 1027 float 2;
#X coords 0 1 1027 -1 200 140 1 0 0;
#X restore 1438 505 graph;
#N canvas 0 22 450 278 (subpatch) 0;
#X array wavef_3-\$1 1027 float 2;
#X coords 0 1 1027 -1 200 140 1 0 0;
#X restore 1227 665 graph;
#N canvas 0 22 450 278 (subpatch) 0;
#X array wavef_4-\$1 1027 float 2;
#X coords 0 1 1027 -1 200 140 1 0 0;
#X restore 1438 665 graph;
#X msg 1266 138 \; wavef_1-\$1 sinesum 1024 1;
#X msg 1450 217 \; wavef_1-\$1 sinesum 1024 1 0.5 0.333333 0.25 0.2
0.166667 0.142857 0.125 0.111111 0.1 0.090909 0.0833333 0.076923;
#X msg 1502 132 \; wavef_1-\$1 normalize 1;
#X msg 1452 297 \; wavef_1-\$1 sinesum 1024 1 0 -0.111111 0 0.04 0
-0.0204082 0 0.0123456 0 -0.00826446 0;
#X msg 1454 373 \; wavef_1-\$1 sinesum 1024 1 0 0.333333 0 0.2 0 0.142857
0 0.111111 0 0.090909 0 0.076923;
#X obj 1682 112 symbol \$1;
#X obj 2081 151 symbol \$1;
#X obj 1866 190 symbol \$1;
#X obj 1757 36 route 0 1 2 3;
#X obj 1868 271 symbol \$1;
#X obj 1778 67 t b b;
#X obj 1843 67 t b b;
#X obj 1870 347 symbol \$1;
#X obj 1889 65 t b b;
#X text 1947 189 ramp;
#X text 1951 269 triangle;
#X text 1956 346 square;
#X text 1750 108 sine;
#X obj 2093 79 symbol \$1;
#X obj 2492 118 symbol \$1;
#X obj 2277 157 symbol \$1;
#X obj 2168 3 route 0 1 2 3;
#X obj 2279 238 symbol \$1;
#X obj 2189 34 t b b;
#X obj 2254 34 t b b;
#X obj 2281 314 symbol \$1;
#X obj 2300 32 t b b;
#X text 2358 156 ramp;
#X text 2362 236 triangle;
#X text 2367 313 square;
#X text 2161 75 sine;
#X obj 1675 549 symbol \$1;
#X obj 2074 588 symbol \$1;
#X obj 1859 627 symbol \$1;
#X obj 1750 473 route 0 1 2 3;
#X obj 1861 708 symbol \$1;
#X obj 1771 504 t b b;
#X obj 1836 504 t b b;
#X obj 1863 784 symbol \$1;
#X obj 1882 502 t b b;
#X text 1940 626 ramp;
#X text 1944 706 triangle;
#X text 1949 783 square;
#X text 1743 545 sine;
#X obj 1757 15 r shape_2-\$1;
#X msg 1682 134 \; wavef_2-\$1 sinesum 1024 1;
#X msg 2081 173 \; wavef_2-\$1 normalize 1;
#X msg 1866 213 \; wavef_2-\$1 sinesum 1024 1 0.5 0.333333 0.25 0.2
0.166667 0.142857 0.125 0.111111 0.1 0.090909 0.0833333 0.076923;
#X msg 1868 293 \; wavef_2-\$1 sinesum 1024 1 0 -0.111111 0 0.04 0
-0.0204082 0 0.0123456 0 -0.00826446 0;
#X msg 1870 369 \; wavef_2-\$1 sinesum 1024 1 0 0.333333 0 0.2 0 0.142857
0 0.111111 0 0.090909 0 0.076923;
#X obj 1750 452 r shape_3-\$1;
#X msg 1675 571 \; wavef_3-\$1 sinesum 1024 1;
#X msg 1859 650 \; wavef_3-\$1 sinesum 1024 1 0.5 0.333333 0.25 0.2
0.166667 0.142857 0.125 0.111111 0.1 0.090909 0.0833333 0.076923;
#X msg 1861 730 \; wavef_3-\$1 sinesum 1024 1 0 -0.111111 0 0.04 0
-0.0204082 0 0.0123456 0 -0.00826446 0;
#X msg 1863 806 \; wavef_3-\$1 sinesum 1024 1 0 0.333333 0 0.2 0 0.142857
0 0.111111 0 0.090909 0 0.076923;
#X msg 2074 610 \; wavef_3-\$1 normalize 1;
#X obj 2168 -18 r shape_4-\$1;
#X msg 2093 101 \; wavef_4-\$1 sinesum 1024 1;
#X msg 2492 140 \; wavef_4-\$1 normalize 1;
#X msg 2277 180 \; wavef_4-\$1 sinesum 1024 1 0.5 0.333333 0.25 0.2
0.166667 0.142857 0.125 0.111111 0.1 0.090909 0.0833333 0.076923;
#X msg 2279 260 \; wavef_4-\$1 sinesum 1024 1 0 -0.111111 0 0.04 0
-0.0204082 0 0.0123456 0 -0.00826446 0;
#X msg 2281 336 \; wavef_4-\$1 sinesum 1024 1 0 0.333333 0 0.2 0 0.142857
0 0.111111 0 0.090909 0 0.076923;
#X obj 1000 230 r p3-\$1;
#X floatatom 26 302 5 0 0 0 - - -;
#X obj 193 404 bng 15 250 50 0 empty empty empty 17 7 0 10 -262144
-1 -1;
#X obj 193 455 ctlout 29 16;
#X obj 279 404 bng 15 250 50 0 empty empty empty 17 7 0 10 -262144
-1 -1;
#X obj 279 455 ctlout 30 16;
#X obj 1230 226 r p4-\$1;
#X obj 193 424 i 127;
#X obj 97 424 i 127;
#X obj 279 424 i 127;
#X obj 253 589 ctlout 25 16;
#X obj 14 516 i 0;
#X obj 12 344 sel 60 61 62 63 64 72 73 74 75 76 77 78 79 80 81 82 83
, f 68;
#X obj 79 516 i 12;
#X obj 153 516 i 28;
#X obj 428 516 i 127;
#X obj 312 648 hsl 128 15 0 127 0 0 empty empty empty -2 -8 0 10 -262144
-1 -1 0 1;
#X floatatom 309 668 5 0 0 0 - - -;
#X obj 386 516 i 112;
#X obj 304 516 i 83;
#X obj 266 516 i 71;
#X obj 231 516 i 56;
#X obj 118 516 i 98;
#X obj 97 455 ctlout 27 16;
#X obj 588 256 r notesIn-\$1;
#X obj 10 404 bng 15 250 50 0 empty empty empty 17 7 0 10 -262144 -1
-1;
#X obj 10 424 i 127;
#X obj 10 455 ctlout 26 16;
#X obj 365 404 bng 15 250 50 0 empty empty empty 17 7 0 10 -262144
-1 -1;
#X obj 365 424 i 127;
#X obj 365 455 ctlout 31 16;
#X obj 41 516 i 120;
#X obj 347 516 i 122;
#X obj 192 516 i 33;
#X obj 673 433 bng 15 250 50 0 empty empty empty 17 7 0 10 -262144
-1 -1;
#X obj 673 456 i 127;
#X obj 795 440 bng 15 250 50 0 empty empty empty 17 7 0 10 -262144
-1 -1;
#X obj 795 462 i 127;
#X obj 799 407 bng 15 250 50 0 empty empty empty 17 7 0 10 -262144
-1 -1;
#X obj 960 443 i 127;
#X obj 567 297 stripnote;
#X obj 673 480 ctlout 32 16;
#X obj 795 485 ctlout 33 16;
#X obj 933 480 ctlout 34 16;
#X obj 853 392 tgl 15 0 empty empty empty 17 7 0 10 -262144 -1 -1 0
1;
#X obj 923 446 i 0;
#X obj 853 409 sel 0;
#X text 214 484 persist;
#X text 276 484 previous mode;
#X text 393 484 next mode;
#X text 16 484 previous scene;
#X text 119 484 next scene;
#X text 1023 467 trigger;
#X text 701 432 screenshot;
#X text 859 439 info;
#X obj 566 323 sel 65 66 67 68 70;
#X obj 575 432 bng 15 250 50 0 empty empty empty 17 7 0 10 -262144
-1 -1;
#X obj 575 452 i 127;
#X obj 575 473 ctlout 35 16;
#X text 186 736 next scene;
#X text 281 738 previous mode;
#X text 39 561 bg color selection;
#X obj 529 0 s wavestate_1-\$1;
#X obj 546 95 r wavestate_1-\$1;
#X obj 555 125 tgl 15 0 empty empty empty 17 7 0 10 -262144 -1 -1 0
1;
#X msg 506 -21 1;
#X obj 759 6 s wavestate_2-\$1;
#X msg 722 -18 1;
#X obj 451 235 spigot;
#X obj 713 243 spigot;
#X obj 790 161 tgl 15 0 empty empty empty 17 7 0 10 -262144 -1 -1 0
1;
#X obj 995 145 tgl 15 0 empty empty empty 17 7 0 10 -262144 -1 -1 0
1;
#X obj 1229 309 tgl 15 0 empty empty empty 17 7 0 10 -262144 -1 -1
0 1;
#X obj 780 132 r wavestate_2-\$1;
#X obj 995 115 r wavestate_3-\$1;
#X msg 952 -13 1;
#X obj 1222 5 s wavestate_4-\$1;
#X obj 992 8 s wavestate_3-\$1;
#X obj 1229 279 r wavestate_4-\$1;
#X obj 922 254 spigot;
#X obj 1146 251 spigot;
#X msg 1188 -17 1;
#X obj 751 68 / 127;
#X obj 986 71 / 127;
#X obj 1216 67 / 127;
#X obj 498 97 t b f;
#X floatatom 517 125 5 0 0 0 - - -;
#X obj 498 76 / 127;
#X obj 427 308 * 127;
#X obj 427 338 clip 0 127;
#X obj 582 129 sel 0 127;
#X msg 582 202 set 0;
#X msg 614 222 set 1;
#X obj 582 150 t b b;
#X obj 613 179 t b b;
#X obj 751 89 t b f;
#X floatatom 778 109 5 0 0 0 - - -;
#X obj 804 254 sel 0 127;
#X msg 787 311 set 0;
#X msg 794 335 set 1;
#X obj 796 274 t b b;
#X obj 835 304 t b b;
#X obj 699 308 * 127;
#X obj 699 330 clip 0 127;
#X obj 699 351 i;
#X obj 1029 287 sel 0 127;
#X msg 1012 344 set 0;
#X msg 1019 368 set 1;
#X obj 1021 307 t b b;
#X obj 1060 337 t b b;
#X obj 1356 255 sel 0 127;
#X msg 1339 312 set 0;
#X msg 1346 336 set 1;
#X obj 1348 275 t b b;
#X obj 1387 305 t b b;
#X obj 986 90 t b f;
#X obj 892 315 * 127;
#X obj 1216 86 t b f;
#X obj 892 335 clip 0 127;
#X obj 1122 313 * 127;
#X obj 1122 334 clip 0 127;
#X obj 427 357 i;
#X obj 892 354 i;
#X obj 1122 353 i;
#X obj 552 559 r loopy-bpm;
#X obj 850 559 r loopy-bpm;
#X obj 1000 559 r loopy-bpm;
#X obj 509 411 bng 15 250 50 0 empty empty empty 17 7 0 10 -262144
-1 -1;
#X obj 490 315 unpack 0 0;
#X floatatom 647 297 5 0 0 0 - - -;
#X msg 492 461 127;
#X obj 493 500 ctlout 28 16;
#X obj 702 559 r loopy-bpm;
#X connect 0 0 26 0;
#X connect 0 0 219 0;
#X connect 10 0 50 0;
#X connect 12 0 156 0;
#X connect 13 0 158 0;
#X connect 14 0 157 0;
#X connect 15 0 12 0;
#X connect 15 1 17 0;
#X connect 15 2 18 0;
#X connect 15 3 20 0;
#X connect 16 0 159 0;
#X connect 17 0 13 0;
#X connect 17 1 14 0;
#X connect 18 0 13 0;
#X connect 18 1 16 0;
#X connect 19 0 160 0;
#X connect 20 0 13 0;
#X connect 20 1 19 0;
#X connect 25 0 15 0;
#X connect 26 0 230 0;
#X connect 27 0 226 0;
#X connect 28 0 32 0;
#X connect 29 0 30 0;
#X connect 30 0 31 0;
#X connect 31 0 33 0;
#X connect 32 0 30 0;
#X connect 32 1 30 1;
#X connect 33 0 35 0;
#X connect 34 0 36 0;
#X connect 35 0 43 0;
#X connect 36 0 29 0;
#X connect 36 1 31 0;
#X connect 36 2 33 1;
#X connect 37 0 46 0;
#X connect 38 0 37 1;
#X connect 38 0 280 0;
#X connect 39 0 34 0;
#X connect 40 0 45 0;
#X connect 41 0 42 0;
#X connect 42 0 286 0;
#X connect 44 0 54 0;
#X connect 44 0 55 0;
#X connect 45 0 306 0;
#X connect 46 0 48 0;
#X connect 47 0 51 0;
#X connect 48 0 49 0;
#X connect 49 0 58 0;
#X connect 50 0 47 1;
#X connect 51 0 40 0;
#X connect 52 0 305 0;
#X connect 52 0 308 0;
#X connect 54 0 37 0;
#X connect 54 0 53 0;
#X connect 55 0 38 0;
#X connect 55 1 283 0;
#X connect 57 0 56 0;
#X connect 58 0 47 0;
#X connect 59 0 65 0;
#X connect 60 0 59 1;
#X connect 60 0 284 0;
#X connect 61 0 64 0;
#X connect 62 0 63 0;
#X connect 63 0 287 0;
#X connect 64 0 320 0;
#X connect 65 0 67 0;
#X connect 66 0 70 0;
#X connect 67 0 68 0;
#X connect 68 0 77 0;
#X connect 69 0 66 1;
#X connect 70 0 61 0;
#X connect 72 0 59 0;
#X connect 72 0 71 0;
#X connect 73 0 60 0;
#X connect 73 1 285 0;
#X connect 74 0 79 0;
#X connect 75 0 72 0;
#X connect 75 0 73 0;
#X connect 76 0 300 0;
#X connect 76 0 315 0;
#X connect 77 0 66 0;
#X connect 78 0 69 0;
#X connect 80 0 84 0;
#X connect 81 0 82 0;
#X connect 82 0 83 0;
#X connect 83 0 85 0;
#X connect 84 0 82 0;
#X connect 84 1 82 1;
#X connect 85 0 87 0;
#X connect 86 0 88 0;
#X connect 87 0 90 0;
#X connect 88 0 81 0;
#X connect 88 1 83 0;
#X connect 88 2 85 1;
#X connect 89 0 86 0;
#X connect 91 0 95 0;
#X connect 92 0 93 0;
#X connect 93 0 94 0;
#X connect 94 0 96 0;
#X connect 95 0 93 0;
#X connect 95 1 93 1;
#X connect 96 0 98 0;
#X connect 97 0 99 0;
#X connect 98 0 111 0;
#X connect 99 0 92 0;
#X connect 99 1 94 0;
#X connect 99 2 96 1;
#X connect 100 0 104 0;
#X connect 101 0 102 0;
#X connect 102 0 103 0;
#X connect 103 0 105 0;
#X connect 104 0 102 0;
#X connect 104 1 102 1;
#X connect 105 0 107 0;
#X connect 106 0 108 0;
#X connect 107 0 112 0;
#X connect 108 0 101 0;
#X connect 108 1 103 0;
#X connect 108 2 105 1;
#X connect 109 0 97 0;
#X connect 110 0 106 0;
#X connect 113 0 119 0;
#X connect 114 0 113 1;
#X connect 115 0 118 0;
#X connect 116 0 117 0;
#X connect 117 0 297 0;
#X connect 118 0 334 0;
#X connect 119 0 121 0;
#X connect 120 0 124 0;
#X connect 121 0 122 0;
#X connect 122 0 147 0;
#X connect 123 0 120 1;
#X connect 124 0 115 0;
#X connect 126 0 113 0;
#X connect 126 0 125 0;
#X connect 127 0 114 0;
#X connect 127 1 293 0;
#X connect 128 0 145 0;
#X connect 129 0 135 0;
#X connect 130 0 129 1;
#X connect 130 0 294 0;
#X connect 131 0 134 0;
#X connect 132 0 133 0;
#X connect 133 0 298 0;
#X connect 134 0 337 0;
#X connect 135 0 137 0;
#X connect 136 0 140 0;
#X connect 137 0 138 0;
#X connect 138 0 152 0;
#X connect 139 0 136 1;
#X connect 140 0 131 0;
#X connect 142 0 129 0;
#X connect 142 0 141 0;
#X connect 143 0 130 0;
#X connect 143 1 299 0;
#X connect 144 0 146 0;
#X connect 147 0 120 0;
#X connect 148 0 301 0;
#X connect 148 0 323 0;
#X connect 149 0 126 0;
#X connect 149 0 127 0;
#X connect 150 0 142 0;
#X connect 150 0 143 0;
#X connect 151 0 302 0;
#X connect 151 0 328 0;
#X connect 152 0 136 0;
#X connect 161 0 201 0;
#X connect 162 0 202 0;
#X connect 163 0 203 0;
#X connect 164 0 161 0;
#X connect 164 1 166 0;
#X connect 164 2 167 0;
#X connect 164 3 169 0;
#X connect 165 0 204 0;
#X connect 166 0 162 0;
#X connect 166 1 163 0;
#X connect 167 0 162 0;
#X connect 167 1 165 0;
#X connect 168 0 205 0;
#X connect 169 0 162 0;
#X connect 169 1 168 0;
#X connect 174 0 213 0;
#X connect 175 0 214 0;
#X connect 176 0 215 0;
#X connect 177 0 174 0;
#X connect 177 1 179 0;
#X connect 177 2 180 0;
#X connect 177 3 182 0;
#X connect 178 0 216 0;
#X connect 179 0 175 0;
#X connect 179 1 176 0;
#X connect 180 0 175 0;
#X connect 180 1 178 0;
#X connect 181 0 217 0;
#X connect 182 0 175 0;
#X connect 182 1 181 0;
#X connect 187 0 207 0;
#X connect 188 0 211 0;
#X connect 189 0 208 0;
#X connect 190 0 187 0;
#X connect 190 1 192 0;
#X connect 190 2 193 0;
#X connect 190 3 195 0;
#X connect 191 0 209 0;
#X connect 192 0 188 0;
#X connect 192 1 189 0;
#X connect 193 0 188 0;
#X connect 193 1 191 0;
#X connect 194 0 210 0;
#X connect 195 0 188 0;
#X connect 195 1 194 0;
#X connect 200 0 164 0;
#X connect 206 0 190 0;
#X connect 212 0 177 0;
#X connect 218 0 123 0;
#X connect 220 0 225 0;
#X connect 222 0 227 0;
#X connect 224 0 139 0;
#X connect 225 0 221 0;
#X connect 226 0 241 0;
#X connect 227 0 223 0;
#X connect 229 0 228 0;
#X connect 230 0 222 0;
#X connect 230 1 243 0;
#X connect 230 2 246 0;
#X connect 230 3 27 0;
#X connect 230 4 220 0;
#X connect 230 5 229 0;
#X connect 230 6 249 0;
#X connect 230 7 231 0;
#X connect 230 8 240 0;
#X connect 230 9 232 0;
#X connect 230 10 251 0;
#X connect 230 11 239 0;
#X connect 230 12 238 0;
#X connect 230 13 237 0;
#X connect 230 14 250 0;
#X connect 230 15 236 0;
#X connect 230 16 233 0;
#X connect 231 0 228 0;
#X connect 232 0 228 0;
#X connect 233 0 228 0;
#X connect 234 0 228 0;
#X connect 234 0 235 0;
#X connect 236 0 228 0;
#X connect 237 0 228 0;
#X connect 238 0 228 0;
#X connect 239 0 228 0;
#X connect 240 0 228 0;
#X connect 242 0 258 0;
#X connect 242 0 346 0;
#X connect 242 0 347 0;
#X connect 243 0 244 0;
#X connect 244 0 245 0;
#X connect 246 0 247 0;
#X connect 247 0 248 0;
#X connect 249 0 228 0;
#X connect 250 0 228 0;
#X connect 251 0 228 0;
#X connect 252 0 253 0;
#X connect 253 0 259 0;
#X connect 254 0 255 0;
#X connect 255 0 260 0;
#X connect 256 0 262 0;
#X connect 257 0 261 0;
#X connect 258 0 273 0;
#X connect 262 0 264 0;
#X connect 263 0 261 0;
#X connect 264 0 263 0;
#X connect 264 1 257 0;
#X connect 273 0 345 0;
#X connect 273 1 252 0;
#X connect 273 2 274 0;
#X connect 273 3 254 0;
#X connect 273 4 256 0;
#X connect 274 0 275 0;
#X connect 275 0 276 0;
#X connect 281 0 282 0;
#X connect 282 0 286 1;
#X connect 283 0 280 0;
#X connect 285 0 284 0;
#X connect 286 0 40 0;
#X connect 287 0 61 0;
#X connect 288 0 287 1;
#X connect 289 0 297 1;
#X connect 290 0 298 1;
#X connect 291 0 288 0;
#X connect 292 0 289 0;
#X connect 293 0 295 0;
#X connect 296 0 290 0;
#X connect 297 0 115 0;
#X connect 298 0 131 0;
#X connect 299 0 294 0;
#X connect 300 0 313 0;
#X connect 301 0 333 0;
#X connect 302 0 335 0;
#X connect 303 0 40 0;
#X connect 303 1 304 0;
#X connect 304 0 51 1;
#X connect 305 0 303 0;
#X connect 306 0 307 0;
#X connect 307 0 339 0;
#X connect 308 0 311 0;
#X connect 308 1 312 0;
#X connect 309 0 40 0;
#X connect 310 0 40 0;
#X connect 311 0 40 0;
#X connect 311 1 309 0;
#X connect 312 0 40 0;
#X connect 312 1 310 0;
#X connect 313 0 61 0;
#X connect 313 1 314 0;
#X connect 314 0 70 1;
#X connect 315 0 318 0;
#X connect 315 1 319 0;
#X connect 316 0 61 0;
#X connect 317 0 61 0;
#X connect 318 0 61 0;
#X connect 318 1 316 0;
#X connect 319 0 61 0;
#X connect 319 1 317 0;
#X connect 320 0 321 0;
#X connect 321 0 322 0;
#X connect 322 0 74 0;
#X connect 323 0 326 0;
#X connect 323 1 327 0;
#X connect 324 0 115 0;
#X connect 325 0 115 0;
#X connect 326 0 115 0;
#X connect 326 1 324 0;
#X connect 327 1 325 0;
#X connect 328 0 331 0;
#X connect 328 1 332 0;
#X connect 329 0 131 0;
#X connect 330 0 131 0;
#X connect 331 0 131 0;
#X connect 331 1 329 0;
#X connect 332 1 330 0;
#X connect 333 0 115 0;
#X connect 333 1 124 1;
#X connect 334 0 336 0;
#X connect 335 0 131 0;
#X connect 335 1 140 1;
#X connect 336 0 340 0;
#X connect 337 0 338 0;
#X connect 338 0 341 0;
#X connect 339 0 57 0;
#X connect 340 0 128 0;
#X connect 341 0 144 0;
#X connect 342 0 28 0;
#X connect 343 0 91 0;
#X connect 344 0 100 0;
#X connect 345 0 348 0;
#X connect 348 0 349 0;
#X connect 350 0 80 0;
