#N canvas 556 311 493 354 10;
#X obj 33 30 r loadbang-\$1;
#X obj 117 217 outlet~ outL-\$1;
#X obj 219 217 outlet~ outR-\$1;
#X obj 301 80 inlet~ inL;
#X obj 385 80 inlet~ inR;
#X obj 301 30 r expIn-\$1;
#X obj 395 56 r fsIn-\$1;
#X obj 301 55 s notesOut-\$1;
#X obj 377 30 s ctrlOut-\$1;
#X text 194 173 Pd~ subprocess;
#X obj 33 175 pd~ -ninsig 0 -noutsig 2;
#N canvas 4 50 1912 998 subparams 1;
#X obj 443 636 outlet;
#X obj 836 256 r loadbang-\$1;
#X msg 836 277 loadbang \$1;
#X obj 127 510 r notesIn-\$1;
#X obj 127 531 unpack 0 0;
#X msg 110 563 notes \$1;
#X msg 180 563 velocity \$1;
#X obj 640 458 r ctrlIn-\$1;
#X obj 640 479 unpack 0 0 0;
#X floatatom 639 501 5 0 0 0 - - -;
#X floatatom 707 503 5 0 0 0 - - -;
#X floatatom 809 503 5 0 0 0 - - -;
#X msg 639 527 valuem \$1;
#X msg 809 527 channelm \$1;
#X msg 707 527 controllerm \$1;
#X obj 39 147 r filt_cutoff-\$1;
#X obj 39 83 r filttype-\$1;
#X obj 41 9 r volume-\$1;
#X obj 348 78 r vibrato_depth-\$1;
#X obj 345 147 r mod_speed-\$1;
#X obj 483 7 r tremolo_depth-\$1;
#X obj 892 6 r filt_q-\$1;
#X obj 687 206 r envfilt-\$1;
#X obj 350 7 r transpose-\$1;
#X obj 238 7 r envpitch-\$1;
#X obj 238 77 r sustain-f-\$1;
#X obj 489 74 r fmod_depth-\$1;
#X obj 493 141 r noise-\$1;
#X obj 238 146 r tune-\$1;
#X obj 498 207 r timbre-\$1;
#X obj 592 208 r colour-\$1;
#X obj 760 9 r lfo_timbre-\$1;
#X obj 735 90 r env_timbre-\$1;
#X obj 862 85 r env_colour-\$1;
#X obj 36 280 r attack-\$1;
#X obj 242 282 r release-\$1;
#X obj 356 282 r sustain-\$1;
#X obj 142 281 r decay-\$1;
#X msg 41 53 volume \$1;
#X msg 238 51 envpitch \$1;
#X msg 350 51 transpose \$1;
#X msg 483 51 tremolo_depth \$1;
#X msg 760 49 lfo_timbre \$1;
#X msg 892 46 filt_q \$1;
#X msg 39 126 filttype \$1;
#X msg 238 120 sustain-f \$1;
#X msg 348 121 vibrato_depth \$1;
#X msg 489 114 fmod_depth \$1;
#X msg 735 128 env_timbre \$1;
#X msg 862 123 env_colour \$1;
#X msg 39 188 filt_cutoff \$1;
#X msg 238 187 tune \$1;
#X msg 345 188 mod_speed \$1;
#X msg 493 179 noise \$1;
#X msg 498 248 timbre \$1;
#X msg 592 249 colour \$1;
#X msg 687 247 envfilt \$1;
#X msg 36 322 attack \$1;
#X msg 142 323 decay \$1;
#X msg 242 324 release \$1;
#X msg 356 324 sustain \$1;
#X msg 49 480 lfotype-colour \$1;
#X obj 36 351 r lfotype-timbre-\$1;
#X obj 49 439 r lfotype-colour-\$1;
#X obj 182 355 r lfospeed-timbre-\$1;
#X obj 185 440 r lfospeed-colour-\$1;
#X obj 491 369 r decay-f-\$1;
#X obj 477 287 r lfo_colour-\$1;
#X obj 606 288 r release-f-\$1;
#X obj 704 287 r attack-f-\$1;
#X msg 182 398 lfospeed-timbre \$1;
#X msg 185 481 lfospeed-colour \$1;
#X msg 491 413 decay-f \$1;
#X msg 477 336 lfo_colour \$1;
#X msg 606 340 release-f \$1;
#X msg 704 336 attack-f \$1;
#X msg 37 399 lfotype-timbre \$1;
#X obj 140 215 r shape-\$1;
#X msg 140 256 shape \$1;
#X msg 609 128 master-ticks \$1;
#X obj 609 107 r master-ticks;
#X obj 768 157 r lfosync-1-\$1;
#X obj 871 180 r lfosync-2-\$1;
#X msg 768 195 lfosync-1 \$1;
#X msg 871 221 lfosync-2 \$1;
#X obj 267 614 r auxIn-\$1;
#X msg 267 635 auxIn \$1;
#X floatatom 41 30 5 0 0 0 - - -;
#X floatatom 238 28 5 0 0 0 - - -;
#X floatatom 350 28 5 0 0 0 - - -;
#X floatatom 483 28 5 0 0 0 - - -;
#X floatatom 39 105 5 0 0 0 - - -;
#X floatatom 238 99 5 0 0 0 - - -;
#X floatatom 348 100 5 0 0 0 - - -;
#X floatatom 39 166 5 0 0 0 - - -;
#X floatatom 238 165 5 0 0 0 - - -;
#X floatatom 345 166 5 0 0 0 - - -;
#X floatatom 140 235 5 0 0 0 - - -;
#X floatatom 49 458 5 0 0 0 - - -;
#X floatatom 185 459 5 0 0 0 - - -;
#X floatatom 36 370 5 0 0 0 - - -;
#X floatatom 182 374 5 0 0 0 - - -;
#X floatatom 36 299 5 0 0 0 - - -;
#X floatatom 142 300 5 0 0 0 - - -;
#X floatatom 242 301 5 0 0 0 - - -;
#X floatatom 356 301 5 0 0 0 - - -;
#X floatatom 491 388 5 0 0 0 - - -;
#X floatatom 477 307 5 0 0 0 - - -;
#X floatatom 606 308 5 0 0 0 - - -;
#X floatatom 704 307 5 0 0 0 - - -;
#X floatatom 498 226 5 0 0 0 - - -;
#X floatatom 592 227 5 0 0 0 - - -;
#X floatatom 687 225 5 0 0 0 - - -;
#X floatatom 489 93 5 0 0 0 - - -;
#X floatatom 493 161 5 0 0 0 - - -;
#X floatatom 760 29 5 0 0 0 - - -;
#X floatatom 892 26 5 0 0 0 - - -;
#X floatatom 735 109 5 0 0 0 - - -;
#X floatatom 862 104 5 0 0 0 - - -;
#X floatatom 871 200 5 0 0 0 - - -;
#X floatatom 768 176 5 0 0 0 - - -;
#X obj 621 11 r loaded-\$1;
#X obj 627 46 r loaded-\$1;
#X connect 1 0 2 0;
#X connect 2 0 0 0;
#X connect 3 0 4 0;
#X connect 4 0 5 0;
#X connect 4 1 6 0;
#X connect 5 0 0 0;
#X connect 6 0 0 0;
#X connect 7 0 8 0;
#X connect 8 0 9 0;
#X connect 8 1 10 0;
#X connect 8 2 11 0;
#X connect 9 0 12 0;
#X connect 10 0 14 0;
#X connect 11 0 13 0;
#X connect 12 0 0 0;
#X connect 13 0 0 0;
#X connect 14 0 0 0;
#X connect 15 0 94 0;
#X connect 16 0 91 0;
#X connect 17 0 87 0;
#X connect 18 0 93 0;
#X connect 19 0 96 0;
#X connect 20 0 90 0;
#X connect 21 0 116 0;
#X connect 22 0 112 0;
#X connect 23 0 89 0;
#X connect 24 0 88 0;
#X connect 25 0 92 0;
#X connect 26 0 113 0;
#X connect 27 0 114 0;
#X connect 28 0 95 0;
#X connect 29 0 110 0;
#X connect 30 0 111 0;
#X connect 31 0 115 0;
#X connect 32 0 117 0;
#X connect 33 0 118 0;
#X connect 34 0 102 0;
#X connect 35 0 104 0;
#X connect 36 0 105 0;
#X connect 37 0 103 0;
#X connect 38 0 0 0;
#X connect 39 0 0 0;
#X connect 40 0 0 0;
#X connect 41 0 0 0;
#X connect 42 0 0 0;
#X connect 43 0 0 0;
#X connect 44 0 0 0;
#X connect 45 0 0 0;
#X connect 46 0 0 0;
#X connect 47 0 0 0;
#X connect 48 0 0 0;
#X connect 49 0 0 0;
#X connect 50 0 0 0;
#X connect 51 0 0 0;
#X connect 52 0 0 0;
#X connect 53 0 0 0;
#X connect 54 0 0 0;
#X connect 55 0 0 0;
#X connect 56 0 0 0;
#X connect 57 0 0 0;
#X connect 58 0 0 0;
#X connect 59 0 0 0;
#X connect 60 0 0 0;
#X connect 61 0 0 0;
#X connect 62 0 100 0;
#X connect 63 0 98 0;
#X connect 64 0 101 0;
#X connect 65 0 99 0;
#X connect 66 0 106 0;
#X connect 67 0 107 0;
#X connect 68 0 108 0;
#X connect 69 0 109 0;
#X connect 70 0 0 0;
#X connect 71 0 0 0;
#X connect 72 0 0 0;
#X connect 73 0 0 0;
#X connect 74 0 0 0;
#X connect 75 0 0 0;
#X connect 76 0 0 0;
#X connect 77 0 97 0;
#X connect 78 0 0 0;
#X connect 79 0 0 0;
#X connect 80 0 79 0;
#X connect 81 0 120 0;
#X connect 82 0 119 0;
#X connect 83 0 0 0;
#X connect 84 0 0 0;
#X connect 85 0 86 0;
#X connect 86 0 0 0;
#X connect 87 0 38 0;
#X connect 88 0 39 0;
#X connect 89 0 40 0;
#X connect 90 0 41 0;
#X connect 91 0 44 0;
#X connect 92 0 45 0;
#X connect 93 0 46 0;
#X connect 94 0 50 0;
#X connect 95 0 51 0;
#X connect 96 0 52 0;
#X connect 97 0 78 0;
#X connect 98 0 61 0;
#X connect 99 0 71 0;
#X connect 100 0 76 0;
#X connect 101 0 70 0;
#X connect 102 0 57 0;
#X connect 103 0 58 0;
#X connect 104 0 59 0;
#X connect 105 0 60 0;
#X connect 106 0 72 0;
#X connect 107 0 73 0;
#X connect 108 0 74 0;
#X connect 109 0 75 0;
#X connect 110 0 54 0;
#X connect 111 0 55 0;
#X connect 112 0 56 0;
#X connect 113 0 47 0;
#X connect 114 0 53 0;
#X connect 115 0 42 0;
#X connect 116 0 43 0;
#X connect 117 0 48 0;
#X connect 118 0 49 0;
#X connect 119 0 84 0;
#X connect 120 0 83 0;
#X connect 121 0 87 0;
#X connect 121 0 88 0;
#X connect 121 0 89 0;
#X connect 121 0 90 0;
#X connect 121 0 115 0;
#X connect 121 0 116 0;
#X connect 122 0 91 0;
#X connect 122 0 92 0;
#X connect 122 0 93 0;
#X connect 122 0 117 0;
#X connect 122 0 118 0;
#X connect 122 0 120 0;
#X connect 122 0 119 0;
#X connect 122 0 94 0;
#X connect 122 0 95 0;
#X connect 122 0 96 0;
#X connect 122 0 114 0;
#X connect 122 0 110 0;
#X connect 122 0 111 0;
#X connect 122 0 112 0;
#X connect 122 0 97 0;
#X connect 122 0 102 0;
#X connect 122 0 103 0;
#X connect 122 0 104 0;
#X connect 122 0 105 0;
#X connect 122 0 107 0;
#X connect 122 0 108 0;
#X connect 122 0 109 0;
#X connect 122 0 100 0;
#X connect 122 0 101 0;
#X connect 122 0 106 0;
#X connect 122 0 98 0;
#X connect 122 0 99 0;
#X restore 166 123 pd subparams;
#X text 252 123 subprocess parameters;
#X obj 337 160 r playing;
#X obj 337 181 sel 0;
#X obj 337 201 s mcActive-\$1;
#X obj 84 265 s aux-led-\$1;
#N canvas 4 50 450 300 router 0;
#X obj 44 25 inlet;
#X obj 168 101 s aux-label-\$1;
#X obj 50 69 route aux-led loaded;
#X connect 0 0 2 0;
#X connect 2 2 1 0;
#X restore 51 314 pd router;
#X obj 84 244 route aux-led loaded;
#X obj 170 265 bng 15 250 50 0 empty empty empty 17 7 0 10 -262144
-1 -1;
#X obj 170 285 s loaded-\$1;
#X msg 33 51 pd~ start -nogui pd~-braids.pd;
#X connect 0 0 21 0;
#X connect 10 0 17 0;
#X connect 10 0 18 0;
#X connect 10 1 1 0;
#X connect 10 2 2 0;
#X connect 11 0 10 0;
#X connect 13 0 14 0;
#X connect 14 1 15 0;
#X connect 18 0 16 0;
#X connect 18 1 19 0;
#X connect 19 0 20 0;
#X connect 21 0 10 0;
