#N canvas 315 305 270 410 10;
#X obj 20 253 aptone/aptone \$1;
#X obj 20 110 r notes;
#X obj 72 110 r velocity;
#X obj 20 195 pack 0 0;
#X obj 21 22 loadbang;
#X msg 77 58 \; pd dsp 1;
#X obj 21 322 dac~ 1 2;
#X obj 150 158 r auxIn;
#X floatatom 150 179 5 0 0 0 - - -;
#X obj 150 199 == 0;
#X obj 154 228 tgl 15 0 empty empty empty 17 7 0 10 -262144 -1 -1 1
1;
#X obj 20 216 spigot;
#X obj 224 164 loadbang;
#X msg 224 185 1;
#X obj 21 43 t b b;
#X msg 21 64 loaded;
#X obj 21 85 stdout;
#X connect 0 0 6 0;
#X connect 0 0 6 1;
#X connect 1 0 3 0;
#X connect 2 0 3 1;
#X connect 3 0 11 0;
#X connect 4 0 14 0;
#X connect 7 0 8 0;
#X connect 8 0 9 0;
#X connect 9 0 10 0;
#X connect 10 0 11 1;
#X connect 11 0 0 0;
#X connect 12 0 13 0;
#X connect 13 0 10 0;
#X connect 14 0 15 0;
#X connect 14 1 5 0;
#X connect 15 0 16 0;
