#N canvas 292 187 1523 759 10;
#X obj 314 150 hsl 128 15 0 1 0 0 empty empty Preset_selection -2 -8
0 10 -262144 -1 -1 529 1;
#X floatatom 432 245 5 0 0 0 - - -;
#X text 353 202 Preset selected;
#X obj 196 103 bng 15 250 50 0 empty empty Save 17 7 0 10 -262144 -1
-1;
#X obj 221 176 bng 15 250 50 0 empty empty Load 17 7 0 10 -262144 -1
-1;
#X obj 138 196 r param;
#X text 1116 227 Recall preset and send values to parameters, f 24
;
#X text 22 188 receives indexed parameter value, f 16;
#X obj 196 71 r save;
#X obj 221 151 r load;
#N canvas 4 50 1143 755 preset_number 0;
#X obj 39 27 inlet;
#X obj 39 403 spigot;
#X obj 291 117 r page_select;
#X obj 291 228 change;
#X msg 325 194 0;
#X obj 291 166 delay 10;
#X msg 291 194 1;
#X obj 291 253 t b f;
#X obj 39 310 f;
#X obj 39 265 t b f;
#X obj 291 143 sel 7;
#X text 339 143 page 7;
#X obj 39 435 s screenLine3;
#X msg 39 355 2: Preset number: \$1;
#X connect 0 0 9 0;
#X connect 1 0 12 0;
#X connect 2 0 10 0;
#X connect 3 0 7 0;
#X connect 4 0 3 0;
#X connect 5 0 6 0;
#X connect 6 0 3 0;
#X connect 7 0 8 0;
#X connect 7 1 1 1;
#X connect 8 0 13 0;
#X connect 9 0 8 0;
#X connect 9 1 8 1;
#X connect 10 0 5 0;
#X connect 10 1 4 0;
#X connect 13 0 1 0;
#X restore 246 278 pd preset_number;
#X obj 171 231 presets 32 24;
#X obj 172 316 route 1 2 3 4 5 6 7 8 9 10 11 12 13 14 15 16 17 18 19
20 21 22 23 24 25 26 27 28 29 30 31 32, f 197;
#X obj 311 83 r preset_select;
#X text 315 179 32 parameters \, 24 preset files;
#X obj 605 49 r auxIn;
#X floatatom 605 70 5 0 0 0 - - -;
#X obj 605 90 sel 1;
#X obj 605 111 bng 15 250 50 0 empty empty empty 17 7 0 10 -262144
-1 -1;
#X obj 605 131 t b b;
#X obj 605 152 timer;
#X floatatom 605 173 5 0 0 0 - - -;
#X obj 605 216 tgl 15 0 empty empty empty 17 7 0 10 -262144 -1 -1 1
1;
#X obj 605 236 sel 1 0;
#X obj 605 282 s greater-\$1;
#X obj 693 282 s lesser-\$1;
#X obj 792 -7 r greater-\$1;
#X obj 792 110 tgl 15 0 empty empty empty 17 7 0 10 -262144 -1 -1 1
1;
#X obj 881 112 tgl 15 0 empty empty empty 17 7 0 10 -262144 -1 -1 0
1;
#X obj 881 -7 r lesser-\$1;
#X msg 792 62 1;
#X msg 827 62 0;
#X msg 881 62 1;
#X msg 914 62 0;
#X obj 605 193 >= 250;
#X obj 507 -9 r notes;
#X floatatom 507 107 5 0 0 0 - - -;
#X obj 507 86 - 12;
#X obj 507 127 % 24;
#X floatatom 507 148 5 0 0 0 - - -;
#X obj 507 168 + 1;
#X floatatom 507 189 5 0 0 0 - - -;
#X obj 507 209 / 24;
#X floatatom 507 230 5 0 0 0 - - -;
#X obj 440 41 loadbang;
#X obj 832 233 stdout;
#X obj 792 130 sel 1;
#X msg 792 151 Load preset;
#X obj 881 132 sel 1;
#X msg 881 153 Save preset;
#X obj 507 250 t b f;
#X obj 707 91 tgl 15 0 empty empty empty 17 7 0 10 -262144 -1 -1 0
1;
#X obj 678 159 spigot;
#X obj 724 179 spigot;
#X obj 507 62 spigot;
#X obj 680 136 spigot;
#X obj 723 157 spigot;
#X obj 558 -9 r velocity;
#X obj 507 12 pack 0 0;
#X obj 507 33 stripnote;
#X obj 172 377 * 47;
#X obj 172 397 s shape;
#X obj 208 357 * 100;
#X obj 208 378 s colour;
#X obj 244 398 s timbre;
#X obj 245 358 * 100;
#X obj 282 358 * 48;
#X obj 282 379 - 24;
#X floatatom 282 421 5 0 0 0 - - -;
#X obj 282 441 s transpose;
#X obj 319 359 * 2;
#X obj 319 401 * 100;
#X obj 319 380 - 1;
#X obj 319 422 s tune;
#X obj 356 359 s envpitch;
#X obj 393 380 * 100;
#X obj 393 401 s noise;
#X obj 429 359 * 100;
#X obj 429 380 s volume;
#X obj 466 401 s lfotype-colour;
#X obj 466 359 * 5;
#X floatatom 172 337 5 0 0 0 - - -;
#X floatatom 210 337 5 0 0 0 - - -;
#X floatatom 247 337 5 0 0 0 - - -;
#X floatatom 282 337 5 0 0 0 - - -;
#X floatatom 319 337 5 0 0 0 - - -;
#X floatatom 356 337 5 0 0 0 - - -;
#X floatatom 393 337 5 0 0 0 - - -;
#X floatatom 429 337 5 0 0 0 - - -;
#X floatatom 466 337 5 0 0 0 - - -;
#X floatatom 504 337 5 0 0 0 - - -;
#X floatatom 542 337 5 0 0 0 - - -;
#X floatatom 578 337 5 0 0 0 - - -;
#X floatatom 614 337 5 0 0 0 - - -;
#X floatatom 651 337 5 0 0 0 - - -;
#X floatatom 688 337 5 0 0 0 - - -;
#X floatatom 725 337 5 0 0 0 - - -;
#X floatatom 761 337 5 0 0 0 - - -;
#X floatatom 798 337 5 0 0 0 - - -;
#X floatatom 836 337 5 0 0 0 - - -;
#X floatatom 874 337 5 0 0 0 - - -;
#X floatatom 911 337 5 0 0 0 - - -;
#X floatatom 946 337 5 0 0 0 - - -;
#X floatatom 983 337 5 0 0 0 - - -;
#X floatatom 1020 337 5 0 0 0 - - -;
#X floatatom 1057 337 5 0 0 0 - - -;
#X floatatom 1093 337 5 0 0 0 - - -;
#X floatatom 1130 337 5 0 0 0 - - -;
#X floatatom 1165 337 5 0 0 0 - - -;
#X floatatom 1202 337 5 0 0 0 - - -;
#X floatatom 1239 337 5 0 0 0 - - -;
#X floatatom 1275 337 5 0 0 0 - - -;
#X floatatom 1312 337 5 0 0 0 - - -;
#X obj 504 358 * 15;
#X obj 504 379 s lfospeed-colour;
#X obj 542 357 * 2;
#X obj 541 424 - 1;
#X obj 541 443 s lfo_colour;
#X obj 578 358 * 3;
#X obj 615 357 * 5;
#X obj 653 356 * 15;
#X obj 691 355 * 2;
#X obj 690 446 - 1;
#X obj 727 356 * 3;
#X obj 615 423 s lfotype-timbre;
#X obj 690 465 s lfo_timbre;
#X obj 653 378 s lfospeed-timbre;
#X obj 727 402 s lfosync-2;
#X obj 578 403 s lfosync-1;
#X msg 766 243 1;
#X msg 766 264 aux-led \$1;
#X obj 766 285 stdout;
#X msg 635 111 0;
#X msg 890 240 3;
#X obj 761 357 * 3000;
#X obj 761 378 s attack;
#X obj 804 357 * 3000;
#X obj 804 402 s decay;
#X obj 836 380 s sustain;
#X obj 876 359 * 3000;
#X obj 877 402 s release;
#X obj 920 359 * 3000;
#X obj 963 359 * 3000;
#X obj 1035 361 * 3000;
#X obj 920 380 s attack-f;
#X obj 963 404 s decay-f;
#X obj 995 382 s sustain-f;
#X obj 1036 404 s release-f;
#X obj 1077 382 s envfilt;
#X obj 1093 357 * 64;
#X obj 1114 409 s filt_cutoff;
#X obj 1130 357 * 4;
#X obj 1141 382 + 1;
#X obj 1143 432 s filt_q;
#X obj 1165 357 * 3;
#X obj 1171 382 s filttype;
#X obj 1202 357 * 15;
#X obj 1203 411 s mod_speed;
#X obj 1239 357 * 10;
#X obj 1239 378 s vibrato_depth;
#X obj 1275 357 s tremolo_depth;
#X obj 1313 408 s fmod_depth;
#X obj 250 193 t b b;
#X floatatom 364 245 5 0 0 0 - - -;
#X msg 432 265 \$1 Loaded;
#X obj 432 286 stdout;
#X msg 364 265 \$1 Saved;
#X obj 196 123 t b b;
#X connect 0 0 11 3;
#X connect 1 0 164 0;
#X connect 3 0 167 0;
#X connect 4 0 162 0;
#X connect 5 0 11 0;
#X connect 8 0 3 0;
#X connect 9 0 4 0;
#X connect 11 0 12 0;
#X connect 11 2 1 0;
#X connect 11 2 10 0;
#X connect 11 2 163 0;
#X connect 12 0 81 0;
#X connect 12 1 82 0;
#X connect 12 2 83 0;
#X connect 12 3 84 0;
#X connect 12 4 85 0;
#X connect 12 5 86 0;
#X connect 12 6 87 0;
#X connect 12 7 88 0;
#X connect 12 8 89 0;
#X connect 12 9 90 0;
#X connect 12 10 91 0;
#X connect 12 11 92 0;
#X connect 12 12 93 0;
#X connect 12 13 94 0;
#X connect 12 14 95 0;
#X connect 12 15 96 0;
#X connect 12 16 97 0;
#X connect 12 17 98 0;
#X connect 12 18 99 0;
#X connect 12 19 100 0;
#X connect 12 20 101 0;
#X connect 12 21 102 0;
#X connect 12 22 103 0;
#X connect 12 23 104 0;
#X connect 12 24 105 0;
#X connect 12 25 106 0;
#X connect 12 26 107 0;
#X connect 12 27 108 0;
#X connect 12 28 109 0;
#X connect 12 29 110 0;
#X connect 12 30 111 0;
#X connect 12 31 112 0;
#X connect 13 0 0 0;
#X connect 15 0 16 0;
#X connect 16 0 17 0;
#X connect 16 0 51 0;
#X connect 17 0 18 0;
#X connect 17 1 132 0;
#X connect 18 0 19 0;
#X connect 19 0 20 0;
#X connect 19 1 20 1;
#X connect 20 0 21 0;
#X connect 21 0 34 0;
#X connect 22 0 23 0;
#X connect 23 0 24 0;
#X connect 23 1 25 0;
#X connect 26 0 30 0;
#X connect 26 0 31 0;
#X connect 27 0 46 0;
#X connect 27 0 52 1;
#X connect 28 0 48 0;
#X connect 28 0 53 1;
#X connect 29 0 32 0;
#X connect 29 0 33 0;
#X connect 30 0 27 0;
#X connect 31 0 28 0;
#X connect 32 0 28 0;
#X connect 33 0 27 0;
#X connect 34 0 22 0;
#X connect 35 0 58 0;
#X connect 36 0 38 0;
#X connect 37 0 36 0;
#X connect 38 0 39 0;
#X connect 39 0 40 0;
#X connect 40 0 41 0;
#X connect 41 0 42 0;
#X connect 42 0 43 0;
#X connect 43 0 50 0;
#X connect 44 0 39 0;
#X connect 46 0 47 0;
#X connect 46 0 129 0;
#X connect 47 0 45 0;
#X connect 48 0 49 0;
#X connect 48 0 133 0;
#X connect 49 0 45 0;
#X connect 50 0 55 0;
#X connect 50 0 56 0;
#X connect 50 1 0 0;
#X connect 51 0 54 1;
#X connect 51 0 55 1;
#X connect 51 0 56 1;
#X connect 52 0 4 0;
#X connect 53 0 3 0;
#X connect 54 0 37 0;
#X connect 55 0 52 0;
#X connect 56 0 53 0;
#X connect 57 0 58 1;
#X connect 58 0 59 0;
#X connect 59 0 54 0;
#X connect 60 0 61 0;
#X connect 62 0 63 0;
#X connect 65 0 64 0;
#X connect 66 0 67 0;
#X connect 67 0 68 0;
#X connect 68 0 69 0;
#X connect 70 0 72 0;
#X connect 71 0 73 0;
#X connect 72 0 71 0;
#X connect 75 0 76 0;
#X connect 77 0 78 0;
#X connect 80 0 79 0;
#X connect 81 0 60 0;
#X connect 82 0 62 0;
#X connect 83 0 65 0;
#X connect 84 0 66 0;
#X connect 85 0 70 0;
#X connect 86 0 74 0;
#X connect 87 0 75 0;
#X connect 88 0 77 0;
#X connect 89 0 80 0;
#X connect 90 0 113 0;
#X connect 91 0 115 0;
#X connect 92 0 118 0;
#X connect 93 0 119 0;
#X connect 94 0 120 0;
#X connect 95 0 121 0;
#X connect 96 0 123 0;
#X connect 97 0 134 0;
#X connect 98 0 136 0;
#X connect 99 0 138 0;
#X connect 100 0 139 0;
#X connect 101 0 141 0;
#X connect 102 0 142 0;
#X connect 103 0 146 0;
#X connect 104 0 143 0;
#X connect 105 0 148 0;
#X connect 106 0 149 0;
#X connect 107 0 151 0;
#X connect 108 0 154 0;
#X connect 109 0 156 0;
#X connect 110 0 158 0;
#X connect 111 0 160 0;
#X connect 112 0 161 0;
#X connect 113 0 114 0;
#X connect 115 0 116 0;
#X connect 116 0 117 0;
#X connect 118 0 128 0;
#X connect 119 0 124 0;
#X connect 120 0 126 0;
#X connect 121 0 122 0;
#X connect 122 0 125 0;
#X connect 123 0 127 0;
#X connect 129 0 130 0;
#X connect 130 0 131 0;
#X connect 132 0 130 0;
#X connect 133 0 130 0;
#X connect 134 0 135 0;
#X connect 136 0 137 0;
#X connect 139 0 140 0;
#X connect 141 0 144 0;
#X connect 142 0 145 0;
#X connect 143 0 147 0;
#X connect 149 0 150 0;
#X connect 151 0 152 0;
#X connect 152 0 153 0;
#X connect 154 0 155 0;
#X connect 156 0 157 0;
#X connect 158 0 159 0;
#X connect 162 0 1 0;
#X connect 162 1 11 2;
#X connect 163 0 166 0;
#X connect 164 0 165 0;
#X connect 166 0 165 0;
#X connect 167 0 163 0;
#X connect 167 1 11 1;
