#N canvas 958 385 958 659 10;
#X obj 33 33 r loadbang-\$1;
#X obj 117 148 outlet~ outL-\$1;
#X obj 219 148 outlet~ outR-\$1;
#X obj 239 59 inlet~ inL;
#X obj 323 59 inlet~ inR;
#X obj 239 9 r expIn-\$1;
#X obj 333 33 r fsIn-\$1;
#X obj 239 33 s notesOut-\$1;
#X obj 407 59 s ctrlOut-\$1;
#X text 194 116 Pd~ subprocess;
#X obj 33 118 pd~ -ninsig 0 -noutsig 2;
#N canvas 865 268 1051 676 subparams 0;
#X obj 443 444 outlet;
#X obj 127 310 r notesIn-\$1;
#X obj 127 331 unpack 0 0;
#X msg 110 363 notes \$1;
#X msg 180 363 velocity \$1;
#X obj 745 342 r auxIn-\$1;
#X msg 745 363 auxIn \$1;
#X obj 650 342 r loadbang-\$1;
#X msg 650 363 loadbang \$1;
#X obj 76 31 r transpose-\$1;
#X obj 171 31 r porta-\$1;
#X obj 257 31 r chorus-\$1;
#X obj 348 31 r volume-\$1;
#X msg 76 73 transpose \$1;
#X msg 171 73 porta \$1;
#X msg 257 73 chorus \$1;
#X msg 348 73 volume \$1;
#X obj 520 32 r lfo_rate-\$1;
#X msg 520 75 lfo_rate \$1;
#X obj 626 32 r lfo_delay-\$1;
#X msg 626 75 lfo_delay \$1;
#X obj 731 32 r lfo_pitch-\$1;
#X obj 837 32 r lfo_vcf-\$1;
#X msg 731 75 lfo_pitch \$1;
#X msg 837 75 lfo_vcf \$1;
#X obj 49 112 r square_osc-\$1;
#X obj 151 111 r pulse_width-\$1;
#X obj 257 111 r pwm-\$1;
#X msg 48 153 square_osc \$1;
#X msg 151 153 pulse_width \$1;
#X msg 257 153 pwm \$1;
#X obj 349 111 r saw_osc-\$1;
#X msg 349 153 saw_osc \$1;
#X obj 434 111 r sub_osc-\$1;
#X msg 434 153 sub_osc \$1;
#X obj 514 111 r noise-\$1;
#X msg 514 153 noise \$1;
#X obj 637 111 r vcf_freq-\$1;
#X msg 637 153 vcf_freq \$1;
#X obj 729 111 r vcf_res-\$1;
#X msg 729 153 vcf_res \$1;
#X obj 822 111 r vcf_env-\$1;
#X msg 822 153 vcf_env \$1;
#X obj 914 111 r vcf_depth-\$1;
#X msg 914 153 vcf_depth \$1;
#X msg 91 228 vcf_kybd \$1;
#X obj 91 185 r vcf_kybd-\$1;
#X obj 186 186 r hpf-\$1;
#X msg 186 229 hpf \$1;
#X obj 253 186 r vca_env-\$1;
#X msg 253 229 vca_env \$1;
#X obj 449 187 r attack-\$1;
#X msg 449 230 attack \$1;
#X obj 535 187 r decay-\$1;
#X msg 535 230 decay \$1;
#X obj 613 187 r sustain-\$1;
#X msg 613 230 sustain \$1;
#X obj 705 187 r release-\$1;
#X msg 705 230 release \$1;
#X floatatom 837 53 5 0 0 0 - - -;
#X floatatom 731 53 5 0 0 0 - - -;
#X floatatom 626 53 5 0 0 0 - - -;
#X floatatom 520 53 5 0 0 0 - - -;
#X floatatom 348 52 5 0 0 0 - - -;
#X floatatom 257 52 5 0 0 0 - - -;
#X floatatom 171 52 5 0 0 0 - - -;
#X floatatom 76 52 5 0 0 0 - - -;
#X floatatom 49 133 5 0 0 0 - - -;
#X floatatom 151 132 5 0 0 0 - - -;
#X floatatom 257 132 5 0 0 0 - - -;
#X floatatom 349 132 5 0 0 0 - - -;
#X floatatom 434 132 5 0 0 0 - - -;
#X floatatom 514 132 5 0 0 0 - - -;
#X floatatom 637 132 5 0 0 0 - - -;
#X floatatom 729 132 5 0 0 0 - - -;
#X floatatom 822 132 5 0 0 0 - - -;
#X floatatom 914 132 5 0 0 0 - - -;
#X floatatom 91 206 5 0 0 0 - - -;
#X floatatom 186 207 5 0 0 0 - - -;
#X floatatom 253 207 5 0 0 0 - - -;
#X floatatom 449 208 5 0 0 0 - - -;
#X floatatom 535 208 5 0 0 0 - - -;
#X floatatom 613 208 5 0 0 0 - - -;
#X floatatom 705 208 5 0 0 0 - - -;
#X obj 454 5 r load;
#X connect 1 0 2 0;
#X connect 2 0 3 0;
#X connect 2 1 4 0;
#X connect 3 0 0 0;
#X connect 4 0 0 0;
#X connect 5 0 6 0;
#X connect 6 0 0 0;
#X connect 7 0 8 0;
#X connect 8 0 0 0;
#X connect 9 0 66 0;
#X connect 10 0 65 0;
#X connect 11 0 64 0;
#X connect 12 0 63 0;
#X connect 13 0 0 0;
#X connect 14 0 0 0;
#X connect 15 0 0 0;
#X connect 16 0 0 0;
#X connect 17 0 62 0;
#X connect 18 0 0 0;
#X connect 19 0 61 0;
#X connect 20 0 0 0;
#X connect 21 0 60 0;
#X connect 22 0 59 0;
#X connect 23 0 0 0;
#X connect 24 0 0 0;
#X connect 25 0 67 0;
#X connect 26 0 68 0;
#X connect 27 0 69 0;
#X connect 28 0 0 0;
#X connect 29 0 0 0;
#X connect 30 0 0 0;
#X connect 31 0 70 0;
#X connect 32 0 0 0;
#X connect 33 0 71 0;
#X connect 34 0 0 0;
#X connect 35 0 72 0;
#X connect 36 0 0 0;
#X connect 37 0 73 0;
#X connect 38 0 0 0;
#X connect 39 0 74 0;
#X connect 40 0 0 0;
#X connect 41 0 75 0;
#X connect 42 0 0 0;
#X connect 43 0 76 0;
#X connect 44 0 0 0;
#X connect 45 0 0 0;
#X connect 46 0 77 0;
#X connect 47 0 78 0;
#X connect 48 0 0 0;
#X connect 49 0 79 0;
#X connect 50 0 0 0;
#X connect 51 0 80 0;
#X connect 52 0 0 0;
#X connect 53 0 81 0;
#X connect 54 0 0 0;
#X connect 55 0 82 0;
#X connect 56 0 0 0;
#X connect 57 0 83 0;
#X connect 58 0 0 0;
#X connect 59 0 24 0;
#X connect 60 0 23 0;
#X connect 61 0 20 0;
#X connect 62 0 18 0;
#X connect 63 0 16 0;
#X connect 64 0 15 0;
#X connect 65 0 14 0;
#X connect 66 0 13 0;
#X connect 67 0 28 0;
#X connect 68 0 29 0;
#X connect 69 0 30 0;
#X connect 70 0 32 0;
#X connect 71 0 34 0;
#X connect 72 0 36 0;
#X connect 73 0 38 0;
#X connect 74 0 40 0;
#X connect 75 0 42 0;
#X connect 76 0 44 0;
#X connect 77 0 45 0;
#X connect 78 0 48 0;
#X connect 79 0 50 0;
#X connect 80 0 52 0;
#X connect 81 0 54 0;
#X connect 82 0 56 0;
#X connect 83 0 58 0;
#X connect 84 0 66 0;
#X connect 84 0 65 0;
#X connect 84 0 64 0;
#X connect 84 0 63 0;
#X connect 84 0 62 0;
#X connect 84 0 61 0;
#X connect 84 0 60 0;
#X connect 84 0 59 0;
#X connect 84 0 76 0;
#X connect 84 0 75 0;
#X connect 84 0 74 0;
#X connect 84 0 73 0;
#X connect 84 0 72 0;
#X connect 84 0 71 0;
#X connect 84 0 69 0;
#X connect 84 0 68 0;
#X connect 84 0 67 0;
#X connect 84 0 77 0;
#X connect 84 0 78 0;
#X connect 84 0 79 0;
#X connect 84 0 80 0;
#X connect 84 0 81 0;
#X connect 84 0 82 0;
#X connect 84 0 83 0;
#X connect 84 0 70 0;
#X restore 61 86 pd subparams;
#X text 149 85 subprocess parameters;
#X obj 407 33 r ctrlIn-\$1;
#X obj 33 148 route loaded;
#X obj 33 176 s load;
#X msg 33 59 pd~ start -nogui pd~-juno104.pd;
#X connect 0 0 16 0;
#X connect 10 0 14 0;
#X connect 10 1 1 0;
#X connect 10 2 2 0;
#X connect 11 0 10 0;
#X connect 13 0 8 0;
#X connect 14 0 15 0;
#X connect 16 0 10 0;
