#N canvas 153 59 1763 985 10;
#X obj 1072 233 hsl 128 15 0 1 0 0 empty empty Pulse_width -2 -8 0
10 -262144 -1 -1 4092 1;
#X obj 242 960 hsl 128 15 0 1 0 0 empty empty Master_Volume -2 -8 0
10 -262144 -1 -1 3175 1;
#X obj 1233 234 hsl 128 15 0 1 0 0 empty empty PWM_Depth -2 -8 0 10
-262144 -1 -1 5080 1;
#X obj 927 233 hsl 127 15 0 1 0 0 empty empty LFO_pitch_depth -2 -8
0 10 -262144 -1 -1 2394 1;
#X obj 1139 522 hsl 128 15 0 1 0 0 empty empty Sub -2 -8 0 10 -262144
-1 -1 5207 1;
#X obj 271 603 hsl 128 15 0 1 0 0 empty empty HPF_freq -2 -8 0 10 -262144
-1 -1 0 1;
#X obj 567 781 hsl 128 15 0 1 0 0 empty empty Freq -2 -8 0 10 -262144
-1 -1 4668 1;
#X obj 713 781 hsl 128 15 0 1 0 0 empty empty Res -2 -8 0 10 -262144
-1 -1 1397 1;
#X obj 1148 781 hsl 128 15 0 1 0 0 empty empty LFO -2 -8 0 10 -262144
-1 -1 7239 1;
#X obj 1280 521 hsl 128 15 0 1 0 0 empty empty Noise -2 -8 0 10 -262144
-1 -1 4191 1;
#X obj 831 519 tgl 15 0 empty empty empty 17 7 0 10 -262144 -1 -1 1
1;
#X obj 1440 1119 hsl 128 15 0 1 0 1 empty empty Release -2 -8 0 10
-262144 -1 -1 3175 1;
#X obj 921 1113 hsl 128 15 0 1 0 1 empty empty Attack -2 -8 0 10 -262144
-1 -1 4 1;
#X obj 1291 1119 hsl 128 15 0 1 0 1 empty empty Sustain -2 -8 0 10
-262144 -1 -1 10160 1;
#X obj 1107 1114 hsl 128 15 0 1 0 1 empty empty Decay -2 -8 0 10 -262144
-1 -1 1587 1;
#X text 850 521 Saw on/off, f 7;
#X obj 965 522 tgl 15 0 empty empty empty 17 7 0 10 -262144 -1 -1 1
1;
#X text 989 521 Square on/off, f 7;
#X text 176 676 Only one in the synth (not per voice), f 21;
#X obj 722 1092 hsl 128 15 0 1 0 0 empty empty VCA_volume -2 -8 0 10
-262144 -1 -1 12700 1;
#X obj 519 1125 tgl 15 0 empty empty empty 17 7 0 10 -262144 -1 -1
0 1;
#X text 419 1114 Env type (normal : off \, gate : on), f 14;
#N canvas 4 50 1413 877 Master_vol 0;
#X obj 217 300 *~;
#X obj 217 332 clip~ -1 1;
#X obj 232 272 line~;
#X obj 232 205 inlet;
#X obj 217 165 inlet~;
#X obj 217 369 outlet~;
#X obj 62 298 *~;
#X obj 62 330 clip~ -1 1;
#X obj 77 270 line~;
#X obj 62 163 inlet~;
#X text 60 143 Audio L input (signal);
#X text 218 144 Audio R input (signal);
#X text 216 394 Audio R output (signal);
#X text 54 394 Audio R output (signal);
#X obj 62 364 outlet~;
#X text 446 46 Master volume (stereo);
#X text 279 204 Master volume slider input (0. \, 1.);
#X msg 77 242 \$1 10;
#X msg 232 244 \$1 10;
#X connect 0 0 1 0;
#X connect 1 0 5 0;
#X connect 2 0 0 1;
#X connect 3 0 18 0;
#X connect 3 0 17 0;
#X connect 4 0 0 0;
#X connect 6 0 7 0;
#X connect 7 0 14 0;
#X connect 8 0 6 1;
#X connect 9 0 6 0;
#X connect 17 0 8 0;
#X connect 18 0 2 0;
#X restore 164 1042 pd Master_vol;
#N canvas 537 160 1268 884 highpass_filter 0;
#X obj 112 335 hip~;
#X obj 175 195 inlet;
#X text 222 264 smooth transition;
#X obj 112 373 outlet~;
#X text 152 334 1 pole high pass filter;
#X obj 112 110 inlet~;
#X text 164 109 Audio input (signal);
#X text 168 374 Audio output (signal);
#X msg 175 255 \$1 10;
#X text 224 195 Frequency slider input (0. to 1.);
#X obj 175 277 line;
#X text 380 263 Smooth doesn't work that much here cause the right
inlet of [hip~] doesn't take audio rate signal...;
#X connect 0 0 3 0;
#X connect 1 0 8 0;
#X connect 5 0 0 0;
#X connect 8 0 10 0;
#X connect 10 0 0 1;
#X restore 163 653 pd highpass_filter;
#X obj 1006 781 hsl 128 15 0 1 0 0 empty empty Env -2 -8 0 10 -262144
-1 -1 6350 1;
#X obj 875 781 tgl 15 0 empty empty empty 17 7 0 10 -262144 -1 -1 0
1;
#X text 871 826 Envelope mode (off = normal \, on = inverted), f 15
;
#X obj 1290 781 hsl 128 15 0 1 0 0 empty empty Kybd -2 -8 0 10 -262144
-1 -1 6350 1;
#X obj 163 317 pack 0 0 0;
#X obj 924 255 s 106_LFO_pitch_depth;
#X obj 1069 341 s 106_manual_PW;
#X obj 1230 266 s 106_PWM_depth;
#X text 316 346 Only one LFO in the synth (not per voice), f 21;
#X obj 831 564 s 106_saw_switch;
#X obj 965 563 s 106_square_switch;
#X obj 1136 547 s 106_sub_mix;
#X text 1103 122 DCO;
#X obj 1277 547 s 106noise_mix;
#X obj 875 808 s 106_VCF_env_mode;
#X obj 564 832 s 106_VCF_freq;
#X obj 711 887 s 106_VCF_Res;
#X obj 1145 833 s 106_VCF_LFO;
#X obj 1003 892 s 106_VCF_env_depth;
#X text 910 658 VCF;
#X obj 918 1216 s 106_attack;
#X obj 1104 1216 s 106_decay;
#X obj 1288 1146 s 106_sustain;
#X obj 1437 1208 s 106_release;
#X text 1145 941 ENV;
#X obj 719 1139 s 106_VCA_level;
#X obj 519 1155 s 106_VCA_env_type;
#X obj 163 602 +~;
#X obj 214 817 tgl 15 0 empty empty empty 17 7 0 10 -262144 -1 -1 1
1;
#X obj 587 660 s 106_portamento;
#X obj 590 531 hsl 128 15 0 1 0 0 empty empty Portamento -2 -8 0 10
-262144 -1 -1 0 1;
#X text 109 852 Chorus;
#X text 583 79 hen_mi@hotmail.com;
#X text 584 62 by Rawticks (Jean Michel Pepin);
#N canvas 742 162 710 476 transpose 1;
#X obj 98 237 sel 0 1 2 3 4, f 37;
#X msg 141 264 -12;
#X msg 185 264 0;
#X msg 98 264 -24;
#X msg 229 264 12;
#X msg 273 264 24;
#X obj 98 122 i;
#X obj 98 147 change;
#X floatatom 108 171 5 0 0 0 - - -;
#X obj 83 295 +;
#X obj 83 68 inlet;
#X obj 98 97 inlet;
#X text 80 48 Note input (0 127);
#X obj 83 333 clip 0 127;
#X obj 83 373 outlet;
#X text 83 396 Note output;
#X text 315 18 Transpose;
#X text 143 99 Transpose slider input (0. \, 1.);
#X obj 98 193 + 2;
#X floatatom 109 215 5 0 0 0 - - -;
#X connect 0 0 3 0;
#X connect 0 1 1 0;
#X connect 0 2 2 0;
#X connect 0 3 4 0;
#X connect 0 4 5 0;
#X connect 1 0 9 1;
#X connect 2 0 9 1;
#X connect 3 0 9 1;
#X connect 4 0 9 1;
#X connect 5 0 9 1;
#X connect 6 0 7 0;
#X connect 7 0 8 0;
#X connect 7 0 18 0;
#X connect 9 0 13 0;
#X connect 10 0 9 0;
#X connect 11 0 6 0;
#X connect 13 0 14 0;
#X connect 18 0 0 0;
#X connect 18 0 19 0;
#X restore 191 262 pd transpose;
#X msg 719 1048 1;
#X obj 587 606 * 1000;
#X obj 1069 316 * 0.9;
#X text 1103 318 Scale to (0. \, 0.9);
#X obj 1287 891 s 106_VCF_kybd;
#X obj 1287 866 * 1.5;
#X text 1330 868 Scale to (0. \, 1.5);
#X text 635 606 Scale to (0. \, 1000);
#N canvas 4 50 604 514 VCF_freq_scale 0;
#X obj 52 126 t f f;
#X obj 52 151 *;
#X text 100 127 Square conversion, f 11;
#X obj 52 46 inlet;
#X obj 52 173 outlet;
#X obj 52 75 * 50;
#X obj 52 98 + 0.2;
#X text 97 73 Scale to (0. \, 50.);
#X connect 0 0 1 0;
#X connect 0 1 1 1;
#X connect 1 0 4 0;
#X connect 3 0 5 0;
#X connect 5 0 6 0;
#X connect 6 0 0 0;
#X restore 564 806 pd VCF_freq_scale;
#N canvas 0 22 304 217 VCF_LFO_scale 0;
#X obj 52 93 t f f;
#X obj 52 118 *;
#X text 100 94 Square conversion, f 11;
#X obj 52 46 inlet;
#X obj 52 140 outlet;
#X obj 52 69 * 50;
#X text 97 67 Scale to (0. \, 50.);
#X connect 0 0 1 0;
#X connect 0 1 1 1;
#X connect 1 0 4 0;
#X connect 3 0 5 0;
#X connect 5 0 0 0;
#X restore 1145 808 pd VCF_LFO_scale;
#X obj 719 1114 * 0.4;
#X text 717 1163 Scale to (0. \, 0.4.);
#X obj 918 1192 expr ($f1 * 2998.5) + 1.5;
#X text 915 1238 Scale to (1.5 \, 3000);
#X obj 1104 1193 expr ($f1 * 11998.5) + 1.5;
#X text 1104 1238 Scale to (1.5 \, 12000);
#X obj 1437 1184 expr ($f1 * 11998.5) + 1.5;
#X text 1441 1230 Scale to (1.5 \, 12000) ms;
#N canvas 4 50 883 681 HPF_scale 0;
#X obj 52 96 t f f;
#X obj 52 121 *;
#X text 100 97 Square conversion, f 11;
#X obj 52 46 inlet;
#X obj 52 143 outlet;
#X obj 52 72 * 100;
#X text 107 72 Scale to (0. \, 100.);
#X connect 0 0 1 0;
#X connect 0 1 1 1;
#X connect 1 0 4 0;
#X connect 3 0 5 0;
#X connect 5 0 0 0;
#X restore 268 624 pd HPF_scale;
#X text 163 1103 Audio output to Organelle DAC, f 15;
#X text 161 74 Organelle notes;
#X text 379 565 Smoothing doesn't work on organelle..., f 21;
#X obj 3529 250;
#X msg 271 794 0;
#X text 1460 136 Page 0 : 1:Transpose \, 2:Portamento \, 3:Chorus \,
4:Volume;
#X text 1460 153 Page 1 : 1:LFO rate \, 2:LFO delay time \, 3:LFO Pitch
\, 4:LFO VCF, f 61;
#X text 1460 170 Page 2 : 1:Square Osc \, 2:Pulse Width \, 3:PWM \,
4:----- (nothing), f 63;
#X text 1460 187 Page 3 : 1:Saw Osc \, 2:Sub Osc \, 3:Noise \, 4:-----
;
#X text 1460 206 Page 4 : 1:VCF Freq \, 2:VCF Res \, 3:VCF Env mode
\, 4:VCF Env depth, f 63;
#X text 1460 224 Page 5 : 1:VCF kybd \, 2:HPF Freq \, 3:----- \, 4:VCA
Env type;
#X text 1460 243 Page 6 : 1:Attack \, 2:Decay \, 3:Sustain \, 4:Release
;
#X obj 1000 491 change;
#X obj 1000 469 > 0.5;
#X obj 870 491 change;
#X obj 870 467 > 0.5;
#X obj 214 787 change;
#X obj 214 766 > 0.5;
#X obj 908 754 change;
#X obj 908 733 > 0.5;
#X obj 561 1089 change;
#X obj 561 1065 > 0.5;
#X obj 711 863 * 3.9;
#X text 746 863 scale to (0. \, 3.9);
#X obj 1003 868 * 4000;
#X text 1460 264 Page 7 : -----Presets----- \, 1:Save a preset/Load
a preset \, 2:Preset slot, f 86;
#X text 583 32 Juno-104 v0.93, f 28;
#X text 584 96 May 2016;
#X obj 23 337 s note_portamento;
#X obj 23 316 stripnote;
#X text 21 363 Send every note played for portamento, f 21;
#X obj 163 851 chorus, f 7;
#X obj 224 477 104_voice_v2;
#X obj 204 499 104_voice_v2;
#X obj 183 522 104_voice_v2;
#X obj 163 545 104_voice_v2;
#X obj 428 502 lfo_tri;
#X obj 163 93 r notes;
#X obj 214 94 r velocity;
#X obj 163 156 pack 0 0, f 9;
#X obj 260 218 r transpose;
#X obj 428 194 r lfo_rate;
#X obj 1448 1055 r release;
#X obj 1297 1056 r sustain;
#X obj 1120 1058 r decay;
#X obj 930 1056 r attack;
#X obj 757 232 hsl 128 15 0 1 0 0 empty empty LFO_Delay_time -2 -8
0 10 -262144 -1 -1 2731 1;
#X obj 811 159 r lfo_delay;
#X obj 754 252 * 5000;
#X obj 754 273 s 106_LFO_delay_time;
#X obj 964 148 r lfo_pitch;
#X obj 1109 136 r pulse_width;
#X obj 1283 156 r pwm;
#X obj 1000 427 r square_osc;
#X obj 870 426 r saw_osc;
#X obj 1164 455 r sub_osc;
#X obj 1313 456 r noise;
#X obj 628 451 r porta;
#X obj 607 711 r vcf_freq;
#X obj 747 711 r vcf_res;
#X obj 1052 716 r vcf_depth;
#X obj 1188 716 r lfo_vcf;
#X obj 214 745 r chorus;
#X obj 271 771 loadbang;
#X obj 238 899 r volume;
#X obj 164 1081 dac~, f 13;
#X obj 268 541 r hpf;
#X obj 1321 716 r vcf_kybd;
#X floatatom 122 114 5 0 0 0 - - -;
#X floatatom 232 115 5 0 0 0 - - -;
#X obj 811 200 / 5000;
#X obj 964 189 / 100;
#X obj 1109 177 / 90;
#X floatatom 1109 198 5 0 0 0 - - -;
#X obj 1283 197 / 100;
#X obj 1164 498 / 100;
#X obj 1313 499 / 100;
#X floatatom 451 220 5 0 0 0 - - -;
#X floatatom 295 247 5 0 0 0 - - -;
#X obj 268 562 / 10000;
#X obj 238 927 / 100;
#X obj 930 1077 / 3000;
#X obj 1120 1079 / 12000;
#X obj 1297 1077 / 100;
#X obj 1448 1076 / 12000;
#X obj 1188 758 / 100;
#X obj 1052 758 / 100;
#X obj 747 753 / 100;
#X obj 607 753 / 2520;
#X floatatom 908 713 5 0 0 0 - - -;
#X obj 908 694 r vcf_env;
#X obj 1321 758 / 150;
#X obj 628 494 / 1000;
#X obj 561 1043 r vca_env;
#X obj 1470 414 loadbang;
#X msg 1497 458 \; pd dsp 1;
#X obj 42 133 r quitting;
#X obj 42 153 bng 15 250 50 0 empty empty empty 17 7 0 10 -262144 -1
-1;
#X msg 50 175 clear;
#X obj 42 251 s clear_notes;
#X obj 163 219 poly 6 1, f 10;
#X obj 163 349 route 1 2 3 4 5 6, f 21;
#X obj 265 432 104_voice_v2;
#X obj 245 454 104_voice_v2;
#X text 584 47 a six voices Juno-106 emulation for Organelle;
#X text 584 113 Adapted to Orac by T8R;
#X obj 1470 435 t b b;
#X obj 1470 539 stdout;
#X msg 1470 516 loaded;
#X obj 1470 491 delay 10;
#X obj 1416 402 bng 15 250 50 0 empty empty empty 17 7 0 10 -262144
-1 -1;
#X floatatom 811 180 5 0 0 0 - - -;
#X floatatom 964 169 5 0 0 0 - - -;
#X floatatom 1109 157 5 0 0 0 - - -;
#X floatatom 1283 177 5 0 0 0 - - -;
#X floatatom 870 447 5 0 0 0 - - -;
#X floatatom 1000 448 5 0 0 0 - - -;
#X floatatom 628 472 5 0 0 0 - - -;
#X floatatom 1164 476 5 0 0 0 - - -;
#X floatatom 1313 477 5 0 0 0 - - -;
#X floatatom 607 732 5 0 0 0 - - -;
#X floatatom 747 732 5 0 0 0 - - -;
#X floatatom 1052 737 5 0 0 0 - - -;
#X floatatom 1188 737 5 0 0 0 - - -;
#X floatatom 1321 737 5 0 0 0 - - -;
#X obj 719 1027 loadbang;
#X connect 0 0 61 0;
#X connect 1 0 22 2;
#X connect 2 0 31 0;
#X connect 3 0 29 0;
#X connect 4 0 35 0;
#X connect 5 0 77 0;
#X connect 6 0 67 0;
#X connect 7 0 100 0;
#X connect 8 0 68 0;
#X connect 9 0 37 0;
#X connect 10 0 33 0;
#X connect 11 0 75 0;
#X connect 12 0 71 0;
#X connect 13 0 46 0;
#X connect 14 0 73 0;
#X connect 16 0 34 0;
#X connect 19 0 69 0;
#X connect 20 0 50 0;
#X connect 22 0 143 0;
#X connect 22 1 143 1;
#X connect 23 0 109 0;
#X connect 24 0 102 0;
#X connect 25 0 38 0;
#X connect 27 0 64 0;
#X connect 28 0 179 0;
#X connect 51 0 23 0;
#X connect 52 0 109 1;
#X connect 54 0 60 0;
#X connect 58 0 28 1;
#X connect 58 0 107 0;
#X connect 59 0 19 0;
#X connect 60 0 53 0;
#X connect 61 0 30 0;
#X connect 64 0 63 0;
#X connect 67 0 39 0;
#X connect 68 0 41 0;
#X connect 69 0 49 0;
#X connect 71 0 44 0;
#X connect 73 0 45 0;
#X connect 75 0 47 0;
#X connect 77 0 23 1;
#X connect 82 0 52 0;
#X connect 90 0 16 0;
#X connect 91 0 90 0;
#X connect 92 0 10 0;
#X connect 93 0 92 0;
#X connect 94 0 52 0;
#X connect 95 0 94 0;
#X connect 96 0 25 0;
#X connect 97 0 96 0;
#X connect 98 0 20 0;
#X connect 99 0 98 0;
#X connect 100 0 40 0;
#X connect 102 0 42 0;
#X connect 107 0 106 0;
#X connect 109 0 22 0;
#X connect 109 1 22 1;
#X connect 110 0 51 1;
#X connect 111 0 51 1;
#X connect 112 0 51 0;
#X connect 113 0 51 0;
#X connect 114 0 113 1;
#X connect 114 0 110 1;
#X connect 114 0 111 1;
#X connect 114 0 112 1;
#X connect 114 0 181 1;
#X connect 114 0 180 1;
#X connect 115 0 117 0;
#X connect 115 0 146 0;
#X connect 116 0 117 1;
#X connect 116 0 147 0;
#X connect 117 0 178 0;
#X connect 118 0 156 0;
#X connect 118 0 58 1;
#X connect 119 0 155 0;
#X connect 119 0 114 0;
#X connect 120 0 162 0;
#X connect 121 0 161 0;
#X connect 122 0 160 0;
#X connect 123 0 159 0;
#X connect 124 0 126 0;
#X connect 125 0 189 0;
#X connect 126 0 127 0;
#X connect 128 0 190 0;
#X connect 129 0 191 0;
#X connect 130 0 192 0;
#X connect 131 0 194 0;
#X connect 132 0 193 0;
#X connect 133 0 196 0;
#X connect 134 0 197 0;
#X connect 135 0 195 0;
#X connect 136 0 198 0;
#X connect 137 0 199 0;
#X connect 138 0 200 0;
#X connect 139 0 201 0;
#X connect 140 0 95 0;
#X connect 141 0 82 0;
#X connect 142 0 158 0;
#X connect 144 0 157 0;
#X connect 145 0 202 0;
#X connect 148 0 124 0;
#X connect 149 0 3 0;
#X connect 150 0 151 0;
#X connect 151 0 0 0;
#X connect 152 0 2 0;
#X connect 153 0 4 0;
#X connect 154 0 9 0;
#X connect 157 0 5 0;
#X connect 158 0 1 0;
#X connect 159 0 12 0;
#X connect 160 0 14 0;
#X connect 161 0 13 0;
#X connect 162 0 11 0;
#X connect 163 0 8 0;
#X connect 164 0 24 0;
#X connect 165 0 7 0;
#X connect 166 0 6 0;
#X connect 167 0 97 0;
#X connect 168 0 167 0;
#X connect 169 0 27 0;
#X connect 170 0 54 0;
#X connect 171 0 99 0;
#X connect 172 0 184 0;
#X connect 174 0 175 0;
#X connect 175 0 176 0;
#X connect 175 0 177 0;
#X connect 176 0 178 0;
#X connect 178 0 28 0;
#X connect 178 1 58 0;
#X connect 178 2 28 2;
#X connect 178 2 107 1;
#X connect 179 0 113 0;
#X connect 179 1 112 0;
#X connect 179 2 111 0;
#X connect 179 3 110 0;
#X connect 179 4 181 0;
#X connect 179 5 180 0;
#X connect 180 0 51 1;
#X connect 181 0 51 0;
#X connect 184 0 187 0;
#X connect 184 1 173 0;
#X connect 186 0 185 0;
#X connect 187 0 186 0;
#X connect 188 0 184 0;
#X connect 189 0 148 0;
#X connect 190 0 149 0;
#X connect 191 0 150 0;
#X connect 192 0 152 0;
#X connect 193 0 93 0;
#X connect 194 0 91 0;
#X connect 195 0 170 0;
#X connect 196 0 153 0;
#X connect 197 0 154 0;
#X connect 198 0 166 0;
#X connect 199 0 165 0;
#X connect 200 0 164 0;
#X connect 201 0 163 0;
#X connect 202 0 169 0;
#X connect 203 0 59 0;
