#N canvas 875 90 1305 744 10;
#N canvas 0 50 450 278 (subpatch) 0;
#X array \$1-\$2-arrayL 20835 float 2;
#X coords 0 1 20835 -1 335 251 1 0 0;
#X restore 7 124 graph;
#X text 4 4 Arg1: construct the read message using the sound file name
(\$1);
#X text 4 34 Arg2: Module Shortname;
#X text 4 54 Arg3: Module Instance Number;
#X obj 746 333 soundfiler;
#X obj 729 148 list;
#N canvas 167 244 803 448 sampleDir 1;
#X obj 74 387 outlet;
#X obj 245 387 outlet;
#X text 81 25 samples dir bang;
#X obj 76 47 inlet kit;
#X obj 152 46 inlet slot;
#X obj 233 45 inlet dur;
#X obj 266 131 i;
#X obj 244 328 t b l;
#X obj 370 39 t b b b;
#X obj 249 276 pack s f f s s f;
#X obj 294 116 symbol \$1-\$2-arrayL;
#X obj 274 86 symbol \$1-\$2-arrayR;
#X obj 370 14 loadbang;
#X obj 17 77 r dir;
#X obj 27 128 symbol \$1;
#X symbolatom 27 149 10 0 0 0 - - -;
#X obj 152 67 t b f;
#X obj 76 68 t b f;
#X connect 3 0 17 0;
#X connect 4 0 16 0;
#X connect 5 0 6 0;
#X connect 6 0 9 5;
#X connect 7 0 0 0;
#X connect 7 1 1 0;
#X connect 8 0 15 0;
#X connect 8 1 11 0;
#X connect 8 2 10 0;
#X connect 9 0 7 0;
#X connect 10 0 9 4;
#X connect 11 0 9 3;
#X connect 12 0 8 0;
#X connect 13 0 14 0;
#X connect 14 0 15 0;
#X connect 15 0 9 0;
#X connect 16 0 9 0;
#X connect 16 1 9 2;
#X connect 17 0 9 0;
#X connect 17 1 9 1;
#X restore 725 95 pd sampleDir;
#X obj 790 249 print soundfiler;
#N canvas 0 50 450 278 (subpatch) 0;
#X array \$1-\$2-arrayR 20835 float 2;
#X coords 0 1 20835 -1 335 251 1 0 0;
#X restore 354 124 graph;
#X msg 758 203 read -resize \$1/samples/kit-\$2/\$3.wav \$5 \$4;
#X obj 725 -8 r s_kit;
#X floatatom 688 39 5 0 0 0 - - -;
#X obj 783 20 bng 15 250 50 0 empty empty empty 17 7 0 10 -262144 -1
-1;
#X obj 783 40 f \$1;
#X floatatom 783 61 5 0 0 0 - - -;
#X obj 730 397 f \$1;
#X msg 704 559 \; \$1-\$2-arrayL normalize;
#X msg 857 559 \; \$1-\$2-arrayR normalize;
#X obj 746 355 bng 15 250 50 0 empty empty empty 17 7 0 10 -262144
-1 -1;
#X obj 746 375 t b b;
#X obj 773 397 symbol \$2;
#X symbolatom 773 418 10 0 0 0 - - -;
#X floatatom 730 418 5 0 0 0 - - -;
#X obj 730 444 pack f s;
#X obj 730 465 t b l;
#X obj 735 495 list;
#X connect 4 0 18 0;
#X connect 5 0 9 0;
#X connect 6 0 5 0;
#X connect 6 1 5 1;
#X connect 9 0 7 0;
#X connect 9 0 4 0;
#X connect 10 0 6 0;
#X connect 10 0 11 0;
#X connect 10 0 12 0;
#X connect 12 0 13 0;
#X connect 13 0 14 0;
#X connect 14 0 6 1;
#X connect 15 0 22 0;
#X connect 18 0 19 0;
#X connect 19 0 15 0;
#X connect 19 1 20 0;
#X connect 20 0 21 0;
#X connect 21 0 23 1;
#X connect 22 0 23 0;
#X connect 23 0 24 0;
#X connect 24 0 25 0;
#X connect 24 1 25 1;
#X connect 25 0 16 0;
#X connect 25 0 17 0;
