#N canvas 768 231 1097 659 10;
#X obj 83 -2 r loadbang-\$1;
#X obj 130 322 outlet~ outL-\$1;
#X obj 232 322 outlet~ outR-\$1;
#X obj 493 1 inlet~ inL;
#X obj 577 1 inlet~ inR;
#X obj 493 -49 r expIn-\$1;
#X obj 587 -23 r fsIn-\$1;
#X obj 493 -24 s notesOut-\$1;
#X obj 661 2 s ctrlOut-\$1;
#X text 244 268 Pd~ subprocess;
#N canvas 4 50 1449 998 subparams 0;
#X obj 443 444 outlet;
#X obj 25 307 r notesIn-\$1;
#X obj 25 328 unpack 0 0;
#X msg 8 360 notes \$1;
#X msg 78 360 velocity \$1;
#X obj 206 309 r auxIn-\$1;
#X msg 206 330 auxIn \$1;
#X obj 111 309 r loadbang-\$1;
#X msg 111 330 loadbang \$1;
#X msg 629 355 s24_transpose \$1;
#X obj 629 312 r s24_transpose-\$1;
#X obj 748 313 r s24_release-\$1;
#X msg 748 356 s24_release \$1;
#X obj 854 313 r s_kit-\$1;
#X msg 854 334 s_kit \$1;
#X obj 45 83 r s_slot1-\$1;
#X msg 45 104 s_slot1 \$1;
#X obj 132 83 r s_slot2-\$1;
#X msg 132 104 s_slot2 \$1;
#X obj 214 83 r s_slot3-\$1;
#X msg 214 104 s_slot3 \$1;
#X obj 298 83 r s_slot4-\$1;
#X msg 298 104 s_slot4 \$1;
#X obj 387 83 r s_slot5-\$1;
#X msg 387 104 s_slot5 \$1;
#X obj 471 83 r s_slot6-\$1;
#X msg 471 104 s_slot6 \$1;
#X obj 552 83 r s_slot7-\$1;
#X msg 552 104 s_slot7 \$1;
#X obj 636 83 r s_slot8-\$1;
#X msg 636 104 s_slot8 \$1;
#X obj 82 133 r s_slot9-\$1;
#X msg 82 154 s_slot9 \$1;
#X obj 169 133 r s_slot10-\$1;
#X msg 169 154 s_slot10 \$1;
#X obj 255 133 r s_slot11-\$1;
#X msg 255 154 s_slot11 \$1;
#X obj 342 133 r s_slot12-\$1;
#X msg 342 154 s_slot12 \$1;
#X obj 430 133 r s_slot13-\$1;
#X msg 430 154 s_slot13 \$1;
#X obj 514 133 r s_slot14-\$1;
#X msg 514 154 s_slot14 \$1;
#X obj 601 133 r s_slot15-\$1;
#X msg 601 154 s_slot15 \$1;
#X obj 685 133 r s_slot16-\$1;
#X msg 685 154 s_slot16 \$1;
#X obj 132 181 r s_slot17-\$1;
#X msg 132 202 s_slot17 \$1;
#X obj 219 181 r s_slot18-\$1;
#X msg 219 202 s_slot18 \$1;
#X obj 306 181 r s_slot19-\$1;
#X msg 306 202 s_slot19 \$1;
#X obj 392 181 r s_slot20-\$1;
#X msg 392 202 s_slot20 \$1;
#X obj 481 181 r s_slot21-\$1;
#X msg 481 202 s_slot21 \$1;
#X obj 565 181 r s_slot22-\$1;
#X msg 565 202 s_slot22 \$1;
#X obj 651 181 r s_slot23-\$1;
#X msg 651 202 s_slot23 \$1;
#X obj 735 181 r s_slot24-\$1;
#X msg 735 202 s_slot24 \$1;
#X obj 699 279 r load-\$1;
#X obj 768 280 r load-\$1;
#X obj 654 401 r volume-\$1;
#X msg 654 450 volume \$1;
#X obj 937 292 r load-\$1;
#X obj 748 398 r load-\$1;
#X obj 417 13 r load-\$1;
#X floatatom 629 333 5 0 0 0 - - -;
#X floatatom 748 334 5 0 0 0 - - -;
#X floatatom 654 422 5 0 0 0 - - -;
#X obj 878 67 r threshold-\$1;
#X obj 979 66 r ratio-\$1;
#X obj 1053 66 r attack-\$1;
#X obj 1127 66 r release-\$1;
#X obj 1208 68 r makeup-\$1;
#X msg 878 88 threshold \$1;
#X msg 979 87 ratio \$1;
#X msg 1053 87 attack \$1;
#X msg 1127 87 release \$1;
#X msg 1208 89 makeup \$1;
#X obj 1141 202 r bypass-\$1;
#X msg 1141 223 bypass \$1;
#X connect 1 0 2 0;
#X connect 2 0 3 0;
#X connect 2 1 4 0;
#X connect 3 0 0 0;
#X connect 4 0 0 0;
#X connect 5 0 6 0;
#X connect 6 0 0 0;
#X connect 7 0 8 0;
#X connect 8 0 0 0;
#X connect 9 0 0 0;
#X connect 10 0 70 0;
#X connect 11 0 71 0;
#X connect 12 0 0 0;
#X connect 13 0 14 0;
#X connect 14 0 0 0;
#X connect 15 0 16 0;
#X connect 16 0 0 0;
#X connect 17 0 18 0;
#X connect 18 0 0 0;
#X connect 19 0 20 0;
#X connect 20 0 0 0;
#X connect 21 0 22 0;
#X connect 22 0 0 0;
#X connect 23 0 24 0;
#X connect 24 0 0 0;
#X connect 25 0 26 0;
#X connect 26 0 0 0;
#X connect 27 0 28 0;
#X connect 28 0 0 0;
#X connect 29 0 30 0;
#X connect 30 0 0 0;
#X connect 31 0 32 0;
#X connect 32 0 0 0;
#X connect 33 0 34 0;
#X connect 34 0 0 0;
#X connect 35 0 36 0;
#X connect 36 0 0 0;
#X connect 37 0 38 0;
#X connect 38 0 0 0;
#X connect 39 0 40 0;
#X connect 40 0 0 0;
#X connect 41 0 42 0;
#X connect 42 0 0 0;
#X connect 43 0 44 0;
#X connect 44 0 0 0;
#X connect 45 0 46 0;
#X connect 46 0 0 0;
#X connect 47 0 48 0;
#X connect 48 0 0 0;
#X connect 49 0 50 0;
#X connect 50 0 0 0;
#X connect 51 0 52 0;
#X connect 52 0 0 0;
#X connect 53 0 54 0;
#X connect 54 0 0 0;
#X connect 55 0 56 0;
#X connect 56 0 0 0;
#X connect 57 0 58 0;
#X connect 58 0 0 0;
#X connect 59 0 60 0;
#X connect 60 0 0 0;
#X connect 61 0 62 0;
#X connect 62 0 0 0;
#X connect 63 0 70 0;
#X connect 64 0 71 0;
#X connect 65 0 72 0;
#X connect 66 0 0 0;
#X connect 67 0 14 0;
#X connect 68 0 72 0;
#X connect 69 0 30 0;
#X connect 69 0 28 0;
#X connect 69 0 26 0;
#X connect 69 0 24 0;
#X connect 69 0 22 0;
#X connect 69 0 20 0;
#X connect 69 0 18 0;
#X connect 69 0 16 0;
#X connect 69 0 32 0;
#X connect 69 0 34 0;
#X connect 69 0 36 0;
#X connect 69 0 38 0;
#X connect 69 0 40 0;
#X connect 69 0 42 0;
#X connect 69 0 44 0;
#X connect 69 0 46 0;
#X connect 69 0 62 0;
#X connect 69 0 60 0;
#X connect 69 0 58 0;
#X connect 69 0 56 0;
#X connect 69 0 54 0;
#X connect 69 0 52 0;
#X connect 69 0 50 0;
#X connect 69 0 48 0;
#X connect 70 0 9 0;
#X connect 71 0 12 0;
#X connect 72 0 66 0;
#X connect 73 0 78 0;
#X connect 74 0 79 0;
#X connect 75 0 80 0;
#X connect 76 0 81 0;
#X connect 77 0 82 0;
#X connect 78 0 0 0;
#X connect 79 0 0 0;
#X connect 80 0 0 0;
#X connect 81 0 0 0;
#X connect 82 0 0 0;
#X connect 83 0 84 0;
#X connect 84 0 0 0;
#X restore 341 212 pd subparams;
#X text 428 213 subprocess parameters;
#X obj 152 374 s screenLine5;
#X obj 661 -25 r ctrlIn-\$1;
#X obj 109 47 r activePage;
#X obj 109 68 unpack s s, f 12;
#X obj 153 89 sel \$1;
#X msg 153 108 1;
#X msg 222 108 1;
#X msg 186 108 0;
#X msg 327 108 0;
#X obj 207 134 &&;
#X obj 207 154 change;
#X msg 207 174 activeState \$1;
#X symbolatom 109 153 10 0 0 0 - - -;
#X obj 391 315 pack s 1, f 10;
#X msg 391 336 setparam \$1 s_kit \$2;
#X obj 391 357 s rackMsgs;
#X floatatom 463 315 5 0 0 0 - - -;
#X symbolatom 391 296 10 0 0 0 - - -;
#X obj 109 134 symbol \$1;
#X msg 109 174 active \$1;
#X obj 391 275 bng 15 250 50 0 empty empty empty 17 7 0 10 -262144
-1 -1;
#X msg 352 56 getsetting mediaDir ./data rackMediaDir-\$1;
#X obj 352 77 s rackMsgs;
#X obj 434 84 r rackMediaDir;
#X obj 528 85 r rackMediaDir-\$1;
#X obj 434 105 symbol \$1;
#X obj 352 35 symbol \$1;
#X symbolatom 434 126 20 0 0 0 - - -;
#X obj 352 16 bng 15 250 50 0 empty empty empty 17 7 0 10 -262144 -1
-1;
#X msg 434 146 dir \$1;
#X obj 498 274 s load-\$1;
#X obj 352 -5 r load-\$1;
#X obj 83 270 pd~ -ninsig 0 -noutsig 3;
#X obj 238 295 oled;
#X obj 387 252 route rackSym rackNum loaded bpyassmeter;
#X obj 222 89 sel pg_meter;
#X obj 83 350 route loaded;
#X msg 83 18 pd~ start -nogui pd~-percussions.pd;
#X connect 0 0 49 0;
#X connect 10 0 44 0;
#X connect 13 0 8 0;
#X connect 14 0 15 0;
#X connect 15 0 16 0;
#X connect 15 0 30 0;
#X connect 15 1 47 0;
#X connect 16 0 17 0;
#X connect 16 1 19 0;
#X connect 17 0 21 0;
#X connect 18 0 21 1;
#X connect 19 0 21 0;
#X connect 20 0 21 1;
#X connect 21 0 22 0;
#X connect 21 0 45 1;
#X connect 22 0 23 0;
#X connect 22 0 30 0;
#X connect 23 0 44 0;
#X connect 24 0 31 0;
#X connect 24 0 29 0;
#X connect 25 0 26 0;
#X connect 26 0 27 0;
#X connect 29 0 25 0;
#X connect 30 0 24 0;
#X connect 31 0 44 0;
#X connect 32 0 29 0;
#X connect 33 0 34 0;
#X connect 35 0 37 0;
#X connect 36 0 37 0;
#X connect 37 0 39 0;
#X connect 38 0 33 0;
#X connect 39 0 41 0;
#X connect 40 0 38 0;
#X connect 41 0 44 0;
#X connect 43 0 40 0;
#X connect 44 0 46 0;
#X connect 44 0 48 0;
#X connect 44 1 1 0;
#X connect 44 2 2 0;
#X connect 44 3 45 0;
#X connect 46 0 32 0;
#X connect 46 1 25 1;
#X connect 46 1 28 0;
#X connect 46 2 42 0;
#X connect 47 0 18 0;
#X connect 47 1 20 0;
#X connect 48 1 12 0;
#X connect 49 0 44 0;
