#N canvas 4 50 611 913 10;
#X obj 205 547 i;
#X msg 208 770 /oled/gFlip 3;
#X obj 239 696 f;
#X obj 205 565 + 2;
#X obj 205 493 / 100;
#X obj 205 475 -;
#X obj 198 454 f;
#X obj 205 511 + 1;
#X obj 205 529 * 600;
#X obj 205 583 +;
#X obj 205 601 int;
#X obj 198 418 snapshot~;
#X obj 149 162 sel \$1;
#X msg 269 311 stop;
#X obj 149 144 unpack s s;
#X obj 149 126 r activePage;
#X obj 149 208 &&;
#X msg 206 180 1;
#X msg 287 180 0;
#X msg 149 180 1;
#X msg 182 180 0;
#X obj 205 619 min 125;
#X obj 149 325 delay 500;
#X obj 149 269 t f f;
#X obj 22 827 s oscOutRaw;
#X obj 149 297 sel 1;
#X msg 249 339 /oled/gFillArea 3 0 50 128 14 0;
#X obj 149 251 change;
#X obj 205 637 t b f f b;
#X obj 197 436 t b f;
#X msg 239 714 /oled/gFillArea 3 2 32 \$1 9 0;
#X msg 222 742 /oled/gFillArea 3 2 32 \$1 9 1;
#X obj 144 49 sel \$1;
#X obj 144 31 unpack s s;
#X obj 144 13 r activePage;
#X obj 156 95 &&;
#X obj 359 288 spigot;
#X obj 359 306 s screenLine4;
#X obj 422 25 metro 1000;
#X obj 422 43 delay 500;
#X obj 422 61 spigot 1, f 10;
#X obj 498 47 - 1;
#X obj 436 175 spigot;
#X obj 436 201 s screenLine5;
#X msg 282 67 0;
#X msg 144 67 1;
#X msg 177 67 0;
#X msg 201 67 1;
#X msg 424 269 || |▔| ▔| ▔ GR;
#X msg 422 92 O2 4▔8 ▔12▔ db;
#X obj 198 387 inlet~;
#X obj 149 355 metro 58.0498;
#X obj 368 603 r bypassmeter;
#X obj 222 670 spigot 1;
#X msg 267 637 1, f 2;
#X msg 395 656 0, f 2;
#X obj 343 656 t b b b;
#X obj 368 628 sel 0 100;
#X obj 200 50 sel pg_meter;
#X obj 206 162 sel pg_meter;
#X obj 98 136 tgl 15 0 empty empty empty 17 7 0 10 -262144 -1 -1 0
1;
#X obj 327 87 inlet;
#X obj 288 273 tgl 15 0 empty empty empty 17 7 0 10 -262144 -1 -1 1
1;
#X connect 0 0 3 0;
#X connect 1 0 24 0;
#X connect 2 0 30 0;
#X connect 3 0 9 0;
#X connect 4 0 7 0;
#X connect 5 0 4 0;
#X connect 6 0 5 0;
#X connect 7 0 8 0;
#X connect 8 0 0 0;
#X connect 9 0 10 0;
#X connect 10 0 21 0;
#X connect 11 0 29 0;
#X connect 12 0 19 0;
#X connect 12 1 20 0;
#X connect 13 0 22 0;
#X connect 13 0 51 0;
#X connect 14 0 12 0;
#X connect 14 1 59 0;
#X connect 15 0 14 0;
#X connect 17 0 16 1;
#X connect 18 0 16 1;
#X connect 19 0 16 0;
#X connect 20 0 16 0;
#X connect 21 0 28 0;
#X connect 22 0 51 0;
#X connect 23 0 25 0;
#X connect 25 0 22 0;
#X connect 25 1 13 0;
#X connect 25 1 26 0;
#X connect 26 0 24 0;
#X connect 27 0 23 0;
#X connect 28 0 1 0;
#X connect 28 1 53 0;
#X connect 28 2 2 1;
#X connect 28 3 2 0;
#X connect 29 0 6 0;
#X connect 29 1 5 1;
#X connect 30 0 24 0;
#X connect 31 0 24 0;
#X connect 32 0 45 0;
#X connect 32 1 46 0;
#X connect 33 0 32 0;
#X connect 33 1 58 0;
#X connect 34 0 33 0;
#X connect 35 0 36 1;
#X connect 35 0 38 0;
#X connect 35 0 42 1;
#X connect 35 0 60 0;
#X connect 36 0 37 0;
#X connect 38 0 39 0;
#X connect 39 0 40 0;
#X connect 40 0 49 0;
#X connect 40 0 48 0;
#X connect 41 0 40 1;
#X connect 42 0 43 0;
#X connect 44 0 35 1;
#X connect 45 0 35 0;
#X connect 46 0 35 0;
#X connect 47 0 35 1;
#X connect 48 0 36 0;
#X connect 49 0 42 0;
#X connect 50 0 11 0;
#X connect 51 0 11 0;
#X connect 52 0 57 0;
#X connect 53 0 31 0;
#X connect 54 0 53 1;
#X connect 55 0 53 1;
#X connect 56 0 1 0;
#X connect 56 2 54 0;
#X connect 57 0 56 0;
#X connect 57 1 55 0;
#X connect 58 0 47 0;
#X connect 58 1 44 0;
#X connect 59 0 17 0;
#X connect 59 1 18 0;
#X connect 61 0 42 1;
#X connect 61 0 36 1;
#X connect 61 0 27 0;
#X connect 61 0 62 0;
