#N canvas 532 128 963 998 10;
#N canvas 1108 472 785 572 load 1;
#X obj 38 51 load-24 1 s24 \$1;
#X obj 38 71 load-24 2 s24 \$1;
#X obj 38 91 load-24 3 s24 \$1;
#X obj 38 111 load-24 4 s24 \$1;
#X obj 38 131 load-24 5 s24 \$1;
#X obj 38 151 load-24 6 s24 \$1;
#X obj 39 171 load-24 7 s24 \$1;
#X obj 38 191 load-24 8 s24 \$1;
#X obj 38 211 load-24 9 s24 \$1;
#X obj 38 231 load-24 10 s24 \$1;
#X obj 38 251 load-24 11 s24 \$1;
#X obj 38 271 load-24 12 s24 \$1;
#X obj 148 51 load-24 13 s24 \$1;
#X obj 148 71 load-24 14 s24 \$1;
#X obj 148 91 load-24 15 s24 \$1;
#X obj 148 111 load-24 16 s24 \$1;
#X obj 148 131 load-24 17 s24 \$1;
#X obj 148 151 load-24 18 s24 \$1;
#X obj 149 171 load-24 19 s24 \$1;
#X obj 148 191 load-24 20 s24 \$1;
#X obj 148 211 load-24 21 s24 \$1;
#X obj 148 231 load-24 22 s24 \$1;
#X obj 148 251 load-24 23 s24 \$1;
#X obj 148 271 load-24 24 s24 \$1;
#X restore 622 65 pd load sounds;
#X text 734 65 Loads samples to Ram;
#X text 766 93 clickless looping;
#N canvas 305 107 1611 910 synth 0;
#X obj 83 223 abs;
#X obj 83 182 expr if ($f1 > 59 \, $f1 - 60 \, $f1 - 12);
#X text 89 202 allow all midi notes to trigger samples...;
#X text 178 283 Notes in to Sampler Player;
#X obj 83 271 + 1;
#X obj 76 31 inlet;
#X obj 429 57 inlet ctrl;
#X obj 134 494 pack 0 0 0;
#N canvas 324 629 450 300 route 0;
#X obj 69 97 unpack 0 0 0;
#X obj 68 68 t l l;
#X obj 68 197 list;
#X obj 139 144 t b;
#X obj 139 123 route 1 0;
#X obj 226 163 unpack 0 0 0;
#X obj 226 194 pack 0 0 0;
#X obj 68 19 inlet msg;
#X obj 68 218 outlet global;
#X obj 226 215 outlet voice;
#X obj 187 162 - 1;
#X connect 0 2 4 0;
#X connect 1 0 0 0;
#X connect 1 1 2 1;
#X connect 1 1 5 0;
#X connect 2 0 8 0;
#X connect 3 0 2 0;
#X connect 4 0 3 0;
#X connect 4 1 3 0;
#X connect 4 2 10 0;
#X connect 5 0 6 1;
#X connect 5 1 6 2;
#X connect 6 0 9 0;
#X connect 7 0 1 0;
#X connect 10 0 6 0;
#X restore 131 384 pd route;
#N canvas 324 629 450 300 route 0;
#X obj 69 97 unpack 0 0 0;
#X obj 68 68 t l l;
#X obj 68 197 list;
#X obj 139 144 t b;
#X obj 139 123 route 1 0;
#X obj 234 171 unpack 0 0 0;
#X obj 234 202 pack 0 0 0;
#X obj 68 19 inlet msg;
#X obj 68 218 outlet global;
#X obj 234 223 outlet voice;
#X obj 190 158 - 1;
#X connect 0 2 4 0;
#X connect 1 0 0 0;
#X connect 1 1 2 1;
#X connect 1 1 5 0;
#X connect 2 0 8 0;
#X connect 3 0 2 0;
#X connect 4 0 3 0;
#X connect 4 1 3 0;
#X connect 4 2 10 0;
#X connect 5 0 6 1;
#X connect 5 1 6 2;
#X connect 6 0 9 0;
#X connect 7 0 1 0;
#X connect 10 0 6 0;
#X restore 553 146 pd route;
#X obj 76 58 unpack 0 0 0;
#X obj 83 301 pack 0 0 0;
#X obj 820 125 unpack 0 0 0;
#X obj 820 146 sel 123;
#X msg 820 167 stop;
#X obj 604 430 route 1 2 3 4 5 6 7 8 9 10 11 12 13 14 15 16 17 18 19
20 21 22 23 24, f 106;
#X obj 134 535 route 1 2 3 4 5 6 7 8 9 10 11 12 13 14 15 16 17 18 19
20 21 22 23 24, f 106;
#X obj 134 472 poly 24 1, f 10;
#X obj 83 249 % 24;
#X obj 134 600 s24-voice 1 \$1;
#X obj 177 621 s24-voice 2 \$1;
#X obj 243 600 s24-voice 3 \$1;
#X obj 272 620 s24-voice 4 \$1;
#X obj 374 624 s24-voice 5 \$1;
#X obj 403 660 s24-voice 6 \$1;
#X obj 504 640 s24-voice 7 \$1;
#X obj 522 660 s24-voice 8 \$1;
#X obj 634 640 s24-voice 9 \$1;
#X obj 652 660 s24-voice 10 \$1;
#X obj 765 640 s24-voice 11 \$1;
#X obj 782 661 s24-voice 12 \$1;
#X obj 884 600 s24-voice 13 \$1;
#X obj 927 621 s24-voice 14 \$1;
#X obj 993 600 s24-voice 15 \$1;
#X obj 1022 620 s24-voice 16 \$1;
#X obj 1135 706 s24-voice 17 \$1;
#X obj 1152 730 s24-voice 18 \$1;
#X obj 1253 710 s24-voice 19 \$1;
#X obj 1271 730 s24-voice 20 \$1;
#X obj 1383 710 s24-voice 21 \$1;
#X obj 1401 730 s24-voice 22 \$1;
#X obj 1514 710 s24-voice 23 \$1;
#X obj 1531 731 s24-voice 24 \$1;
#X connect 0 0 18 0;
#X connect 1 0 0 0;
#X connect 4 0 11 0;
#X connect 5 0 10 0;
#X connect 6 0 9 0;
#X connect 6 0 12 0;
#X connect 7 0 16 0;
#X connect 8 0 17 0;
#X connect 8 1 16 0;
#X connect 9 0 19 1;
#X connect 9 0 20 1;
#X connect 9 0 21 1;
#X connect 9 0 22 1;
#X connect 9 0 23 1;
#X connect 9 0 24 1;
#X connect 9 0 25 1;
#X connect 9 0 26 1;
#X connect 9 0 27 1;
#X connect 9 0 28 1;
#X connect 9 0 29 1;
#X connect 9 0 30 1;
#X connect 9 0 31 1;
#X connect 9 0 32 1;
#X connect 9 0 33 1;
#X connect 9 0 34 1;
#X connect 9 0 35 1;
#X connect 9 0 36 1;
#X connect 9 0 37 1;
#X connect 9 0 38 1;
#X connect 9 0 39 1;
#X connect 9 0 40 1;
#X connect 9 0 41 1;
#X connect 9 0 42 1;
#X connect 9 1 15 0;
#X connect 10 0 1 0;
#X connect 10 1 11 1;
#X connect 10 2 11 2;
#X connect 11 0 8 0;
#X connect 12 0 13 0;
#X connect 13 0 14 0;
#X connect 14 0 17 0;
#X connect 15 0 19 1;
#X connect 15 1 20 1;
#X connect 15 2 21 1;
#X connect 15 3 22 1;
#X connect 15 4 23 1;
#X connect 15 5 24 1;
#X connect 15 6 25 1;
#X connect 15 7 26 1;
#X connect 15 8 27 1;
#X connect 15 9 28 1;
#X connect 15 10 29 1;
#X connect 15 11 30 1;
#X connect 15 12 31 1;
#X connect 15 13 32 1;
#X connect 15 14 33 1;
#X connect 15 15 34 1;
#X connect 15 16 35 1;
#X connect 15 17 36 1;
#X connect 15 18 37 1;
#X connect 15 19 38 1;
#X connect 15 20 39 1;
#X connect 15 21 40 1;
#X connect 15 23 41 1;
#X connect 15 24 42 1;
#X connect 16 0 19 0;
#X connect 16 1 20 0;
#X connect 16 2 21 0;
#X connect 16 3 22 0;
#X connect 16 4 23 0;
#X connect 16 5 24 0;
#X connect 16 6 25 0;
#X connect 16 7 26 0;
#X connect 16 8 27 0;
#X connect 16 9 28 0;
#X connect 16 10 29 0;
#X connect 16 11 30 0;
#X connect 16 12 31 0;
#X connect 16 13 32 0;
#X connect 16 14 33 0;
#X connect 16 15 34 0;
#X connect 16 16 35 0;
#X connect 16 17 36 0;
#X connect 16 18 37 0;
#X connect 16 19 38 0;
#X connect 16 20 39 0;
#X connect 16 21 40 0;
#X connect 16 22 41 0;
#X connect 16 23 42 0;
#X connect 17 0 7 0;
#X connect 17 1 7 1;
#X connect 17 2 7 2;
#X connect 18 0 4 0;
#X restore 426 101 pd synth;
#X text 493 101 the synth;
#X obj 471 83 r ctrlIn-\$1;
#X obj 376 155 spigot 0;
#X obj 376 191 - 59;
#X obj 461 245 symbol \$1;
#X obj 376 209 / 24;
#X obj 376 173 unpack;
#X obj 376 227 t b b f, f 29;
#X obj 376 263 f;
#X obj 440 155 * 2;
#X obj 216 161 sel 1;
#X obj 216 207 delay 500;
#X msg 243 179 stop;
#X text 340 425 page and module is active;
#X obj 426 36 r notes;
#X obj 426 57 pack 0 0, f 9;
#X obj 477 37 r velocity;
#X obj 421 127 r auxIn;
#X obj 622 121 r s24_release;
#X obj 391 245 r s_kit;
#X obj 331 317 stdout;
#X obj 622 93 crown-window s24;
#X obj 440 173 s aux-led-\$1;
#X floatatom 466 207 5 0 0 0 - - -;
#X obj 208 141 r activeState;
#X floatatom 435 333 5 0 0 0 - - -;
#X symbolatom 461 266 10 0 0 0 - - -;
#X msg 461 286 rackSym \$1;
#X floatatom 547 267 5 0 0 0 - - -;
#X msg 547 287 rackNum \$1;
#X obj 547 313 stdout;
#X obj 516 338 loadbang;
#X msg 592 394 \; pd dsp 1;
#X obj 106 342 catch~ s24-voice-outL;
#X obj 187 365 catch~ s24-voice-outR;
#X obj 149 141 r active;
#X obj 45 137 r dir;
#X obj 532 404 delay 10;
#X msg 532 425 loaded;
#X obj 532 446 stdout;
#X obj 189 242 symbol \$1;
#X obj 45 158 symbol \$1;
#X symbolatom 45 179 15 0 0 0 - - -;
#X obj 45 199 s mediaDir;
#X obj 86 115 r s_kit;
#X obj 86 138 bng 15 250 50 0 empty empty empty 17 7 0 10 -262144 -1
-1;
#X msg 331 299 /kit-\$1;
#X obj 622 173 s s24-release-local;
#X obj 105 473 *~;
#X obj 148 471 *~;
#X obj 325 337 r volume;
#X obj 325 400 sig~;
#X obj 325 380 / 100;
#X floatatom 622 142 5 0 0 0 - - -;
#X obj 516 359 t b b b;
#X floatatom 325 358 5 0 0 0 - - -;
#X obj 105 429 comp, f 14;
#X obj 106 363 /~ 10;
#X obj 187 386 /~ 10;
#X obj 104 495 dac~ 1 2, f 15;
#X connect 5 0 3 1;
#X connect 6 0 10 0;
#X connect 7 0 9 0;
#X connect 7 0 27 0;
#X connect 8 0 30 0;
#X connect 9 0 11 0;
#X connect 10 0 7 0;
#X connect 11 0 12 0;
#X connect 11 0 44 0;
#X connect 11 1 8 0;
#X connect 11 2 32 0;
#X connect 12 0 29 0;
#X connect 12 0 50 0;
#X connect 13 0 26 0;
#X connect 14 0 15 0;
#X connect 14 1 16 0;
#X connect 15 0 12 0;
#X connect 15 0 44 0;
#X connect 16 0 15 0;
#X connect 18 0 19 0;
#X connect 19 0 3 0;
#X connect 19 0 6 0;
#X connect 20 0 19 1;
#X connect 21 0 6 1;
#X connect 21 0 13 0;
#X connect 22 0 57 0;
#X connect 23 0 12 1;
#X connect 28 0 14 0;
#X connect 30 0 31 0;
#X connect 31 0 34 0;
#X connect 32 0 33 0;
#X connect 33 0 34 0;
#X connect 35 0 58 0;
#X connect 37 0 61 0;
#X connect 38 0 62 0;
#X connect 39 0 44 0;
#X connect 39 0 8 1;
#X connect 40 0 45 0;
#X connect 41 0 42 0;
#X connect 42 0 43 0;
#X connect 45 0 46 0;
#X connect 46 0 47 0;
#X connect 48 0 49 0;
#X connect 49 0 45 0;
#X connect 50 0 24 0;
#X connect 52 0 63 0;
#X connect 53 0 63 1;
#X connect 54 0 59 0;
#X connect 55 0 52 1;
#X connect 55 0 53 1;
#X connect 56 0 55 0;
#X connect 57 0 51 0;
#X connect 58 0 59 0;
#X connect 58 0 57 0;
#X connect 58 1 41 0;
#X connect 58 2 36 0;
#X connect 59 0 56 0;
#X connect 60 0 52 0;
#X connect 60 1 53 0;
#X connect 61 0 60 0;
#X connect 62 0 60 1;
